<svg width="870" height="995" viewBox="0 0 870 995" fill="none" xmlns="http://www.w3.org/2000/svg">
<path d="M756.534 785.18H502.917V994.73H756.534V785.18Z" fill="#FF9446"/>
<path opacity="0.1" d="M756.534 785.18H502.917V994.73H756.534V785.18Z" fill="black"/>
<path d="M857.035 785.205H756.534V994.755H857.035V785.205Z" fill="#FF9446"/>
<path opacity="0.2" d="M857.035 785.205H756.534V994.755H857.035V785.205Z" fill="black"/>
<path d="M850.089 980.303C842.66 965.411 835.29 950.467 827.979 935.473L806.174 890.387L784.649 845.124C777.525 830.01 770.46 814.846 763.455 799.631C770.918 814.541 778.297 829.485 785.59 844.462L807.37 889.548L828.895 934.811C836.053 949.924 843.118 965.088 850.089 980.303Z" fill="#FF9446"/>
<path d="M850.089 799.631C843.101 814.897 836.036 830.061 828.895 845.124L807.37 890.387L785.59 935.473C778.28 950.45 770.901 965.394 763.455 980.303C770.46 965.038 777.525 949.873 784.649 934.811L806.174 889.548L827.979 844.488C835.29 829.476 842.66 814.524 850.089 799.631Z" fill="#FF9446"/>
<path d="M647.663 830.469H643.668H640.64L638.936 826.983L636.519 830.469L633.236 823.294L630.158 830.469H621.304H617.258L615.782 825.685L614.408 830.469H611.788V785.205H647.663V830.469Z" fill="white"/>
<path d="M771.826 575.655H582.604V785.18H771.826V575.655Z" fill="#FF9446"/>
<path d="M869.528 575.655H771.826V785.205H869.528V575.655Z" fill="#FF9446"/>
<path opacity="0.1" d="M869.528 575.655H771.826V785.205H869.528V575.655Z" fill="black"/>
<g opacity="0.1">
<path d="M757.959 770.753C744.067 755.844 730.294 740.9 716.639 725.922L675.854 680.735L635.679 635.472C622.347 620.358 609.15 605.194 596.089 589.979C609.998 604.889 623.772 619.841 637.409 634.836L678.118 679.896L718.293 725.159C731.676 740.34 744.898 755.538 757.959 770.753Z" fill="black"/>
<path d="M757.959 590.081C744.881 605.347 731.685 620.511 718.369 635.574L678.195 680.735L637.486 725.821C623.916 740.798 610.143 755.742 596.166 770.652C609.244 755.386 622.44 740.222 635.755 725.159L675.854 679.998L716.563 634.938C730.251 619.926 744.05 604.974 757.959 590.081Z" fill="black"/>
</g>
<path d="M855.788 749.737H838.665V773.908H855.788V749.737Z" fill="white"/>
<path d="M674.826 300.615C673.567 299.806 672.308 299.019 671.049 298.255L671.925 296.793L675.748 299.199L674.826 300.615Z" fill="#263238"/>
<path d="M619.922 525.897H618.303V524.211C621.305 524.278 624.308 524.165 627.296 523.874L627.476 525.56C625.025 525.74 622.462 525.897 619.922 525.897ZM636.604 524.053L636.245 522.412C639.169 521.75 642.04 520.871 644.833 519.782L645.44 521.355C642.565 522.458 639.611 523.345 636.604 524.008V524.053ZM653.759 517.308L652.927 515.847C655.511 514.338 657.97 512.624 660.279 510.721L661.358 512.002C658.979 513.988 656.437 515.77 653.759 517.331V517.308ZM667.991 505.617L666.754 504.471C668.772 502.253 670.628 499.894 672.308 497.411L673.702 498.355C671.978 500.926 670.069 503.368 667.991 505.662V505.617ZM678.288 490.351L676.759 489.632C678.041 486.924 679.087 484.11 679.884 481.223L681.503 481.673C680.687 484.661 679.611 487.572 678.288 490.374V490.351ZM683.145 472.544L681.458 472.409C681.458 471.195 681.616 469.959 681.616 468.767C681.609 467.099 681.512 465.433 681.323 463.776C679.574 463.658 677.832 463.441 676.107 463.124L676.4 461.46C679.145 461.956 681.929 462.211 684.718 462.225H685.303V463.911H684.696H683.01C683.19 465.538 683.28 467.175 683.279 468.812C683.302 470.026 683.235 471.308 683.145 472.567V472.544ZM694.544 462.787L694.161 461.145C697.053 460.461 699.853 459.434 702.503 458.088L703.267 459.594C700.497 461.007 697.568 462.086 694.544 462.809V462.787ZM667.159 460.696C664.252 459.647 661.432 458.369 658.728 456.874L659.56 455.412C662.177 456.858 664.906 458.091 667.721 459.099L667.159 460.696ZM679.255 454.76C678.269 451.949 676.972 449.257 675.388 446.734L676.804 445.834C678.47 448.458 679.828 451.264 680.851 454.198L679.255 454.76ZM711.001 454.4L709.922 453.119C712.203 451.192 714.289 449.046 716.15 446.711L717.454 447.768C715.533 450.212 713.372 452.457 711.001 454.468V454.4ZM651.106 451.702L650.634 451.253C648.408 449.298 646.636 446.881 645.44 444.171L647.014 443.541C648.11 446.022 649.737 448.232 651.78 450.016L652.23 450.421L651.106 451.702ZM722.67 440.214L721.231 439.337C722.805 436.729 724.266 434.053 725.548 431.423L727.077 432.165C725.773 434.84 724.289 437.561 722.67 440.214ZM669.79 439.876C667.735 437.887 665.474 436.123 663.045 434.615L662.707 434.39L663.584 432.951L663.944 433.176C666.45 434.758 668.779 436.605 670.891 438.685L669.79 439.876ZM647.464 435.537L646.07 434.593C647.032 433.24 648.308 432.141 649.788 431.389C651.268 430.637 652.908 430.255 654.568 430.276V431.962C653.186 431.954 651.821 432.274 650.586 432.895C649.351 433.517 648.281 434.422 647.464 435.537ZM730.652 423.688L729.078 423.104C730.119 420.282 731.012 417.408 731.753 414.493L733.372 414.897C732.647 417.878 731.746 420.814 730.674 423.688H730.652ZM735.148 405.859L733.462 405.634C733.863 402.652 734.096 399.65 734.159 396.641H735.845C735.784 399.724 735.551 402.802 735.148 405.859ZM733.844 387.648C733.574 384.63 733.146 381.628 732.563 378.655L734.226 378.317C734.813 381.329 735.249 384.368 735.53 387.423L733.844 387.648ZM730.359 369.976C729.505 367.143 728.493 364.288 727.324 361.455L728.898 360.825C730.067 363.681 731.146 366.604 731.978 369.481L730.359 369.976ZM723.614 353.226C722.265 350.595 720.759 347.942 719.118 345.334L720.557 344.458C722.175 347.088 723.704 349.786 725.053 352.462L723.614 353.226ZM714.149 337.803C712.418 335.374 710.552 332.969 708.618 330.63L709.922 329.551C711.878 331.912 713.767 334.363 715.52 336.813L714.149 337.803ZM702.637 323.818C700.591 321.57 698.433 319.479 696.23 317.41L697.376 316.174C699.625 318.287 701.873 320.468 703.852 322.671L702.637 323.818ZM689.44 311.385C687.192 309.474 684.741 307.585 682.335 305.787L683.324 304.438C685.775 306.236 688.203 308.147 690.519 310.103L689.44 311.385Z" fill="#263238"/>
<path d="M608.883 525.088C607.37 524.9 605.869 524.63 604.386 524.278L604.791 522.637C604.791 522.637 606.409 523.042 609.107 523.424L608.883 525.088Z" fill="#263238"/>
<path d="M586.197 521.738C585.14 530.731 603.509 535.767 604.903 523.986C606.297 512.205 587.254 512.677 586.197 521.738Z" fill="#263238"/>
<path d="M610.254 536.622C608.545 540.017 602.497 540.489 596.247 536.127C592.002 532.886 588.416 528.865 585.68 524.278C590.965 523.728 596.308 524.193 601.418 525.65C608.815 528.145 612.053 533.182 610.254 536.622Z" fill="#EBEBEB"/>
<path d="M585.748 524.278C589.3 525.875 592.785 527.606 596.27 529.315C599.755 531.023 603.194 532.844 606.589 534.733C603.037 533.137 599.552 531.406 596.067 529.697C592.582 527.988 589.143 526.167 585.748 524.278Z" fill="#263238"/>
<path d="M602.07 536.554C601.263 535.618 600.512 534.634 599.822 533.609C599.143 532.591 598.527 531.532 597.978 530.439C598.786 531.375 599.536 532.358 600.227 533.384C600.91 534.399 601.526 535.458 602.07 536.554Z" fill="#263238"/>
<path d="M594.516 528.663C595.753 528.341 597.006 528.086 598.271 527.898C599.545 527.718 600.829 527.605 602.115 527.561C599.625 528.181 597.079 528.55 594.516 528.663Z" fill="#263238"/>
<path d="M592.56 530.146C591.787 529.184 591.234 528.063 590.941 526.864C591.715 527.826 592.267 528.947 592.56 530.146Z" fill="#263238"/>
<path d="M613.222 513.082C612.345 509.372 606.589 507.528 599.507 510.316C594.619 512.492 590.193 515.583 586.467 519.422C591.521 521.172 596.863 521.935 602.205 521.67C609.782 521.041 614.121 516.904 613.222 513.082Z" fill="#EBEBEB"/>
<path d="M586.467 519.422C590.289 518.702 594.089 517.803 597.866 516.926C601.643 516.049 605.42 515.105 609.107 514.048C605.308 514.768 601.508 515.667 597.731 516.544C593.954 517.421 590.221 518.365 586.467 519.422Z" fill="#263238"/>
<path d="M605.195 511.238C604.217 511.934 603.279 512.685 602.385 513.486C601.493 514.326 600.645 515.212 599.844 516.139C600.833 515.457 601.772 514.705 602.655 513.891C603.552 513.057 604.401 512.171 605.195 511.238Z" fill="#263238"/>
<path d="M595.977 517.174C598.255 518.359 600.652 519.301 603.127 519.984C600.854 518.788 598.456 517.846 595.977 517.174Z" fill="#263238"/>
<path d="M594.516 515.285C594.026 515.651 593.581 516.074 593.189 516.544C592.801 517.026 592.462 517.546 592.177 518.095C592.668 517.721 593.113 517.291 593.504 516.814C593.912 516.355 594.253 515.84 594.516 515.285Z" fill="#263238"/>
<path d="M586.197 521.738C586.841 521.813 587.448 522.077 587.943 522.496C588.437 522.916 588.796 523.473 588.974 524.096C589.152 524.72 589.141 525.382 588.944 526C588.746 526.617 588.369 527.162 587.862 527.566C587.355 527.97 586.74 528.215 586.093 528.269C585.447 528.324 584.8 528.186 584.232 527.872C583.664 527.559 583.202 527.085 582.903 526.509C582.605 525.934 582.484 525.283 582.555 524.638C582.656 523.772 583.096 522.981 583.778 522.438C584.461 521.894 585.33 521.643 586.197 521.738Z" fill="#455A64"/>
<path d="M586.961 515.195C587.391 515.245 587.807 515.379 588.184 515.59C588.562 515.801 588.894 516.084 589.163 516.423C589.431 516.763 589.63 517.151 589.748 517.567C589.866 517.984 589.901 518.419 589.851 518.848C589.8 519.278 589.666 519.694 589.455 520.071C589.244 520.449 588.961 520.781 588.622 521.05C588.283 521.318 587.894 521.517 587.478 521.635C587.062 521.753 586.627 521.788 586.197 521.737C585.329 521.636 584.538 521.194 583.996 520.509C583.454 519.824 583.207 518.952 583.308 518.084C583.409 517.216 583.851 516.425 584.536 515.883C585.221 515.341 586.094 515.094 586.961 515.195Z" fill="#455A64"/>
<path d="M301.839 762.942C301.839 762.942 247.594 871.559 247.569 871.559C243.091 893.975 239.579 913.744 238.689 924.125C238.676 924.184 238.676 924.245 238.689 924.303C238.219 926.709 238.315 929.192 238.969 931.554C238.956 931.613 238.956 931.674 238.969 931.733C244.744 937.585 422.999 978.624 429.793 977.963C436.586 977.301 435.136 958.143 429.487 951.044C423.839 943.945 362.597 897.613 362.597 897.613L415.621 788.818L301.839 762.942Z" fill="#D3766A"/>
<path d="M427.096 978.064C420.404 978.726 244.821 937.661 239.07 931.834C239.062 931.775 239.062 931.715 239.07 931.656C238.405 929.296 238.3 926.813 238.765 924.405C238.744 924.347 238.744 924.284 238.765 924.227C239.63 913.846 243.167 894.076 247.619 871.636L260.595 845.633L373.08 876.47L362.699 897.791C362.699 897.791 421.218 944.021 426.892 951.222C432.566 958.422 433.813 977.428 427.096 978.064Z" fill="#EBEBEB"/>
<path d="M429.538 975.215C422.745 975.724 244.057 930.18 238.358 924.125C236.17 921.861 241.284 895.425 248.383 863.672L248.612 862.68L364.226 890.794L363.691 892.728C363.691 892.728 424.272 940.765 429.844 948.092C435.416 955.42 436.306 974.732 429.538 975.215Z" fill="#263238"/>
<path d="M429.258 967.76C399.337 959.364 277.82 928.221 247.594 922.166C247.339 922.166 247.289 922.293 247.594 922.37C277.083 931.351 398.854 961.501 429.207 968.167C429.793 968.396 429.894 967.938 429.258 967.76Z" fill="white"/>
<path d="M373.284 895.552C361.987 890.311 347.026 888.428 335.831 894.585C335.399 894.814 335.831 895.425 336.137 895.399C348.398 894.631 360.706 895.177 372.851 897.028C373.029 897.039 373.206 896.989 373.352 896.886C373.498 896.783 373.605 896.634 373.655 896.462C373.706 896.291 373.696 896.108 373.629 895.942C373.561 895.777 373.44 895.639 373.284 895.552Z" fill="white"/>
<path d="M380.509 902.88C369.238 897.664 354.277 895.781 343.057 901.913C342.624 902.142 343.057 902.753 343.388 902.753C355.649 901.971 367.958 902.517 380.102 904.381C380.288 904.399 380.474 904.351 380.627 904.245C380.78 904.139 380.891 903.982 380.94 903.803C380.989 903.623 380.972 903.431 380.893 903.262C380.815 903.094 380.678 902.958 380.509 902.88Z" fill="white"/>
<path d="M387.761 910.233C376.464 904.992 361.503 903.109 350.308 909.241C349.876 909.495 350.308 910.106 350.639 910.08C362.892 909.312 375.192 909.858 387.328 911.709C387.506 911.719 387.683 911.669 387.829 911.567C387.975 911.464 388.082 911.315 388.133 911.143C388.183 910.972 388.173 910.788 388.106 910.623C388.038 910.458 387.917 910.32 387.761 910.233Z" fill="white"/>
<path d="M433.889 969.516C436.764 971.551 433.329 982.11 430.811 982.39C428.292 982.67 233.677 932.14 230.598 930.537C227.519 928.934 231.743 917.383 235.687 917.815C239.63 918.248 433.889 969.516 433.889 969.516Z" fill="#FF9446"/>
<path d="M273.012 890.209C261.715 880.439 246.5 897.995 257.746 907.79C268.992 917.586 284.334 900.005 273.012 890.209Z" fill="white"/>
<path d="M260.926 836.956L391.297 869.829C391.297 869.829 512.814 650.534 510.092 594.788C506.351 517.899 416.079 281.48 416.079 281.48H307.996C307.996 281.48 379.721 537.057 380.713 580.056C381.145 602.548 260.926 836.956 260.926 836.956Z" fill="#455A64"/>
<path d="M396.869 843.368C389.923 840.595 327.867 822.683 281.561 812.836C281.51 812.853 281.465 812.885 281.434 812.929C281.403 812.972 281.386 813.025 281.386 813.078C281.386 813.132 281.403 813.184 281.434 813.227C281.465 813.271 281.51 813.303 281.561 813.32C296.14 818.408 388.142 842.656 396.768 843.852C396.971 843.928 397.175 843.572 396.869 843.368Z" fill="#263238"/>
<path d="M389.669 525.15C381.069 489.072 371.859 453.095 362.19 417.347C352.522 381.599 342.166 345.521 330.793 310.053C329.419 305.702 327.969 301.402 326.57 297.077C326.529 296.939 326.435 296.822 326.309 296.753C326.182 296.684 326.034 296.668 325.895 296.708C325.757 296.749 325.641 296.842 325.571 296.969C325.502 297.095 325.486 297.244 325.526 297.382C335.704 332.723 345.881 367.987 355.524 403.455C365.167 438.923 374.352 474.493 383.003 510.317C385.165 519.171 387.277 528 389.338 536.879C391.733 545.98 393.585 555.215 394.885 564.536C395.954 573.442 395.342 582.47 393.078 591.15C390.623 599.679 387.413 607.972 383.486 615.931C367.898 649.771 352.318 683.619 336.747 717.475C321.176 751.416 318.657 759.151 303.671 793.372C301.813 797.621 299.956 801.87 298.175 806.094C298.175 806.374 298.455 806.628 298.608 806.323C315.655 772.789 318.275 764.723 334.228 730.578C350.181 696.434 366.032 661.882 381.858 627.508C388.982 611.988 397.353 596.162 398.421 578.81C399.49 560.694 393.791 542.528 389.669 525.15Z" fill="#263238"/>
<path d="M395.572 805.89L399.744 925.473C400.431 948.372 401.424 968.396 402.925 978.7C402.913 978.759 402.913 978.82 402.925 978.879C403.01 981.324 403.654 983.717 404.808 985.875L404.96 986.028C411.906 990.43 594.818 990.328 601.204 988.165C607.59 986.003 601.942 967.684 594.843 962.01C587.744 956.336 517.674 925.066 517.674 925.066L512.356 805.61L395.572 805.89Z" fill="#D3766A"/>
<path d="M398.879 900.997C398.879 900.997 399.744 925.474 399.744 925.55C400.431 948.449 401.424 968.473 402.925 978.777C402.912 978.836 402.912 978.896 402.925 978.955C403.272 981.354 403.905 983.703 404.808 985.952L404.96 986.105C411.906 990.506 594.818 990.405 601.204 988.242C607.59 986.079 601.942 967.76 594.843 962.086C587.744 956.412 517.674 925.143 517.674 925.143L517.139 900.234L398.879 900.997Z" fill="#EBEBEB"/>
<path d="M601.306 988.038C594.843 990.099 410.482 987.25 403.51 982.67C400.966 980.965 399.694 954.097 399.236 921.606V920.588L518.208 921.097V923.133C518.208 923.133 588.304 955.776 595.403 961.603C602.501 967.429 607.794 986.054 601.306 988.038Z" fill="#263238"/>
<path d="M599.346 980.965C568.28 979.718 442.845 977.632 412.033 978.777C411.779 978.777 411.779 978.955 412.033 978.955C442.794 980.863 568.255 981.957 599.346 981.499C599.982 981.347 600.008 980.965 599.346 980.965Z" fill="white"/>
<path d="M528.131 923.591C515.943 921.046 500.932 922.751 491.467 931.224C491.085 931.555 491.467 932.063 491.976 931.962C503.723 928.377 515.816 926.048 528.054 925.016C528.202 924.968 528.331 924.877 528.426 924.755C528.52 924.632 528.576 924.484 528.584 924.33C528.592 924.175 528.553 924.022 528.472 923.89C528.391 923.758 528.272 923.653 528.131 923.591Z" fill="white"/>
<path d="M536.883 929.036C524.671 926.491 509.684 928.221 500.22 936.796C499.838 937.127 500.22 937.635 500.703 937.508C512.456 933.919 524.56 931.599 536.807 930.588C536.991 930.565 537.161 930.477 537.288 930.341C537.414 930.205 537.488 930.029 537.497 929.844C537.506 929.658 537.45 929.476 537.337 929.328C537.225 929.18 537.064 929.076 536.883 929.036Z" fill="white"/>
<path d="M545.61 934.506C533.423 931.962 518.437 933.666 508.947 942.139C508.59 942.47 508.947 942.978 509.456 942.877C521.203 939.294 533.296 936.966 545.534 935.931C545.681 935.883 545.811 935.793 545.906 935.67C546 935.548 546.055 935.399 546.063 935.245C546.072 935.09 546.033 934.937 545.952 934.805C545.871 934.673 545.752 934.569 545.61 934.506Z" fill="white"/>
<path d="M604.231 981.474C607.514 982.797 606.623 993.865 604.231 994.704C601.84 995.544 400.686 991.549 397.404 990.735C394.121 989.921 395.444 977.683 399.439 977.098C403.434 976.513 604.231 981.474 604.231 981.474Z" fill="#FF9446"/>
<path d="M429.36 941.655C416.104 934.76 405.367 955.369 418.649 962.264C431.93 969.159 442.642 948.55 429.36 941.655Z" fill="white"/>
<path d="M414.73 281.277C414.247 283.491 387.303 390.021 383.944 392.006C380.128 394.27 481.849 531.129 493.91 598.325C501.543 641.298 519.353 891.787 519.353 891.787H389.643C389.643 891.787 376.922 679.056 372.698 608.96C371.044 581.761 269.017 456.021 259.323 372.186C256.27 345.776 275.251 281.175 275.251 281.175L414.73 281.277Z" fill="#455A64"/>
<path d="M386.361 790.574C384.835 755.335 383.435 720.02 380.865 684.832C379.415 664.884 376.566 645.573 374.581 625.702C374.581 624.658 373.64 624.404 373.665 625.473C374.581 660.864 377.507 695.874 379.39 731.24C381.273 766.606 383.079 774.85 385.089 810.114C386.209 830.061 387.201 850.009 388.753 869.931C388.77 869.982 388.802 870.026 388.845 870.058C388.889 870.089 388.941 870.106 388.995 870.106C389.048 870.106 389.1 870.089 389.144 870.058C389.187 870.026 389.22 869.982 389.236 869.931C389.313 834.514 387.913 825.94 386.361 790.574Z" fill="#263238"/>
<path d="M494.037 600.004C492.927 590.698 491.124 581.487 488.643 572.449C485.971 563.689 482.452 555.21 478.135 547.133C469.306 530.188 459.256 513.803 449.562 497.341C439.868 480.879 429.767 464.061 419.539 447.625C413.789 438.397 408.013 429.178 402.212 419.968C396.309 410.681 390.076 401.573 383.995 392.413C383.948 392.335 383.872 392.28 383.783 392.258C383.695 392.237 383.602 392.251 383.524 392.298C383.447 392.346 383.391 392.422 383.37 392.51C383.348 392.598 383.363 392.692 383.41 392.769C393.333 409.409 403.154 426.074 413.077 442.714C422.999 459.354 432.77 476.045 442.54 492.735C452.31 509.426 461.8 525.608 471.011 542.299C475.546 550.224 479.451 558.493 482.689 567.03C485.701 575.875 487.89 584.98 489.228 594.228C492.688 615.779 495.513 637.482 499.838 658.829C499.855 658.88 499.887 658.924 499.93 658.955C499.974 658.987 500.026 659.004 500.08 659.004C500.133 659.004 500.185 658.987 500.229 658.955C500.272 658.924 500.305 658.88 500.321 658.829C498.973 639.187 496.632 619.519 494.037 600.004Z" fill="#263238"/>
<path d="M507.929 869.549C500.525 868.582 444.015 866.623 396.742 868.659C396.437 868.659 396.462 869.117 396.742 869.142C412.135 870.491 499.176 871.101 507.852 870.084C508.081 870.058 508.183 869.6 507.929 869.549Z" fill="#263238"/>
<path d="M400.864 384.729C387.648 389.544 374.878 395.503 362.699 402.539C362.595 402.586 362.513 402.673 362.472 402.781C362.432 402.888 362.436 403.007 362.483 403.112C362.53 403.216 362.617 403.298 362.724 403.338C362.832 403.379 362.951 403.375 363.055 403.328C375.93 397.781 389.084 392.489 401.653 386.256C401.855 386.151 402.008 385.97 402.077 385.753C402.146 385.536 402.126 385.3 402.022 385.098C401.917 384.895 401.736 384.743 401.519 384.674C401.302 384.604 401.066 384.624 400.864 384.729Z" fill="#263238"/>
<path d="M404.757 296.543C404.757 296.11 403.943 296.008 403.943 296.543C403.945 310.92 403.223 325.288 401.78 339.593C401.169 346.233 395.826 382.846 384.326 380.302C382.392 379.844 381.425 377.961 381.12 375.035C381.152 371.237 381.665 367.458 382.647 363.789C383.919 356.156 384.937 348.523 385.598 340.661C386.947 326.216 386.794 311.669 385.14 297.255C385.119 297.174 385.071 297.102 385.004 297.05C384.937 296.999 384.855 296.971 384.771 296.971C384.687 296.971 384.605 296.999 384.538 297.05C384.472 297.102 384.424 297.174 384.402 297.255C384.735 317.279 383.562 337.3 380.891 357.148C379.441 366.69 374.632 381.065 384.631 382.592C394.63 384.118 401.373 360.024 402.594 353.434C405.777 334.644 406.504 315.52 404.757 296.543Z" fill="#263238"/>
<path d="M384.631 381.091C383.612 383.575 382.762 386.125 382.087 388.724C381.354 390.719 380.992 392.832 381.018 394.957C381.03 395.044 381.069 395.125 381.128 395.189C381.188 395.254 381.266 395.299 381.351 395.318C381.437 395.337 381.526 395.33 381.607 395.298C381.689 395.265 381.758 395.208 381.807 395.135C383.009 393.26 383.91 391.208 384.478 389.054C385.369 386.688 386.285 384.373 387.023 381.981C387.141 381.664 387.128 381.313 386.987 381.005C386.847 380.697 386.589 380.458 386.272 380.34C385.955 380.222 385.604 380.235 385.296 380.375C384.988 380.516 384.749 380.773 384.631 381.091Z" fill="#263238"/>
<path d="M390.05 643.156C388.829 625.04 388.906 605.932 381.196 589.14C377.101 580.957 372.389 573.098 367.101 565.63C361.842 557.59 356.652 549.508 351.529 541.383C331.175 508.892 311.533 475.739 293.646 441.773C285.021 425.413 277.083 408.518 272.757 390.454C268.539 371.444 267.738 351.835 270.391 332.545C271.002 327.736 271.663 322.953 272.452 318.17C272.455 318.105 272.435 318.041 272.395 317.989C272.356 317.938 272.3 317.901 272.237 317.886C272.174 317.871 272.108 317.879 272.049 317.907C271.991 317.936 271.945 317.983 271.918 318.042C267.731 336.387 266.299 355.252 267.669 374.017C269.627 391.959 274.68 409.426 282.604 425.642C290.491 442.714 299.88 459.15 309.141 475.51C318.691 492.473 328.52 509.189 338.63 525.659C348.807 542.095 359.29 558.201 369.798 574.383C375.158 582.015 379.335 590.413 382.189 599.292C384.502 608.557 385.832 618.04 386.158 627.584C388.702 667.632 398.879 800.776 402.492 840.62C402.925 845.709 403.383 850.798 403.866 855.886C403.852 855.939 403.85 855.995 403.86 856.049C403.87 856.102 403.893 856.153 403.926 856.197C403.96 856.24 404.002 856.276 404.052 856.3C404.101 856.324 404.155 856.337 404.21 856.337C404.264 856.337 404.319 856.324 404.368 856.3C404.417 856.276 404.46 856.24 404.493 856.197C404.526 856.153 404.549 856.102 404.559 856.049C404.57 855.995 404.568 855.939 404.553 855.886C403.027 815.89 392.671 683.076 390.05 643.156Z" fill="#263238"/>
<path d="M327.791 316.389C327.791 316.109 327.333 316.211 327.333 316.389C326.951 327.507 327.333 339.008 322.982 349.465C319.064 359.108 311.177 365.876 302.348 370.939C297.213 373.82 291.921 376.411 286.497 378.699C286.115 378.877 286.268 379.488 286.7 379.361C296.877 376.104 307.386 372.567 315.909 365.748C325.018 358.421 329.012 347.811 329.445 336.362C329.601 329.664 329.046 322.969 327.791 316.389Z" fill="#263238"/>
<path d="M384.249 135.157C398.803 179.835 438.113 255.936 452.157 265.121C464.599 273.237 523.144 264.179 548.841 257.997C558.408 255.681 536.883 182.761 526.68 185.432C514.442 188.638 477.982 196.856 475.336 194.821C472.69 192.786 435.924 147.497 409.871 120.832C386.158 96.6866 378.754 118.262 384.249 135.157Z" fill="#D3766A"/>
<path d="M543.219 258.556C548.129 257.946 589.678 256.012 608.735 245.656C618.912 240.135 644.89 221.867 642.294 215.303C639.928 209.324 631.583 212.58 631.583 212.58C631.583 212.58 643.058 204.26 639.699 195.966C636.341 187.671 622.474 193.905 622.474 193.905C622.474 193.905 633.644 184.491 629.7 176.476C625.756 168.462 612.882 177.036 612.882 177.036C612.882 177.036 623.492 168.92 617.462 163.678C610.185 157.369 592.299 174.568 580.213 178.588C577.465 179.504 523.322 193.193 523.322 193.193L543.219 258.556Z" fill="#D3766A"/>
<path d="M612.424 176.807C599.245 189.402 591.281 192.633 573.674 196.195C573.343 196.195 573.369 196.806 573.674 196.755C591.23 194.847 601.789 192.226 613.009 177.418C613.62 176.68 613.035 176.197 612.424 176.807Z" fill="#263238"/>
<path d="M622.042 193.6C607.208 205.507 598.609 209.069 580.442 214.158C580.188 214.158 580.289 214.692 580.569 214.641C598.787 211.13 609.269 208.28 622.525 194.439C623.136 193.829 622.729 193.065 622.042 193.6Z" fill="#263238"/>
<path d="M630.692 212.784C615.426 223.266 606.241 227.617 587.973 230.289C587.885 230.289 587.801 230.324 587.739 230.386C587.677 230.448 587.642 230.532 587.642 230.619C587.642 230.707 587.677 230.791 587.739 230.853C587.801 230.915 587.885 230.95 587.973 230.95C606.877 230.034 618.505 224.717 630.896 213.293C631.812 212.58 631.634 212.148 630.692 212.784Z" fill="#263238"/>
<path d="M509.125 195.533C509.125 195.533 524.263 178.41 532.558 172.355C540.852 166.299 580.137 155.104 583.037 163.449C586.777 174.237 565.38 185.152 554.21 189.122C554.21 189.122 562.886 214.056 549.121 225.2C535.357 236.344 509.125 195.533 509.125 195.533Z" fill="#D3766A"/>
<path d="M583.114 166.782C579.424 179.072 564.413 183.346 553.854 188.002C553.698 188.07 553.559 188.172 553.45 188.303C553.341 188.433 553.263 188.587 553.223 188.752C553.184 188.918 553.184 189.09 553.222 189.256C553.261 189.422 553.338 189.576 553.447 189.707C556.398 200.393 557.416 216.32 549.936 225.327C549.732 225.582 550.063 225.938 550.317 225.709C559.655 217.16 559.91 201.411 555.94 189.91C566.856 185.305 581.714 180.344 583.216 166.833C583.241 166.782 583.139 166.782 583.114 166.782Z" fill="#263238"/>
<path d="M543.193 271.1L524.009 183.728L476.532 192.353C457.806 170.904 420.379 128.032 405.291 115.158C387.481 100.045 375.828 111.393 382.392 134.291C397.225 186.628 440.606 263.467 451.954 270.718C468.415 281.277 543.193 271.1 543.193 271.1Z" fill="#FF9446"/>
<path opacity="0.1" d="M475.413 218.941C477.763 219.452 480.157 219.733 482.562 219.78C487.651 220.467 489.89 227.973 485.259 230.823C482.827 232.321 480.078 233.227 477.233 233.47C474.387 233.714 471.524 233.286 468.874 232.222C463.785 230.238 459.485 225.302 460.579 219.501C460.769 218.419 461.235 217.405 461.932 216.557C462.63 215.709 463.535 215.056 464.559 214.662C465.584 214.267 466.693 214.145 467.779 214.306C468.865 214.467 469.891 214.907 470.756 215.582C472.166 216.887 473.73 218.014 475.413 218.941ZM462.284 198.154C460.452 206.804 473.835 214.234 480.679 209.629C481.231 209.211 481.681 208.674 481.997 208.058C482.313 207.442 482.486 206.763 482.503 206.071C482.52 205.379 482.381 204.693 482.096 204.062C481.811 203.431 481.388 202.873 480.857 202.428C478.847 200.8 477.168 200.545 475.387 199.07C474.765 198.583 474.216 198.009 473.759 197.365C472.75 195.974 471.458 194.812 469.968 193.956C469.193 193.624 468.352 193.473 467.51 193.514C466.668 193.555 465.847 193.786 465.107 194.19C464.367 194.594 463.729 195.161 463.24 195.847C462.751 196.534 462.424 197.322 462.284 198.154ZM440.937 198.612C438.189 202.199 440.25 207.593 442.667 210.85C443.755 212.472 445.254 213.776 447.011 214.63C448.767 215.484 450.719 215.856 452.666 215.71C453.376 215.61 454.042 215.307 454.583 214.837C455.124 214.367 455.518 213.751 455.717 213.063C455.916 212.374 455.912 211.643 455.705 210.957C455.497 210.271 455.096 209.659 454.549 209.196C453.019 208.032 451.796 206.513 450.987 204.769C449.791 202.072 449.003 198.586 445.898 197.416C445.051 197.067 444.115 196.995 443.224 197.21C442.333 197.425 441.533 197.915 440.937 198.612ZM497.294 255.197C493.706 262.449 504.621 270.692 511.237 269.267C513.45 268.784 515.587 265.884 513.628 263.797C512.051 262.118 510.168 260.795 508.692 259.014C506.886 256.851 505.894 254.078 503.069 252.984C502.007 252.539 500.814 252.521 499.738 252.933C498.662 253.345 497.787 254.156 497.294 255.197ZM394.808 166.273C394.183 165.082 393.316 164.034 392.264 163.195C393.689 166.842 395.19 170.497 396.768 174.161C396.852 171.402 396.174 168.672 394.808 166.273ZM408.98 158.64C408.482 152.355 406.026 146.385 401.958 141.568C398.905 137.624 393.613 131.391 388.015 132.739C387.42 132.925 386.901 133.298 386.534 133.802C386.168 134.306 385.973 134.915 385.98 135.538C385.624 139.838 390.56 144.443 392.697 147.878C395.241 152.203 397.251 156.987 399.999 161.287C400.573 162.171 401.418 162.845 402.408 163.209C403.397 163.573 404.478 163.608 405.488 163.307C406.499 163.007 407.385 162.387 408.014 161.542C408.644 160.696 408.983 159.669 408.98 158.615V158.64ZM407.327 185.992C408.321 185.941 409.272 185.572 410.042 184.94C410.811 184.308 411.358 183.446 411.601 182.481C411.996 180.505 411.865 178.461 411.219 176.552C410.839 174.735 409.958 173.061 408.675 171.718C408.216 171.293 407.654 170.995 407.045 170.852C406.436 170.71 405.8 170.728 405.199 170.905C404.599 171.082 404.055 171.411 403.621 171.862C403.187 172.312 402.877 172.868 402.721 173.474C402.518 174.96 402.518 176.466 402.721 177.952C402.721 178.588 402.721 179.224 402.721 179.885C402.708 180.844 402.811 181.801 403.027 182.735C403.3 183.665 403.867 184.481 404.641 185.063C405.416 185.645 406.358 185.962 407.327 185.966V185.992Z" fill="#030402"/>
<path d="M526.579 263.467C524.391 258.378 518.946 235.784 517.75 230.162C516.554 224.539 512.127 201.792 510.83 196.017C510.83 195.686 511.186 195.508 511.262 195.813C512.636 201.513 518.768 223.953 520.116 229.551C521.465 235.148 526.528 257.717 526.884 263.39C526.889 263.41 526.89 263.431 526.887 263.452C526.884 263.472 526.877 263.492 526.867 263.509C526.845 263.545 526.81 263.571 526.77 263.581C526.729 263.591 526.686 263.585 526.651 263.563C526.615 263.542 526.589 263.507 526.579 263.467Z" fill="#263238"/>
<path opacity="0.1" d="M482.486 275.476C469.128 275.476 457.399 274.204 451.954 270.718C440.53 263.339 397.149 186.755 382.214 134.317C378.449 121.188 380.713 111.825 386.667 109.103L482.486 275.476Z" fill="black"/>
<path d="M267.185 293.261C267.516 293.744 426.282 314.099 427.986 312.623C428.884 308.203 429.521 303.734 429.895 299.24C429.895 299.24 415.341 126.379 407.81 116.227C401.22 107.373 381.222 100.961 367.61 106.737C339.037 118.848 270.62 273.288 271.358 279.75C271.307 279.674 266.778 292.65 267.185 293.261Z" fill="#FF9446"/>
<path opacity="0.1" d="M324.432 272.219C326.881 273.408 329.437 274.363 332.065 275.069C337.358 277.181 337.841 286.01 332.065 287.791C328.995 288.765 325.74 289.007 322.559 288.499C319.378 287.991 316.36 286.747 313.746 284.865C308.658 281.303 305.375 274.687 308.123 268.784C308.628 267.661 309.412 266.687 310.402 265.955C311.392 265.222 312.554 264.757 313.775 264.604C314.997 264.451 316.237 264.614 317.378 265.079C318.518 265.544 319.519 266.294 320.285 267.258C321.71 268.912 322.575 271.1 324.432 272.219ZM315.731 245.936C311.38 254.918 323.974 266.647 332.701 263.467C333.432 263.175 334.086 262.717 334.61 262.129C335.134 261.542 335.514 260.84 335.722 260.081C335.929 259.321 335.957 258.524 335.804 257.752C335.65 256.979 335.32 256.253 334.839 255.63C333.109 253.315 331.328 252.577 329.75 250.542C329.206 249.838 328.768 249.058 328.452 248.226C327.7 246.45 326.602 244.841 325.221 243.494C322.193 240.568 317.334 242.629 315.731 245.936ZM301.025 236.37C296.267 238.151 295.046 244.563 295.402 249.091C295.475 251.292 296.131 253.433 297.302 255.297C298.473 257.161 300.117 258.681 302.068 259.701C302.804 260.03 303.619 260.139 304.416 260.014C305.212 259.889 305.956 259.536 306.556 258.998C307.156 258.46 307.587 257.759 307.798 256.981C308.008 256.202 307.989 255.38 307.742 254.613C306.934 252.578 306.654 250.373 306.927 248.201C307.36 244.944 308.658 241.128 306.495 238.202C305.893 237.358 305.04 236.727 304.057 236.398C303.075 236.069 302.013 236.059 301.025 236.37ZM353.183 266.647C351.979 266.544 350.781 266.906 349.834 267.658C348.888 268.41 348.266 269.496 348.095 270.693C347.964 271.978 348.287 273.269 349.007 274.342C349.727 275.415 350.799 276.203 352.038 276.57C353.773 277.143 355.646 277.143 357.381 276.57C358.269 276.219 359.001 275.56 359.442 274.713C359.953 273.894 360.16 272.921 360.027 271.965C359.887 271.073 359.478 270.244 358.855 269.59C358.233 268.936 357.426 268.486 356.542 268.301C356.382 268.09 356.193 267.901 355.982 267.741C355.174 267.114 354.202 266.734 353.183 266.647ZM314.179 205.253C309.904 209.629 311.634 219.577 316.52 222.936C317.149 223.414 317.892 223.719 318.675 223.821C319.458 223.923 320.255 223.819 320.986 223.518C321.716 223.217 322.355 222.73 322.839 222.106C323.323 221.482 323.636 220.741 323.745 219.959C323.821 218.951 323.821 217.939 323.745 216.931C323.745 215.837 323.593 215.15 323.745 214.387C324.126 212.211 324.203 209.994 323.974 207.797C323.777 206.755 323.287 205.791 322.563 205.017C321.838 204.242 320.909 203.69 319.882 203.423C318.856 203.156 317.775 203.187 316.765 203.511C315.755 203.835 314.859 204.439 314.179 205.253ZM286.573 268.555C280.696 275.527 290.389 287.485 297.997 287.714C300.541 287.714 303.671 285.17 302.093 282.371C300.821 280.132 299.116 278.148 297.997 275.832C296.623 272.983 296.292 269.65 293.493 267.716C292.45 266.949 291.153 266.608 289.867 266.764C288.581 266.92 287.403 267.561 286.573 268.555ZM426.943 266.342C425.985 266.485 425.092 266.91 424.376 267.563C423.66 268.215 423.154 269.065 422.923 270.006C422.109 272.83 422.007 275.349 419.895 277.639C417.61 279.437 415.558 281.514 413.789 283.821C413.494 284.398 413.353 285.041 413.381 285.688C413.409 286.335 413.604 286.963 413.948 287.512C414.291 288.061 414.771 288.511 415.341 288.818C415.911 289.126 416.551 289.28 417.198 289.266C421.641 288.72 425.709 286.5 428.571 283.058C428.063 278.224 427.554 272.55 426.969 266.24L426.943 266.342ZM414.221 245.351C412.797 248.812 413.051 252.73 411.855 256.343C410.806 259.655 409.557 262.901 408.115 266.062C407.047 268.352 409.184 271.965 411.957 270.744C416.467 269.012 420.157 265.641 422.287 261.304C424.221 257.31 426.358 250.593 424.501 246.344C422.643 242.095 416.333 240.237 414.171 245.249L414.221 245.351ZM399.719 280.03C397.604 282.762 394.899 284.98 391.806 286.518C391.069 286.747 390.389 287.13 389.811 287.642C389.233 288.153 388.771 288.782 388.454 289.485C388.138 290.189 387.974 290.952 387.975 291.724C387.976 292.496 388.141 293.259 388.459 293.962C388.777 294.665 389.241 295.293 389.82 295.803C390.399 296.313 391.079 296.695 391.817 296.922C392.554 297.149 393.332 297.217 394.098 297.121C394.863 297.025 395.6 296.767 396.259 296.365C398.891 295.236 401.244 293.544 403.152 291.408C405.06 289.271 406.476 286.743 407.301 284C408.497 279.598 402.543 276.723 399.668 279.929L399.719 280.03ZM376.464 155.359C377.885 155.659 379.368 155.398 380.601 154.63C381.835 153.861 382.723 152.646 383.079 151.237C384.504 145.767 379.619 140.144 375.751 136.734C371.884 133.325 366.439 130.221 361.02 131.976C360.298 132.21 359.648 132.624 359.132 133.18C358.615 133.735 358.249 134.413 358.068 135.15C357.888 135.886 357.898 136.657 358.098 137.388C358.298 138.12 358.682 138.788 359.213 139.329C361.579 142.281 364.862 144.418 367.381 147.319C369.899 150.219 371.986 154.519 376.413 155.257L376.464 155.359ZM395.979 176.96C398.116 173.881 396.462 169.327 394.936 166.401C394.123 164.787 392.859 163.444 391.297 162.534C390.246 161.861 388.972 161.631 387.752 161.893C386.533 162.155 385.466 162.888 384.784 163.933C384.09 165.38 383.98 167.038 384.478 168.564C384.691 169.362 384.981 170.137 385.343 170.879V171.108V171.312C385.798 173.741 386.828 176.027 388.346 177.978C388.871 178.507 389.512 178.907 390.218 179.147C390.924 179.388 391.676 179.462 392.415 179.363C393.154 179.265 393.86 178.996 394.479 178.579C395.097 178.163 395.61 177.608 395.979 176.96ZM409.107 158.743C408.609 152.458 406.153 146.487 402.085 141.67C399.032 137.727 393.74 131.493 388.142 132.841C387.547 133.027 387.028 133.4 386.661 133.904C386.295 134.408 386.1 135.017 386.107 135.64C385.751 139.94 390.687 144.545 392.824 147.98C395.368 152.305 397.378 157.089 400.126 161.389C400.725 162.224 401.572 162.849 402.547 163.175C403.522 163.501 404.575 163.511 405.556 163.203C406.537 162.896 407.396 162.287 408.011 161.464C408.625 160.64 408.965 159.643 408.98 158.615L409.107 158.743ZM389.898 202.301C390.828 202.505 391.792 202.505 392.722 202.301C394.132 201.867 395.324 200.912 396.055 199.63C396.739 198.265 397.079 196.754 397.047 195.228C397.001 193.782 396.609 192.369 395.902 191.106L395.063 190.063L393.943 189.249C393.243 188.888 392.47 188.689 391.683 188.668C390.895 188.646 390.113 188.803 389.394 189.126C388.675 189.448 388.038 189.929 387.531 190.532C387.023 191.135 386.658 191.844 386.463 192.607C386.039 194.089 385.742 195.604 385.572 197.136L385.801 198.536C385.98 199.238 386.329 199.885 386.819 200.419C387.588 201.307 388.623 201.923 389.771 202.174L389.898 202.301ZM407.454 186.094C408.448 186.043 409.399 185.674 410.169 185.042C410.938 184.41 411.485 183.548 411.728 182.583C412.123 180.608 411.992 178.563 411.346 176.655C410.966 174.837 410.085 173.163 408.802 171.82C408.343 171.395 407.781 171.097 407.172 170.954C406.563 170.812 405.927 170.83 405.326 171.007C404.726 171.184 404.182 171.514 403.748 171.964C403.314 172.414 403.004 172.97 402.848 173.576C402.645 175.062 402.645 176.568 402.848 178.054C402.848 178.69 402.848 179.326 402.848 179.988C402.835 180.946 402.938 181.903 403.154 182.837C403.439 183.727 403.993 184.507 404.741 185.068C405.489 185.628 406.392 185.943 407.326 185.967L407.454 186.094Z" fill="#030402"/>
<path d="M398.523 143.324C388.829 142.433 376.413 121.723 374.047 108.569C373.894 107.653 377.761 99.9942 382.01 90.4785C384.555 84.7028 387.303 78.1894 389.338 72.083L424.551 94.244C419.8 101.157 415.912 108.625 412.975 116.481C412.712 117.311 412.524 118.162 412.415 119.026C412.424 119.17 412.424 119.314 412.415 119.458C411.524 124.547 407.911 144.189 398.523 143.324Z" fill="#D3766A"/>
<path d="M412.415 119.076C412.423 119.22 412.423 119.365 412.415 119.509C411.058 119.243 409.723 118.878 408.421 118.415C386.387 110.477 390.28 81.5732 391.832 73.584L400.61 79.1306L424.653 94.3965C419.904 101.306 416.024 108.775 413.102 116.634C412.799 117.425 412.569 118.243 412.415 119.076Z" fill="#263238"/>
<path d="M393.027 31.2976C385.75 44.4009 384.478 86.4839 392.544 97.6535C404.197 113.835 427.605 120.145 442.438 105.286C456.813 90.733 457.475 35.852 448.112 25.2676C434.271 9.54369 403.764 11.9354 393.027 31.2976Z" fill="#D3766A"/>
<path d="M426.816 65.3149C426.816 65.3149 426.587 65.3149 426.587 65.5694C426.587 68.4699 426.078 71.7775 423.432 72.6426V72.8207C426.663 72.4645 427.274 68.0628 426.816 65.3149Z" fill="#263238"/>
<path d="M424.348 62.2105C419.692 61.7017 419.005 71.0139 423.305 71.4973C427.605 71.9807 428.241 62.6431 424.348 62.2105Z" fill="#263238"/>
<path d="M443.507 66.3071C443.507 66.3071 443.71 66.4598 443.71 66.587C443.379 69.4621 443.507 72.8206 446.026 73.9655C446.026 73.9655 446.026 74.1691 446.026 74.1436C442.845 73.4312 442.743 68.9787 443.507 66.3071Z" fill="#263238"/>
<path d="M446.331 63.5084C450.987 63.5084 450.605 72.846 446.331 72.846C442.057 72.846 442.413 63.4829 446.331 63.5084Z" fill="#263238"/>
<path d="M428.114 60.3283C426.816 60.6082 425.569 60.6336 424.297 60.7863C422.979 61.131 421.584 61.0327 420.328 60.5064C419.962 60.2653 419.686 59.91 419.544 59.4958C419.401 59.0816 419.399 58.6318 419.539 58.2166C419.956 57.4577 420.567 56.8227 421.308 56.3758C422.05 55.929 422.897 55.6863 423.763 55.6722C425.52 55.3343 427.34 55.6801 428.851 56.6391C429.166 56.8754 429.407 57.1958 429.547 57.5632C429.687 57.9307 429.721 58.3303 429.644 58.7159C429.566 59.1016 429.382 59.4576 429.111 59.7429C428.84 60.0281 428.495 60.2311 428.114 60.3283Z" fill="#263238"/>
<path d="M450.504 54.8324C449.268 54.4858 448.054 54.0695 446.865 53.5857C445.527 53.3333 444.31 52.6443 443.405 51.6265C443.179 51.2536 443.083 50.8159 443.134 50.3826C443.185 49.9494 443.379 49.5455 443.685 49.2349C444.38 48.7037 445.206 48.3711 446.075 48.2725C446.945 48.1739 447.824 48.3131 448.621 48.6751C450.34 49.1456 451.825 50.2324 452.794 51.7283C452.995 52.0833 453.089 52.4889 453.064 52.8962C453.04 53.3035 452.898 53.695 452.656 54.0234C452.414 54.3517 452.081 54.6028 451.699 54.7464C451.318 54.89 450.902 54.9198 450.504 54.8324Z" fill="#263238"/>
<path d="M424.704 88.265C428.451 87.368 432.356 87.368 436.103 88.265C436.433 88.265 436.764 87.6035 436.84 87.2982L437.044 81.1918C437.833 81.6498 441.802 83.7361 441.802 82.6166C442.216 72.692 441.611 62.751 439.995 52.9499C439.978 52.8929 439.942 52.8432 439.894 52.8078C439.846 52.7725 439.788 52.7534 439.728 52.7534C439.669 52.7534 439.611 52.7725 439.563 52.8078C439.514 52.8432 439.479 52.8929 439.461 52.9499C439.054 62.1349 440.224 71.2944 439.945 80.5303C438.54 79.7522 437.033 79.1782 435.467 78.8256C435.136 78.8256 435.467 85.3136 435.467 86.2805C431.965 85.0741 428.13 85.2841 424.78 86.8657C423.457 87.7053 422.923 88.8248 424.704 88.265Z" fill="#263238"/>
<path d="M417.173 94.3203C417.809 95.0327 418.445 95.9996 419.463 96.1522C420.532 96.2033 421.6 96.021 422.592 95.6179C422.592 95.6179 422.77 95.6179 422.592 95.7706C422.154 96.3107 421.576 96.7198 420.921 96.9531C420.265 97.1865 419.559 97.2351 418.878 97.0937C418.322 96.9158 417.829 96.581 417.459 96.1296C417.089 95.6782 416.857 95.1294 416.791 94.5493C416.842 94.2695 417.071 94.2186 417.173 94.3203Z" fill="#263238"/>
<path opacity="0.2" d="M405.316 17.9399C404.935 24.4788 403.383 44.7571 400.228 48.8789C397.073 53.0007 390.407 62.5928 387.023 64.1448C387.481 50.6345 389.567 37.7857 393.053 31.0686C395.911 25.6869 400.142 21.1573 405.316 17.9399Z" fill="#263238"/>
<path d="M441.573 37.7601C439.794 39.5709 437.581 40.8959 435.145 41.6085C432.708 42.3211 430.13 42.3977 427.656 41.831C425.123 41.2676 422.779 40.0607 420.849 38.327C418.919 36.5933 417.469 34.3913 416.639 31.9336C416.639 31.7809 416.359 31.9336 416.41 31.9336C417.056 34.587 418.418 37.0124 420.347 38.9458C422.276 40.8793 424.698 42.2468 427.35 42.8996C429.998 43.4049 432.732 43.2003 435.275 42.3065C437.818 41.4127 440.078 39.8617 441.828 37.8109C441.98 37.8364 441.777 37.6074 441.573 37.7601Z" fill="#263238"/>
<path d="M428.801 0.05326C424.891 -0.211237 420.977 0.512399 417.42 2.15754C413.863 3.80268 410.777 6.31642 408.446 9.46724C406.46 12.6739 405.618 16.4579 406.054 20.2043H406.385C406.434 16.917 407.369 13.7038 409.094 10.9046C410.818 8.10543 413.267 5.82423 416.181 4.30227C419.366 2.51909 422.921 1.49703 426.567 1.31606C430.212 1.13509 433.851 1.80012 437.197 3.25911C440.488 4.61609 443.192 7.09495 444.83 10.256C444.983 10.5868 445.644 10.4341 445.517 10.1033C443.431 4.5567 436.688 0.434908 428.801 0.05326Z" fill="#263238"/>
<path d="M477.397 22.2398C476.29 17.9323 473.694 14.1557 470.069 11.5791C464.981 7.94072 459.027 7.9916 453.073 8.19514C452.895 8.19514 452.921 8.44959 453.073 8.42414C458.135 7.89565 463.242 8.84103 467.779 11.1466C471.472 13.3629 474.286 16.7875 475.743 20.8404C477.13 24.9974 476.969 29.5151 475.291 33.5632C473.613 37.6112 470.53 40.9175 466.609 42.8742C464.327 43.9469 461.849 44.5409 459.329 44.6196C456.808 44.6984 454.298 44.2603 451.954 43.3322C451.776 43.3322 451.623 43.5103 451.801 43.6121C454.974 45.0134 458.475 45.4998 461.909 45.0162C465.344 44.5326 468.574 43.0984 471.237 40.8754C473.899 38.6525 475.887 35.7294 476.975 32.4363C478.064 29.1433 478.21 25.6115 477.397 22.2398Z" fill="#263238"/>
<path d="M390.483 39.5663C390.483 39.5663 383.461 23.5626 390.966 15.1663C395.216 10.4339 407.988 12.0622 407.988 12.0622C411.803 7.21894 417.386 4.08903 423.508 3.36063C434.424 1.65594 446.865 9.03448 446.865 9.03448C446.865 9.03448 457.5 3.94584 466.635 10.1285C479.356 18.7538 476.176 38.9303 462.284 44.426C452.514 48.3188 440.352 39.0066 440.352 39.0066C439.13 39.0066 425.951 45.7236 417.275 33.7653C417.275 33.7653 409.031 40.0497 402.441 34.7067C401.188 36.6465 399.368 38.1536 397.229 39.023C395.089 39.8925 392.734 40.0822 390.483 39.5663Z" fill="#263238"/>
<path d="M394.63 66.1549C394.63 66.1549 387.964 51.2197 381.374 53.4333C374.785 55.6468 377.99 75.9505 384.504 79.9197C385.298 80.4717 386.194 80.8588 387.14 81.058C388.087 81.2572 389.063 81.2645 390.012 81.0794C390.961 80.8943 391.863 80.5207 392.665 79.9806C393.467 79.4405 394.153 78.7449 394.681 77.9351L394.63 66.1549Z" fill="#D3766A"/>
<path d="M382.443 59.1831V59.3612C386.972 62.2872 388.677 67.3504 389.567 72.4136C389.376 71.868 389.068 71.3705 388.665 70.9554C388.263 70.5404 387.775 70.2177 387.235 70.0096C386.696 69.8016 386.118 69.7131 385.541 69.7504C384.964 69.7877 384.402 69.9498 383.893 70.2255C383.741 70.2255 383.893 70.5053 383.893 70.5053C384.82 70.3982 385.757 70.5865 386.57 71.0434C387.384 71.5003 388.032 72.2025 388.422 73.0497C389.113 74.4259 389.642 75.8773 390 77.375C390 77.8584 390.967 77.7821 390.916 77.375C392.213 70.8107 389.033 61.1168 382.443 59.1831Z" fill="#263238"/>
<path d="M747.293 95.7975L473.365 179.703L522.754 340.946L796.683 257.041L747.293 95.7975Z" fill="#FF9446"/>
<path opacity="0.2" d="M747.293 95.7975L473.365 179.703L522.754 340.946L796.683 257.041L747.293 95.7975Z" fill="black"/>
<path opacity="0.2" d="M747.28 95.7985L655.225 123.995L704.614 285.238L796.67 257.042L747.28 95.7985Z" fill="black"/>
<path d="M742.871 104.014C739.767 118.296 736.748 132.578 733.814 146.861L725.137 189.809L716.741 232.935C713.993 247.285 711.313 261.66 708.701 276.061C711.805 261.796 714.824 247.514 717.759 233.215L726.435 190.267L734.831 147.242C737.579 132.824 740.259 118.415 742.871 104.014Z" fill="#FF9446"/>
<path d="M788.084 251.636C777.907 241.187 767.636 230.781 757.272 220.417L726.232 189.478L694.987 158.768C684.539 148.591 674.039 138.413 663.489 128.236C673.666 138.702 683.937 149.108 694.3 159.455L725.341 190.394L756.585 221.104C767.051 231.383 777.551 241.56 788.084 251.636Z" fill="#FF9446"/>
<path d="M525.976 200.482L527.485 200.02L520.994 178.83L519.486 179.292L525.976 200.482Z" fill="#263238"/>
<path d="M522.394 201.558L523.902 201.096L517.411 179.906L515.903 180.368L522.394 201.558Z" fill="#263238"/>
<path d="M518.778 202.711L520.286 202.249L513.796 181.06L512.287 181.522L518.778 202.711Z" fill="#263238"/>
<path d="M515.199 203.749L516.708 203.288L510.221 182.097L508.712 182.559L515.199 203.749Z" fill="#263238"/>
<path d="M511.587 204.871L513.096 204.409L506.605 183.22L505.097 183.682L511.587 204.871Z" fill="#263238"/>
<path d="M507.997 205.948L509.505 205.486L503.015 184.297L501.507 184.759L507.997 205.948Z" fill="#263238"/>
<path d="M504.364 207.134L505.873 206.672L499.382 185.483L497.874 185.945L504.364 207.134Z" fill="#263238"/>
<path d="M500.769 208.203L502.278 207.741L495.784 186.553L494.275 187.015L500.769 208.203Z" fill="#263238"/>
<path d="M497.141 209.346L498.65 208.884L492.159 187.695L490.651 188.157L497.141 209.346Z" fill="#263238"/>
<path d="M536.247 175.917L529.988 176.069L543.549 171.871L538.257 175.28L540.649 183.066C544.949 182.328 547.849 185.916 550.037 193.04L536.476 197.314C534.288 190.216 534.67 185.61 538.639 183.804L536.247 175.917Z" fill="#263238"/>
<path d="M549.885 181.336L553.421 180.242L550.241 169.861L559.299 167.088L562.479 177.468L566.041 176.374L561.258 189.656L549.885 181.336Z" fill="#263238"/>
<path opacity="0.1" d="M473.377 179.708L477.422 192.938L666.771 161.694L655.22 124.013L473.377 179.708Z" fill="black"/>
<path d="M832.177 275.323L740.098 303.514L704.605 285.246L796.684 257.03L832.177 275.323Z" fill="#FF9446"/>
<path opacity="0.2" d="M832.177 275.323L740.098 303.514L704.605 285.246L796.684 257.03L832.177 275.323Z" fill="black"/>
<path d="M503.578 375.977L595.657 347.76L614.816 312.75L522.737 340.941L503.578 375.977Z" fill="#FF9446"/>
<path opacity="0.1" d="M503.578 375.977L595.657 347.76L614.816 312.75L522.737 340.941L503.578 375.977Z" fill="black"/>
<path d="M352.038 154.824C365.498 199.833 402.925 276.952 416.817 286.366C429.055 294.787 487.803 287.129 513.501 281.557C523.118 279.496 503.324 206.067 493.146 208.484C480.832 211.41 444.168 218.661 441.573 216.651C438.978 214.641 403.408 168.309 377.965 141.136C354.862 116.405 346.95 137.803 352.038 154.824Z" fill="#D3766A"/>
<path d="M487.854 214.463C487.854 214.463 507.318 192.531 521.108 184.16C535.665 175.828 552.028 171.157 568.789 170.548C586.879 169.836 631.125 180.573 630.234 193.854C629.446 205.889 584.793 192.607 584.793 192.607C584.793 192.607 632.55 198.637 628.937 212.962C625.324 227.286 574.361 208.891 574.361 208.891C574.361 208.891 623.288 216.168 617.335 230.39C612.755 241.102 565.66 227.057 565.66 227.057C565.66 227.057 607.692 233.622 603.443 244.868C598.761 257.258 554.465 247.03 554.465 247.03C538.919 273.695 520.574 280.106 507.013 282.981C503.629 283.567 487.854 214.463 487.854 214.463Z" fill="#D3766A"/>
<path d="M568.407 189.453C574.03 189.962 579.755 190.445 585.327 191.437C590.899 192.429 596.42 193.651 601.891 195.177C609.056 197.019 615.988 199.674 622.551 203.09C610.465 197.874 590.569 193.956 584.996 192.913C579.424 191.87 573.903 190.623 568.357 189.631C568.204 189.682 568.255 189.453 568.407 189.453Z" fill="#263238"/>
<path d="M564.413 209.527C571.562 210.469 578.737 211.156 585.861 212.428C592.985 213.7 599.575 215.532 606.572 217.287C607.106 217.415 606.852 217.669 606.318 217.542C599.245 216.066 592.629 215.252 585.556 213.878C578.483 212.504 571.461 210.825 564.362 209.68C564.26 209.68 564.286 209.502 564.413 209.527Z" fill="#263238"/>
<path d="M557.874 226.116C568.907 227.314 579.787 229.65 590.339 233.088C590.874 233.24 590.517 233.52 589.958 233.393C579.221 230.849 570.799 228.813 557.848 226.498C557.645 226.472 557.645 226.091 557.874 226.116Z" fill="#263238"/>
<path d="M507.674 294.584L490.576 206.754L442.921 214.234C424.704 192.353 388.32 148.591 373.461 135.36C356.033 119.814 344.1 130.908 350.079 153.934C363.768 206.576 405.291 284.33 416.537 291.963C432.668 302.904 507.674 294.584 507.674 294.584Z" fill="#FF9446"/>
<path opacity="0.1" d="M475.412 218.941C477.763 219.452 480.157 219.733 482.562 219.781C487.651 220.468 489.89 227.974 485.259 230.823C482.827 232.321 480.078 233.228 477.233 233.471C474.387 233.714 471.524 233.286 468.874 232.223C463.785 230.238 459.485 225.302 460.579 219.501C460.768 218.42 461.235 217.406 461.932 216.558C462.63 215.71 463.535 215.057 464.559 214.662C465.584 214.268 466.693 214.145 467.779 214.307C468.865 214.468 469.891 214.907 470.756 215.583C472.166 216.887 473.73 218.015 475.412 218.941ZM470.324 209.934C471.92 210.704 473.678 211.078 475.45 211.025C477.221 210.972 478.954 210.493 480.501 209.629C481.071 209.248 481.528 208.721 481.824 208.102L470.324 209.934ZM445.568 213.802C447.593 215.281 450.094 215.961 452.59 215.71C453.45 215.592 454.242 215.176 454.828 214.534C455.414 213.893 455.756 213.066 455.796 212.199L445.568 213.802ZM499.507 253.01C498.5 253.432 497.685 254.211 497.217 255.198C495.08 259.498 498.057 264.128 502.306 266.902L499.507 253.01ZM422.872 269.904C422.058 272.728 421.956 275.247 419.845 277.537C417.571 279.37 415.536 281.481 413.789 283.821C413.494 284.398 413.353 285.041 413.381 285.688C413.409 286.334 413.604 286.963 413.948 287.512C414.291 288.061 414.772 288.511 415.341 288.818C415.911 289.126 416.551 289.28 417.198 289.266C421.631 288.721 425.698 286.53 428.591 283.127C431.485 279.725 432.994 275.359 432.821 270.896C432.678 269.752 432.15 268.691 431.326 267.886C430.501 267.081 429.427 266.58 428.28 266.464C427.133 266.349 425.981 266.627 425.013 267.252C424.044 267.876 423.316 268.812 422.949 269.904H422.872ZM414.094 245.249C412.67 248.71 412.924 252.628 411.728 256.241C410.679 259.553 409.43 262.799 407.988 265.96C406.919 268.25 409.057 271.863 411.83 270.642C416.34 268.91 420.03 265.539 422.16 261.202C424.094 257.208 426.231 250.491 424.373 246.242C422.516 241.993 416.333 240.237 414.171 245.249H414.094ZM376.337 155.257C377.758 155.558 379.241 155.297 380.474 154.528C381.708 153.76 382.595 152.544 382.952 151.135C384.377 145.665 379.492 140.042 375.624 136.632C371.757 133.223 366.312 130.119 360.893 131.875C360.171 132.108 359.521 132.523 359.005 133.078C358.488 133.633 358.122 134.311 357.941 135.048C357.76 135.784 357.771 136.555 357.971 137.286C358.171 138.018 358.555 138.686 359.086 139.228C361.452 142.179 364.735 144.316 367.253 147.217C369.772 150.117 371.986 154.519 376.413 155.257H376.337ZM395.979 176.96C398.116 173.881 396.462 169.327 394.936 166.401C394.123 164.787 392.859 163.443 391.297 162.534C390.246 161.861 388.972 161.631 387.753 161.893C386.533 162.155 385.466 162.888 384.784 163.933C384.09 165.38 383.98 167.038 384.478 168.564C384.691 169.362 384.981 170.137 385.344 170.879V171.108V171.312C385.798 173.741 386.828 176.027 388.346 177.978C388.871 178.507 389.512 178.907 390.218 179.147C390.924 179.388 391.676 179.462 392.415 179.363C393.154 179.264 393.86 178.996 394.479 178.579C395.097 178.162 395.61 177.608 395.979 176.96ZM389.898 202.403C390.828 202.606 391.792 202.606 392.722 202.403C394.132 201.969 395.324 201.014 396.055 199.732C396.739 198.367 397.079 196.856 397.047 195.33C397.001 193.884 396.609 192.471 395.902 191.208L395.063 190.165L393.943 189.351C393.243 188.99 392.47 188.791 391.683 188.77C390.895 188.748 390.113 188.905 389.394 189.227C388.675 189.55 388.038 190.031 387.531 190.634C387.023 191.236 386.658 191.946 386.463 192.709C386.039 194.191 385.742 195.706 385.573 197.238L385.802 198.638C385.98 199.34 386.329 199.987 386.819 200.52C387.602 201.371 388.636 201.95 389.771 202.174L389.898 202.403ZM411.245 176.578L406.156 170.854C405.343 170.757 404.523 170.962 403.852 171.432C403.181 171.901 402.706 172.601 402.518 173.398C402.314 174.884 402.314 176.39 402.518 177.876C402.518 178.512 402.518 179.148 402.518 179.81C402.505 180.768 402.607 181.725 402.823 182.659C403.101 183.628 403.696 184.475 404.512 185.065C405.329 185.655 406.32 185.955 407.326 185.916C408.321 185.865 409.272 185.496 410.042 184.864C410.811 184.232 411.357 183.37 411.601 182.405C411.983 180.464 411.86 178.458 411.245 176.578Z" fill="#030402"/>
<path d="M491.238 286.518C489.177 281.302 484.343 258.658 483.198 252.984C482.053 247.31 478.262 224.513 477.117 218.687C477.117 218.381 477.473 218.178 477.55 218.509C478.771 224.233 484.394 246.801 485.59 252.45C486.786 258.098 491.34 280.743 491.543 286.442C491.554 286.482 491.547 286.525 491.526 286.561C491.504 286.597 491.469 286.623 491.429 286.633C491.389 286.643 491.346 286.636 491.31 286.615C491.274 286.594 491.248 286.559 491.238 286.518Z" fill="#263238"/>
<path d="M475.514 297.052C467.703 297.51 459.892 297.688 452.081 297.637C444.241 297.671 436.407 297.221 428.622 296.288C424.634 295.894 420.734 294.863 417.071 293.235C413.778 290.91 410.919 288.025 408.624 284.712C404.012 278.345 399.838 271.672 396.131 264.739C388.498 251.025 381.934 236.751 375.522 222.554C369.111 208.357 363.284 193.752 357.941 179.046C364.429 193.269 370.841 207.517 377.507 221.638C384.173 235.759 390.916 249.829 398.192 263.594C401.824 270.46 405.833 277.119 410.201 283.541C412.241 286.739 414.824 289.555 417.834 291.861C421.304 293.461 425.005 294.5 428.8 294.94C444.296 296.817 459.912 297.523 475.514 297.052Z" fill="#263238"/>
<path d="M362.903 191.463C361.858 190.407 360.912 189.257 360.079 188.028C359.215 186.81 358.554 185.461 358.119 184.033C358.503 184.665 358.919 185.277 359.366 185.865L360.613 187.672C361.45 188.889 362.215 190.155 362.903 191.463Z" fill="#263238"/>
<path d="M403.077 167.876C409.515 174.339 415.29 181.438 421.269 188.231C427.248 195.024 432.973 202.199 439.08 208.967L441.344 211.512C441.751 211.893 442.133 212.326 442.514 212.682C442.896 213.038 442.896 213.013 443.074 213.165C443.074 213.165 443.252 213.165 443.354 213.165C445.288 213.165 447.73 212.733 449.918 212.453L463.454 210.443C472.461 209.12 481.493 207.746 490.526 206.525L490.882 208.764L490.348 206.55H490.475C481.544 208.458 472.665 210.163 463.607 211.817C459.103 212.631 454.6 213.344 450.071 214.03C447.756 214.432 445.42 214.704 443.074 214.845C442.888 214.869 442.7 214.869 442.514 214.845C442.265 214.77 442.032 214.649 441.827 214.488C441.571 214.289 441.324 214.077 441.09 213.852L439.843 212.631C439.029 211.791 438.265 210.952 437.502 210.087C431.523 203.141 425.722 196.118 420.023 188.994L411.499 178.283C408.7 174.95 406.156 171.286 403.077 167.876Z" fill="#263238"/>
<path d="M406.411 168.64C407.369 169.817 408.22 171.077 408.955 172.406C409.672 173.718 410.179 175.134 410.456 176.604C410.151 175.917 409.769 175.306 409.413 174.644L408.37 172.685C407.644 171.373 406.99 170.023 406.411 168.64Z" fill="#263238"/>
<path d="M101.245 833.954C100.303 810.147 100.634 786.307 102.237 762.535C105.746 713.54 113.225 664.911 124.602 617.127C130.835 590.208 138.519 563.696 146.534 537.286C146.763 536.497 148.035 536.726 147.831 537.541C123.075 630.765 102.746 726.991 104.145 823.878C104.552 851.001 107.682 877.64 110.252 904.584C110.252 905.322 109.132 905.602 108.979 904.864C103.865 881.736 102.212 857.514 101.245 833.954Z" fill="#FF9446"/>
<path d="M147.831 537.414C147.831 537.414 185.334 632.622 176.938 654.987C168.542 677.351 151.215 682.134 151.215 682.134C151.215 682.134 174.114 714.905 158.136 745.742C142.157 776.58 106.486 775.002 104.094 809.859C104.094 809.758 102.11 664.07 147.831 537.414Z" fill="#FF9446"/>
<path d="M108.191 749.61C108.128 749.446 108.128 749.265 108.191 749.101C113.137 684.104 125.349 619.867 144.6 557.59C144.6 557.412 144.956 557.463 144.905 557.59C137.476 585.425 130.912 613.412 125.212 641.552C130.224 636.794 136.347 633.365 143.022 631.579C143.022 631.579 143.201 631.579 143.022 631.757C135.976 634.364 129.646 638.601 124.551 644.122C123.465 649.618 122.405 655.139 121.37 660.686C129.741 651.323 141.369 646.667 152.996 642.239C153.149 642.239 153.251 642.443 152.996 642.494C140.885 647.43 128.8 653.791 120.607 664.222C117.723 680.014 115.179 695.865 112.974 711.776C119.038 705.456 126.808 701.036 135.339 699.054C135.593 699.054 135.746 699.385 135.339 699.461C126.534 702.005 118.658 707.053 112.669 713.989H112.516C111.77 719.587 111.066 725.193 110.404 730.807C115.237 726.818 120.696 723.654 126.561 721.444C126.713 721.444 126.79 721.622 126.561 721.673C120.817 724.219 115.558 727.74 111.015 732.079C111.015 732.079 111.015 732.079 110.811 732.079C110.201 737.397 109.565 742.74 109.03 748.083C117.48 737.878 128.441 730.047 140.834 725.362C140.859 725.352 140.886 725.347 140.913 725.348C140.94 725.348 140.967 725.354 140.992 725.364C141.016 725.375 141.039 725.39 141.058 725.41C141.077 725.429 141.091 725.452 141.101 725.477C141.112 725.502 141.117 725.529 141.116 725.556C141.116 725.583 141.11 725.609 141.1 725.634C141.089 725.659 141.074 725.681 141.054 725.7C141.035 725.719 141.012 725.734 140.987 725.744C128.745 731.137 117.99 739.413 109.641 749.864C109.555 749.987 109.432 750.078 109.289 750.124C109.147 750.17 108.993 750.168 108.852 750.119C108.038 758.311 107.3 766.529 106.715 774.748H106.511C106.919 766.428 107.504 758.006 108.191 749.61Z" fill="#263238"/>
<path d="M138.315 622.216C145.105 617.985 152.867 615.567 160.858 615.193C161.036 615.193 161.062 615.448 160.858 615.473C153.139 616.902 145.644 619.349 138.57 622.75C138.503 622.763 138.434 622.754 138.374 622.723C138.313 622.693 138.264 622.643 138.235 622.582C138.206 622.52 138.198 622.451 138.212 622.385C138.227 622.319 138.263 622.259 138.315 622.216Z" fill="#263238"/>
<path d="M133.761 722.996C138.983 720.015 144.726 718.055 150.681 717.221C150.884 717.221 150.91 717.501 150.681 717.526C144.847 718.699 139.204 720.677 133.914 723.403C133.736 723.505 133.532 723.123 133.761 722.996Z" fill="#263238"/>
<path d="M2.6523 656.539C18.51 667.51 33.0718 680.245 46.0584 694.5C59.4865 709.566 69.8563 727.099 76.5903 746.124C90.8213 785.773 98.4788 827.481 99.2601 869.6C99.7477 892.927 97.5018 916.23 92.5686 939.034C92.5253 939.194 92.424 939.331 92.2846 939.42C92.1452 939.508 91.9778 939.541 91.8152 939.513C91.6526 939.484 91.5066 939.396 91.4059 939.265C91.3052 939.134 91.2571 938.97 91.271 938.806C97.4164 898.559 97.2103 857.598 90.6603 817.416C84.1978 778.03 74.0968 735.184 49.0607 703.176C35.2959 685.824 18.2999 672.059 1.60913 657.836C0.616844 657.124 1.73634 655.903 2.6523 656.539Z" fill="#FF9446"/>
<path d="M93.6626 841.256C84.6424 826.648 74.0361 813.081 62.0367 800.802C43.2596 782.05 27.4594 768.718 25.0168 756.301C22.5743 743.885 43.8194 734.776 43.8194 734.776C43.8194 734.776 17.8419 739.433 10.7432 728.517C3.64455 717.602 0.209717 654.529 0.209717 654.529C0.209717 654.529 47.4069 688.368 69.4661 735.514C91.5254 782.661 93.6626 841.256 93.6626 841.256Z" fill="#FF9446"/>
<path d="M17.0787 713.811C20.1877 713.367 23.336 713.264 26.4673 713.506C26.8489 713.506 26.8235 714.168 26.4673 714.168C23.3632 714.168 20.2591 714.015 17.1296 714.168C16.8752 714.117 16.8752 713.811 17.0787 713.811Z" fill="#263238"/>
<path d="M51.0708 774.875C56.0653 774.979 61.0017 775.97 65.6497 777.801C65.6497 777.801 65.6497 778.03 65.6497 778.005C60.841 776.86 55.9813 776.376 51.1217 775.587C50.6382 775.587 50.6637 774.875 51.0708 774.875Z" fill="#263238"/>
<path d="M61.2736 753.783C63.3479 753.766 65.4188 753.953 67.4563 754.342C67.6598 754.342 67.6344 754.724 67.4563 754.724C65.3904 754.827 63.3193 754.724 61.2736 754.419C61.2045 754.399 61.1437 754.357 61.1004 754.3C61.0571 754.242 61.0337 754.172 61.0337 754.101C61.0337 754.029 61.0571 753.959 61.1004 753.901C61.1437 753.844 61.2045 753.802 61.2736 753.783Z" fill="#263238"/>
<path d="M232.125 723.531C216.761 728.737 202.038 735.668 188.235 744.19C173.943 753.32 161.546 765.121 151.724 778.946C131.042 807.749 115.203 839.737 104.832 873.645C99.0612 892.412 95.4922 911.785 94.197 931.376C94.197 931.525 94.256 931.667 94.361 931.772C94.4659 931.877 94.6083 931.936 94.7568 931.936C94.9052 931.936 95.0476 931.877 95.1526 931.772C95.2576 931.667 95.3165 931.525 95.3165 931.376C99.6159 897.432 109.206 864.371 123.737 833.394C138.061 803.015 156.151 770.677 183.808 750.577C198.87 739.611 215.79 732.461 232.659 724.879C233.651 724.472 233.142 723.225 232.125 723.531Z" fill="#FF9446"/>
<path d="M115.798 851.968C126.468 842.223 138.184 833.69 150.732 826.525C170.272 815.686 186.123 808.536 190.983 799.071C195.843 789.607 180.806 777.292 180.806 777.292C180.806 777.292 200.728 787.062 208.997 779.836C217.266 772.611 234.618 722.36 234.618 722.36C234.618 722.36 188.617 738.746 159.866 771.923C131.115 805.101 115.798 851.968 115.798 851.968Z" fill="#FF9446"/>
<path d="M153.988 805.763C158.504 805.447 163.039 806 167.346 807.391C167.346 807.391 167.346 807.62 167.346 807.595C162.944 806.857 158.499 806.398 154.039 806.221C153.979 806.228 153.918 806.21 153.87 806.172C153.822 806.134 153.792 806.078 153.785 806.017C153.778 805.957 153.796 805.896 153.834 805.848C153.872 805.8 153.928 805.77 153.988 805.763Z" fill="#263238"/>
<path d="M194.138 753.096C196.197 752.947 198.267 753.067 200.295 753.452C200.334 753.466 200.368 753.492 200.391 753.526C200.415 753.56 200.428 753.601 200.428 753.643C200.428 753.684 200.415 753.725 200.391 753.759C200.368 753.793 200.334 753.819 200.295 753.833C198.285 753.604 196.275 753.681 194.24 753.63C194.177 753.627 194.117 753.603 194.07 753.561C194.023 753.52 193.991 753.464 193.979 753.403C193.967 753.341 193.976 753.277 194.005 753.222C194.034 753.166 194.081 753.121 194.138 753.096Z" fill="#263238"/>
<path d="M56.4392 994.832H160.298L145.49 886.316L141.699 858.507H75.0382L71.2472 886.316L56.4392 994.832Z" fill="#455A64"/>
<path d="M71.2473 886.316H145.491L141.7 858.507H75.0383L71.2473 886.316Z" fill="#263238"/>
<path d="M65.4717 872.399H151.241V848.838H65.4717V872.399Z" fill="#455A64"/>
</svg>
