<svg width="870" height="995" fill="none" xmlns="http://www.w3.org/2000/svg"><path d="M756.534 785.18H502.917v209.55h253.617V785.18Z" fill="#FF9446"/><path opacity=".1" d="M756.534 785.18H502.917v209.55h253.617V785.18Z" fill="#000"/><path d="M857.035 785.205H756.534v209.55h100.501v-209.55Z" fill="#FF9446"/><path opacity=".2" d="M857.035 785.205H756.534v209.55h100.501v-209.55Z" fill="#000"/><path d="M850.089 980.303a5517.63 5517.63 0 0 1-22.11-44.83l-21.805-45.086-21.525-45.263a5578.006 5578.006 0 0 1-21.194-45.493 4576.005 4576.005 0 0 1 22.135 44.831l21.78 45.086 21.525 45.263a3949.43 3949.43 0 0 1 21.194 45.492Z" fill="#FF9446"/><path d="M850.089 799.631a3741.327 3741.327 0 0 1-21.194 45.493l-21.525 45.263-21.78 45.086a5479.97 5479.97 0 0 1-22.135 44.83 4336.735 4336.735 0 0 1 21.194-45.492l21.525-45.263 21.805-45.06a5261.333 5261.333 0 0 1 22.11-44.857Z" fill="#FF9446"/><path d="M647.663 830.469h-7.023l-1.704-3.486-2.417 3.486-3.283-7.175-3.078 7.175H617.258l-1.476-4.784-1.374 4.784h-2.62v-45.264h35.875v45.264Z" fill="#fff"/><path d="M771.826 575.655H582.604V785.18h189.222V575.655ZM869.528 575.655h-97.702v209.55h97.702v-209.55Z" fill="#FF9446"/><path opacity=".1" d="M869.528 575.655h-97.702v209.55h97.702v-209.55Z" fill="#000"/><g opacity=".1" fill="#000"><path d="M757.959 770.753a5605.784 5605.784 0 0 1-41.32-44.831l-40.785-45.187-40.175-45.263a4477.989 4477.989 0 0 1-39.59-45.493 4812.162 4812.162 0 0 1 41.32 44.857l40.709 45.06 40.175 45.263a4589.682 4589.682 0 0 1 39.666 45.594Z"/><path d="M757.959 590.081a3875.794 3875.794 0 0 1-39.59 45.493l-40.174 45.161-40.709 45.086a3594.826 3594.826 0 0 1-41.32 44.831 3885.078 3885.078 0 0 1 39.589-45.493l40.099-45.161 40.709-45.06a5108.438 5108.438 0 0 1 41.396-44.857Z"/></g><path d="M855.788 749.737h-17.123v24.171h17.123v-24.171Z" fill="#fff"/><path d="M674.826 300.615a173.256 173.256 0 0 0-3.777-2.36l.876-1.462 3.823 2.406-.922 1.416ZM619.922 525.897h-1.619v-1.686a75.417 75.417 0 0 0 8.993-.337l.18 1.686c-2.451.18-5.014.337-7.554.337Zm16.682-1.844-.359-1.641a60.289 60.289 0 0 0 8.588-2.63l.607 1.573a61.847 61.847 0 0 1-8.836 2.653v.045Zm17.155-6.745-.832-1.461a55.818 55.818 0 0 0 7.352-5.126l1.079 1.281a55.356 55.356 0 0 1-7.599 5.329v-.023Zm14.232-11.691-1.237-1.146a62.704 62.704 0 0 0 5.554-7.06l1.394.944a63.865 63.865 0 0 1-5.711 7.307v-.045Zm10.297-15.266-1.529-.719a51.986 51.986 0 0 0 3.125-8.409l1.619.45a53.21 53.21 0 0 1-3.215 8.701v-.023Zm4.857-17.807-1.687-.135c0-1.214.158-2.45.158-3.642a45.731 45.731 0 0 0-.293-4.991 45.99 45.99 0 0 1-5.216-.652l.293-1.664c2.745.496 5.529.751 8.318.765h.585v1.686h-2.293c.18 1.627.27 3.264.269 4.901.023 1.214-.044 2.496-.134 3.755v-.023Zm11.399-9.757-.383-1.642a37.461 37.461 0 0 0 8.342-3.057l.764 1.506a39.32 39.32 0 0 1-8.723 3.215v-.022Zm-27.385-2.091a58.381 58.381 0 0 1-8.431-3.822l.832-1.462a55.704 55.704 0 0 0 8.161 3.687l-.562 1.597Zm12.096-5.936a39.985 39.985 0 0 0-3.867-8.026l1.416-.9a40.45 40.45 0 0 1 4.047 8.364l-1.596.562Zm31.746-.36-1.079-1.281a45.566 45.566 0 0 0 6.228-6.408l1.304 1.057a46.305 46.305 0 0 1-6.453 6.7v-.068Zm-59.895-2.698-.472-.449a20.372 20.372 0 0 1-5.194-7.082l1.574-.63a18.545 18.545 0 0 0 4.766 6.475l.45.405-1.124 1.281Zm71.564-11.488-1.439-.877a101.545 101.545 0 0 0 4.317-7.914l1.529.742a97.892 97.892 0 0 1-4.407 8.049Zm-52.88-.338a40.146 40.146 0 0 0-6.745-5.261l-.338-.225.877-1.439.36.225a41.383 41.383 0 0 1 6.947 5.509l-1.101 1.191Zm-22.326-4.339-1.394-.944a10.27 10.27 0 0 1 8.498-4.317v1.686a8.753 8.753 0 0 0-7.104 3.575Zm83.188-11.849-1.574-.584a86.347 86.347 0 0 0 2.675-8.611l1.619.404a77.692 77.692 0 0 1-2.698 8.791h-.022Zm4.496-17.829-1.686-.225c.401-2.982.634-5.984.697-8.993h1.686a83.116 83.116 0 0 1-.697 9.218Zm-1.304-18.211a87.04 87.04 0 0 0-1.281-8.993l1.663-.338a91.34 91.34 0 0 1 1.304 9.106l-1.686.225Zm-3.485-17.672a91.957 91.957 0 0 0-3.035-8.521l1.574-.63c1.169 2.856 2.248 5.779 3.08 8.656l-1.619.495Zm-6.745-16.75a103.77 103.77 0 0 0-4.496-7.892l1.439-.876a109.326 109.326 0 0 1 4.496 8.004l-1.439.764Zm-9.465-15.423a126.816 126.816 0 0 0-5.531-7.173l1.304-1.079a130.317 130.317 0 0 1 5.598 7.262l-1.371.99Zm-11.512-13.985c-2.046-2.248-4.204-4.339-6.407-6.408l1.146-1.236c2.249 2.113 4.497 4.294 6.476 6.497l-1.215 1.147Zm-13.197-12.433c-2.248-1.911-4.699-3.8-7.105-5.598l.989-1.349a134.655 134.655 0 0 1 7.195 5.665l-1.079 1.282ZM608.883 525.088a41.776 41.776 0 0 1-4.497-.81l.405-1.641s1.618.405 4.316.787l-.224 1.664Z" fill="#263238"/><path d="M586.197 521.738c-1.057 8.993 17.312 14.029 18.706 2.248 1.394-11.781-17.649-11.309-18.706-2.248Z" fill="#263238"/><path d="M610.254 536.622c-1.709 3.395-7.757 3.867-14.007-.495a41.93 41.93 0 0 1-10.567-11.849 41.67 41.67 0 0 1 15.738 1.372c7.397 2.495 10.635 7.532 8.836 10.972Z" fill="#EBEBEB"/><path d="M585.748 524.278c3.552 1.597 7.037 3.328 10.522 5.037a224.089 224.089 0 0 1 10.319 5.418c-3.552-1.596-7.037-3.327-10.522-5.036a225.093 225.093 0 0 1-10.319-5.419Z" fill="#263238"/><path d="M602.07 536.554a31.153 31.153 0 0 1-2.248-2.945 29.899 29.899 0 0 1-1.844-3.17 31.035 31.035 0 0 1 2.249 2.945 27.889 27.889 0 0 1 1.843 3.17ZM594.516 528.663a35.784 35.784 0 0 1 3.755-.765 36.38 36.38 0 0 1 3.844-.337c-2.49.62-5.036.989-7.599 1.102ZM592.56 530.146a8.44 8.44 0 0 1-1.619-3.282 8.426 8.426 0 0 1 1.619 3.282Z" fill="#263238"/><path d="M613.222 513.082c-.877-3.71-6.633-5.554-13.715-2.766a41.943 41.943 0 0 0-13.04 9.106 41.77 41.77 0 0 0 15.738 2.248c7.577-.629 11.916-4.766 11.017-8.588Z" fill="#EBEBEB"/><path d="M586.467 519.422c3.822-.72 7.622-1.619 11.399-2.496 3.777-.877 7.554-1.821 11.241-2.878-3.799.72-7.599 1.619-11.376 2.496-3.777.877-7.51 1.821-11.264 2.878Z" fill="#263238"/><path d="M605.195 511.238a32.127 32.127 0 0 0-2.81 2.248c-.892.84-1.74 1.726-2.541 2.653a25.54 25.54 0 0 0 2.811-2.248 31.502 31.502 0 0 0 2.54-2.653ZM595.977 517.174a36.582 36.582 0 0 0 7.15 2.81 35.046 35.046 0 0 0-7.15-2.81ZM594.516 515.285c-.49.366-.935.789-1.327 1.259a9.327 9.327 0 0 0-1.012 1.551 7.926 7.926 0 0 0 1.327-1.281 6.477 6.477 0 0 0 1.012-1.529Z" fill="#263238"/><path d="M586.197 521.738a3.286 3.286 0 0 1 2.747 4.262 3.288 3.288 0 0 1-2.851 2.269 3.282 3.282 0 0 1-3.538-3.631 3.302 3.302 0 0 1 3.642-2.9Z" fill="#455A64"/><path d="M586.961 515.195a3.28 3.28 0 0 1 2.202 1.228 3.304 3.304 0 0 1 .688 2.425 3.3 3.3 0 0 1-2.373 2.787 3.291 3.291 0 0 1-4.17-3.551 3.291 3.291 0 0 1 3.653-2.889Z" fill="#455A64"/><path d="M301.839 762.942s-54.245 108.617-54.27 108.617c-4.478 22.416-7.99 42.185-8.88 52.566a.411.411 0 0 0 0 .178 15.814 15.814 0 0 0 .28 7.251.416.416 0 0 0 0 .179c5.775 5.852 184.03 46.891 190.824 46.23 6.793-.662 5.343-19.82-.306-26.919-5.648-7.099-66.89-53.431-66.89-53.431l53.024-108.795-113.782-25.876Z" fill="#D3766A"/><path d="M427.096 978.064c-6.692.662-182.275-40.403-188.026-46.23a.663.663 0 0 1 0-.178 15.735 15.735 0 0 1-.305-7.251.26.26 0 0 1 0-.178c.865-10.381 4.402-30.151 8.854-52.591l12.976-26.003L373.08 876.47l-10.381 21.321s58.519 46.23 64.193 53.431c5.674 7.2 6.921 26.206.204 26.842Z" fill="#EBEBEB"/><path d="M429.538 975.215c-6.793.509-185.481-45.035-191.18-51.09-2.188-2.264 2.926-28.7 10.025-60.453l.229-.992 115.614 28.114-.535 1.934s60.581 48.037 66.153 55.364c5.572 7.328 6.462 26.64-.306 27.123Z" fill="#263238"/><path d="M429.258 967.76c-29.921-8.396-151.438-39.539-181.664-45.594-.255 0-.305.127 0 .204 29.489 8.981 151.26 39.131 181.613 45.797.586.229.687-.229.051-.407ZM373.284 895.552c-11.297-5.241-26.258-7.124-37.453-.967-.432.229 0 .84.306.814a172.217 172.217 0 0 1 36.714 1.629.786.786 0 0 0 .804-.566.787.787 0 0 0-.371-.91ZM380.509 902.88c-11.271-5.216-26.232-7.099-37.452-.967-.433.229 0 .84.331.84a170.47 170.47 0 0 1 36.714 1.628.788.788 0 0 0 .407-1.501ZM387.761 910.233c-11.297-5.241-26.258-7.124-37.453-.992-.432.254 0 .865.331.839a171.981 171.981 0 0 1 36.689 1.629.795.795 0 0 0 .805-.566.793.793 0 0 0-.372-.91Z" fill="#fff"/><path d="M433.889 969.516c2.875 2.035-.56 12.594-3.078 12.874-2.519.28-197.134-50.25-200.213-51.853-3.079-1.603 1.145-13.154 5.089-12.722 3.943.433 198.202 51.701 198.202 51.701Z" fill="#FF9446"/><path d="M273.012 890.209c-11.297-9.77-26.512 7.786-15.266 17.581 11.246 9.796 26.588-7.785 15.266-17.581Z" fill="#fff"/><path d="m260.926 836.956 130.371 32.873s121.517-219.295 118.795-275.041c-3.741-76.889-94.013-313.308-94.013-313.308H307.996s71.725 255.577 72.717 298.576c.432 22.492-119.787 256.9-119.787 256.9Z" fill="#455A64"/><path d="M396.869 843.368c-6.946-2.773-69.002-20.685-115.308-30.532a.252.252 0 0 0-.175.242.255.255 0 0 0 .175.242c14.579 5.088 106.581 29.336 115.207 30.532.203.076.407-.28.101-.484ZM389.669 525.15c-8.6-36.078-17.81-72.055-27.479-107.803-9.668-35.748-20.024-71.826-31.397-107.294-1.374-4.351-2.824-8.651-4.223-12.976a.548.548 0 0 0-.675-.369.547.547 0 0 0-.369.674c10.178 35.341 20.355 70.605 29.998 106.073 9.643 35.468 18.828 71.038 27.479 106.862a2388.977 2388.977 0 0 1 6.335 26.562 237.68 237.68 0 0 1 5.547 27.657 71.627 71.627 0 0 1-1.807 26.614 149.404 149.404 0 0 1-9.592 24.781c-15.588 33.84-31.168 67.688-46.739 101.544-15.571 33.941-18.09 41.676-33.076 75.897-1.858 4.249-3.715 8.498-5.496 12.722 0 .28.28.534.433.229 17.047-33.534 19.667-41.6 35.62-75.745 15.953-34.144 31.804-68.696 47.63-103.07 7.124-15.52 15.495-31.346 16.563-48.698 1.069-18.116-4.63-36.282-8.752-53.66Z" fill="#263238"/><path d="m395.572 805.89 4.172 119.583c.687 22.899 1.68 42.923 3.181 53.227a.45.45 0 0 0 0 .179 16.015 16.015 0 0 0 1.883 6.996l.152.153c6.946 4.402 189.858 4.3 196.244 2.137 6.386-2.162.738-20.481-6.361-26.155-7.099-5.674-77.169-36.944-77.169-36.944l-5.318-119.456-116.784.28Z" fill="#D3766A"/><path d="M398.879 900.997s.865 24.477.865 24.553c.687 22.899 1.68 42.923 3.181 53.227a.411.411 0 0 0 0 .178c.347 2.399.98 4.748 1.883 6.997l.152.153c6.946 4.401 189.858 4.3 196.244 2.137 6.386-2.163.738-20.482-6.361-26.156-7.099-5.674-77.169-36.943-77.169-36.943l-.535-24.909-118.26.763Z" fill="#EBEBEB"/><path d="M601.306 988.038c-6.463 2.061-190.824-.788-197.796-5.368-2.544-1.705-3.816-28.573-4.274-61.064v-1.018l118.972.509v2.036s70.096 32.643 77.195 38.47c7.098 5.826 12.391 24.451 5.903 26.435Z" fill="#263238"/><path d="M599.346 980.965c-31.066-1.247-156.501-3.333-187.313-2.188-.254 0-.254.178 0 .178 30.761 1.908 156.222 3.002 187.313 2.544.636-.152.662-.534 0-.534ZM528.131 923.591c-12.188-2.545-27.199-.84-36.664 7.633-.382.331 0 .839.509.738a173.562 173.562 0 0 1 36.078-6.946.767.767 0 0 0 .418-1.126.761.761 0 0 0-.341-.299ZM536.883 929.036c-12.212-2.545-27.199-.815-36.663 7.76-.382.331 0 .839.483.712a172.103 172.103 0 0 1 36.104-6.92.794.794 0 0 0 .69-.744.785.785 0 0 0-.614-.808ZM545.61 934.506c-12.187-2.544-27.173-.84-36.663 7.633-.357.331 0 .839.509.738a173.888 173.888 0 0 1 36.078-6.946.763.763 0 0 0 .076-1.425Z" fill="#fff"/><path d="M604.231 981.474c3.283 1.323 2.392 12.391 0 13.23-2.391.84-203.545-3.155-206.827-3.969-3.283-.814-1.96-13.052 2.035-13.637 3.995-.585 204.792 4.376 204.792 4.376Z" fill="#FF9446"/><path d="M429.36 941.655c-13.256-6.895-23.993 13.714-10.711 20.609 13.281 6.895 23.993-13.714 10.711-20.609Z" fill="#fff"/><path d="M414.73 281.277c-.483 2.214-27.427 108.744-30.786 110.729-3.816 2.264 97.905 139.123 109.966 206.319 7.633 42.973 25.443 293.462 25.443 293.462h-129.71s-12.721-212.731-16.945-282.827c-1.654-27.199-103.681-152.939-113.375-236.774-3.053-26.41 15.928-91.011 15.928-91.011l139.479.102Z" fill="#455A64"/><path d="M386.361 790.574c-1.526-35.239-2.926-70.554-5.496-105.742-1.45-19.948-4.299-39.259-6.284-59.13 0-1.044-.941-1.298-.916-.229.916 35.391 3.842 70.401 5.725 105.767 1.883 35.366 3.689 43.61 5.699 78.874 1.12 19.947 2.112 39.895 3.664 59.817a.26.26 0 0 0 .092.127.26.26 0 0 0 .299 0 .255.255 0 0 0 .092-.127c.077-35.417-1.323-43.991-2.875-79.357ZM494.037 600.004a188.38 188.38 0 0 0-5.394-27.555 140.939 140.939 0 0 0-10.508-25.316c-8.829-16.945-18.879-33.33-28.573-49.792-9.694-16.462-19.795-33.28-30.023-49.716a6727.502 6727.502 0 0 0-17.327-27.657c-5.903-9.287-12.136-18.395-18.217-27.555a.342.342 0 1 0-.585.356c9.923 16.64 19.744 33.305 29.667 49.945 9.922 16.64 19.693 33.331 29.463 50.021 9.77 16.691 19.26 32.873 28.471 49.564a174.124 174.124 0 0 1 11.678 24.731 151.807 151.807 0 0 1 6.539 27.198c3.46 21.551 6.285 43.254 10.61 64.601a.254.254 0 0 0 .391.126.248.248 0 0 0 .092-.126c-1.348-19.642-3.689-39.31-6.284-58.825ZM507.929 869.549c-7.404-.967-63.914-2.926-111.187-.89-.305 0-.28.458 0 .483 15.393 1.349 102.434 1.959 111.11.942.229-.026.331-.484.077-.535Z" fill="#263238"/><path d="M400.864 384.729a241.673 241.673 0 0 0-38.165 17.81.435.435 0 0 0-.216.573.431.431 0 0 0 .572.216c12.875-5.547 26.029-10.839 38.598-17.072a.862.862 0 0 0 .369-1.158.859.859 0 0 0-1.158-.369ZM404.757 296.543c0-.433-.814-.535-.814 0a428.34 428.34 0 0 1-2.163 43.05c-.611 6.64-5.954 43.253-17.454 40.709-1.934-.458-2.901-2.341-3.206-5.267a44.963 44.963 0 0 1 1.527-11.246c1.272-7.633 2.29-15.266 2.951-23.128a209.708 209.708 0 0 0-.458-43.406.381.381 0 0 0-.738 0 399.292 399.292 0 0 1-3.511 59.893c-1.45 9.542-6.259 23.917 3.74 25.444 9.999 1.526 16.742-22.568 17.963-29.158a219.92 219.92 0 0 0 2.163-56.891Z" fill="#263238"/><path d="M384.631 381.091a59.56 59.56 0 0 0-2.544 7.633 17.456 17.456 0 0 0-1.069 6.233.43.43 0 0 0 .333.361.438.438 0 0 0 .456-.183 21.358 21.358 0 0 0 2.671-6.081c.891-2.366 1.807-4.681 2.545-7.073a1.275 1.275 0 0 0-2.392-.89ZM390.05 643.156c-1.221-18.116-1.144-37.224-8.854-54.016a180.34 180.34 0 0 0-14.095-23.51 1726.095 1726.095 0 0 1-15.572-24.247c-20.354-32.491-39.996-65.644-57.883-99.61-8.625-16.36-16.563-33.255-20.889-51.319a164.112 164.112 0 0 1-2.366-57.909c.611-4.809 1.272-9.592 2.061-14.375a.282.282 0 0 0-.403-.263.282.282 0 0 0-.131.135 189.533 189.533 0 0 0-4.249 55.975 156.177 156.177 0 0 0 14.935 51.625c7.887 17.072 17.276 33.508 26.537 49.868a1540.045 1540.045 0 0 0 29.489 50.149c10.177 16.436 20.66 32.542 31.168 48.724a92.696 92.696 0 0 1 12.391 24.909 135.968 135.968 0 0 1 3.969 28.292c2.544 40.048 12.721 173.192 16.334 213.036.433 5.089.891 10.178 1.374 15.266a.36.36 0 0 0 .186.414.36.36 0 0 0 .316 0 .357.357 0 0 0 .185-.414c-1.526-39.996-11.882-172.81-14.503-212.73Z" fill="#263238"/><path d="M327.791 316.389c0-.28-.458-.178-.458 0-.382 11.118 0 22.619-4.351 33.076-3.918 9.643-11.805 16.411-20.634 21.474a157.51 157.51 0 0 1-15.851 7.76c-.382.178-.229.789.203.662 10.177-3.257 20.686-6.794 29.209-13.613 9.109-7.327 13.103-17.937 13.536-29.386a94.822 94.822 0 0 0-1.654-19.973Z" fill="#263238"/><path d="M384.249 135.157c14.554 44.678 53.864 120.779 67.908 129.964 12.442 8.116 70.987-.942 96.684-7.124 9.567-2.316-11.958-75.236-22.161-72.565-12.238 3.206-48.698 11.424-51.344 9.389-2.646-2.035-39.412-47.324-65.465-73.989-23.713-24.145-31.117-2.57-25.622 14.325Z" fill="#D3766A"/><path d="M543.219 258.556c4.91-.61 46.459-2.544 65.516-12.9 10.177-5.521 36.155-23.789 33.559-30.353-2.366-5.979-10.711-2.723-10.711-2.723s11.475-8.32 8.116-16.614c-3.358-8.295-17.225-2.061-17.225-2.061s11.17-9.414 7.226-17.429c-3.944-8.014-16.818.56-16.818.56s10.61-8.116 4.58-13.358c-7.277-6.309-25.163 10.89-37.249 14.91-2.748.916-56.891 14.605-56.891 14.605l19.897 65.363Z" fill="#D3766A"/><path d="M612.424 176.807c-13.179 12.595-21.143 15.826-38.75 19.388-.331 0-.305.611 0 .56 17.556-1.908 28.115-4.529 39.335-19.337.611-.738.026-1.221-.585-.611ZM622.042 193.6c-14.834 11.907-23.433 15.469-41.6 20.558-.254 0-.153.534.127.483 18.218-3.511 28.7-6.361 41.956-20.202.611-.61.204-1.374-.483-.839ZM630.692 212.784c-15.266 10.482-24.451 14.833-42.719 17.505a.33.33 0 1 0 0 .661c18.904-.916 30.532-6.233 42.923-17.657.916-.713.738-1.145-.204-.509Z" fill="#263238"/><path d="M509.125 195.533s15.138-17.123 23.433-23.178c8.294-6.056 47.579-17.251 50.479-8.906 3.74 10.788-17.657 21.703-28.827 25.673 0 0 8.676 24.934-5.089 36.078-13.764 11.144-39.996-29.667-39.996-29.667Z" fill="#D3766A"/><path d="M583.114 166.782c-3.69 12.29-18.701 16.564-29.26 21.22a1.091 1.091 0 0 0-.631.75 1.097 1.097 0 0 0 .224.955c2.951 10.686 3.969 26.613-3.511 35.62-.204.255.127.611.381.382 9.338-8.549 9.593-24.298 5.623-35.799 10.916-4.605 25.774-9.566 27.276-23.077.025-.051-.077-.051-.102-.051Z" fill="#263238"/><path d="m543.193 271.1-19.184-87.372-47.477 8.625c-18.726-21.449-56.153-64.321-71.241-77.195-17.81-15.113-29.463-3.765-22.899 19.133 14.833 52.337 58.214 129.176 69.562 136.427 16.461 10.559 91.239.382 91.239.382Z" fill="#FF9446"/><path opacity=".1" d="M475.413 218.941a37.05 37.05 0 0 0 7.149.839c5.089.687 7.328 8.193 2.697 11.043a18.267 18.267 0 0 1-16.385 1.399c-5.089-1.984-9.389-6.92-8.295-12.721a6.362 6.362 0 0 1 10.177-3.919 23.658 23.658 0 0 0 4.657 3.359Zm-13.129-20.787c-1.832 8.65 11.551 16.08 18.395 11.475a4.608 4.608 0 0 0 .178-7.201c-2.01-1.628-3.689-1.883-5.47-3.358a8.176 8.176 0 0 1-1.628-1.705 12.178 12.178 0 0 0-3.791-3.409 5.58 5.58 0 0 0-6.728 1.891 5.571 5.571 0 0 0-.956 2.307Zm-21.347.458c-2.748 3.587-.687 8.981 1.73 12.238a11.043 11.043 0 0 0 9.999 4.86 3.712 3.712 0 0 0 3.051-2.647 3.718 3.718 0 0 0-1.168-3.867 11.804 11.804 0 0 1-3.562-4.427c-1.196-2.697-1.984-6.183-5.089-7.353a4.344 4.344 0 0 0-4.961 1.196Zm56.357 56.585c-3.588 7.252 7.327 15.495 13.943 14.07 2.213-.483 4.35-3.383 2.391-5.47-1.577-1.679-3.46-3.002-4.936-4.783-1.806-2.163-2.798-4.936-5.623-6.03a4.477 4.477 0 0 0-5.775 2.213Zm-102.486-88.924a9.709 9.709 0 0 0-2.544-3.078 346.851 346.851 0 0 0 4.504 10.966 15.02 15.02 0 0 0-1.96-7.888Zm14.172-7.633a30.15 30.15 0 0 0-7.022-17.072c-3.053-3.944-8.345-10.177-13.943-8.829a2.904 2.904 0 0 0-2.035 2.799c-.356 4.3 4.58 8.905 6.717 12.34 2.544 4.325 4.554 9.109 7.302 13.409a4.882 4.882 0 0 0 8.981-2.672v.025Zm-1.653 27.352a4.655 4.655 0 0 0 4.274-3.511c.395-1.976.264-4.02-.382-5.929a9.944 9.944 0 0 0-2.544-4.834 3.615 3.615 0 0 0-5.054.144 3.624 3.624 0 0 0-.9 1.612 16.54 16.54 0 0 0 0 4.478v1.933c-.013.959.09 1.916.306 2.85a4.5 4.5 0 0 0 4.3 3.231v.026Z" fill="#030402"/><path d="M526.579 263.467c-2.188-5.089-7.633-27.683-8.829-33.305-1.196-5.623-5.623-28.37-6.92-34.145 0-.331.356-.509.432-.204 1.374 5.7 7.506 28.14 8.854 33.738 1.349 5.597 6.412 28.166 6.768 33.839a.161.161 0 0 1-.017.119.16.16 0 0 1-.097.072.154.154 0 0 1-.119-.018.155.155 0 0 1-.072-.096Z" fill="#263238"/><path opacity=".1" d="M482.486 275.476c-13.358 0-25.087-1.272-30.532-4.758-11.424-7.379-54.805-83.963-69.74-136.401-3.765-13.129-1.501-22.492 4.453-25.214l95.819 166.373Z" fill="#000"/><path d="M267.185 293.261c.331.483 159.097 20.838 160.801 19.362a115.21 115.21 0 0 0 1.909-13.383s-14.554-172.861-22.085-183.013c-6.59-8.854-26.588-15.266-40.2-9.49-28.573 12.111-96.99 166.551-96.252 173.013-.051-.076-4.58 12.9-4.173 13.511Z" fill="#FF9446"/><path opacity=".1" d="M324.432 272.219a43.056 43.056 0 0 0 7.633 2.85c5.293 2.112 5.776 10.941 0 12.722a20.66 20.66 0 0 1-18.319-2.926c-5.088-3.562-8.371-10.178-5.623-16.081a7.178 7.178 0 0 1 9.255-3.705 7.172 7.172 0 0 1 2.907 2.179c1.425 1.654 2.29 3.842 4.147 4.961Zm-8.701-26.283c-4.351 8.982 8.243 20.711 16.97 17.531a5.083 5.083 0 0 0 3.021-3.386 5.093 5.093 0 0 0-.883-4.451c-1.73-2.315-3.511-3.053-5.089-5.088a9.035 9.035 0 0 1-1.298-2.316 14.517 14.517 0 0 0-3.231-4.732c-3.028-2.926-7.887-.865-9.49 2.442Zm-14.706-9.566c-4.758 1.781-5.979 8.193-5.623 12.721a12.44 12.44 0 0 0 6.666 10.61 4.169 4.169 0 0 0 4.488-.703 4.178 4.178 0 0 0 1.186-4.385 12.985 12.985 0 0 1-.815-6.412c.433-3.257 1.731-7.073-.432-9.999a4.906 4.906 0 0 0-5.47-1.832Zm52.158 30.277a4.731 4.731 0 0 0-5.088 4.046 5.541 5.541 0 0 0 3.943 5.877 8.518 8.518 0 0 0 5.343 0 3.967 3.967 0 0 0 2.061-1.857 4.12 4.12 0 0 0 .585-2.748 4.451 4.451 0 0 0-3.485-3.664c-.16-.211-.349-.4-.56-.56a5.301 5.301 0 0 0-2.799-1.094Zm-39.004-61.394c-4.275 4.376-2.545 14.324 2.341 17.683a4.529 4.529 0 0 0 7.225-2.977c.076-1.008.076-2.02 0-3.028 0-1.094-.152-1.781 0-2.544a23.86 23.86 0 0 0 .229-6.59 5.59 5.59 0 0 0-4.092-4.374 5.593 5.593 0 0 0-5.703 1.83Zm-27.606 63.302c-5.877 6.972 3.816 18.93 11.424 19.159 2.544 0 5.674-2.544 4.096-5.343-1.272-2.239-2.977-4.223-4.096-6.539-1.374-2.849-1.705-6.182-4.504-8.116a5.087 5.087 0 0 0-6.92.839Zm140.37-2.213a4.877 4.877 0 0 0-2.567 1.221 4.876 4.876 0 0 0-1.453 2.443c-.814 2.824-.916 5.343-3.028 7.633a34.858 34.858 0 0 0-6.106 6.182 3.745 3.745 0 0 0 .159 3.691 3.736 3.736 0 0 0 3.25 1.754 17.58 17.58 0 0 0 11.373-6.208c-.508-4.834-1.017-10.508-1.602-16.818l-.026.102Zm-12.722-20.991c-1.424 3.461-1.17 7.379-2.366 10.992a85.941 85.941 0 0 1-3.74 9.719c-1.068 2.29 1.069 5.903 3.842 4.682a19.16 19.16 0 0 0 10.33-9.44c1.934-3.994 4.071-10.711 2.214-14.96-1.858-4.249-8.168-6.107-10.33-1.095l.05.102Zm-14.502 34.679a22.904 22.904 0 0 1-7.913 6.488 5.445 5.445 0 1 0 4.453 9.847A19.606 19.606 0 0 0 407.301 284c1.196-4.402-4.758-7.277-7.633-4.071l.051.101Zm-23.255-124.671a5.627 5.627 0 0 0 6.615-4.122c1.425-5.47-3.46-11.093-7.328-14.503-3.867-3.409-9.312-6.513-14.731-4.758a4.444 4.444 0 0 0-1.888 1.204 4.445 4.445 0 0 0-1.034 4.208c.2.732.584 1.4 1.115 1.941 2.366 2.952 5.649 5.089 8.168 7.99 2.518 2.9 4.605 7.2 9.032 7.938l.051.102Zm19.515 21.601c2.137-3.079.483-7.633-1.043-10.559a9.336 9.336 0 0 0-3.639-3.867 4.731 4.731 0 0 0-6.513 1.399 6.234 6.234 0 0 0-.306 4.631c.213.798.503 1.573.865 2.315v.433a15.506 15.506 0 0 0 3.003 6.666 4.825 4.825 0 0 0 1.872 1.169 4.832 4.832 0 0 0 5.761-2.187Zm13.128-18.217a30.153 30.153 0 0 0-7.022-17.073c-3.053-3.943-8.345-10.177-13.943-8.829a2.904 2.904 0 0 0-2.035 2.799c-.356 4.3 4.58 8.905 6.717 12.34 2.544 4.325 4.554 9.109 7.302 13.409a4.886 4.886 0 0 0 8.854-2.774l.127.128Zm-19.209 43.558c.93.204 1.894.204 2.824 0a5.801 5.801 0 0 0 3.333-2.671 9.386 9.386 0 0 0 .992-4.402 9.023 9.023 0 0 0-1.145-4.122l-.839-1.043-1.12-.814a5.238 5.238 0 0 0-6.412 1.283 5.23 5.23 0 0 0-1.068 2.075 27.482 27.482 0 0 0-.891 4.529l.229 1.4a4.387 4.387 0 0 0 1.018 1.883 5.443 5.443 0 0 0 2.952 1.755l.127.127Zm17.556-16.207a4.655 4.655 0 0 0 4.274-3.511c.395-1.975.264-4.02-.382-5.928a9.943 9.943 0 0 0-2.544-4.835 3.615 3.615 0 0 0-5.054.144 3.624 3.624 0 0 0-.9 1.612 16.54 16.54 0 0 0 0 4.478v1.934c-.013.958.09 1.915.306 2.849a4.506 4.506 0 0 0 4.172 3.13l.128.127Z" fill="#030402"/><path d="M398.523 143.324c-9.694-.891-22.11-21.601-24.476-34.755-.153-.916 3.714-8.575 7.963-18.09 2.545-5.776 5.293-12.29 7.328-18.396l35.213 22.161a102.853 102.853 0 0 0-11.576 22.237c-.263.83-.451 1.681-.56 2.545a3.46 3.46 0 0 1 0 .432c-.891 5.089-4.504 24.731-13.892 23.866Z" fill="#D3766A"/><path d="M412.415 119.076c.008.144.008.289 0 .433a27.987 27.987 0 0 1-3.994-1.094c-22.034-7.938-18.141-36.842-16.589-44.831l8.778 5.547 24.043 15.266a102.043 102.043 0 0 0-11.551 22.237 13.886 13.886 0 0 0-.687 2.442Z" fill="#263238"/><path d="M393.027 31.298c-7.277 13.103-8.549 55.186-.483 66.355 11.653 16.182 35.061 22.492 49.894 7.633 14.375-14.553 15.037-69.434 5.674-80.018-13.841-15.724-44.348-13.333-55.085 6.03Z" fill="#D3766A"/><path d="M426.816 65.315s-.229 0-.229.254c0 2.9-.509 6.209-3.155 7.074v.178c3.231-.356 3.842-4.758 3.384-7.506Z" fill="#263238"/><path d="M424.348 62.21c-4.656-.508-5.343 8.804-1.043 9.287 4.3.484 4.936-8.854 1.043-9.286ZM443.507 66.307s.203.153.203.28c-.331 2.875-.203 6.234 2.316 7.379v.178c-3.181-.713-3.283-5.165-2.519-7.837Z" fill="#263238"/><path d="M446.331 63.508c4.656 0 4.274 9.338 0 9.338s-3.918-9.363 0-9.338ZM428.114 60.328c-1.298.28-2.545.306-3.817.458a6.207 6.207 0 0 1-3.969-.28 1.98 1.98 0 0 1-.789-2.29 4.915 4.915 0 0 1 4.224-2.544 7.02 7.02 0 0 1 5.088.967 2.081 2.081 0 0 1 .793 2.077 2.092 2.092 0 0 1-1.53 1.612ZM450.504 54.832a34.036 34.036 0 0 1-3.639-1.246 6.158 6.158 0 0 1-3.46-1.96 1.959 1.959 0 0 1 .28-2.391 4.833 4.833 0 0 1 4.936-.56 7.253 7.253 0 0 1 4.173 3.053 2.108 2.108 0 0 1-.138 2.295 2.112 2.112 0 0 1-2.152.81ZM424.704 88.265a24.48 24.48 0 0 1 11.399 0c.33 0 .661-.662.737-.967l.204-6.106c.789.458 4.758 2.544 4.758 1.425a145.168 145.168 0 0 0-1.807-29.667.28.28 0 0 0-.534 0c-.407 9.185.763 18.344.484 27.58a16.907 16.907 0 0 0-4.478-1.704c-.331 0 0 6.488 0 7.455a14.2 14.2 0 0 0-10.687.585c-1.323.84-1.857 1.959-.076 1.399ZM417.173 94.32c.636.713 1.272 1.68 2.29 1.832a7.377 7.377 0 0 0 3.129-.534s.178 0 0 .153a3.788 3.788 0 0 1-3.714 1.323 3.028 3.028 0 0 1-2.087-2.545c.051-.28.28-.33.382-.229Z" fill="#263238"/><path opacity=".2" d="M405.316 17.94c-.381 6.539-1.933 26.817-5.088 30.939-3.155 4.122-9.821 13.714-13.205 15.266.458-13.51 2.544-26.36 6.03-33.076a34.533 34.533 0 0 1 12.263-13.13Z" fill="#263238"/><path d="M441.573 37.76a14.86 14.86 0 0 1-13.917 4.071 15.087 15.087 0 0 1-11.017-9.897c0-.153-.28 0-.229 0A14.928 14.928 0 0 0 427.35 42.9a15.268 15.268 0 0 0 14.478-5.09c.152.026-.051-.203-.255-.05ZM428.801.053a23.357 23.357 0 0 0-20.355 9.414 16.72 16.72 0 0 0-2.392 10.737h.331a18.243 18.243 0 0 1 9.796-15.902 23.662 23.662 0 0 1 21.016-1.043 15.065 15.065 0 0 1 7.633 6.997c.153.33.814.178.687-.153-2.086-5.546-8.829-9.668-16.716-10.05ZM477.397 22.24a18.83 18.83 0 0 0-7.328-10.66c-5.088-3.64-11.042-3.588-16.996-3.385-.178 0-.152.255 0 .23a26.409 26.409 0 0 1 14.706 2.722 18.674 18.674 0 0 1 7.964 9.693 18.19 18.19 0 0 1-9.134 22.034 18.47 18.47 0 0 1-14.655.458c-.178 0-.331.178-.153.28a18.6 18.6 0 0 0 25.596-21.372Z" fill="#263238"/><path d="M390.483 39.566s-7.022-16.003.483-24.4c4.25-4.732 17.022-3.104 17.022-3.104a23.255 23.255 0 0 1 15.52-8.701c10.916-1.705 23.357 5.673 23.357 5.673s10.635-5.088 19.77 1.095c12.721 8.625 9.541 28.801-4.351 34.297-9.77 3.893-21.932-5.42-21.932-5.42-1.222 0-14.401 6.718-23.077-5.24 0 0-8.244 6.284-14.834.94a11.246 11.246 0 0 1-11.958 4.86Z" fill="#263238"/><path d="M394.63 66.155s-6.666-14.935-13.256-12.722c-6.589 2.214-3.384 22.518 3.13 26.487a7.226 7.226 0 0 0 10.177-1.985l-.051-11.78Z" fill="#D3766A"/><path d="M382.443 59.183v.178c4.529 2.926 6.234 7.99 7.124 13.053a3.983 3.983 0 0 0-2.332-2.404 3.99 3.99 0 0 0-3.342.215c-.152 0 0 .28 0 .28a4.427 4.427 0 0 1 4.529 2.545A20 20 0 0 1 390 77.375c0 .483.967.407.916 0 1.297-6.564-1.883-16.258-8.473-18.192Z" fill="#263238"/><path d="m747.293 95.797-273.928 83.906 49.389 161.243 273.929-83.905-49.39-161.243Z" fill="#FF9446"/><path opacity=".2" d="m747.293 95.797-273.928 83.906 49.389 161.243 273.929-83.905-49.39-161.243Z" fill="#000"/><path opacity=".2" d="m747.28 95.799-92.055 28.196 49.389 161.243 92.056-28.196-49.39-161.243Z" fill="#000"/><path d="M742.871 104.014a3838.93 3838.93 0 0 0-9.057 42.847l-8.677 42.948-8.396 43.126a4484.665 4484.665 0 0 0-8.04 43.126 3708.603 3708.603 0 0 0 9.058-42.846l8.676-42.948 8.396-43.025a4934.488 4934.488 0 0 0 8.04-43.228Z" fill="#FF9446"/><path d="M788.084 251.636a3326.422 3326.422 0 0 0-30.812-31.219l-31.04-30.939-31.245-30.71a9035.28 9035.28 0 0 0-31.498-30.532 2969.438 2969.438 0 0 0 30.811 31.219l31.041 30.939 31.244 30.71a3334.13 3334.13 0 0 0 31.499 30.532Z" fill="#FF9446"/><path d="m525.976 200.482 1.509-.462-6.491-21.19-1.508.462 6.49 21.19ZM522.394 201.558l1.508-.462-6.491-21.19-1.508.462 6.491 21.19ZM518.778 202.711l1.508-.462-6.49-21.189-1.509.462 6.491 21.189ZM515.199 203.749l1.509-.461-6.487-21.191-1.509.462 6.487 21.19ZM511.587 204.871l1.509-.462-6.491-21.189-1.508.462 6.49 21.189ZM507.997 205.948l1.508-.462-6.49-21.189-1.508.462 6.49 21.189ZM504.364 207.134l1.509-.462-6.491-21.189-1.508.462 6.49 21.189ZM500.769 208.203l1.509-.462-6.494-21.188-1.509.462 6.494 21.188ZM497.141 209.346l1.509-.462-6.491-21.189-1.508.462 6.49 21.189ZM536.247 175.917l-6.259.152 13.561-4.198-5.292 3.409 2.392 7.786c4.3-.738 7.2 2.85 9.388 9.974l-13.561 4.274c-2.188-7.098-1.806-11.704 2.163-13.51l-2.392-7.887ZM549.885 181.336l3.536-1.094-3.18-10.381 9.058-2.773 3.18 10.38 3.562-1.094-4.783 13.282-11.373-8.32Z" fill="#263238"/><path opacity=".1" d="m473.377 179.708 4.045 13.23 189.349-31.244-11.551-37.681-181.843 55.695Z" fill="#000"/><path d="m832.177 275.323-92.079 28.191-35.493-18.268 92.079-28.216 35.493 18.293Z" fill="#FF9446"/><path opacity=".2" d="m832.177 275.323-92.079 28.191-35.493-18.268 92.079-28.216 35.493 18.293Z" fill="#000"/><path d="m503.578 375.977 92.079-28.217 19.159-35.01-92.079 28.191-19.159 35.036Z" fill="#FF9446"/><path opacity=".1" d="m503.578 375.977 92.079-28.217 19.159-35.01-92.079 28.191-19.159 35.036Z" fill="#000"/><path d="M352.038 154.824c13.46 45.009 50.887 122.128 64.779 131.542 12.238 8.421 70.986.763 96.684-4.809 9.617-2.061-10.177-75.49-20.355-73.073-12.314 2.926-48.978 10.177-51.573 8.167-2.595-2.01-38.165-48.342-63.608-75.515-23.103-24.731-31.015-3.333-25.927 13.688Z" fill="#D3766A"/><path d="M487.854 214.463s19.464-21.932 33.254-30.303a103.555 103.555 0 0 1 47.681-13.612c18.09-.712 62.336 10.025 61.445 23.306-.788 12.035-45.441-1.247-45.441-1.247s47.757 6.03 44.144 20.355c-3.613 14.324-54.576-4.071-54.576-4.071s48.927 7.277 42.974 21.499c-4.58 10.712-51.675-3.333-51.675-3.333s42.032 6.565 37.783 17.811c-4.682 12.39-48.978 2.162-48.978 2.162-15.546 26.665-33.891 33.076-47.452 35.951-3.384.586-19.159-68.518-19.159-68.518Z" fill="#D3766A"/><path d="M568.407 189.453c5.623.509 11.348.992 16.92 1.984 5.572.992 11.093 2.214 16.564 3.74a97.13 97.13 0 0 1 20.66 7.913c-12.086-5.216-31.982-9.134-37.555-10.177-5.572-1.043-11.093-2.29-16.639-3.282-.153.051-.102-.178.05-.178ZM564.413 209.527c7.149.942 14.324 1.629 21.448 2.901 7.124 1.272 13.714 3.104 20.711 4.859.534.128.28.382-.254.255-7.073-1.476-13.689-2.29-20.762-3.664s-14.095-3.053-21.194-4.198c-.102 0-.076-.178.051-.153ZM557.874 226.116a160.848 160.848 0 0 1 32.465 6.972c.535.152.178.432-.381.305-10.737-2.544-19.159-4.58-32.11-6.895-.203-.026-.203-.407.026-.382Z" fill="#263238"/><path d="m507.674 294.584-17.098-87.83-47.655 7.48c-18.217-21.881-54.601-65.643-69.46-78.874-17.428-15.546-29.361-4.452-23.382 18.574 13.689 52.642 55.212 130.396 66.458 138.029 16.131 10.941 91.137 2.621 91.137 2.621Z" fill="#FF9446"/><path opacity=".1" d="M475.412 218.941a37.15 37.15 0 0 0 7.15.84c5.089.687 7.328 8.193 2.697 11.042a18.269 18.269 0 0 1-16.385 1.4c-5.089-1.985-9.389-6.921-8.295-12.722a6.362 6.362 0 0 1 10.177-3.918 23.676 23.676 0 0 0 4.656 3.358Zm-5.088-9.007a11.036 11.036 0 0 0 10.177-.305 3.817 3.817 0 0 0 1.323-1.527l-11.5 1.832Zm-24.756 3.868a10.18 10.18 0 0 0 7.022 1.908 3.714 3.714 0 0 0 3.206-3.511l-10.228 1.603Zm53.939 39.208a4.429 4.429 0 0 0-2.29 2.188c-2.137 4.3.84 8.93 5.089 11.704l-2.799-13.892Zm-76.635 16.894c-.814 2.824-.916 5.343-3.027 7.633a34.854 34.854 0 0 0-6.056 6.284 3.745 3.745 0 0 0 .159 3.691 3.733 3.733 0 0 0 3.25 1.754 17.812 17.812 0 0 0 15.623-18.37 5.092 5.092 0 0 0-4.541-4.432 5.088 5.088 0 0 0-5.331 3.44h-.077Zm-8.778-24.655c-1.424 3.461-1.17 7.379-2.366 10.992a85.941 85.941 0 0 1-3.74 9.719c-1.069 2.29 1.069 5.903 3.842 4.682a19.16 19.16 0 0 0 10.33-9.44c1.934-3.994 4.071-10.711 2.213-14.96-1.857-4.249-8.04-6.005-10.202-.993h-.077Zm-37.757-89.992a5.62 5.62 0 0 0 6.615-4.122c1.425-5.47-3.46-11.093-7.328-14.503-3.867-3.409-9.312-6.513-14.731-4.757a4.445 4.445 0 0 0-2.922 5.411c.2.732.584 1.4 1.115 1.942 2.366 2.951 5.649 5.088 8.167 7.989 2.519 2.9 4.733 7.302 9.16 8.04h-.076Zm19.642 21.703c2.137-3.079.483-7.633-1.043-10.559a9.33 9.33 0 0 0-3.639-3.867 4.73 4.73 0 0 0-6.513 1.399 6.234 6.234 0 0 0-.306 4.631c.213.798.503 1.573.866 2.315v.433a15.492 15.492 0 0 0 3.002 6.666 4.825 4.825 0 0 0 1.872 1.169 4.82 4.82 0 0 0 2.197.216 4.844 4.844 0 0 0 3.564-2.403Zm-6.081 25.443c.93.203 1.894.203 2.824 0a5.801 5.801 0 0 0 3.333-2.671 9.386 9.386 0 0 0 .992-4.402 9.023 9.023 0 0 0-1.145-4.122l-.839-1.043-1.12-.814a5.238 5.238 0 0 0-6.412 1.283 5.224 5.224 0 0 0-1.068 2.075 27.377 27.377 0 0 0-.89 4.529l.229 1.4a4.365 4.365 0 0 0 1.017 1.882 5.443 5.443 0 0 0 2.952 1.654l.127.229Zm21.347-25.825-5.089-5.724a3.332 3.332 0 0 0-3.638 2.544 16.46 16.46 0 0 0 0 4.478v1.934c-.013.958.089 1.915.305 2.849a4.5 4.5 0 0 0 4.503 3.257 4.655 4.655 0 0 0 4.275-3.511 11.56 11.56 0 0 0-.356-5.827Z" fill="#030402"/><path d="M491.238 286.518c-2.061-5.216-6.895-27.86-8.04-33.534-1.145-5.674-4.936-28.471-6.081-34.297 0-.306.356-.509.433-.178 1.221 5.724 6.844 28.292 8.04 33.941 1.196 5.648 5.75 28.293 5.953 33.992a.155.155 0 0 1-.114.191.16.16 0 0 1-.119-.018.154.154 0 0 1-.072-.097ZM475.514 297.052a360.03 360.03 0 0 1-23.433.585c-7.84.034-15.674-.416-23.459-1.349a37.527 37.527 0 0 1-11.551-3.053 34.442 34.442 0 0 1-8.447-8.523 173.514 173.514 0 0 1-12.493-19.973c-7.633-13.714-14.197-27.988-20.609-42.185-6.411-14.197-12.238-28.802-17.581-43.508 6.488 14.223 12.9 28.471 19.566 42.592 6.666 14.121 13.409 28.191 20.685 41.956a210.386 210.386 0 0 0 12.009 19.947 32.494 32.494 0 0 0 7.633 8.32 36.123 36.123 0 0 0 10.966 3.079 310.553 310.553 0 0 0 46.714 2.112Z" fill="#263238"/><path d="M362.903 191.463a24.14 24.14 0 0 1-2.824-3.435 13.909 13.909 0 0 1-1.96-3.995c.384.632.8 1.244 1.247 1.832l1.247 1.807a37.484 37.484 0 0 1 2.29 3.791ZM403.077 167.876c6.438 6.463 12.213 13.562 18.192 20.355 5.979 6.793 11.704 13.968 17.811 20.736l2.264 2.545c.407.381.789.814 1.17 1.17.382.356.382.331.56.483h.28c1.934 0 4.376-.432 6.564-.712l13.536-2.01c9.007-1.323 18.039-2.697 27.072-3.918l.356 2.239-.534-2.214h.127c-8.931 1.908-17.81 3.613-26.868 5.267-4.504.814-9.007 1.527-13.536 2.213a62.982 62.982 0 0 1-6.997.815 2.187 2.187 0 0 1-.56 0 2.086 2.086 0 0 1-.687-.357 9.282 9.282 0 0 1-.737-.636l-1.247-1.221a73.17 73.17 0 0 1-2.341-2.544 759.98 759.98 0 0 1-17.479-21.093l-8.524-10.711c-2.799-3.333-5.343-6.997-8.422-10.407Z" fill="#263238"/><path d="M406.411 168.64a25.562 25.562 0 0 1 2.544 3.766 14.26 14.26 0 0 1 1.501 4.198c-.305-.687-.687-1.298-1.043-1.96l-1.043-1.959a41.276 41.276 0 0 1-1.959-4.045Z" fill="#263238"/><path d="M101.245 833.954a668.608 668.608 0 0 1 .992-71.419 907.77 907.77 0 0 1 22.365-145.408c6.233-26.919 13.917-53.431 21.932-79.841.229-.789 1.501-.56 1.297.255-24.756 93.224-45.085 189.45-43.686 286.337.407 27.123 3.537 53.762 6.107 80.706 0 .738-1.12 1.018-1.273.28-5.114-23.128-6.767-47.35-7.734-70.91Z" fill="#FF9446"/><path d="M147.831 537.414s37.503 95.208 29.107 117.573c-8.396 22.364-25.723 27.147-25.723 27.147s22.899 32.771 6.921 63.608c-15.979 30.838-51.65 29.26-54.042 64.117 0-.101-1.984-145.789 43.737-272.445Z" fill="#FF9446"/><path d="M108.191 749.61a.709.709 0 0 1 0-.509A872.664 872.664 0 0 1 144.6 557.59c0-.178.356-.127.305 0a1414.585 1414.585 0 0 0-19.693 83.962 41.42 41.42 0 0 1 17.81-9.973s.179 0 0 .178a47.62 47.62 0 0 0-18.471 12.365 1588.334 1588.334 0 0 0-3.181 16.564c8.371-9.363 19.999-14.019 31.626-18.447.153 0 .255.204 0 .255-12.111 4.936-24.196 11.297-32.389 21.728a1121.905 1121.905 0 0 0-7.633 47.554 45.157 45.157 0 0 1 22.365-12.722c.254 0 .407.331 0 .407a47.299 47.299 0 0 0-22.67 14.528h-.153a1122.23 1122.23 0 0 0-2.112 16.818 56.903 56.903 0 0 1 16.157-9.363c.152 0 .229.178 0 .229a54.46 54.46 0 0 0-15.546 10.406h-.204c-.61 5.318-1.246 10.661-1.781 16.004a76.342 76.342 0 0 1 31.804-22.721.214.214 0 0 1 .158.002.213.213 0 0 1 .109.113.21.21 0 0 1-.001.157.202.202 0 0 1-.046.066.2.2 0 0 1-.067.044 82.894 82.894 0 0 0-31.346 24.12.684.684 0 0 1-.789.255c-.814 8.192-1.552 16.41-2.137 24.629h-.204c.408-8.32.993-16.742 1.68-25.138Z" fill="#263238"/><path d="M138.315 622.216a46.76 46.76 0 0 1 22.543-7.023c.178 0 .204.255 0 .28a88.704 88.704 0 0 0-22.288 7.277.301.301 0 0 1-.196-.027.302.302 0 0 1-.162-.338.308.308 0 0 1 .103-.169ZM133.761 722.996a47.39 47.39 0 0 1 16.92-5.775c.203 0 .229.28 0 .305a64.254 64.254 0 0 0-16.767 5.877c-.178.102-.382-.28-.153-.407Z" fill="#263238"/><path d="M2.652 656.539A254.91 254.91 0 0 1 46.058 694.5a155.637 155.637 0 0 1 30.532 51.624A386.736 386.736 0 0 1 99.26 869.6a298.847 298.847 0 0 1-6.691 69.434.663.663 0 0 1-1.163.231.662.662 0 0 1-.135-.459 389.285 389.285 0 0 0-.61-121.39c-6.463-39.386-16.564-82.232-41.6-114.24-13.765-17.352-30.761-31.117-47.452-45.34-.992-.712.127-1.933 1.043-1.297Z" fill="#FF9446"/><path d="M93.663 841.256a233.131 233.131 0 0 0-31.626-40.454c-18.777-18.752-34.578-32.084-37.02-44.501-2.443-12.416 18.802-21.525 18.802-21.525s-25.977 4.657-33.076-6.259C3.645 717.602.21 654.529.21 654.529s47.197 33.839 69.256 80.985c22.06 47.147 24.197 105.742 24.197 105.742Z" fill="#FF9446"/><path d="M17.079 713.811a42.982 42.982 0 0 1 9.388-.305c.382 0 .357.662 0 .662-3.104 0-6.208-.153-9.337 0-.255-.051-.255-.357-.051-.357ZM51.07 774.875a42.173 42.173 0 0 1 14.58 2.926v.204c-4.809-1.145-9.669-1.629-14.528-2.418-.484 0-.458-.712-.051-.712ZM61.274 753.783c2.074-.017 4.145.17 6.182.559.204 0 .178.382 0 .382-2.066.103-4.137 0-6.182-.305a.335.335 0 0 1-.24-.318.327.327 0 0 1 .24-.318Z" fill="#263238"/><path d="M232.125 723.531a214.702 214.702 0 0 0-43.89 20.659 131.875 131.875 0 0 0-36.511 34.756 325.675 325.675 0 0 0-46.892 94.699 253.26 253.26 0 0 0-10.635 57.731.56.56 0 1 0 1.12 0 327.668 327.668 0 0 1 28.42-97.982c14.324-30.379 32.414-62.717 60.071-82.817 15.062-10.966 31.982-18.116 48.851-25.698.992-.407.483-1.654-.534-1.348Z" fill="#FF9446"/><path d="M115.798 851.968a195.695 195.695 0 0 1 34.934-25.443c19.54-10.839 35.391-17.989 40.251-27.454 4.86-9.464-10.177-21.779-10.177-21.779s19.922 9.77 28.191 2.544c8.269-7.225 25.621-57.476 25.621-57.476s-46.001 16.386-74.752 49.563c-28.751 33.178-44.068 80.045-44.068 80.045Z" fill="#FF9446"/><path d="M153.988 805.763a35.422 35.422 0 0 1 13.358 1.628v.204a105.878 105.878 0 0 0-13.307-1.374.23.23 0 0 1-.051-.458ZM194.138 753.096a23.803 23.803 0 0 1 6.157.356.203.203 0 0 1 0 .381c-2.01-.229-4.02-.152-6.055-.203a.282.282 0 0 1-.235-.408.276.276 0 0 1 .133-.126Z" fill="#263238"/><path d="M56.44 994.832h103.858L145.49 886.316l-3.791-27.809h-66.66l-3.792 27.809L56.44 994.832Z" fill="#455A64"/><path d="M71.247 886.316h74.244l-3.791-27.809H75.038l-3.79 27.809Z" fill="#263238"/><path d="M65.472 872.399h85.769v-23.561h-85.77v23.561Z" fill="#455A64"/></svg>