<svg width="759" height="757" viewBox="0 0 759 757" fill="none" xmlns="http://www.w3.org/2000/svg">
<path opacity="0.2" d="M32.5664 264.4C24.6297 287.854 18.6695 311.931 14.7484 336.379L381.546 449.205L32.5664 264.4ZM339.075 0.265137L381.546 449.205L424 0.265137H339.075ZM177.539 63.8665L381.546 449.205L250.403 22.8111C224.598 33.6098 200.144 47.3885 177.539 63.8665ZM66.5782 188.673L381.562 449.189L112.394 123.898C95.0725 143.965 79.7295 165.657 66.5782 188.673ZM730.541 264.4L381.578 449.205L748.359 336.379C744.425 311.932 738.46 287.856 730.525 264.4H730.541ZM381.578 449.205H752.347C753.355 437.573 753.923 425.823 754.052 413.955L381.578 449.205ZM10.7602 449.205H381.546L9.02344 413.955C9.15209 425.845 9.72029 437.595 10.7281 449.205H10.7602ZM650.682 123.898L381.546 449.205L696.513 188.689C683.358 165.667 668.009 143.969 650.682 123.898ZM512.672 22.8111L381.546 449.205L585.601 63.8665C562.973 47.3884 538.497 33.6099 512.672 22.8111Z" fill="#FF9446"/>
<path d="M652.402 606.882C706.144 606.882 749.71 581.726 749.71 550.694C749.71 519.663 706.144 494.507 652.402 494.507C598.661 494.507 555.095 519.663 555.095 550.694C555.095 581.726 598.661 606.882 652.402 606.882Z" fill="#E0E0E0"/>
<path d="M375.242 756.567C447.395 756.567 505.886 722.799 505.886 681.145C505.886 639.492 447.395 605.724 375.242 605.724C303.089 605.724 244.598 639.492 244.598 681.145C244.598 722.799 303.089 756.567 375.242 756.567Z" fill="#E0E0E0"/>
<path d="M173.551 607.59C269.212 607.59 346.762 562.814 346.762 507.58C346.762 452.347 269.212 407.571 173.551 407.571C77.8886 407.571 0.339355 452.347 0.339355 507.58C0.339355 562.814 77.8886 607.59 173.551 607.59Z" fill="#E0E0E0"/>
<path d="M610.495 594.886L562.589 622.545L453.091 559.33L500.997 531.67L610.495 594.886Z" fill="#E0E0E0"/>
<path d="M555.448 297.141L749.485 297.382L729.592 552.383H729.415C728.563 561.662 721.262 570.828 707.368 577.92C677.73 593.036 628.843 593.036 598.192 577.92C583.816 570.828 576.273 561.662 575.373 552.383H575.196L555.448 297.141Z" fill="#455A64"/>
<path d="M546.314 297.736V257.372H568.313C571.424 255.428 574.646 253.667 577.962 252.097C620.095 232.028 687.314 232.028 727.984 252.097C731.146 253.673 734.212 255.435 737.166 257.372H758.49V297.736C758.49 310.874 748.311 324.029 727.936 334.048C687.202 354.117 620.046 354.117 577.914 334.048C556.847 324.029 546.314 310.874 546.314 297.736Z" fill="#E6E6E6"/>
<path d="M577.962 221.061C620.095 201.007 687.315 201.007 727.984 221.061C768.654 241.114 768.702 273.646 727.984 293.7C687.266 313.753 620.095 313.769 577.962 293.7C535.829 273.63 535.781 241.13 577.962 221.061Z" fill="#F5F5F5"/>
<path d="M570.323 489.489C636.176 495.117 712.369 452.1 742.039 392.149L744.853 355.966C717.161 419.776 636.53 466.219 567.959 459.111L570.323 489.489Z" fill="#FF9446"/>
<path d="M571.964 510.619C636.048 515.299 709.443 474.388 740.126 416.914L742.039 392.149C712.369 452.1 636.176 495.069 570.324 489.488L571.964 510.619Z" fill="#FF9446"/>
<path opacity="0.3" d="M571.964 510.619C636.048 515.299 709.443 474.388 740.126 416.914L742.039 392.149C712.369 452.1 636.176 495.069 570.324 489.488L571.964 510.619Z" fill="white"/>
<path d="M573.234 527.119C635.951 531.091 707.352 491.74 738.63 435.986L740.126 416.914C709.443 474.388 636.048 515.299 571.964 510.619L573.234 527.119Z" fill="#FF9446"/>
<path opacity="0.6" d="M573.234 527.119C635.951 531.091 707.352 491.74 738.63 435.986L740.126 416.914C709.443 474.388 636.048 515.299 571.964 510.619L573.234 527.119Z" fill="white"/>
<path d="M642.094 252.355C645.381 250.985 648.906 250.28 652.466 250.28C656.027 250.28 659.552 250.985 662.839 252.355C668.467 255.137 668.467 259.639 662.839 262.405C659.552 263.775 656.027 264.48 652.466 264.48C648.906 264.48 645.381 263.775 642.094 262.405C636.273 259.639 636.273 255.137 642.094 252.355Z" fill="#37474F"/>
<path d="M630.709 154.452L601.602 176.322L609.723 190.522L637.463 169.825C640.679 167.397 644.876 170.131 644.908 174.65L645.712 257.372H658.738V172.833C658.674 155.77 642.85 145.398 630.709 154.452Z" fill="#37474F"/>
<path d="M609.015 180.873C611.202 184.813 611.524 189.155 609.723 190.522C607.921 191.889 604.689 189.879 602.502 185.939C600.315 181.999 599.993 177.657 601.795 176.29C603.596 174.923 606.908 176.966 609.015 180.873Z" fill="#263238"/>
<path d="M487.264 403.229C487.264 358.555 514.441 338.019 547.954 357.365C581.468 376.711 608.629 428.621 608.629 473.295L592.837 589.353L503.055 537.523L487.264 403.229Z" fill="#FF9446"/>
<path opacity="0.15" d="M487.264 403.229C487.264 358.555 514.441 338.019 547.954 357.365C581.468 376.711 608.629 428.621 608.629 473.295L592.837 589.353L503.055 537.523L487.264 403.229Z" fill="white"/>
<path d="M503.056 537.523L466.069 558.863L450.293 424.585L487.28 403.229L503.056 537.523Z" fill="#FF9446"/>
<path d="M487.955 519.947L496.542 379.686L481.892 375.81L474.945 513.418L487.955 519.947Z" fill="#FFBDA7"/>
<path d="M496.542 379.686L506.272 377.965L499.984 505.924L487.955 519.947L496.542 379.686Z" fill="#F0997A"/>
<path d="M506.272 377.965L487.955 369.603L481.893 375.81L496.543 379.686L506.272 377.965Z" fill="#FFBDA7"/>
<path opacity="0.3" d="M506.272 377.965L487.955 369.603L481.893 375.81L496.543 379.686L506.272 377.965Z" fill="white"/>
<path d="M558.6 562.095L598.643 427.399L585.231 420.307L547.392 552.784L558.6 562.095Z" fill="#FFBDA7"/>
<path d="M598.643 427.399L608.501 427.93L573.476 551.144L558.601 562.096L598.643 427.399Z" fill="#F0997A"/>
<path d="M608.501 427.93L592.548 415.644L585.231 420.307L598.643 427.399L608.501 427.93Z" fill="#FFBDA7"/>
<path opacity="0.3" d="M608.501 427.93L592.548 415.644L585.231 420.307L598.643 427.399L608.501 427.93Z" fill="white"/>
<path d="M512.962 516.907L553.036 382.227L539.64 375.135L501.769 507.612L512.962 516.907Z" fill="#FFBDA7"/>
<path d="M553.036 382.227L562.894 382.757L527.853 505.956L512.961 516.907L553.036 382.227Z" fill="#F0997A"/>
<path d="M562.894 382.758L546.941 370.471L539.641 375.135L553.036 382.227L562.894 382.758Z" fill="#FFBDA7"/>
<path opacity="0.3" d="M562.894 382.758L546.941 370.471L539.641 375.135L553.036 382.227L562.894 382.758Z" fill="white"/>
<path d="M513.267 505.393L521.871 365.132L507.204 358.796L500.257 498.864L513.267 505.393Z" fill="#FFBDA7"/>
<path d="M521.871 365.132L531.584 360.099L525.296 491.37L513.267 505.393L521.871 365.132Z" fill="#F0997A"/>
<path d="M531.584 360.099L517.786 355.918L507.205 358.797L521.871 365.133L531.584 360.099Z" fill="#FFBDA7"/>
<path opacity="0.3" d="M531.584 360.099L517.786 355.918L507.205 358.797L521.871 365.133L531.584 360.099Z" fill="white"/>
<path d="M476.972 541.817L471.568 401.395L457.61 397.214L467.291 535.963L476.972 541.817Z" fill="#FFBDA7"/>
<path d="M471.568 401.396L483.356 388L487.537 526.669L476.972 541.817L471.568 401.396Z" fill="#F0997A"/>
<path d="M483.356 388L467.114 386.279L457.61 397.215L471.568 401.396L483.356 388Z" fill="#FFBDA7"/>
<path opacity="0.3" d="M483.356 388L467.114 386.279L457.61 397.215L471.568 401.396L483.356 388Z" fill="white"/>
<path d="M530.249 555.518L568.281 420.243L552.795 406.445L518.912 546.384L530.249 555.518Z" fill="#FFBDA7"/>
<path d="M568.281 420.243L583.623 411.109L544.963 544.342L530.249 555.518L568.281 420.243Z" fill="#F0997A"/>
<path d="M583.623 411.109L565.194 398.967L552.795 406.445L568.281 420.243L583.623 411.109Z" fill="#FFBDA7"/>
<path opacity="0.3" d="M583.623 411.109L565.194 398.967L552.795 406.445L568.281 420.243L583.623 411.109Z" fill="white"/>
<path d="M526.695 558.638L494.098 421.948L479.497 418.265L517.979 556.998L526.695 558.638Z" fill="#FFBDA7"/>
<path d="M494.098 421.948L500.547 409.629L531.584 544.841L526.695 558.638L494.098 421.948Z" fill="#F0997A"/>
<path d="M500.547 409.629L486.701 405.689L479.497 418.265L494.098 421.948L500.547 409.629Z" fill="#FFBDA7"/>
<path opacity="0.3" d="M500.547 409.629L486.701 405.689L479.497 418.265L494.098 421.948L500.547 409.629Z" fill="white"/>
<path d="M549.965 582.937L577.946 445.233L563.972 439.364L537.984 574.671L549.965 582.937Z" fill="#FFBDA7"/>
<path d="M577.946 445.233L587.82 444.896L563.81 570.715L549.964 582.937L577.946 445.233Z" fill="#F0997A"/>
<path d="M587.82 444.895L570.838 434.073L563.971 439.363L577.946 445.233L587.82 444.895Z" fill="#FFBDA7"/>
<path opacity="0.3" d="M587.82 444.895L570.838 434.073L563.971 439.363L577.946 445.233L587.82 444.895Z" fill="white"/>
<path d="M592.837 589.353L555.85 610.693L571.642 494.635L608.629 473.295L592.837 589.353Z" fill="#FF9446"/>
<path d="M466.069 558.863L555.85 610.693L571.642 494.635L450.293 424.585L466.069 558.863Z" fill="#FF9446"/>
<path opacity="0.3" d="M466.069 558.863L555.85 610.693L571.642 494.635L450.293 424.585L466.069 558.863Z" fill="white"/>
<path d="M281.054 409.533C221.875 375.376 125.951 375.376 66.7716 409.533C37.2464 426.579 22.5481 448.9 22.5321 471.253C22.5321 476.077 22.5321 495.198 22.5321 499.958C22.4517 522.359 37.1499 544.776 66.7716 561.871C125.951 596.043 221.875 596.043 281.054 561.871C310.579 544.825 325.278 522.504 325.294 500.167C325.294 495.343 325.294 476.174 325.294 471.381C325.326 448.98 310.628 426.611 281.054 409.533Z" fill="#FFBDA7"/>
<path d="M173.904 558.88C257.585 558.88 325.422 519.712 325.422 471.398C325.422 423.083 257.585 383.916 173.904 383.916C90.2234 383.916 22.3867 423.083 22.3867 471.398C22.3867 519.712 90.2234 558.88 173.904 558.88Z" fill="#F0997A"/>
<path d="M281.054 373.559C221.875 339.387 125.951 339.387 66.7716 373.559C37.2464 390.605 22.5481 412.926 22.5321 435.263C22.5321 440.087 22.5321 459.192 22.5321 463.952C22.4517 486.369 37.1499 508.77 66.7716 525.929C125.951 560.086 221.875 560.086 281.054 525.929C310.579 508.883 325.278 486.546 325.294 464.209C325.294 459.385 325.294 440.216 325.294 435.424C325.326 413.007 310.628 390.621 281.054 373.559Z" fill="#B16668"/>
<path d="M173.904 522.89C257.585 522.89 325.422 483.723 325.422 435.408C325.422 387.093 257.585 347.926 173.904 347.926C90.2234 347.926 22.3867 387.093 22.3867 435.408C22.3867 483.723 90.2234 522.89 173.904 522.89Z" fill="#9A4A4D"/>
<path d="M281.311 403.229H66.5782C42.585 438.174 42.6172 493.766 42.585 504.718C42.5528 515.669 43.9037 522.552 61.7539 518.644C79.6041 514.736 127.591 505.152 173.937 505.152C220.283 505.152 268.285 514.72 286.119 518.644C303.954 522.568 305.288 515.621 305.256 504.718C305.224 493.815 305.24 438.174 281.311 403.229Z" fill="#F0F0F0"/>
<path d="M47.9081 481.255C52.9093 488.476 58.7147 494.812 68.9584 497.336C77.5136 499.491 86.5192 498.687 95.2513 499.99C113.246 502.707 125.355 514.977 141.469 521.458C148.312 524.236 155.696 525.429 163.066 524.948C171.243 524.122 179.241 522.022 186.77 518.724C198.911 513.9 210.586 507.789 223.113 504.042C232.875 501.099 243.311 499.652 253.443 501.421C261.885 502.9 270.44 502.675 278.497 498.864C293.437 491.804 298.486 472.491 312.027 463.035C322.704 455.573 338.464 454.271 344.736 442.853C349.239 434.668 346.585 423.958 340.523 416.85C334.46 409.742 325.647 405.593 316.851 402.377C300.464 396.475 283.08 393.805 265.873 392.02C226.908 388 187.783 385.684 148.641 384.655C109.821 383.642 72.4963 382.388 35.0592 394.384C26.5361 397.102 17.9969 400.415 11.1946 406.204C4.3922 411.993 -0.496503 420.677 0.355804 429.602C1.14378 437.98 8.81454 444.686 15.44 449.189C20.0232 452.293 25.2817 454.351 29.6719 457.728C37.9055 464.193 42.4565 473.279 47.9081 481.255Z" fill="#FF9446"/>
<path d="M330.311 389.512L329.973 388.306C316.143 335.398 251.513 295.565 173.985 295.565C96.4572 295.565 31.6498 335.398 17.8199 388.306L17.4982 389.512C15.6781 395.307 14.8729 401.373 15.1182 407.442C15.7936 430.471 31.2799 453.258 61.6091 470.642C123.683 506.503 224.287 506.503 286.377 470.642C316.593 453.258 332.192 430.438 332.852 407.442C333.045 401.364 332.186 395.297 330.311 389.512Z" fill="#FFBDA7"/>
<path d="M298.325 443.4C258.717 473.601 157.421 483.603 93.9806 451.553C30.54 419.503 27.7419 365.358 47.9239 340.207C33.0809 354.069 22.4833 370.407 17.8037 388.306L17.4821 389.512C15.6673 395.308 14.8676 401.374 15.1181 407.442C15.7935 430.471 31.2798 453.258 61.609 470.642C123.683 506.503 224.287 506.503 286.377 470.642C316.593 453.258 332.192 430.438 332.851 407.442C333.045 401.364 332.186 395.297 330.311 389.512C330.311 389.512 332.819 417.107 298.325 443.4Z" fill="#F0997A"/>
<g opacity="0.7">
<path d="M297.634 423.411C298.342 422.434 299.323 421.69 300.454 421.272C301.585 420.853 302.814 420.78 303.987 421.06C305.16 421.341 306.223 421.963 307.042 422.848C307.861 423.733 308.399 424.841 308.588 426.032C308.777 427.223 308.609 428.443 308.104 429.538C307.599 430.633 306.781 431.554 305.753 432.184C304.725 432.814 303.533 433.125 302.329 433.078C301.124 433.03 299.96 432.627 298.985 431.918C297.678 430.968 296.802 429.539 296.549 427.944C296.296 426.349 296.686 424.718 297.634 423.411Z" fill="white"/>
<path d="M306.752 368.558C307.461 367.584 308.443 366.842 309.574 366.426C310.704 366.009 311.933 365.938 313.104 366.22C314.276 366.501 315.337 367.124 316.155 368.009C316.973 368.894 317.51 370.001 317.698 371.191C317.887 372.381 317.719 373.6 317.215 374.695C316.711 375.789 315.894 376.71 314.867 377.34C313.84 377.97 312.649 378.282 311.445 378.236C310.242 378.19 309.078 377.788 308.103 377.081C307.454 376.61 306.904 376.017 306.484 375.333C306.065 374.65 305.785 373.891 305.659 373.099C305.534 372.308 305.566 371.499 305.753 370.72C305.941 369.94 306.28 369.206 306.752 368.558Z" fill="white"/>
<path d="M248.296 449.012C249.005 448.038 249.987 447.296 251.118 446.88C252.249 446.464 253.477 446.392 254.649 446.674C255.82 446.956 256.882 447.579 257.7 448.463C258.517 449.348 259.054 450.456 259.243 451.646C259.431 452.836 259.263 454.055 258.759 455.149C258.255 456.243 257.438 457.164 256.411 457.794C255.384 458.424 254.194 458.736 252.99 458.69C251.786 458.644 250.623 458.242 249.647 457.535C248.998 457.065 248.448 456.471 248.029 455.788C247.609 455.105 247.329 454.345 247.204 453.554C247.078 452.762 247.11 451.953 247.298 451.174C247.485 450.395 247.824 449.66 248.296 449.012Z" fill="white"/>
<path d="M257.414 394.175C258.124 393.201 259.106 392.459 260.236 392.043C261.367 391.627 262.596 391.555 263.767 391.837C264.938 392.119 266 392.742 266.818 393.626C267.635 394.511 268.172 395.619 268.361 396.809C268.55 397.999 268.381 399.218 267.877 400.312C267.373 401.407 266.556 402.327 265.529 402.957C264.503 403.587 263.312 403.899 262.108 403.853C260.904 403.807 259.741 403.405 258.765 402.698C258.116 402.228 257.566 401.634 257.147 400.951C256.728 400.268 256.447 399.509 256.322 398.717C256.196 397.925 256.228 397.116 256.416 396.337C256.603 395.558 256.943 394.823 257.414 394.175Z" fill="white"/>
<path d="M217.179 364.955C217.887 363.979 218.868 363.235 219.999 362.816C221.13 362.398 222.36 362.324 223.532 362.605C224.705 362.886 225.768 363.508 226.587 364.393C227.406 365.278 227.944 366.386 228.133 367.577C228.322 368.768 228.154 369.988 227.649 371.083C227.145 372.178 226.327 373.099 225.299 373.729C224.271 374.359 223.079 374.67 221.874 374.623C220.669 374.575 219.505 374.171 218.53 373.462C217.224 372.513 216.348 371.083 216.094 369.488C215.841 367.893 216.231 366.263 217.179 364.955Z" fill="white"/>
<path d="M266.532 339.386C267.242 338.411 268.224 337.668 269.356 337.251C270.488 336.835 271.718 336.763 272.89 337.046C274.062 337.329 275.125 337.953 275.942 338.839C276.76 339.726 277.296 340.835 277.483 342.026C277.67 343.218 277.499 344.438 276.992 345.532C276.485 346.626 275.665 347.546 274.636 348.174C273.607 348.802 272.414 349.111 271.209 349.061C270.004 349.011 268.841 348.604 267.867 347.893C266.563 346.941 265.691 345.511 265.44 343.916C265.19 342.321 265.583 340.692 266.532 339.386Z" fill="white"/>
<path d="M226.297 310.118C227.005 309.142 227.987 308.398 229.117 307.979C230.248 307.561 231.478 307.488 232.651 307.768C233.823 308.049 234.886 308.671 235.705 309.556C236.524 310.441 237.062 311.549 237.251 312.74C237.441 313.931 237.272 315.151 236.768 316.246C236.263 317.341 235.445 318.262 234.417 318.892C233.389 319.522 232.197 319.833 230.992 319.786C229.787 319.738 228.624 319.334 227.648 318.625C227 318.157 226.45 317.564 226.031 316.882C225.612 316.201 225.332 315.443 225.206 314.652C225.081 313.862 225.112 313.055 225.3 312.277C225.487 311.499 225.826 310.765 226.297 310.118Z" fill="white"/>
<path d="M198.959 474.63C199.668 473.656 200.65 472.914 201.781 472.498C202.911 472.082 204.14 472.01 205.311 472.292C206.483 472.573 207.544 473.196 208.362 474.081C209.18 474.966 209.717 476.073 209.905 477.263C210.094 478.453 209.926 479.672 209.422 480.767C208.918 481.861 208.101 482.782 207.074 483.412C206.047 484.042 204.856 484.354 203.653 484.308C202.449 484.262 201.285 483.86 200.31 483.153C199.661 482.682 199.111 482.089 198.691 481.405C198.272 480.722 197.992 479.963 197.866 479.171C197.741 478.38 197.773 477.571 197.96 476.792C198.148 476.012 198.487 475.278 198.959 474.63Z" fill="white"/>
<path d="M158.724 445.41C159.431 444.434 160.413 443.689 161.544 443.271C162.675 442.853 163.904 442.779 165.077 443.06C166.249 443.34 167.313 443.962 168.132 444.847C168.95 445.732 169.489 446.84 169.678 448.031C169.867 449.222 169.698 450.442 169.194 451.537C168.689 452.633 167.871 453.554 166.843 454.184C165.815 454.814 164.623 455.125 163.418 455.077C162.214 455.03 161.05 454.626 160.075 453.917C158.768 452.967 157.892 451.538 157.639 449.943C157.386 448.348 157.776 446.718 158.724 445.41Z" fill="white"/>
<path d="M208.093 419.793C208.802 418.817 209.785 418.074 210.917 417.658C212.048 417.241 213.278 417.17 214.451 417.452C215.623 417.735 216.685 418.359 217.503 419.246C218.32 420.132 218.856 421.241 219.043 422.433C219.23 423.624 219.059 424.844 218.553 425.939C218.046 427.033 217.226 427.952 216.197 428.58C215.167 429.208 213.974 429.517 212.77 429.467C211.565 429.417 210.402 429.011 209.428 428.3C208.124 427.348 207.251 425.917 207.001 424.322C206.751 422.727 207.143 421.098 208.093 419.793Z" fill="white"/>
<path d="M167.89 390.573C168.598 389.597 169.579 388.852 170.71 388.434C171.841 388.015 173.071 387.942 174.243 388.223C175.416 388.503 176.479 389.125 177.298 390.01C178.117 390.895 178.655 392.003 178.844 393.194C179.033 394.385 178.865 395.605 178.36 396.7C177.856 397.795 177.038 398.716 176.01 399.346C174.982 399.977 173.79 400.287 172.585 400.24C171.38 400.193 170.216 399.789 169.241 399.08C168.592 398.611 168.043 398.019 167.624 397.337C167.205 396.655 166.924 395.897 166.799 395.107C166.673 394.316 166.705 393.509 166.892 392.731C167.08 391.953 167.419 391.219 167.89 390.573Z" fill="white"/>
<path d="M109.387 471.027C110.094 470.051 111.076 469.307 112.207 468.888C113.338 468.47 114.567 468.396 115.74 468.677C116.913 468.958 117.976 469.58 118.795 470.465C119.614 471.35 120.152 472.458 120.341 473.649C120.53 474.84 120.361 476.06 119.857 477.155C119.352 478.25 118.534 479.171 117.506 479.801C116.478 480.431 115.286 480.742 114.081 480.695C112.877 480.647 111.713 480.243 110.738 479.534C109.431 478.585 108.555 477.155 108.302 475.56C108.049 473.965 108.439 472.335 109.387 471.027Z" fill="white"/>
<path d="M176.96 335.72C177.669 334.746 178.651 334.004 179.782 333.588C180.912 333.172 182.141 333.1 183.313 333.382C184.484 333.664 185.546 334.286 186.363 335.171C187.181 336.056 187.718 337.163 187.907 338.353C188.095 339.543 187.927 340.763 187.423 341.857C186.919 342.951 186.102 343.872 185.075 344.502C184.048 345.132 182.858 345.444 181.654 345.398C180.45 345.352 179.286 344.95 178.311 344.243C177.66 343.774 177.108 343.181 176.688 342.498C176.267 341.814 175.986 341.055 175.861 340.263C175.735 339.47 175.768 338.661 175.956 337.881C176.145 337.102 176.486 336.367 176.96 335.72Z" fill="white"/>
<path d="M136.725 306.5C137.432 305.524 138.414 304.779 139.545 304.361C140.676 303.943 141.905 303.869 143.078 304.15C144.25 304.43 145.314 305.053 146.132 305.938C146.951 306.823 147.49 307.931 147.679 309.121C147.868 310.312 147.699 311.532 147.195 312.628C146.69 313.723 145.872 314.644 144.844 315.274C143.816 315.904 142.624 316.215 141.419 316.167C140.214 316.12 139.051 315.716 138.075 315.007C136.773 314.055 135.9 312.626 135.646 311.032C135.393 309.438 135.781 307.809 136.725 306.5Z" fill="white"/>
<path d="M118.504 416.174C119.213 415.2 120.195 414.458 121.326 414.042C122.457 413.626 123.685 413.555 124.857 413.836C126.028 414.118 127.09 414.741 127.908 415.626C128.725 416.511 129.262 417.618 129.451 418.808C129.639 419.998 129.471 421.217 128.967 422.311C128.463 423.406 127.646 424.326 126.619 424.956C125.592 425.587 124.402 425.898 123.198 425.852C121.994 425.806 120.831 425.404 119.855 424.697C119.206 424.227 118.656 423.633 118.237 422.95C117.817 422.267 117.537 421.508 117.412 420.716C117.286 419.924 117.318 419.116 117.506 418.336C117.693 417.557 118.032 416.822 118.504 416.174Z" fill="white"/>
<path d="M78.2696 386.955C78.9773 385.978 79.9587 385.234 81.0896 384.816C82.2204 384.397 83.45 384.324 84.6227 384.604C85.7954 384.885 86.8584 385.507 87.6774 386.392C88.4964 387.277 89.0345 388.385 89.2236 389.576C89.4127 390.767 89.2443 391.987 88.7397 393.082C88.2352 394.177 87.4171 395.098 86.389 395.728C85.361 396.358 84.1691 396.669 82.9643 396.622C81.7594 396.574 80.5957 396.171 79.6204 395.462C78.3176 394.509 77.4444 393.08 77.1914 391.487C76.9383 389.893 77.3259 388.264 78.2696 386.955Z" fill="white"/>
<path d="M127.687 361.337C128.396 360.362 129.379 359.619 130.51 359.202C131.642 358.786 132.872 358.714 134.044 358.997C135.217 359.28 136.279 359.904 137.096 360.79C137.914 361.677 138.45 362.786 138.637 363.977C138.824 365.169 138.653 366.389 138.146 367.483C137.64 368.577 136.82 369.497 135.79 370.125C134.761 370.753 133.568 371.061 132.363 371.012C131.158 370.962 129.995 370.555 129.022 369.844C127.718 368.892 126.845 367.462 126.595 365.867C126.344 364.272 126.737 362.643 127.687 361.337Z" fill="white"/>
<path d="M87.3873 332.117C88.095 331.141 89.0764 330.397 90.2072 329.978C91.3381 329.56 92.5677 329.487 93.7404 329.767C94.913 330.048 95.9761 330.67 96.7951 331.555C97.6141 332.44 98.1522 333.548 98.3413 334.739C98.5304 335.93 98.362 337.15 97.8574 338.245C97.3529 339.34 96.5348 340.261 95.5067 340.891C94.4787 341.521 93.2868 341.832 92.082 341.785C90.8771 341.737 89.7134 341.333 88.7381 340.624C88.0895 340.156 87.54 339.563 87.1209 338.882C86.7018 338.2 86.4214 337.442 86.2959 336.652C86.1704 335.861 86.2022 335.054 86.3895 334.276C86.5768 333.498 86.9159 332.764 87.3873 332.117Z" fill="white"/>
<path d="M69.167 441.792C69.8748 440.816 70.8561 440.071 71.987 439.653C73.1179 439.234 74.3475 439.161 75.5201 439.442C76.6928 439.722 77.7559 440.344 78.5749 441.229C79.3939 442.114 79.9319 443.222 80.121 444.413C80.3101 445.604 80.1417 446.824 79.6372 447.919C79.1326 449.014 78.3146 449.935 77.2865 450.565C76.2584 451.196 75.0666 451.506 73.8617 451.459C72.6569 451.412 71.4932 451.008 70.5179 450.299C69.2116 449.349 68.3356 447.92 68.0823 446.325C67.829 444.73 68.2192 443.099 69.167 441.792Z" fill="white"/>
<path d="M28.9322 412.572C29.6399 411.596 30.6213 410.851 31.7521 410.433C32.883 410.015 34.1126 409.941 35.2853 410.222C36.4579 410.502 37.521 411.125 38.34 412.01C39.159 412.895 39.6971 414.003 39.8862 415.193C40.0753 416.384 39.9069 417.604 39.4023 418.7C38.8978 419.795 38.0797 420.716 37.0516 421.346C36.0236 421.976 34.8317 422.287 33.6269 422.239C32.422 422.192 31.2583 421.788 30.283 421.079C28.9767 420.129 28.1007 418.7 27.8474 417.105C27.5941 415.51 27.9843 413.88 28.9322 412.572Z" fill="white"/>
<path d="M38.0502 357.719C38.7594 356.745 39.7414 356.003 40.872 355.587C42.0027 355.171 43.2314 355.099 44.4028 355.381C45.5742 355.663 46.6358 356.286 47.4534 357.17C48.2711 358.055 48.8082 359.163 48.9968 360.353C49.1854 361.543 49.0171 362.762 48.5131 363.856C48.0091 364.951 47.1921 365.871 46.1652 366.501C45.1384 367.131 43.9478 367.443 42.7438 367.397C41.5399 367.351 40.3766 366.949 39.401 366.242C38.7519 365.772 38.2019 365.178 37.7827 364.495C37.3634 363.812 37.0829 363.052 36.9575 362.261C36.832 361.469 36.8639 360.66 37.0514 359.881C37.2389 359.102 37.5783 358.367 38.0502 357.719Z" fill="white"/>
</g>
<path d="M297.135 159.566C287.31 190.039 260.663 213.647 162.712 229.696L168.26 259.205L133.782 232.912C133.203 232.993 74.8605 238.46 46.9434 217.201C19.6053 196.295 13.1728 161.865 24.9603 137.534C47.4741 91.2684 111.976 81.2498 168.775 74.1901C229.594 66.6159 267.048 74.6565 287.278 99.4699C307.235 123.897 299.001 153.808 297.135 159.566Z" fill="white"/>
<path d="M168.228 260.813C167.878 260.809 167.539 260.69 167.263 260.476L133.299 234.569C126.561 235.148 72.7856 238.895 46.0264 218.487C16.26 195.797 12.2558 160.241 23.5126 136.843C45.5922 91.4938 104.723 80.5585 168.566 72.5983C229.803 64.9758 267.932 73.1933 288.532 98.473C309.132 123.753 300.528 154.195 298.615 160.064C288.66 190.956 261.998 214.853 164.513 231.031L169.804 258.98C169.853 259.289 169.811 259.606 169.682 259.892C169.553 260.178 169.344 260.42 169.08 260.588C168.823 260.741 168.527 260.819 168.228 260.813ZM133.766 231.304C134.123 231.305 134.472 231.418 134.763 231.626L165.88 255.378L161.056 229.985C161.014 229.764 161.02 229.537 161.072 229.318C161.124 229.1 161.221 228.894 161.358 228.715C161.494 228.536 161.667 228.388 161.864 228.28C162.061 228.172 162.279 228.107 162.503 228.088C259.602 212.167 285.91 188.978 295.559 159.067C297.376 153.455 305.449 124.283 286.039 100.483C266.195 76.1523 228.999 68.3207 168.968 75.7824C106.09 83.6944 47.8275 94.3241 26.4555 138.226C15.9223 159.903 19.8944 194.51 47.9722 215.914C75.4551 236.82 133.026 231.385 133.589 231.32L133.766 231.304Z" fill="#FF9446"/>
<path d="M559.597 704.592C560.141 704.316 560.741 704.173 561.35 704.173C561.959 704.173 562.56 704.316 563.103 704.592L569.954 708.548C570.162 708.623 570.342 708.761 570.469 708.942C570.596 709.123 570.664 709.339 570.664 709.561C570.664 709.782 570.596 709.998 570.469 710.18C570.342 710.361 570.162 710.499 569.954 710.574L550.656 721.75L559.469 726.945L577.528 716.524C578.071 716.248 578.672 716.105 579.281 716.105C579.89 716.105 580.49 716.248 581.034 716.524L587.884 720.48C588.087 720.566 588.261 720.705 588.389 720.884C588.517 721.063 588.593 721.274 588.608 721.493C588.593 721.71 588.518 721.919 588.39 722.096C588.262 722.272 588.087 722.409 587.884 722.49L569.825 732.927L583.816 740.967C584.026 741.039 584.208 741.174 584.337 741.354C584.467 741.535 584.536 741.751 584.536 741.973C584.536 742.194 584.467 742.411 584.337 742.591C584.208 742.771 584.026 742.906 583.816 742.978L575.341 747.85C574.795 748.115 574.195 748.252 573.588 748.252C572.981 748.252 572.382 748.115 571.835 747.85L530.024 723.728C529.826 723.643 529.655 723.505 529.53 723.329C529.405 723.153 529.331 722.946 529.316 722.731C529.33 722.514 529.404 722.304 529.528 722.126C529.653 721.947 529.825 721.806 530.024 721.718L559.597 704.592Z" fill="#E0E0E0"/>
<path d="M587.498 688.478C590.207 686.903 593.068 685.604 596.037 684.603C598.775 683.679 601.616 683.095 604.496 682.866C607.259 682.656 610.039 682.851 612.746 683.445C615.499 684.052 618.14 685.083 620.577 686.5C623.793 688.382 625.836 690.312 626.624 692.322C627.012 693.326 627.142 694.412 627.001 695.48C626.861 696.547 626.455 697.563 625.82 698.433L649.25 702.694C649.566 702.734 649.871 702.832 650.151 702.984C650.316 703.052 650.459 703.164 650.564 703.309C650.67 703.454 650.732 703.625 650.746 703.804C650.727 703.981 650.662 704.15 650.558 704.294C650.454 704.437 650.313 704.551 650.151 704.624L641.354 709.706C640.625 710.164 639.787 710.42 638.926 710.445C638.242 710.433 637.56 710.374 636.884 710.268L615.849 706.425L609.899 709.866L623.745 717.907C623.947 717.992 624.12 718.132 624.245 718.311C624.371 718.491 624.443 718.702 624.453 718.92C624.441 719.136 624.369 719.345 624.244 719.521C624.118 719.698 623.946 719.835 623.745 719.917L615.27 724.742C614.724 725.006 614.125 725.144 613.517 725.144C612.91 725.144 612.311 725.006 611.765 724.742L569.953 700.62C569.745 700.544 569.565 700.407 569.438 700.225C569.311 700.044 569.243 699.828 569.243 699.606C569.243 699.385 569.311 699.169 569.438 698.988C569.565 698.806 569.745 698.669 569.953 698.593L587.498 688.478ZM599.8 704.029L607.117 699.816C608.562 699.109 609.765 697.99 610.575 696.599C611.073 695.522 610.414 694.444 608.597 693.383C606.94 692.374 604.985 691.97 603.065 692.241C601.112 692.561 599.235 693.243 597.533 694.251L590.216 698.465L599.8 704.029Z" fill="#E0E0E0"/>
<path d="M680.577 675.115C681.113 674.822 681.718 674.678 682.329 674.697C682.935 674.678 683.535 674.823 684.066 675.115L690.933 679.071C691.134 679.156 691.308 679.296 691.433 679.475C691.558 679.654 691.63 679.865 691.64 680.084C691.624 680.299 691.549 680.505 691.425 680.68C691.3 680.856 691.13 680.994 690.933 681.081L660.25 698.77C659.712 699.057 659.107 699.196 658.497 699.172C657.893 699.196 657.293 699.057 656.76 698.77L614.949 674.648C614.741 674.573 614.561 674.435 614.434 674.254C614.306 674.073 614.238 673.857 614.238 673.635C614.238 673.414 614.306 673.198 614.434 673.017C614.561 672.835 614.741 672.698 614.949 672.622L645.101 655.206C645.648 654.942 646.247 654.804 646.854 654.804C647.461 654.804 648.061 654.942 648.607 655.206L655.458 659.178C655.668 659.25 655.85 659.385 655.979 659.565C656.109 659.745 656.178 659.962 656.178 660.183C656.178 660.405 656.109 660.621 655.979 660.802C655.85 660.982 655.668 661.117 655.458 661.188L635.533 672.703L642.512 676.739L661.022 666.045C661.568 665.78 662.167 665.643 662.775 665.643C663.382 665.643 663.981 665.78 664.527 666.045L671.378 670.001C671.579 670.088 671.753 670.228 671.881 670.407C672.008 670.585 672.085 670.795 672.102 671.014C672.086 671.233 672.011 671.444 671.883 671.623C671.755 671.802 671.581 671.942 671.378 672.027L652.869 682.721L660.121 686.902L680.577 675.115Z" fill="#E0E0E0"/>
<path d="M722.195 651.073C722.733 650.786 723.338 650.648 723.948 650.671C724.552 650.648 725.152 650.787 725.684 651.073L732.551 655.045C732.75 655.129 732.922 655.267 733.047 655.443C733.172 655.619 733.245 655.827 733.259 656.042C733.245 656.26 733.171 656.469 733.047 656.648C732.922 656.827 732.75 656.968 732.551 657.056L701.868 674.745C701.324 675.009 700.728 675.147 700.123 675.147C699.519 675.147 698.922 675.009 698.378 674.745L656.567 650.623C656.359 650.548 656.179 650.41 656.052 650.229C655.925 650.047 655.856 649.831 655.856 649.61C655.856 649.389 655.925 649.172 656.052 648.991C656.179 648.81 656.359 648.672 656.567 648.597L686.72 631.181C687.266 630.916 687.865 630.779 688.472 630.779C689.08 630.779 689.679 630.916 690.225 631.181L697.076 635.137C697.276 635.225 697.449 635.366 697.576 635.544C697.704 635.723 697.781 635.932 697.799 636.15C697.784 636.369 697.708 636.58 697.581 636.759C697.453 636.938 697.278 637.077 697.076 637.163L677.151 648.677L684.13 652.714L702.64 642.02C703.178 641.729 703.782 641.585 704.393 641.601C705.003 641.593 705.605 641.737 706.146 642.02L712.996 645.976C713.204 646.051 713.384 646.189 713.512 646.37C713.639 646.551 713.707 646.767 713.707 646.989C713.707 647.21 713.639 647.426 713.512 647.607C713.384 647.789 713.204 647.926 712.996 648.002L694.487 658.68L701.739 662.877L722.195 651.073Z" fill="#E0E0E0"/>
<path d="M111.509 633.673C111.686 633.748 111.838 633.87 111.949 634.026C112.06 634.183 112.125 634.367 112.137 634.558C112.126 634.751 112.061 634.938 111.951 635.097C111.84 635.256 111.687 635.381 111.509 635.458L105.431 638.948C104.935 639.215 104.385 639.364 103.823 639.382C103.211 639.382 102.681 639.382 102.214 639.382H88.3041C90.2369 640.999 91.4605 643.308 91.7133 645.815C91.7133 647.937 90.3143 649.867 87.3392 651.572C83.0465 654.061 78.0751 655.125 73.1395 654.611C67.5742 654.004 62.2076 652.193 57.412 649.304C55.0777 648.019 52.9477 646.393 51.0921 644.48C49.8662 643.25 48.9415 641.753 48.3904 640.106C47.9949 638.775 48.0978 637.346 48.6799 636.086C49.313 634.78 50.3281 633.697 51.5906 632.982C51.9785 632.767 52.4177 632.661 52.861 632.676C53.2995 632.659 53.734 632.765 54.1154 632.982L61.3198 637.131C62.1238 637.597 62.558 638.064 62.6063 638.514C62.6545 638.964 62.751 639.463 62.8475 639.993C62.9864 640.656 63.2661 641.281 63.6676 641.827C64.4707 642.788 65.461 643.576 66.5783 644.142C68.2675 645.147 70.117 645.855 72.046 646.233C73.6472 646.611 75.332 646.382 76.7739 645.59C78.0925 644.818 78.4785 643.981 77.8835 642.872C76.9719 641.502 75.7193 640.394 74.2491 639.656L69.4247 636.906C69.2452 636.834 69.0897 636.712 68.9759 636.556C68.8621 636.4 68.7947 636.214 68.7815 636.021C68.7937 635.826 68.8604 635.638 68.9741 635.479C69.0879 635.32 69.244 635.196 69.4247 635.121L74.3456 632.29C74.8377 632.016 75.3901 631.866 75.9537 631.856C76.5648 631.856 77.1276 631.856 77.6583 631.856H89.8479L74.9245 623.237C74.7469 623.157 74.5936 623.032 74.4806 622.874C74.3675 622.715 74.2987 622.53 74.2813 622.336C74.2964 622.144 74.3644 621.959 74.478 621.803C74.5915 621.647 74.7461 621.525 74.9245 621.452L81.0515 617.914C81.5298 617.671 82.0588 617.544 82.5953 617.544C83.1318 617.544 83.6607 617.671 84.1391 617.914L111.509 633.673Z" fill="#E0E0E0"/>
<path d="M137.818 648.243C140.179 649.47 142.263 651.167 143.945 653.228C145.051 654.595 145.663 656.295 145.682 658.053C145.587 659.759 144.912 661.382 143.768 662.652C142.383 664.261 140.755 665.644 138.944 666.753C137.336 667.75 135.728 668.763 133.91 669.792C132.093 670.821 130.405 671.77 128.764 672.638C126.526 673.825 124.171 674.779 121.737 675.485C119.117 676.205 116.414 676.578 113.696 676.594C110.835 676.615 107.982 676.275 105.205 675.581C102.168 674.826 99.2547 673.64 96.5537 672.059C94.1993 670.823 92.1204 669.121 90.4428 667.058C89.3194 665.669 88.7014 663.94 88.6899 662.153C88.8219 660.428 89.5298 658.797 90.7001 657.522C92.0866 655.914 93.714 654.53 95.5245 653.421C97.0039 652.472 98.6442 651.491 100.445 650.446C102.246 649.401 103.983 648.452 105.704 647.551C107.966 646.391 110.343 645.469 112.796 644.802C115.416 644.084 118.119 643.711 120.836 643.692C123.698 643.672 126.551 644.012 129.327 644.705C132.31 645.479 135.168 646.67 137.818 648.243ZM118.521 666.447C121.914 664.662 125.13 662.797 128.169 660.883C128.959 660.365 129.697 659.773 130.373 659.114C130.897 658.64 131.277 658.026 131.466 657.345C131.525 657.021 131.517 656.688 131.442 656.367C131.367 656.046 131.228 655.744 131.032 655.48C130.407 654.657 129.604 653.987 128.684 653.518C127.635 652.895 126.496 652.439 125.307 652.167C124.252 651.931 123.169 651.85 122.091 651.926C121.03 652.003 119.983 652.208 118.971 652.537C117.924 652.867 116.912 653.298 115.948 653.823C112.637 655.504 109.417 657.356 106.299 659.371C105.478 659.86 104.717 660.443 104.031 661.108C103.5 661.582 103.134 662.213 102.986 662.909C102.931 663.237 102.943 663.572 103.02 663.896C103.097 664.219 103.239 664.523 103.436 664.791C104.067 665.603 104.869 666.267 105.784 666.736C107.789 667.922 110.101 668.482 112.426 668.345C113.487 668.271 114.535 668.065 115.546 667.733C116.572 667.376 117.571 666.946 118.537 666.447H118.521Z" fill="#E0E0E0"/>
<path d="M190.066 680.309C190.602 680.269 191.139 680.269 191.674 680.309C192.209 680.39 192.723 680.576 193.186 680.856L197.882 683.574C198.3 683.815 198.525 684.056 198.573 684.329C198.621 684.603 198.461 684.828 198.107 685.021C198.001 685.08 197.887 685.124 197.769 685.15C197.602 685.2 197.429 685.232 197.255 685.246L131.804 690.408C131.269 690.455 130.731 690.455 130.196 690.408C129.662 690.324 129.148 690.139 128.684 689.861L123.988 687.144C123.57 686.902 123.345 686.661 123.313 686.388C123.281 686.114 123.426 685.889 123.763 685.696C123.871 685.643 123.985 685.6 124.101 685.568C124.269 685.519 124.441 685.486 124.616 685.471L190.066 680.309ZM169 675.951C167.615 676.892 166.164 677.73 164.658 678.46C163.439 679.084 162.155 679.575 160.831 679.923C159.441 680.268 158.016 680.446 156.585 680.454C155.06 680.443 153.542 680.243 152.066 679.859C150.481 679.433 148.961 678.795 147.547 677.961C146.324 677.299 145.233 676.416 144.331 675.356C143.712 674.633 143.36 673.719 143.334 672.767C143.364 671.874 143.686 671.015 144.251 670.323C144.947 669.44 145.791 668.684 146.743 668.087C147.419 667.605 148.11 667.171 148.77 666.785C149.429 666.399 150.217 665.997 151.085 665.579C152.316 664.962 153.61 664.482 154.945 664.147C156.333 663.797 157.759 663.619 159.19 663.617C160.705 663.607 162.214 663.802 163.677 664.196C165.264 664.608 166.785 665.242 168.196 666.077C169.423 666.735 170.514 667.619 171.412 668.682C172.027 669.376 172.366 670.272 172.366 671.199C172.366 672.126 172.027 673.022 171.412 673.716C170.739 674.591 169.924 675.347 169 675.951ZM175.529 702.823C174.14 703.756 172.689 704.595 171.187 705.332C169.962 705.956 168.673 706.447 167.343 706.795C165.963 707.154 164.541 707.333 163.114 707.326C159.936 707.314 156.817 706.459 154.076 704.849C152.851 704.182 151.761 703.293 150.86 702.228C150.231 701.511 149.878 700.593 149.863 699.639C149.895 698.746 150.217 697.888 150.78 697.194C151.469 696.311 152.307 695.555 153.256 694.959C153.948 694.477 154.623 694.043 155.299 693.657C155.974 693.271 156.73 692.869 157.614 692.45C158.845 691.834 160.139 691.354 161.474 691.019C162.858 690.678 164.277 690.5 165.703 690.489C167.223 690.479 168.738 690.674 170.206 691.067C171.787 691.497 173.306 692.13 174.725 692.949C175.953 693.604 177.045 694.489 177.941 695.554C178.572 696.278 178.931 697.199 178.954 698.159C178.903 699.048 178.584 699.901 178.037 700.604C177.327 701.474 176.48 702.224 175.529 702.823ZM153.61 671.738C152.929 672.106 152.371 672.665 152.002 673.346C151.825 673.812 152.163 674.295 152.999 674.777C153.744 675.239 154.62 675.442 155.492 675.356C156.479 675.201 157.436 674.886 158.322 674.423C159.636 673.792 160.899 673.061 162.101 672.236C162.781 671.867 163.34 671.308 163.709 670.628C163.886 670.162 163.548 669.679 162.712 669.197C161.967 668.735 161.091 668.532 160.219 668.618C159.229 668.772 158.272 669.093 157.389 669.567C156.075 670.198 154.812 670.929 153.61 671.754V671.738ZM160.139 698.626C159.462 698.999 158.904 699.556 158.531 700.234C158.354 700.7 158.692 701.183 159.528 701.665C160.264 702.133 161.137 702.338 162.004 702.244C162.999 702.095 163.961 701.779 164.851 701.311C166.163 700.687 167.422 699.955 168.614 699.124C169.289 698.748 169.845 698.191 170.222 697.516C170.399 697.034 170.061 696.551 169.225 696.069C168.479 695.609 167.604 695.406 166.732 695.49C165.742 695.644 164.785 695.965 163.902 696.439C162.591 697.072 161.333 697.808 160.139 698.642V698.626Z" fill="#E0E0E0"/>
<path d="M58.6502 681.21C61.0085 680.007 63.5105 679.11 66.0958 678.54C68.8546 677.918 71.6792 677.638 74.5063 677.704C77.4824 677.793 80.4388 678.219 83.3188 678.974C86.3664 679.774 89.2926 680.98 92.0188 682.56C94.3836 683.83 96.4891 685.532 98.2262 687.578C99.4525 689.019 100.22 690.795 100.429 692.675C100.515 694.4 100.01 696.101 98.9981 697.5C97.7485 699.225 96.1688 700.684 94.3506 701.794C92.7961 702.791 91.1236 703.804 89.3332 704.833C87.5428 705.862 85.8222 706.8 84.1711 707.647C81.8174 708.847 79.321 709.744 76.7416 710.317C73.9713 710.936 71.1371 711.222 68.2989 711.169C65.3094 711.1 62.3394 710.668 59.4543 709.882C56.4291 709.076 53.5249 707.87 50.8186 706.296C48.4381 705.023 46.3122 703.322 44.5469 701.279C43.3527 699.86 42.6229 698.109 42.4564 696.262C42.3842 694.534 42.9001 692.833 43.9198 691.437C45.1597 689.71 46.7348 688.249 48.5512 687.144C50.0467 686.195 51.6709 685.198 53.472 684.168C55.2731 683.139 56.9295 682.11 58.6502 681.21ZM73.8791 701.44L76.2752 700.169C77.1597 699.719 78.0281 699.237 78.9126 698.722C79.797 698.207 80.6172 697.709 81.4052 697.226L83.4797 695.876C84.2631 695.376 84.9541 694.745 85.522 694.01C85.9643 693.438 86.2123 692.739 86.2295 692.016C86.2061 691.253 85.9224 690.521 85.4255 689.942C84.7129 689.083 83.8387 688.373 82.8525 687.851C80.6624 686.584 78.1783 685.913 75.6481 685.905C74.4825 685.898 73.3207 686.038 72.1906 686.323C71.0778 686.593 69.9989 686.986 68.9744 687.497C68.2507 687.819 67.4627 688.221 66.6265 688.671C65.7903 689.122 64.9219 689.62 64.0535 690.135C63.1851 690.649 62.3167 691.132 61.4966 691.63C60.6764 692.129 59.9689 692.595 59.3578 693.045C58.6267 693.431 57.996 693.983 57.5157 694.655C57.0355 695.328 56.7191 696.104 56.5918 696.921C56.4953 698.32 57.621 699.703 59.9849 701.07C62.1397 702.379 64.6201 703.053 67.1411 703.016C69.4718 702.961 71.7659 702.424 73.8791 701.44Z" fill="#E0E0E0"/>
<path d="M143.672 713.067C143.85 713.14 144.005 713.262 144.118 713.418C144.232 713.574 144.3 713.759 144.315 713.951C144.301 714.144 144.235 714.329 144.125 714.487C144.014 714.646 143.864 714.771 143.688 714.852L137.609 718.341C137.131 718.584 136.602 718.711 136.065 718.711C135.529 718.711 135 718.584 134.522 718.341L117.411 708.467L109.58 712.986L125.548 722.217C125.734 722.279 125.895 722.398 126.009 722.556C126.123 722.715 126.185 722.906 126.185 723.101C126.185 723.297 126.123 723.487 126.009 723.646C125.895 723.805 125.734 723.924 125.548 723.986L119.486 727.491C118.991 727.752 118.437 727.88 117.878 727.861C117.318 727.889 116.761 727.761 116.269 727.491L100.317 718.277L87.9503 725.417C87.4691 725.65 86.9413 725.772 86.4065 725.772C85.8717 725.772 85.3439 725.65 84.8627 725.417L77.3689 721.091C77.1911 721.014 77.0383 720.889 76.9276 720.73C76.8168 720.571 76.7525 720.384 76.7417 720.191C76.7536 719.999 76.8186 719.815 76.9294 719.659C77.0402 719.503 77.1924 719.381 77.3689 719.306L114.356 697.966C114.848 697.699 115.404 697.572 115.964 697.596C116.524 697.569 117.08 697.697 117.572 697.966L143.672 713.067Z" fill="#E0E0E0"/>
<path d="M178.986 733.377C179.17 733.443 179.328 733.564 179.441 733.724C179.553 733.884 179.613 734.074 179.613 734.27C179.613 734.465 179.553 734.655 179.441 734.815C179.328 734.975 179.17 735.096 178.986 735.162L172.923 738.668C172.43 738.931 171.874 739.054 171.315 739.022C170.757 739.051 170.202 738.928 169.707 738.668L152.613 728.778L144.878 733.377L160.846 742.592C161.03 742.658 161.189 742.779 161.301 742.939C161.413 743.098 161.473 743.289 161.473 743.484C161.473 743.679 161.413 743.87 161.301 744.029C161.189 744.189 161.03 744.31 160.846 744.377L154.784 747.85C154.303 748.084 153.775 748.205 153.24 748.205C152.705 748.205 152.177 748.084 151.696 747.85L135.727 738.668L123.361 745.792C122.883 746.035 122.354 746.161 121.817 746.161C121.281 746.161 120.752 746.035 120.273 745.792L112.78 741.418C112.603 741.343 112.451 741.221 112.34 741.065C112.229 740.908 112.164 740.724 112.152 740.533C112.163 740.34 112.227 740.153 112.338 739.994C112.449 739.835 112.602 739.71 112.78 739.633L149.766 718.293C150.248 718.059 150.775 717.938 151.31 717.938C151.845 717.938 152.373 718.059 152.854 718.293L178.986 733.377Z" fill="#E0E0E0"/>
<path d="M65.4527 156.574L78.5106 154.548L80.6816 168.635C80.0223 169.182 79.2182 169.777 78.2694 170.436C77.1927 171.148 76.0576 171.766 74.8763 172.286C73.4221 172.917 71.9288 173.454 70.4057 173.894C68.526 174.462 66.6072 174.892 64.6647 175.18C61.7446 175.662 58.769 175.706 55.8361 175.309C53.257 174.969 50.7973 174.015 48.6638 172.527C46.459 170.925 44.663 168.826 43.4214 166.4C41.8676 163.283 40.8405 159.93 40.382 156.478C39.7727 153.061 39.7401 149.566 40.2855 146.138C40.7297 143.446 41.7981 140.896 43.4053 138.692C44.9787 136.636 47.018 134.982 49.3553 133.868C52.0196 132.618 54.8535 131.767 57.7658 131.343C59.7119 131.023 61.6795 130.851 63.6516 130.828C65.2633 130.8 66.8751 130.881 68.4759 131.07C69.7595 131.209 71.0291 131.457 72.2711 131.809C73.3807 132.147 74.3617 132.469 75.2301 132.774L77.2563 146.411L64.1983 148.437L63.5872 144.513C63.5267 143.391 63.0236 142.339 62.1882 141.587C61.7661 141.302 61.2895 141.107 60.7885 141.016C60.2875 140.925 59.773 140.938 59.2775 141.056C58.7678 141.099 58.2718 141.243 57.8188 141.48C57.3658 141.718 56.965 142.044 56.6401 142.439C56.0876 143.415 55.9266 144.565 56.1899 145.655L58.7307 162.09C58.8023 163.213 59.3102 164.264 60.1459 165.017C61.0367 165.505 62.0641 165.685 63.0678 165.528C64.0715 165.371 64.9949 164.886 65.6939 164.149C66.2512 163.174 66.4124 162.023 66.1442 160.932L65.4527 156.574Z" fill="#263238"/>
<path d="M122.203 143.886C122.813 147.314 122.845 150.82 122.3 154.259C121.856 156.941 120.787 159.48 119.18 161.672C117.613 163.741 115.565 165.397 113.214 166.497C110.554 167.758 107.719 168.61 104.804 169.021C101.906 169.511 98.9502 169.555 96.0393 169.15C93.4652 168.81 91.0107 167.856 88.8831 166.368C86.6966 164.755 84.9132 162.658 83.6728 160.241C82.119 157.124 81.092 153.771 80.6335 150.319C80.0242 146.902 79.9916 143.407 80.537 139.979C80.9776 137.286 82.0464 134.735 83.6567 132.533C85.2271 130.467 87.274 128.812 89.6229 127.709C92.2827 126.447 95.1184 125.596 98.0334 125.184C100.926 124.696 103.876 124.652 106.782 125.055C109.356 125.395 111.81 126.349 113.938 127.837C116.129 129.458 117.913 131.567 119.148 133.996C120.715 137.098 121.748 140.442 122.203 143.886ZM103.308 159.276C103.819 159.237 104.316 159.095 104.769 158.857C105.223 158.619 105.623 158.291 105.945 157.893C106.499 156.918 106.661 155.767 106.396 154.677L103.855 138.371C103.779 137.244 103.272 136.19 102.44 135.428C101.549 134.939 100.521 134.76 99.5177 134.917C98.514 135.074 97.5906 135.559 96.8916 136.296C96.3375 137.272 96.1765 138.422 96.4413 139.512L98.9983 155.931C99.0615 157.058 99.5638 158.114 100.397 158.874C100.83 159.134 101.311 159.303 101.812 159.372C102.312 159.442 102.821 159.409 103.308 159.276Z" fill="#263238"/>
<path d="M120.451 122.482L146.454 118.462L155.54 136.151L158.628 116.564L183.714 112.64L185.097 121.549L181.881 122.064L185.58 146.604L188.796 146.105L190.179 155.014L168.421 158.392L167.038 149.466L170.254 148.968L166.926 127.467L160.815 159.63L154.929 160.53L138.044 131.938L141.388 153.535L144.605 153.02L145.988 161.946L126.948 164.888L125.565 155.963L128.781 155.465L125.098 130.909L121.882 131.407L120.451 122.482Z" fill="#263238"/>
<path d="M185.998 112.351L211.503 108.395C215.208 107.581 219.075 107.941 222.567 109.424C223.973 110.125 225.179 111.171 226.071 112.465C226.962 113.759 227.511 115.258 227.665 116.822C227.952 118.36 227.852 119.946 227.375 121.437C226.955 122.686 226.3 123.843 225.445 124.846C224.683 125.754 223.782 126.535 222.776 127.162C221.968 127.673 221.111 128.104 220.219 128.448V128.979C221.226 128.918 222.235 128.918 223.242 128.979C224.47 129.084 225.669 129.411 226.78 129.944C228.026 130.529 229.125 131.387 229.996 132.453C231.044 133.863 231.694 135.529 231.878 137.277C232.211 139.066 232.05 140.912 231.412 142.616C230.801 144.134 229.823 145.477 228.565 146.524C227.192 147.677 225.623 148.575 223.934 149.177C222.052 149.859 220.107 150.354 218.128 150.657L192.607 154.596L191.224 145.687L194.441 145.173L190.662 120.697L187.445 121.196L185.998 112.351ZM210.12 126.824C210.556 126.789 210.981 126.666 211.368 126.461C211.756 126.257 212.097 125.975 212.371 125.634C212.846 124.788 212.978 123.793 212.741 122.852L212.436 120.89C212.371 119.921 211.939 119.013 211.23 118.349C210.866 118.109 210.458 117.946 210.029 117.868C209.601 117.791 209.161 117.801 208.737 117.899L205.81 118.349L207.193 127.274L210.12 126.824ZM212.918 142.375C213.352 142.338 213.774 142.214 214.158 142.009C214.542 141.804 214.881 141.524 215.153 141.185C215.626 140.338 215.758 139.343 215.523 138.403L215.153 136.007C215.104 135.037 214.677 134.125 213.963 133.466C213.6 133.226 213.192 133.062 212.763 132.985C212.335 132.907 211.895 132.918 211.471 133.015L208.142 133.53L209.589 142.889L212.918 142.375Z" fill="#263238"/>
<path d="M273.753 120.424C274.362 123.857 274.395 127.368 273.849 130.812C273.423 133.485 272.383 136.023 270.81 138.226C269.234 140.286 267.189 141.94 264.844 143.05C259.478 145.517 253.529 146.436 247.669 145.703C245.096 145.351 242.643 144.391 240.513 142.905C238.295 141.297 236.483 139.194 235.222 136.762C233.679 133.649 232.663 130.302 232.215 126.856C231.606 123.439 231.573 119.944 232.119 116.516C232.563 113.825 233.631 111.275 235.238 109.07C236.818 107.014 238.863 105.36 241.204 104.246C246.577 101.782 252.53 100.863 258.395 101.593C260.963 101.948 263.41 102.907 265.535 104.391C267.73 106.008 269.515 108.117 270.746 110.55C272.294 113.65 273.31 116.987 273.753 120.424ZM254.857 135.894C255.367 135.851 255.863 135.707 256.316 135.469C256.769 135.232 257.17 134.906 257.495 134.511C258.047 133.535 258.208 132.385 257.945 131.295L255.404 114.86C255.333 113.737 254.825 112.686 253.989 111.933C253.565 111.651 253.089 111.459 252.588 111.368C252.088 111.277 251.574 111.288 251.078 111.402C250.569 111.445 250.073 111.589 249.62 111.827C249.167 112.064 248.766 112.39 248.441 112.785C247.886 113.761 247.73 114.914 248.007 116.001L250.548 132.436C250.608 133.559 251.111 134.611 251.947 135.363C252.37 135.645 252.847 135.837 253.347 135.928C253.848 136.019 254.362 136.008 254.857 135.894Z" fill="#263238"/>
<path d="M118.778 200.187C118.065 200.308 117.334 200.283 116.63 200.114C115.927 199.945 115.264 199.636 114.683 199.205C114.102 198.774 113.614 198.23 113.248 197.606C112.882 196.981 112.646 196.289 112.555 195.572C110.673 183.607 122.203 171.562 128.25 170.613C130.212 170.308 131.466 171.16 131.466 171.546V171.739C131.831 171.638 132.202 171.558 132.576 171.498C133.027 171.416 133.49 171.427 133.936 171.532C134.382 171.638 134.802 171.834 135.169 172.108C135.535 172.383 135.842 172.731 136.068 173.129C136.294 173.528 136.436 173.969 136.484 174.425C137.593 181.05 128.234 198.707 118.778 200.187ZM130.115 176.371C129.456 176.467 128.909 176.226 128.7 174.875C125.043 177.034 122.055 180.161 120.065 183.913C118.236 186.796 117.281 190.147 117.315 193.561C117.492 194.703 118.054 195.33 118.923 195.17C120.402 194.944 124.004 192.387 127.189 186.791C130.099 181.693 131.096 178.22 130.887 176.901C130.887 176.483 130.63 176.274 130.324 176.322L130.115 176.371Z" fill="#FF9446"/>
<path d="M147.869 178.14C148.126 178.14 148.416 178.284 148.721 178.3C151.938 177.159 154.977 176.146 155.701 175.84C155.844 175.773 155.995 175.724 156.151 175.695C157.444 175.757 158.732 175.891 160.01 176.097C160.219 176.097 160.686 176.805 160.798 177.464C160.854 177.682 160.83 177.912 160.729 178.113C160.629 178.314 160.459 178.472 160.252 178.558C159.914 178.67 157.55 179.683 154.414 180.97C155.624 181.934 156.465 183.286 156.794 184.797C158.225 193.964 141.565 216.349 135.326 217.33C134.856 217.433 134.371 217.441 133.899 217.354C133.426 217.267 132.976 217.086 132.574 216.823C132.173 216.559 131.828 216.217 131.56 215.818C131.293 215.419 131.108 214.971 131.016 214.499C130.164 208.983 134.232 199.286 139.217 187.161C138.796 187.327 138.36 187.451 137.915 187.531C137.663 187.582 137.404 187.58 137.153 187.525C136.903 187.47 136.666 187.363 136.459 187.212C136.252 187.061 136.079 186.868 135.95 186.646C135.821 186.424 135.74 186.178 135.712 185.923C135.712 185.633 135.358 185.344 135.31 185.038C135.298 184.954 135.311 184.867 135.348 184.79C135.385 184.712 135.445 184.648 135.519 184.604C135.969 184.106 136.13 183.398 136.612 182.819C137.116 182.087 137.729 181.437 138.429 180.89C139.748 180.219 141.1 179.618 142.482 179.088C149.236 162.332 156.103 146.926 156.665 145.929C157.892 144.259 159.669 143.074 161.683 142.584C162.213 142.584 162.599 142.68 162.68 143.179C162.704 143.439 162.676 143.701 162.599 143.951C162.213 145.221 152.902 165.918 147.869 178.14ZM148.737 183.302L145.216 184.701C141.597 193.803 135.567 208.195 136.065 210.849C136.065 211.187 136.274 211.331 136.5 211.299C138.67 210.961 152.452 194.414 151.166 186.148C151.001 185.522 150.697 184.94 150.276 184.448C149.856 183.955 149.33 183.563 148.737 183.302Z" fill="#FF9446"/>
<path d="M172.039 174.36C172.313 174.36 172.602 174.505 172.891 174.521C176.108 173.379 179.147 172.382 179.871 172.061C180.015 171.999 180.166 171.956 180.321 171.932C181.615 171.978 182.905 172.112 184.18 172.334C184.39 172.334 184.856 173.026 184.968 173.685C185.028 173.903 185.005 174.134 184.904 174.336C184.803 174.538 184.631 174.695 184.422 174.779L178.584 177.207C179.797 178.168 180.639 179.521 180.964 181.034C182.395 190.184 165.735 212.569 159.496 213.55C159.027 213.656 158.543 213.666 158.07 213.579C157.598 213.493 157.148 213.312 156.747 213.048C156.346 212.784 156.003 212.442 155.737 212.042C155.472 211.642 155.29 211.192 155.202 210.72C154.334 205.22 158.418 195.507 163.387 183.302C162.971 183.465 162.54 183.589 162.101 183.671C161.849 183.722 161.59 183.72 161.34 183.665C161.089 183.61 160.853 183.504 160.645 183.352C160.438 183.201 160.265 183.008 160.136 182.786C160.007 182.565 159.926 182.318 159.898 182.063C159.898 181.774 159.528 181.484 159.48 181.195C159.472 181.11 159.487 181.025 159.524 180.949C159.561 180.872 159.618 180.807 159.689 180.761C160.139 180.246 160.3 179.555 160.782 178.976C161.282 178.24 161.895 177.589 162.599 177.046C163.915 176.364 165.268 175.757 166.652 175.229C173.422 158.488 180.273 143.066 180.836 142.069C182.068 140.405 183.842 139.222 185.853 138.724C186.384 138.724 186.77 138.821 186.85 139.319C186.9 139.58 186.9 139.847 186.85 140.107C186.384 141.442 177.089 162.155 172.039 174.36ZM172.908 179.539L169.402 180.922C165.784 190.024 159.753 204.432 160.235 207.086C160.235 207.407 160.445 207.552 160.686 207.52C162.841 207.182 176.622 190.651 175.336 182.385C175.176 181.756 174.875 181.172 174.454 180.679C174.032 180.185 173.503 179.795 172.908 179.539Z" fill="#FF9446"/>
<path d="M200.406 166.979C199.361 167.14 199.152 166.625 199.007 165.676C198.968 165.388 198.968 165.096 199.007 164.808C198.129 165.296 197.3 165.867 196.531 166.513C195.534 167.269 191.497 170.919 191.706 172.141C191.706 172.398 192.269 172.318 192.398 172.286C194.167 172.012 195.485 170.678 197.222 170.437C197.441 170.412 197.662 170.412 197.881 170.437C198.675 170.861 199.295 171.549 199.634 172.382C199.731 172.945 199.088 173.605 198.718 173.99C197.898 174.923 196.788 175.164 195.855 175.888C194.633 176.853 189.535 180.712 189.76 182.321C190.114 184.62 192.784 184.475 194.585 184.202C199.409 183.446 203.237 178.22 205.842 175.486C206.037 175.28 206.28 175.125 206.549 175.036C207.402 174.907 207.707 176.901 207.804 177.496C207.936 178.087 207.963 178.697 207.884 179.297C207.648 179.956 207.269 180.555 206.774 181.05C204.025 184.089 199.699 187.997 194.392 188.833C190.484 189.445 185.177 189.026 184.421 184.202C183.859 180.568 186.721 177.995 189.616 176.37C187.686 175.824 187.332 174.569 187.059 172.833C186.046 166.4 196.209 159.968 201.789 159.18C202.931 159.003 205.198 159.18 205.408 160.659C205.53 162.15 205.082 163.632 204.154 164.806C203.225 165.979 201.886 166.756 200.406 166.979Z" fill="#FF9446"/>
<path d="M227.391 167.526C227.257 167.872 227.04 168.181 226.76 168.425C226.48 168.668 226.144 168.84 225.783 168.925C225.469 168.958 225.153 168.927 224.852 168.834C224.551 168.74 224.273 168.587 224.033 168.382C223.794 168.177 223.599 167.926 223.46 167.643C223.321 167.36 223.241 167.052 223.226 166.738C223.135 164.777 223.701 162.842 224.834 161.238C223.226 161.64 215.716 172.366 214.349 174.425C212.323 177.512 210.457 180.713 208.753 183.977C208.415 184.636 207.723 185.585 206.968 185.698C205.864 185.665 204.775 185.437 203.751 185.022C203.494 184.926 203.462 184.733 203.43 184.54C203.581 183.011 204.04 181.528 204.781 180.182C206.823 174.827 208.962 169.552 211.084 164.277C211.694 162.532 212.42 160.829 213.255 159.18C213.799 158.424 214.501 157.795 215.312 157.337C216.122 156.879 217.023 156.602 217.951 156.526C218.594 156.43 218.852 157.121 218.932 157.684C219.173 159.292 216.6 164.229 215.877 165.918C218.433 161.962 222.711 155.851 227.696 155.079C228.093 154.991 228.503 154.985 228.901 155.063C229.3 155.141 229.678 155.301 230.011 155.532C230.345 155.763 230.628 156.061 230.841 156.406C231.054 156.752 231.193 157.137 231.25 157.539C231.475 159.276 228.452 165.612 227.391 167.526Z" fill="#FF9446"/>
<path d="M299.435 640.347C303.23 614.167 301.734 593.712 306.88 552.833C307.829 542.316 309.019 531.059 310.45 521.089C315.275 487.527 321.273 476.367 322.222 469.902C322.222 469.902 326.885 417.477 334.395 343.841C337.917 309.202 348.74 299.409 358.099 281.558L453.654 288.425C461.067 334.659 456.967 434.041 453.284 480.885C451.402 504.766 432.571 631.888 432.169 634.815C430.738 645.204 431.349 649.385 435.128 654.113C443.024 663.906 454.812 673.539 464.959 682.319C463.11 686.307 450.229 685.23 444.053 681.66C436.002 676.679 428.399 671.008 421.331 664.71C413 657.554 402.033 651.508 402.676 641.569C402.67 640.965 402.611 640.362 402.499 639.768C402.757 633.963 395.391 547.494 395.681 527.569C395.938 510.443 400.103 481.641 400.103 481.641L394.282 408.536C394.282 408.536 384.44 450.765 375.467 479.438C368.182 502.772 356.057 542.621 347.662 571.391C339.204 604.599 328.606 627.916 325.872 644.657C325.116 648.645 317.719 687.803 315.194 696.712C312.67 705.621 292.938 704.447 292.777 688.8C292.681 678.428 298.711 645.268 299.435 640.347Z" fill="#C8856A"/>
<path d="M394.282 408.536L406.086 357.076C406.086 357.076 437.46 355.613 449.505 345.562C449.505 345.562 433.794 364.666 412.518 366.467L400.554 409.034L400.088 481.078L394.282 408.536Z" fill="#F28F8F"/>
<path d="M482.455 694.075C483.002 694.075 483.469 700.186 480.349 702.55C476.747 705.3 466.39 709.529 453.22 707.004C440.049 704.479 433.118 699.928 428.069 695.152C423.019 690.376 415.976 683.67 410.042 681.966C404.542 680.358 398.64 677.495 396.968 675.662C395.295 673.829 396.003 666.19 396.003 666.19L482.455 694.075Z" fill="#263238"/>
<path d="M402.435 636.89C402.435 636.89 401.422 636.89 400.972 638.61C400.441 640.701 399.621 646.812 398.527 650.237C397.016 655.061 395.6 664.807 396.083 668.779C396.565 672.751 405.507 676.031 411.183 678.604C416.86 681.177 423.566 686.307 429.275 691.646C434.983 696.985 448.009 703.128 456.613 703.788C469.815 704.785 478.58 701.729 481.506 697.13C485.141 691.469 482.793 687.899 468.03 679.939C465.248 678.444 455.519 671.899 452.206 669.47C448.702 666.969 445.405 664.189 442.349 661.156C440.809 659.629 439.354 658.018 437.991 656.332C436.557 654.806 435.365 653.071 434.453 651.186C434.308 650.768 434.212 650.301 434.083 649.867C433.721 648.686 433.463 647.475 433.311 646.249C433.15 644.979 433.102 643.129 431.944 642.293C430.272 641.48 428.407 641.146 426.557 641.328C424.581 641.347 422.609 641.503 420.655 641.794C418.388 642.164 415.831 642.196 414.335 644.223C413.347 645.863 412.793 647.728 412.727 649.642C412.631 650.527 412.598 651.427 412.534 652.312C412.534 652.681 412.63 653.373 412.1 653.18C411.569 652.987 411.135 651.652 410.958 651.186C410.604 650.157 410.395 649.079 409.993 648.082C409.564 646.91 408.997 645.792 408.305 644.753C407.655 643.807 406.9 642.939 406.053 642.164C405.184 641.601 404.351 640.984 403.561 640.315C402.849 639.313 402.456 638.119 402.435 636.89Z" fill="#37474F"/>
<path d="M470.459 681.322C451.258 681.467 444.52 692.901 443.25 700.169C447.506 702.074 452.029 703.316 456.661 703.852C469.864 704.849 479.175 701.826 482.102 697.243C485.527 691.888 483.71 687.288 470.459 681.322Z" fill="#FAFAFA"/>
<path d="M441.786 679.762C441.569 679.748 441.363 679.657 441.207 679.505C441.119 679.419 441.048 679.317 441 679.204C440.952 679.091 440.927 678.969 440.927 678.846C440.927 678.723 440.952 678.601 441 678.488C441.048 678.374 441.119 678.272 441.207 678.186C443.575 676.022 446.379 674.388 449.429 673.395C452.48 672.402 455.708 672.073 458.896 672.429C459.142 672.472 459.36 672.61 459.503 672.814C459.646 673.017 459.703 673.269 459.66 673.515C459.618 673.76 459.479 673.978 459.276 674.121C459.072 674.265 458.82 674.321 458.575 674.279C452.142 673.185 444.825 676.996 442.494 679.457C442.406 679.558 442.297 679.638 442.175 679.691C442.052 679.744 441.919 679.768 441.786 679.762Z" fill="#F0F0F0"/>
<path d="M433.842 674.456C433.627 674.441 433.424 674.356 433.263 674.214C433.087 674.037 432.988 673.797 432.988 673.547C432.988 673.297 433.087 673.057 433.263 672.88C435.631 670.715 438.434 669.082 441.485 668.089C444.536 667.096 447.764 666.766 450.952 667.123C451.197 667.165 451.416 667.304 451.559 667.507C451.702 667.711 451.759 667.963 451.716 668.208C451.673 668.453 451.535 668.672 451.331 668.815C451.128 668.958 450.876 669.015 450.63 668.972C444.198 667.878 436.881 671.706 434.549 674.166C434.458 674.262 434.348 674.337 434.226 674.387C434.104 674.437 433.973 674.46 433.842 674.456Z" fill="#F0F0F0"/>
<path d="M426.541 668.505C426.327 668.491 426.123 668.406 425.962 668.264C425.787 668.089 425.689 667.852 425.689 667.605C425.689 667.358 425.787 667.12 425.962 666.946C428.329 664.778 431.131 663.142 434.182 662.146C437.233 661.15 440.462 660.818 443.651 661.172C443.773 661.192 443.889 661.236 443.994 661.301C444.098 661.366 444.189 661.451 444.26 661.551C444.332 661.651 444.383 661.764 444.411 661.884C444.439 662.004 444.443 662.128 444.423 662.25C444.403 662.371 444.359 662.488 444.294 662.592C444.229 662.697 444.144 662.787 444.044 662.859C443.944 662.931 443.831 662.982 443.711 663.01C443.591 663.038 443.467 663.042 443.346 663.022C436.913 661.928 429.58 665.756 427.265 668.216C427.172 668.314 427.059 668.39 426.934 668.44C426.81 668.49 426.675 668.512 426.541 668.505Z" fill="#F0F0F0"/>
<path d="M419.401 662.62C419.218 662.612 419.041 662.552 418.892 662.447C418.742 662.341 418.627 662.194 418.559 662.024C418.491 661.854 418.473 661.668 418.509 661.488C418.544 661.309 418.631 661.143 418.758 661.012C422.714 656.605 431.173 654.065 438.056 655.255C438.177 655.274 438.293 655.317 438.397 655.383C438.501 655.448 438.591 655.533 438.661 655.633C438.732 655.734 438.782 655.848 438.807 655.968C438.833 656.088 438.834 656.212 438.811 656.332C438.792 656.454 438.748 656.57 438.684 656.675C438.619 656.78 438.534 656.871 438.434 656.943C438.333 657.014 438.22 657.066 438.1 657.093C437.98 657.121 437.855 657.125 437.734 657.104C431.526 656.043 423.647 658.358 420.141 662.266C420.054 662.378 419.941 662.469 419.813 662.53C419.684 662.592 419.544 662.622 419.401 662.62Z" fill="#F0F0F0"/>
<path d="M320.871 704.254C319.697 713.227 317.88 719.097 314.294 724.163C310.708 729.228 304.645 730.45 298.566 728.456C292.487 726.462 285.042 721.767 283.852 713.871C282.662 705.975 282.019 700.571 283.997 692.306L320.871 704.254Z" fill="#263238"/>
<path d="M299.885 637.147C297.344 637.147 295.736 649.208 293.453 661.269C290.976 674.134 286.715 679.232 284.544 689.781C282.083 701.842 283.707 707.47 287.438 715.077C291.169 722.683 305.755 731.045 313.94 721.043C320.63 712.89 321.563 703.353 321.884 691.196C322.307 680.903 323.316 670.643 324.908 660.465C326.049 651.395 328.735 642.357 326.612 641.167C326.355 642.486 326.065 644.174 325.792 645.477C325.59 647.124 325.201 648.742 324.634 650.301C324.329 650.961 323.718 651.636 323.557 650.527C323.494 649.766 323.554 649.001 323.734 648.259C324.329 644.93 322.672 644.528 321.772 644.207C317.965 643.168 314.106 642.336 310.209 641.714C308.296 641.441 301.686 640.669 300.737 641.714C300.092 642.758 299.716 643.946 299.644 645.172C299.29 646.973 298.776 648.291 298.759 647.712C298.759 646.394 299.242 643.001 299.322 642.18C299.403 641.36 299.628 640.331 299.692 639.543C299.757 638.755 299.757 637.919 299.885 637.147Z" fill="#37474F"/>
<path d="M283.305 696.744C282.376 703.216 283.56 709.815 286.682 715.559C290.413 723.23 306.205 731.64 314.39 721.638C318.475 716.669 319.906 710.542 320.823 704.254C316.995 695.811 290.831 690.328 283.305 696.744Z" fill="#FAFAFA"/>
<path d="M316.336 690.617C316.23 690.602 316.126 690.57 316.031 690.521C315.934 690.521 304.629 684.812 293.099 686.613C292.853 686.651 292.603 686.591 292.402 686.444C292.202 686.298 292.068 686.078 292.029 685.833C291.991 685.588 292.052 685.337 292.198 685.137C292.344 684.936 292.564 684.802 292.809 684.763C304.999 682.866 316.529 688.655 316.931 688.88C317.148 689.005 317.306 689.21 317.372 689.451C317.439 689.692 317.407 689.949 317.285 690.167C317.194 690.332 317.053 690.464 316.883 690.545C316.713 690.625 316.521 690.651 316.336 690.617Z" fill="#F0F0F0"/>
<path d="M294.305 677.591C294.129 677.558 293.966 677.475 293.835 677.353C293.704 677.23 293.611 677.073 293.565 676.9C293.506 676.659 293.544 676.405 293.67 676.191C293.796 675.978 294.001 675.823 294.241 675.758C305.803 672.751 317.912 679.393 318.363 679.666C318.467 679.73 318.558 679.814 318.63 679.914C318.703 680.013 318.754 680.126 318.783 680.246C318.811 680.365 318.816 680.489 318.796 680.611C318.776 680.732 318.733 680.848 318.668 680.952C318.536 681.161 318.327 681.309 318.087 681.366C317.847 681.423 317.594 681.384 317.382 681.258C317.269 681.258 305.465 674.826 294.707 677.575C294.575 677.605 294.439 677.611 294.305 677.591Z" fill="#F0F0F0"/>
<path d="M295.318 669.052C295.145 669.017 294.985 668.935 294.855 668.816C294.725 668.697 294.629 668.546 294.578 668.377C294.514 668.138 294.548 667.884 294.671 667.67C294.795 667.455 294.999 667.299 295.237 667.235C307.958 663.665 319.359 670.805 319.826 671.095C320.025 671.24 320.16 671.457 320.202 671.7C320.244 671.943 320.19 672.193 320.051 672.397C319.982 672.499 319.893 672.587 319.789 672.654C319.685 672.721 319.569 672.766 319.447 672.787C319.326 672.808 319.201 672.804 319.081 672.776C318.961 672.748 318.848 672.695 318.748 672.622C318.652 672.622 307.588 665.723 295.736 669.036C295.598 669.066 295.457 669.071 295.318 669.052Z" fill="#F0F0F0"/>
<path d="M296.54 660.69C296.368 660.662 296.209 660.584 296.081 660.467C295.952 660.35 295.86 660.199 295.816 660.031C295.779 659.914 295.766 659.79 295.778 659.668C295.79 659.546 295.826 659.427 295.885 659.319C295.943 659.211 296.023 659.116 296.119 659.039C296.215 658.963 296.325 658.906 296.443 658.873C308.392 655.351 320.726 662.7 321.176 663.022C321.39 663.16 321.539 663.378 321.592 663.627C321.645 663.876 321.596 664.135 321.458 664.349C321.319 664.562 321.101 664.711 320.853 664.764C320.604 664.817 320.344 664.769 320.131 664.63C320.035 664.63 308.07 657.458 296.974 660.738C296.828 660.755 296.679 660.738 296.54 660.69Z" fill="#EBEBEB"/>
<path d="M345.733 280.979C329.957 304.008 328.896 316.873 324.956 378.287C320.694 444.59 320.952 457.568 320.131 464.965C319.311 472.362 314.23 485.26 307.797 521.442C301.365 557.625 302.748 601.398 302.748 601.398C302.748 601.398 304.935 607.445 318.829 609.696C331.597 611.771 338.319 607.413 338.319 607.413C338.319 607.413 361.058 537.685 367.507 516.071C373.955 494.458 393.333 423.283 393.333 423.283L397.434 482.51C397.434 482.51 392.063 502.338 393.687 534.597C395.311 566.856 399.878 600.096 399.878 600.096C406.063 602.758 412.664 604.325 419.385 604.727C430.401 605.354 437.074 601.511 437.074 601.511C437.074 601.511 454.844 507.162 457.449 470.931C460.054 434.7 463.496 343.889 455.954 289.406L345.733 280.979Z" fill="#37474F"/>
<path d="M409.72 354.423L393.237 423.282L397.434 482.51L398.126 422.913L412.486 366.467C421.379 365.004 442.011 355.95 448.556 341.381C434.083 354.423 409.72 354.423 409.72 354.423ZM339.349 537.893C334.599 556.516 330.091 575.202 325.824 593.953C331.549 575.588 337.027 557.164 342.259 538.681C347.566 520.188 352.616 501.695 357.665 483.105C362.715 464.515 366.172 445.507 369.404 426.531C372.637 407.555 375.419 388.547 377.944 369.491C373.939 388.306 370.192 407.153 366.445 425.984C362.699 444.815 358.759 463.598 353.918 482.124C349.078 500.649 344.044 519.255 339.349 537.893ZM445.292 449.688C445.083 458.018 444.97 466.412 444.247 474.614C443.523 482.815 442.365 491.194 441.352 499.475L438.296 524.321C436.238 540.927 434.378 557.545 432.716 574.173C435.868 557.706 438.725 541.201 441.288 524.659C443.861 508.095 446.321 491.596 448.106 474.807C449.264 457.905 449.023 441.197 448.733 424.424C448.444 407.651 447.559 390.927 446.176 374.235L445.71 424.617C445.581 432.963 445.517 441.326 445.292 449.688Z" fill="#263238"/>
<path d="M516.483 164.631C517.341 161.865 517.849 159.001 517.995 156.108C518.268 145.607 522.192 138.033 527.515 129.22C528.432 127.709 529.364 126.213 530.297 124.718C530.772 124.011 531.202 123.275 531.584 122.514C531.921 121.775 532.227 121.164 533.192 121.308C533.902 121.467 534.531 121.879 534.961 122.466C535.659 123.441 536.145 124.552 536.389 125.726C536.633 126.9 536.628 128.112 536.376 129.285C535.861 131.62 535.145 133.907 534.237 136.119C533.642 137.856 535.636 137.213 536.52 136.779C540.927 134.64 545.092 128.095 547.777 124.058C549.264 121.259 550.951 118.572 552.827 116.018C554.079 114.506 555.762 113.412 557.651 112.882C558.938 112.576 560.24 112.721 560.449 114.377C560.477 115.413 560.268 116.442 559.838 117.385C559.131 119.395 558.552 121.212 559.533 123.238C560.292 124.442 560.892 125.739 561.318 127.098C561.655 128.883 560.948 130.7 561.109 132.517C561.491 134.008 561.963 135.474 562.524 136.907C562.542 138.775 562.169 140.627 561.43 142.343C560.278 145.984 558.657 149.46 556.606 152.683C553.424 157.53 549.743 162.031 545.622 166.111C543.206 168.257 541.267 170.887 539.93 173.83C538.927 176.912 538.226 180.084 537.839 183.302C537.244 187.306 536.73 191.342 536.118 195.346C529.686 238.766 525.392 242.883 520.198 247.964C516.531 251.55 509.97 251.422 493.616 242.834C470.748 230.806 438.602 213.116 438.602 213.116L422.987 161.399C422.987 161.399 443.201 163.506 451.853 169.52C467.275 180.23 501.302 205.365 501.302 205.365C501.302 205.365 514.923 170.292 516.483 164.631Z" fill="#C8856A"/>
<path d="M533.915 143.324C534.784 149.209 532.87 157.443 530.876 160.595C530.876 160.595 533.947 159.55 535.7 152.426C536.191 150.881 536.285 149.237 535.973 147.646C535.661 146.055 534.954 144.569 533.915 143.324Z" fill="#AF6152"/>
<path d="M501.302 205.414L497.411 202.567C493.476 210.022 492.56 218.706 494.854 226.818C495.775 219.369 497.956 212.131 501.302 205.414Z" fill="#AF6152"/>
<path d="M406.343 159.807L369.855 160.74C360.935 162.118 352.099 163.986 343.385 166.336C337.515 168.073 340.587 190.056 341.15 211.766C342.372 257.629 334.958 286.56 334.958 286.56C359.209 314.589 448.782 306.163 461.502 290.869C461.502 290.869 461.791 270.671 461.019 242.626C460.489 223.714 460.135 203.741 453.879 192.388C441.014 169.118 422.987 161.447 422.987 161.447L406.343 159.807Z" fill="#FF9446"/>
<g opacity="0.5">
<path d="M406.343 159.807L369.855 160.74C360.935 162.118 352.099 163.986 343.385 166.336C337.515 168.073 340.587 190.056 341.15 211.766C342.372 257.629 334.958 286.56 334.958 286.56C359.209 314.589 448.782 306.163 461.502 290.869C461.502 290.869 461.791 270.671 461.019 242.626C460.489 223.714 460.135 203.741 453.879 192.388C441.014 169.118 422.987 161.447 422.987 161.447L406.343 159.807Z" fill="white"/>
</g>
<path d="M355.687 73.531C347.389 75.9111 343.497 78.87 341.68 80.8802C338.03 84.8844 336.438 91.4777 336.373 96.9614C336.373 101.529 337.499 105.388 335.264 109.376C333.942 111.687 332.222 113.745 330.182 115.455C329.083 116.4 328.204 117.573 327.604 118.892C327.004 120.211 326.699 121.644 326.708 123.093C326.924 125.769 328.06 128.287 329.925 130.217C331.79 132.244 333.543 135.042 332.626 137.583C332.38 138.176 332.008 138.709 331.535 139.145C331.062 139.581 330.501 139.908 329.889 140.106C329.278 140.303 328.63 140.365 327.992 140.287C327.354 140.21 326.741 139.995 326.194 139.657C328.018 141.377 330.447 142.306 332.953 142.243C335.459 142.18 337.839 141.129 339.573 139.319C338.935 141.121 338.903 143.082 339.484 144.902C340.065 146.723 341.226 148.304 342.79 149.402C346.013 151.524 349.92 152.346 353.725 151.702C356.996 151.136 360.361 151.579 363.374 152.972C365.207 153.873 366.896 155.047 368.713 155.98C372.124 157.705 375.926 158.515 379.744 158.327C381.69 158.231 383.604 157.877 385.55 157.813C389.393 157.684 393.156 158.681 396.984 158.794C400.811 158.906 403.271 155.915 406.97 155.481C410.669 155.047 414.046 155.481 417.584 155.304C421.082 155.154 424.498 154.189 427.558 152.486C430.619 150.784 433.24 148.391 435.214 145.498C437.187 142.605 438.458 139.292 438.927 135.821C439.395 132.35 439.047 128.818 437.91 125.506C439.65 125.418 441.384 125.776 442.946 126.548C444.508 127.319 445.847 128.477 446.835 129.912C446.902 128.42 446.649 126.931 446.095 125.545C445.54 124.158 444.696 122.906 443.619 121.871C440.564 118.977 435.739 117.867 433.874 114.104C433.327 112.697 433.102 111.186 433.213 109.681C433.324 108.176 433.77 106.715 434.517 105.404C435.82 102.686 437.733 100.274 438.907 97.5082C446.224 80.8641 430.674 62.2098 416.265 55.7934C396.051 46.8683 358.614 48.9267 355.687 73.531Z" fill="#263238"/>
<path d="M421.749 72.4375C421.749 72.4375 431.864 82.2953 433.826 112.641C435.434 137.888 431.51 144.24 424.917 147.875C420.977 150.03 414.4 151.091 406.568 151.091L407.597 161.946C407.597 161.946 429.789 182.096 412.229 185.424C402.886 187.209 393.414 183.028 385.019 178.397C379.334 174.933 374.484 170.254 370.82 164.696L368.568 137.985C366.855 139.346 364.708 140.044 362.522 139.949C360.336 139.855 358.257 138.975 356.668 137.47C350.348 131.874 348.193 122.997 352.262 117.192C356.33 111.386 363.519 112.367 368.23 118.8C368.23 118.8 375.403 120.858 373.939 111.595C373.939 111.595 389.86 103.651 381.192 78.8218C386.788 74.5281 397.466 83.4853 407.533 83.1798C412.695 83.019 418.066 73.4024 421.749 72.4375Z" fill="#C8856A"/>
<path d="M399.653 126.165L411.376 129.735C411.178 130.521 410.823 131.259 410.332 131.904C409.841 132.549 409.225 133.088 408.52 133.49C407.816 133.891 407.038 134.145 406.232 134.238C405.427 134.33 404.611 134.259 403.834 134.029C402.257 133.511 400.942 132.403 400.163 130.938C399.383 129.472 399.201 127.762 399.653 126.165Z" fill="#AF6152"/>
<path d="M400.956 129.204C401.636 129.133 402.324 129.197 402.979 129.392C403.635 129.588 404.245 129.91 404.776 130.342C405.306 130.774 405.746 131.306 406.07 131.909C406.394 132.511 406.596 133.171 406.665 133.852C406.673 133.954 406.673 134.056 406.665 134.157C405.725 134.346 404.753 134.302 403.834 134.029C402.81 133.701 401.887 133.117 401.152 132.331C400.418 131.546 399.896 130.586 399.637 129.542C400.06 129.372 400.503 129.258 400.956 129.204Z" fill="#F28F8F"/>
<path d="M426.042 96.5594L418.355 94.9513C418.421 94.4421 418.59 93.9516 418.852 93.5101C419.114 93.0686 419.464 92.6854 419.88 92.3841C420.295 92.0828 420.768 91.8698 421.27 91.7582C421.771 91.6466 422.29 91.6387 422.794 91.7351C423.864 91.9451 424.807 92.571 425.416 93.4755C426.025 94.3799 426.25 95.489 426.042 96.5594Z" fill="#263238"/>
<path d="M394.797 95.9806L388.043 99.9366C387.764 99.5095 387.575 99.0302 387.487 98.5279C387.399 98.0255 387.414 97.5105 387.532 97.0142C387.649 96.5179 387.866 96.0506 388.169 95.6407C388.473 95.2308 388.856 94.8869 389.297 94.6298C390.211 94.1045 391.293 93.9518 392.317 94.2033C393.342 94.4549 394.23 95.0914 394.797 95.9806Z" fill="#263238"/>
<path d="M404.799 101.754L409.511 122.064L419.642 115.76L404.799 101.754Z" fill="#AF6152"/>
<path d="M406.568 151.075C388.67 150.319 379.841 145.913 376.191 139.818C376.191 139.818 378.201 147.859 384.151 150.721C394.443 155.546 406.987 155.433 406.987 155.433L406.568 151.075Z" fill="#AF6152"/>
<path d="M417.23 103.844C417.251 104.776 417.63 105.664 418.289 106.323C418.948 106.982 419.836 107.362 420.768 107.382C421.222 107.395 421.673 107.317 422.096 107.152C422.519 106.987 422.905 106.739 423.23 106.423C423.555 106.107 423.814 105.728 423.99 105.31C424.167 104.892 424.258 104.443 424.258 103.989C424.245 103.055 423.868 102.162 423.208 101.501C422.547 100.84 421.654 100.464 420.72 100.451C420.265 100.436 419.813 100.513 419.389 100.677C418.965 100.84 418.579 101.088 418.253 101.405C417.927 101.722 417.668 102.101 417.493 102.52C417.317 102.939 417.228 103.39 417.23 103.844Z" fill="#263238"/>
<path d="M391.661 105.983C391.677 106.914 392.053 107.802 392.709 108.461C393.366 109.121 394.252 109.5 395.182 109.521C395.63 109.536 396.076 109.462 396.495 109.303C396.913 109.144 397.296 108.903 397.621 108.595C397.945 108.287 398.206 107.917 398.386 107.507C398.567 107.098 398.664 106.656 398.672 106.208C398.66 105.277 398.285 104.386 397.628 103.726C396.97 103.066 396.082 102.687 395.15 102.67C394.702 102.653 394.255 102.726 393.836 102.884C393.416 103.042 393.033 103.283 392.707 103.591C392.382 103.9 392.122 104.271 391.942 104.681C391.762 105.092 391.667 105.535 391.661 105.983Z" fill="#263238"/>
<path d="M473.257 240.84C463.608 235.276 450.357 236.016 435.675 244.539C406.327 261.489 382.607 302.705 382.607 336.604C382.607 353.618 388.605 365.55 398.302 371.05L414.56 380.442C424.209 385.99 437.444 385.186 452.11 376.727C481.474 359.777 505.178 318.561 505.178 284.71C505.178 267.792 499.244 255.908 489.66 250.344L473.257 240.84Z" fill="#FF9446"/>
<path d="M452.03 253.979C481.394 237.029 505.178 250.762 505.178 284.662C505.178 318.561 481.475 359.777 452.03 376.727C422.585 393.677 398.881 379.943 398.881 346.044C398.881 312.145 422.682 270.928 452.03 253.979Z" fill="#FF9446"/>
<path opacity="0.3" d="M452.03 253.979C481.394 237.029 505.178 250.762 505.178 284.662C505.178 318.561 481.475 359.777 452.03 376.727C422.585 393.677 398.881 379.943 398.881 346.044C398.881 312.145 422.682 270.928 452.03 253.979Z" fill="white"/>
<path d="M443.86 277.586L460.215 268.146V353.12L443.86 362.559V277.586Z" fill="#FAFAFA"/>
<path d="M488.824 284.662V303.557L415.236 346.044V327.149L488.824 284.662Z" fill="#FAFAFA"/>
<path d="M409.897 267.969C414.448 262.55 415.783 261.826 421.363 260.685C426.943 259.543 429.5 258.964 431.719 258.707C435.604 258.511 439.499 258.797 443.314 259.559C446.192 260.749 442.815 265.332 438.57 265.991C434.324 266.651 428.712 266.924 428.712 266.924L409.897 267.969Z" fill="#AF6152"/>
<path d="M343.272 166.336C328.14 170.967 317.188 176.564 314.599 193.449C312.01 210.334 304.307 260.315 304.243 273.405C304.179 286.495 305.851 289.615 317.301 293.667C326.805 297.028 364.789 301.869 382.205 303.525C384.534 303.75 386.883 303.432 389.068 302.595C391.253 301.758 393.214 300.425 394.797 298.701L408.096 284.051L341.937 263.37L349.351 220.208C349.351 220.208 356.169 178.574 343.272 166.336Z" fill="#C8856A"/>
<path d="M389.007 292.268C390.808 291.609 390.165 283.745 393.108 282.121C396.051 280.497 396.566 280.867 397.611 277.602C398.656 274.338 400.747 272.778 402.676 272.633C404.606 272.488 403.304 269.047 406.729 267.567C411.203 266.211 415.815 265.359 420.478 265.027C423.775 264.802 431.88 268.243 435.418 269.98C438.956 271.716 437.122 274.209 435.289 275.576C433.456 276.943 429.403 276.669 429.403 276.669C429.403 276.669 433.118 279.001 432.62 280.465C431.912 282.378 428.841 284.469 423.871 283.247C427.249 284.855 427.249 286.929 424.901 288.377C423.1 289.47 420.253 289.567 416.78 288.907C412.406 288.087 406.6 287.154 403.561 289.036L400.763 292.091L389.007 292.268Z" fill="#C8856A"/>
<path d="M389.007 292.268C389.811 292.043 390.117 291.126 390.455 290.467C390.792 289.808 390.953 289.004 391.146 288.296C391.457 286.9 391.887 285.533 392.433 284.211C392.635 283.661 392.992 283.18 393.462 282.828L395.375 281.671C396.119 281.267 396.721 280.644 397.096 279.886C397.38 279.16 397.553 278.395 397.611 277.618C397.267 278.271 396.864 278.89 396.405 279.468C395.976 279.966 395.421 280.339 394.797 280.545C394.121 280.818 393.43 281.124 392.722 281.478C391.936 281.953 391.318 282.661 390.953 283.504C390.366 284.956 390.013 286.492 389.908 288.055L389.683 290.274C389.702 290.998 389.463 291.705 389.007 292.268Z" fill="#AF6152"/>
<path d="M429.404 276.669C427.522 275.624 425.657 274.611 423.727 273.694C421.792 272.693 419.768 271.874 417.68 271.25C415.484 271.043 413.271 271.097 411.087 271.411C408.953 271.649 406.837 272.025 404.751 272.537C406.89 272.665 409.029 272.713 411.183 272.697H414.4C415.399 272.669 416.399 272.718 417.391 272.842C419.272 273.324 421.299 274.193 423.293 274.868C425.29 275.597 427.331 276.199 429.404 276.669Z" fill="#AF6152"/>
<path d="M400.425 280.416C402.452 280.416 404.51 280.079 406.424 279.886C408.341 279.776 410.262 280.005 412.1 280.561C415.944 281.526 419.819 282.62 423.84 283.247C420.229 281.409 416.427 279.974 412.502 278.969C410.471 278.374 408.33 278.258 406.247 278.631C404.272 279.107 402.328 279.703 400.425 280.416Z" fill="#AF6152"/>
</svg>
