<svg width="759" height="757" fill="none" xmlns="http://www.w3.org/2000/svg"><path opacity=".2" d="M32.566 264.4a443.829 443.829 0 0 0-17.818 71.979l366.798 112.826L32.566 264.4ZM339.075.265l42.471 448.94L424 .265h-84.925ZM177.539 63.867l204.007 385.338L250.403 22.811a358.892 358.892 0 0 0-72.864 41.056ZM66.579 188.673l314.983 260.516-269.168-325.291a411.78 411.78 0 0 0-45.816 64.775ZM730.54 264.4 381.578 449.205l366.781-112.826a445.473 445.473 0 0 0-17.834-71.979h.016ZM381.578 449.205h370.769a466.955 466.955 0 0 0 1.705-35.25l-372.474 35.25Zm-370.818 0h370.786L9.023 413.955c.13 11.89.697 23.64 1.705 35.25h.032Zm639.922-325.307L381.546 449.205l314.967-260.516a411.795 411.795 0 0 0-45.831-64.791ZM512.672 22.811 381.546 449.205 585.601 63.867a359.457 359.457 0 0 0-72.929-41.056Z" fill="#FF9446"/><path d="M652.402 606.882c53.742 0 97.308-25.156 97.308-56.188 0-31.031-43.566-56.187-97.308-56.187-53.741 0-97.307 25.156-97.307 56.187 0 31.032 43.566 56.188 97.307 56.188ZM375.242 756.567c72.153 0 130.644-33.768 130.644-75.422 0-41.653-58.491-75.421-130.644-75.421s-130.644 33.768-130.644 75.421c0 41.654 58.491 75.422 130.644 75.422ZM173.551 607.59c95.661 0 173.211-44.776 173.211-100.01 0-55.233-77.55-100.009-173.211-100.009C77.889 407.571.339 452.347.339 507.58c0 55.234 77.55 100.01 173.212 100.01Z" fill="#E0E0E0"/><path d="m610.495 594.886-47.906 27.659-109.498-63.215 47.906-27.66 109.498 63.216Z" fill="#E0E0E0"/><path d="m555.448 297.141 194.037.241-19.893 255.001h-.177c-.852 9.279-8.153 18.445-22.047 25.537-29.638 15.116-78.525 15.116-109.176 0-14.376-7.092-21.919-16.258-22.819-25.537h-.177l-19.748-255.242Z" fill="#455A64"/><path d="M546.314 297.736v-40.364h21.999a94.593 94.593 0 0 1 9.649-5.275c42.133-20.069 109.352-20.069 150.022 0a89.793 89.793 0 0 1 9.182 5.275h21.324v40.364c0 13.138-10.179 26.293-30.554 36.312-40.734 20.069-107.89 20.069-150.022 0-21.067-10.019-31.6-23.174-31.6-36.312Z" fill="#E6E6E6"/><path d="M577.962 221.061c42.133-20.054 109.353-20.054 150.022 0 40.67 20.053 40.718 52.585 0 72.639-40.718 20.053-107.889 20.069-150.022 0-42.133-20.07-42.181-52.57 0-72.639Z" fill="#F5F5F5"/><path d="M570.323 489.489c65.853 5.628 142.046-37.389 171.716-97.34l2.814-36.183c-27.692 63.81-108.323 110.253-176.894 103.145l2.364 30.378Z" fill="#FF9446"/><path d="M571.964 510.619c64.084 4.68 137.479-36.231 168.162-93.705l1.913-24.765c-29.67 59.951-105.863 102.92-171.715 97.339l1.64 21.131Z" fill="#FF9446"/><path opacity=".3" d="M571.964 510.619c64.084 4.68 137.479-36.231 168.162-93.705l1.913-24.765c-29.67 59.951-105.863 102.92-171.715 97.339l1.64 21.131Z" fill="#fff"/><path d="M573.234 527.119c62.717 3.972 134.118-35.379 165.396-91.133l1.496-19.072c-30.683 57.474-104.078 98.385-168.162 93.705l1.27 16.5Z" fill="#FF9446"/><path opacity=".6" d="M573.234 527.119c62.717 3.972 134.118-35.379 165.396-91.133l1.496-19.072c-30.683 57.474-104.078 98.385-168.162 93.705l1.27 16.5Z" fill="#fff"/><path d="M642.094 252.355a26.96 26.96 0 0 1 20.745 0c5.628 2.782 5.628 7.284 0 10.05a26.96 26.96 0 0 1-20.745 0c-5.821-2.766-5.821-7.268 0-10.05Z" fill="#37474F"/><path d="m630.709 154.452-29.107 21.87 8.121 14.2 27.74-20.697c3.216-2.428 7.413.306 7.445 4.825l.804 82.722h13.026v-84.539c-.064-17.063-15.888-27.435-28.029-18.381Z" fill="#37474F"/><path d="M609.015 180.873c2.187 3.94 2.509 8.282.708 9.649-1.802 1.367-5.034-.643-7.221-4.583-2.187-3.94-2.509-8.282-.707-9.649 1.801-1.367 5.113.676 7.22 4.583Z" fill="#263238"/><path d="M487.264 403.229c0-44.674 27.177-65.21 60.69-45.864 33.514 19.346 60.675 71.256 60.675 115.93l-15.792 116.058-89.782-51.83-15.791-134.294Z" fill="#FF9446"/><path opacity=".15" d="M487.264 403.229c0-44.674 27.177-65.21 60.69-45.864 33.514 19.346 60.675 71.256 60.675 115.93l-15.792 116.058-89.782-51.83-15.791-134.294Z" fill="#fff"/><path d="m503.056 537.523-36.987 21.34-15.776-134.278 36.987-21.356 15.776 134.294Z" fill="#FF9446"/><path d="m487.955 519.947 8.587-140.261-14.65-3.876-6.947 137.608 13.01 6.529Z" fill="#FFBDA7"/><path d="m496.542 379.686 9.73-1.721-6.288 127.959-12.029 14.023 8.587-140.261Z" fill="#F0997A"/><path d="m506.272 377.965-18.317-8.362-6.062 6.207 14.65 3.876 9.729-1.721Z" fill="#FFBDA7"/><path opacity=".3" d="m506.272 377.965-18.317-8.362-6.062 6.207 14.65 3.876 9.729-1.721Z" fill="#fff"/><path d="m558.6 562.095 40.043-134.696-13.412-7.092-37.839 132.477 11.208 9.311Z" fill="#FFBDA7"/><path d="m598.643 427.399 9.858.531-35.025 123.214-14.875 10.952 40.042-134.697Z" fill="#F0997A"/><path d="m608.501 427.93-15.953-12.286-7.317 4.663 13.412 7.092 9.858.531Z" fill="#FFBDA7"/><path opacity=".3" d="m608.501 427.93-15.953-12.286-7.317 4.663 13.412 7.092 9.858.531Z" fill="#fff"/><path d="m512.962 516.907 40.074-134.68-13.396-7.092-37.871 132.477 11.193 9.295Z" fill="#FFBDA7"/><path d="m553.036 382.227 9.858.53-35.041 123.199-14.892 10.951 40.075-134.68Z" fill="#F0997A"/><path d="m562.894 382.758-15.953-12.287-7.3 4.664 13.395 7.092 9.858.531Z" fill="#FFBDA7"/><path opacity=".3" d="m562.894 382.758-15.953-12.287-7.3 4.664 13.395 7.092 9.858.531Z" fill="#fff"/><path d="m513.267 505.393 8.604-140.261-14.667-6.336-6.947 140.068 13.01 6.529Z" fill="#FFBDA7"/><path d="m521.871 365.132 9.713-5.033-6.288 131.271-12.029 14.023 8.604-140.261Z" fill="#F0997A"/><path d="m531.584 360.099-13.798-4.181-10.581 2.879 14.666 6.336 9.713-5.034Z" fill="#FFBDA7"/><path opacity=".3" d="m531.584 360.099-13.798-4.181-10.581 2.879 14.666 6.336 9.713-5.034Z" fill="#fff"/><path d="m476.972 541.817-5.404-140.422-13.958-4.181 9.681 138.749 9.681 5.854Z" fill="#FFBDA7"/><path d="M471.568 401.396 483.356 388l4.181 138.669-10.565 15.148-5.404-140.421Z" fill="#F0997A"/><path d="m483.356 388-16.242-1.721-9.504 10.936 13.958 4.181L483.356 388Z" fill="#FFBDA7"/><path opacity=".3" d="m483.356 388-16.242-1.721-9.504 10.936 13.958 4.181L483.356 388Z" fill="#fff"/><path d="m530.249 555.518 38.032-135.275-15.486-13.798-33.883 139.939 11.337 9.134Z" fill="#FFBDA7"/><path d="m568.281 420.243 15.342-9.134-38.66 133.233-14.714 11.176 38.032-135.275Z" fill="#F0997A"/><path d="m583.623 411.109-18.429-12.142-12.399 7.478 15.486 13.798 15.342-9.134Z" fill="#FFBDA7"/><path opacity=".3" d="m583.623 411.109-18.429-12.142-12.399 7.478 15.486 13.798 15.342-9.134Z" fill="#fff"/><path d="m526.695 558.638-32.597-136.69-14.601-3.683 38.482 138.733 8.716 1.64Z" fill="#FFBDA7"/><path d="m494.098 421.948 6.449-12.319 31.037 135.212-4.889 13.797-32.597-136.69Z" fill="#F0997A"/><path d="m500.547 409.629-13.846-3.94-7.204 12.576 14.601 3.683 6.449-12.319Z" fill="#FFBDA7"/><path opacity=".3" d="m500.547 409.629-13.846-3.94-7.204 12.576 14.601 3.683 6.449-12.319Z" fill="#fff"/><path d="m549.965 582.937 27.981-137.704-13.974-5.869-25.988 135.307 11.981 8.266Z" fill="#FFBDA7"/><path d="m577.946 445.233 9.874-.337-24.01 125.819-13.846 12.222 27.982-137.704Z" fill="#F0997A"/><path d="m587.82 444.895-16.982-10.822-6.867 5.29 13.975 5.87 9.874-.338Z" fill="#FFBDA7"/><path opacity=".3" d="m587.82 444.895-16.982-10.822-6.867 5.29 13.975 5.87 9.874-.338Z" fill="#fff"/><path d="m592.837 589.353-36.987 21.34 15.792-116.058 36.987-21.34-15.792 116.058Z" fill="#FF9446"/><path d="m466.069 558.863 89.781 51.83 15.792-116.058-121.349-70.05 15.776 134.278Z" fill="#FF9446"/><path opacity=".3" d="m466.069 558.863 89.781 51.83 15.792-116.058-121.349-70.05 15.776 134.278Z" fill="#fff"/><path d="M281.054 409.533c-59.179-34.157-155.103-34.157-214.282 0-29.526 17.046-44.224 39.367-44.24 61.72v28.705c-.08 22.401 14.618 44.818 44.24 61.913 59.179 34.172 155.103 34.172 214.282 0 29.525-17.046 44.224-39.367 44.24-61.704v-28.786c.032-22.401-14.666-44.77-44.24-61.848Z" fill="#FFBDA7"/><path d="M173.904 558.88c83.681 0 151.518-39.168 151.518-87.482 0-48.315-67.837-87.482-151.518-87.482-83.68 0-151.517 39.167-151.517 87.482 0 48.314 67.836 87.482 151.517 87.482Z" fill="#F0997A"/><path d="M281.054 373.559c-59.179-34.172-155.103-34.172-214.282 0-29.526 17.046-44.224 39.367-44.24 61.704v28.689c-.08 22.417 14.618 44.818 44.24 61.977 59.179 34.157 155.103 34.157 214.282 0 29.525-17.046 44.224-39.383 44.24-61.72v-28.785c.032-22.417-14.666-44.803-44.24-61.865Z" fill="#B16668"/><path d="M173.904 522.89c83.681 0 151.518-39.167 151.518-87.482s-67.837-87.482-151.518-87.482c-83.68 0-151.517 39.167-151.517 87.482s67.836 87.482 151.517 87.482Z" fill="#9A4A4D"/><path d="M281.311 403.229H66.578c-23.993 34.945-23.96 90.537-23.993 101.489-.032 10.951 1.319 17.834 19.169 13.926 17.85-3.908 65.837-13.492 112.183-13.492 46.346 0 94.348 9.568 112.182 13.492 17.835 3.924 19.169-3.023 19.137-13.926-.032-10.903-.016-66.544-23.945-101.489Z" fill="#F0F0F0"/><path d="M47.908 481.255c5.001 7.221 10.807 13.557 21.05 16.081 8.556 2.155 17.561 1.351 26.293 2.654 17.995 2.717 30.104 14.987 46.218 21.468a48.944 48.944 0 0 0 21.597 3.49 78.822 78.822 0 0 0 23.704-6.224c12.141-4.824 23.816-10.935 36.343-14.682 9.762-2.943 20.198-4.39 30.33-2.621 8.442 1.479 16.997 1.254 25.054-2.557 14.94-7.06 19.989-26.373 33.53-35.829 10.677-7.462 26.437-8.764 32.709-20.182 4.503-8.185 1.849-18.895-4.213-26.003-6.063-7.108-14.876-11.257-23.672-14.473-16.387-5.902-33.771-8.572-50.978-10.357-38.965-4.02-78.09-6.336-117.232-7.365-38.82-1.013-76.145-2.267-113.582 9.729-8.523 2.718-17.062 6.031-23.864 11.82-6.803 5.789-11.692 14.473-10.84 23.398.789 8.378 8.46 15.084 15.085 19.587 4.583 3.104 9.842 5.162 14.232 8.539 8.234 6.465 12.784 15.551 18.236 23.527Z" fill="#FF9446"/><path d="m330.311 389.512-.338-1.206c-13.83-52.908-78.46-92.741-155.988-92.741S31.65 335.398 17.82 388.306l-.322 1.206a52.73 52.73 0 0 0-2.38 17.93c.676 23.029 16.162 45.816 46.491 63.2 62.074 35.861 162.678 35.861 224.768 0 30.216-17.384 45.815-40.204 46.475-63.2a52.729 52.729 0 0 0-2.541-17.93Z" fill="#FFBDA7"/><path d="M298.325 443.4c-39.608 30.201-140.904 40.203-204.344 8.153-63.441-32.05-66.24-86.195-46.057-111.346-14.843 13.862-25.44 30.2-30.12 48.099l-.322 1.206a52.727 52.727 0 0 0-2.364 17.93c.675 23.029 16.162 45.816 46.491 63.2 62.074 35.861 162.678 35.861 224.768 0 30.216-17.384 45.815-40.204 46.474-63.2a52.703 52.703 0 0 0-2.54-17.93s2.508 27.595-31.986 53.888Z" fill="#F0997A"/><g opacity=".7" fill="#fff"><path d="M297.634 423.411a6.094 6.094 0 1 1 9.872 7.153 6.094 6.094 0 0 1-9.872-7.153ZM306.752 368.558a6.091 6.091 0 0 1 6.352-2.338 6.087 6.087 0 0 1 4.594 4.971 6.093 6.093 0 0 1-11.214 4.142 6.106 6.106 0 0 1-.731-4.613c.188-.78.527-1.514.999-2.162ZM248.296 449.012a6.091 6.091 0 0 1 6.353-2.338 6.106 6.106 0 0 1 3.051 1.789 6.098 6.098 0 0 1-4.71 10.227 6.095 6.095 0 0 1-4.694-9.678ZM257.414 394.175a6.101 6.101 0 0 1 6.353-2.338 6.106 6.106 0 0 1 3.051 1.789 6.09 6.09 0 0 1-1.289 9.331 6.095 6.095 0 0 1-8.115-8.782ZM217.179 364.955a6.095 6.095 0 1 1 9.868 7.154 6.095 6.095 0 0 1-9.868-7.154ZM266.532 339.386a6.097 6.097 0 0 1 10.951 2.64 6.092 6.092 0 0 1-2.847 6.148 6.095 6.095 0 0 1-8.104-8.788ZM226.297 310.118a6.107 6.107 0 0 1 2.82-2.139 6.098 6.098 0 0 1 7.651 8.267 6.099 6.099 0 0 1-5.776 3.54 6.102 6.102 0 0 1-3.344-1.161 6.07 6.07 0 0 1-2.442-3.973 6.086 6.086 0 0 1 1.091-4.534ZM198.959 474.63a6.091 6.091 0 0 1 6.352-2.338 6.087 6.087 0 0 1 4.594 4.971 6.093 6.093 0 0 1-11.214 4.142 6.106 6.106 0 0 1-.731-4.613c.188-.78.527-1.514.999-2.162ZM158.724 445.41a6.09 6.09 0 0 1 6.353-2.35 6.092 6.092 0 0 1 4.117 8.477 6.096 6.096 0 1 1-10.47-6.127ZM208.093 419.793a6.097 6.097 0 0 1 9.41-.547 6.094 6.094 0 1 1-9.41.547ZM167.89 390.573a6.095 6.095 0 1 1 1.351 8.507 6.07 6.07 0 0 1-2.442-3.973 6.075 6.075 0 0 1 1.091-4.534ZM109.387 471.027a6.097 6.097 0 0 1 9.408-.562 6.094 6.094 0 1 1-9.408.562ZM176.96 335.72a6.091 6.091 0 0 1 6.353-2.338 6.091 6.091 0 0 1 4.594 4.971 6.1 6.1 0 0 1-2.832 6.149 6.097 6.097 0 0 1-6.764-.259 6.07 6.07 0 0 1-2.45-3.98 6.087 6.087 0 0 1 1.099-4.543ZM136.725 306.5a6.09 6.09 0 0 1 6.353-2.35 6.096 6.096 0 0 1 4.117 8.478 6.099 6.099 0 0 1-5.776 3.539 6.093 6.093 0 0 1-3.344-1.16 6.11 6.11 0 0 1-1.35-8.507ZM118.504 416.174a6.091 6.091 0 0 1 6.353-2.338 6.1 6.1 0 0 1 4.594 4.972 6.098 6.098 0 0 1-6.253 7.044 6.095 6.095 0 0 1-4.694-9.678ZM78.27 386.955a6.095 6.095 0 1 1 1.35 8.507 6.114 6.114 0 0 1-1.35-8.507ZM127.687 361.337a6.097 6.097 0 0 1 10.95 2.64 6.092 6.092 0 0 1-2.847 6.148 6.092 6.092 0 0 1-6.768-.281 6.092 6.092 0 0 1-1.335-8.507ZM87.387 332.117a6.101 6.101 0 0 1 6.353-2.35 6.098 6.098 0 0 1 4.117 8.478 6.094 6.094 0 0 1-9.119 2.379 6.073 6.073 0 0 1-2.349-6.348 6.086 6.086 0 0 1 .998-2.159ZM69.167 441.792a6.095 6.095 0 1 1 9.869 7.154 6.095 6.095 0 0 1-9.869-7.154ZM28.932 412.572a6.094 6.094 0 1 1 9.869 7.154 6.094 6.094 0 0 1-9.869-7.154ZM38.05 357.719a6.094 6.094 0 1 1 9.853 7.174 6.094 6.094 0 0 1-9.853-7.174Z"/></g><path d="M297.135 159.566c-9.825 30.473-36.472 54.081-134.423 70.13l5.548 29.509-34.478-26.293c-.579.081-58.922 5.548-86.839-15.711-27.338-20.906-33.77-55.336-21.983-79.667C47.474 91.268 111.976 81.25 168.775 74.19c60.819-7.574 98.273.466 118.503 25.28 19.957 24.427 11.723 54.338 9.857 60.096Z" fill="#fff"/><path d="M168.228 260.813a1.606 1.606 0 0 1-.965-.337l-33.964-25.907c-6.738.579-60.513 4.326-87.273-16.082-29.766-22.69-33.77-58.246-22.513-81.644 22.08-45.35 81.21-56.284 145.053-64.245 61.237-7.622 99.366.595 119.966 25.875 20.6 25.28 11.996 55.722 10.083 61.591-9.955 30.892-36.617 54.789-134.102 70.967l5.291 27.949a1.606 1.606 0 0 1-.724 1.608 1.605 1.605 0 0 1-.852.225Zm-34.462-29.509c.357.001.706.114.997.322l31.117 23.752-4.824-25.393a1.596 1.596 0 0 1 .302-1.27 1.603 1.603 0 0 1 1.145-.627c97.099-15.921 123.407-39.11 133.056-69.021 1.817-5.612 9.89-34.784-9.52-58.584-19.844-24.33-57.04-32.162-117.071-24.7-62.878 7.911-121.14 18.541-142.512 62.443-10.534 21.677-6.562 56.284 21.516 77.688 27.483 20.906 85.054 15.471 85.617 15.406l.177-.016Z" fill="#FF9446"/><path d="M559.597 704.592a3.872 3.872 0 0 1 3.506 0l6.851 3.956a1.076 1.076 0 0 1 .515 1.632 1.076 1.076 0 0 1-.515.394l-19.298 11.176 8.813 5.195 18.059-10.421a3.869 3.869 0 0 1 3.506 0l6.85 3.956a1.19 1.19 0 0 1 .724 1.013 1.155 1.155 0 0 1-.724.997l-18.059 10.437 13.991 8.04a1.065 1.065 0 0 1 .72 1.006 1.065 1.065 0 0 1-.72 1.005l-8.475 4.872a4.016 4.016 0 0 1-3.506 0l-41.811-24.122a1.174 1.174 0 0 1-.708-.997 1.196 1.196 0 0 1 .708-1.013l29.573-17.126ZM587.498 688.478a46.632 46.632 0 0 1 8.539-3.875 35.175 35.175 0 0 1 8.459-1.737 28.44 28.44 0 0 1 8.25.579 27.252 27.252 0 0 1 7.831 3.055c3.216 1.882 5.259 3.812 6.047 5.822a6.427 6.427 0 0 1-.804 6.111l23.43 4.261c.316.04.621.138.901.29a.961.961 0 0 1 .595.82 1.024 1.024 0 0 1-.188.49 1.024 1.024 0 0 1-.407.33l-8.797 5.082a4.828 4.828 0 0 1-2.428.739 14.862 14.862 0 0 1-2.042-.177l-21.035-3.843-5.95 3.441 13.846 8.041a1.156 1.156 0 0 1 .708 1.013 1.148 1.148 0 0 1-.708.997l-8.475 4.825a4.027 4.027 0 0 1-3.505 0l-41.812-24.122a1.078 1.078 0 0 1 0-2.027l17.545-10.115Zm12.302 15.551 7.317-4.213a8.142 8.142 0 0 0 3.458-3.217c.498-1.077-.161-2.155-1.978-3.216a8.384 8.384 0 0 0-5.532-1.142 15.905 15.905 0 0 0-5.532 2.01l-7.317 4.214 9.584 5.564ZM680.577 675.115a3.43 3.43 0 0 1 1.752-.418 3.386 3.386 0 0 1 1.737.418l6.867 3.956a1.162 1.162 0 0 1 .707 1.013 1.184 1.184 0 0 1-.707.997L660.25 698.77a3.437 3.437 0 0 1-1.753.402 3.381 3.381 0 0 1-1.737-.402l-41.811-24.122a1.076 1.076 0 0 1-.515-1.631c.127-.182.307-.319.515-.395l30.152-17.416a4.033 4.033 0 0 1 3.506 0l6.851 3.972a1.065 1.065 0 0 1 .72 1.005 1.06 1.06 0 0 1-.72 1.005l-19.925 11.515 6.979 4.036 18.51-10.694a4.013 4.013 0 0 1 3.505 0l6.851 3.956a1.208 1.208 0 0 1 .724 1.013 1.196 1.196 0 0 1-.724 1.013l-18.509 10.694 7.252 4.181 20.456-11.787ZM722.195 651.073a3.448 3.448 0 0 1 1.753-.402 3.395 3.395 0 0 1 1.736.402l6.867 3.972a1.164 1.164 0 0 1 .708.997 1.2 1.2 0 0 1-.708 1.014l-30.683 17.689a3.996 3.996 0 0 1-3.49 0l-41.811-24.122a1.076 1.076 0 0 1-.515-1.632c.127-.181.307-.319.515-.394l30.153-17.416a4.012 4.012 0 0 1 3.505 0l6.851 3.956a1.217 1.217 0 0 1 .723 1.013c-.015.219-.091.43-.218.609a1.195 1.195 0 0 1-.505.404l-19.925 11.514 6.979 4.037 18.51-10.694a3.49 3.49 0 0 1 1.753-.419 3.677 3.677 0 0 1 1.753.419l6.85 3.956a1.077 1.077 0 0 1 0 2.026l-18.509 10.678 7.252 4.197 20.456-11.804ZM111.509 633.673a1.035 1.035 0 0 1 .628.885 1.045 1.045 0 0 1-.628.9l-6.078 3.49a3.638 3.638 0 0 1-1.608.434H88.304a9.65 9.65 0 0 1 3.41 6.433c0 2.122-1.4 4.052-4.375 5.757a23.463 23.463 0 0 1-14.2 3.039 38.586 38.586 0 0 1-15.727-5.307 26.832 26.832 0 0 1-6.32-4.824 11.255 11.255 0 0 1-2.702-4.374 5.708 5.708 0 0 1 .29-4.02 7.153 7.153 0 0 1 2.91-3.104 2.45 2.45 0 0 1 1.271-.306c.439-.017.873.089 1.254.306l7.205 4.149c.804.466 1.238.933 1.286 1.383.048.45.145.949.241 1.479.14.663.42 1.288.82 1.834a9.23 9.23 0 0 0 2.911 2.315 17.142 17.142 0 0 0 5.468 2.091 6.648 6.648 0 0 0 4.728-.643c1.319-.772 1.704-1.609 1.11-2.718a9.465 9.465 0 0 0-3.635-3.216l-4.824-2.75a1.032 1.032 0 0 1-.644-.885 1.044 1.044 0 0 1 .644-.9l4.92-2.831a3.432 3.432 0 0 1 1.609-.434h13.894l-14.924-8.619a1.101 1.101 0 0 1-.643-.901 1.046 1.046 0 0 1 .643-.884l6.127-3.538a3.409 3.409 0 0 1 3.088 0l27.37 15.759ZM137.818 648.243a19.54 19.54 0 0 1 6.127 4.985 7.805 7.805 0 0 1 1.737 4.825 7.494 7.494 0 0 1-1.914 4.599 20.467 20.467 0 0 1-4.824 4.101c-1.608.997-3.216 2.01-5.034 3.039a206.738 206.738 0 0 1-5.146 2.846 36.989 36.989 0 0 1-7.027 2.847 31.032 31.032 0 0 1-8.041 1.109 33.992 33.992 0 0 1-8.491-1.013 32.782 32.782 0 0 1-8.651-3.522 19.65 19.65 0 0 1-6.111-5.001 7.88 7.88 0 0 1-1.753-4.905 7.72 7.72 0 0 1 2.01-4.631 20.532 20.532 0 0 1 4.825-4.101c1.479-.949 3.12-1.93 4.92-2.975a137.154 137.154 0 0 1 5.259-2.895 36.574 36.574 0 0 1 7.092-2.749 31.247 31.247 0 0 1 8.04-1.11c2.862-.02 5.715.32 8.491 1.013a32.746 32.746 0 0 1 8.491 3.538Zm-19.297 18.204a143.285 143.285 0 0 0 9.648-5.564c.79-.518 1.528-1.11 2.204-1.769a3.734 3.734 0 0 0 1.093-1.769 2.405 2.405 0 0 0-.434-1.865 6.859 6.859 0 0 0-2.348-1.962 11.74 11.74 0 0 0-3.377-1.351 11.14 11.14 0 0 0-3.216-.241 13.172 13.172 0 0 0-3.12.611c-1.047.33-2.059.761-3.023 1.286a107.122 107.122 0 0 0-9.649 5.548 12.306 12.306 0 0 0-2.268 1.737 3.348 3.348 0 0 0-1.045 1.801 2.487 2.487 0 0 0 .45 1.882 7.042 7.042 0 0 0 2.348 1.945 11.693 11.693 0 0 0 6.642 1.609 12.871 12.871 0 0 0 3.12-.612 22.95 22.95 0 0 0 2.991-1.286h-.016ZM190.066 680.309c.536-.04 1.073-.04 1.608 0a4.112 4.112 0 0 1 1.512.547l4.696 2.718c.418.241.643.482.691.755.048.274-.112.499-.466.692a1.25 1.25 0 0 1-.338.129c-.167.05-.34.082-.514.096l-65.451 5.162a9.187 9.187 0 0 1-1.608 0 4.217 4.217 0 0 1-1.512-.547l-4.696-2.717c-.418-.242-.643-.483-.675-.756-.032-.274.113-.499.45-.692.108-.053.222-.096.338-.128.168-.049.34-.082.515-.097l65.45-5.162ZM169 675.951a34.51 34.51 0 0 1-4.342 2.509 19.004 19.004 0 0 1-3.827 1.463c-1.39.345-2.815.523-4.246.531a18.478 18.478 0 0 1-4.519-.595 18.185 18.185 0 0 1-4.519-1.898 11.262 11.262 0 0 1-3.216-2.605 4.155 4.155 0 0 1-.997-2.589c.03-.893.352-1.752.917-2.444a9.807 9.807 0 0 1 2.492-2.236 26.826 26.826 0 0 1 2.027-1.302 33.214 33.214 0 0 1 2.315-1.206 18.854 18.854 0 0 1 3.86-1.432 17.463 17.463 0 0 1 4.245-.53c1.515-.01 3.024.185 4.487.579a17.518 17.518 0 0 1 4.519 1.881 11.04 11.04 0 0 1 3.216 2.605 3.796 3.796 0 0 1 0 5.034 9.827 9.827 0 0 1-2.412 2.235Zm6.529 26.872a37.094 37.094 0 0 1-4.342 2.509 19.151 19.151 0 0 1-3.844 1.463 16.48 16.48 0 0 1-4.229.531 17.98 17.98 0 0 1-9.038-2.477 11.276 11.276 0 0 1-3.216-2.621 4.022 4.022 0 0 1-.997-2.589 4.115 4.115 0 0 1 .917-2.445 9.65 9.65 0 0 1 2.476-2.235 27.04 27.04 0 0 1 2.043-1.302 33.629 33.629 0 0 1 2.315-1.207 18.91 18.91 0 0 1 3.86-1.431 18.264 18.264 0 0 1 4.229-.53c1.52-.01 3.035.185 4.503.578 1.581.43 3.1 1.063 4.519 1.882 1.228.655 2.32 1.54 3.216 2.605.631.724.99 1.645 1.013 2.605a4.39 4.39 0 0 1-.917 2.445c-.71.87-1.557 1.62-2.508 2.219Zm-21.919-31.085a3.983 3.983 0 0 0-1.608 1.608c-.177.466.161.949.997 1.431a3.987 3.987 0 0 0 2.493.579 9.192 9.192 0 0 0 2.83-.933 28.41 28.41 0 0 0 3.779-2.187 4.002 4.002 0 0 0 1.608-1.608c.177-.466-.161-.949-.997-1.431a3.987 3.987 0 0 0-2.493-.579 8.865 8.865 0 0 0-2.83.949 28.41 28.41 0 0 0-3.779 2.187v-.016Zm6.529 26.888a4.084 4.084 0 0 0-1.608 1.608c-.177.466.161.949.997 1.431a3.843 3.843 0 0 0 2.476.579 8.972 8.972 0 0 0 2.847-.933 26.435 26.435 0 0 0 3.763-2.187 4.163 4.163 0 0 0 1.608-1.608c.177-.482-.161-.965-.997-1.447a4.015 4.015 0 0 0-2.493-.579 8.865 8.865 0 0 0-2.83.949 27.295 27.295 0 0 0-3.763 2.203v-.016ZM58.65 681.21a31.139 31.139 0 0 1 7.446-2.67 34.57 34.57 0 0 1 8.41-.836c2.976.089 5.933.515 8.813 1.27 3.047.8 5.974 2.006 8.7 3.586a21.465 21.465 0 0 1 6.207 5.018 9.483 9.483 0 0 1 2.203 5.097 7.586 7.586 0 0 1-1.43 4.825 16.091 16.091 0 0 1-4.648 4.294 120.86 120.86 0 0 1-5.018 3.039 123.654 123.654 0 0 1-5.162 2.814 31.301 31.301 0 0 1-7.43 2.67c-2.77.619-5.604.905-8.442.852a36.886 36.886 0 0 1-8.845-1.287 35.204 35.204 0 0 1-8.635-3.586 22 22 0 0 1-6.272-5.017 9.054 9.054 0 0 1-2.09-5.017 7.64 7.64 0 0 1 1.463-4.825 15.834 15.834 0 0 1 4.631-4.293 123.91 123.91 0 0 1 4.921-2.976c1.801-1.029 3.457-2.058 5.178-2.958Zm15.23 20.23 2.395-1.271c.885-.45 1.753-.932 2.638-1.447.884-.515 1.704-1.013 2.492-1.496l2.075-1.35a8.06 8.06 0 0 0 2.042-1.866c.442-.572.69-1.271.707-1.994a3.342 3.342 0 0 0-.803-2.074 8.523 8.523 0 0 0-2.573-2.091 14.479 14.479 0 0 0-7.205-1.946 13.8 13.8 0 0 0-3.457.418c-1.113.27-2.192.663-3.217 1.174-.723.322-1.511.724-2.348 1.174a73.57 73.57 0 0 0-2.573 1.464c-.868.514-1.736.997-2.556 1.495-.82.499-1.528.965-2.14 1.415a5.316 5.316 0 0 0-2.765 3.876c-.097 1.399 1.029 2.782 3.393 4.149a13.404 13.404 0 0 0 7.156 1.946 16.908 16.908 0 0 0 6.738-1.576ZM143.672 713.067a1.038 1.038 0 0 1 .643.884 1.074 1.074 0 0 1-.627.901l-6.079 3.489a3.407 3.407 0 0 1-3.087 0l-17.111-9.874-7.831 4.519 15.968 9.231a.932.932 0 0 1 0 1.769l-6.062 3.505a3.214 3.214 0 0 1-1.608.37 3.03 3.03 0 0 1-1.609-.37l-15.952-9.214-12.367 7.14a3.543 3.543 0 0 1-3.087 0l-7.494-4.326a1.043 1.043 0 0 1-.627-.9 1.028 1.028 0 0 1 .627-.885l36.987-21.34a3.093 3.093 0 0 1 1.608-.37 3.045 3.045 0 0 1 1.608.37l26.1 15.101ZM178.986 733.377a.949.949 0 0 1 0 1.785l-6.063 3.506a3.046 3.046 0 0 1-1.608.354 3.11 3.11 0 0 1-1.608-.354l-17.094-9.89-7.735 4.599 15.968 9.215a.944.944 0 0 1 .627.892.947.947 0 0 1-.627.893l-6.062 3.473a3.529 3.529 0 0 1-3.088 0l-15.969-9.182-12.366 7.124a3.406 3.406 0 0 1-3.088 0l-7.493-4.374a1.035 1.035 0 0 1-.628-.885 1.046 1.046 0 0 1 .628-.9l36.986-21.34a3.532 3.532 0 0 1 3.088 0l26.132 15.084Z" fill="#E0E0E0"/><path d="m65.453 156.574 13.058-2.026 2.17 14.087a36.012 36.012 0 0 1-2.412 1.801 22.811 22.811 0 0 1-3.393 1.85 37.093 37.093 0 0 1-4.47 1.608 40.26 40.26 0 0 1-5.741 1.286c-2.92.482-5.896.526-8.829.129a16.25 16.25 0 0 1-7.172-2.782 17.337 17.337 0 0 1-5.243-6.127 31.553 31.553 0 0 1-3.039-9.922 31.082 31.082 0 0 1-.096-10.34 17.462 17.462 0 0 1 3.12-7.446 16.353 16.353 0 0 1 5.95-4.824 29.966 29.966 0 0 1 8.41-2.525 39.085 39.085 0 0 1 5.886-.515 35.837 35.837 0 0 1 4.824.242c1.284.139 2.553.387 3.795.739 1.11.338 2.09.66 2.96.965l2.025 13.637-13.058 2.026-.61-3.924a4.244 4.244 0 0 0-1.4-2.926 3.676 3.676 0 0 0-2.91-.531 3.836 3.836 0 0 0-2.637 1.383 4.422 4.422 0 0 0-.451 3.216l2.54 16.435a4.31 4.31 0 0 0 1.416 2.927 4.602 4.602 0 0 0 5.548-.868 4.376 4.376 0 0 0 .45-3.217l-.691-4.358ZM122.203 143.886c.61 3.428.642 6.934.097 10.373a17.322 17.322 0 0 1-3.12 7.413 15.978 15.978 0 0 1-5.966 4.825 29.126 29.126 0 0 1-8.41 2.524c-2.898.49-5.854.534-8.765.129a16.184 16.184 0 0 1-7.156-2.782 17.6 17.6 0 0 1-5.21-6.127 31.553 31.553 0 0 1-3.04-9.922 31.082 31.082 0 0 1-.096-10.34 17.364 17.364 0 0 1 3.12-7.446 16.078 16.078 0 0 1 5.966-4.824 29.13 29.13 0 0 1 8.41-2.525 28.804 28.804 0 0 1 8.749-.129 16.185 16.185 0 0 1 7.156 2.782 17.565 17.565 0 0 1 5.21 6.159 30.917 30.917 0 0 1 3.055 9.89Zm-18.895 15.39a3.754 3.754 0 0 0 2.637-1.383 4.406 4.406 0 0 0 .451-3.216l-2.541-16.306a4.391 4.391 0 0 0-1.415-2.943 4.597 4.597 0 0 0-5.548.868 4.407 4.407 0 0 0-.45 3.216l2.556 16.419a4.31 4.31 0 0 0 1.399 2.943 3.738 3.738 0 0 0 2.911.402ZM120.451 122.482l26.003-4.02 9.086 17.689 3.088-19.587 25.086-3.924 1.383 8.909-3.216.515 3.699 24.54 3.216-.499 1.383 8.909-21.758 3.378-1.383-8.926 3.216-.498-3.328-21.501-6.111 32.163-5.886.9-16.885-28.592 3.344 21.597 3.217-.515 1.383 8.926-19.04 2.942-1.383-8.925 3.216-.498-3.683-24.556-3.216.498-1.431-8.925ZM185.998 112.351l25.505-3.956a18.274 18.274 0 0 1 11.064 1.029 9.288 9.288 0 0 1 5.098 7.398 9.455 9.455 0 0 1-.29 4.615 10.33 10.33 0 0 1-1.93 3.409 11.255 11.255 0 0 1-2.669 2.316c-.808.511-1.665.942-2.557 1.286v.531a24.992 24.992 0 0 1 3.023 0c1.228.105 2.427.432 3.538.965a9.207 9.207 0 0 1 3.216 2.509 9.808 9.808 0 0 1 1.882 4.824 10.005 10.005 0 0 1-.466 5.339 9.887 9.887 0 0 1-2.847 3.908 15.067 15.067 0 0 1-4.631 2.653 30.662 30.662 0 0 1-5.806 1.48l-25.521 3.939-1.383-8.909 3.217-.514-3.779-24.476-3.217.499-1.447-8.845Zm24.122 14.473a3.216 3.216 0 0 0 2.251-1.19 3.79 3.79 0 0 0 .37-2.782l-.305-1.962a3.834 3.834 0 0 0-1.206-2.541 3.229 3.229 0 0 0-2.493-.45l-2.927.45 1.383 8.925 2.927-.45Zm2.798 15.551a3.212 3.212 0 0 0 2.235-1.19 3.81 3.81 0 0 0 .37-2.782l-.37-2.396a3.712 3.712 0 0 0-1.19-2.541 3.213 3.213 0 0 0-2.492-.451l-3.329.515 1.447 9.359 3.329-.514ZM273.753 120.424a31.36 31.36 0 0 1 .096 10.388 17.497 17.497 0 0 1-3.039 7.414 16.283 16.283 0 0 1-5.966 4.824 31.7 31.7 0 0 1-17.175 2.653 16.392 16.392 0 0 1-7.156-2.798 17.587 17.587 0 0 1-5.291-6.143 31.428 31.428 0 0 1-3.007-9.906 31.074 31.074 0 0 1-.096-10.34 17.471 17.471 0 0 1 3.119-7.446 16.43 16.43 0 0 1 5.966-4.824 31.815 31.815 0 0 1 17.191-2.653 16.39 16.39 0 0 1 7.14 2.798 17.415 17.415 0 0 1 5.211 6.159 30.957 30.957 0 0 1 3.007 9.874Zm-18.896 15.47a3.827 3.827 0 0 0 2.638-1.383 4.426 4.426 0 0 0 .45-3.216l-2.541-16.435a4.305 4.305 0 0 0-1.415-2.927 3.732 3.732 0 0 0-2.911-.531 3.827 3.827 0 0 0-2.637 1.383 4.34 4.34 0 0 0-.434 3.216l2.541 16.435a4.24 4.24 0 0 0 1.399 2.927 3.746 3.746 0 0 0 2.91.531Z" fill="#263238"/><path d="M118.778 200.187a5.361 5.361 0 0 1-4.095-.982 5.38 5.38 0 0 1-2.128-3.633c-1.882-11.965 9.648-24.01 15.695-24.959 1.962-.305 3.216.547 3.216.933v.193c.365-.101.736-.181 1.11-.241a3.333 3.333 0 0 1 2.593.61 3.345 3.345 0 0 1 1.315 2.317c1.109 6.625-8.25 24.282-17.706 25.762Zm11.337-23.816c-.659.096-1.206-.145-1.415-1.496a23.02 23.02 0 0 0-8.635 9.038 17.681 17.681 0 0 0-2.75 9.648c.177 1.142.739 1.769 1.608 1.609 1.479-.226 5.081-2.783 8.266-8.379 2.91-5.098 3.907-8.571 3.698-9.89 0-.418-.257-.627-.563-.579l-.209.049ZM147.869 178.14c.257 0 .547.144.852.16 3.217-1.141 6.256-2.154 6.98-2.46.143-.067.294-.116.45-.145 1.293.062 2.581.196 3.859.402.209 0 .676.708.788 1.367a.929.929 0 0 1-.546 1.094c-.338.112-2.702 1.125-5.838 2.412a6.723 6.723 0 0 1 2.38 3.827c1.431 9.167-15.229 31.552-21.468 32.533a3.609 3.609 0 0 1-3.766-1.512 3.614 3.614 0 0 1-.544-1.319c-.852-5.516 3.216-15.213 8.201-27.338-.421.166-.857.29-1.302.37a1.846 1.846 0 0 1-2.203-1.608c0-.29-.354-.579-.402-.885a.433.433 0 0 1 .209-.434c.45-.498.611-1.206 1.093-1.785a8.736 8.736 0 0 1 1.817-1.929 42.494 42.494 0 0 1 4.053-1.802c6.754-16.756 13.621-32.162 14.183-33.159a8.813 8.813 0 0 1 5.018-3.345c.53 0 .916.096.997.595.024.26-.004.522-.081.772-.386 1.27-9.697 21.967-14.73 34.189Zm.868 5.162-3.521 1.399c-3.619 9.102-9.649 23.494-9.151 26.148 0 .338.209.482.435.45 2.17-.338 15.952-16.885 14.666-25.151a4.302 4.302 0 0 0-.89-1.7 4.295 4.295 0 0 0-1.539-1.146Z" fill="#FF9446"/><path d="M172.039 174.36c.274 0 .563.145.852.161 3.217-1.142 6.256-2.139 6.98-2.46.144-.062.295-.105.45-.129a28.38 28.38 0 0 1 3.859.402c.21 0 .676.692.788 1.351a.912.912 0 0 1-.064.651.923.923 0 0 1-.482.443l-5.838 2.428a6.671 6.671 0 0 1 2.38 3.827c1.431 9.15-15.229 31.535-21.468 32.516a3.57 3.57 0 0 1-4.294-2.83c-.868-5.5 3.216-15.213 8.185-27.418a7.102 7.102 0 0 1-1.286.369 1.84 1.84 0 0 1-1.456-.319 1.851 1.851 0 0 1-.747-1.289c0-.289-.37-.579-.418-.868a.462.462 0 0 1 .209-.434c.45-.515.611-1.206 1.093-1.785a8.393 8.393 0 0 1 1.817-1.93 39.095 39.095 0 0 1 4.053-1.817c6.77-16.741 13.621-32.163 14.184-33.16a8.906 8.906 0 0 1 5.017-3.345c.531 0 .917.097.997.595.05.261.05.528 0 .788-.466 1.335-9.761 22.048-14.811 34.253Zm.869 5.179-3.506 1.383c-3.618 9.102-9.649 23.51-9.167 26.164 0 .321.21.466.451.434 2.155-.338 15.936-16.869 14.65-25.135a4.233 4.233 0 0 0-2.428-2.846ZM200.406 166.979c-1.045.161-1.254-.354-1.399-1.303a3.234 3.234 0 0 1 0-.868 15.73 15.73 0 0 0-2.476 1.705c-.997.756-5.034 4.406-4.825 5.628 0 .257.563.177.692.145 1.769-.274 3.087-1.608 4.824-1.849.219-.025.44-.025.659 0a3.85 3.85 0 0 1 1.753 1.945c.097.563-.546 1.223-.916 1.608-.82.933-1.93 1.174-2.863 1.898-1.222.965-6.32 4.824-6.095 6.433.354 2.299 3.024 2.154 4.825 1.881 4.824-.756 8.652-5.982 11.257-8.716.195-.206.438-.361.707-.45.853-.129 1.158 1.865 1.255 2.46a5.17 5.17 0 0 1 .08 1.801 4.739 4.739 0 0 1-1.11 1.753c-2.749 3.039-7.075 6.947-12.382 7.783-3.908.612-9.215.193-9.971-4.631-.562-3.634 2.3-6.207 5.195-7.832-1.93-.546-2.284-1.801-2.557-3.537-1.013-6.433 9.15-12.865 14.73-13.653 1.142-.177 3.409 0 3.619 1.479a5.903 5.903 0 0 1-5.002 6.32Z" fill="#FF9446"/><path d="M227.391 167.526a2.291 2.291 0 0 1-1.608 1.399 2.326 2.326 0 0 1-1.75-.543 2.322 2.322 0 0 1-.807-1.644 8.824 8.824 0 0 1 1.608-5.5c-1.608.402-9.118 11.128-10.485 13.187a111.29 111.29 0 0 0-5.596 9.552c-.338.659-1.03 1.608-1.785 1.721a9.302 9.302 0 0 1-3.217-.676c-.257-.096-.289-.289-.321-.482a11.35 11.35 0 0 1 1.351-4.358c2.042-5.355 4.181-10.63 6.303-15.905a41.869 41.869 0 0 1 2.171-5.097 6.43 6.43 0 0 1 4.696-2.654c.643-.096.901.595.981 1.158.241 1.608-2.332 6.545-3.055 8.234 2.556-3.956 6.834-10.067 11.819-10.839a2.947 2.947 0 0 1 3.145 1.327c.213.346.352.731.409 1.133.225 1.737-2.798 8.073-3.859 9.987Z" fill="#FF9446"/><path d="M299.435 640.347c3.795-26.18 2.299-46.635 7.445-87.514.949-10.517 2.139-21.774 3.57-31.744 4.825-33.562 10.823-44.722 11.772-51.187 0 0 4.663-52.425 12.173-126.061 3.522-34.639 14.345-44.432 23.704-62.283l95.555 6.867c7.413 46.234 3.313 145.616-.37 192.46-1.882 23.881-20.713 151.003-21.115 153.93-1.431 10.389-.82 14.57 2.959 19.298 7.896 9.793 19.684 19.426 29.831 28.206-1.849 3.988-14.73 2.911-20.906-.659a163.301 163.301 0 0 1-22.722-16.95c-8.331-7.156-19.298-13.202-18.655-23.141a10.273 10.273 0 0 0-.177-1.801c.258-5.805-7.108-92.274-6.818-112.199.257-17.126 4.422-45.928 4.422-45.928l-5.821-73.105s-9.842 42.229-18.815 70.902c-7.285 23.334-19.41 63.183-27.805 91.953-8.458 33.208-19.056 56.525-21.79 73.266-.756 3.988-8.153 43.146-10.678 52.055-2.524 8.909-22.256 7.735-22.417-7.912-.096-10.372 5.934-43.532 6.658-48.453Z" fill="#C8856A"/><path d="m394.282 408.536 11.804-51.46s31.374-1.463 43.419-11.514c0 0-15.711 19.104-36.987 20.905l-11.964 42.567-.466 72.044-5.806-72.542Z" fill="#F28F8F"/><path d="M482.455 694.075c.547 0 1.014 6.111-2.106 8.475-3.602 2.75-13.959 6.979-27.129 4.454-13.171-2.525-20.102-7.076-25.151-11.852-5.05-4.776-12.093-11.482-18.027-13.186-5.5-1.608-11.402-4.471-13.074-6.304-1.673-1.833-.965-9.472-.965-9.472l86.452 27.885Z" fill="#263238"/><path d="M402.435 636.89s-1.013 0-1.463 1.72c-.531 2.091-1.351 8.202-2.445 11.627-1.511 4.824-2.927 14.57-2.444 18.542.482 3.972 9.424 7.252 15.1 9.825 5.677 2.573 12.383 7.703 18.092 13.042 5.708 5.339 18.734 11.482 27.338 12.142 13.202.997 21.967-2.059 24.893-6.658 3.635-5.661 1.287-9.231-13.476-17.191-2.782-1.495-12.511-8.04-15.824-10.469a79.825 79.825 0 0 1-9.857-8.314 59.255 59.255 0 0 1-4.358-4.824 20.638 20.638 0 0 1-3.538-5.146c-.145-.418-.241-.885-.37-1.319a21.282 21.282 0 0 1-.772-3.618c-.161-1.27-.209-3.12-1.367-3.956a10.067 10.067 0 0 0-5.387-.965 42.866 42.866 0 0 0-5.902.466c-2.267.37-4.824.402-6.32 2.429a11.253 11.253 0 0 0-1.608 5.419c-.096.885-.129 1.785-.193 2.67 0 .369.096 1.061-.434.868-.531-.193-.965-1.528-1.142-1.994-.354-1.029-.563-2.107-.965-3.104a15.812 15.812 0 0 0-1.688-3.329 15.094 15.094 0 0 0-2.252-2.589 24.303 24.303 0 0 1-2.492-1.849 6.094 6.094 0 0 1-1.126-3.425Z" fill="#37474F"/><path d="M470.459 681.322c-19.201.145-25.939 11.579-27.209 18.847a45.68 45.68 0 0 0 13.411 3.683c13.203.997 22.514-2.026 25.441-6.609 3.425-5.355 1.608-9.955-11.643-15.921Z" fill="#FAFAFA"/><path d="M441.786 679.762a.915.915 0 0 1-.786-.558.917.917 0 0 1 .207-1.018 22.516 22.516 0 0 1 17.689-5.757.937.937 0 0 1 .764 1.086.936.936 0 0 1-1.085.764c-6.433-1.094-13.75 2.717-16.081 5.178a.882.882 0 0 1-.708.305ZM433.842 674.456a.977.977 0 0 1-.579-.242.946.946 0 0 1 0-1.334 22.507 22.507 0 0 1 17.689-5.757.938.938 0 1 1-.322 1.849c-6.432-1.094-13.749 2.734-16.081 5.194a.93.93 0 0 1-.707.29ZM426.541 668.505a.972.972 0 0 1-.579-.241.932.932 0 0 1 0-1.318 22.512 22.512 0 0 1 17.689-5.774.94.94 0 0 1 .772 1.078.935.935 0 0 1-.712.76.935.935 0 0 1-.365.012c-6.433-1.094-13.766 2.734-16.081 5.194a.934.934 0 0 1-.724.289ZM419.401 662.62a.948.948 0 0 1-.643-1.608c3.956-4.407 12.415-6.947 19.298-5.757a.912.912 0 0 1 .755 1.077.936.936 0 0 1-.377.611.941.941 0 0 1-.7.161c-6.208-1.061-14.087 1.254-17.593 5.162a.915.915 0 0 1-.74.354Z" fill="#F0F0F0"/><path d="M320.871 704.254c-1.174 8.973-2.991 14.843-6.577 19.909-3.586 5.065-9.649 6.287-15.728 4.293-6.079-1.994-13.524-6.689-14.714-14.585-1.19-7.896-1.833-13.3.145-21.565l36.874 11.948Z" fill="#263238"/><path d="M299.885 637.147c-2.541 0-4.149 12.061-6.432 24.122-2.477 12.865-6.738 17.963-8.909 28.512-2.461 12.061-.837 17.689 2.894 25.296 3.731 7.606 18.317 15.968 26.502 5.966 6.69-8.153 7.623-17.69 7.944-29.847a270.81 270.81 0 0 1 3.024-30.731c1.141-9.07 3.827-18.108 1.704-19.298-.257 1.319-.547 3.007-.82 4.31a21.921 21.921 0 0 1-1.158 4.824c-.305.66-.916 1.335-1.077.226a7.123 7.123 0 0 1 .177-2.268c.595-3.329-1.062-3.731-1.962-4.052a109.408 109.408 0 0 0-11.563-2.493c-1.913-.273-8.523-1.045-9.472 0a7.405 7.405 0 0 0-1.093 3.458c-.354 1.801-.868 3.119-.885 2.54 0-1.318.483-4.711.563-5.532.081-.82.306-1.849.37-2.637.065-.788.065-1.624.193-2.396Z" fill="#37474F"/><path d="M283.305 696.744a30.365 30.365 0 0 0 3.377 18.815c3.731 7.671 19.523 16.081 27.708 6.079 4.085-4.969 5.516-11.096 6.433-17.384-3.828-8.443-29.992-13.926-37.518-7.51Z" fill="#FAFAFA"/><path d="M316.336 690.617a.96.96 0 0 1-.305-.096c-.097 0-11.402-5.709-22.932-3.908a.936.936 0 0 1-.29-1.85c12.19-1.897 23.72 3.892 24.122 4.117a.947.947 0 0 1 .354 1.287.902.902 0 0 1-.949.45ZM294.305 677.591a.946.946 0 0 1-.74-.691.951.951 0 0 1 .676-1.142c11.562-3.007 23.671 3.635 24.122 3.908a.928.928 0 0 1 .42.58.934.934 0 0 1-.115.706.945.945 0 0 1-1.286.306c-.113 0-11.917-6.432-22.675-3.683-.132.03-.268.036-.402.016ZM295.318 669.052a.972.972 0 0 1-.74-.675.934.934 0 0 1 .659-1.142c12.721-3.57 24.122 3.57 24.589 3.86a.949.949 0 0 1-.037 1.559.918.918 0 0 1-1.041-.032c-.096 0-11.16-6.899-23.012-3.586a1.2 1.2 0 0 1-.418.016Z" fill="#F0F0F0"/><path d="M296.54 660.69a.893.893 0 0 1-.459-.223.894.894 0 0 1-.265-.436.91.91 0 0 1 .069-.712.914.914 0 0 1 .558-.446c11.949-3.522 24.283 3.827 24.733 4.149a.956.956 0 0 1 .282 1.327.963.963 0 0 1-1.327.281c-.096 0-12.061-7.172-23.157-3.892a.984.984 0 0 1-.434-.048Z" fill="#EBEBEB"/><path d="M345.733 280.979c-15.776 23.029-16.837 35.894-20.777 97.308-4.262 66.303-4.004 79.281-4.825 86.678-.82 7.397-5.901 20.295-12.334 56.477-6.432 36.183-5.049 79.956-5.049 79.956s2.187 6.047 16.081 8.298c12.768 2.075 19.49-2.283 19.49-2.283s22.739-69.728 29.188-91.342c6.448-21.613 25.826-92.788 25.826-92.788l4.101 59.227s-5.371 19.828-3.747 52.087c1.624 32.259 6.191 65.499 6.191 65.499a58.123 58.123 0 0 0 19.507 4.631c11.016.627 17.689-3.216 17.689-3.216s17.77-94.349 20.375-130.58c2.605-36.231 6.047-127.042-1.495-181.525l-110.221-8.427Z" fill="#37474F"/><path d="m409.72 354.423-16.483 68.859 4.197 59.228.692-59.597 14.36-56.446c8.893-1.463 29.525-10.517 36.07-25.086-14.473 13.042-38.836 13.042-38.836 13.042Zm-70.371 183.47a2219.197 2219.197 0 0 0-13.525 56.06 2189.75 2189.75 0 0 0 16.435-55.272c5.307-18.493 10.357-36.986 15.406-55.576 5.05-18.59 8.507-37.598 11.739-56.574 3.233-18.976 6.015-37.984 8.54-57.04-4.005 18.815-7.752 37.662-11.499 56.493-3.746 18.831-7.686 37.614-12.527 56.14-4.84 18.525-9.874 37.131-14.569 55.769Zm105.943-88.205c-.209 8.33-.322 16.724-1.045 24.926-.724 8.201-1.882 16.58-2.895 24.861l-3.056 24.846a2118.276 2118.276 0 0 0-5.58 49.852 1419.128 1419.128 0 0 0 8.572-49.514c2.573-16.564 5.033-33.063 6.818-49.852 1.158-16.902.917-33.61.627-50.383-.289-16.773-1.174-33.497-2.557-50.189l-.466 50.382c-.129 8.346-.193 16.709-.418 25.071Z" fill="#263238"/><path d="M516.483 164.631a34.67 34.67 0 0 0 1.512-8.523c.273-10.501 4.197-18.075 9.52-26.888a423.94 423.94 0 0 1 2.782-4.502c.475-.707.905-1.443 1.287-2.204.337-.739.643-1.35 1.608-1.206a3.01 3.01 0 0 1 1.769 1.158 8.61 8.61 0 0 1 1.415 6.819 41.585 41.585 0 0 1-2.139 6.834c-.595 1.737 1.399 1.094 2.283.66 4.407-2.139 8.572-8.684 11.257-12.721a65.447 65.447 0 0 1 5.05-8.04 9.647 9.647 0 0 1 4.824-3.136c1.287-.306 2.589-.161 2.798 1.495a6.807 6.807 0 0 1-.611 3.008c-.707 2.01-1.286 3.827-.305 5.853a16.482 16.482 0 0 1 1.785 3.86c.337 1.785-.37 3.602-.209 5.419a37.723 37.723 0 0 0 1.415 4.39 13.419 13.419 0 0 1-1.094 5.436 43.957 43.957 0 0 1-4.824 10.34 82.97 82.97 0 0 1-10.984 13.428 23.108 23.108 0 0 0-5.692 7.719 49.836 49.836 0 0 0-2.091 9.472c-.595 4.004-1.109 8.04-1.721 12.044-6.432 43.42-10.726 47.537-15.92 52.618-3.667 3.586-10.228 3.458-26.582-5.13-22.868-12.028-55.014-29.718-55.014-29.718l-15.615-51.717s20.214 2.107 28.866 8.121c15.422 10.71 49.449 35.845 49.449 35.845s13.621-35.073 15.181-40.734Z" fill="#C8856A"/><path d="M533.915 143.324c.869 5.885-1.045 14.119-3.039 17.271 0 0 3.071-1.045 4.824-8.169a9.65 9.65 0 0 0-1.785-9.102ZM501.302 205.414l-3.891-2.847a32.82 32.82 0 0 0-2.557 24.251 66.233 66.233 0 0 1 6.448-21.404Z" fill="#AF6152"/><path d="m406.343 159.807-36.488.933a245.753 245.753 0 0 0-26.47 5.596c-5.87 1.737-2.798 23.72-2.235 45.43 1.222 45.863-6.192 74.794-6.192 74.794 24.251 28.029 113.824 19.603 126.544 4.309 0 0 .289-20.198-.483-48.243-.53-18.912-.884-38.885-7.14-50.238-12.865-23.27-30.892-30.941-30.892-30.941l-16.644-1.64Z" fill="#FF9446"/><path d="m406.343 159.807-36.488.933a245.753 245.753 0 0 0-26.47 5.596c-5.87 1.737-2.798 23.72-2.235 45.43 1.222 45.863-6.192 74.794-6.192 74.794 24.251 28.029 113.824 19.603 126.544 4.309 0 0 .289-20.198-.483-48.243-.53-18.912-.884-38.885-7.14-50.238-12.865-23.27-30.892-30.941-30.892-30.941l-16.644-1.64Z" fill="#fff" opacity=".5"/><path d="M355.687 73.531c-8.298 2.38-12.19 5.339-14.007 7.35-3.65 4.003-5.242 10.597-5.307 16.08 0 4.568 1.126 8.427-1.109 12.415a22.525 22.525 0 0 1-5.082 6.079 9.984 9.984 0 0 0-3.474 7.638 11.592 11.592 0 0 0 3.217 7.124c1.865 2.027 3.618 4.825 2.701 7.366a4.436 4.436 0 0 1-6.432 2.074 9.503 9.503 0 0 0 13.379-.338 8.753 8.753 0 0 0 3.217 10.083 15.255 15.255 0 0 0 10.935 2.3 16.349 16.349 0 0 1 9.649 1.27c1.833.901 3.522 2.075 5.339 3.008a22.044 22.044 0 0 0 11.031 2.347c1.946-.096 3.86-.45 5.806-.514 3.843-.129 7.606.868 11.434.981 3.827.112 6.287-2.879 9.986-3.313 3.699-.434 7.076 0 10.614-.177a22.514 22.514 0 0 0 20.326-29.798 10.203 10.203 0 0 1 8.925 4.406 10.498 10.498 0 0 0-3.216-8.041c-3.055-2.894-7.88-4.004-9.745-7.767a10.146 10.146 0 0 1 .643-8.7c1.303-2.718 3.216-5.13 4.39-7.896 7.317-16.644-8.233-35.298-22.642-41.715-20.214-8.925-57.651-6.866-60.578 17.738Z" fill="#263238"/><path d="M421.749 72.438s10.115 9.857 12.077 40.203c1.608 25.247-2.316 31.599-8.909 35.234-3.94 2.155-10.517 3.216-18.349 3.216l1.029 10.855s22.192 20.15 4.632 23.478c-9.343 1.785-18.815-2.396-27.21-7.027a45.14 45.14 0 0 1-14.199-13.701l-2.252-26.711a9.086 9.086 0 0 1-11.9-.515c-6.32-5.596-8.475-14.473-4.406-20.278 4.068-5.806 11.257-4.825 15.968 1.608 0 0 7.173 2.058 5.709-7.205 0 0 15.921-7.944 7.253-32.773 5.596-4.294 16.274 4.663 26.341 4.358 5.162-.161 10.533-9.778 14.216-10.743Z" fill="#C8856A"/><path d="m399.653 126.165 11.723 3.57a6.001 6.001 0 0 1-2.856 3.755 6.014 6.014 0 0 1-4.686.539 6.431 6.431 0 0 1-4.181-7.864Z" fill="#AF6152"/><path d="M400.956 129.204a5.2 5.2 0 0 1 3.82 1.138 5.192 5.192 0 0 1 1.889 3.51c.008.102.008.204 0 .305a5.875 5.875 0 0 1-2.831-.128 6.304 6.304 0 0 1-4.197-4.487 5.18 5.18 0 0 1 1.319-.338Z" fill="#F28F8F"/><path d="m426.042 96.56-7.687-1.609a3.775 3.775 0 0 1 1.525-2.567 3.75 3.75 0 0 1 2.914-.649 4.117 4.117 0 0 1 3.248 4.824ZM394.797 95.98l-6.754 3.957a3.763 3.763 0 0 1 1.254-5.307 4.1 4.1 0 0 1 5.5 1.35Z" fill="#263238"/><path d="m404.799 101.754 4.712 20.31 10.131-6.304-14.843-14.006ZM406.568 151.075c-17.898-.756-26.727-5.162-30.377-11.257 0 0 2.01 8.041 7.96 10.903 10.292 4.825 22.836 4.712 22.836 4.712l-.419-4.358Z" fill="#AF6152"/><path d="M417.23 103.844a3.62 3.62 0 0 0 3.538 3.538 3.385 3.385 0 0 0 2.462-.959 3.387 3.387 0 0 0 1.028-2.434 3.589 3.589 0 0 0-3.538-3.538 3.378 3.378 0 0 0-3.49 3.393ZM391.661 105.983a3.6 3.6 0 0 0 3.521 3.538 3.38 3.38 0 0 0 3.204-2.014c.181-.409.278-.851.286-1.299a3.586 3.586 0 0 0-3.522-3.538 3.364 3.364 0 0 0-3.489 3.313Z" fill="#263238"/><path d="M473.257 240.84c-9.649-5.564-22.9-4.824-37.582 3.699-29.348 16.95-53.068 58.166-53.068 92.065 0 17.014 5.998 28.946 15.695 34.446l16.258 9.392c9.649 5.548 22.884 4.744 37.55-3.715 29.364-16.95 53.068-58.166 53.068-92.017 0-16.918-5.934-28.802-15.518-34.366l-16.403-9.504Z" fill="#FF9446"/><path d="M452.03 253.979c29.364-16.95 53.148-3.217 53.148 30.683 0 33.899-23.703 75.115-53.148 92.065-29.445 16.95-53.149 3.216-53.149-30.683s23.801-75.116 53.149-92.065Z" fill="#FF9446"/><path opacity=".3" d="M452.03 253.979c29.364-16.95 53.148-3.217 53.148 30.683 0 33.899-23.703 75.115-53.148 92.065-29.445 16.95-53.149 3.216-53.149-30.683s23.801-75.116 53.149-92.065Z" fill="#fff"/><path d="m443.86 277.586 16.355-9.44v84.974l-16.355 9.439v-84.973Z" fill="#FAFAFA"/><path d="M488.824 284.662v18.895l-73.588 42.487v-18.895l73.588-42.487Z" fill="#FAFAFA"/><path d="M409.897 267.969c4.551-5.419 5.886-6.143 11.466-7.284 5.58-1.142 8.137-1.721 10.356-1.978 3.885-.196 7.78.09 11.595.852 2.878 1.19-.499 5.773-4.744 6.432-4.246.66-9.858.933-9.858.933l-18.815 1.045Z" fill="#AF6152"/><path d="M343.272 166.336c-15.132 4.631-26.084 10.228-28.673 27.113-2.589 16.885-10.292 66.866-10.356 79.956-.064 13.09 1.608 16.21 13.058 20.262 9.504 3.361 47.488 8.202 64.904 9.858a15.12 15.12 0 0 0 12.592-4.824l13.299-14.65-66.159-20.681 7.414-43.162s6.818-41.634-6.079-53.872Z" fill="#C8856A"/><path d="M389.007 292.268c1.801-.659 1.158-8.523 4.101-10.147 2.943-1.624 3.458-1.254 4.503-4.519 1.045-3.264 3.136-4.824 5.065-4.969 1.93-.145.628-3.586 4.053-5.066a62.773 62.773 0 0 1 13.749-2.54c3.297-.225 11.402 3.216 14.94 4.953 3.538 1.736 1.704 4.229-.129 5.596s-5.886 1.093-5.886 1.093 3.715 2.332 3.217 3.796c-.708 1.913-3.779 4.004-8.749 2.782 3.378 1.608 3.378 3.682 1.03 5.13-1.801 1.093-4.648 1.19-8.121.53-4.374-.82-10.18-1.753-13.219.129l-2.798 3.055-11.756.177Z" fill="#C8856A"/><path d="M389.007 292.268c.804-.225 1.11-1.142 1.448-1.801.337-.659.498-1.463.691-2.171a24.864 24.864 0 0 1 1.287-4.085 3.035 3.035 0 0 1 1.029-1.383l1.913-1.157a4.104 4.104 0 0 0 1.721-1.785 7.826 7.826 0 0 0 .515-2.268 11.866 11.866 0 0 1-1.206 1.85 3.622 3.622 0 0 1-1.608 1.077 28.4 28.4 0 0 0-2.075.933 4.417 4.417 0 0 0-1.769 2.026 14.787 14.787 0 0 0-1.045 4.551l-.225 2.219a3.04 3.04 0 0 1-.676 1.994ZM429.404 276.669c-1.882-1.045-3.747-2.058-5.677-2.975a34.928 34.928 0 0 0-6.047-2.444 27.917 27.917 0 0 0-6.593.161c-2.134.238-4.25.614-6.336 1.126 2.139.128 4.278.176 6.432.16h3.217c.999-.028 1.999.021 2.991.145 1.881.482 3.908 1.351 5.902 2.026a50.174 50.174 0 0 0 6.111 1.801ZM400.425 280.416c2.027 0 4.085-.337 5.999-.53 1.917-.11 3.838.119 5.676.675 3.844.965 7.719 2.059 11.74 2.686a55.154 55.154 0 0 0-11.338-4.278 13.674 13.674 0 0 0-6.255-.338 49.95 49.95 0 0 0-5.822 1.785Z" fill="#AF6152"/></svg>