<svg width="367" height="397" fill="none" xmlns="http://www.w3.org/2000/svg"><path d="M257.624.224h-1.501a36.54 36.54 0 0 0-4.332 0 48.677 48.677 0 0 0-16.206 3.8 49.754 49.754 0 0 0-20.556 16.016 44.889 44.889 0 0 0-7.182 14.686 49.397 49.397 0 0 0 4.997 37.314 42.199 42.199 0 0 0 6.459 8.587 35.096 35.096 0 0 0 8.74 6.84 21.466 21.466 0 0 0 10.962 2.754 15.747 15.747 0 0 0 10.62-4.293 15.32 15.32 0 0 0 4.237-10.944 20.177 20.177 0 0 0-3.8-11.646c-4.92-6.934-12.9-11.59-21.392-14.097a52.534 52.534 0 0 0-26.979-.38 56.554 56.554 0 0 0-12.995 5.168 46.832 46.832 0 0 0-11.152 8.758c-.779.893-1.672 1.71-2.375 2.698l-2.147 2.888a54.375 54.375 0 0 0-3.496 6.345 51.483 51.483 0 0 0-4.122 14.002 53.083 53.083 0 0 0 3.799 28.499 44.028 44.028 0 0 0 18.334 20.898 30.395 30.395 0 0 0 12.995 3.933 22.948 22.948 0 0 0 12.825-3.078 20.04 20.04 0 0 0 8.663-9.499 17.21 17.21 0 0 0 .323-12.482 25.134 25.134 0 0 0-7.143-10.108 32.719 32.719 0 0 0-10.507-6.098 40.708 40.708 0 0 0-23.14-.399 45.074 45.074 0 0 0-18.999 10.582 43.388 43.388 0 0 0-10.886 16.852 48.822 48.822 0 0 0 .513 34.198 51.846 51.846 0 0 0 15.636 20.899 56.26 56.26 0 0 0 14.382 8.378c1.786.665 3.172 1.159 4.122 1.425l1.406.456s-.494-.095-1.444-.361a40.915 40.915 0 0 1-4.141-1.349 53.805 53.805 0 0 1-14.553-8.245 52.081 52.081 0 0 1-15.94-20.994 49.395 49.395 0 0 1-.627-34.559 43.558 43.558 0 0 1 11-17.099 45.95 45.95 0 0 1 19.284-10.83 41.585 41.585 0 0 1 23.634.381 33.283 33.283 0 0 1 10.811 6.25 25.806 25.806 0 0 1 7.409 10.469 18.201 18.201 0 0 1-.19 13.09 21.28 21.28 0 0 1-9.062 9.898 23.98 23.98 0 0 1-13.3 3.23 30.89 30.89 0 0 1-13.299-4.066 44.91 44.91 0 0 1-18.789-21.259 54.134 54.134 0 0 1-3.914-29.03 52.931 52.931 0 0 1 4.217-14.288 55.12 55.12 0 0 1 3.572-6.478l2.204-2.945c.703-1.007 1.615-1.9 2.413-2.774a48.136 48.136 0 0 1 11.399-8.93 57.26 57.26 0 0 1 13.299-5.243 53.465 53.465 0 0 1 27.492.399c8.663 2.584 16.776 7.315 21.886 14.496a20.898 20.898 0 0 1 3.99 12.16 16.22 16.22 0 0 1-4.503 11.57 16.622 16.622 0 0 1-11.209 4.502c-3.989.09-7.928-.9-11.399-2.869a35.323 35.323 0 0 1-8.93-7.01 43.687 43.687 0 0 1-6.554-8.758 50.103 50.103 0 0 1-5.016-37.998 45.41 45.41 0 0 1 7.353-14.838 50.003 50.003 0 0 1 20.898-16.054 47.502 47.502 0 0 1 16.32-3.572 33.195 33.195 0 0 1 4.37 0l1.216.152Z" fill="#263238"/><path d="M321.061 190.326H54.679v205.453H321.06V190.326Z" fill="#FF9446"/><path d="m54.679 190.326 49.207 45.901h261.86l-44.685-45.901H54.679Z" fill="#FF9446"/><path d="m54.679 190.326 266.458-.475h.209l.152.133 44.229 45.426.456.475.817.836h-1.178l-261.86-.209h-.114l-49.17-46.186 49.398 45.597h-.209l261.86-.19-.342.836-.475-.475-44.21-45.426.342.152-266.363-.494ZM134.702 285.073a5.51 5.51 0 1 0 .399 0M197.644 285.073a5.488 5.488 0 0 0-5.28 5.591 5.491 5.491 0 1 0 5.698-5.591M198.006 334.242a39.371 39.371 0 0 0-5.282-11.798 34.682 34.682 0 0 0-10.069-9.652 30.726 30.726 0 0 0-32.545-.893 35.095 35.095 0 0 0-10.583 9.082 38.946 38.946 0 0 0-5.908 11.513c.014-.309.065-.615.152-.912.182-.856.416-1.7.703-2.527a30.423 30.423 0 0 1 4.502-8.492 34.565 34.565 0 0 1 10.697-9.5 31.26 31.26 0 0 1 33.476.912c4.044 2.6 7.5 6.017 10.145 10.032a30.393 30.393 0 0 1 4.047 8.739c.233.844.417 1.7.551 2.565.065.306.103.618.114.931Z" fill="#263238"/><path opacity=".5" d="m55.287 192.587 47.117 59.732h218.657v-16.092H103.886l-48.6-43.64Z" fill="#000"/><path d="M268.529 395.323c-.266 0-.494-35.737-.494-79.795s.228-79.795.494-79.795.513 35.718.513 79.795-.228 79.795-.513 79.795Z" fill="#263238"/><path d="M310.364 348.738h-23.482v26.541h23.482v-26.541Z" fill="#F5F5F5"/><path d="M54.679 190.326 0 236.227h54.679v-45.901Z" fill="#FF9446"/><path d="M54.679 190.326 0 236.227h54.679v-45.901Z" fill="#000" opacity=".4"/><path d="M326.266 395.779h-3.096l-8.835.095-32.545.152-107.324.247-107.362-.133-32.526-.152-8.835-.095 8.835-.095 32.526-.152 107.362-.152 107.324.152 32.545.152 8.835.095h2.298l.798-.114Z" fill="#263238"/></svg>