<svg width="17" height="18" viewBox="0 0 17 18" fill="none" xmlns="http://www.w3.org/2000/svg">
<path d="M7 17.5C7.82843 17.5 8.5 16.8284 8.5 16C8.5 15.1716 7.82843 14.5 7 14.5C6.17157 14.5 5.5 15.1716 5.5 16C5.5 16.8284 6.17157 17.5 7 17.5Z" stroke="#222222"/>
<path d="M14 17.5C14.8284 17.5 15.5 16.8284 15.5 16C15.5 15.1716 14.8284 14.5 14 14.5C13.1716 14.5 12.5 15.1716 12.5 16C12.5 16.8284 13.1716 17.5 14 17.5Z" stroke="#222222"/>
<path d="M0.5 1H2.5L6.004 12H14" stroke="#222222" stroke-linecap="round" stroke-linejoin="round"/>
<path d="M5.2238 9.5L3.2998 3.5H15.8068C15.8861 3.4999 15.9642 3.51865 16.0348 3.5547C16.1054 3.59075 16.1664 3.64307 16.2128 3.70734C16.2592 3.77162 16.2897 3.846 16.3017 3.92435C16.3137 4.00271 16.3069 4.08279 16.2818 4.158L14.6148 9.158C14.5817 9.25752 14.518 9.3441 14.433 9.40548C14.3479 9.46685 14.2457 9.49992 14.1408 9.5H5.2238Z" stroke="#222222" stroke-linecap="round" stroke-linejoin="round"/>
</svg>
