<svg width="860" height="861" fill="none" xmlns="http://www.w3.org/2000/svg"><path d="m396.07 824.449 17.528-5.693-10.89-41.344-17.552 5.693 10.914 41.344Z" fill="#B55B52"/><path d="m413.846 816.419-19.69 6.389a1.345 1.345 0 0 0-.92 1.616l4.102 15.912a3.311 3.311 0 0 0 4.102 2.113c6.812-2.337 9.945-3.804 18.622-6.613 5.32-1.741 28.167-8.528 35.526-10.914 7.359-2.387 4.774-9.597 1.442-9.249-14.917 1.591-33.587 3.133-39.778.846a5.266 5.266 0 0 0-3.406-.1Z" fill="#263238"/><path opacity=".2" d="m385.156 783.105 17.552-5.693 5.594 21.331-17.527 5.693-5.619-21.331Z" fill="#000"/><path d="M342.445 364.715s24.861 150.038 32.319 202.37c8.08 57.306 39.778 224.92 39.778 224.92l-32.617 8.901s-46.466-162.419-59.667-218.133c-14.221-60.488-45.696-218.058-45.696-218.058h65.883Z" fill="#263238"/><path opacity=".3" d="M302.493 426.147c12.729 31.798 14.171 85.846 8.999 107.997-7.806-36.372-16.756-79.879-23.643-113.715 2.462-8.677 6.912-13.624 14.644 5.718Z" fill="#000"/><path d="m381.154 801.552 34.855-9.596-.671-14.196-39.231 13.549 5.047 10.243ZM421.056 817.463a23.663 23.663 0 0 1-4.972.895.495.495 0 0 1-.423-.224.474.474 0 0 1 0-.472c.423-.572 4.301-5.569 6.713-5.42a1.6 1.6 0 0 1 1.317.846 2.33 2.33 0 0 1 .199 2.486 4.968 4.968 0 0 1-2.834 1.889Zm-3.928 0c3.331-.398 5.594-1.243 6.166-2.312a1.544 1.544 0 0 0-.199-1.566.746.746 0 0 0-.622-.423c-1.318-.149-3.754 2.287-5.345 4.227v.074Z" fill="#FFA96A"/><path d="M416.283 818.333h-.199a.393.393 0 0 1-.323-.273c0-.199-2.114-5.122-.92-7.458a2.213 2.213 0 0 1 1.566-1.119 1.613 1.613 0 0 1 1.865.746c1.044 1.79-.398 6.29-1.79 7.905l-.199.199Zm0-7.881a1.246 1.246 0 0 0-.771.647 9.722 9.722 0 0 0 .646 5.942 8.523 8.523 0 0 0 1.268-6.29c-.124-.224-.348-.473-.969-.348l-.174.049Z" fill="#FFA96A"/><path d="M349.729 214.851c.348 1.094.895 2.76 1.392 4.152l1.591 4.45a182.1 182.1 0 0 0 3.58 8.801 170.405 170.405 0 0 0 8.329 16.806c6.116 10.715 13.549 20.386 22.375 26.577l1.541 1.069s0 .149.373.199a9.951 9.951 0 0 0 4.799-1.293 63.757 63.757 0 0 0 13.922-10.119 184.607 184.607 0 0 0 13.624-13.872 420.795 420.795 0 0 0 12.903-15.141l11.834 7.16a175.658 175.658 0 0 1-23.096 36.546 77.29 77.29 0 0 1-17.677 16.036 34.801 34.801 0 0 1-14.494 5.295 25.665 25.665 0 0 1-9.795-.895 24.818 24.818 0 0 1-4.724-1.939l-2.859-1.616a81.175 81.175 0 0 1-18.695-15.414 119.315 119.315 0 0 1-13.823-18.397 162.722 162.722 0 0 1-10.367-19.765 215.785 215.785 0 0 1-4.127-10.292c-.622-1.741-1.268-3.481-1.84-5.246-.572-1.765-1.069-3.456-1.691-5.668l26.925-7.434Z" fill="#B65B52"/><path d="m378.817 257.936-29.212 21.728s-1.119-1.218-2.959-3.356a469.81 469.81 0 0 1-5.096-6.091c-11.312-13.773-27.87-38.957-27.994-51.264-.199-18.372 18.87-21.082 40.275-2.287 9.248 8.105 14.072 21.555 18.77 29.834a351.133 351.133 0 0 1 3.854 7.01 134.4 134.4 0 0 1 2.362 4.426Z" fill="#FFA96A"/><path d="M258.041 832.504h18.447l2.387-42.687h-18.448l-2.386 42.687Z" fill="#B55B52"/><path d="M277.507 830.366h-20.685a1.288 1.288 0 0 0-.953.343 1.298 1.298 0 0 0-.414.925l-1.019 16.383a3.282 3.282 0 0 0 3.232 3.282c7.21-.124 10.64-.547 19.764-.547 5.594 0 29.411.572 37.143.572 7.732 0 7.459-7.657 4.251-8.353-14.717-3.083-32.941-7.459-38.137-11.461a5.145 5.145 0 0 0-3.182-1.144Z" fill="#263238"/><path opacity=".2" d="M260.428 789.842h18.447l-1.244 22.003h-18.447l1.244-22.003Z" fill="#000"/><path d="M306.446 363.671s1.74 140.864-1.243 193.619c-3.282 57.803-19.666 249.234-19.666 249.234h-33.761s1.019-186.782-1.02-243.988c-2.212-62.153-7.93-198.89-7.93-198.89l63.62.025Z" fill="#263238"/><path d="M250.408 806.524h36.497l2.013-12.803-40.25 1.989 1.74 10.814ZM283.971 833.573a23.605 23.605 0 0 1-4.972-.646.418.418 0 0 1-.323-.348.375.375 0 0 1 .174-.423c.571-.423 5.792-3.978 8.055-3.083a1.602 1.602 0 0 1 .994 1.194c.131.402.15.833.054 1.245a2.32 2.32 0 0 1-.601 1.092 4.97 4.97 0 0 1-3.381.969Zm-3.729-1.268c3.306.647 5.718.547 6.588-.298a1.595 1.595 0 0 0 .298-1.541.749.749 0 0 0-.472-.597c-1.218-.472-4.177 1.069-6.414 2.436Z" fill="#FFA96A"/><path d="M279.173 832.927a.273.273 0 0 1-.199 0 .427.427 0 0 1-.249-.348c0-.224-.422-5.519 1.442-7.309.239-.229.526-.401.84-.505.314-.103.647-.134.975-.092a1.692 1.692 0 0 1 1.566 1.293c.423 2.014-2.337 5.867-4.176 6.961h-.199Zm2.486-7.458a1.265 1.265 0 0 0-.92.373 9.5 9.5 0 0 0-1.218 5.842c1.616-1.343 3.431-4.276 3.157-5.594 0-.248-.199-.547-.82-.621h-.199Z" fill="#FFA96A"/><path opacity=".3" d="M313.432 221.066c6.588-4.35 11.386 6.912 24.388 16.434 5.793 4.226 18.497 31.897 17.403 37.988l-5.618 4.176s-36.323-40.275-36.173-58.598Z" fill="#000"/><path d="m431.97 239.588 6.34-20.262 16.458 12.058s-8.975 18.074-15.066 16.433l-7.732-8.229ZM455.663 211.57l9.248 6.165-10.143 13.649-16.458-12.058 17.353-7.756Z" fill="#B55B52"/><path d="M476.994 209.382a161.095 161.095 0 0 1-49.275 11.61 8.91 8.91 0 0 1-6.765-2.005 8.915 8.915 0 0 1-3.18-6.299 9.3 9.3 0 0 1 8.702-9.074 143.241 143.241 0 0 0 43.905-10.442 9.277 9.277 0 0 1 11.809 4.251 8.867 8.867 0 0 1 .029 7.121 8.858 8.858 0 0 1-5.225 4.838Z" fill="#FFA96A"/><path opacity=".4" d="M476.994 209.382a161.095 161.095 0 0 1-49.275 11.61 8.91 8.91 0 0 1-6.765-2.005 8.915 8.915 0 0 1-3.18-6.299 9.3 9.3 0 0 1 8.702-9.074 143.241 143.241 0 0 0 43.905-10.442 9.277 9.277 0 0 1 11.809 4.251 8.867 8.867 0 0 1 .029 7.121 8.858 8.858 0 0 1-5.225 4.838Z" fill="#fff"/><path d="M479.778 213.061a172.267 172.267 0 0 1-52.879 12.431 9.496 9.496 0 0 1-9.694-5.156 9.506 9.506 0 0 1-.997-3.744 9.947 9.947 0 0 1 9.323-9.746 153.124 153.124 0 0 0 47.237-11.088 9.943 9.943 0 0 1 12.704 4.549 9.535 9.535 0 0 1-.063 7.62 9.502 9.502 0 0 1-5.631 5.134Z" fill="#FFA96A"/><path d="M478.585 216.144a161.088 161.088 0 0 1-49.275 11.61 8.892 8.892 0 0 1-6.765-2.005 8.898 8.898 0 0 1-3.18-6.299 9.3 9.3 0 0 1 8.702-9.074 143.051 143.051 0 0 0 43.93-10.342 9.272 9.272 0 0 1 11.809 4.251 8.845 8.845 0 0 1-.029 7.066 8.857 8.857 0 0 1-5.192 4.793Z" fill="#FFA96A"/><path opacity=".4" d="M478.585 216.144a161.088 161.088 0 0 1-49.275 11.61 8.892 8.892 0 0 1-6.765-2.005 8.898 8.898 0 0 1-3.18-6.299 9.3 9.3 0 0 1 8.702-9.074 143.051 143.051 0 0 0 43.93-10.342 9.272 9.272 0 0 1 11.809 4.251 8.845 8.845 0 0 1-.029 7.066 8.857 8.857 0 0 1-5.192 4.793Z" fill="#fff"/><path d="M426.177 213.26a.475.475 0 0 1-.447-.348 3.383 3.383 0 0 1 .621-2.486 10.22 10.22 0 0 1 4.202-3.978 5.351 5.351 0 0 1 3.804-.597 1.97 1.97 0 0 1 1.168 1.144c.522 1.318-.398 2.213-1.119 2.934-.3.265-.567.565-.795.895a.963.963 0 0 0 0 .845c.174.323.696.423.92.472a3.333 3.333 0 0 0 2.784-.994 5.612 5.612 0 0 0 1.094-2.138c.124-.373.274-.746.423-1.094a7.162 7.162 0 0 1 3.157-3.506c1.044-.596 3.506-1.342 4.326 0a1.863 1.863 0 0 1 .124 1.517c-.192.51-.46.988-.795 1.417-.448.696-.92 1.417-.771 2.039a.89.89 0 0 0 .597.621 1.74 1.74 0 0 0 1.293-.323 7.47 7.47 0 0 0 2.486-3.456v-.199a11.722 11.722 0 0 1 2.212-3.555 2.645 2.645 0 0 1 2.486-.721c1.169.423 1.293 1.89 1.045 3.033 0 .224-.125.473-.199.696a9.408 9.408 0 0 0-.249 1.069 1.724 1.724 0 0 0 .348 1.368c.671.671 2.238-.572 2.71-.945a9.287 9.287 0 0 0 2.486-3.63c.199-.472.348-.944.497-1.417.15-.472.373-1.094.597-1.616a6.724 6.724 0 0 1 1.74-2.486 1.866 1.866 0 0 1 2.288 0 2.043 2.043 0 0 1 .497 1.865l-.224 1.094c0 .323-.149.646-.199.969a2.763 2.763 0 0 0 .249 2.238 1.236 1.236 0 0 0 1.168.273 6.315 6.315 0 0 0 4.003-1.989 8.056 8.056 0 0 0 2.163-4.798c0-1.044-.174-2.262-.845-2.486a.417.417 0 0 1-.27-.208.421.421 0 0 1-.029-.339.445.445 0 0 1 .372-.333.43.43 0 0 1 .175.01c1.194.348 1.616 1.964 1.517 3.406a9.05 9.05 0 0 1-2.486 5.345 7.456 7.456 0 0 1-4.575 2.287 2.237 2.237 0 0 1-1.939-.572 3.693 3.693 0 0 1-.472-3.033c0-.323.124-.646.199-.994l.223-1.044a1.138 1.138 0 0 0-.223-1.044.944.944 0 0 0-1.119 0 5.335 5.335 0 0 0-1.442 2.187c-.224.522-.398 1.045-.572 1.567a25.28 25.28 0 0 1-.522 1.466 10.413 10.413 0 0 1-2.785 3.978c-1.69 1.417-3.082 1.716-3.928.87a2.495 2.495 0 0 1-.596-2.113c.05-.406.141-.806.273-1.193 0-.224.124-.423.174-.647.124-.596.199-1.74-.472-1.988a1.785 1.785 0 0 0-1.641.546 10.565 10.565 0 0 0-2.014 3.257v.224a8.16 8.16 0 0 1-2.884 3.829 2.496 2.496 0 0 1-1.989.422 1.79 1.79 0 0 1-1.268-1.292 3.683 3.683 0 0 1 .92-2.735c.265-.374.489-.774.672-1.194a.97.97 0 0 0 0-.795c-.398-.671-2.263-.174-3.108.298a6.569 6.569 0 0 0-2.76 3.083l-.373 1.019a7.203 7.203 0 0 1-1.292 2.486 4.334 4.334 0 0 1-3.605 1.244 2.023 2.023 0 0 1-1.566-.945 1.764 1.764 0 0 1 .124-1.716 5.38 5.38 0 0 1 .92-1.094c.77-.72 1.218-1.218.92-1.939a1.052 1.052 0 0 0-.647-.646 4.674 4.674 0 0 0-3.083.572 9.371 9.371 0 0 0-3.828 3.629 2.483 2.483 0 0 0-.497 1.716.455.455 0 0 1-.057.348.442.442 0 0 1-.292.199v.149Z" fill="#FAFAFA"/><path d="M342.445 364.715H243.87c-.696-8.801 1.342-37.441-.174-73.913a468.297 468.297 0 0 0-9.796-80.401 508.633 508.633 0 0 0-1.367-5.942s4.972-1.019 12.157-2.063c5.942-.871 13.4-1.766 20.71-2.114a367.73 367.73 0 0 1 41.891 0c6.439.597 12.729 1.666 17.751 2.636 6.414 1.292 10.193 2.486 10.193 2.486s24.314 55.565 7.21 159.311Z" fill="#FFA96A"/><path opacity=".3" d="M243.696 290.728a467.8 467.8 0 0 0-9.795-80.402c6.588-.572 17.85 0 19.714 10.715 2.014 11.412-.522 38.337-9.919 69.687Z" fill="#000"/><path d="M239.494 298.534s29.187-7.732 26.975-33.985c-2.213-26.254-17.527-64.963-17.527-64.963s2.809-1.889 9.248-1.044c2.188 1.964 16.16 30.331 18.074 47.485 10.864-1.144 37.963-1.815 42.737-1.492.944-9.497-3.829-35.029-9.696-44.626a35.378 35.378 0 0 1 9.696.92 144.987 144.987 0 0 1 11.187 52.408c.274 28.441 20.113 40.598 20.113 40.598s-.821 49.574.696 70.78c1.517 21.207 9.124 83.907 9.124 83.907L241.98 455.16s-8.9-123.088-2.486-156.626Z" fill="#263238"/><path d="m250.408 231.135-4.375 7.459a238.852 238.852 0 0 0-4.326 7.831 480.991 480.991 0 0 0-8.179 15.911c-2.487 5.346-4.973 10.716-7.16 16.086a162.244 162.244 0 0 0-5.619 16.184l-.274.995-.149.522a1.106 1.106 0 0 0-.149.447 11.75 11.75 0 0 0 0 2.312 35.327 35.327 0 0 0 1.467 6.912 118.992 118.992 0 0 0 6.315 15.762c4.972 10.69 10.988 21.555 17.03 32.071l-10.964 8.602a208.852 208.852 0 0 1-24.538-30.132 116.8 116.8 0 0 1-9.945-17.95 59.68 59.68 0 0 1-3.629-11.063 35 35 0 0 1-.746-7.011c-.007-1.406.093-2.81.298-4.201l.174-1.045.124-.646.274-1.268a182.461 182.461 0 0 1 12.43-38.137 268.205 268.205 0 0 1 8.528-17.627 323.185 323.185 0 0 1 4.748-8.552 202.666 202.666 0 0 1 5.196-8.527l23.469 15.065Z" fill="#B65B52"/><path d="M256.997 237.922c-2.909 12.68-10.964 27.099-15.986 37.416-1.318 2.735-2.486 5.172-3.53 7.136-1.741 3.455-2.835 5.544-2.835 5.544l-37.292-20.685s.473-1.566 1.318-4.201c.647-1.989 1.492-4.6 2.486-7.608 6.216-17.726 18.92-49.35 31.375-51.164 18.621-2.71 27.919 18.422 24.464 33.562Z" fill="#FFA96A"/><path d="m240.016 349.798 18.348-3.182-9.423 21.231s-16.756 0-15.985-8.726l7.06-9.323Z" fill="#B55B52"/><path d="m272.063 357.182-8.627 17.179-14.494-6.613 9.422-21.232 13.699 10.666ZM305.302 200.034c-12.182-2.884-14.32-10.417-13.5-18.696.194-2.073.517-4.133.97-6.165l-15.265-12.68-11.212-9.298c3.107 13.5 6.613 38.088-2.486 47.088 0 0 8.229 12.679 30.206 11.287 21.977-1.393 11.287-11.536 11.287-11.536Z" fill="#B55B52"/><path opacity=".2" d="M292.772 175.173a49.559 49.559 0 0 0-.97 6.165c-5.693-1.143-13.3-7.21-14.096-13.027a26.519 26.519 0 0 1-.199-5.818l15.265 12.68Z" fill="#000"/><path d="M306.247 109.738c8.527 3.978 5.991 24.314.621 26.179-7.558 2.56-12.629-31.823-.621-26.179Z" fill="#263238"/><path d="M261.671 133.779c3.878 17.925 5.245 28.59 15.836 36.769a23.834 23.834 0 0 0 24.479 3.088 23.843 23.843 0 0 0 14.106-20.242c1.392-16.682-5.221-43.184-24.066-48.256a24.118 24.118 0 0 0-30.355 28.641Z" fill="#B55B52"/><path d="M262.441 146.06c-3.704-2.933-25.955-14.643-12.43-29.286-4.277-6.365-5.793-18.497 11.038-20.983 16.831-2.486 38.137 6.613 41.295 0 11.485 0 13.002 17.403 4.002 20.436-9 3.033-35.079 1.79-35.079 1.79s7.309 41.99-8.826 28.043Z" fill="#263238"/><path d="M310.573 103.523c-19.119 2.486-49.4 12.43-64.118 22.375a1.166 1.166 0 0 1-1.613-.245 1.16 1.16 0 0 1-.226-.551l-2.959-23.916a1.244 1.244 0 0 1 .622-1.194 155.876 155.876 0 0 1 55.54-18.447 1.216 1.216 0 0 1 1.168.547l12.431 19.641a1.137 1.137 0 0 1 .093 1.138 1.138 1.138 0 0 1-.938.652Z" fill="#FFA96A"/><path d="M257.618 152.499a19.74 19.74 0 0 0 11.362 6.762c5.643.945 6.936-4.276 4.052-9.347-2.486-4.55-8.652-10.542-13.698-9.199-5.047 1.342-5.47 7.359-1.716 11.784Z" fill="#B55B52"/><path d="M287.825 135.569c.223 1.466 1.193 2.486 2.138 2.486.944 0 1.566-1.393 1.342-2.859-.224-1.467-1.193-2.487-2.163-2.487-.969 0-1.566 1.393-1.317 2.86ZM305.327 133.505c.224 1.467 1.193 2.486 2.163 2.486.969 0 1.566-1.417 1.342-2.884-.223-1.466-1.193-2.486-2.163-2.486-.969 0-1.566 1.492-1.342 2.884Z" fill="#263238"/><path d="M302.368 134.947a55.436 55.436 0 0 0 8.975 11.735 8.404 8.404 0 0 1-6.837 2.138l-2.138-13.873Z" fill="#A02724"/><path d="M298.167 153.519a12.845 12.845 0 0 1-9.298-3.829.475.475 0 0 1 0-.622.448.448 0 0 1 .621 0 12.274 12.274 0 0 0 10.243 3.431.424.424 0 0 1 0 .846c-.518.087-1.041.145-1.566.174ZM281.734 128.732a.865.865 0 0 1-.423 0 .867.867 0 0 1-.433-.87.872.872 0 0 1 .11-.324 8.399 8.399 0 0 1 6.513-4.425.894.894 0 0 1 .92.845.871.871 0 0 1-.82.895 6.695 6.695 0 0 0-5.122 3.431.847.847 0 0 1-.745.448ZM313.133 125.475a.873.873 0 0 1-.795-.174 7.19 7.19 0 0 0-6.216-1.666.892.892 0 0 1-1.093-.621.895.895 0 0 1 .596-1.069 9.05 9.05 0 0 1 7.832 2.014.87.87 0 0 1 0 1.218.908.908 0 0 1-.324.298ZM645.587 60.93l-17.615-6.412L396.74 689.823l17.615 6.411L645.587 60.929Z" fill="#263238"/><path d="M657.437.945a2.91 2.91 0 0 0-3.655 1.64l-21.455 53.527 8.925 3.257 17.95-54.82a2.913 2.913 0 0 0-1.765-3.604Z" fill="#263238"/><path d="M640.481 47.883C497.231-4.326 357.759 17.652 337.895 72.197l518.78 188.797c19.715-54.546-73.067-160.977-216.194-213.111Z" fill="#FFA96A"/><path d="M640.481 47.883c-89.152-32.32-184.768 5.42-204.633 59.965l322.873 117.494c19.715-54.545-29.187-145.015-118.24-177.46Z" fill="#fff"/><path d="M640.481 47.883c-34.681-12.63-86.169 41.295-106.008 95.84l125.624 45.745c19.74-54.546 14.966-128.955-19.616-141.585ZM137.886 676.873a91.588 91.588 0 1 0-.001 183.177 91.588 91.588 0 0 0 .001-183.177Zm66.43 85.373h-51.438l36.347-36.347a66.486 66.486 0 0 1 15.091 36.347Zm-60.214-60.214a66.434 66.434 0 0 1 36.446 15.066l-36.347 36.347-.099-51.413Zm-12.431 51.413-36.372-36.347a66.437 66.437 0 0 1 36.372-15.066v51.413Zm0 81.446A66.647 66.647 0 0 1 95.299 819.8l36.372-36.347v51.438Zm12.431-51.438 36.446 36.347a66.648 66.648 0 0 1-36.347 15.091l-.099-51.438Zm-57.58-57.554 36.348 36.347H71.432a66.48 66.48 0 0 1 15.09-36.347Zm-15.09 48.778h51.438l-36.347 36.347a66.655 66.655 0 0 1-15.09-36.347Zm117.793 36.347-36.347-36.347h51.438a66.661 66.661 0 0 1-15.091 36.347Z" fill="#FFA96A"/><path opacity=".2" d="M137.886 676.873a91.588 91.588 0 1 0-.001 183.177 91.588 91.588 0 0 0 .001-183.177Zm66.43 85.373h-51.438l36.347-36.347a66.486 66.486 0 0 1 15.091 36.347Zm-60.214-60.214a66.434 66.434 0 0 1 36.446 15.066l-36.347 36.347-.099-51.413Zm-12.431 51.413-36.372-36.347a66.437 66.437 0 0 1 36.372-15.066v51.413Zm0 81.446A66.647 66.647 0 0 1 95.299 819.8l36.372-36.347v51.438Zm12.431-51.438 36.446 36.347a66.648 66.648 0 0 1-36.347 15.091l-.099-51.438Zm-57.58-57.554 36.348 36.347H71.432a66.48 66.48 0 0 1 15.09-36.347Zm-15.09 48.778h51.438l-36.347 36.347a66.655 66.655 0 0 1-15.09-36.347Zm117.793 36.347-36.347-36.347h51.438a66.661 66.661 0 0 1-15.091 36.347Z" fill="#000"/><path d="M437.315 676.873a91.59 91.59 0 1 0-.001 183.18 91.59 91.59 0 0 0 .001-183.18Zm66.43 85.373h-51.438l36.347-36.347a66.307 66.307 0 0 1 15.091 36.347Zm-60.214-60.214a66.358 66.358 0 0 1 36.347 15.066l-36.347 36.347v-51.413ZM431.1 753.445l-36.347-36.347a66.358 66.358 0 0 1 36.347-15.066v51.413Zm0 81.446a66.58 66.58 0 0 1-36.347-15.091l36.347-36.347v51.438Zm12.431-51.438 36.347 36.347a66.585 66.585 0 0 1-36.347 15.091v-51.438Zm-57.579-57.554 36.347 36.347h-51.413a66.283 66.283 0 0 1 15.066-36.347Zm-15.066 48.778h51.413l-36.347 36.347a66.426 66.426 0 0 1-15.066-36.347Zm117.768 36.347-36.347-36.347h51.438a66.468 66.468 0 0 1-15.091 36.347Z" fill="#FFA96A"/><path opacity=".2" d="M437.315 676.873a91.59 91.59 0 1 0-.001 183.18 91.59 91.59 0 0 0 .001-183.18Zm66.43 85.373h-51.438l36.347-36.347a66.307 66.307 0 0 1 15.091 36.347Zm-60.214-60.214a66.358 66.358 0 0 1 36.347 15.066l-36.347 36.347v-51.413ZM431.1 753.445l-36.347-36.347a66.358 66.358 0 0 1 36.347-15.066v51.413Zm0 81.446a66.58 66.58 0 0 1-36.347-15.091l36.347-36.347v51.438Zm12.431-51.438 36.347 36.347a66.585 66.585 0 0 1-36.347 15.091v-51.438Zm-57.579-57.554 36.347 36.347h-51.413a66.283 66.283 0 0 1 15.066-36.347Zm-15.066 48.778h51.413l-36.347 36.347a66.426 66.426 0 0 1-15.066-36.347Zm117.768 36.347-36.347-36.347h51.438a66.468 66.468 0 0 1-15.091 36.347Z" fill="#000"/><path d="M670.713 466.919H100.57v322.65h570.143v-322.65ZM676.008 444.818H100.57v22.101h575.438v-22.101Z" fill="#FFA96A"/><path opacity=".2" d="M670.738 789.569v-322.65h5.27v-22.101h-76.846L506.33 789.569h164.408Z" fill="#000"/><path d="M5.848 789.569h94.746v-322.65H5.848v322.65Z" fill="#FFA96A"/><path opacity=".2" d="M5.848 789.569h94.746v-322.65H5.848v322.65Z" fill="#000"/><path d="M.528 466.919H100.57v-22.101H.528v22.101Z" fill="#FFA96A"/><path opacity=".2" d="M.528 466.919H100.57v-22.101H.528v22.101Z" fill="#000"/><path d="M232.757 676.873a91.587 91.587 0 0 0-64.763 156.352 91.587 91.587 0 0 0 140.916-13.879 91.59 91.59 0 0 0-11.39-115.647 91.585 91.585 0 0 0-64.763-26.826Zm66.429 85.373h-51.512l36.347-36.347a66.481 66.481 0 0 1 15.041 36.347h.124Zm-60.214-60.214a66.434 66.434 0 0 1 36.347 15.066l-36.347 36.347v-51.413Zm-12.43 51.413-36.348-36.347a66.29 66.29 0 0 1 36.348-15.066v51.413Zm0 81.446a66.478 66.478 0 0 1-36.348-15.091l36.348-36.347v51.438Zm12.43-51.438 36.347 36.347a66.648 66.648 0 0 1-36.347 15.091v-51.438Zm-57.578-57.554 36.347 36.347h-51.538a66.283 66.283 0 0 1 15.066-36.347h.125Zm-15.066 48.778h51.413l-36.347 36.347a66.43 66.43 0 0 1-15.191-36.347h.125Zm117.767 36.347-36.421-36.347h51.438a66.655 66.655 0 0 1-15.141 36.347h.124Z" fill="#FFA96A"/><path opacity=".2" d="M232.757 676.873a91.587 91.587 0 0 0-64.763 156.352 91.587 91.587 0 0 0 140.916-13.879 91.59 91.59 0 0 0-11.39-115.647 91.585 91.585 0 0 0-64.763-26.826Zm66.429 85.373h-51.512l36.347-36.347a66.481 66.481 0 0 1 15.041 36.347h.124Zm-60.214-60.214a66.434 66.434 0 0 1 36.347 15.066l-36.347 36.347v-51.413Zm-12.43 51.413-36.348-36.347a66.29 66.29 0 0 1 36.348-15.066v51.413Zm0 81.446a66.478 66.478 0 0 1-36.348-15.091l36.348-36.347v51.438Zm12.43-51.438 36.347 36.347a66.648 66.648 0 0 1-36.347 15.091v-51.438Zm-57.578-57.554 36.347 36.347h-51.538a66.283 66.283 0 0 1 15.066-36.347h.125Zm-15.066 48.778h51.413l-36.347 36.347a66.43 66.43 0 0 1-15.191-36.347h.125Zm117.767 36.347-36.421-36.347h51.438a66.655 66.655 0 0 1-15.141 36.347h.124Z" fill="#fff"/><path d="M532.062 676.873a91.585 91.585 0 0 0-84.618 56.539 91.59 91.59 0 0 0 160.771 85.934 91.59 91.59 0 0 0-76.153-142.473Zm66.429 85.373h-51.413l36.347-36.347a66.283 66.283 0 0 1 15.066 36.347Zm-60.214-60.214a66.358 66.358 0 0 1 36.347 15.066l-36.347 36.347v-51.413Zm-12.431 51.413-36.347-36.347a66.358 66.358 0 0 1 36.347-15.066v51.413Zm0 81.446a66.582 66.582 0 0 1-36.347-15.091l36.347-36.347v51.438Zm12.431-51.438 36.347 36.347a66.58 66.58 0 0 1-36.347 15.091v-51.438Zm-57.554-57.554 36.347 36.347h-51.438a66.307 66.307 0 0 1 15.091-36.347Zm-15.091 48.778h51.438l-36.347 36.347a66.453 66.453 0 0 1-15.091-36.347Zm117.793 36.347-36.347-36.347h51.413a66.434 66.434 0 0 1-15.066 36.347Z" fill="#FFA96A"/><path opacity=".2" d="M532.062 676.873a91.585 91.585 0 0 0-84.618 56.539 91.59 91.59 0 0 0 160.771 85.934 91.59 91.59 0 0 0-76.153-142.473Zm66.429 85.373h-51.413l36.347-36.347a66.283 66.283 0 0 1 15.066 36.347Zm-60.214-60.214a66.358 66.358 0 0 1 36.347 15.066l-36.347 36.347v-51.413Zm-12.431 51.413-36.347-36.347a66.358 66.358 0 0 1 36.347-15.066v51.413Zm0 81.446a66.582 66.582 0 0 1-36.347-15.091l36.347-36.347v51.438Zm12.431-51.438 36.347 36.347a66.58 66.58 0 0 1-36.347 15.091v-51.438Zm-57.554-57.554 36.347 36.347h-51.438a66.307 66.307 0 0 1 15.091-36.347Zm-15.091 48.778h51.438l-36.347 36.347a66.453 66.453 0 0 1-15.091-36.347Zm117.793 36.347-36.347-36.347h51.413a66.434 66.434 0 0 1-15.066 36.347Z" fill="#fff"/><path opacity=".2" d="M670.713 466.919H5.823v9.398h664.89v-9.398Z" fill="#000"/><path d="M113.572 357.53v-17.95h-4.848l-1.765-26.8h-4.003l-1.765 26.8h-4.848v17.95h-9.298v87.288h35.825V357.53h-9.298Z" fill="#FFA96A"/><path opacity=".4" d="M113.572 357.53v-17.95h-4.848l-1.765-26.8h-4.003l-1.765 26.8h-4.848v17.95h-9.298v87.288h35.825V357.53h-9.298Z" fill="#fff"/><path d="M159.143 357.53v-17.95h-4.823l-1.766-26.8h-4.027l-1.765 26.8h-4.823v17.95h-9.323v87.288h35.825V357.53h-9.298Z" fill="#FFA96A"/><path opacity=".2" d="M159.143 357.53v-17.95h-4.823l-1.766-26.8h-4.027l-1.765 26.8h-4.823v17.95h-9.323v87.288h35.825V357.53h-9.298Z" fill="#000"/><path d="M503.869 599.032a791.085 791.085 0 0 1-248.215 26.9c-26.999-1.342-46.64-23.196-43.731-46.615 2.909-23.469 24.513-40.325 48.057-39.156a705.61 705.61 0 0 0 221.265-23.991c22.723-6.166 47.435 5.668 55.316 27.944 7.881 22.25-6.613 47.833-32.692 54.918Z" fill="#FFA96A"/><path opacity=".4" d="M503.869 599.032a791.085 791.085 0 0 1-248.215 26.9c-26.999-1.342-46.64-23.196-43.731-46.615 2.909-23.469 24.513-40.325 48.057-39.156a705.61 705.61 0 0 0 221.265-23.991c22.723-6.166 47.435 5.668 55.316 27.944 7.881 22.25-6.613 47.833-32.692 54.918Z" fill="#fff"/><path d="M515.255 618.996a848.897 848.897 0 0 1-266.438 28.864c-28.963-1.442-50.07-24.862-46.938-50.021 3.133-25.185 26.303-43.284 51.587-42.041a756.64 756.64 0 0 0 237.525-25.756c24.414-6.613 50.916 6.091 59.368 30.008 8.428 23.891-7.135 51.338-35.104 58.946Z" fill="#FFA96A"/><path d="M507.573 633.216a791.154 791.154 0 0 1-248.24 26.9c-26.974-1.342-46.614-23.195-43.706-46.615 2.909-23.469 24.513-40.3 48.032-39.156a705.431 705.431 0 0 0 221.265-23.991c22.748-6.166 47.461 5.668 55.317 27.944 7.906 22.126-6.663 47.708-32.668 54.918Z" fill="#FFA96A"/><path opacity=".4" d="M507.573 633.216a791.154 791.154 0 0 1-248.24 26.9c-26.974-1.342-46.614-23.195-43.706-46.615 2.909-23.469 24.513-40.3 48.032-39.156a705.431 705.431 0 0 0 221.265-23.991c22.748-6.166 47.461 5.668 55.317 27.944 7.906 22.126-6.663 47.708-32.668 54.918Z" fill="#fff"/><path d="M297.769 592.17a20.186 20.186 0 0 1-5.171-.671 9.944 9.944 0 0 1-7.135-5.519 8.892 8.892 0 0 1 1.591-8.329 28.195 28.195 0 0 1 5.245-4.723c4.127-3.158 6.638-5.271 5.644-9a5.427 5.427 0 0 0-2.735-3.555c-3.679-1.964-10.367-.796-15.414.945a46.92 46.92 0 0 0-20.958 15.463 12.633 12.633 0 0 0-3.53 8.105 2.21 2.21 0 0 1-2.039 2.486 2.246 2.246 0 0 1-1.675-.492 2.236 2.236 0 0 1-.811-1.546c-.298-3.406 1.169-7.086 4.45-11.263a50.577 50.577 0 0 1 23.022-16.93c3.679-1.268 12.928-3.878 18.994-.671a9.762 9.762 0 0 1 4.972 6.364c1.815 6.812-3.232 10.641-7.259 13.699a23.157 23.157 0 0 0-4.401 3.903 4.445 4.445 0 0 0-.945 4.003c.647 1.765 3.083 2.486 4.103 2.859a16.465 16.465 0 0 0 14.32-3.083 29.235 29.235 0 0 0 6.638-9.945c.845-1.715 1.74-3.48 2.709-4.972a36.45 36.45 0 0 1 17.577-15.265c5.544-2.188 18-4.35 21.132 2.909a9.169 9.169 0 0 1-.323 7.458 28.92 28.92 0 0 1-4.699 6.589c-2.635 3.082-5.37 6.29-4.972 9.372a4.353 4.353 0 0 0 2.486 3.481 8.34 8.34 0 0 0 6.464-.87c6.787-3.108 10.541-9.025 14.494-15.29l.622-.969c3.555-5.594 7.583-11.959 13.077-15.961 3.232-2.487 8.627-4.351 13.027-2.089 5.47 2.834 5.147 10.119 3.232 15.489-.398 1.119-.87 2.237-1.342 3.356a33.543 33.543 0 0 0-1.865 4.972 8.531 8.531 0 0 0 .845 6.887c2.884 3.729 11.337-1.318 13.848-2.959a45.829 45.829 0 0 0 14.519-16.209c1.193-2.138 2.287-4.401 3.332-6.613 1.044-2.213 2.486-4.972 3.878-7.459a32.322 32.322 0 0 1 9.944-11.56 9.102 9.102 0 0 1 11.238 1.268 9.952 9.952 0 0 1 1.268 9.397c-.523 1.765-1.144 3.506-1.766 5.246-.621 1.74-1.069 3.008-1.541 4.525-1.541 4.972-1.591 9.099-.149 11.163a6.643 6.643 0 0 0 5.618 2.088 31.843 31.843 0 0 0 20.834-7.334 39.778 39.778 0 0 0 13.475-22.176c1.069-5.172.373-11.263-2.635-12.431a2.24 2.24 0 0 1 .026-4.138 2.238 2.238 0 0 1 1.714.011c5.644 2.486 6.713 10.541 5.271 17.552a44.5 44.5 0 0 1-15.041 24.861 36.175 36.175 0 0 1-23.768 8.329 10.916 10.916 0 0 1-9.149-4.003c-2.933-4.152-1.864-10.466-.472-14.917a104.09 104.09 0 0 1 1.616-4.698 105.982 105.982 0 0 0 1.69-4.973 5.783 5.783 0 0 0-.397-5.196 4.75 4.75 0 0 0-5.594-.298 27.333 27.333 0 0 0-8.378 9.945c-1.343 2.337-2.486 4.972-3.705 7.259-1.218 2.287-2.212 4.599-3.48 6.862a50.251 50.251 0 0 1-15.986 17.776c-9.149 5.941-16.185 6.637-19.889 1.964a12.428 12.428 0 0 1-1.641-10.741 36.37 36.37 0 0 1 2.064-5.668c.447-1.044.87-2.063 1.243-3.132.994-2.76 2.038-8.379-1.069-9.945-2.487-1.243-6.017 0-8.329 1.716-4.798 3.505-8.602 9.497-11.933 14.767l-.622.945c-4.127 6.538-8.403 13.301-16.383 16.98a12.44 12.44 0 0 1-9.945.92 8.71 8.71 0 0 1-5.345-7.16c-.522-4.972 3.008-9.099 6.091-12.729a24.875 24.875 0 0 0 4.027-5.519 4.789 4.789 0 0 0 .473-4.45c-1.566-3.63-10.989-2.238-15.389-.498a31.994 31.994 0 0 0-15.389 13.401c-.871 1.466-1.691 3.082-2.487 4.773a32.54 32.54 0 0 1-7.831 11.362 21.058 21.058 0 0 1-13.226 4.499Z" fill="#FAFAFA"/></svg>