<svg width="860" height="861" viewBox="0 0 860 861" fill="none" xmlns="http://www.w3.org/2000/svg">
<path d="M396.07 824.449L413.598 818.756L402.708 777.412L385.156 783.105L396.07 824.449Z" fill="#B55B52"/>
<path d="M413.846 816.419L394.156 822.808C393.824 822.907 393.543 823.13 393.371 823.431C393.2 823.733 393.151 824.088 393.236 824.424L397.338 840.336C397.612 841.153 398.194 841.831 398.96 842.226C399.726 842.621 400.616 842.701 401.44 842.449C408.252 840.112 411.385 838.645 420.062 835.836C425.382 834.095 448.229 827.308 455.588 824.922C462.947 822.535 460.362 815.325 457.03 815.673C442.113 817.264 423.443 818.806 417.252 816.519C416.159 816.109 414.961 816.074 413.846 816.419Z" fill="#263238"/>
<path opacity="0.2" d="M385.156 783.105L402.708 777.412L408.302 798.743L390.775 804.436L385.156 783.105Z" fill="black"/>
<path d="M342.445 364.715C342.445 364.715 367.306 514.753 374.764 567.085C382.844 624.391 414.542 792.005 414.542 792.005L381.925 800.906C381.925 800.906 335.459 638.487 322.258 582.773C308.037 522.285 276.562 364.715 276.562 364.715H342.445Z" fill="#263238"/>
<path opacity="0.3" d="M302.493 426.147C315.222 457.945 316.664 511.993 311.492 534.144C303.686 497.772 294.736 454.265 287.849 420.429C290.311 411.752 294.761 406.805 302.493 426.147Z" fill="black"/>
<path d="M381.154 801.552L416.009 791.956L415.338 777.76L376.107 791.309L381.154 801.552Z" fill="#FFA96A"/>
<path d="M421.056 817.463C419.435 817.938 417.768 818.238 416.084 818.358C416 818.359 415.918 818.34 415.844 818.3C415.77 818.261 415.707 818.204 415.661 818.134C415.62 818.063 415.598 817.981 415.598 817.898C415.598 817.815 415.62 817.734 415.661 817.662C416.084 817.09 419.962 812.093 422.374 812.242C422.648 812.258 422.913 812.344 423.144 812.492C423.375 812.64 423.563 812.845 423.691 813.088C423.956 813.441 424.115 813.862 424.15 814.302C424.185 814.742 424.095 815.183 423.89 815.574C423.197 816.518 422.194 817.187 421.056 817.463ZM417.128 817.463C420.459 817.065 422.722 816.22 423.294 815.151C423.405 814.896 423.445 814.616 423.41 814.34C423.375 814.065 423.266 813.804 423.095 813.585C423.038 813.466 422.95 813.364 422.841 813.289C422.732 813.215 422.605 813.171 422.473 813.162C421.155 813.013 418.719 815.449 417.128 817.389V817.463Z" fill="#FFA96A"/>
<path d="M416.283 818.333H416.084C416.01 818.323 415.94 818.292 415.883 818.243C415.826 818.195 415.783 818.131 415.761 818.06C415.761 817.861 413.647 812.938 414.841 810.602C415.001 810.309 415.225 810.057 415.496 809.863C415.767 809.669 416.079 809.539 416.407 809.483C416.756 809.379 417.131 809.395 417.469 809.531C417.808 809.666 418.091 809.912 418.272 810.229C419.316 812.019 417.874 816.519 416.482 818.134L416.283 818.333ZM416.283 810.452C416.116 810.5 415.962 810.583 415.829 810.694C415.696 810.805 415.588 810.943 415.512 811.099C415.098 813.098 415.324 815.177 416.158 817.041C417.384 815.189 417.839 812.932 417.426 810.751C417.302 810.527 417.078 810.278 416.457 810.403L416.283 810.452Z" fill="#FFA96A"/>
<path d="M349.729 214.851C350.077 215.945 350.624 217.611 351.121 219.003L352.712 223.453C353.823 226.403 355.016 229.337 356.292 232.254C358.758 238.005 361.538 243.615 364.621 249.06C370.737 259.775 378.17 269.446 386.996 275.637L388.537 276.706C388.537 276.706 388.537 276.855 388.91 276.905C390.593 276.887 392.244 276.442 393.709 275.612C398.785 272.884 403.469 269.48 407.631 265.493C412.413 261.112 416.96 256.481 421.255 251.621C425.705 246.649 430.056 241.527 434.158 236.48L445.992 243.64C439.827 256.727 432.07 269.002 422.896 280.186C417.869 286.415 411.906 291.824 405.219 296.222C400.845 299.049 395.892 300.859 390.725 301.517C387.433 301.853 384.107 301.549 380.93 300.622C379.293 300.14 377.71 299.49 376.206 298.683L373.347 297.067C366.379 292.893 360.077 287.697 354.652 281.653C349.462 275.98 344.833 269.819 340.829 263.256C336.925 256.912 333.461 250.309 330.462 243.491C328.995 240.085 327.627 236.679 326.335 233.199C325.713 231.458 325.067 229.718 324.495 227.953C323.923 226.188 323.426 224.497 322.804 222.285L349.729 214.851Z" fill="#B65B52"/>
<path d="M378.817 257.936L349.605 279.664C349.605 279.664 348.486 278.446 346.646 276.308C345.304 274.742 343.563 272.654 341.55 270.217C330.238 256.444 313.68 231.26 313.556 218.953C313.357 200.581 332.426 197.871 353.831 216.666C363.079 224.771 367.903 238.221 372.601 246.5C374.143 249.234 375.46 251.646 376.455 253.51C377.996 256.295 378.817 257.936 378.817 257.936Z" fill="#FFA96A"/>
<path d="M258.041 832.504H276.488L278.875 789.817H260.427L258.041 832.504Z" fill="#B55B52"/>
<path d="M277.507 830.366H256.822C256.649 830.356 256.474 830.381 256.311 830.44C256.147 830.499 255.996 830.59 255.869 830.709C255.741 830.827 255.639 830.97 255.567 831.129C255.496 831.288 255.458 831.46 255.455 831.634L254.436 848.017C254.436 848.879 254.775 849.707 255.379 850.321C255.984 850.935 256.806 851.286 257.668 851.299C264.878 851.175 268.308 850.752 277.432 850.752C283.026 850.752 306.843 851.324 314.575 851.324C322.307 851.324 322.034 843.667 318.826 842.971C304.109 839.888 285.885 835.512 280.689 831.51C279.788 830.781 278.666 830.378 277.507 830.366Z" fill="#263238"/>
<path opacity="0.2" d="M260.428 789.842H278.875L277.631 811.845H259.184L260.428 789.842Z" fill="black"/>
<path d="M306.446 363.671C306.446 363.671 308.186 504.535 305.203 557.29C301.921 615.093 285.537 806.524 285.537 806.524H251.776C251.776 806.524 252.795 619.742 250.756 562.536C248.544 500.383 242.826 363.646 242.826 363.646L306.446 363.671Z" fill="#263238"/>
<path d="M250.408 806.524H286.905L288.918 793.721L248.668 795.71L250.408 806.524Z" fill="#FFA96A"/>
<path d="M283.971 833.573C282.295 833.535 280.629 833.318 278.999 832.927C278.916 832.908 278.841 832.865 278.784 832.803C278.726 832.74 278.688 832.663 278.676 832.579C278.654 832.499 278.659 832.414 278.69 832.338C278.722 832.261 278.778 832.197 278.85 832.156C279.421 831.733 284.642 828.178 286.905 829.073C287.159 829.171 287.383 829.332 287.557 829.54C287.731 829.749 287.849 829.999 287.899 830.267C288.03 830.669 288.049 831.1 287.953 831.512C287.856 831.924 287.648 832.302 287.352 832.604C286.381 833.328 285.179 833.673 283.971 833.573ZM280.242 832.305C283.548 832.952 285.96 832.852 286.83 832.007C287.009 831.798 287.13 831.546 287.183 831.276C287.235 831.005 287.216 830.726 287.128 830.466C287.11 830.333 287.057 830.207 286.974 830.102C286.891 829.997 286.781 829.917 286.656 829.869C285.438 829.397 282.479 830.938 280.242 832.305Z" fill="#FFA96A"/>
<path d="M279.173 832.927C279.109 832.952 279.038 832.952 278.974 832.927C278.905 832.896 278.846 832.848 278.802 832.787C278.759 832.726 278.732 832.654 278.725 832.579C278.725 832.355 278.303 827.06 280.167 825.27C280.406 825.041 280.693 824.869 281.007 824.765C281.321 824.662 281.654 824.631 281.982 824.673C282.348 824.69 282.699 824.825 282.981 825.058C283.263 825.291 283.463 825.61 283.548 825.966C283.971 827.98 281.211 831.833 279.372 832.927H279.173ZM281.659 825.469C281.488 825.466 281.319 825.497 281.161 825.561C281.003 825.625 280.859 825.721 280.739 825.842C279.716 827.608 279.289 829.656 279.521 831.684C281.137 830.341 282.952 827.408 282.678 826.09C282.678 825.842 282.479 825.543 281.858 825.469H281.659Z" fill="#FFA96A"/>
<path opacity="0.3" d="M313.432 221.066C320.02 216.716 324.818 227.978 337.82 237.5C343.613 241.726 356.317 269.397 355.223 275.488L349.605 279.664C349.605 279.664 313.282 239.389 313.432 221.066Z" fill="black"/>
<path d="M431.97 239.588L438.31 219.326L454.768 231.384C454.768 231.384 445.793 249.458 439.702 247.817L431.97 239.588Z" fill="#B55B52"/>
<path d="M455.663 211.57L464.911 217.735L454.768 231.384L438.31 219.326L455.663 211.57Z" fill="#B55B52"/>
<path d="M476.994 209.382C461.283 215.825 444.653 219.743 427.719 220.992C426.514 221.136 425.293 221.033 424.129 220.688C422.966 220.344 421.885 219.764 420.954 218.987C420.023 218.209 419.26 217.249 418.713 216.166C418.167 215.083 417.847 213.899 417.774 212.688C417.826 210.361 418.748 208.138 420.359 206.458C421.97 204.777 424.153 203.763 426.476 203.614C441.571 202.475 456.389 198.951 470.381 193.172C472.524 192.272 474.927 192.209 477.114 192.996C479.301 193.784 481.112 195.364 482.19 197.423C482.687 198.544 482.947 199.755 482.952 200.981C482.957 202.207 482.707 203.42 482.219 204.544C481.73 205.668 481.014 206.679 480.114 207.512C479.215 208.344 478.152 208.981 476.994 209.382Z" fill="#FFA96A"/>
<path opacity="0.4" d="M476.994 209.382C461.283 215.825 444.653 219.743 427.719 220.992C426.514 221.136 425.293 221.033 424.129 220.688C422.966 220.344 421.885 219.764 420.954 218.987C420.023 218.209 419.26 217.249 418.713 216.166C418.167 215.083 417.847 213.899 417.774 212.688C417.826 210.361 418.748 208.138 420.359 206.458C421.97 204.777 424.153 203.763 426.476 203.614C441.571 202.475 456.389 198.951 470.381 193.172C472.524 192.272 474.927 192.209 477.114 192.996C479.301 193.784 481.112 195.364 482.19 197.423C482.687 198.544 482.947 199.755 482.952 200.981C482.957 202.207 482.707 203.42 482.219 204.544C481.73 205.668 481.014 206.679 480.114 207.512C479.215 208.344 478.152 208.981 476.994 209.382Z" fill="white"/>
<path d="M479.778 213.061C462.92 219.975 445.072 224.171 426.899 225.492C425.604 225.658 424.289 225.555 423.036 225.19C421.782 224.825 420.618 224.206 419.615 223.371C418.611 222.535 417.791 221.502 417.205 220.336C416.619 219.17 416.28 217.895 416.208 216.592C416.253 214.093 417.238 211.703 418.965 209.897C420.693 208.091 423.037 207.002 425.531 206.846C441.766 205.684 457.712 201.941 472.768 195.758C475.069 194.78 477.655 194.705 480.009 195.548C482.364 196.391 484.314 198.091 485.472 200.307C485.986 201.513 486.247 202.813 486.236 204.124C486.225 205.435 485.944 206.73 485.409 207.927C484.875 209.125 484.099 210.199 483.13 211.082C482.161 211.965 481.02 212.639 479.778 213.061Z" fill="#FFA96A"/>
<path d="M478.585 216.144C462.875 222.587 446.244 226.505 429.31 227.754C428.105 227.899 426.884 227.795 425.72 227.45C424.557 227.106 423.477 226.527 422.545 225.749C421.614 224.971 420.851 224.011 420.305 222.928C419.758 221.845 419.438 220.662 419.365 219.45C419.417 217.123 420.339 214.9 421.95 213.22C423.561 211.54 425.744 210.525 428.067 210.376C443.165 209.275 457.993 205.784 471.997 200.034C474.14 199.133 476.543 199.071 478.73 199.858C480.917 200.645 482.729 202.225 483.806 204.285C484.287 205.402 484.532 206.605 484.527 207.821C484.522 209.037 484.267 210.238 483.777 211.351C483.287 212.464 482.573 213.463 481.68 214.288C480.787 215.113 479.733 215.744 478.585 216.144Z" fill="#FFA96A"/>
<path opacity="0.4" d="M478.585 216.144C462.875 222.587 446.244 226.505 429.31 227.754C428.105 227.899 426.884 227.795 425.72 227.45C424.557 227.106 423.477 226.527 422.545 225.749C421.614 224.971 420.851 224.011 420.305 222.928C419.758 221.845 419.438 220.662 419.365 219.45C419.417 217.123 420.339 214.9 421.95 213.22C423.561 211.54 425.744 210.525 428.067 210.376C443.165 209.275 457.993 205.784 471.997 200.034C474.14 199.133 476.543 199.071 478.73 199.858C480.917 200.645 482.729 202.225 483.806 204.285C484.287 205.402 484.532 206.605 484.527 207.821C484.522 209.037 484.267 210.238 483.777 211.351C483.287 212.464 482.573 213.463 481.68 214.288C480.787 215.113 479.733 215.744 478.585 216.144Z" fill="white"/>
<path d="M426.177 213.26C426.075 213.258 425.976 213.223 425.896 213.161C425.815 213.098 425.757 213.011 425.73 212.912C425.603 212.034 425.826 211.141 426.351 210.426C427.339 208.723 428.799 207.341 430.553 206.448C431.703 205.784 433.059 205.571 434.357 205.851C434.622 205.947 434.864 206.098 435.066 206.296C435.267 206.493 435.424 206.732 435.525 206.995C436.047 208.313 435.127 209.208 434.406 209.929C434.106 210.194 433.839 210.494 433.611 210.824C433.547 210.955 433.514 211.1 433.514 211.246C433.514 211.393 433.547 211.537 433.611 211.669C433.785 211.992 434.307 212.092 434.531 212.141C435.04 212.201 435.556 212.142 436.039 211.97C436.522 211.797 436.959 211.516 437.315 211.147C437.83 210.521 438.203 209.792 438.409 209.009C438.533 208.636 438.683 208.263 438.832 207.915C439.458 206.423 440.571 205.188 441.989 204.409C443.033 203.813 445.495 203.067 446.315 204.409C446.441 204.639 446.518 204.893 446.539 205.154C446.56 205.416 446.526 205.679 446.439 205.926C446.247 206.436 445.979 206.914 445.644 207.343C445.196 208.039 444.724 208.76 444.873 209.382C444.912 209.527 444.987 209.66 445.092 209.769C445.196 209.878 445.326 209.958 445.47 210.003C445.696 210.037 445.927 210.026 446.148 209.97C446.37 209.915 446.579 209.816 446.763 209.68C447.909 208.794 448.773 207.593 449.249 206.224V206.025C449.767 204.717 450.516 203.513 451.461 202.47C451.779 202.146 452.174 201.91 452.61 201.783C453.045 201.657 453.506 201.645 453.947 201.749C455.116 202.172 455.24 203.639 454.992 204.782C454.992 205.006 454.867 205.255 454.793 205.478C454.689 205.83 454.606 206.187 454.544 206.547C454.502 206.787 454.511 207.033 454.571 207.269C454.631 207.504 454.741 207.725 454.892 207.915C455.563 208.586 457.13 207.343 457.602 206.97C458.709 205.977 459.562 204.732 460.088 203.34C460.287 202.868 460.436 202.396 460.585 201.923C460.735 201.451 460.958 200.829 461.182 200.307C461.565 199.357 462.16 198.506 462.922 197.821C463.249 197.567 463.652 197.429 464.066 197.429C464.48 197.429 464.883 197.567 465.21 197.821C465.44 198.067 465.606 198.366 465.693 198.691C465.78 199.016 465.784 199.358 465.707 199.686L465.483 200.78C465.483 201.103 465.334 201.426 465.284 201.749C465.166 202.119 465.127 202.509 465.17 202.895C465.213 203.28 465.336 203.652 465.533 203.987C465.689 204.127 465.878 204.226 466.082 204.274C466.286 204.322 466.499 204.317 466.701 204.26C468.233 204.107 469.657 203.4 470.704 202.271C471.942 200.959 472.703 199.27 472.867 197.473C472.867 196.429 472.693 195.211 472.022 194.987C471.965 194.973 471.911 194.947 471.865 194.911C471.819 194.876 471.78 194.831 471.752 194.779C471.724 194.728 471.707 194.671 471.702 194.613C471.697 194.554 471.704 194.495 471.723 194.44C471.738 194.383 471.763 194.329 471.799 194.282C471.834 194.234 471.879 194.195 471.929 194.165C471.98 194.134 472.037 194.115 472.095 194.107C472.154 194.098 472.213 194.102 472.27 194.117C473.464 194.465 473.886 196.081 473.787 197.523C473.578 199.532 472.703 201.414 471.301 202.868C470.093 204.146 468.473 204.956 466.726 205.155C466.381 205.219 466.025 205.2 465.688 205.101C465.351 205.002 465.043 204.824 464.787 204.583C464.496 204.141 464.303 203.641 464.222 203.118C464.14 202.595 464.172 202.06 464.315 201.55C464.315 201.227 464.439 200.904 464.514 200.556L464.737 199.512C464.788 199.333 464.794 199.144 464.755 198.962C464.716 198.78 464.633 198.61 464.514 198.468C464.351 198.348 464.155 198.284 463.954 198.284C463.753 198.284 463.557 198.348 463.395 198.468C462.74 199.066 462.244 199.818 461.953 200.655C461.729 201.177 461.555 201.7 461.381 202.222C461.207 202.744 461.058 203.191 460.859 203.688C460.257 205.215 459.303 206.578 458.074 207.666C456.384 209.083 454.992 209.382 454.146 208.536C453.892 208.253 453.706 207.916 453.602 207.549C453.499 207.183 453.481 206.798 453.55 206.423C453.6 206.017 453.691 205.617 453.823 205.23C453.823 205.006 453.947 204.807 453.997 204.583C454.121 203.987 454.196 202.843 453.525 202.595C453.227 202.54 452.921 202.561 452.634 202.657C452.347 202.752 452.089 202.919 451.884 203.141C451.02 204.095 450.337 205.199 449.87 206.398V206.622C449.314 208.158 448.309 209.492 446.986 210.451C446.703 210.657 446.38 210.802 446.037 210.875C445.694 210.947 445.34 210.947 444.997 210.873C444.69 210.79 444.411 210.626 444.188 210.399C443.965 210.172 443.807 209.889 443.729 209.581C443.691 209.086 443.752 208.589 443.91 208.119C444.068 207.649 444.32 207.216 444.649 206.846C444.914 206.472 445.138 206.072 445.321 205.652C445.377 205.527 445.406 205.392 445.406 205.255C445.406 205.118 445.377 204.982 445.321 204.857C444.923 204.186 443.058 204.683 442.213 205.155C440.985 205.858 440.017 206.94 439.453 208.238L439.08 209.257C438.816 210.163 438.377 211.007 437.788 211.743C437.322 212.212 436.754 212.568 436.13 212.784C435.505 212.999 434.839 213.069 434.183 212.987C433.866 212.964 433.558 212.866 433.286 212.702C433.014 212.538 432.785 212.312 432.617 212.042C432.489 211.769 432.434 211.468 432.456 211.168C432.477 210.868 432.576 210.578 432.741 210.326C432.997 209.922 433.307 209.555 433.661 209.232C434.431 208.512 434.879 208.014 434.581 207.293C434.529 207.144 434.444 207.008 434.332 206.896C434.22 206.784 434.084 206.699 433.934 206.647C432.871 206.477 431.782 206.679 430.851 207.219C429.254 208.037 427.925 209.297 427.023 210.848C426.65 211.339 426.473 211.95 426.526 212.564C426.54 212.623 426.543 212.684 426.533 212.744C426.523 212.804 426.501 212.861 426.469 212.912C426.436 212.963 426.394 213.007 426.343 213.041C426.293 213.075 426.237 213.099 426.177 213.111V213.26Z" fill="#FAFAFA"/>
<path d="M342.445 364.715H243.87C243.174 355.914 245.212 327.274 243.696 290.802C242.759 263.769 239.481 236.868 233.9 210.401C233.453 208.412 233.005 206.448 232.533 204.459C232.533 204.459 237.505 203.44 244.69 202.396C250.632 201.525 258.09 200.63 265.4 200.282C279.352 199.486 293.338 199.486 307.291 200.282C313.73 200.879 320.02 201.948 325.042 202.918C331.456 204.21 335.235 205.404 335.235 205.404C335.235 205.404 359.549 260.969 342.445 364.715Z" fill="#FFA96A"/>
<path opacity="0.3" d="M243.696 290.728C242.762 263.694 239.484 236.793 233.901 210.326C240.489 209.754 251.751 210.326 253.615 221.041C255.629 232.453 253.093 259.378 243.696 290.728Z" fill="black"/>
<path d="M239.494 298.534C239.494 298.534 268.681 290.802 266.469 264.549C264.256 238.295 248.942 199.586 248.942 199.586C248.942 199.586 251.751 197.697 258.19 198.542C260.378 200.506 274.35 228.873 276.264 246.027C287.128 244.883 314.227 244.212 319.001 244.535C319.945 235.038 315.172 209.506 309.305 199.909C312.564 199.767 315.827 200.077 319.001 200.829C325.954 217.452 329.748 235.224 330.188 253.237C330.462 281.678 350.301 293.835 350.301 293.835C350.301 293.835 349.48 343.409 350.997 364.615C352.514 385.822 360.121 448.522 360.121 448.522L241.98 455.16C241.98 455.16 233.08 332.072 239.494 298.534Z" fill="#263238"/>
<path d="M250.408 231.135L246.033 238.594C244.541 241.179 243.099 243.79 241.707 246.425C238.873 251.696 236.146 257 233.528 262.336C231.041 267.682 228.555 273.052 226.368 278.422C224.211 283.714 222.336 289.116 220.749 294.606L220.475 295.601L220.326 296.123C220.245 296.259 220.194 296.412 220.177 296.57C220.101 297.339 220.101 298.114 220.177 298.882C220.434 301.229 220.925 303.545 221.644 305.794C223.371 311.191 225.481 316.459 227.959 321.556C232.931 332.246 238.947 343.111 244.989 353.627L234.025 362.229C224.927 352.969 216.712 342.882 209.487 332.097C205.652 326.417 202.324 320.411 199.542 314.147C197.975 310.587 196.759 306.881 195.913 303.084C195.429 300.778 195.179 298.429 195.167 296.073C195.16 294.667 195.26 293.263 195.465 291.872L195.639 290.827L195.763 290.181L196.037 288.913C198.766 275.782 202.935 262.993 208.467 250.776C211.103 244.759 213.962 238.892 216.995 233.149C218.536 230.29 220.103 227.431 221.743 224.597C223.384 221.763 225 219.078 226.939 216.07L250.408 231.135Z" fill="#B65B52"/>
<path d="M256.997 237.922C254.088 250.602 246.033 265.021 241.011 275.338C239.693 278.073 238.525 280.51 237.481 282.474C235.74 285.929 234.646 288.018 234.646 288.018L197.354 267.333C197.354 267.333 197.827 265.767 198.672 263.132C199.319 261.143 200.164 258.532 201.158 255.524C207.374 237.798 220.078 206.174 232.533 204.36C251.154 201.65 260.452 222.782 256.997 237.922Z" fill="#FFA96A"/>
<path d="M240.016 349.798L258.364 346.616L248.941 367.847C248.941 367.847 232.185 367.847 232.956 359.121L240.016 349.798Z" fill="#B55B52"/>
<path d="M272.063 357.182L263.436 374.361L248.942 367.748L258.364 346.516L272.063 357.182Z" fill="#B55B52"/>
<path d="M305.302 200.034C293.12 197.15 290.982 189.617 291.802 181.338C291.996 179.265 292.319 177.205 292.772 175.173L277.507 162.493L266.295 153.195C269.402 166.695 272.908 191.283 263.809 200.283C263.809 200.283 272.038 212.962 294.015 211.57C315.992 210.177 305.302 200.034 305.302 200.034Z" fill="#B55B52"/>
<path opacity="0.2" d="M292.772 175.173C292.319 177.205 291.996 179.265 291.802 181.338C286.109 180.195 278.502 174.128 277.706 168.311C277.426 166.385 277.36 164.434 277.507 162.493L292.772 175.173Z" fill="black"/>
<path d="M306.247 109.738C314.774 113.716 312.238 134.052 306.868 135.917C299.31 138.477 294.239 104.094 306.247 109.738Z" fill="#263238"/>
<path d="M261.671 133.779C265.549 151.704 266.916 162.369 277.507 170.548C280.918 173.247 285.001 174.961 289.316 175.505C293.63 176.049 298.012 175.403 301.986 173.636C305.959 171.87 309.374 169.05 311.861 165.482C314.347 161.914 315.81 157.734 316.092 153.394C317.484 136.712 310.871 110.21 292.026 105.138C287.975 103.932 283.677 103.812 279.565 104.79C275.452 105.768 271.669 107.809 268.594 110.71C265.52 113.611 263.262 117.269 262.046 121.318C260.831 125.367 260.702 129.664 261.671 133.779Z" fill="#B55B52"/>
<path d="M262.441 146.06C258.737 143.127 236.486 131.417 250.011 116.774C245.734 110.409 244.218 98.2768 261.049 95.7907C277.88 93.3046 299.186 102.404 302.344 95.7907C313.829 95.7907 315.346 113.194 306.346 116.227C297.346 119.26 271.267 118.017 271.267 118.017C271.267 118.017 278.576 160.007 262.441 146.06Z" fill="#263238"/>
<path d="M310.573 103.523C291.454 106.009 261.173 115.953 246.455 125.898C246.291 126.015 246.1 126.089 245.899 126.11C245.698 126.132 245.495 126.101 245.31 126.021C245.125 125.941 244.964 125.814 244.842 125.653C244.72 125.492 244.642 125.302 244.616 125.102L241.657 101.186C241.635 100.948 241.682 100.709 241.793 100.498C241.903 100.286 242.072 100.111 242.279 99.9922C259.461 90.3919 278.307 84.1326 297.819 81.5452C298.045 81.5178 298.275 81.5546 298.481 81.6513C298.688 81.748 298.863 81.9007 298.987 82.0921L311.418 101.733C311.532 101.897 311.601 102.09 311.617 102.289C311.633 102.489 311.597 102.69 311.511 102.871C311.426 103.053 311.294 103.208 311.129 103.323C310.964 103.437 310.772 103.506 310.573 103.523Z" fill="#FFA96A"/>
<path d="M257.618 152.499C260.515 155.992 264.528 158.38 268.98 159.261C274.623 160.206 275.916 154.985 273.032 149.914C270.546 145.364 264.38 139.372 259.334 140.715C254.287 142.057 253.864 148.074 257.618 152.499Z" fill="#B55B52"/>
<path d="M287.825 135.569C288.048 137.035 289.018 138.055 289.963 138.055C290.907 138.055 291.529 136.662 291.305 135.196C291.081 133.729 290.112 132.709 289.142 132.709C288.173 132.709 287.576 134.102 287.825 135.569Z" fill="#263238"/>
<path d="M305.327 133.505C305.551 134.972 306.52 135.991 307.49 135.991C308.459 135.991 309.056 134.574 308.832 133.107C308.609 131.641 307.639 130.621 306.669 130.621C305.7 130.621 305.103 132.113 305.327 133.505Z" fill="#263238"/>
<path d="M302.368 134.947C304.823 139.242 307.841 143.188 311.343 146.682C310.432 147.52 309.346 148.146 308.164 148.516C306.982 148.885 305.733 148.989 304.506 148.82L302.368 134.947Z" fill="#A02724"/>
<path d="M298.167 153.519C296.439 153.539 294.725 153.211 293.127 152.553C291.529 151.895 290.081 150.921 288.869 149.69C288.794 149.604 288.752 149.493 288.752 149.379C288.752 149.265 288.794 149.154 288.869 149.068C288.952 148.988 289.064 148.943 289.179 148.943C289.295 148.943 289.407 148.988 289.49 149.068C290.823 150.383 292.439 151.376 294.214 151.97C295.989 152.565 297.877 152.746 299.733 152.499C299.845 152.499 299.953 152.544 300.032 152.623C300.111 152.702 300.156 152.81 300.156 152.922C300.156 153.034 300.111 153.141 300.032 153.221C299.953 153.3 299.845 153.345 299.733 153.345C299.215 153.432 298.692 153.49 298.167 153.519Z" fill="#263238"/>
<path d="M281.734 128.732C281.595 128.767 281.45 128.767 281.311 128.732C281.211 128.675 281.123 128.599 281.053 128.508C280.982 128.417 280.931 128.313 280.901 128.203C280.871 128.092 280.863 127.976 280.878 127.862C280.893 127.748 280.93 127.638 280.988 127.538C281.629 126.325 282.559 125.287 283.694 124.516C284.83 123.744 286.137 123.263 287.501 123.113C287.735 123.106 287.961 123.191 288.133 123.349C288.305 123.507 288.408 123.725 288.421 123.958C288.428 124.185 288.346 124.406 288.193 124.573C288.04 124.74 287.827 124.841 287.601 124.853C286.535 124.973 285.513 125.346 284.621 125.944C283.73 126.541 282.995 127.344 282.479 128.284C282.407 128.42 282.3 128.533 282.169 128.611C282.037 128.69 281.887 128.732 281.734 128.732Z" fill="#263238"/>
<path d="M313.133 125.475C312.997 125.513 312.853 125.517 312.714 125.487C312.575 125.457 312.446 125.393 312.338 125.301C311.503 124.559 310.506 124.023 309.427 123.733C308.348 123.444 307.217 123.411 306.122 123.635C305.895 123.696 305.653 123.666 305.448 123.549C305.243 123.433 305.092 123.24 305.029 123.014C304.974 122.793 305.005 122.56 305.116 122.361C305.226 122.163 305.409 122.014 305.625 121.945C306.997 121.65 308.419 121.679 309.778 122.028C311.137 122.378 312.397 123.039 313.457 123.959C313.616 124.121 313.705 124.34 313.705 124.568C313.705 124.795 313.616 125.014 313.457 125.177C313.375 125.301 313.264 125.404 313.133 125.475Z" fill="#263238"/>
<path d="M645.587 60.9294L627.972 54.5181L396.74 689.823L414.355 696.234L645.587 60.9294Z" fill="#263238"/>
<path d="M657.437 0.944929C656.733 0.698031 655.962 0.73062 655.282 1.03596C654.602 1.34129 654.065 1.89605 653.782 2.58576L632.327 56.1121L641.252 59.3689L659.202 4.5498C659.427 3.83722 659.369 3.06531 659.041 2.39413C658.712 1.72295 658.138 1.20401 657.437 0.944929Z" fill="#263238"/>
<path d="M640.481 47.8829C497.231 -4.3257 357.759 17.6516 337.895 72.1972L856.675 260.994C876.39 206.448 783.608 100.017 640.481 47.8829Z" fill="#FFA96A"/>
<path d="M640.481 47.8827C551.329 15.5631 455.713 53.3025 435.848 107.848L758.721 225.342C778.436 170.797 729.534 80.3266 640.481 47.8827Z" fill="white"/>
<path d="M640.481 47.8831C605.8 35.2536 554.312 89.1776 534.473 143.723L660.097 189.468C679.837 134.922 675.063 60.5126 640.481 47.8831Z" fill="#FFA96A"/>
<path d="M137.886 676.873C119.772 676.873 102.064 682.244 87.0022 692.308C71.9405 702.372 60.2013 716.676 53.2692 733.412C46.337 750.148 44.5233 768.563 48.0573 786.33C51.5912 804.096 60.3142 820.416 73.1232 833.225C85.9321 846.034 102.252 854.757 120.018 858.291C137.785 861.825 156.2 860.011 172.936 853.079C189.672 846.147 203.976 834.407 214.04 819.346C224.104 804.284 229.475 786.576 229.475 768.462C229.475 744.171 219.826 720.875 202.649 703.699C185.473 686.522 162.177 676.873 137.886 676.873ZM204.316 762.246H152.878L189.225 725.899C197.808 736.214 203.069 748.885 204.316 762.246ZM144.102 702.032C157.495 703.249 170.205 708.503 180.548 717.098L144.201 753.445L144.102 702.032ZM131.671 753.445L95.299 717.098C105.622 708.517 118.303 703.264 131.671 702.032V753.445ZM131.671 834.891C118.304 833.639 105.626 828.379 95.299 819.8L131.671 783.453V834.891ZM144.102 783.453L180.548 819.8C170.228 828.374 157.56 833.634 144.201 834.891L144.102 783.453ZM86.5229 725.899L122.87 762.246H71.4321C72.6787 748.885 77.9395 736.214 86.5229 725.899ZM71.4321 774.677H122.87L86.5229 811.024C77.9489 800.703 72.6893 788.035 71.4321 774.677ZM189.225 811.024L152.878 774.677H204.316C203.058 788.035 197.799 800.703 189.225 811.024Z" fill="#FFA96A"/>
<path opacity="0.2" d="M137.886 676.873C119.772 676.873 102.064 682.244 87.0022 692.308C71.9405 702.372 60.2013 716.676 53.2692 733.412C46.337 750.148 44.5233 768.563 48.0573 786.33C51.5912 804.096 60.3142 820.416 73.1232 833.225C85.9321 846.034 102.252 854.757 120.018 858.291C137.785 861.825 156.2 860.011 172.936 853.079C189.672 846.147 203.976 834.407 214.04 819.346C224.104 804.284 229.475 786.576 229.475 768.462C229.475 744.171 219.826 720.875 202.649 703.699C185.473 686.522 162.177 676.873 137.886 676.873ZM204.316 762.246H152.878L189.225 725.899C197.808 736.214 203.069 748.885 204.316 762.246ZM144.102 702.032C157.495 703.249 170.205 708.503 180.548 717.098L144.201 753.445L144.102 702.032ZM131.671 753.445L95.299 717.098C105.622 708.517 118.303 703.264 131.671 702.032V753.445ZM131.671 834.891C118.304 833.639 105.626 828.379 95.299 819.8L131.671 783.453V834.891ZM144.102 783.453L180.548 819.8C170.228 828.374 157.56 833.634 144.201 834.891L144.102 783.453ZM86.5229 725.899L122.87 762.246H71.4321C72.6787 748.885 77.9395 736.214 86.5229 725.899ZM71.4321 774.677H122.87L86.5229 811.024C77.9489 800.703 72.6893 788.035 71.4321 774.677ZM189.225 811.024L152.878 774.677H204.316C203.058 788.035 197.799 800.703 189.225 811.024Z" fill="black"/>
<path d="M437.315 676.873C419.201 676.873 401.493 682.244 386.431 692.308C371.369 702.372 359.63 716.676 352.698 733.412C345.766 750.148 343.952 768.563 347.486 786.33C351.02 804.096 359.743 820.416 372.552 833.225C385.361 846.034 401.681 854.757 419.447 858.291C437.214 861.825 455.629 860.011 472.365 853.079C489.1 846.147 503.405 834.407 513.469 819.346C523.533 804.284 528.904 786.576 528.904 768.462C528.904 744.171 519.255 720.875 502.078 703.699C484.902 686.522 461.606 676.873 437.315 676.873ZM503.745 762.246H452.307L488.654 725.899C497.247 736.208 502.509 748.883 503.745 762.246ZM443.531 702.032C456.891 703.264 469.564 708.517 479.878 717.098L443.531 753.445V702.032ZM431.1 753.445L394.753 717.098C405.067 708.517 417.74 703.264 431.1 702.032V753.445ZM431.1 834.891C417.74 833.638 405.071 828.378 394.753 819.8L431.1 783.453V834.891ZM443.531 783.453L479.878 819.8C469.559 828.378 456.89 833.638 443.531 834.891V783.453ZM385.952 725.899L422.299 762.246H370.886C372.113 748.885 377.367 736.211 385.952 725.899ZM370.886 774.677H422.299L385.952 811.024C377.375 800.708 372.122 788.036 370.886 774.677ZM488.654 811.024L452.307 774.677H503.745C502.499 788.038 497.238 800.71 488.654 811.024Z" fill="#FFA96A"/>
<path opacity="0.2" d="M437.315 676.873C419.201 676.873 401.493 682.244 386.431 692.308C371.369 702.372 359.63 716.676 352.698 733.412C345.766 750.148 343.952 768.563 347.486 786.33C351.02 804.096 359.743 820.416 372.552 833.225C385.361 846.034 401.681 854.757 419.447 858.291C437.214 861.825 455.629 860.011 472.365 853.079C489.1 846.147 503.405 834.407 513.469 819.346C523.533 804.284 528.904 786.576 528.904 768.462C528.904 744.171 519.255 720.875 502.078 703.699C484.902 686.522 461.606 676.873 437.315 676.873ZM503.745 762.246H452.307L488.654 725.899C497.247 736.208 502.509 748.883 503.745 762.246ZM443.531 702.032C456.891 703.264 469.564 708.517 479.878 717.098L443.531 753.445V702.032ZM431.1 753.445L394.753 717.098C405.067 708.517 417.74 703.264 431.1 702.032V753.445ZM431.1 834.891C417.74 833.638 405.071 828.378 394.753 819.8L431.1 783.453V834.891ZM443.531 783.453L479.878 819.8C469.559 828.378 456.89 833.638 443.531 834.891V783.453ZM385.952 725.899L422.299 762.246H370.886C372.113 748.885 377.367 736.211 385.952 725.899ZM370.886 774.677H422.299L385.952 811.024C377.375 800.708 372.122 788.036 370.886 774.677ZM488.654 811.024L452.307 774.677H503.745C502.499 788.038 497.238 800.71 488.654 811.024Z" fill="black"/>
<path d="M670.713 466.919H100.57V789.569H670.713V466.919Z" fill="#FFA96A"/>
<path d="M676.008 444.818H100.57V466.919H676.008V444.818Z" fill="#FFA96A"/>
<path opacity="0.2" d="M670.738 789.569V466.919H676.008V444.818H599.162L506.33 789.569H670.738Z" fill="black"/>
<path d="M5.84811 789.569H100.594L100.594 466.919H5.84811L5.84811 789.569Z" fill="#FFA96A"/>
<path opacity="0.2" d="M5.84811 789.569H100.594L100.594 466.919H5.84811L5.84811 789.569Z" fill="black"/>
<path d="M0.527885 466.919H100.57V444.818H0.527885V466.919Z" fill="#FFA96A"/>
<path opacity="0.2" d="M0.527885 466.919H100.57V444.818H0.527885V466.919Z" fill="black"/>
<path d="M232.757 676.873C214.642 676.873 196.935 682.244 181.873 692.308C166.811 702.372 155.072 716.676 148.14 733.412C141.208 750.148 139.394 768.563 142.928 786.33C146.462 804.096 155.185 820.416 167.994 833.225C180.803 846.034 197.122 854.757 214.889 858.291C232.655 861.825 251.071 860.011 267.806 853.079C284.542 846.147 298.846 834.407 308.91 819.346C318.974 804.284 324.346 786.576 324.346 768.462C324.346 744.171 314.696 720.875 297.52 703.699C280.344 686.522 257.048 676.873 232.757 676.873ZM299.186 762.246H247.674L284.021 725.899C292.586 736.22 297.83 748.891 299.062 762.246H299.186ZM238.972 702.032C252.331 703.269 265.003 708.521 275.319 717.098L238.972 753.445V702.032ZM226.542 753.445L190.194 717.098C200.506 708.513 213.18 703.26 226.542 702.032V753.445ZM226.542 834.891C213.18 833.644 200.509 828.384 190.194 819.8L226.542 783.453V834.891ZM238.972 783.453L275.319 819.8C264.999 828.374 252.331 833.634 238.972 834.891V783.453ZM181.394 725.899L217.741 762.246H166.203C167.43 748.885 172.684 736.211 181.269 725.899H181.394ZM166.328 774.677H217.741L181.394 811.024C172.772 800.723 167.475 788.05 166.203 774.677H166.328ZM284.095 811.024L247.674 774.677H299.112C297.84 788.041 292.563 800.71 283.971 811.024H284.095Z" fill="#FFA96A"/>
<path opacity="0.2" d="M232.757 676.873C214.642 676.873 196.935 682.244 181.873 692.308C166.811 702.372 155.072 716.676 148.14 733.412C141.208 750.148 139.394 768.563 142.928 786.33C146.462 804.096 155.185 820.416 167.994 833.225C180.803 846.034 197.122 854.757 214.889 858.291C232.655 861.825 251.071 860.011 267.806 853.079C284.542 846.147 298.846 834.407 308.91 819.346C318.974 804.284 324.346 786.576 324.346 768.462C324.346 744.171 314.696 720.875 297.52 703.699C280.344 686.522 257.048 676.873 232.757 676.873ZM299.186 762.246H247.674L284.021 725.899C292.586 736.22 297.83 748.891 299.062 762.246H299.186ZM238.972 702.032C252.331 703.269 265.003 708.521 275.319 717.098L238.972 753.445V702.032ZM226.542 753.445L190.194 717.098C200.506 708.513 213.18 703.26 226.542 702.032V753.445ZM226.542 834.891C213.18 833.644 200.509 828.384 190.194 819.8L226.542 783.453V834.891ZM238.972 783.453L275.319 819.8C264.999 828.374 252.331 833.634 238.972 834.891V783.453ZM181.394 725.899L217.741 762.246H166.203C167.43 748.885 172.684 736.211 181.269 725.899H181.394ZM166.328 774.677H217.741L181.394 811.024C172.772 800.723 167.475 788.05 166.203 774.677H166.328ZM284.095 811.024L247.674 774.677H299.112C297.84 788.041 292.563 800.71 283.971 811.024H284.095Z" fill="white"/>
<path d="M532.062 676.873C513.947 676.873 496.239 682.244 481.178 692.308C466.116 702.372 454.377 716.676 447.444 733.412C440.512 750.148 438.699 768.563 442.233 786.33C445.767 804.096 454.49 820.416 467.298 833.225C480.107 846.034 496.427 854.757 514.193 858.291C531.96 861.825 550.375 860.011 567.111 853.079C583.847 846.147 598.151 834.407 608.215 819.346C618.279 804.284 623.65 786.576 623.65 768.462C623.65 756.434 621.281 744.524 616.679 733.412C612.076 722.3 605.329 712.203 596.825 703.699C588.32 695.194 578.223 688.447 567.111 683.845C555.999 679.242 544.089 676.873 532.062 676.873ZM598.491 762.246H547.078L583.425 725.899C592.01 736.211 597.264 748.885 598.491 762.246ZM538.277 702.032C551.637 703.264 564.31 708.517 574.624 717.098L538.277 753.445V702.032ZM525.846 753.445L489.499 717.098C499.813 708.517 512.486 703.264 525.846 702.032V753.445ZM525.846 834.891C512.487 833.638 499.817 828.378 489.499 819.8L525.846 783.453V834.891ZM538.277 783.453L574.624 819.8C564.306 828.378 551.637 833.638 538.277 834.891V783.453ZM480.723 725.899L517.07 762.246H465.632C466.868 748.883 472.13 736.208 480.723 725.899ZM465.632 774.677H517.07L480.723 811.024C472.138 800.71 466.877 788.038 465.632 774.677ZM583.425 811.024L547.078 774.677H598.491C597.254 788.036 592.002 800.708 583.425 811.024Z" fill="#FFA96A"/>
<path opacity="0.2" d="M532.062 676.873C513.947 676.873 496.239 682.244 481.178 692.308C466.116 702.372 454.377 716.676 447.444 733.412C440.512 750.148 438.699 768.563 442.233 786.33C445.767 804.096 454.49 820.416 467.298 833.225C480.107 846.034 496.427 854.757 514.193 858.291C531.96 861.825 550.375 860.011 567.111 853.079C583.847 846.147 598.151 834.407 608.215 819.346C618.279 804.284 623.65 786.576 623.65 768.462C623.65 756.434 621.281 744.524 616.679 733.412C612.076 722.3 605.329 712.203 596.825 703.699C588.32 695.194 578.223 688.447 567.111 683.845C555.999 679.242 544.089 676.873 532.062 676.873ZM598.491 762.246H547.078L583.425 725.899C592.01 736.211 597.264 748.885 598.491 762.246ZM538.277 702.032C551.637 703.264 564.31 708.517 574.624 717.098L538.277 753.445V702.032ZM525.846 753.445L489.499 717.098C499.813 708.517 512.486 703.264 525.846 702.032V753.445ZM525.846 834.891C512.487 833.638 499.817 828.378 489.499 819.8L525.846 783.453V834.891ZM538.277 783.453L574.624 819.8C564.306 828.378 551.637 833.638 538.277 834.891V783.453ZM480.723 725.899L517.07 762.246H465.632C466.868 748.883 472.13 736.208 480.723 725.899ZM465.632 774.677H517.07L480.723 811.024C472.138 800.71 466.877 788.038 465.632 774.677ZM583.425 811.024L547.078 774.677H598.491C597.254 788.036 592.002 800.708 583.425 811.024Z" fill="white"/>
<path opacity="0.2" d="M670.713 466.919H5.82336V476.317H670.713V466.919Z" fill="black"/>
<path d="M113.572 357.53V339.58H108.724L106.959 312.78H102.956L101.191 339.58H96.3432V357.53H87.045V444.818H122.87V357.53H113.572Z" fill="#FFA96A"/>
<path opacity="0.4" d="M113.572 357.53V339.58H108.724L106.959 312.78H102.956L101.191 339.58H96.3432V357.53H87.045V444.818H122.87V357.53H113.572Z" fill="white"/>
<path d="M159.143 357.53V339.58H154.32L152.554 312.78H148.527L146.762 339.58H141.939V357.53H132.616V444.818H168.441V357.53H159.143Z" fill="#FFA96A"/>
<path opacity="0.2" d="M159.143 357.53V339.58H154.32L152.554 312.78H148.527L146.762 339.58H141.939V357.53H132.616V444.818H168.441V357.53H159.143Z" fill="black"/>
<path d="M503.869 599.032C423.076 621.081 339.295 630.16 255.654 625.932C228.655 624.59 209.014 602.736 211.923 579.317C214.832 555.848 236.436 538.992 259.98 540.161C334.54 543.919 409.224 535.822 481.245 516.17C503.968 510.004 528.68 521.838 536.561 544.114C544.442 566.364 529.948 591.947 503.869 599.032Z" fill="#FFA96A"/>
<path opacity="0.4" d="M503.869 599.032C423.076 621.081 339.295 630.16 255.654 625.932C228.655 624.59 209.014 602.736 211.923 579.317C214.832 555.848 236.436 538.992 259.98 540.161C334.54 543.919 409.224 535.822 481.245 516.17C503.968 510.004 528.68 521.838 536.561 544.114C544.442 566.364 529.948 591.947 503.869 599.032Z" fill="white"/>
<path d="M515.255 618.996C428.531 642.664 338.598 652.407 248.817 647.86C219.854 646.418 198.747 622.998 201.879 597.839C205.012 572.654 228.182 554.555 253.466 555.798C333.506 559.846 413.68 551.152 490.991 530.042C515.405 523.429 541.907 536.133 550.359 560.05C558.787 583.941 543.224 611.388 515.255 618.996Z" fill="#FFA96A"/>
<path d="M507.573 633.216C426.772 655.266 342.982 664.346 259.333 660.116C232.359 658.774 212.719 636.921 215.627 613.501C218.536 590.032 240.14 573.201 263.659 574.345C338.219 578.106 412.904 570.009 484.924 550.354C507.672 544.188 532.385 556.022 540.241 578.298C548.147 600.424 533.578 626.006 507.573 633.216Z" fill="#FFA96A"/>
<path opacity="0.4" d="M507.573 633.216C426.772 655.266 342.982 664.346 259.333 660.116C232.359 658.774 212.719 636.921 215.627 613.501C218.536 590.032 240.14 573.201 263.659 574.345C338.219 578.106 412.904 570.009 484.924 550.354C507.672 544.188 532.385 556.022 540.241 578.298C548.147 600.424 533.578 626.006 507.573 633.216Z" fill="white"/>
<path d="M297.769 592.17C296.023 592.171 294.285 591.945 292.598 591.499C291.058 591.207 289.608 590.554 288.368 589.595C287.128 588.636 286.133 587.397 285.463 585.98C285.014 584.569 284.925 583.068 285.203 581.614C285.481 580.16 286.117 578.798 287.054 577.651C288.598 575.863 290.36 574.276 292.299 572.928C296.426 569.77 298.937 567.657 297.943 563.928C297.767 563.175 297.432 562.467 296.961 561.854C296.489 561.241 295.891 560.736 295.208 560.373C291.529 558.409 284.841 559.577 279.794 561.318C271.489 564.391 264.223 569.752 258.836 576.781C256.722 578.969 255.468 581.847 255.306 584.886C255.344 585.185 255.321 585.488 255.237 585.777C255.154 586.066 255.013 586.335 254.822 586.568C254.631 586.801 254.395 586.992 254.128 587.13C253.86 587.269 253.568 587.351 253.267 587.372C252.969 587.407 252.668 587.381 252.38 587.296C252.092 587.211 251.824 587.07 251.592 586.88C251.36 586.689 251.169 586.455 251.03 586.189C250.89 585.923 250.806 585.632 250.781 585.334C250.483 581.928 251.95 578.248 255.231 574.071C261.118 566.332 269.111 560.454 278.253 557.141C281.932 555.873 291.181 553.263 297.247 556.47C298.481 557.115 299.564 558.016 300.421 559.114C301.279 560.212 301.892 561.48 302.219 562.834C304.034 569.646 298.987 573.475 294.96 576.533C293.333 577.642 291.854 578.953 290.559 580.436C290.091 580.978 289.761 581.625 289.597 582.322C289.432 583.018 289.438 583.745 289.614 584.439C290.261 586.204 292.697 586.925 293.717 587.298C296.18 587.924 298.754 587.972 301.239 587.437C303.723 586.902 306.05 585.799 308.037 584.215C310.911 581.393 313.171 578.007 314.675 574.27C315.52 572.555 316.415 570.79 317.384 569.298C321.417 562.425 327.591 557.063 334.961 554.033C340.505 551.845 352.961 549.683 356.093 556.942C356.565 558.138 356.781 559.421 356.725 560.706C356.669 561.991 356.344 563.249 355.77 564.4C354.52 566.806 352.939 569.023 351.071 570.989C348.436 574.071 345.701 577.279 346.099 580.361C346.179 581.106 346.45 581.818 346.885 582.428C347.321 583.038 347.906 583.525 348.585 583.842C349.666 584.139 350.795 584.215 351.906 584.066C353.017 583.916 354.086 583.544 355.049 582.972C361.836 579.864 365.59 573.947 369.543 567.682L370.165 566.713C373.72 561.119 377.748 554.754 383.242 550.752C386.474 548.265 391.869 546.401 396.269 548.663C401.739 551.497 401.416 558.782 399.501 564.152C399.103 565.271 398.631 566.389 398.159 567.508C397.407 569.114 396.783 570.776 396.294 572.48C395.945 573.623 395.839 574.827 395.985 576.013C396.13 577.2 396.524 578.342 397.139 579.367C400.023 583.096 408.476 578.049 410.987 576.408C417.058 572.249 422.038 566.689 425.506 560.199C426.699 558.061 427.793 555.798 428.838 553.586C429.882 551.373 431.324 548.614 432.716 546.127C435.061 541.536 438.471 537.572 442.66 534.567C444.402 533.48 446.46 533.013 448.5 533.243C450.54 533.473 452.442 534.387 453.898 535.835C454.875 537.172 455.502 538.732 455.724 540.373C455.945 542.014 455.753 543.684 455.166 545.232C454.643 546.997 454.022 548.738 453.4 550.478C452.779 552.218 452.331 553.486 451.859 555.003C450.318 559.975 450.268 564.102 451.71 566.166C452.417 566.93 453.294 567.517 454.27 567.88C455.246 568.243 456.294 568.371 457.328 568.254C464.926 568.373 472.315 565.772 478.162 560.92C485.006 555.242 489.751 547.434 491.637 538.744C492.706 533.572 492.01 527.481 489.002 526.313C488.454 526.082 488.021 525.643 487.797 525.093C487.574 524.543 487.578 523.927 487.808 523.379C488.039 522.832 488.478 522.399 489.028 522.175C489.578 521.951 490.195 521.955 490.742 522.186C496.386 524.672 497.455 532.727 496.013 539.738C493.922 549.475 488.626 558.229 480.972 564.599C474.302 570.133 465.869 573.088 457.204 572.928C455.471 573.037 453.736 572.73 452.145 572.034C450.554 571.338 449.152 570.272 448.055 568.925C445.122 564.773 446.191 558.459 447.583 554.008C448.08 552.417 448.627 550.876 449.199 549.31C449.771 547.743 450.392 545.953 450.889 544.337C451.234 543.5 451.377 542.594 451.308 541.692C451.239 540.79 450.959 539.916 450.492 539.141C449.711 538.505 448.749 538.133 447.743 538.079C446.738 538.026 445.741 538.293 444.898 538.843C441.346 541.436 438.472 544.847 436.52 548.788C435.177 551.125 434.034 553.76 432.815 556.047C431.597 558.334 430.603 560.646 429.335 562.909C425.514 570.034 420.03 576.132 413.349 580.685C404.2 586.626 397.164 587.322 393.46 582.649C392.391 581.099 391.688 579.328 391.404 577.467C391.12 575.607 391.262 573.706 391.819 571.908C392.349 569.965 393.039 568.069 393.883 566.24C394.33 565.196 394.753 564.177 395.126 563.108C396.12 560.348 397.164 554.729 394.057 553.163C391.57 551.92 388.04 553.163 385.728 554.879C380.93 558.384 377.126 564.376 373.795 569.646L373.173 570.591C369.046 577.129 364.77 583.892 356.79 587.571C355.286 588.404 353.625 588.915 351.914 589.074C350.202 589.232 348.476 589.034 346.845 588.491C345.39 587.892 344.125 586.91 343.183 585.649C342.242 584.389 341.66 582.896 341.5 581.331C340.978 576.359 344.508 572.232 347.591 568.602C349.181 566.956 350.536 565.099 351.618 563.083C352.053 562.435 352.323 561.692 352.405 560.916C352.488 560.141 352.38 559.357 352.091 558.633C350.525 555.003 341.102 556.395 336.702 558.135C330.247 560.803 324.842 565.509 321.313 571.536C320.442 573.002 319.622 574.618 318.826 576.309C317.058 580.612 314.388 584.487 310.995 587.671C307.227 590.632 302.561 592.219 297.769 592.17Z" fill="#FAFAFA"/>
</svg>
