<svg width="108" height="51" fill="none" xmlns="http://www.w3.org/2000/svg"><path d="M34.074 21.83c-.855-1.953-1.844-3.907-3.401-5.358-2.33-2.167-5.593-2.919-8.679-3.681a159.979 159.979 0 0 1-19.74-6.267c-1.249-.487-2.458.78-1.926 2.015C.92 9.91 1.6 11.235 2.472 12.444c1.565 2.165 3.858 3.942 6.503 4.272-.966.098-1.988.215-2.677.997-.35.396-.496.948-.32 1.446.293.827 1.239.999 2.052 1.09l4.816.53c-1.212.318-1.98 1.706-1.747 2.94.233 1.234 1.339 2.208 2.569 2.434 1.085.2 2.225-.133 3.124-.783-.626.663-.657 1.845-.095 2.603.652.881 1.866 1.207 2.948 1.035 1.08-.172 2.051-.763 2.925-1.424.514 1.107 1.659 1.893 2.875 1.972 1.217.08 2.454-.553 3.106-1.583.553 1.875 3.07 2.84 4.729 1.812 1.074 1.702 2.149 3.402 3.22 5.105l.876-3.548a64.002 64.002 0 0 0-3.3-9.509l-.002-.002Z" fill="#263238"/><path d="M34.074 21.83c-.855-1.953-1.844-3.907-3.401-5.358-2.33-2.167-5.593-2.919-8.679-3.681a159.979 159.979 0 0 1-19.74-6.267c-1.249-.487-2.458.78-1.926 2.015C.92 9.91 1.6 11.235 2.472 12.444c1.565 2.165 3.858 3.942 6.503 4.272-.966.098-1.988.215-2.677.997-.35.396-.496.948-.32 1.446.293.827 1.239.999 2.052 1.09l4.816.53c-1.212.318-1.98 1.706-1.747 2.94.233 1.234 1.339 2.208 2.569 2.434 1.085.2 2.225-.133 3.124-.783-.626.663-.657 1.845-.095 2.603.652.881 1.866 1.207 2.948 1.035 1.08-.172 2.051-.763 2.925-1.424.514 1.107 1.659 1.893 2.875 1.972 1.217.08 2.454-.553 3.106-1.583.553 1.875 3.07 2.84 4.729 1.812 1.074 1.702 2.149 3.402 3.22 5.105l.876-3.548a64.002 64.002 0 0 0-3.3-9.509l-.002-.002Z" fill="#fff" opacity=".8"/><path d="M72.999 20.465c1.03-1.868 2.19-3.724 3.873-5.026 2.517-1.947 5.835-2.398 8.977-2.876a159.652 159.652 0 0 0 20.226-4.444c1.286-.371 2.376 1 1.735 2.18-.713 1.314-1.51 2.57-2.487 3.695-1.754 2.013-4.198 3.573-6.864 3.661.953.186 1.961.396 2.575 1.236.312.426.409.992.19 1.472-.366.797-1.323.883-2.14.897l-4.846.088c1.178.428 1.817 1.881 1.474 3.088-.343 1.207-1.532 2.076-2.778 2.19-1.1.1-2.203-.336-3.038-1.067.562.718.487 1.897-.143 2.601-.729.82-1.968 1.033-3.03.764-1.062-.27-1.974-.947-2.784-1.685a3.484 3.484 0 0 1-3.042 1.703c-1.22-.032-2.393-.773-2.95-1.86-.723 1.819-3.314 2.548-4.874 1.375-1.223 1.596-2.446 3.195-3.67 4.79l-.55-3.613A64.097 64.097 0 0 1 73 20.464H73Z" fill="#263238"/><path d="M72.999 20.465c1.03-1.868 2.19-3.724 3.873-5.026 2.517-1.947 5.835-2.398 8.977-2.876a159.652 159.652 0 0 0 20.226-4.444c1.286-.371 2.376 1 1.735 2.18-.713 1.314-1.51 2.57-2.487 3.695-1.754 2.013-4.198 3.573-6.864 3.661.953.186 1.961.396 2.575 1.236.312.426.409.992.19 1.472-.366.797-1.323.883-2.14.897l-4.846.088c1.178.428 1.817 1.881 1.474 3.088-.343 1.207-1.532 2.076-2.778 2.19-1.1.1-2.203-.336-3.038-1.067.562.718.487 1.897-.143 2.601-.729.82-1.968 1.033-3.03.764-1.062-.27-1.974-.947-2.784-1.685a3.484 3.484 0 0 1-3.042 1.703c-1.22-.032-2.393-.773-2.95-1.86-.723 1.819-3.314 2.548-4.874 1.375-1.223 1.596-2.446 3.195-3.67 4.79l-.55-3.613A64.097 64.097 0 0 1 73 20.464H73Z" fill="#fff" opacity=".8"/><path d="M70.542 32.356c1.692-10.19-5.17-19.827-15.33-21.525-10.159-1.698-19.767 5.186-21.46 15.376-1.692 10.19 5.171 19.828 15.33 21.526 10.16 1.698 19.767-5.186 21.46-15.377Z" fill="#FF9446"/><path opacity=".3" d="M70.542 32.356c1.692-10.19-5.17-19.827-15.33-21.525-10.159-1.698-19.767 5.186-21.46 15.376-1.692 10.19 5.171 19.828 15.33 21.526 10.16 1.698 19.767-5.186 21.46-15.377Z" fill="#000"/><path d="M71.503 28.259c1.692-10.19-5.17-19.828-15.33-21.526-10.159-1.698-19.767 5.186-21.46 15.377-1.692 10.19 5.171 19.828 15.33 21.526 10.16 1.697 19.767-5.187 21.46-15.377Z" fill="#FF9446"/><path d="M65.22 37.334c6.689-6.71 6.689-17.587 0-24.296-6.688-6.709-17.532-6.709-24.22 0-6.69 6.71-6.69 17.587 0 24.296 6.688 6.709 17.532 6.709 24.22 0Z" fill="#FF9446"/><path opacity=".7" d="M65.22 37.334c6.689-6.71 6.689-17.587 0-24.296-6.688-6.709-17.532-6.709-24.22 0-6.69 6.71-6.69 17.587 0 24.296 6.688 6.709 17.532 6.709 24.22 0Z" fill="#fff"/><path opacity=".4" d="M59.355 9.183 36.81 30.477s1.552 3.94 2.965 5.492l24.228-24.04s-2.07-1.854-4.65-2.744v-.002ZM66.21 14.244 40.98 37.314s.395.632 2.214 1.812l24.91-22.292s-.29-.901-1.892-2.592v.002Z" fill="#fff"/><path d="M52.687 9.87v2.052h-.379V10.19h-.431v-.32h.813-.003ZM54.573 11.6v.322h-1.507v-.256l.812-.774a.864.864 0 0 0 .185-.231.449.449 0 0 0 .048-.195c0-.095-.032-.17-.097-.22a.458.458 0 0 0-.285-.076c-.207 0-.368.07-.478.213l-.267-.206a.805.805 0 0 1 .323-.252c.136-.059.287-.088.454-.088.221 0 .4.052.532.158a.52.52 0 0 1 .2.43c0 .111-.023.216-.07.313a1.216 1.216 0 0 1-.27.333l-.546.52h.964l.002.01ZM53.272 39.155a.598.598 0 0 1 .34.552.632.632 0 0 1-.368.584.863.863 0 0 1-.379.082c-.28 0-.499-.088-.652-.265-.156-.177-.233-.428-.233-.756 0-.231.043-.428.127-.591a.86.86 0 0 1 .352-.372c.151-.086.325-.126.524-.126.106 0 .203.011.295.034a.805.805 0 0 1 .242.097l-.14.288a.701.701 0 0 0-.388-.1.596.596 0 0 0-.46.181c-.111.122-.168.297-.168.525a.595.595 0 0 1 .23-.156.865.865 0 0 1 .316-.054c.136 0 .256.025.364.077h-.002Zm-.138.824a.315.315 0 0 0 .11-.254.32.32 0 0 0-.11-.256.443.443 0 0 0-.298-.092.445.445 0 0 0-.3.1.32.32 0 0 0-.115.25c0 .1.038.182.112.247a.454.454 0 0 0 .312.098c.12 0 .214-.032.289-.095v.002ZM60.333 12.354v2.052h-.38v-1.732h-.433v-.32h.813ZM60.5 37.137a.563.563 0 0 1 .208.46c0 .122-.03.235-.09.335a.636.636 0 0 1-.272.237c-.121.06-.27.089-.446.089-.147 0-.287-.02-.425-.064-.135-.043-.25-.1-.345-.174l.16-.297a.855.855 0 0 0 .273.148c.106.036.217.054.33.054a.52.52 0 0 0 .316-.084.27.27 0 0 0 .115-.23.26.26 0 0 0-.124-.238c-.084-.055-.224-.082-.425-.082h-.494l.106-1.116h1.201v.319h-.88l-.043.475h.196c.29 0 .501.057.639.168ZM45.807 12.354v2.052h-.379v-1.732h-.43v-.32h.812-.003ZM46.922 12.354v2.052h-.38v-1.732h-.433v-.32h.813ZM45.807 36.175v2.051h-.379v-1.732h-.43v-.32h.812-.003ZM46.922 36.175v2.051h-.38v-1.732h-.433v-.32h.813ZM65.49 18.547v.322h-1.507v-.256l.812-.774a.864.864 0 0 0 .185-.231.449.449 0 0 0 .048-.195c0-.095-.032-.17-.097-.22a.458.458 0 0 0-.285-.077c-.207 0-.368.07-.478.213l-.267-.206a.805.805 0 0 1 .323-.251c.136-.059.287-.088.454-.088.221 0 .4.052.532.158a.52.52 0 0 1 .2.43.704.704 0 0 1-.07.313 1.215 1.215 0 0 1-.27.333l-.546.52h.964l.002.01ZM65.894 32.573h-.361v.466h-.368v-.466h-1.122v-.265l1.007-1.322h.406l-.95 1.263h.668v-.412h.356v.412h.361v.322l.003.002ZM41.206 16.817v2.051h-.38v-1.732h-.432v-.32h.812ZM42.027 18.773a.85.85 0 0 1-.305-.362 1.325 1.325 0 0 1-.11-.566c0-.217.035-.407.11-.566a.786.786 0 0 1 .743-.49c.162.001.309.042.44.126.128.083.23.203.304.364.075.159.111.349.111.566 0 .217-.036.408-.11.566a.789.789 0 0 1-.745.487.781.781 0 0 1-.438-.125Zm.783-.387c.083-.12.126-.3.126-.54 0-.24-.043-.422-.126-.542a.397.397 0 0 0-.346-.181.398.398 0 0 0-.343.181c-.085.122-.126.301-.126.541 0 .24.043.421.126.541a.393.393 0 0 0 .343.181.402.402 0 0 0 .346-.18ZM42.074 32.127a.51.51 0 0 1 .086.292.532.532 0 0 1-.104.328.66.66 0 0 1-.294.215c-.126.05-.273.075-.44.075-.167 0-.314-.025-.44-.075a.64.64 0 0 1-.291-.215.545.545 0 0 1-.102-.328c0-.111.027-.208.086-.292a.569.569 0 0 1 .241-.197.488.488 0 0 1-.187-.177.493.493 0 0 1-.065-.253c0-.116.031-.215.094-.301a.62.62 0 0 1 .267-.2c.115-.047.248-.07.397-.07.15 0 .284.023.4.07a.613.613 0 0 1 .268.2.495.495 0 0 1 .097.3.466.466 0 0 1-.067.252.525.525 0 0 1-.192.179c.106.05.19.115.246.197Zm-.42.523a.284.284 0 0 0 .122-.242.28.28 0 0 0-.122-.24.558.558 0 0 0-.334-.089.54.54 0 0 0-.33.089.283.283 0 0 0-.12.24c0 .102.041.185.12.242.08.059.19.088.33.088s.25-.03.334-.088Zm-.614-1.347a.248.248 0 0 0-.104.215c0 .093.034.158.104.208.07.052.163.077.282.077.12 0 .217-.025.287-.077a.249.249 0 0 0 .106-.208.26.26 0 0 0-.106-.215.492.492 0 0 0-.285-.077.463.463 0 0 0-.282.077h-.002ZM67.274 24.988c.1.107.15.238.15.396 0 .12-.03.227-.091.326a.636.636 0 0 1-.273.234c-.122.056-.271.086-.445.086-.147 0-.287-.02-.422-.064-.135-.043-.25-.1-.345-.174l.162-.297a.82.82 0 0 0 .271.148c.106.036.217.054.33.054a.52.52 0 0 0 .316-.084.267.267 0 0 0 .115-.226.261.261 0 0 0-.11-.224c-.073-.055-.186-.082-.335-.082h-.187v-.26l.465-.555h-.93v-.32h1.392v.254l-.496.591c.19.023.334.089.433.193v.004ZM39.813 24.182c.155.177.232.428.232.757 0 .23-.043.427-.126.59a.862.862 0 0 1-.352.372 1.038 1.038 0 0 1-.524.127 1.23 1.23 0 0 1-.296-.034.805.805 0 0 1-.241-.098l.14-.287a.7.7 0 0 0 .388.1c.196 0 .35-.062.46-.182.11-.12.167-.296.167-.525a.595.595 0 0 1-.23.156.865.865 0 0 1-.316.054.806.806 0 0 1-.361-.076.6.6 0 0 1-.34-.552.632.632 0 0 1 .367-.585.862.862 0 0 1 .38-.081c.28 0 .498.088.651.262v.002Zm-.326.632a.316.316 0 0 0 .116-.251.312.312 0 0 0-.113-.247.455.455 0 0 0-.312-.097.428.428 0 0 0-.289.095.315.315 0 0 0-.11.253.32.32 0 0 0 .11.256.443.443 0 0 0 .298.093.445.445 0 0 0 .3-.1v-.002ZM52.745 25.225l.377-11.146h.528l.625 11.146h-1.53Z" fill="#263238"/><path d="m52.842 25.971-5.189-5.186.352-.394 5.862 4.44-1.025 1.14Z" fill="#263238"/><path d="m50.033 27.609 12.12-6.908-11.865 7.28-.255-.372Z" fill="#FF9446"/><path d="M55.118 25.225c0 .89-.72 1.612-1.607 1.612a1.61 1.61 0 0 1-1.607-1.612c0-.89.72-1.612 1.607-1.612a1.61 1.61 0 0 1 1.607 1.612Z" fill="#FF9446"/><path opacity=".3" d="M55.118 25.225c0 .89-.72 1.612-1.607 1.612a1.61 1.61 0 0 1-1.607-1.612c0-.89.72-1.612 1.607-1.612a1.61 1.61 0 0 1 1.607 1.612Z" fill="#000"/><path d="M40.37 41.52s-3.008 5.792-1.993 5.876c1.016.084 4.54-4.023 4.54-4.023s-.378-2.033-2.544-1.852h-.003ZM65.734 40.96s3.008 5.79 1.993 5.874c-1.016.084-4.54-4.023-4.54-4.023s.377-2.033 2.544-1.852h.003ZM33.009 15.444c.11-.134 12.811-11.667 12.811-11.667S40.956-.448 35.257 5.235c-5.7 5.68-2.248 10.208-2.248 10.208Z" fill="#FF9446"/><path d="M45.82 3.777c.513.56-2.079 3.52-5.593 6.75-3.512 3.228-6.773 5.392-7.286 4.83-.512-.559 1.921-3.63 5.435-6.86 3.512-3.228 6.932-5.281 7.444-4.722v.002Z" fill="#FF9446"/><path opacity=".3" d="M45.82 3.777c.513.56-2.079 3.52-5.593 6.75-3.512 3.228-6.773 5.392-7.286 4.83-.512-.559 1.921-3.63 5.435-6.86 3.512-3.228 6.932-5.281 7.444-4.722v.002Z" fill="#000"/><path d="M37.627 5.56 35.733 7.3l4.432 4.85 1.892-1.739-4.431-4.85Z" fill="#FF9446"/><path d="M35.794 7.3a1.836 1.836 0 0 0 1.833-1.839c0-1.015-.821-1.838-1.833-1.838a1.836 1.836 0 0 0-1.833 1.838c0 1.016.82 1.839 1.833 1.839Z" fill="#FF9446"/><path opacity=".4" d="m35.248 5.405-1.036.978c-.146.181-2.695 3.808-.57 7.224.805-1.098 1.758-2.175 2.803-3.24-1.102-.891-2.366-2.537-1.197-4.962Z" fill="#fff"/><path opacity=".2" d="m37.543 9.283 1.903-1.73.424.467-1.803 1.838-.524-.575Z" fill="#000"/><path opacity=".3" d="m34.212 6.383 2.589-2.457-.208-.117-2.498 2.336.117.238Z" fill="#000"/><path d="M59.738 3.628c.147.09 13.351 11.041 13.351 11.041s3.47-5.436-2.954-10.276-10.397-.765-10.397-.765Z" fill="#FF9446"/><path d="M73.09 14.67c-.479.588-3.772-1.559-7.462-4.583-3.69-3.023-6.293-5.95-5.815-6.539.48-.589 3.858 1.386 7.548 4.408 3.69 3.023 6.207 6.122 5.729 6.711v.002Z" fill="#FF9446"/><path opacity=".3" d="M73.09 14.67c-.479.588-3.772-1.559-7.462-4.583-3.69-3.023-6.293-5.95-5.815-6.539.48-.589 3.858 1.386 7.548 4.408 3.69 3.023 6.207 6.122 5.729 6.711v.002Z" fill="#000"/><path d="m70.15 6.792-1.987-1.628-4.149 5.096 1.988 1.628 4.149-5.096Z" fill="#FF9446"/><path d="M70.253 6.777a1.838 1.838 0 0 1-.526-3.638 1.838 1.838 0 0 1 .526 3.638Z" fill="#FF9446"/><path opacity=".4" d="M69.966 4.409 68.85 3.52c-.201-.12-4.144-2.128-7.21.471 1.2.64 2.4 1.433 3.6 2.318.72-1.222 2.165-2.712 4.725-1.901Z" fill="#fff"/><path opacity=".2" d="m66.47 7.244 1.979 1.639-.397.489-2.073-1.526.49-.602Z" fill="#000"/><path opacity=".3" d="m68.853 3.519 2.797 2.217.086-.222L69.07 3.37l-.216.149ZM39.958 11.922s1.409-1.254 1.953-1.673l-.179-.194-1.934 1.696.158.174.002-.003ZM64.162 10.094s1.456 1.197 1.955 1.673l.163-.206-1.973-1.65-.147.183h.002ZM12.033 15.708s11.056 1.503 13.38 3.138c2.325 1.637 7.06 8.051 7.06 8.051s-5.81-6.151-8.134-7.587c-2.325-1.435-12.306-3.602-12.306-3.602Z" fill="#000"/><path opacity=".3" d="M16.555 18.767s-1.016 3.19 1.501 3.102c2.519-.088 3.535-1.196 3.535-1.196s-.707 2.926 1.191 2.88c1.9-.045 3.226-1.24 3.226-1.24s-2.74 2.343-4.065 1.793c-1.325-.553-.763-2.457-.763-2.457s-3.104 1.513-4.386.453c-1.282-1.06-1.031-1.544-.241-3.333l.002-.002ZM94.186 15.104s-11.056 1.503-13.38 3.138c-2.325 1.637-7.06 8.051-7.06 8.051s5.809-6.151 8.134-7.587c2.325-1.435 12.306-3.602 12.306-3.602Z" fill="#000"/><path opacity=".3" d="M89.666 18.165s1.015 3.19-1.501 3.102c-2.52-.088-3.535-1.196-3.535-1.196s.707 2.925-1.192 2.88c-1.9-.045-3.225-1.24-3.225-1.24s2.74 2.343 4.065 1.793c1.325-.553.763-2.457.763-2.457s3.103 1.513 4.385.453c1.282-1.06 1.032-1.544.242-3.333l-.002-.002Z" fill="#000"/><path d="M46.602 6.84a.082.082 0 0 1-.08-.056.086.086 0 0 1 .05-.109 19.344 19.344 0 0 1 11.096-.659.085.085 0 0 1 .063.102.087.087 0 0 1-.101.064 19.166 19.166 0 0 0-10.999.652c-.01.004-.02.004-.03.004v.002ZM58.7 6.473s-.016 0-.023-.002l-.557-.159a.084.084 0 0 1-.059-.104.084.084 0 0 1 .104-.059l.557.159a.084.084 0 0 1 .06.104.084.084 0 0 1-.082.06Z" fill="#FF9446"/></svg>