<svg width="108" height="51" viewBox="0 0 108 51" fill="none" xmlns="http://www.w3.org/2000/svg">
<path d="M34.0743 21.8309C33.2188 19.8771 32.2302 17.9232 30.6728 16.4719C28.3435 14.3052 25.0797 13.5535 21.9942 12.7906C15.2884 11.131 8.69083 9.03674 2.25355 6.52364C1.00537 6.03687 -0.204438 7.30474 0.32824 8.53865C0.919603 9.91067 1.59899 11.2351 2.47249 12.4442C4.03667 14.6086 6.32989 16.3859 8.97523 16.7164C8.00918 16.8138 6.98671 16.9315 6.2983 17.7126C5.94844 18.1088 5.80173 18.6613 5.97779 19.1594C6.27121 19.9857 7.21694 20.1578 8.0295 20.2484C9.6343 20.425 11.2414 20.6016 12.8462 20.7782C11.6341 21.0974 10.8667 22.4853 11.0992 23.7192C11.3316 24.9531 12.4376 25.9266 13.6678 26.153C14.7534 26.3523 15.8933 26.0195 16.7916 25.3697C16.1664 26.033 16.1348 27.2149 16.6968 27.9733C17.3491 28.8541 18.5634 29.1801 19.6446 29.008C20.7257 28.836 21.6963 28.245 22.5698 27.5839C23.0844 28.691 24.2288 29.4767 25.4454 29.5559C26.6619 29.6352 27.8988 29.0035 28.5511 27.9733C29.1041 29.848 31.6208 30.8125 33.2798 29.7846C34.3542 31.4872 35.4286 33.1875 36.5007 34.89L37.3764 31.3423C36.5278 28.0911 35.424 24.9101 34.0765 21.8332L34.0743 21.8309Z" fill="#263238"/>
<g opacity="0.8">
<path d="M34.0743 21.8309C33.2188 19.8771 32.2302 17.9232 30.6728 16.4719C28.3435 14.3052 25.0797 13.5535 21.9942 12.7906C15.2884 11.131 8.69083 9.03674 2.25355 6.52364C1.00537 6.03687 -0.204438 7.30474 0.32824 8.53865C0.919603 9.91067 1.59899 11.2351 2.47249 12.4442C4.03667 14.6086 6.32989 16.3859 8.97523 16.7164C8.00918 16.8138 6.98671 16.9315 6.2983 17.7126C5.94844 18.1088 5.80173 18.6613 5.97779 19.1594C6.27121 19.9857 7.21694 20.1578 8.0295 20.2484C9.6343 20.425 11.2414 20.6016 12.8462 20.7782C11.6341 21.0974 10.8667 22.4853 11.0992 23.7192C11.3316 24.9531 12.4376 25.9266 13.6678 26.153C14.7534 26.3523 15.8933 26.0195 16.7916 25.3697C16.1664 26.033 16.1348 27.2149 16.6968 27.9733C17.3491 28.8541 18.5634 29.1801 19.6446 29.008C20.7257 28.836 21.6963 28.245 22.5698 27.5839C23.0844 28.691 24.2288 29.4767 25.4454 29.5559C26.6619 29.6352 27.8988 29.0035 28.5511 27.9733C29.1041 29.848 31.6208 30.8125 33.2798 29.7846C34.3542 31.4872 35.4286 33.1875 36.5007 34.89L37.3764 31.3423C36.5278 28.0911 35.424 24.9101 34.0765 21.8332L34.0743 21.8309Z" fill="white"/>
</g>
<path d="M72.9989 20.4649C74.0281 18.5971 75.1883 16.7406 76.8721 15.4387C79.3887 13.4916 82.7067 13.0411 85.8486 12.5634C92.6763 11.5219 99.4364 10.0367 106.075 8.11902C107.361 7.74771 108.451 9.11973 107.81 10.2993C107.097 11.6125 106.3 12.869 105.323 13.9942C103.569 16.007 101.125 17.5669 98.459 17.6552C99.4115 17.8409 100.42 18.0514 101.034 18.8914C101.346 19.3171 101.443 19.8831 101.224 20.3631C100.858 21.16 99.9013 21.246 99.0843 21.2596C97.4682 21.289 95.8543 21.3185 94.2382 21.3479C95.4165 21.7758 96.0552 23.2293 95.7121 24.4361C95.3691 25.6428 94.1796 26.5122 92.9336 26.6254C91.8344 26.7251 90.7307 26.2904 89.8956 25.5591C90.4576 26.2768 90.3831 27.4563 89.7534 28.1605C89.0243 28.9801 87.7852 29.1929 86.7221 28.9235C85.6612 28.654 84.7494 27.9771 83.9391 27.239C83.3274 28.2963 82.1153 28.9733 80.8965 28.9416C79.6776 28.9099 78.5039 28.1695 77.9464 27.0828C77.2242 28.9008 74.633 29.6298 73.0733 28.4571C71.85 30.0532 70.6266 31.6516 69.4033 33.2478L68.8525 29.6344C69.9924 26.476 71.3805 23.4059 73.0011 20.4649H72.9989Z" fill="#263238"/>
<g opacity="0.8">
<path d="M72.9989 20.4649C74.0281 18.5971 75.1883 16.7406 76.8721 15.4387C79.3887 13.4916 82.7067 13.0411 85.8486 12.5634C92.6763 11.5219 99.4364 10.0367 106.075 8.11902C107.361 7.74771 108.451 9.11973 107.81 10.2993C107.097 11.6125 106.3 12.869 105.323 13.9942C103.569 16.007 101.125 17.5669 98.459 17.6552C99.4115 17.8409 100.42 18.0514 101.034 18.8914C101.346 19.3171 101.443 19.8831 101.224 20.3631C100.858 21.16 99.9013 21.246 99.0843 21.2596C97.4682 21.289 95.8543 21.3185 94.2382 21.3479C95.4165 21.7758 96.0552 23.2293 95.7121 24.4361C95.3691 25.6428 94.1796 26.5122 92.9336 26.6254C91.8344 26.7251 90.7307 26.2904 89.8956 25.5591C90.4576 26.2768 90.3831 27.4563 89.7534 28.1605C89.0243 28.9801 87.7852 29.1929 86.7221 28.9235C85.6612 28.654 84.7494 27.9771 83.9391 27.239C83.3274 28.2963 82.1153 28.9733 80.8965 28.9416C79.6776 28.9099 78.5039 28.1695 77.9464 27.0828C77.2242 28.9008 74.633 29.6298 73.0733 28.4571C71.85 30.0532 70.6266 31.6516 69.4033 33.2478L68.8525 29.6344C69.9924 26.476 71.3805 23.4059 73.0011 20.4649H72.9989Z" fill="white"/>
</g>
<path d="M70.5418 32.3563C72.2345 22.1659 65.3712 12.5286 55.2121 10.8306C45.0531 9.13262 35.4453 16.0171 33.7525 26.2074C32.0597 36.3978 38.9231 46.0352 49.0821 47.7331C59.2412 49.4311 68.849 42.5467 70.5418 32.3563Z" fill="#FF9446"/>
<path opacity="0.3" d="M70.5418 32.3563C72.2345 22.1659 65.3712 12.5286 55.2121 10.8306C45.0531 9.13262 35.4453 16.0171 33.7525 26.2074C32.0597 36.3978 38.9231 46.0352 49.0821 47.7331C59.2412 49.4311 68.849 42.5467 70.5418 32.3563Z" fill="black"/>
<path d="M71.5027 28.2586C73.1955 18.0683 66.3322 8.4309 56.1731 6.73293C46.014 5.03496 36.4062 11.9194 34.7134 22.1098C33.0207 32.3001 39.884 41.9375 50.0431 43.6355C60.2022 45.3334 69.81 38.449 71.5027 28.2586Z" fill="#FF9446"/>
<path d="M65.2204 37.3339C71.9089 30.6248 71.9089 19.7473 65.2204 13.0382C58.5319 6.32908 47.6877 6.32908 40.9993 13.0382C34.3108 19.7472 34.3108 30.6248 40.9993 37.3339C47.6877 44.043 58.5319 44.043 65.2204 37.3339Z" fill="#FF9446"/>
<path opacity="0.7" d="M65.2204 37.3339C71.9089 30.6248 71.9089 19.7473 65.2204 13.0382C58.5319 6.32908 47.6877 6.32908 40.9993 13.0382C34.3108 19.7472 34.3108 30.6248 40.9993 37.3339C47.6877 44.043 58.5319 44.043 65.2204 37.3339Z" fill="white"/>
<path opacity="0.4" d="M59.3546 9.18311L36.8105 30.4766C36.8105 30.4766 38.3634 34.4161 39.7764 35.9692L64.0042 11.9294C64.0042 11.9294 61.9344 10.0751 59.3546 9.18537V9.18311Z" fill="white"/>
<path opacity="0.4" d="M66.2107 14.244L40.9785 37.3147C40.9785 37.3147 41.3735 37.9464 43.1927 39.126L68.1022 16.834C68.1022 16.834 67.8133 15.933 66.2107 14.2417V14.244Z" fill="white"/>
<path d="M52.6873 9.87061V11.9218H52.3081V10.1898H51.877V9.87061H52.6895H52.6873Z" fill="#263238"/>
<path d="M54.5734 11.6006V11.9221H53.0656V11.6663L53.8782 10.892C53.9707 10.8037 54.0317 10.7267 54.0633 10.661C54.0949 10.5954 54.1107 10.5297 54.1107 10.4663C54.1107 10.3712 54.0791 10.2965 54.0136 10.2467C53.9482 10.1969 53.8556 10.1697 53.7292 10.1697C53.5216 10.1697 53.3613 10.2399 53.2507 10.3826L52.9844 10.1765C53.0634 10.0701 53.1717 9.98634 53.3071 9.92521C53.4426 9.86635 53.5938 9.83691 53.7608 9.83691C53.982 9.83691 54.1603 9.88899 54.2935 9.9954C54.4267 10.1018 54.4921 10.2444 54.4921 10.4256C54.4921 10.5365 54.4696 10.6407 54.4222 10.738C54.3748 10.8354 54.2867 10.9463 54.1536 11.0708L53.6073 11.5916H54.5711L54.5734 11.6006Z" fill="#263238"/>
<path d="M53.2715 39.1547C53.3776 39.2068 53.4611 39.2793 53.5221 39.3766C53.583 39.4717 53.6124 39.5826 53.6124 39.7072C53.6124 39.8407 53.5785 39.9562 53.513 40.0581C53.4476 40.1577 53.3573 40.237 53.2444 40.2913C53.1316 40.3456 53.0052 40.3728 52.8653 40.3728C52.5854 40.3728 52.3664 40.2845 52.213 40.1079C52.0572 39.9313 51.9805 39.68 51.9805 39.3517C51.9805 39.1208 52.0234 38.9238 52.1069 38.7608C52.1904 38.5978 52.3077 38.4733 52.459 38.3895C52.6102 38.3035 52.784 38.2627 52.9826 38.2627C53.0887 38.2627 53.1858 38.274 53.2783 38.2967C53.3708 38.3193 53.4521 38.351 53.5198 38.394L53.3799 38.6815C53.2783 38.6159 53.1497 38.5819 52.9917 38.5819C52.7953 38.5819 52.6418 38.6431 52.5312 38.7631C52.4206 38.8853 52.3642 39.0596 52.3642 39.2883C52.4251 39.2204 52.5019 39.1683 52.5944 39.1321C52.6869 39.0959 52.793 39.0778 52.9104 39.0778C53.0458 39.0778 53.1655 39.1027 53.2738 39.1547H53.2715ZM53.1339 39.9789C53.2083 39.9155 53.2444 39.8317 53.2444 39.7253C53.2444 39.6189 53.2083 39.5328 53.1339 39.4694C53.0594 39.406 52.9601 39.3766 52.8359 39.3766C52.7118 39.3766 52.6125 39.4106 52.5357 39.4762C52.459 39.5419 52.4206 39.6279 52.4206 39.7275C52.4206 39.8272 52.459 39.9087 52.5335 39.9743C52.6079 40.04 52.7118 40.0717 52.8449 40.0717C52.9646 40.0717 53.0594 40.04 53.1339 39.9766V39.9789Z" fill="#263238"/>
<path d="M60.3331 12.3545V14.4057H59.9539V12.6737H59.5205V12.3545H60.3331Z" fill="#263238"/>
<path d="M60.5 37.137C60.6376 37.2502 60.7076 37.4019 60.7076 37.5966C60.7076 37.7189 60.6783 37.8321 60.6173 37.9317C60.5564 38.0313 60.4661 38.1106 60.3465 38.1694C60.2246 38.2283 60.0756 38.2577 59.8996 38.2577C59.7528 38.2577 59.6129 38.2374 59.4752 38.1943C59.3398 38.1513 59.2247 38.0947 59.1299 38.02L59.2901 37.7234C59.3669 37.7868 59.4572 37.8344 59.5633 37.8706C59.6693 37.9068 59.7799 37.9249 59.8928 37.9249C60.0282 37.9249 60.132 37.8978 60.2088 37.8412C60.2855 37.7846 60.3239 37.7098 60.3239 37.6102C60.3239 37.5038 60.2833 37.4246 60.1998 37.3725C60.1162 37.3182 59.9763 37.291 59.7754 37.291H59.2811L59.3872 36.1748H60.588V36.494H59.7077L59.6648 36.9695H59.8612C60.1501 36.9695 60.3623 37.0261 60.5 37.137Z" fill="#263238"/>
<path d="M45.8074 12.3545V14.4057H45.4282V12.6737H44.9971V12.3545H45.8096H45.8074Z" fill="#263238"/>
<path d="M46.9219 12.3545V14.4057H46.5427V12.6737H46.1094V12.3545H46.9219Z" fill="#263238"/>
<path d="M45.8074 36.1748V38.226H45.4282V36.494H44.9971V36.1748H45.8096H45.8074Z" fill="#263238"/>
<path d="M46.9219 36.1748V38.226H46.5427V36.494H46.1094V36.1748H46.9219Z" fill="#263238"/>
<path d="M65.4904 18.5474V18.8689H63.9826V18.613L64.7952 17.8387C64.8877 17.7504 64.9487 17.6735 64.9803 17.6078C65.0119 17.5422 65.0277 17.4765 65.0277 17.4131C65.0277 17.318 64.9961 17.2433 64.9306 17.1935C64.8652 17.1437 64.7726 17.1165 64.6462 17.1165C64.4386 17.1165 64.2783 17.1867 64.1677 17.3293L63.9014 17.1233C63.9804 17.0169 64.0887 16.9331 64.2241 16.872C64.3596 16.8131 64.5108 16.7837 64.6778 16.7837C64.899 16.7837 65.0773 16.8358 65.2105 16.9422C65.3437 17.0486 65.4091 17.1912 65.4091 17.3723C65.4091 17.4833 65.3865 17.5874 65.3391 17.6848C65.2917 17.7821 65.2037 17.8931 65.0705 18.0176L64.5243 18.5383H65.4881L65.4904 18.5474Z" fill="#263238"/>
<path d="M65.8938 32.5729H65.5327V33.0393H65.1648V32.5729H64.043V32.308L65.0496 30.9858H65.4559L64.5057 32.2492H65.1738V31.8371H65.5304V32.2492H65.8915V32.5707L65.8938 32.5729Z" fill="#263238"/>
<path d="M41.2061 16.8169V18.8681H40.8269V17.1361H40.3936V16.8169H41.2061Z" fill="#263238"/>
<path d="M42.0266 18.7734C41.898 18.6896 41.7964 18.5696 41.7219 18.4111C41.6474 18.2526 41.6113 18.0624 41.6113 17.8451C41.6113 17.6277 41.6474 17.4376 41.7219 17.2791C41.7964 17.1206 41.898 16.9983 42.0266 16.9146C42.1553 16.8308 42.302 16.79 42.4645 16.79C42.627 16.79 42.7737 16.8308 42.9047 16.9146C43.0333 16.9983 43.1349 17.1183 43.2094 17.2791C43.2838 17.4376 43.32 17.6277 43.32 17.8451C43.32 18.0624 43.2838 18.2526 43.2094 18.4111C43.1349 18.5696 43.0333 18.6918 42.9047 18.7734C42.776 18.8571 42.6293 18.8979 42.4645 18.8979C42.2997 18.8979 42.1553 18.8571 42.0266 18.7734ZM42.8099 18.3862C42.8934 18.2662 42.9363 18.0851 42.9363 17.8451C42.9363 17.6051 42.8934 17.424 42.8099 17.304C42.7263 17.1817 42.609 17.1229 42.4645 17.1229C42.3201 17.1229 42.2049 17.184 42.1214 17.304C42.0357 17.4262 41.995 17.6051 41.995 17.8451C41.995 18.0851 42.0379 18.2662 42.1214 18.3862C42.2049 18.5085 42.3201 18.5673 42.4645 18.5673C42.609 18.5673 42.7263 18.5062 42.8099 18.3862Z" fill="#263238"/>
<path d="M42.0737 32.1269C42.1302 32.2107 42.1595 32.308 42.1595 32.4189C42.1595 32.5435 42.1257 32.6544 42.0557 32.7472C41.9857 32.8401 41.8887 32.9125 41.7623 32.9623C41.6359 33.0121 41.4892 33.037 41.3221 33.037C41.1551 33.037 41.0084 33.0121 40.882 32.9623C40.7556 32.9125 40.6585 32.8401 40.5908 32.7472C40.5231 32.6544 40.4893 32.5435 40.4893 32.4189C40.4893 32.308 40.5163 32.2107 40.575 32.1269C40.6315 32.0431 40.7127 31.9775 40.8165 31.9299C40.7353 31.8846 40.6721 31.8258 40.6292 31.7533C40.5863 31.6809 40.5637 31.5948 40.5637 31.4997C40.5637 31.3843 40.5953 31.2847 40.6585 31.1986C40.7217 31.1126 40.812 31.0469 40.9249 30.9994C41.04 30.9518 41.1732 30.9292 41.3221 30.9292C41.4711 30.9292 41.6065 30.9518 41.7216 30.9994C41.8368 31.0469 41.927 31.1126 41.9902 31.1986C42.0534 31.2847 42.0873 31.3843 42.0873 31.4997C42.0873 31.5948 42.0647 31.6786 42.0196 31.7511C41.9744 31.8235 41.9112 31.8824 41.8277 31.9299C41.9338 31.9797 42.0173 32.0454 42.0737 32.1269ZM41.6539 32.6499C41.7352 32.591 41.7758 32.5095 41.7758 32.4076C41.7758 32.3057 41.7352 32.2265 41.6539 32.1676C41.5727 32.1088 41.4621 32.0793 41.3199 32.0793C41.1777 32.0793 41.0693 32.1088 40.9903 32.1676C40.9113 32.2265 40.8707 32.3057 40.8707 32.4076C40.8707 32.5095 40.9113 32.5933 40.9903 32.6499C41.0693 32.7088 41.1799 32.7382 41.3199 32.7382C41.4598 32.7382 41.5704 32.7088 41.6539 32.6499ZM41.04 31.3028C40.97 31.3526 40.9362 31.425 40.9362 31.5179C40.9362 31.6107 40.97 31.6763 41.04 31.7261C41.11 31.7782 41.2025 31.8031 41.3221 31.8031C41.4418 31.8031 41.5388 31.7782 41.6088 31.7261C41.6788 31.6741 41.7149 31.6039 41.7149 31.5179C41.7149 31.4318 41.6788 31.3548 41.6088 31.3028C41.5366 31.253 41.4418 31.2258 41.3244 31.2258C41.207 31.2258 41.1122 31.2507 41.0422 31.3028H41.04Z" fill="#263238"/>
<path d="M67.2741 24.9882C67.3735 25.0947 67.4231 25.226 67.4231 25.3845C67.4231 25.5044 67.3938 25.6109 67.3328 25.7105C67.2719 25.8078 67.1816 25.8848 67.0597 25.9437C66.9378 26.0003 66.7889 26.0297 66.6151 26.0297C66.4684 26.0297 66.3284 26.0093 66.193 25.9663C66.0576 25.9233 65.9425 25.8667 65.8477 25.792L66.0102 25.4954C66.0847 25.5588 66.1749 25.6063 66.281 25.6426C66.3871 25.6788 66.4977 25.6969 66.6106 25.6969C66.746 25.6969 66.8498 25.6697 66.9266 25.6131C67.0033 25.5565 67.0417 25.4818 67.0417 25.3867C67.0417 25.2916 67.0056 25.2169 66.9311 25.1626C66.8588 25.1082 66.746 25.0811 66.597 25.0811H66.4097V24.8207L66.8746 24.266H65.9447V23.9468H67.3374V24.2004L66.8408 24.7913C67.0304 24.8139 67.1748 24.8796 67.2741 24.9837V24.9882Z" fill="#263238"/>
<path d="M39.8125 24.1824C39.9682 24.359 40.045 24.6103 40.045 24.9386C40.045 25.1695 40.0021 25.3665 39.9186 25.5295C39.8351 25.6925 39.7177 25.817 39.5665 25.9008C39.4152 25.9868 39.2414 26.0276 39.0428 26.0276C38.9367 26.0276 38.8397 26.0163 38.7471 25.9936C38.6546 25.971 38.5733 25.9393 38.5056 25.8963L38.6456 25.6087C38.7471 25.6744 38.8758 25.7084 39.0338 25.7084C39.2302 25.7084 39.3836 25.6472 39.4942 25.5272C39.6048 25.4072 39.6613 25.2306 39.6613 25.002C39.6003 25.0699 39.5236 25.122 39.431 25.1582C39.3385 25.1944 39.2324 25.2125 39.115 25.2125C38.9796 25.2125 38.86 25.1876 38.7539 25.1355C38.6478 25.0835 38.5621 25.011 38.5034 24.9137C38.4424 24.8186 38.4131 24.7076 38.4131 24.5831C38.4131 24.4495 38.4469 24.3341 38.5124 24.2322C38.5779 24.1326 38.6681 24.0533 38.781 23.999C38.8938 23.9446 39.0202 23.9175 39.1602 23.9175C39.4401 23.9175 39.659 24.0058 39.8125 24.1801V24.1824ZM39.4875 24.814C39.5642 24.7484 39.6026 24.6646 39.6026 24.5627C39.6026 24.4609 39.5642 24.3816 39.4897 24.316C39.4152 24.2503 39.3114 24.2186 39.1782 24.2186C39.0586 24.2186 38.9638 24.2503 38.8893 24.3137C38.8149 24.3771 38.7787 24.4609 38.7787 24.5673C38.7787 24.6737 38.8149 24.7597 38.8893 24.8231C38.9638 24.8865 39.0631 24.9159 39.1873 24.9159C39.3114 24.9159 39.4107 24.882 39.4875 24.8163V24.814Z" fill="#263238"/>
<path d="M52.7451 25.2251L53.1221 14.0791H53.6502L54.2754 25.2251H52.7451Z" fill="#263238"/>
<path d="M52.8424 25.9715L47.6533 20.7846L48.0054 20.3906L53.8671 24.8304L52.8424 25.9715Z" fill="#263238"/>
<path d="M50.0332 27.6088L62.1539 20.7012L50.2883 27.9801L50.0332 27.6088Z" fill="#FF9446"/>
<path d="M55.1184 25.2248C55.1184 26.1146 54.3984 26.8368 53.5114 26.8368C52.6243 26.8368 51.9043 26.1146 51.9043 25.2248C51.9043 24.335 52.6243 23.6128 53.5114 23.6128C54.3984 23.6128 55.1184 24.335 55.1184 25.2248Z" fill="#FF9446"/>
<path opacity="0.3" d="M55.1184 25.2248C55.1184 26.1146 54.3984 26.8368 53.5114 26.8368C52.6243 26.8368 51.9043 26.1146 51.9043 25.2248C51.9043 24.335 52.6243 23.6128 53.5114 23.6128C54.3984 23.6128 55.1184 24.335 55.1184 25.2248Z" fill="black"/>
<path d="M40.3704 41.5207C40.3704 41.5207 37.3617 47.3122 38.3774 47.3959C39.3931 47.4797 42.9164 43.3727 42.9164 43.3727C42.9164 43.3727 42.5395 41.3396 40.3727 41.5207H40.3704Z" fill="#FF9446"/>
<path d="M65.7335 40.9592C65.7335 40.9592 68.7422 46.7506 67.7265 46.8344C66.7108 46.9182 63.1875 42.8112 63.1875 42.8112C63.1875 42.8112 63.5644 40.7781 65.7313 40.9592H65.7335Z" fill="#FF9446"/>
<path d="M33.009 15.4435C33.1196 15.3099 45.8204 3.7768 45.8204 3.7768C45.8204 3.7768 40.9563 -0.447931 35.2571 5.23486C29.5579 10.9154 33.009 15.4435 33.009 15.4435Z" fill="#FF9446"/>
<path d="M45.8202 3.77698C46.3326 4.33621 43.7414 7.2976 40.2271 10.5262C36.7151 13.7547 33.4535 15.9191 32.9412 15.3577C32.4288 14.7984 34.862 11.7261 38.3763 8.49755C41.8884 5.269 45.3079 3.2155 45.8202 3.77472V3.77698Z" fill="#FF9446"/>
<path opacity="0.3" d="M45.8202 3.77698C46.3326 4.33621 43.7414 7.2976 40.2271 10.5262C36.7151 13.7547 33.4535 15.9191 32.9412 15.3577C32.4288 14.7984 34.862 11.7261 38.3763 8.49755C41.8884 5.269 45.3079 3.2155 45.8202 3.77472V3.77698Z" fill="black"/>
<path d="M37.6265 5.56019L35.7344 7.29932L40.1657 12.1501L42.0578 10.411L37.6265 5.56019Z" fill="#FF9446"/>
<path d="M35.7937 7.29988C36.8059 7.29988 37.6265 6.47679 37.6265 5.46146C37.6265 4.44613 36.8059 3.62305 35.7937 3.62305C34.7815 3.62305 33.9609 4.44613 33.9609 5.46146C33.9609 6.47679 34.7815 7.29988 35.7937 7.29988Z" fill="#FF9446"/>
<path opacity="0.4" d="M35.2484 5.40479L34.2124 6.38286C34.0657 6.56399 31.5174 10.191 33.6414 13.6075C34.4472 12.5094 35.3997 11.4317 36.4447 10.3676C35.3432 9.47556 34.0793 7.82959 35.2484 5.40479Z" fill="white"/>
<path opacity="0.2" d="M37.543 9.28296L39.4457 7.55322L39.8701 8.01962L38.0666 9.85803L37.543 9.28296Z" fill="black"/>
<path opacity="0.3" d="M34.2121 6.38283L36.801 3.92633L36.5933 3.80859L34.0947 6.14511L34.2121 6.38283Z" fill="black"/>
<path d="M59.7383 3.62759C59.885 3.71815 73.0891 14.6694 73.0891 14.6694C73.0891 14.6694 76.5583 9.2334 70.1345 4.39284C63.7108 -0.447723 59.7383 3.62759 59.7383 3.62759Z" fill="#FF9446"/>
<path d="M73.0899 14.6692C72.6114 15.2579 69.3182 13.1115 65.6279 10.0868C61.9375 7.06424 59.335 4.13681 59.8135 3.54816C60.2921 2.9595 63.6709 4.93376 67.3613 7.95628C71.0517 10.9788 73.5684 14.0783 73.0899 14.667V14.6692Z" fill="#FF9446"/>
<path opacity="0.3" d="M73.0899 14.6692C72.6114 15.2579 69.3182 13.1115 65.6279 10.0868C61.9375 7.06424 59.335 4.13681 59.8135 3.54816C60.2921 2.9595 63.6709 4.93376 67.3613 7.95628C71.0517 10.9788 73.5684 14.0783 73.0899 14.667V14.6692Z" fill="black"/>
<path d="M70.1507 6.79245L68.1631 5.16406L64.014 10.2598L66.0016 11.8882L70.1507 6.79245Z" fill="#FF9446"/>
<path d="M70.2528 6.77707C69.2507 6.92197 68.323 6.22691 68.1763 5.22166C68.0318 4.21642 68.7248 3.28589 69.7269 3.13873C70.7291 2.99383 71.6567 3.6889 71.8034 4.69414C71.9479 5.69938 71.255 6.62991 70.2528 6.77707Z" fill="#FF9446"/>
<path opacity="0.4" d="M69.9658 4.40854L68.8508 3.52103C68.6499 3.40103 64.7068 1.39281 61.6416 3.99195C62.8401 4.63268 64.0409 5.4251 65.2417 6.31035C65.9617 5.08775 67.4063 3.598 69.9658 4.40854Z" fill="white"/>
<path opacity="0.2" d="M66.4693 7.24365L68.4488 8.88283L68.0515 9.37187L65.9795 7.84589L66.4693 7.24365Z" fill="black"/>
<path opacity="0.3" d="M68.8535 3.51905L71.6501 5.73557L71.7358 5.51369L69.0702 3.36963L68.8535 3.51905Z" fill="black"/>
<path opacity="0.3" d="M39.9581 11.9225C39.9581 11.9225 41.3665 10.6682 41.9105 10.2494L41.7322 10.0547L39.7979 11.7505L39.9558 11.9248L39.9581 11.9225Z" fill="black"/>
<path opacity="0.3" d="M64.1624 10.0935C64.1624 10.0935 65.6182 11.2912 66.1171 11.7667L66.2796 11.5607L64.3069 9.91016L64.1602 10.0935H64.1624Z" fill="black"/>
<path opacity="0.3" d="M12.0332 15.708C12.0332 15.708 23.0885 17.2113 25.4134 18.846C27.7382 20.4829 32.4736 26.897 32.4736 26.897C32.4736 26.897 26.6638 20.7455 24.339 19.3101C22.0141 17.8747 12.0332 15.708 12.0332 15.708Z" fill="black"/>
<path opacity="0.3" d="M16.555 18.7671C16.555 18.7671 15.5393 21.9571 18.056 21.8689C20.5749 21.7806 21.5906 20.6734 21.5906 20.6734C21.5906 20.6734 20.8841 23.5986 22.7824 23.5533C24.6829 23.508 26.0078 22.3126 26.0078 22.3126C26.0078 22.3126 23.2676 24.6559 21.9427 24.1057C20.6178 23.5533 21.1798 21.6492 21.1798 21.6492C21.1798 21.6492 18.0763 23.1616 16.7943 22.102C15.5122 21.0425 15.7628 20.558 16.5527 18.7694L16.555 18.7671Z" fill="black"/>
<path opacity="0.3" d="M94.1855 15.104C94.1855 15.104 83.1302 16.6073 80.8054 18.242C78.4805 19.8789 73.7451 26.293 73.7451 26.293C73.7451 26.293 79.5549 20.1415 81.8797 18.7061C84.2046 17.2707 94.1855 15.104 94.1855 15.104Z" fill="black"/>
<path opacity="0.3" d="M89.6657 18.165C89.6657 18.165 90.6814 21.3551 88.1647 21.2668C85.6458 21.1785 84.6301 20.0714 84.6301 20.0714C84.6301 20.0714 85.3365 22.9965 83.4383 22.9513C81.5378 22.906 80.2129 21.7106 80.2129 21.7106C80.2129 21.7106 82.953 24.0539 84.2779 23.5037C85.6029 22.9513 85.0408 21.0472 85.0408 21.0472C85.0408 21.0472 88.1444 22.5596 89.4264 21.5C90.7085 20.4404 90.4579 19.9559 89.6679 18.1673L89.6657 18.165Z" fill="black"/>
<path d="M46.6016 6.84046C46.5678 6.84046 46.5339 6.82008 46.5226 6.78386C46.5068 6.74084 46.5294 6.69103 46.5723 6.67519C50.0866 5.37788 54.0275 5.14242 57.6682 6.01634C57.7134 6.02766 57.7427 6.07295 57.7314 6.11823C57.7201 6.16351 57.675 6.19068 57.6299 6.18162C54.0185 5.31449 50.1137 5.54768 46.631 6.83367C46.6219 6.8382 46.6107 6.8382 46.6016 6.8382V6.84046Z" fill="#FF9446"/>
<path d="M58.6999 6.47278C58.6999 6.47278 58.6841 6.47278 58.6773 6.47051L58.1198 6.31203C58.0747 6.29845 58.0476 6.25316 58.0611 6.20788C58.0747 6.1626 58.1198 6.13543 58.1649 6.14902L58.7225 6.3075C58.7676 6.32108 58.7947 6.36636 58.7811 6.41165C58.7698 6.45013 58.736 6.47278 58.6999 6.47278Z" fill="#FF9446"/>
</svg>
