<svg width="717" height="693" fill="none" xmlns="http://www.w3.org/2000/svg"><path d="M607.164 45.922a77.786 77.786 0 0 0-5.291 24.122h-21.34v-.595c0-.547.113-1.094.177-1.608a57.01 57.01 0 0 1 1.415-8.41 64.742 64.742 0 0 1 4.744-13.171.467.467 0 0 1 .515-.322h19.812l-.032-.016ZM606.52 99.843h-19.651a.434.434 0 0 1-.466-.306 60.522 60.522 0 0 1-4.825-14.86 61.997 61.997 0 0 1-.965-7.509 1.23 1.23 0 0 0 0-.257v-.595h20.826c.385 0 .369 0 .402.386.128 1.72.241 3.441.402 5.146a65.25 65.25 0 0 0 1.318 8.04 70.79 70.79 0 0 0 2.798 9.649c.097.08.113.177.161.305ZM689.114 106.05l-.161.289a57.913 57.913 0 0 1-5.564 7.221 54.96 54.96 0 0 1-8.169 7.526 57.99 57.99 0 0 1-19.105 9.649 59.257 59.257 0 0 1-8.185 1.752l-.804.129h-.467l-.45-.289.515-.37a63.071 63.071 0 0 0 15.486-15.02 71.682 71.682 0 0 0 6.336-10.501.447.447 0 0 1 .482-.306h20.086v-.08ZM669.463 70.028h-27.58V45.906h21.533a.404.404 0 0 1 .434.29 66.947 66.947 0 0 1 4.39 14.135 71.455 71.455 0 0 1 1.062 7.638c.048.676.112 1.319.161 2.059ZM669.301 76.477c0 .562 0 1.125-.08 1.608-.129 1.35-.209 2.685-.402 4.036a93.53 93.53 0 0 1-.917 5.516 65.29 65.29 0 0 1-3.57 11.771.446.446 0 0 1-.498.354h-22.192V76.477h27.659ZM635.66 46.067v24.122h-26.936c0-.627 0-1.222.112-1.817.145-1.351.241-2.702.467-4.037.321-2.058.675-4.1 1.109-6.127a63.418 63.418 0 0 1 3.892-11.852.43.43 0 0 1 .466-.29h20.906-.016ZM635.692 76.782V99.842h-21.533a.451.451 0 0 1-.482-.321 62.24 62.24 0 0 1-3.667-12.158c-.402-2.155-.707-4.31-.981-6.432-.177-1.415-.209-2.847-.305-4.278v-.145h26.614c.29-.064.354.017.354.274ZM698.73 70.205h-22.61a78.484 78.484 0 0 0-5.275-24.283h21.067a.448.448 0 0 1 .498.306 58.5 58.5 0 0 1 5.21 15.02 65.4 65.4 0 0 1 1.11 8.49v.467ZM698.746 76.283c0 .547 0 1.078-.08 1.608a57.898 57.898 0 0 1-4.824 19.652l-.965 2.09a.325.325 0 0 1-.338.226h-21.066c.257-.724.514-1.416.755-2.123a74.546 74.546 0 0 0 3.763-19.298c0-.643.081-1.286.113-1.945 0-.161 0-.258.225-.242.07.008.14.008.209 0l22.208.032ZM688.503 39.763v.096h-20.102a.466.466 0 0 1-.482-.273 68.567 68.567 0 0 0-9.81-14.553 56.134 56.134 0 0 0-7.542-6.948c-1.351-1.029-2.75-2.01-4.117-3.007l-.225-.16.273-.193c0-.13 0-.258-.144-.435a59.21 59.21 0 0 1 42.149 25.473ZM631.832 132.262c-.188.057-.382.09-.579.097a51.71 51.71 0 0 1-6.432-1.255 58.125 58.125 0 0 1-11.466-4.245 58.82 58.82 0 0 1-11.707-7.687 54.635 54.635 0 0 1-7.028-7.027 58.474 58.474 0 0 1-4.39-6.079v-.177h18.735a.465.465 0 0 1 .466.306 67.552 67.552 0 0 0 14.521 19.796 63.56 63.56 0 0 0 7.639 6.127l.241.144ZM631.591 14.885c-.852.611-1.833 1.319-2.798 2.043a70.254 70.254 0 0 0-8.909 8.314 62.157 62.157 0 0 0-9.375 13.347c-.161.306-.29.627-.467.917a.376.376 0 0 1-.289.177h-19.008a58.79 58.79 0 0 1 40.637-25.28l-.129.241.338.241ZM661.229 106.066a63.691 63.691 0 0 1-9.102 12.334 58.292 58.292 0 0 1-10.405 8.829v-21.163h19.507ZM635.659 106.082v20.745a60.058 60.058 0 0 1-18.734-20.745h18.734ZM660.618 39.666h-18.735V19.903a57.032 57.032 0 0 1 10.517 8.812 66.926 66.926 0 0 1 8.218 10.951ZM635.659 20.514V39.81h-17.994a57.059 57.059 0 0 1 17.994-19.297Z" fill="#EBEBEB"/><path d="m513.651 129.432-2.01-1.914.708-.772 2.026 1.93-.724.756ZM504.469 240.103v-1.045c1.881 0 3.746-.161 5.548-.338l.112 1.045c-1.865.177-3.763.29-5.66.338Zm-7.044-.113a96.445 96.445 0 0 1-5.612-.498l.112-1.029c1.866.209 3.731.386 5.548.482l-.048 1.045Zm19.635-1.302-.209-1.029c1.833-.37 3.65-.853 5.371-1.383l.322.997a58.1 58.1 0 0 1-5.484 1.415Zm-32.162-.241a125.29 125.29 0 0 1-5.5-1.158l.241-1.029c1.833.434 3.667.82 5.452 1.157l-.193 1.03Zm-12.303-2.959a148.136 148.136 0 0 1-5.355-1.705l.322-.997c1.785.611 3.57 1.174 5.323 1.689l-.29 1.013Zm56.574-.772-.45-.949a45.268 45.268 0 0 0 4.824-2.653l.563.884a47.28 47.28 0 0 1-5.033 2.718h.096Zm-68.538-3.345a141.466 141.466 0 0 1-5.194-2.139l.418-.949c1.721.74 3.457 1.448 5.162 2.123l-.386.965Zm79.152-3.667-.708-.772a35.563 35.563 0 0 0 3.796-4.004l.82.66a39.442 39.442 0 0 1-3.956 4.116h.048Zm-90.747-1.383c-1.608-.788-3.328-1.608-5.033-2.508l.482-.917c1.689.868 3.345 1.608 5.002 2.493l-.451.932Zm-11.256-5.837c-1.609-.917-3.217-1.866-4.825-2.814l.531-.901c1.608.949 3.216 1.882 4.824 2.814l-.53.901Zm109.77-2.782-.916-.499a35.334 35.334 0 0 0 2.235-5.033l.997.338a36.672 36.672 0 0 1-2.3 5.194h-.016Zm-120.609-3.747a145.965 145.965 0 0 1-4.664-3.12l.595-.852a108.27 108.27 0 0 0 4.632 3.087l-.563.885Zm-10.389-7.188a304.306 304.306 0 0 1-4.47-3.377l.643-.821a315.977 315.977 0 0 0 4.454 3.361l-.627.837Zm135.083-1.11-1.029-.177c.31-1.819.503-3.656.579-5.5h1.045a45.605 45.605 0 0 1-.563 5.677h-.032Zm-145.005-6.642a237.525 237.525 0 0 1-4.31-3.618l.692-.804a181.814 181.814 0 0 0 4.277 3.602l-.659.82Zm144.362-5.95a61.47 61.47 0 0 0-.788-5.499l1.013-.193c.37 1.881.643 3.763.82 5.596l-1.045.096Zm-153.93-2.299c-1.383-1.255-2.75-2.525-4.117-3.795l.708-.756a301.26 301.26 0 0 0 4.116 3.763l-.707.788Zm-9.183-8.604a309.602 309.602 0 0 1-4.004-3.924l.724-.755 4.004 3.923-.724.756Zm160.636-1.334a73.219 73.219 0 0 0-1.833-5.243l.981-.386a78.188 78.188 0 0 1 1.849 5.323l-.997.306Zm-169.593-7.559-3.908-4.02.756-.724a721.04 721.04 0 0 0 3.908 4.005l-.756.739Zm164.994-4.068c-.788-1.608-1.608-3.313-2.557-4.953l.917-.515c.916 1.608 1.785 3.345 2.589 5.001l-.949.467Zm-173.678-4.985-3.875-4.053.756-.724 3.875 4.053-.756.724Zm167.631-5.95c-.981-1.609-2.026-3.104-3.103-4.648l.852-.595c1.093 1.608 2.155 3.216 3.136 4.68l-.885.563Zm-176.331-3.217-3.859-4.052.756-.724 3.859 4.069-.756.707Zm169.014-6.963c-1.109-1.447-2.299-2.895-3.505-4.342l.804-.675a141.348 141.348 0 0 1 3.538 4.374l-.837.643Zm-177.762-2.042-3.892-4.021.74-.739 3.908 4.036-.756.724Zm169.657-7.558a175.869 175.869 0 0 0-3.827-4.053l.804-.82a123.729 123.729 0 0 1 3.86 4.101l-.837.772Zm-178.502-1.464-3.939-3.956.723-.74 3.972 3.956-.756.74Zm-8.941-8.861a465.948 465.948 0 0 0-4.036-3.875l.724-.756a489.102 489.102 0 0 1 4.052 3.876l-.74.755Zm-9.134-8.651a467.351 467.351 0 0 0-4.133-3.763l.692-.788 4.149 3.779-.708.772Zm-9.327-8.411a315.756 315.756 0 0 0-4.245-3.634l.675-.804a336.02 336.02 0 0 1 4.261 3.65l-.691.788Zm-9.649-8.04-4.374-3.506.659-.82c1.48 1.174 2.927 2.348 4.375 3.522l-.66.804Zm-9.89-7.784c-1.463-1.125-2.959-2.235-4.47-3.36l.611-.837a272.924 272.924 0 0 1 4.486 3.361l-.627.836Zm-10.147-7.445a443.014 443.014 0 0 0-4.583-3.217l.595-.868c1.608 1.078 3.087 2.139 4.599 3.216l-.611.869Zm-10.388-7.092a262.143 262.143 0 0 0-4.68-3.056l.563-.868c1.608 1.013 3.216 2.026 4.695 3.04l-.578.884Zm-10.614-6.754a760.825 760.825 0 0 0-4.824-2.879l.53-.9c1.608.948 3.216 1.913 4.825 2.894l-.531.885Zm-10.839-6.433-4.824-2.718.498-.932 4.905 2.75-.579.9Zm-11.032-6.046a174.197 174.197 0 0 0-4.953-2.59l.467-.932 4.985 2.589-.499.933Zm-11.256-5.725c-1.609-.804-3.329-1.608-5.034-2.428l.45-.95c1.705.805 3.393 1.609 5.05 2.445l-.466.933Zm-11.29-5.468-5.097-2.316.434-.948c1.721.771 3.425 1.608 5.098 2.3l-.435.964Zm-11.514-5.146-5.162-2.17.402-.966 5.178 2.171-.418.965ZM197.96 40.342l-2.605-1.03.386-.98 2.605 1.029-.386.98Z" fill="#A6A6A6"/><path d="m201.273 20.32 9.23 25.345-19.378-15.133-74.054-26.855 84.202 16.644Z" fill="#DBDBDB"/><path d="m188.649 36.434 21.854 9.23-19.378-15.132-2.476 5.902Z" fill="#C7C7C7"/><path d="M191.125 30.532 117.071 3.677l60.739 59.275 13.315-32.42ZM201.273 20.32 232.052.444 117.071 3.676l84.202 16.645Z" fill="#EBEBEB"/><path d="m236.394 546.901-.337-.128-1.802-.708.37-.965 1.817.724 3.217 1.254-.37.965-2.895-1.142Zm-8.475-3.425a252.465 252.465 0 0 1-5.049-2.139l.418-.933 5.017 2.139-.386.933Zm17.835 6.963.353-.965 5.146 1.834-.337.964-5.162-1.833Zm11.626 4.069.322-.965 5.194 1.721-.321.981-5.195-1.737Zm-40.75-15.953c-1.688-.772-3.345-1.608-4.953-2.332l.435-.916c1.608.772 3.216 1.608 4.936 2.315l-.418.933Zm52.457 19.78.306-.981 5.21 1.608-.289.981-5.227-1.608Zm-63.553-25.167c-1.608-.836-3.216-1.689-4.824-2.541l.498-.917c1.566.858 3.174 1.71 4.825 2.557l-.499.901Zm75.325 28.769.289-.997 5.243 1.608-.29.981-5.242-1.592Zm-86.131-34.671c-1.608-.933-3.217-1.881-4.696-2.83l.547-.869c1.511.949 3.071 1.882 4.663 2.815l-.514.884Zm97.951 38 .289-.981 5.259 1.447-.274.997-5.274-1.463Zm11.884 3.216.257-.981 1.383.354 3.908.997-.242.997-3.923-.997-1.383-.37Zm-120.272-47.841c-1.528-1.046-3.039-2.107-4.487-3.217l.595-.82a194.991 194.991 0 0 0 4.455 3.136l-.563.901Zm132.252 50.736.225-.997c1.769.386 3.554.74 5.355 1.093l-.193.997a195.154 195.154 0 0 1-5.339-1.077l-.048-.016Zm12.125 2.3.177-1.014c1.785.306 3.586.595 5.388.853l-.145 1.013c-1.769-.29-3.57-.531-5.371-.836l-.049-.016Zm-154.299-60.369a122.724 122.724 0 0 1-4.197-3.554l.691-.756a120.68 120.68 0 0 0 4.149 3.505l-.643.805Zm166.553 62.154.113-1.013c1.817.225 3.618.418 5.419.611l-.096 1.029c-1.817-.241-3.635-.402-5.436-.627ZM165.235 505.09a96.545 96.545 0 0 1-3.763-4.004l.772-.676a119.492 119.492 0 0 0 3.714 3.972l-.723.708Zm187.925 71.674v-1.029c1.817.161 3.618.306 5.436.418v1.029c-1.801-.161-3.619-.289-5.436-.45v.032Zm12.27.82v-1.029l5.452.241v1.013l-5.452-.225Zm-208.3-81.837a144.453 144.453 0 0 1-3.217-4.503l.853-.563a67.132 67.132 0 0 0 3.12 4.439l-.756.627Zm220.635 82.207v-1.013h5.451v1.029l-5.451-.016ZM150.488 485.31c-.852-1.608-1.608-3.297-2.364-4.969l.949-.402c.708 1.608 1.496 3.297 2.332 4.824l-.917.547Zm239.611 92.676v-1.029c1.833 0 3.65 0 5.467-.096v1.029c-1.817.032-3.65.08-5.483.096h.016Zm12.318-.321v-1.029l5.468-.258v1.029l-5.468.258ZM145.728 473.892a31.732 31.732 0 0 1-1.174-5.435l1.029-.113a29.806 29.806 0 0 0 1.126 5.243l-.981.305Zm268.975 103.113v-1.029l5.452-.386v1.013l-5.452.402Zm12.286-.981-.096-1.013 5.451-.53.097 1.013c-1.78.236-3.597.412-5.452.53Zm-282.258-114.53a19.19 19.19 0 0 1 1.045-3.602c.219-.549.466-1.086.74-1.609l.917.451a17.708 17.708 0 0 0-.708 1.608 19.605 19.605 0 0 0-.997 3.441l-.997-.289Zm294.464 113.26-.129-1.013 5.436-.659.128 1.013-5.435.659Zm12.222-1.608-.145-1.013c1.865-.258 3.666-.515 5.419-.788l.145 1.013c-1.737.273-3.49.579-5.355.836l-.064-.048ZM151.308 451.218l-.755-.692a32.127 32.127 0 0 1 4.116-3.73l.611.82a30.956 30.956 0 0 0-3.972 3.602Zm312.363 120.143-.161-1.013 5.387-.917.177 1.013-5.403.917Zm12.157-2.139-.193-1.013c1.93-.37 3.731-.708 5.371-1.045l.209 1.013-5.387 1.045ZM160.957 443.981l-.482-.884a54.826 54.826 0 0 1 4.969-2.412l.402.948c-1.721.74-3.426 1.512-4.889 2.348Zm326.964 122.797-.225-1.013c3.473-.756 5.339-1.223 5.355-1.239l.241.997s-1.881.467-5.371 1.239v.016ZM172.198 439.157l-.322-.965c1.608-.563 3.442-1.093 5.259-1.608l.273.997c-1.801.547-3.554 1.077-5.21 1.576Zm11.836-3.216-.209-.997c1.752-.37 3.57-.708 5.403-1.013l.161 1.013c-1.817.402-3.619.739-5.355 1.109v-.112Zm12.109-1.978-.129-1.013c1.817-.226 3.651-.419 5.468-.579l.08 1.029c-1.801.257-3.618.45-5.371.675l-.048-.112Zm12.222-1.013v-1.03a160.82 160.82 0 0 1 5.499-.144v1.029c-1.817.128-3.65.177-5.499.257v-.112Z" fill="#A6A6A6"/><path d="m509.229 545.776-16.049 19.233 21.693-7.108 73.202-.145-78.846-11.98Z" fill="#DBDBDB"/><path d="m515.179 563.835-21.999 1.174 21.693-7.108.306 5.934Z" fill="#C7C7C7"/><path d="m514.874 557.901 73.201-.145-71.786 32.677-1.415-32.532ZM509.229 545.776l-20.648-27.081 99.494 39.061-78.846-11.98Z" fill="#EBEBEB"/><path d="m47.102 596.029 83.494-.386 83.51-.144 167.02-.274 167.02.274 83.51.128 83.493.402-83.493.386-83.51.145-167.02.273-167.02-.273-83.51-.145-83.494-.386Z" fill="#263238"/><path d="M654.298 88.489H107.954v423.017h546.344V88.489Z" fill="#C7C7C7"/><path d="M654.298 511.506H107.954V74.965h427.455l118.889 106.168v330.373Z" fill="#EBEBEB"/><path d="M264.328 150.595v43.58h-9.762v-61.897h7.671l35.379 44.642v-44.561h9.858v61.816h-8.041l-35.105-43.58ZM363.903 185.556v8.619h-42.455v-61.897h41.667v8.636h-31.841v17.689h27.644v8.041h-27.644v18.912h32.629ZM395.985 132.536h9.262l7.591 21.018 7.67-21.018h9.151l-10.55 27.563 9.247 22.755 19.298-50.576h10.661l-25.553 61.897H424.4l-11.514-27.724-11.595 27.724h-8.362l-25.553-61.897h10.63l19.297 50.576 9.247-22.755-10.565-27.563ZM500.802 146.832a14.16 14.16 0 0 0-2.541-2.042 24.123 24.123 0 0 0-3.875-2.043 27.342 27.342 0 0 0-4.824-1.608 24.495 24.495 0 0 0-5.436-.611c-4.138 0-7.178.756-9.118 2.268a7.509 7.509 0 0 0-2.927 6.271 6.838 6.838 0 0 0 .917 3.715 8.041 8.041 0 0 0 2.83 2.525 22.108 22.108 0 0 0 4.825 1.913c1.919.569 4.154 1.164 6.705 1.785a76.265 76.265 0 0 1 8.507 2.541 24.23 24.23 0 0 1 6.433 3.393 13.616 13.616 0 0 1 4.052 4.921 15.963 15.963 0 0 1 1.448 7.108c.076 2.812-.537 5.6-1.785 8.121a15.308 15.308 0 0 1-4.825 5.532 21.126 21.126 0 0 1-7.188 3.136 36.726 36.726 0 0 1-8.813.997 44.11 44.11 0 0 1-13.636-2.123 39.146 39.146 0 0 1-11.901-6.239l4.439-8.379a21.24 21.24 0 0 0 3.216 2.541 32.471 32.471 0 0 0 4.969 2.573 44.544 44.544 0 0 0 6.159 1.994c2.251.566 4.563.847 6.883.837a16.515 16.515 0 0 0 8.893-2.011 6.592 6.592 0 0 0 3.136-5.934 6.432 6.432 0 0 0-1.174-3.923 9.89 9.89 0 0 0-3.361-2.734 29.064 29.064 0 0 0-5.307-2.139 173.602 173.602 0 0 0-7.156-2.01 72.16 72.16 0 0 1-8.041-2.573 20.562 20.562 0 0 1-5.708-3.216 13.005 13.005 0 0 1-3.442-4.487 14.91 14.91 0 0 1-1.174-6.24 18.113 18.113 0 0 1 1.737-8.04 17.31 17.31 0 0 1 4.824-5.918 20.459 20.459 0 0 1 7.108-3.618 30.788 30.788 0 0 1 8.893-1.223 32.702 32.702 0 0 1 11.595 1.995 38.868 38.868 0 0 1 9.327 4.985l-4.664 7.96Z" fill="#FF9446"/><path d="M578.877 113.769H132.381v-11.772H565.69l13.187 11.772ZM562.217 98.91H132.381v-2.348h427.23l2.606 2.348ZM586.403 120.491H132.381v-2.332h451.401l2.621 2.332ZM629.887 208.713H132.381v11.755h497.506v-11.755ZM629.887 203.293H132.381v2.332h497.506v-2.332ZM629.887 224.89H132.381v2.316h497.506v-2.316ZM219.943 132.278h-87.578v61.913h87.578v-61.913ZM629.87 159.311v34.864h-87.562v-61.881h57.314l30.248 27.017Z" fill="#C7C7C7"/><path d="M278.157 425.986h205.937V267.747H278.157v158.239Z" fill="#FF9446"/><path opacity=".2" d="M300.285 304.846a18.35 18.35 0 1 0 36.154 6.237 18.348 18.348 0 0 0-21.681-20.71 18.383 18.383 0 0 0-14.473 14.473ZM335.262 392.586h148.832L409.67 309.14l-74.408 83.446Z" fill="#000"/><path d="M278.157 392.666h122.877l-61.446-54.355-61.431 54.355Z" fill="#FF9446"/><path opacity=".3" d="M278.157 392.666h122.877l-61.446-54.355-61.431 54.355Z" fill="#000"/><path d="M484.094 392.585H278.157v33.401h205.937v-33.401Z" fill="#FF9446"/><path opacity=".3" d="M484.094 392.585H278.157v33.401h205.937v-33.401Z" fill="#000"/><path d="M443.022 241.566H278.157v5.516h164.865v-5.516ZM396.097 253.531h-117.94v5.516h117.94v-5.516ZM254.566 241.663H132.381v5.516h122.185v-5.516Z" fill="#A6A6A6"/><path d="M254.47 267.731H132.284v5.516H254.47v-5.516ZM254.47 278.023H132.284v5.516H254.47v-5.516ZM254.47 288.315H132.284v5.516H254.47v-5.516ZM254.47 298.607H132.284v5.516H254.47v-5.516ZM254.47 308.899H132.284v5.516H254.47v-5.516ZM254.47 319.175H132.284v5.516H254.47v-5.516ZM254.47 329.467H132.284v5.515H254.47v-5.515ZM254.47 339.759H132.284v5.515H254.47v-5.515ZM203.846 350.051h-71.562v5.516h71.562v-5.516ZM254.47 370.635H132.284v5.516H254.47v-5.516ZM254.47 380.927H132.284v5.515H254.47v-5.515ZM254.47 391.203H132.284v5.515H254.47v-5.515ZM254.47 401.495H132.284v5.516H254.47v-5.516ZM203.846 411.787h-71.562v5.515h71.562v-5.515Z" fill="#DBDBDB"/><path d="M219.799 253.627h-87.418v5.516h87.418v-5.516ZM629.87 241.663H507.685v5.516H629.87v-5.516Z" fill="#A6A6A6"/><path d="M629.774 267.731H507.589v5.516h122.185v-5.516ZM629.774 278.023H507.589v5.516h122.185v-5.516ZM629.774 288.315H507.589v5.516h122.185v-5.516ZM579.633 298.607h-72.044v5.516h72.044v-5.516ZM629.774 319.175H507.589v5.516h122.185v-5.516ZM629.774 329.467H507.589v5.515h122.185v-5.515ZM629.774 339.759H507.589v5.515h122.185v-5.515ZM629.774 350.051H507.589v5.516h122.185v-5.516ZM579.633 360.343h-72.044v5.516h72.044v-5.516ZM629.774 380.927H507.589v5.515h122.185v-5.515ZM629.774 391.203H507.589v5.515h122.185v-5.515ZM629.774 401.495H507.589v5.516h122.185v-5.516ZM629.774 411.787H507.589v5.515h122.185v-5.515ZM579.633 422.079h-72.044v5.515h72.044v-5.515Z" fill="#DBDBDB"/><path d="M595.103 253.627h-87.418v5.516h87.418v-5.516ZM254.566 443.37H132.381v5.516h122.185v-5.516Z" fill="#A6A6A6"/><path d="M254.47 469.454H132.284v5.516H254.47v-5.516ZM254.47 479.746H132.284v5.516H254.47v-5.516ZM254.47 490.022H132.284v5.516H254.47v-5.516ZM254.47 500.314H132.284v5.516H254.47v-5.516Z" fill="#DBDBDB"/><path d="M219.799 455.351h-87.418v5.515h87.418v-5.515ZM484.094 443.37H278.607v5.516h205.487v-5.516Z" fill="#A6A6A6"/><path d="M483.933 469.454H278.447v5.516h205.486v-5.516ZM483.933 479.746H278.447v5.516h205.486v-5.516ZM483.933 490.022H278.447v5.516h205.486v-5.516ZM483.933 500.314H278.447v5.516h205.486v-5.516Z" fill="#DBDBDB"/><path d="M425.606 455.351H278.607v5.515h146.999v-5.515ZM629.87 443.37H507.685v5.516H629.87v-5.516Z" fill="#A6A6A6"/><path d="M629.774 469.454H507.589v5.516h122.185v-5.516ZM629.774 479.746H507.589v5.516h122.185v-5.516ZM629.774 490.022H507.589v5.516h122.185v-5.516ZM579.633 500.314h-72.044v5.516h72.044v-5.516Z" fill="#DBDBDB"/><path d="M595.103 455.351h-87.418v5.515h87.418v-5.515Z" fill="#A6A6A6"/><path d="m535.409 74.965 3.04 106.747 115.849-.579L535.409 74.965Z" fill="#DBDBDB"/><path d="M629.855 502.211s-25.586-5.805-39.673-18.718c-14.087-12.914-21.854-36.071-21.854-36.071a219.822 219.822 0 0 1 28.689 7.526 49.11 49.11 0 0 1 8.683 12.286 60.684 60.684 0 0 0 0-8.78 38.908 38.908 0 0 1 9.102 5.532c11.756 10.179 15.053 38.225 15.053 38.225Z" fill="#FF9446"/><path d="M584.361 458.663c-3.49-2.412-7.044-4.728-10.501-7.172a.199.199 0 1 1 .209-.338c6.593 3.94 13.09 8.137 19.297 12.56a374.187 374.187 0 0 1 6.433 4.824l-.451-.756c-.755-1.286-1.608-2.541-2.38-3.811a55.32 55.32 0 0 0-5.435-7.253c0-.08 0-.193.129-.112 1.994 2.299 3.988 4.567 5.805 7.011.868 1.158 1.608 2.348 2.428 3.586a29.37 29.37 0 0 1 1.142 1.93c.129.209.273.434.386.659a160.044 160.044 0 0 1 9.649 8.17 132.476 132.476 0 0 1 5.483 5.483c-.981-3.087-1.849-6.223-2.991-9.262 0-.113.129-.161.161 0 1.11 3.216 2.332 6.432 3.216 9.648a115.278 115.278 0 0 1 5.597 6.594l-.097-.418a127.379 127.379 0 0 0-.917-3.603 102.537 102.537 0 0 0-2.074-6.882 39.996 39.996 0 0 0-6.754-13.026c0-.097 0-.209.129-.129a50.053 50.053 0 0 1 9.809 20.456c.268 1.072.525 2.144.772 3.216.129.579.289 1.174.386 1.769a66.363 66.363 0 0 1 2.251 3.216 110.431 110.431 0 0 1 10.775 21.324 244.933 244.933 0 0 1 8.185 25.569c0 .161-.193.225-.257 0-5.001-14.972-10.115-30.153-18.67-43.532a105.378 105.378 0 0 0-5.854-8.185 47.703 47.703 0 0 1-12.431-2.477 55.456 55.456 0 0 1-12.479-6.014c-2.251-1.464-4.294-3.217-6.432-4.825a.088.088 0 0 1-.038-.024.097.097 0 0 1-.025-.085.097.097 0 0 1 .142-.066.09.09 0 0 1 .033.031 50.33 50.33 0 0 0 11.723 7.091 63.36 63.36 0 0 0 12.865 4.342 77.26 77.26 0 0 0 5.725.965 108.782 108.782 0 0 0-7.542-8.346c-.868-.868-1.753-1.689-2.637-2.525a60.044 60.044 0 0 0-9.472-5.419c-4.181-2.026-8.314-4.165-12.463-6.288-2.332-1.19-4.664-2.396-7.027-3.554-.097 0 0-.193.096-.145 4.213 2.027 8.475 3.924 12.72 5.87 3.988 1.833 8.041 3.667 11.868 5.822l.483.289a181.28 181.28 0 0 0-10.727-8.668 242.703 242.703 0 0 0-10.243-7.51Z" fill="#263238"/><path d="M585.824 471.866c2.074.901 4.197 1.721 6.255 2.67 2.059.948 4.117 2.154 6.127 3.344.097 0 0 .177-.08.129-2.043-.965-4.101-1.881-6.127-2.895-2.026-1.013-4.117-2.154-6.24-3.087-.096-.048-.048-.209.065-.161Z" fill="#263238"/><path d="M712.962 373.224a36.601 36.601 0 0 0-7.655 21.259c0 2.284.274 5.484.547 9.247a60.803 60.803 0 0 0-16.692 14.264 30.289 30.289 0 0 1 16.805-3.988 51.53 51.53 0 0 1-.981 7.638 28.952 28.952 0 0 0-10.855 2.155 24.21 24.21 0 0 1 9.793 1.946c-4.567 14.473-18.123 29.413-55.544 35.749a78.59 78.59 0 0 1 6.625-52.683c11.273-22.063 57.957-35.587 57.957-35.587Z" fill="#FF9446"/><path d="M635.483 523.567a348.678 348.678 0 0 1 2.428-18.541 368.871 368.871 0 0 1 7.542-36.634 148.947 148.947 0 0 1 5.403-16.708 23.158 23.158 0 0 1-.128-2.991v-3.602c0-2.396.144-4.825.354-7.173a86.594 86.594 0 0 1 2.299-14.038c.676-2.67 1.48-5.291 2.252-7.929a.095.095 0 0 1 .035-.042.099.099 0 0 1 .053-.015c.019 0 .037.005.053.015a.095.095 0 0 1 .035.042 103.95 103.95 0 0 0-2.766 14.007 128.982 128.982 0 0 0-1.254 14.055c0 1.287-.08 2.573-.08 3.86v1.608a123.104 123.104 0 0 1 6.304-13.058 159.033 159.033 0 0 1 12.865-19.169 7.63 7.63 0 0 1 .305-2.091c.177-.836.354-1.608.547-2.508.386-1.705.804-3.409 1.27-5.098.933-3.393 2.171-6.674 3.217-10.019 0-.021.008-.041.023-.056a.082.082 0 0 1 .057-.024c.021 0 .042.009.057.024a.079.079 0 0 1 .023.056c-.997 3.313-1.608 6.755-2.412 10.116l-1.109 5.017-.531 2.509v.193a181.682 181.682 0 0 1 4.631-5.645c7.156-8.378 14.988-16.081 22.884-23.8.965-.933 1.962-1.866 2.943-2.782l.112.112c-7.526 7.864-14.955 15.824-21.983 24.122a269.663 269.663 0 0 0-4.937 5.998l2.557-1.688c2.187-1.415 4.39-2.814 6.658-4.085a157.246 157.246 0 0 1 6.899-3.666c2.331-1.158 4.953-2.155 7.268-3.506.113 0 .193.113.097.145a53.553 53.553 0 0 0-6.835 3.795c-2.283 1.351-4.551 2.702-6.786 4.133-2.235 1.431-4.422 2.766-6.593 4.181-1.833 1.19-3.618 2.477-5.516 3.57a179.307 179.307 0 0 0-11.981 17.448 130.468 130.468 0 0 0-6.207 11.756l1.351-.579 3.425-1.512c2.203-.981 4.406-1.93 6.626-2.895 4.197-1.833 8.458-3.505 12.575-5.515a54.95 54.95 0 0 0 6.722-3.731c.097 0 .177.096.081.161-7.671 5.29-16.275 9.021-24.782 12.768l-3.682 1.608c-1.013.45-2.027.949-3.056 1.335a130.906 130.906 0 0 0-6.336 17.352 351.645 351.645 0 0 0-8.137 36.215c-2.155 12.221-3.602 24.523-4.728 36.89-.144 1.608-.273 3.087-.45 4.615a.498.498 0 0 1-.981 0c.016-6.079.659-12.366 1.319-18.606Z" fill="#263238"/><path d="M658.254 420.197c.691-3.811 1.704-7.526 2.734-11.257 0-.112.193 0 .16 0-.948 3.667-1.608 7.381-2.315 11.096-.708 3.715-1.319 7.591-1.85 11.402h-.096c.239-3.77.695-7.523 1.367-11.241ZM674.383 430.521a66.477 66.477 0 0 1 8.137-4.583c1.367-.708 2.75-1.383 4.133-2.042 1.383-.66 2.911-1.271 4.326-1.978.097 0 .177.096.081.144-1.367.692-2.67 1.528-4.021 2.252-1.351.723-2.75 1.608-4.149 2.267a91.95 91.95 0 0 1-8.298 4.294.21.21 0 0 1-.209-.354Z" fill="#263238"/><path opacity=".1" d="M629.388 457.891s-23.671-5.66-34.542-21.532c-10.389-15.165-13.734-41.024-14.007-43.291.434 2.074 5.307 24.669 21.436 35.202 12.334 8.056 24.251 14.682 27.113 29.621Z" fill="#263238"/><path d="M607.534 416.981a30.378 30.378 0 0 1 8.732 14.376s0 .081-.08 0a35.382 35.382 0 0 0-8.765-14.28c-.08-.032.032-.161.113-.096Z" fill="#263238"/><path d="M629.388 457.891s-23.671-5.66-34.542-21.532c-10.389-15.165-13.734-41.024-14.007-43.291a1.082 1.082 0 0 0 0-.161s11.353 16.081 23.286 20.246c11.932 4.165 28.672 18.349 25.263 44.738Z" fill="#FF9446"/><path d="M585.004 401.8a97.111 97.111 0 0 0 7.317 12.511 49.592 49.592 0 0 0 9.745 10.019c3.216 2.557 6.61 4.824 9.874 7.381v-.112a46.468 46.468 0 0 0-1.93-2.654c-1.367-1.737-2.846-3.377-4.342-4.985-2.942-3.216-5.934-6.32-8.571-9.777a35.854 35.854 0 0 1-3.795-6.111c0-.113.112-.161.161 0 3.843 8.04 11.514 13.122 16.982 19.876a40.003 40.003 0 0 1 2.187 2.991c.545.75 1.003 1.559 1.366 2.413a49.675 49.675 0 0 1 8.041 8.169 31.329 31.329 0 0 0-.949-4.599 23.663 23.663 0 0 0-2.508-5.999c-.013-.019-.018-.042-.013-.065a.082.082 0 0 1 .037-.055c.019-.013.042-.018.065-.013a.082.082 0 0 1 .055.037 28.888 28.888 0 0 1 2.766 5.95c.489 1.664.776 3.381.853 5.114a47.782 47.782 0 0 1 3.216 4.985 51.6 51.6 0 0 0-.306-1.528c-.466-2.348-.981-4.712-1.608-7.027a42.326 42.326 0 0 0-5.693-13.348s.081-.177.145-.096a51.266 51.266 0 0 1 6.304 13.058c.756 2.315 1.367 4.679 1.898 7.059.257 1.174.482 2.332.707 3.506.113.611.258 1.222.354 1.849a85.138 85.138 0 0 1 5.452 16.082 235.561 235.561 0 0 1 5.049 29.943 249.703 249.703 0 0 1 1.608 31.776c0 1.335-.112 2.654-.177 3.989 0 .337-.53.386-.546 0-.242-5.259-.37-10.518-.676-15.76-.305-5.243-.772-10.485-1.335-15.727a280.942 280.942 0 0 0-4.937-30.555c-1.913-8.652-4.406-17.368-9.134-24.958a47.354 47.354 0 0 0-8.539-10.147c-3.329-2.975-6.947-5.596-10.453-8.346a57.24 57.24 0 0 1-9.648-9.231 74.676 74.676 0 0 1-7.526-12.206l-1.705-3.216c.016-.193.161-.289.209-.193Z" fill="#263238"/><path d="M589.088 405.274a80.293 80.293 0 0 0 5.275 9.214s0 .145-.113 0a64.202 64.202 0 0 1-5.323-9.231c-.048-.032.113-.08.161.017Z" fill="#263238"/><path d="M716.259 447.422s.37 33.642-19.748 43.42c-20.117 9.777-30.892 1.608-44.561 4.824.531-.804 10.292-14.827 25.811-18.686 15.968-4.053 33.658-15.535 38.498-29.558Z" fill="#FF9446"/><path opacity=".1" d="M716.259 447.422s.37 33.642-19.748 43.42c-20.117 9.777-30.892 1.608-44.561 4.824a76.278 76.278 0 0 1 22.884-6.754c12.688-1.512 36.922-9.826 41.425-41.49Z" fill="#000"/><path d="M650.631 496.245a34.189 34.189 0 0 1 8.041-5.419c.434-.209.868-.37 1.319-.563.45-.193.434-.515.675-.772a24.583 24.583 0 0 1 1.881-1.785 28.918 28.918 0 0 1 4.053-2.927c3.329-1.962 6.979-3.329 10.388-5.146.097 0 .193.097.097.145-1.689.884-3.329 1.849-4.969 2.798-1.64.949-3.216 1.817-4.825 2.814a34.56 34.56 0 0 0-3.988 2.991c-.354.306-.691.644-1.029.981a55.58 55.58 0 0 1 6.786-1.801c3.683-.739 7.414-1.27 11.096-2.058a53.969 53.969 0 0 0 5.323-1.431c1.608-1.351 3.345-2.686 4.921-4.133a41.23 41.23 0 0 0 5.21-5.773.083.083 0 0 1 .056-.037.084.084 0 0 1 .065.013.082.082 0 0 1 .037.055.084.084 0 0 1-.013.065 62.363 62.363 0 0 1-8.249 9.102c.868-.338 1.72-.691 2.573-1.077a41.562 41.562 0 0 0 17.158-14.184c0-.08.209 0 .145.096a47.167 47.167 0 0 1-13.862 13.316 42.119 42.119 0 0 1-8.764 4.149 81.797 81.797 0 0 1-10.887 2.573 75.453 75.453 0 0 0-10.662 2.541 31.88 31.88 0 0 0-8.941 4.695 41.92 41.92 0 0 0-12.061 14.94 74.992 74.992 0 0 0-6.626 24.604c0 .354-.611.354-.579 0 .949-14.232 4.728-28.946 15.631-38.772Z" fill="#263238"/><path d="M673.965 485.278a11.565 11.565 0 0 1 4.133-3.747 15.247 15.247 0 0 0 4.921-4.069c0-.096.225 0 .145.097a16.395 16.395 0 0 1-4.342 3.875 15.29 15.29 0 0 0-4.728 3.924s-.177 0-.129-.08Z" fill="#263238"/><path d="m663.287 521.075-.9 18.509-2.814 56.51h-42.198l-2.798-56.51-.916-18.509h49.626Z" fill="#37474F"/><path d="m663.287 521.075-.9 18.509h-47.81l-.916-18.509h49.626Z" fill="#263238"/><path d="M666.262 513.356h-55.56v17.641h55.56v-17.641Z" fill="#37474F"/><path d="M211.694 692.388c76.904 0 139.247-8.834 139.247-19.731 0-10.898-62.343-19.732-139.247-19.732-76.904 0-139.248 8.834-139.248 19.732 0 10.897 62.344 19.731 139.248 19.731Z" fill="#EBEBEB"/><path d="M298.806 673.605c-3.731 1.206-109.851-.177-113.855-2.798-1.608-.965-2.236-16.435-2.557-35.154v-.595c0-3.859-.113-7.831-.129-11.851v-1.609l5.146-55.046 70.999.708-7.012 54.547v2.155l-.434 11.257v1.158s40.38 18.703 44.481 22.047c4.101 3.345 7.076 14.007 3.361 15.181Z" fill="#D3766A"/><path d="M298.806 673.605c-3.731 1.206-109.851-.177-113.855-2.798-1.608-.965-2.236-16.435-2.557-35.153v-.595c0-3.86-.113-7.832-.129-11.852v-1.608l69.15.209v2.155l-.435 11.256v1.158s40.38 18.703 44.481 22.048c4.101 3.345 7.06 14.006 3.345 15.18Z" fill="#EBEBEB"/><path d="M299.497 673.943c-3.763 1.206-111.331-.225-115.399-2.862-1.608-.997-2.268-16.677-2.573-35.653l69.358.724s40.927 18.976 45.028 22.353c4.101 3.377 7.365 14.168 3.586 15.438Z" fill="#455A64"/><path opacity=".1" d="M234.223 673.75c-25.119-.579-48.244-1.528-50.125-2.734-1.608-.997-2.268-16.676-2.573-35.652l15.663.161 37.035 38.225Z" fill="#000"/><path d="M298.018 669.553c-18.027-.676-90.795-1.721-108.661-1.029-.145 0-.145.096 0 .112 17.85 1.061 90.617 1.528 108.661 1.222.369-.016.386-.289 0-.305ZM257.847 637.985c-7.221-.209-15.615 2.236-20.182 8.041-.177.225.145.482.37.37a99.674 99.674 0 0 1 19.924-7.558.456.456 0 0 0 .258-.468.457.457 0 0 0-.37-.385ZM263.395 640.172c-7.221-.193-15.615 2.252-20.182 8.041-.177.225.145.466.354.37a99.14 99.14 0 0 1 19.94-7.558.469.469 0 0 0 .227-.464.467.467 0 0 0-.339-.389ZM268.927 642.472c-7.205-.193-15.615 2.235-20.182 8.041-.177.225.161.466.37.353a101.092 101.092 0 0 1 19.924-7.477.463.463 0 0 0-.112-.917ZM194.165 651.429c-8.041-.096-8.234 12.495-.129 12.576 8.105.08 8.25-12.463.129-12.576ZM255.531 635.428h-76.434s15.389-178.502 14.794-181.637c-.771-3.988-5.274-22.064-11.256-45.655-1.882-7.397-3.908-15.309-6.015-23.527a23836.328 23836.328 0 0 0-17.464-67.541c-8.201-31.632-14.618-56.285-14.618-56.285h64.775s7.542 23.929 17.063 55.079c15.502 50.591 36.215 120.239 38.257 137.173 3.28 27.338-9.102 182.393-9.102 182.393Z" fill="#263238"/><path d="M252.138 622.387c-11.675-.242-8.314-.338-19.989-.451-5.709 0-43.259-.386-48.598.499-.112 0-.112.209 0 .241 5.339.885 42.889.547 48.598.499 11.675-.113 8.314-.209 19.989-.451a.169.169 0 0 0 .119-.288.166.166 0 0 0-.119-.049ZM208.268 442.887c-2.508-11.047-6.255-21.87-9.504-32.725a17966.26 17966.26 0 0 0-20.005-66.062c-3.345-11.01-6.7-22.015-10.067-33.014-1.72-5.549-3.425-11.113-5.162-16.645-1.736-5.532-3.634-10.806-5.178-16.274-.611-2.235-.965-1.013-.161 1.817 1.608 5.709 3.217 11.402 4.825 17.095a6624.222 6624.222 0 0 0 9.938 33.77c6.625 22.385 13.304 44.76 20.037 67.124l10.131 33.625a136.035 136.035 0 0 1 4.117 16.275 74.136 74.136 0 0 1 .676 17.4c-.724 11.707-2.075 23.382-3.217 35.041-1.141 11.658-2.171 23.382-3.216 35.073l-6.432 69.809a522.442 522.442 0 0 0-.756 8.844c0 .981 1.415.917 1.511 0 2.525-23.012 4.455-46.089 6.61-69.149 2.155-23.061 4.31-45.848 6.432-68.78.531-5.757 1.142-11.53 1.158-17.319a71.387 71.387 0 0 0-1.737-15.905Z" fill="#37474F"/><path d="M201.916 260.783c-4.487 34.8-13.058 100.026-19.298 147.353-14.601-57.346-38.096-147.353-38.096-147.353h57.394Z" fill="#37474F"/><path d="M217.837 674.634c-3.715 1.206-109.851.225-113.856-2.38-1.608-.965-2.299-16.435-2.685-35.153v-.595c-.097-3.86-.161-7.832-.177-11.852v-1.608c-.241-27.033 1.704-55.063 1.704-55.063l69.375.451-1.946 54.547v2.155l-.386 11.257v1.174s40.316 18.526 44.433 21.903c4.116 3.377 7.252 13.958 3.538 15.164Z" fill="#D3766A"/><path d="M217.836 674.634c-3.714 1.206-109.851.225-113.855-2.38-1.608-.965-2.3-16.435-2.685-35.153v-.595c-.097-3.86-.161-7.832-.177-11.852v-1.608h69.149v2.155l-.386 11.256v1.174s40.3 18.462 44.417 21.839c4.116 3.377 7.252 13.958 3.537 15.164Z" fill="#EBEBEB"/><path d="M219.075 675.004c-3.78 1.206-111.347-.225-115.416-2.862-1.608-.997-2.251-16.676-2.573-35.652l69.359.723s40.943 18.96 45.027 22.353c4.085 3.393 7.382 14.232 3.603 15.438Z" fill="#455A64"/><path d="M217.595 670.727c-18.027-.676-90.811-1.737-108.677-1.03-.145 0-.145.097 0 .113 17.85 1.061 90.634 1.608 108.661 1.206.386-.048.386-.289.016-.289ZM177.425 639.095c-7.221-.193-15.631 2.251-20.182 8.04-.177.226.144.467.353.37a99.268 99.268 0 0 1 19.941-7.558.464.464 0 0 0 .116-.709.465.465 0 0 0-.228-.143ZM182.957 641.346c-7.205-.193-15.615 2.236-20.182 8.041-.177.225.16.466.37.354a100.65 100.65 0 0 1 19.924-7.558.453.453 0 0 0-.112-.837ZM188.505 643.598c-7.221-.21-15.615 2.235-20.182 8.04-.177.225.144.483.369.37a99.705 99.705 0 0 1 19.925-7.558.454.454 0 0 0 .136-.721.452.452 0 0 0-.248-.131ZM207.191 260.783s-1.496 31.005-8.588 55.545c-.579 2.026-1.19 4.02-1.865 5.934a115.633 115.633 0 0 0-18.655 9.649s-.755 24.942-1.495 52.746c-.836 31.085-1.608 65.757-1.512 73.122.644 27.515-3.441 178.807-3.441 178.807l-76.418.306s13.814-168.998 13.717-179.081c-.145-16.21 3.699-87.82 6.674-140.036 1.785-32.178 3.393-56.992 3.393-56.992h88.19Z" fill="#263238"/><path d="M169.014 622.949c-11.675-.193-8.314-.305-19.989-.37-5.725 0-43.259-.193-48.598.708-.112 0-.112.225 0 .241 5.339.869 42.889.37 48.598.29 11.675-.161 8.314-.242 19.989-.531a.18.18 0 0 0 .09-.064.178.178 0 0 0-.09-.274ZM125.337 271.912c-1.399 42.631-2.895 85.23-4.824 127.878-1.93 42.647-4.503 85.504-8.041 128.167-2.01 23.817-3.892 57.346-6.432 81.114 0 .161.225.225.257 0 5.564-42.294 8.668-94.59 11.401-137.141 2.734-42.551 4.584-85.23 6.031-127.781.82-24.122 1.447-48.244 2.171-72.366-.016-.29-.466-.257-.563.129ZM199.922 320.429a140.293 140.293 0 0 0-21.838 11.434.257.257 0 0 0 .225.45c7.365-3.586 14.891-7.028 22.063-11.016a.487.487 0 0 0-.077-.9.489.489 0 0 0-.373.032Z" fill="#37474F"/><path d="M200.356 294.136c-.514 2.702-1.174 5.403-1.753 8.04-.579 2.638-.964 5.13-1.608 7.623a13.103 13.103 0 0 1-3.554 6.432c-.997.917-2.09 1.737-3.216 2.574-.563.466-1.19.9-1.785 1.366 0-.369.145-.723.209-1.093l.531-3.088c.386-2.299.756-4.583 1.093-6.882.692-4.503 1.335-9.054 2.268-13.525 0-.177-.225-.241-.274 0-1.125 4.423-2.364 8.797-3.345 13.251-.482 2.187-2.187 12.994-2.267 13.75-.08.755-.145 1.608-.177 2.38a10.136 10.136 0 0 0 0 2.412c.012.04.036.075.07.099a.19.19 0 0 0 .23 0 .185.185 0 0 0 .07-.099c.32-.754.552-1.541.692-2.348.192-.772.369-1.608.498-2.332 0-.289.097-.579.129-.868 1.061-.643 2.058-1.496 3.055-2.219.997-.724 2.155-1.528 3.216-2.38a12.145 12.145 0 0 0 3.876-6.063 43.564 43.564 0 0 0 1.286-7.751c.338-3.072.579-6.159 1.014-9.215.048-.177-.226-.257-.258-.064Z" fill="#37474F"/><path d="M176.218 177.032c17.577 37.582 46.186 83.285 61.801 84.121 2.701.129 13.588-1.141 18.027-11.257 7.51-17.078 14.618-51.17 15.663-67.396.466-7.188-47.842-14.57-49.321-7.011-2.091 10.597-3.217 21.983-4.358 21.854-1.914-.225-9.858-12.157-28.528-31.986-23.206-24.7-19.813-2.348-13.284 11.675Z" fill="#F7A9A0"/><path d="M278.784 163.074c-1.238 10.115-11.9 29.814-16.306 33.561-4.406 3.747-38.466-13.17-39.624-19.056-1.158-5.886 5.709-39.56 13.154-46.829 7.446-7.268 44.079 21.839 42.776 32.324Z" fill="#F7A9A0"/><path d="M223.015 171.629a84.726 84.726 0 0 0-9.649-22.61c-5.42-8.186-14.473-19.732-10.115-22.82 8.812-6.319 31.197 22.514 31.197 22.514s7.848 14.296-.337 21.34a10.743 10.743 0 0 1-11.096 1.576Z" fill="#F7A9A0"/><path d="m244.21 164.618 11.723-5.356-15.486-33.931-14.843 6.77 18.606 32.517Z" fill="#FF9446"/><path d="m225.604 132.085 7.092 12.415 11.514 20.118 11.723-5.339-15.486-33.948-14.843 6.754Z" fill="#FF9446"/><path opacity=".1" d="m225.604 132.085 7.092 12.415 13.653-6.224-5.902-12.945-14.843 6.754Z" fill="#000"/><path d="m226.519 137.709 18.449-8.416-6.393-14.016-18.45 8.416 6.394 14.016ZM205.422 124.237l14.988-5.113-10.341-22.691-13.685 7.976 9.038 19.828Z" fill="#FF9446"/><path d="m215.393 88.585 15.277 33.482 25.36-8.105 65.306-4.937-36.665-80.39-46.54 46.088-22.738 13.862Z" fill="#FF9446"/><path d="M291.328 74.112c10.163 22.321 24.234 37.743 31.407 34.479 7.172-3.265 4.728-24.01-5.452-46.314-10.179-22.305-24.234-37.76-31.407-34.479-7.172 3.28-4.727 24.058 5.452 46.314Z" fill="#FF9446"/><path opacity=".2" d="M321.027 103.123c5.874-2.68 3.313-20.907-5.721-40.712-9.034-19.806-21.12-33.689-26.994-31.009-5.875 2.68-3.314 20.907 5.721 40.713 9.034 19.805 21.119 33.688 26.994 31.008Z" fill="#000"/><path d="M295.767 71.298a132.567 132.567 0 0 0 3.747 7.574 8.826 8.826 0 0 0 10.956-7.355 8.828 8.828 0 0 0-.713-4.85l-1.736-3.812a8.814 8.814 0 0 0-15.873-.321 122.3 122.3 0 0 0 3.619 8.764ZM218.528 129.834l28.995-9.874-20.021-43.87-26.454 15.406 17.48 38.338Z" fill="#FF9446"/><path opacity=".2" d="m218.528 129.834 28.995-9.874-20.021-43.87-26.454 15.406 17.48 38.338ZM283.416 35.855a27.444 27.444 0 0 0-.611 9.922 62.192 62.192 0 0 0 1.737 9.842c.37 1.608.884 3.216 1.351 4.824.466 1.608 1.061 3.217 1.608 4.712a89.139 89.139 0 0 0 1.833 4.647c.659 1.528 1.286 3.072 1.994 4.584a109.36 109.36 0 0 0 9.874 17.416 57.168 57.168 0 0 0 6.432 7.622 23.953 23.953 0 0 0 8.266 5.5 24.451 24.451 0 0 1-7.928-5.838 55.132 55.132 0 0 1-6.191-7.718 114.98 114.98 0 0 1-9.568-17.336 117.615 117.615 0 0 1-6.98-18.542 60.322 60.322 0 0 1-1.978-9.649 28.684 28.684 0 0 1 .161-9.986Z" fill="#000"/><path d="M312.25 20.578c-1.399 1.85-2.686 3.747-3.972 5.644-1.287 1.898-2.509 3.86-3.731 5.806a137.409 137.409 0 0 0-3.538 5.918l-1.688 3.007c-.531 1.013-1.094 2.01-1.609 3.055.708-.916 1.351-1.865 2.043-2.798l1.929-2.846c1.303-1.898 2.525-3.844 3.747-5.79a146.32 146.32 0 0 0 3.522-5.917c1.126-1.994 2.268-4.005 3.297-6.08ZM316.704 88.89c2.605 0 5.194-.096 7.783-.224 2.59-.129 5.163-.322 7.752-.515 2.589-.193 5.162-.45 7.735-.756l3.859-.466c1.287-.193 2.573-.354 3.86-.579h-3.892l-3.892.177c-2.589.113-5.178.322-7.751.515a179.84 179.84 0 0 0-15.454 1.849ZM360.638 68.178c-3.747.66-7.477 1.448-11.257 2.236a389.384 389.384 0 0 0-11.144 2.492c-3.699.885-7.413 1.769-11.096 2.734l-5.532 1.463c-1.833.515-3.682.997-5.5 1.608 1.882-.321 3.747-.707 5.613-1.06l5.596-1.159a371.453 371.453 0 0 0 11.144-2.508c3.699-.901 7.414-1.77 11.096-2.734 3.683-.965 7.446-1.962 11.08-3.072ZM333.027 15.979c-2.622 2.846-5.162 5.757-7.687 8.683-2.525 2.927-5.001 5.886-7.478 8.845-2.476 2.959-4.824 5.982-7.301 9.006l-3.57 4.567c-1.174 1.608-2.364 3.055-3.49 4.631 1.319-1.415 2.59-2.878 3.876-4.31l3.811-4.374c2.541-2.91 5.002-5.886 7.478-8.845a355.8 355.8 0 0 0 7.285-9.021c2.38-3.04 4.792-6.063 7.076-9.183ZM310.995 64.817c4.133-1.704 8.202-3.505 12.286-5.323 4.085-1.817 8.041-3.714 12.158-5.564 4.116-1.85 8.04-3.827 12.077-5.789l5.998-2.975c1.978-1.03 3.972-2.01 5.95-3.072-2.074.837-4.117 1.737-6.175 2.606l-6.111 2.717c-4.085 1.818-8.041 3.715-12.174 5.564-4.132 1.85-8.04 3.828-12.06 5.79-4.021 1.962-8.009 3.956-11.949 6.046Z" fill="#263238"/><path d="M226.746 144.227c2.203 4.92 6.754-.499 6.754-.499s-4.664 9.392-.418 13.589c4.245 4.197 9.359-2.702 9.729-3.216-.241.498-4.294 9.23.402 13.025s9.006-3.747 9.263-4.245c-.081.547-1.029 7.735 3.216 9.793 7.269 3.554 10.196-14.778 15.663-18.381 0 0 7.156 8.54 7.414 8.749 0 0 3.216-17.368-2.107-24.46a5.663 5.663 0 0 0-6.818-1.881s1.608-5.484-1.962-8.588c-1.85-1.608-6.047 0-6.047 0a7.061 7.061 0 0 0-2.235-6.995c-2.702-2.042-6.433-.177-6.433-.177s-.9-4.824-4.325-5.966c-6.932-2.445-26.76 18.638-22.096 29.252Z" fill="#F7A9A0"/><path d="M261.915 127.968s0-.209-.145-.144a47.009 47.009 0 0 0-19.297 26.357c-.097.386.193.82.338.386 2.428-7.237 12.125-20.343 19.104-26.599ZM252.588 163.749c3.12-10.533 9.311-19.008 16.918-26.807.096-.097 0-.226-.161-.161-4.824 2.798-9.086 8.266-12.093 12.865a28.774 28.774 0 0 0-5.017 14.055c-.016.144.241.273.353.048Z" fill="#263238"/><path d="M233.371 143.776c-.144.37.547.177.419.531-.531 1.608-2.959 11.128 0 12.961 2.412 1.464 6.046-.756 7.107-2.155l2.686-3.537-1.287 4.245a18.435 18.435 0 0 0-.836 5.821 6.442 6.442 0 0 0 2.01 4.825 3.703 3.703 0 0 0 4.648.337 11.263 11.263 0 0 0 3.57-4.341l2.364-4.68-.708 5.178a17.054 17.054 0 0 0 0 4.342 7.012 7.012 0 0 0 1.48 3.779 3.32 3.32 0 0 0 3.345 1.061 7.409 7.409 0 0 0 3.216-2.589 56.922 56.922 0 0 0 4.712-7.783c.739-1.335 1.479-2.702 2.283-4.02a10.845 10.845 0 0 1 2.991-3.506 12.082 12.082 0 0 0-2.621 3.715c-.691 1.367-1.319 2.766-1.962 4.165a49.212 49.212 0 0 1-4.39 8.201 8.638 8.638 0 0 1-3.763 3.217 4.728 4.728 0 0 1-5.001-1.367 8.62 8.62 0 0 1-1.946-4.632 18.725 18.725 0 0 1 0-4.824l1.608.498a12.863 12.863 0 0 1-4.165 5.146 5.306 5.306 0 0 1-3.506.933 6.064 6.064 0 0 1-3.216-1.447 8.23 8.23 0 0 1-2.541-6.224 19.42 19.42 0 0 1 1.013-6.432l1.383.707c-1.415 1.737-5.21 4.664-9.246 2.863-4.921-3.007-.579-13.187.353-14.988Z" fill="#263238"/><path d="M233.548 143.728a10.773 10.773 0 0 1-2.862 1.608 2.556 2.556 0 0 1-2.525-.338 5.082 5.082 0 0 1-1.335-2.589 37.458 37.458 0 0 1-.659-3.345 8.507 8.507 0 0 0-.499 3.538 5.01 5.01 0 0 0 1.528 3.554 3.645 3.645 0 0 0 2.01.772 3.804 3.804 0 0 0 1.962-.531 5.671 5.671 0 0 0 2.38-2.669Z" fill="#263238"/><path d="m279.54 195.51-57.281-21.871s-3.908 22.771-4.583 22.884c-.676.112-17.416-24.202-35.379-39.174-17.963-14.972-15.567 3.65-10.115 19.297 6.995 20.118 36.135 83.414 49.434 87.836 13.299 4.423 33.77-4.824 36.729-10.437 4.069-7.735 21.195-58.535 21.195-58.535Z" fill="#37474F"/><path opacity=".1" d="M184.018 158.861v45.204h-.451c-.997-2.203-1.978-4.342-2.894-6.433v-41.505l1.608 1.254 1.737 1.48Z" fill="#000"/><path d="M272.111 202.441c-1.898-1.014-19.78-7.526-23.704-8.861l-11.755-3.988c-4.053-1.351-8.041-2.943-12.27-3.989a.17.17 0 0 0-.101.023.155.155 0 0 0-.066.079.158.158 0 0 0-.005.103c.01.034.031.064.059.085 3.892 1.785 8.041 3.088 12.061 4.567l11.868 4.358c3.972 1.431 21.806 7.494 23.849 7.896.176.048.193-.209.064-.273Z" fill="#263238"/><path opacity=".1" d="M246.043 262.263c-7.542 2.991-17.094 4.712-24.443 2.267-13.299-4.406-42.422-67.702-49.45-87.819-3.425-9.826-5.661-20.906-2.38-23.929l76.273 109.481Z" fill="#000"/><path d="M217.692 196.812c-.386 3.088-.595 6.192-.756 9.295a163.986 163.986 0 0 0-.193 9.327c.016 3.104.113 6.224.37 9.327a77.96 77.96 0 0 0 1.174 9.263c0-1.608-.113-3.103-.113-4.647s0-3.104-.096-4.648l-.081-9.295-.096-9.311v-4.647c-.129-1.56-.129-3.104-.209-4.664Z" fill="#263238"/><path d="M214.926 275.128c-1.383 1.769-99.704 8.877-100.234 8.298-1.496-1.608 14.923-105.3 35.748-124.63 4.487-4.149 22.755-4.824 25.312-4.068 2.911.9 11.9 13.894 16.339 24.684 8.925 21.549 24.057 94.108 22.835 95.716Z" fill="#EBEBEB"/><path d="m171.378 179.782 2.573-9.681 7.027 4.358-1.222 8.041-5.757 1.158-2.621-3.876Z" fill="#263238"/><path d="m173.999 183.658 1.849 65.515 13.766 20.728 4.631-24.749-14.489-62.652-5.757 1.158Z" fill="#263238"/><path d="M225.958 296.532s-12.865.981-30.265 2.203c-1.898-5.966-6.176-20.568-6.433-20.536-.145.354-3.12 15.31-3.956 21.292-16.821 1.174-35.861 2.493-50.881 3.409-15.02.917-26.228 1.431-26.856 1.045-.627-.386 5.307-21.372 5.886-24.427 4.406-24.122 11.675-72.076 19.41-90.489 3.4-8.371 7.499-16.44 12.254-24.122.483-.74.933-1.431 1.351-2.042l3.088-4.487 33.4 52.039c0-1.078-2.814-51.589-2.814-51.589a133.452 133.452 0 0 1 21.211 37.405c9.167 25.393 13.476 63.376 17.255 81.323-.016 0 7.301 18.606 7.35 18.976Z" fill="#37474F"/><path d="M182.94 210.417c.853 5.612 1.528 11.257 2.187 16.885.66 5.629 1.223 11.257 1.769 16.934a588.766 588.766 0 0 1 1.399 16.966l.563 8.49c.129 2.831.322 5.661.402 8.507-.45-2.814-.788-5.628-1.19-8.442l-1.013-8.443c-.659-5.644-1.222-11.257-1.753-16.933-.53-5.677-1.029-11.257-1.399-16.966-.37-5.709-.772-11.321-.965-16.998ZM181.847 230.679a2.83 2.83 0 1 1-5.618.68 2.83 2.83 0 0 1 5.618-.68ZM180.062 249.896a2.83 2.83 0 1 0 0-5.66 2.83 2.83 0 0 0 0 5.66ZM183.905 262.745a2.829 2.829 0 0 1-4.529 2.589 2.831 2.831 0 0 1-.168-4.357 2.83 2.83 0 0 1 1.481-.692 2.843 2.843 0 0 1 2.122.558 2.85 2.85 0 0 1 1.094 1.902Z" fill="#263238"/><path d="M142.303 164.746c-33.883 28.367-79.072 90.425-73.154 104.48 6.626 15.631 53.856-24.122 53.937-26.679 0-1.946 19.024-40.476 33.304-68.458 14.28-27.981-5.709-16.354-14.087-9.343Z" fill="#F7A9A0"/><path d="M123.408 242.628c1.736-4.149 27.338-54.902 34.88-71.015 7.542-16.113 2.525-21.79-15.744-8.137-18.268 13.653-60.015 61.109-71.03 87.401-10.598 25.312 2.83 26.599 21.71 16.291 15.453-8.459 30.184-24.54 30.184-24.54Z" fill="#37474F"/><path opacity=".1" d="M77.077 267.811v5.323a14.504 14.504 0 0 1-3.345 0v-5.291l3.345-.032Z" fill="#000"/><path d="M144.217 200.849a18.243 18.243 0 0 1 2.364-3.426 19.55 19.55 0 0 1 2.975-2.862 18.706 18.706 0 0 1-2.364 3.409 18.888 18.888 0 0 1-2.975 2.879Z" fill="#263238"/><path d="M126.447 235.23c1.704-3.94 3.522-7.815 5.371-11.675 1.849-3.859 3.779-7.67 5.677-11.514 1.897-3.843 3.907-7.606 5.934-11.369 2.026-3.763 4.068-7.526 6.239-11.257-1.705 3.924-3.538 7.799-5.371 11.659-1.833 3.859-3.795 7.67-5.677 11.514-1.881 3.843-3.907 7.606-5.934 11.369-2.026 3.763-4.036 7.575-6.239 11.273Z" fill="#263238"/><path d="M173.677 169.747c-5.676 1.914-17.818-6.657-22.513-13.492-.306-.482 0-5.741 0-12.173 0-3.892 0-8.234-.451-12.174l25.344 3.715a63.006 63.006 0 0 0-.981 15.406c.053.545.161 1.084.322 1.608.011.085.011.172 0 .257.836 3.04 3.699 15.004-1.721 16.853Z" fill="#F7A9A0"/><path d="M175.382 152.637v.257c-.83.196-1.674.325-2.525.386-14.377.997-19.394-16.242-20.503-21.131l6.336.933 17.303 2.557a62.775 62.775 0 0 0-.981 15.39c.076.546.2 1.084.37 1.608Z" fill="#263238"/><path d="m175.157 151.511-2.589 15.454-21.581-14.055-3.747 6.851s23.511 24.781 23.334 23.462l3.216-13.524 10.308 6.674-5.371-21.243-3.57-3.619Z" fill="#EBEBEB"/><path d="M182.008 165.679c-.997-3.474-1.914-7.012-3.072-10.437 0-.112-.257-.128-.257 0 0 3.57 3.956 16.837 4.647 20.07-.434-.29-9.472-5.774-9.52-5.645-.852 2.219-3.216 12.077-3.313 12.945-3.714-3.923-17.785-18.123-21.967-21.709a.123.123 0 0 0-.082-.018.125.125 0 0 0-.076.037.134.134 0 0 0-.037.075.134.134 0 0 0 .018.083c3.458 4.261 22.16 23.43 22.37 23.317a142.802 142.802 0 0 0 3.216-14.28c1.608 1.271 10.919 7.655 10.822 7.124a113.72 113.72 0 0 0-2.749-11.562Z" fill="#263238"/><path d="M145.182 103.267c-1.898 9.231 5.258 34.72 12.189 39.898 10.035 7.526 25.264 6.915 31.342-4.824 5.902-11.434-4.02-44.481-11.642-49.08-11.225-6.803-29.124.37-31.889 14.006Z" fill="#F7A9A0"/><path d="M169.689 117.146s-.112.112 0 .192c.515 1.705.837 3.747-.563 4.825 1.785-.788 1.335-3.49.563-5.017Z" fill="#263238"/><path d="M167.663 115.779c-2.83.546-1.512 6.143 1.11 5.644 2.621-.498 1.254-6.111-1.11-5.644ZM179.306 114.733s.16 0 .177.113c.337 1.753 1.045 3.699 2.749 3.908v.096c-1.978.177-2.878-2.412-2.926-4.117Z" fill="#263238"/><path d="M180.432 112.562c2.75-.868 4.277 4.68 1.737 5.484-2.541.804-4.037-4.76-1.737-5.484ZM165.428 114.798a23.46 23.46 0 0 0 1.801-1.608 3.88 3.88 0 0 0 1.608-1.914 1.207 1.207 0 0 0-.708-1.303 3.01 3.01 0 0 0-2.959.788 4.492 4.492 0 0 0-1.608 2.718 1.311 1.311 0 0 0 .542 1.212 1.307 1.307 0 0 0 1.324.107ZM182.329 108.751c-.787.049-1.577.049-2.364 0a3.878 3.878 0 0 1-2.396-.514 1.203 1.203 0 0 1-.273-1.464 2.99 2.99 0 0 1 2.798-1.238 4.374 4.374 0 0 1 3.023 1.029 1.29 1.29 0 0 1-.123 1.922c-.192.15-.423.242-.665.265Z" fill="#263238"/><path d="M171.941 127.743a6.034 6.034 0 0 0 4.567 1.705 7.494 7.494 0 0 0 2.139-.386l.402-.145.37-.145a.486.486 0 0 0 .257-.482.584.584 0 0 0 0-.177v-.145c-.273-1.351-.868-3.361-.868-3.361.53.129 3.216.676 3.087 0a91.335 91.335 0 0 0-6.432-17.351c-.081-.177-.37 0-.306.112 1.415 5.548 3.795 10.807 5.307 16.355a10.22 10.22 0 0 0-2.991-.193c-.177.096 1.238 3.843 1.318 4.454a8.376 8.376 0 0 1-6.561-.466c-.321-.032-.418.113-.289.225Z" fill="#263238"/><path d="M177.843 128.965a7.029 7.029 0 0 1-2.445 2.622 3.218 3.218 0 0 1-1.881.434c-1.431-.145-1.608-1.399-1.608-2.525a7.22 7.22 0 0 1 .337-1.753 9.072 9.072 0 0 0 5.597 1.222Z" fill="#263238"/><path d="M175.398 131.587a3.218 3.218 0 0 1-1.881.434c-1.431-.145-1.608-1.399-1.608-2.525a3.216 3.216 0 0 1 3.489 2.091Z" fill="#FF98B9"/><path d="M185.706 99.006c-7.944 8.619-23.077 1.801-23.077 1.801a10.518 10.518 0 0 1-8.909 8.877s1.802 16.387-2.396 17.319c-6.432 1.432-13.395-19.876-12.35-24.62s6.223-7.076 6.223-7.076a10.725 10.725 0 0 1 2.895-7.349c3.618-4.342 19.748-3.216 19.748-3.216a14.565 14.565 0 0 1 2.669-6.111 4.069 4.069 0 0 1 5.822-.788 9.753 9.753 0 0 0-.627 4.278c.321 4.824 4.132 3.972 3.119-.258a6.768 6.768 0 0 0-2.492-4.02c1.254-3.216 4.117-4.824 6.32-3.763 4.004 1.85 9.664 17.722 3.055 24.926Z" fill="#263238"/><path d="M168.082 126.055a7.744 7.744 0 0 1-7.465-3.381 7.74 7.74 0 0 1 2.844-11.135 7.738 7.738 0 0 1 10.78 3.982 7.717 7.717 0 0 1-2.893 9.311 7.731 7.731 0 0 1-3.266 1.223Zm-1.898-14.313a7.396 7.396 0 0 0-1.608.434 6.658 6.658 0 1 0 1.608-.434ZM184.934 121.665c-2.942.241-5.869-2.557-6.673-6.433a9.312 9.312 0 0 1 .514-5.628 4.826 4.826 0 0 1 8.041-1.608 9.372 9.372 0 0 1 2.686 4.985c.836 4.165-.997 8.04-4.117 8.716l-.451-.032Zm-1.978-14.281h-.385a4.157 4.157 0 0 0-2.847 2.525 8.04 8.04 0 0 0-.45 4.985c.724 3.619 3.393 6.16 5.966 5.629 2.573-.531 4.02-3.876 3.297-7.51a8.217 8.217 0 0 0-2.364-4.406 4.249 4.249 0 0 0-3.265-1.223h.048Z" fill="#455A64"/><path d="m174.208 116.438-.836-.595c.885-1.238 3.216-3.216 5.516-1.704l-.547.868c-2.09-1.335-4.052 1.335-4.133 1.431ZM141.29 126.859l-.997-.225c.096-.483 1.126-4.616 3.216-5.548 2.091-.933 15.76-3.024 16.355-3.12l.161 1.029c-3.956.611-14.554 2.364-16.082 3.039-1.527.676-2.428 3.699-2.653 4.825Z" fill="#455A64"/><path d="M153.833 122.501s-6.802-7.703-10.372-5.179c-3.57 2.525 2.219 14.136 6.867 15.294a4.578 4.578 0 0 0 3.567-.323 4.567 4.567 0 0 0 2.238-2.797l-2.3-6.995Z" fill="#F7A9A0"/><path d="M145.214 120.603v.129c3.216.916 5.242 3.618 6.738 6.432a2.52 2.52 0 0 0-2.923-.849c-.341.13-.649.332-.904.592 0 0 0 .193.112.161a2.782 2.782 0 0 1 3.216.627c.674.7 1.262 1.478 1.753 2.316.177.257.676 0 .531-.258-.483-4.004-4.181-9.23-8.523-9.15ZM149.861 162.559c-.321 3.216-.739 6.304-1.109 9.44-.37 3.136-.836 6.288-1.255 9.423l-.611-.659c2.252-.193 4.519-.418 6.771-.563l6.77-.482 1.254-.097-.531 1.142c-2.09 4.438-4.132 8.877-6.303 13.283l-.306-1.013c5.371 3.088 10.791 6.095 16.081 9.263 5.291 3.168 10.694 6.288 15.953 9.649-5.548-2.782-11.032-5.661-16.5-8.588-5.467-2.927-10.887-5.918-16.322-8.893l-.627-.337.305-.66c2.043-4.454 4.214-8.844 6.352-13.251l.708 1.046-6.77.402c-2.268.144-4.535.209-6.786.321h-.74l.128-.707a672.07 672.07 0 0 0 1.609-9.344c.514-3.103 1.286-6.287 1.929-9.375ZM179.756 159.343a157.755 157.755 0 0 1 2.927 3.57c.965 1.206 1.946 2.38 2.879 3.602l5.676 7.285.708.916-1.174.161-6.593.917.37-1.367c2.814 2.187 5.628 4.374 8.41 6.609l.37.306-.08.466a531.763 531.763 0 0 1-3.217 15.036c-1.093 5.018-2.235 10.019-3.489 14.988a478.036 478.036 0 0 1 2.38-15.197c.868-5.049 1.753-10.099 2.717-15.132l.274.772c-2.814-2.187-5.597-4.423-8.379-6.642l-1.463-1.158 1.849-.209 6.61-.74-.467 1.078-5.129-7.558c-.885-1.255-1.721-2.557-2.573-3.828-.853-1.27-1.786-2.573-2.606-3.875Z" fill="#263238"/><path d="m200.565 180.892-14.135 87.691-13.637-1.785 9.842-88.254 17.93 2.348Z" fill="#263238"/><path d="M195.002 153.73a14.346 14.346 0 0 0-10.596 2.836 14.324 14.324 0 0 0-5.486 9.499l-.643 4.921a13.405 13.405 0 0 0 2.667 9.912 13.41 13.41 0 0 0 8.895 5.124l1.802.241a13.405 13.405 0 0 0 9.912-2.667 13.41 13.41 0 0 0 5.124-8.896l.643-4.904a14.315 14.315 0 0 0-12.318-16.066Z" fill="#A6A6A6"/><path d="m208.079 171.562-30.2-3.954-.405 3.093 30.2 3.955.405-3.094Z" fill="#C7C7C7"/><path d="m207.128 185.726-31.388-4.635-4.435 30.036 31.388 4.635 4.435-30.036Z" fill="#FF9446"/><path d="M183.97 192.438a14.334 14.334 0 0 0-1.609 4.309l-3.859-.578V195.767c.132-.52.299-1.031.498-1.528.339-.808.759-1.578 1.255-2.3h.096l3.586.547.033-.048ZM182.329 202.376l-3.554-.547a10.99 10.99 0 0 1-.482-2.878 10.125 10.125 0 0 1 0-1.415v-.161l3.827.579v.08c0 .322 0 .643-.08.965-.081.322 0 1.029 0 1.528.045.621.131 1.239.257 1.849h.032ZM197.414 205.833c-.385.425-.799.823-1.239 1.19-.537.437-1.113.825-1.72 1.158-.597.324-1.221.593-1.866.804-.631.194-1.276.34-1.93.435-.533.069-1.07.096-1.608.08h-.241.097a11.58 11.58 0 0 0 3.216-2.332c.54-.544 1.03-1.136 1.463-1.769a.116.116 0 0 1 .048-.011c.017 0 .034.004.049.011l3.65.563.081-.129ZM194.792 198.645l-5.033-.707.675-4.455 3.924.595a12.1 12.1 0 0 1 .418 2.734v1.447c.032.129.032.242.016.386ZM194.583 199.819c.008.107.008.215 0 .322 0 .241-.113.482-.177.723-.064.242-.209.676-.338.998-.261.72-.589 1.415-.98 2.074h-.113l-4.004-.611.643-4.31 4.969.804ZM189.228 193.274l-.675 4.455-4.986-.756v-.338c0-.113.113-.482.193-.724.081-.241.242-.739.386-1.109.277-.725.627-1.421 1.046-2.075h.096l3.795.579.145-.032ZM188.36 198.935l-.627 4.197-3.908-.579a.097.097 0 0 1-.053-.027.1.1 0 0 1-.028-.054 11.624 11.624 0 0 1-.337-2.347v-2.027l4.824.74s.145.048.129.097ZM200.196 199.546l-4.181-.627c.153-1.55.055-3.114-.29-4.632l3.827.579h.081c.319.951.503 1.941.547 2.943.032.535.032 1.072 0 1.608l.016.129ZM200.019 200.607v.289c0 .386-.193.74-.306 1.11a11.341 11.341 0 0 1-1.158 2.396l-.225.354h-.08l-3.828-.579.209-.37c.323-.632.597-1.288.821-1.962.165-.484.3-.978.402-1.479.032-.117.059-.235.08-.354l4.085.595ZM199.15 193.58l-3.65-.563a.08.08 0 0 1-.081 0 12.705 12.705 0 0 0-1.399-2.959c-.356-.53-.754-1.03-1.19-1.496l-.691-.659v-.08a11.06 11.06 0 0 1 3.521 1.608 10.809 10.809 0 0 1 3.49 4.149ZM186.108 209.082h-.112a8.984 8.984 0 0 1-1.158-.418 9.633 9.633 0 0 1-1.994-1.11 10.535 10.535 0 0 1-1.946-1.736 10.01 10.01 0 0 1-1.11-1.496c-.24-.405-.454-.824-.643-1.254l3.409.514c.237.769.55 1.512.933 2.219.355.65.763 1.269 1.222 1.85.374.484.789.936 1.238 1.351l.161.08ZM189.341 187.388l-.563.306a11.83 11.83 0 0 0-1.882 1.286 10.97 10.97 0 0 0-2.106 2.203l-.113.161h-.177l-3.329-.498a10.987 10.987 0 0 1 8.218-3.522l-.048.064ZM192.268 205.062a12.104 12.104 0 0 1-2.027 2.026c-.67.527-1.398.975-2.171 1.335l.595-3.908 3.603.547ZM187.539 204.37l-.578 3.827a11.257 11.257 0 0 1-2.879-4.358l3.457.531ZM194.004 192.791l-3.457-.53.563-3.651a10.67 10.67 0 0 1 1.608 1.914c.511.706.943 1.466 1.286 2.267ZM189.936 188.546l-.547 3.57-3.313-.498a10.566 10.566 0 0 1 3.86-3.072Z" fill="#fff"/><path d="M70.21 270.995c10.309 6.433 32.163 1.721 79.555-8.041 6.545-1.35 5.773-50.913-1.303-49.852-8.893 1.367-43.13 8.588-45.574 9.44-20.552 7.14-39.657 44.031-32.677 48.453Z" fill="#F7A9A0"/><path d="M207.191 204.724a7.708 7.708 0 0 1-1.013 8.748 11.422 11.422 0 0 1 5.258 5.741c1.608 4.423-4.647 8.877-4.647 8.877a14.09 14.09 0 0 1 4.567 6.931c1.093 4.39-4.551 9.778-4.551 9.778a12.387 12.387 0 0 1 .177 8.635c-2.927 7.382-14.843 9.649-22.402 11.048-7.558 1.399-30.409-1.415-34.815-1.528l-9.858-48.469s32.034-16.274 41.168-16.74c7.67-.402 23.06 1.801 26.116 6.979Z" fill="#F7A9A0"/><path d="M205.695 212.765c-8.298-1.608-16.58-.547-24.926 0a.145.145 0 1 0 0 .289c8.282-.611 16.58.418 24.862.145.209-.048.289-.402.064-.434ZM206.499 227.479a22.223 22.223 0 0 0-5.741.257c-2.026.226-4.036.499-6.062.788a235.405 235.405 0 0 0-12.045 2.075c-.177 0-.177.305 0 .289 4.02-.579 8.04-1.109 12.093-1.511a283.17 283.17 0 0 1 6.079-.579 25.957 25.957 0 0 0 5.692-.756.291.291 0 0 0 .214-.288.288.288 0 0 0-.23-.275ZM206.628 244.815a15.265 15.265 0 0 0-5.162.514l-5.5.885c-3.666.579-7.349 1.142-11.032 1.608-.177 0-.16.306 0 .289 3.763-.434 7.51-.82 11.257-1.286 1.85-.225 3.683-.466 5.516-.724a14.302 14.302 0 0 0 4.937-1.077.125.125 0 0 0 .049-.045.115.115 0 0 0-.01-.127.104.104 0 0 0-.055-.037Z" fill="#263238"/><path d="m142.705 212.186-20.375 59.726s-42.47 7.349-52.328-.193c-6.433-4.969 11.627-43.596 34.928-49.723l37.775-9.81Z" fill="#37474F"/><path d="M81.564 239.942A55.293 55.293 0 0 1 97.92 224.44c8.555-5.178 38.901-11.257 44.722-12.351.113 0 .193.161 0 .193-4.696 1.383-36.987 8.813-44.336 13.171a80.126 80.126 0 0 0-16.676 14.618c.016.096-.129-.016-.065-.129Z" fill="#263238"/><path d="M108.854 269.13c1.897-6.578 4.149-13.042 6.432-19.507 2.284-6.465 4.535-12.865 6.963-19.297 1.367-3.619 2.718-7.253 4.23-10.823 0-.097.193 0 .177 0-1.898 6.577-4.133 13.058-6.433 19.522-2.299 6.465-4.519 12.865-6.866 19.298a259.829 259.829 0 0 1-4.23 10.823c-.016.257-.321.177-.273-.016ZM113.276 273.214c2.975-.772 5.999-1.19 8.974-1.608l-.242.225c.467-1.174.949-2.332 1.528-3.457a35.692 35.692 0 0 1-.884 3.666v.177h-.209a36.167 36.167 0 0 1-9.118.997h-.049Z" fill="#263238"/><path d="M58.616 63.177a35.09 35.09 0 0 0 56.011 28.174l17.239 4.39-7.156-16.08a35.098 35.098 0 0 0 1.042-30.725 35.087 35.087 0 0 0-39.328-20.032 35.088 35.088 0 0 0-27.808 34.273Z" fill="#FF9446"/><path d="M58.617 63.177a35.17 35.17 0 0 0 5.322 18.349 37.222 37.222 0 0 0 2.798 3.94 37.906 37.906 0 0 0 3.362 3.457 32.161 32.161 0 0 0 7.944 5.403 33.305 33.305 0 0 0 13.878 3.522c1.608.096 3.22.069 4.824-.08a34.544 34.544 0 0 0 17.561-6.883l.225-.16h.273l17.191 4.293-.82.98-7.22-15.984-.161-.338.177-.337a34.87 34.87 0 0 0 4.036-14.876 34.467 34.467 0 0 0-2.862-15.196 36.134 36.134 0 0 0-9.215-12.463 34.577 34.577 0 0 0-13.798-7.205 35.056 35.056 0 0 0-15.615-.514 35.604 35.604 0 0 0-14.296 6.432 35.217 35.217 0 0 0-13.605 27.66Zm0 0a35.379 35.379 0 0 1 13.46-27.66 35.523 35.523 0 0 1 44.625.45 36.114 36.114 0 0 1 9.745 12.866 35.588 35.588 0 0 1-1.109 31.406v-.675l7.091 16.081.595 1.35-1.415-.385-17.158-4.503.482-.096a35.458 35.458 0 0 1-18.188 6.706 29.194 29.194 0 0 1-4.824 0 35.234 35.234 0 0 1-21.951-9.424 36.318 36.318 0 0 1-3.345-3.506 35.895 35.895 0 0 1-2.782-3.972 35.378 35.378 0 0 1-5.227-18.638Z" fill="#263238"/><path d="M80.053 64.64a3.087 3.087 0 1 1-6.175 0 3.087 3.087 0 0 1 6.175 0ZM96.246 64.64a3.088 3.088 0 1 1-3.071-3.087 3.07 3.07 0 0 1 3.072 3.087ZM112.456 64.64a3.084 3.084 0 0 1-1.902 2.851 3.087 3.087 0 1 1 1.902-2.85Z" fill="#263238"/><path d="M239.948 211.526a21.712 21.712 0 0 0-3.731 12.029c0 15.261 16.757 27.628 37.405 27.628 20.649 0 37.389-12.367 37.389-27.628s-16.724-27.611-37.389-27.611a44.867 44.867 0 0 0-25.73 7.638l-12.865-3.216 4.921 11.16Z" fill="#FFFEFD"/><path d="M239.948 211.526a22.05 22.05 0 0 0-3.521 11.386 21.388 21.388 0 0 0 3.216 11.401 33.772 33.772 0 0 0 18.879 13.879 49.765 49.765 0 0 0 23.656 1.527 41.782 41.782 0 0 0 11.353-3.586 35.06 35.06 0 0 0 9.649-6.754 24.118 24.118 0 0 0 6.127-9.89 19.866 19.866 0 0 0 .161-11.498 24.4 24.4 0 0 0-5.983-9.987 35.009 35.009 0 0 0-9.648-6.882 42.82 42.82 0 0 0-11.257-3.683 49.295 49.295 0 0 0-11.916-.82 43.74 43.74 0 0 0-22.514 7.269l-.145.096h-.161l-12.865-3.441.225-.274 4.744 11.257Zm0 0-5.162-11.144-.161-.354.386.097 12.865 3.103h-.305a44.556 44.556 0 0 1 22.932-7.815 48.022 48.022 0 0 1 23.929 4.39 35.832 35.832 0 0 1 10.05 7.124 25.73 25.73 0 0 1 6.433 10.581 21.215 21.215 0 0 1-.113 12.415 26.058 26.058 0 0 1-6.561 10.501 36.66 36.66 0 0 1-10.147 6.996 44.224 44.224 0 0 1-11.739 3.65c-4.041.688-8.15.888-12.238.595a50.126 50.126 0 0 1-12.013-2.444 39.25 39.25 0 0 1-10.887-5.597 29.455 29.455 0 0 1-8.25-9.005 22.058 22.058 0 0 1-2.926-11.772 21.808 21.808 0 0 1 3.907-11.321Z" fill="#263238"/><path d="M287.066 223.555a3.882 3.882 0 0 1 4.642-3.783 3.874 3.874 0 0 1 1.385 7.023 3.872 3.872 0 0 1-5.736-1.752 3.876 3.876 0 0 1-.291-1.488ZM269.731 223.555a3.89 3.89 0 0 1 6.643-2.752 3.892 3.892 0 0 1-2.751 6.644 3.874 3.874 0 0 1-3.892-3.892ZM252.476 223.555a3.875 3.875 0 1 1 7.75.031 3.875 3.875 0 0 1-7.75-.031Z" fill="#263238"/><path d="m634.831 345.641 13.218-11.901-69.448-77.13-13.218 11.901 69.448 77.13Z" fill="#C7C7C7"/><path d="m666.745 387.89 19.989-17.995-48.501-53.872-19.989 17.995 48.501 53.872Z" fill="#263238"/><path d="M505.498 285.613a81.033 81.033 0 1 1 95.201-63.826 81.116 81.116 0 0 1-95.201 63.826Zm1.801-9.102a71.75 71.75 0 0 0 73.614-30.627 71.756 71.756 0 0 0-73.837-110.124 71.76 71.76 0 0 0-56.286 56.469 71.84 71.84 0 0 0 10.827 53.826 71.837 71.837 0 0 0 45.682 30.456Z" fill="#37474F"/><path d="M602.243 186.183a83.844 83.844 0 0 1-54.11 99.554 83.847 83.847 0 1 1 42.323-126.088 83.12 83.12 0 0 1 11.787 26.534Zm-157.435 38.691a78.651 78.651 0 0 0 136.127 32.43 78.653 78.653 0 1 0-136.127-32.43Zm148.414-36.472a74.204 74.204 0 0 1-18.401 68.911 74.19 74.19 0 0 1-67.988 21.562 74.167 74.167 0 1 1 75.92-114.048 74.54 74.54 0 0 1 10.469 23.575Zm-85.456 85.729a69.422 69.422 0 0 0 52.024-125.858 69.425 69.425 0 0 0-107.608 51.064 69.42 69.42 0 0 0 55.584 74.794Z" fill="#37474F"/><g opacity=".2"><path d="M452.334 202.505a68.94 68.94 0 1 0 137.694 7.178 68.94 68.94 0 0 0-137.694-7.178Z" fill="#fff"/><path d="M454.07 221.932a69.02 69.02 0 0 0 82.336 51.46l-82.336-51.46ZM474.397 155.403l112.794 70.452a69.112 69.112 0 0 0 2.782-16.081 67.198 67.198 0 0 0-1.608-18.686l-83.269-52.023a68.908 68.908 0 0 0-30.699 16.338ZM453.041 195.655l107.439 67.107a69.645 69.645 0 0 0 10.308-8.764l-114.402-71.465a66.792 66.792 0 0 0-3.345 13.122ZM467.964 162.27l115.946 72.366c.354-.756.692-1.608 1.013-2.3l-115.351-71.963a53.165 53.165 0 0 0-1.608 1.897ZM528.253 137.521l51.46 32.163c-1.078-1.753-2.268-3.458-3.506-5.114l-41.811-26.148c-2.107-.402-4.085-.708-6.143-.901Z" fill="#EBEBEB"/></g><path d="M507.364 260.028a55.367 55.367 0 0 1-20.536-9.311 58.482 58.482 0 0 1-8.652-7.558 61.963 61.963 0 0 1-6.995-9.199 54.916 54.916 0 0 1-7.414-21.726 59.695 59.695 0 0 1 1.689-22.513c-.079 7.34.6 14.669 2.026 21.87a67.926 67.926 0 0 0 3.12 10.292 54.822 54.822 0 0 0 4.712 9.552 69.032 69.032 0 0 0 13.83 16.323 92.174 92.174 0 0 0 18.22 12.27Z" fill="#fff"/></svg>