<svg width="717" height="693" viewBox="0 0 717 693" fill="none" xmlns="http://www.w3.org/2000/svg">
<path d="M607.164 45.9219C604.127 53.6294 602.341 61.7727 601.873 70.0438H580.533V69.4487C580.533 68.902 580.646 68.3552 580.71 67.8406C580.971 65.0057 581.444 62.1944 582.125 59.4301C583.226 54.8813 584.816 50.4653 586.869 46.2596C586.903 46.1534 586.973 46.0626 587.067 46.0036C587.161 45.9446 587.274 45.9214 587.384 45.938H607.196L607.164 45.9219Z" fill="#EBEBEB"/>
<path d="M606.52 99.8425H586.869C586.768 99.8545 586.665 99.8304 586.58 99.7745C586.495 99.7186 586.432 99.6346 586.403 99.537C584.159 94.8131 582.538 89.8185 581.578 84.6779C581.104 82.1967 580.781 79.6886 580.613 77.168C580.622 77.0825 580.622 76.9962 580.613 76.9107V76.3157H580.935H601.439C601.824 76.3157 601.808 76.3157 601.841 76.7016C601.969 78.4223 602.082 80.143 602.243 81.8476C602.514 84.5527 602.955 87.2381 603.561 89.8882C604.264 93.1667 605.199 96.3911 606.359 99.537C606.456 99.6174 606.472 99.7139 606.52 99.8425Z" fill="#EBEBEB"/>
<path d="M689.114 106.05L688.953 106.339C687.291 108.889 685.43 111.303 683.389 113.56C680.927 116.338 678.19 118.86 675.22 121.086C669.505 125.46 663.027 128.732 656.115 130.735C653.431 131.511 650.696 132.097 647.93 132.487L647.126 132.616H646.659L646.209 132.327L646.724 131.957C652.71 127.877 657.949 122.796 662.21 116.937C664.618 113.624 666.738 110.111 668.546 106.436C668.579 106.337 668.644 106.252 668.732 106.197C668.82 106.141 668.925 106.118 669.028 106.13H689.114V106.05Z" fill="#EBEBEB"/>
<path d="M669.463 70.0278H641.883V45.9059H663.416C663.511 45.8946 663.607 45.9176 663.687 45.9706C663.766 46.0237 663.824 46.1033 663.85 46.1953C665.831 50.7305 667.304 55.4712 668.24 60.3308C668.731 62.856 669.086 65.4059 669.302 67.9694C669.35 68.6448 669.414 69.288 669.463 70.0278Z" fill="#EBEBEB"/>
<path d="M669.301 76.4766C669.301 77.0394 669.301 77.6023 669.221 78.0847C669.092 79.4355 669.012 80.7703 668.819 82.1211C668.562 83.9543 668.272 85.8037 667.902 87.637C667.085 91.6643 665.89 95.6055 664.332 99.4084C664.309 99.5193 664.245 99.6173 664.152 99.6829C664.06 99.7485 663.946 99.7768 663.834 99.7622H641.642V76.4766H669.301Z" fill="#EBEBEB"/>
<path d="M635.66 46.0668V70.1887H608.724C608.724 69.5615 608.724 68.9665 608.836 68.3715C608.981 67.0207 609.077 65.6699 609.303 64.3351C609.624 62.2767 609.978 60.2344 610.412 58.2082C611.317 54.1393 612.62 50.1694 614.304 46.3563C614.336 46.2617 614.4 46.1813 614.485 46.1285C614.57 46.0758 614.671 46.054 614.77 46.0668H635.676H635.66Z" fill="#EBEBEB"/>
<path d="M635.692 76.7818C635.692 84.3614 635.692 91.9303 635.692 99.4885V99.8423H614.159C614.054 99.8541 613.947 99.8283 613.859 99.7695C613.771 99.7106 613.706 99.6225 613.677 99.5207C612.043 95.6038 610.815 91.5301 610.01 87.3633C609.608 85.2084 609.303 83.0535 609.029 80.9307C608.852 79.5156 608.82 78.0844 608.724 76.6531C608.724 76.6531 608.724 76.6531 608.724 76.5084H635.338C635.628 76.4441 635.692 76.5245 635.692 76.7818Z" fill="#EBEBEB"/>
<path d="M698.73 70.2047H676.12C675.662 61.8817 673.882 53.6848 670.845 45.922H691.912C692.018 45.9053 692.126 45.9269 692.217 45.9829C692.309 46.0389 692.377 46.1256 692.41 46.2276C694.822 50.974 696.575 56.0272 697.62 61.2475C698.175 64.0506 698.546 66.8869 698.73 69.7384V70.2047Z" fill="#EBEBEB"/>
<path d="M698.746 76.2834C698.746 76.8302 698.746 77.3609 698.666 77.8915C698.224 84.6744 696.591 91.3264 693.842 97.5428L692.877 99.6334C692.855 99.704 692.809 99.765 692.748 99.806C692.686 99.847 692.613 99.8655 692.539 99.8585H671.473C671.73 99.1349 671.987 98.4434 672.228 97.7358C674.329 91.4975 675.594 85.0087 675.991 78.4383C675.991 77.7951 676.072 77.1518 676.104 76.4925C676.104 76.3317 676.104 76.2352 676.329 76.2513C676.399 76.2594 676.469 76.2594 676.538 76.2513L698.746 76.2834Z" fill="#EBEBEB"/>
<path d="M688.503 39.763V39.8595H668.401C668.302 39.8715 668.202 39.8515 668.115 39.8023C668.028 39.7531 667.959 39.6773 667.919 39.5861C665.286 34.3348 661.989 29.4436 658.109 25.0326C655.812 22.4917 653.288 20.1663 650.567 18.0855C649.216 17.0563 647.817 16.0753 646.45 15.0783L646.225 14.9175L646.498 14.7245C646.498 14.5958 646.498 14.4672 646.354 14.2903C654.796 15.2629 662.929 18.0413 670.202 22.4366C677.475 26.832 683.717 32.7412 688.503 39.763Z" fill="#EBEBEB"/>
<path d="M631.832 132.262C631.644 132.319 631.45 132.352 631.253 132.359C629.085 132.077 626.936 131.658 624.821 131.104C620.86 130.096 617.017 128.673 613.355 126.859C609.16 124.772 605.23 122.191 601.648 119.172C599.097 117.048 596.744 114.696 594.62 112.145C593.028 110.215 591.562 108.184 590.23 106.066V105.889H608.965C609.065 105.883 609.164 105.909 609.248 105.964C609.333 106.02 609.397 106.1 609.431 106.195C613.021 113.625 617.943 120.334 623.952 125.991C626.337 128.227 628.891 130.275 631.591 132.118L631.832 132.262Z" fill="#EBEBEB"/>
<path d="M631.591 14.8853C630.739 15.4964 629.758 16.2039 628.793 16.9276C625.588 19.4359 622.607 22.2176 619.884 25.2416C616.186 29.2599 613.034 33.7477 610.509 38.589C610.348 38.8946 610.219 39.2162 610.042 39.5057C610.011 39.5561 609.969 39.5985 609.919 39.6293C609.868 39.66 609.812 39.6783 609.753 39.6826H590.745C595.367 32.8549 601.374 27.0759 608.375 22.7207C615.376 18.3655 623.214 15.5315 631.382 14.4028L631.253 14.6441L631.591 14.8853Z" fill="#EBEBEB"/>
<path d="M661.229 106.066C658.703 110.529 655.646 114.67 652.127 118.4C649.016 121.74 645.524 124.704 641.722 127.229V106.066H661.229Z" fill="#EBEBEB"/>
<path d="M635.659 106.082V126.827C627.87 121.482 621.451 114.374 616.925 106.082H635.659Z" fill="#EBEBEB"/>
<path d="M660.618 39.6664H641.883V19.9026C645.731 22.4065 649.262 25.3653 652.4 28.7151C655.507 32.0751 658.26 35.7448 660.618 39.6664Z" fill="#EBEBEB"/>
<path d="M635.659 20.5137V39.8112H617.665C622.073 32.061 628.236 25.4518 635.659 20.5137Z" fill="#EBEBEB"/>
<path d="M513.651 129.432L511.641 127.518L512.349 126.746L514.375 128.676L513.651 129.432Z" fill="#A6A6A6"/>
<path d="M504.469 240.103V239.058C506.35 239.058 508.215 238.897 510.017 238.72L510.129 239.765C508.264 239.942 506.366 240.055 504.469 240.103ZM497.425 239.99C495.576 239.878 493.694 239.717 491.813 239.492L491.925 238.463C493.791 238.672 495.656 238.849 497.473 238.945L497.425 239.99ZM517.06 238.688L516.851 237.659C518.684 237.289 520.501 236.806 522.222 236.276L522.544 237.273C520.775 237.82 518.942 238.302 517.06 238.688ZM484.898 238.447C483.097 238.109 481.247 237.723 479.398 237.289L479.639 236.26C481.472 236.694 483.306 237.08 485.091 237.417L484.898 238.447ZM472.595 235.488C470.827 234.957 469.025 234.394 467.24 233.783L467.562 232.786C469.347 233.397 471.132 233.96 472.885 234.475L472.595 235.488ZM529.169 234.716L528.719 233.767C530.38 232.981 531.991 232.095 533.543 231.114L534.106 231.998C532.485 233.005 530.804 233.912 529.073 234.716H529.169ZM460.631 231.371C458.91 230.695 457.157 229.988 455.437 229.232L455.855 228.283C457.576 229.023 459.312 229.731 461.017 230.406L460.631 231.371ZM539.783 227.704L539.075 226.932C540.442 225.698 541.711 224.359 542.871 222.928L543.691 223.588C542.473 225.054 541.151 226.43 539.735 227.704H539.783ZM449.036 226.321C447.428 225.533 445.708 224.713 444.003 223.813L444.485 222.896C446.174 223.764 447.83 224.504 449.487 225.389L449.036 226.321ZM437.78 220.484C436.171 219.567 434.563 218.618 432.955 217.67L433.486 216.769C435.094 217.718 436.702 218.651 438.31 219.583L437.78 220.484ZM547.55 217.702L546.634 217.203C547.509 215.586 548.256 213.903 548.869 212.17L549.866 212.508C549.235 214.296 548.466 216.032 547.566 217.702H547.55ZM426.941 213.955C425.333 212.926 423.805 211.897 422.277 210.835L422.872 209.983C424.395 211.055 425.938 212.084 427.504 213.07L426.941 213.955ZM416.552 206.767C415.057 205.657 413.561 204.531 412.082 203.39L412.725 202.569C414.188 203.695 415.684 204.821 417.179 205.93L416.552 206.767ZM551.635 205.657L550.606 205.48C550.916 203.661 551.109 201.824 551.185 199.98H552.23C552.161 201.882 551.973 203.778 551.667 205.657H551.635ZM406.63 199.015C405.183 197.825 403.736 196.619 402.32 195.397L403.012 194.593C404.427 195.815 405.842 197.021 407.289 198.195L406.63 199.015ZM550.992 193.065C550.815 191.264 550.557 189.415 550.204 187.566L551.217 187.373C551.587 189.254 551.86 191.136 552.037 192.969L550.992 193.065ZM397.062 190.766C395.679 189.511 394.312 188.241 392.945 186.971L393.653 186.215C395.02 187.485 396.386 188.74 397.769 189.978L397.062 190.766ZM387.879 182.162C386.529 180.86 385.194 179.557 383.875 178.238L384.599 177.483L388.603 181.406L387.879 182.162ZM548.515 180.828C547.984 179.107 547.373 177.338 546.682 175.585L547.663 175.199C548.354 176.984 548.981 178.785 549.512 180.522L548.515 180.828ZM378.922 173.269L375.014 169.249L375.77 168.525C377.078 169.876 378.381 171.211 379.678 172.53L378.922 173.269ZM543.916 169.201C543.128 167.593 542.308 165.888 541.359 164.248L542.276 163.733C543.192 165.341 544.061 167.078 544.865 168.734L543.916 169.201ZM370.238 164.216L366.363 160.163L367.119 159.439L370.994 163.492L370.238 164.216ZM537.869 158.266C536.888 156.657 535.843 155.162 534.766 153.618L535.618 153.023C536.711 154.631 537.773 156.239 538.754 157.703L537.869 158.266ZM361.538 155.049L357.679 150.997L358.435 150.273L362.294 154.342L361.538 155.049ZM530.552 148.086C529.443 146.639 528.253 145.191 527.047 143.744L527.851 143.069C529.073 144.516 530.263 145.996 531.389 147.443L530.552 148.086ZM352.79 146.044L348.898 142.023L349.638 141.284L353.546 145.32L352.79 146.044ZM522.447 138.486C521.209 137.135 519.939 135.784 518.62 134.433L519.424 133.613C520.764 134.975 522.051 136.341 523.284 137.714L522.447 138.486ZM343.945 137.022L340.006 133.066L340.729 132.326L344.701 136.282L343.945 137.022ZM335.004 128.161C333.686 126.875 332.335 125.588 330.968 124.286L331.692 123.53C333.058 124.817 334.409 126.119 335.744 127.406L335.004 128.161ZM325.87 119.51C324.503 118.255 323.136 117.001 321.737 115.747L322.429 114.959L326.578 118.738L325.87 119.51ZM316.543 111.099C315.144 109.877 313.729 108.671 312.298 107.465L312.973 106.661C314.42 107.883 315.835 109.089 317.234 110.311L316.543 111.099ZM306.894 103.059L302.52 99.5529L303.179 98.7328C304.659 99.9067 306.106 101.081 307.554 102.255L306.894 103.059ZM297.004 95.2753C295.541 94.1496 294.045 93.04 292.534 91.9143L293.145 91.0781C294.672 92.2038 296.168 93.3134 297.631 94.4391L297.004 95.2753ZM286.857 87.8297C285.361 86.7683 283.834 85.6909 282.274 84.6134L282.869 83.745C284.477 84.8225 285.956 85.8838 287.468 86.9613L286.857 87.8297ZM276.469 80.7378C274.941 79.7086 273.365 78.6955 271.789 77.6824L272.352 76.814C273.96 77.8271 275.568 78.8403 277.047 79.8534L276.469 80.7378ZM265.855 73.9837C264.247 73.0188 262.639 72.054 261.031 71.1052L261.561 70.2046C263.169 71.1534 264.777 72.1183 266.386 73.0992L265.855 73.9837ZM255.016 67.5512L250.192 64.8335L250.69 63.9008L255.595 66.6507L255.016 67.5512ZM243.984 61.5047C242.376 60.6363 240.768 59.784 239.031 58.9156L239.498 57.9829L244.483 60.572L243.984 61.5047ZM232.728 55.7797C231.119 54.9757 229.399 54.1716 227.694 53.3515L228.144 52.4027C229.849 53.2067 231.537 54.0108 233.194 54.847L232.728 55.7797ZM221.438 50.3121L216.341 47.9964L216.775 47.0476C218.496 47.8195 220.2 48.6557 221.873 49.3472L221.438 50.3121ZM209.924 45.1661L204.762 42.9951L205.164 42.0303L210.342 44.2012L209.924 45.1661Z" fill="#A6A6A6"/>
<path d="M197.96 40.3419L195.355 39.3127L195.741 38.3318L198.346 39.361L197.96 40.3419Z" fill="#A6A6A6"/>
<path d="M201.273 20.3209L210.503 45.6649L191.125 30.5324L117.071 3.67676L201.273 20.3209Z" fill="#DBDBDB"/>
<path d="M188.649 36.434L210.503 45.6647L191.125 30.5322L188.649 36.434Z" fill="#C7C7C7"/>
<path d="M191.125 30.5324L117.071 3.67676L177.81 62.9522L191.125 30.5324Z" fill="#EBEBEB"/>
<path d="M201.273 20.3205L232.052 0.444092L117.071 3.67643L201.273 20.3205Z" fill="#EBEBEB"/>
<path d="M236.394 546.901L236.057 546.773L234.255 546.065L234.625 545.1L236.442 545.824L239.659 547.078L239.289 548.043L236.394 546.901ZM227.919 543.476C226.199 542.768 224.526 542.061 222.87 541.337L223.288 540.404L228.305 542.543L227.919 543.476ZM245.754 550.439L246.107 549.474L251.253 551.308L250.916 552.272L245.754 550.439ZM257.38 554.508L257.702 553.543L262.896 555.264L262.575 556.245L257.38 554.508ZM216.63 538.555C214.942 537.783 213.285 536.947 211.677 536.223L212.112 535.307C213.72 536.079 215.328 536.915 217.048 537.622L216.63 538.555ZM269.087 558.335L269.393 557.354L274.603 558.962L274.314 559.943L269.087 558.335ZM205.534 533.168C203.926 532.332 202.318 531.479 200.71 530.627L201.208 529.71C202.774 530.568 204.382 531.42 206.033 532.267L205.534 533.168ZM280.859 561.937L281.148 560.94L286.391 562.548L286.101 563.529L280.859 561.937ZM194.728 527.266C193.12 526.333 191.511 525.385 190.032 524.436L190.579 523.567C192.09 524.516 193.65 525.449 195.242 526.382L194.728 527.266ZM292.679 565.266L292.968 564.285L298.227 565.732L297.953 566.729L292.679 565.266ZM304.563 568.482L304.82 567.501L306.203 567.855L310.111 568.852L309.869 569.849L305.946 568.852L304.563 568.482ZM184.291 520.641C182.763 519.595 181.252 518.534 179.804 517.424L180.399 516.604C181.847 517.65 183.342 518.711 184.854 519.74L184.291 520.641ZM316.543 571.377L316.768 570.38C318.537 570.766 320.322 571.12 322.123 571.473L321.93 572.47C320.178 572.149 318.409 571.779 316.591 571.393L316.543 571.377ZM328.668 573.677L328.845 572.663C330.63 572.969 332.431 573.258 334.233 573.516L334.088 574.529C332.319 574.239 330.518 573.998 328.717 573.693L328.668 573.677ZM174.369 513.308C172.905 512.118 171.49 510.928 170.172 509.754L170.863 508.998C172.166 510.156 173.565 511.33 175.012 512.503L174.369 513.308ZM340.922 575.462L341.035 574.449C342.852 574.674 344.653 574.867 346.454 575.06L346.358 576.089C344.541 575.848 342.723 575.687 340.922 575.462ZM165.235 505.09C163.932 503.771 162.662 502.437 161.472 501.086L162.244 500.41C163.418 501.729 164.672 503.064 165.958 504.382L165.235 505.09ZM353.16 576.764V575.735C354.977 575.896 356.778 576.041 358.596 576.153V577.182C356.795 577.021 354.977 576.893 353.16 576.732V576.764ZM365.43 577.584V576.555L370.882 576.796V577.809L365.43 577.584ZM157.13 495.747C156.02 494.267 154.959 492.756 153.913 491.244L154.766 490.681C155.731 492.177 156.776 493.672 157.886 495.12L157.13 495.747ZM377.765 577.954V576.941H383.216V577.97L377.765 577.954ZM150.488 485.31C149.636 483.702 148.88 482.013 148.124 480.341L149.073 479.939C149.781 481.547 150.569 483.236 151.405 484.763L150.488 485.31ZM390.099 577.986V576.957C391.932 576.957 393.749 576.957 395.566 576.861V577.89C393.749 577.922 391.916 577.97 390.083 577.986H390.099ZM402.417 577.665V576.636L407.885 576.378V577.407L402.417 577.665ZM145.728 473.892C145.178 472.118 144.786 470.3 144.554 468.457L145.583 468.344C145.8 470.122 146.177 471.877 146.709 473.587L145.728 473.892ZM414.703 577.005V575.976L420.155 575.59V576.603L414.703 577.005ZM426.989 576.024L426.893 575.011L432.344 574.481L432.441 575.494C430.661 575.73 428.844 575.906 426.989 576.024ZM144.731 461.494C144.961 460.262 145.311 459.055 145.776 457.892C145.995 457.343 146.242 456.806 146.516 456.283L147.433 456.734C147.175 457.248 146.934 457.795 146.725 458.342C146.288 459.456 145.955 460.608 145.728 461.783L144.731 461.494ZM439.195 574.754L439.066 573.741L444.502 573.082L444.63 574.095L439.195 574.754ZM451.417 573.146L451.272 572.133C453.137 571.875 454.938 571.618 456.691 571.345L456.836 572.358C455.099 572.631 453.346 572.937 451.481 573.194L451.417 573.146ZM151.308 451.218L150.553 450.526C151.815 449.166 153.192 447.918 154.669 446.796L155.28 447.616C153.855 448.699 152.526 449.904 151.308 451.218ZM463.671 571.361L463.51 570.348L468.897 569.431L469.074 570.444L463.671 571.361ZM475.828 569.222L475.635 568.209C477.565 567.839 479.366 567.501 481.006 567.164L481.215 568.177L475.828 569.222ZM160.957 443.981L160.475 443.097C162.09 442.21 163.748 441.405 165.444 440.685L165.846 441.633C164.125 442.373 162.42 443.145 160.957 443.981ZM487.921 566.778L487.696 565.765C491.169 565.009 493.035 564.542 493.051 564.526L493.292 565.523C493.292 565.523 491.411 565.99 487.921 566.762V566.778ZM172.198 439.157L171.876 438.192C173.484 437.629 175.318 437.099 177.135 436.584L177.408 437.581C175.607 438.128 173.854 438.658 172.198 439.157ZM184.034 435.941L183.825 434.944C185.577 434.574 187.395 434.236 189.228 433.931L189.389 434.944C187.572 435.346 185.77 435.683 184.034 436.053V435.941ZM196.143 433.963L196.014 432.95C197.831 432.724 199.665 432.531 201.482 432.371L201.562 433.4C199.761 433.657 197.944 433.85 196.191 434.075L196.143 433.963ZM208.365 432.95V431.92C210.214 431.84 212.063 431.792 213.864 431.776V432.805C212.047 432.933 210.214 432.982 208.365 433.062V432.95Z" fill="#A6A6A6"/>
<path d="M509.229 545.776L493.18 565.009L514.873 557.901L588.075 557.756L509.229 545.776Z" fill="#DBDBDB"/>
<path d="M515.179 563.835L493.18 565.009L514.873 557.901L515.179 563.835Z" fill="#C7C7C7"/>
<path d="M514.874 557.901L588.075 557.756L516.289 590.433L514.874 557.901Z" fill="#EBEBEB"/>
<path d="M509.229 545.776L488.581 518.695L588.075 557.756L509.229 545.776Z" fill="#EBEBEB"/>
<path d="M47.1021 596.029L130.596 595.643L214.106 595.499L381.126 595.225L548.146 595.499L631.656 595.627L715.149 596.029L631.656 596.415L548.146 596.56L381.126 596.833L214.106 596.56L130.596 596.415L47.1021 596.029Z" fill="#263238"/>
<path d="M654.298 88.489H107.954V511.506H654.298V88.489Z" fill="#C7C7C7"/>
<path d="M654.298 511.506H107.954V74.9646H535.409L654.298 181.133V511.506Z" fill="#EBEBEB"/>
<path d="M264.328 150.595V194.175H254.566V132.278H262.237L297.616 176.92V132.359H307.474V194.175H299.433L264.328 150.595Z" fill="#FF9446"/>
<path d="M363.903 185.556V194.175H321.448V132.278H363.115V140.914H331.274V158.603H358.918V166.644H331.274V185.556H363.903Z" fill="#FF9446"/>
<path d="M395.985 132.536H405.247L412.838 153.554L420.508 132.536H429.659L419.109 160.099L428.356 182.854L447.654 132.278H458.315L432.762 194.175H424.4L412.886 166.451L401.291 194.175H392.929L367.376 132.278H378.006L397.303 182.854L406.55 160.099L395.985 132.536Z" fill="#FF9446"/>
<path d="M500.802 146.832C500.037 146.056 499.184 145.371 498.261 144.79C497.034 143.993 495.737 143.309 494.386 142.747C492.831 142.062 491.216 141.524 489.562 141.139C487.778 140.733 485.955 140.528 484.126 140.528C479.988 140.528 476.948 141.284 475.008 142.796C474.053 143.53 473.288 144.483 472.779 145.574C472.27 146.666 472.03 147.864 472.081 149.067C472.027 150.368 472.345 151.656 472.998 152.782C473.726 153.837 474.697 154.703 475.828 155.307C477.356 156.132 478.975 156.774 480.653 157.22C482.572 157.789 484.807 158.384 487.358 159.005C490.241 159.686 493.082 160.535 495.865 161.546C498.168 162.347 500.337 163.491 502.298 164.939C504.019 166.236 505.408 167.922 506.35 169.86C507.372 172.087 507.867 174.519 507.798 176.968C507.874 179.78 507.261 182.568 506.013 185.089C504.877 187.297 503.221 189.196 501.188 190.621C499.009 192.106 496.571 193.169 494 193.757C491.114 194.444 488.154 194.779 485.187 194.754C480.559 194.766 475.957 194.05 471.551 192.631C467.254 191.253 463.228 189.142 459.65 186.392L464.089 178.013C465.077 178.962 466.154 179.813 467.305 180.554C468.884 181.553 470.547 182.414 472.274 183.127C474.276 183.94 476.335 184.607 478.433 185.121C480.684 185.687 482.996 185.968 485.316 185.958C488.41 186.135 491.492 185.439 494.209 183.947C495.215 183.33 496.037 182.453 496.588 181.409C497.14 180.366 497.401 179.193 497.345 178.013C497.392 176.613 496.979 175.235 496.171 174.09C495.266 172.941 494.119 172.008 492.81 171.356C491.116 170.47 489.338 169.754 487.503 169.217C485.396 168.574 483.016 167.898 480.347 167.207C477.619 166.507 474.934 165.648 472.306 164.634C470.244 163.874 468.316 162.788 466.598 161.418C465.135 160.192 463.96 158.661 463.156 156.931C462.321 154.96 461.921 152.831 461.982 150.691C461.937 147.913 462.531 145.162 463.719 142.651C464.866 140.344 466.515 138.322 468.543 136.733C470.652 135.072 473.068 133.843 475.651 133.115C478.54 132.275 481.536 131.863 484.544 131.892C488.498 131.851 492.426 132.526 496.139 133.887C499.46 135.116 502.599 136.793 505.466 138.872L500.802 146.832Z" fill="#FF9446"/>
<path d="M578.877 113.769H132.381V101.997H565.69L578.877 113.769Z" fill="#C7C7C7"/>
<path d="M562.217 98.9099H132.381V96.562H559.611L562.217 98.9099Z" fill="#C7C7C7"/>
<path d="M586.403 120.491H132.381V118.159H583.782L586.403 120.491Z" fill="#C7C7C7"/>
<path d="M629.887 208.713H132.381V220.468H629.887V208.713Z" fill="#C7C7C7"/>
<path d="M629.887 203.293H132.381V205.625H629.887V203.293Z" fill="#C7C7C7"/>
<path d="M629.887 224.89H132.381V227.206H629.887V224.89Z" fill="#C7C7C7"/>
<path d="M219.943 132.278H132.365V194.191H219.943V132.278Z" fill="#C7C7C7"/>
<path d="M629.87 159.311V194.175H542.308V132.294H599.622L629.87 159.311Z" fill="#C7C7C7"/>
<path d="M278.157 425.986H484.094V267.747H278.157V425.986Z" fill="#FF9446"/>
<path opacity="0.2" d="M300.285 304.846C299.528 308.705 300.031 312.705 301.719 316.256C303.407 319.808 306.192 322.723 309.662 324.572C313.133 326.421 317.105 327.106 320.995 326.527C324.884 325.947 328.485 324.134 331.265 321.353C334.046 318.572 335.859 314.972 336.439 311.083C337.019 307.193 336.333 303.221 334.484 299.75C332.635 296.28 329.72 293.495 326.168 291.807C322.617 290.119 318.617 289.616 314.758 290.373C311.183 291.079 307.898 292.832 305.321 295.409C302.744 297.986 300.991 301.271 300.285 304.846Z" fill="black"/>
<path opacity="0.2" d="M335.262 392.586H484.094L409.67 309.14L335.262 392.586Z" fill="black"/>
<path d="M278.157 392.666H401.034L339.588 338.311L278.157 392.666Z" fill="#FF9446"/>
<path opacity="0.3" d="M278.157 392.666H401.034L339.588 338.311L278.157 392.666Z" fill="black"/>
<path d="M484.094 392.585H278.157V425.986H484.094V392.585Z" fill="#FF9446"/>
<path opacity="0.3" d="M484.094 392.585H278.157V425.986H484.094V392.585Z" fill="black"/>
<path d="M443.022 241.566H278.157V247.082H443.022V241.566Z" fill="#A6A6A6"/>
<path d="M396.097 253.531H278.157V259.047H396.097V253.531Z" fill="#A6A6A6"/>
<path d="M254.566 241.663H132.381V247.179H254.566V241.663Z" fill="#A6A6A6"/>
<path d="M254.47 267.731H132.284V273.247H254.47V267.731Z" fill="#DBDBDB"/>
<path d="M254.47 278.023H132.284V283.539H254.47V278.023Z" fill="#DBDBDB"/>
<path d="M254.47 288.315H132.284V293.831H254.47V288.315Z" fill="#DBDBDB"/>
<path d="M254.47 298.607H132.284V304.123H254.47V298.607Z" fill="#DBDBDB"/>
<path d="M254.47 308.899H132.284V314.415H254.47V308.899Z" fill="#DBDBDB"/>
<path d="M254.47 319.175H132.284V324.691H254.47V319.175Z" fill="#DBDBDB"/>
<path d="M254.47 329.467H132.284V334.982H254.47V329.467Z" fill="#DBDBDB"/>
<path d="M254.47 339.759H132.284V345.274H254.47V339.759Z" fill="#DBDBDB"/>
<path d="M203.846 350.051H132.284V355.567H203.846V350.051Z" fill="#DBDBDB"/>
<path d="M254.47 370.635H132.284V376.151H254.47V370.635Z" fill="#DBDBDB"/>
<path d="M254.47 380.927H132.284V386.442H254.47V380.927Z" fill="#DBDBDB"/>
<path d="M254.47 391.203H132.284V396.718H254.47V391.203Z" fill="#DBDBDB"/>
<path d="M254.47 401.495H132.284V407.011H254.47V401.495Z" fill="#DBDBDB"/>
<path d="M203.846 411.787H132.284V417.302H203.846V411.787Z" fill="#DBDBDB"/>
<path d="M219.799 253.627H132.381V259.143H219.799V253.627Z" fill="#A6A6A6"/>
<path d="M629.87 241.663H507.685V247.179H629.87V241.663Z" fill="#A6A6A6"/>
<path d="M629.774 267.731H507.589V273.247H629.774V267.731Z" fill="#DBDBDB"/>
<path d="M629.774 278.023H507.589V283.539H629.774V278.023Z" fill="#DBDBDB"/>
<path d="M629.774 288.315H507.589V293.831H629.774V288.315Z" fill="#DBDBDB"/>
<path d="M579.633 298.607H507.589V304.123H579.633V298.607Z" fill="#DBDBDB"/>
<path d="M629.774 319.175H507.589V324.691H629.774V319.175Z" fill="#DBDBDB"/>
<path d="M629.774 329.467H507.589V334.982H629.774V329.467Z" fill="#DBDBDB"/>
<path d="M629.774 339.759H507.589V345.274H629.774V339.759Z" fill="#DBDBDB"/>
<path d="M629.774 350.051H507.589V355.567H629.774V350.051Z" fill="#DBDBDB"/>
<path d="M579.633 360.343H507.589V365.859H579.633V360.343Z" fill="#DBDBDB"/>
<path d="M629.774 380.927H507.589V386.442H629.774V380.927Z" fill="#DBDBDB"/>
<path d="M629.774 391.203H507.589V396.718H629.774V391.203Z" fill="#DBDBDB"/>
<path d="M629.774 401.495H507.589V407.011H629.774V401.495Z" fill="#DBDBDB"/>
<path d="M629.774 411.787H507.589V417.302H629.774V411.787Z" fill="#DBDBDB"/>
<path d="M579.633 422.079H507.589V427.594H579.633V422.079Z" fill="#DBDBDB"/>
<path d="M595.103 253.627H507.685V259.143H595.103V253.627Z" fill="#A6A6A6"/>
<path d="M254.566 443.37H132.381V448.886H254.566V443.37Z" fill="#A6A6A6"/>
<path d="M254.47 469.454H132.284V474.97H254.47V469.454Z" fill="#DBDBDB"/>
<path d="M254.47 479.746H132.284V485.262H254.47V479.746Z" fill="#DBDBDB"/>
<path d="M254.47 490.022H132.284V495.538H254.47V490.022Z" fill="#DBDBDB"/>
<path d="M254.47 500.314H132.284V505.83H254.47V500.314Z" fill="#DBDBDB"/>
<path d="M219.799 455.351H132.381V460.866H219.799V455.351Z" fill="#A6A6A6"/>
<path d="M484.094 443.37H278.607V448.886H484.094V443.37Z" fill="#A6A6A6"/>
<path d="M483.933 469.454H278.447V474.97H483.933V469.454Z" fill="#DBDBDB"/>
<path d="M483.933 479.746H278.447V485.262H483.933V479.746Z" fill="#DBDBDB"/>
<path d="M483.933 490.022H278.447V495.538H483.933V490.022Z" fill="#DBDBDB"/>
<path d="M483.933 500.314H278.447V505.83H483.933V500.314Z" fill="#DBDBDB"/>
<path d="M425.606 455.351H278.607V460.866H425.606V455.351Z" fill="#A6A6A6"/>
<path d="M629.87 443.37H507.685V448.886H629.87V443.37Z" fill="#A6A6A6"/>
<path d="M629.774 469.454H507.589V474.97H629.774V469.454Z" fill="#DBDBDB"/>
<path d="M629.774 479.746H507.589V485.262H629.774V479.746Z" fill="#DBDBDB"/>
<path d="M629.774 490.022H507.589V495.538H629.774V490.022Z" fill="#DBDBDB"/>
<path d="M579.633 500.314H507.589V505.83H579.633V500.314Z" fill="#DBDBDB"/>
<path d="M595.103 455.351H507.685V460.866H595.103V455.351Z" fill="#A6A6A6"/>
<path d="M535.409 74.9648L538.449 181.712L654.298 181.133L535.409 74.9648Z" fill="#DBDBDB"/>
<path d="M629.855 502.211C629.855 502.211 604.269 496.406 590.182 483.493C576.095 470.579 568.328 447.422 568.328 447.422C578.049 449.282 587.634 451.796 597.017 454.948C600.525 458.573 603.454 462.717 605.7 467.234C605.912 464.311 605.912 461.377 605.7 458.454C608.974 459.872 612.036 461.734 614.802 463.986C626.558 474.165 629.855 502.211 629.855 502.211Z" fill="#FF9446"/>
<path d="M584.361 458.663C580.871 456.251 577.317 453.935 573.86 451.491C573.815 451.463 573.783 451.419 573.771 451.368C573.759 451.316 573.768 451.262 573.795 451.218C573.823 451.173 573.867 451.141 573.919 451.129C573.97 451.117 574.024 451.126 574.069 451.153C580.662 455.093 587.159 459.29 593.366 463.713C595.553 465.321 597.708 466.929 599.799 468.537L599.348 467.781C598.593 466.495 597.74 465.24 596.968 463.97C595.358 461.408 593.54 458.982 591.533 456.717C591.533 456.637 591.533 456.524 591.662 456.605C593.656 458.904 595.65 461.172 597.467 463.616C598.335 464.774 599.075 465.964 599.895 467.202C600.297 467.83 600.683 468.473 601.037 469.132C601.166 469.341 601.31 469.566 601.423 469.791C604.736 472.381 607.952 475.098 611.072 477.961C612.948 479.73 614.776 481.558 616.555 483.444C615.574 480.357 614.706 477.221 613.564 474.182C613.564 474.069 613.693 474.021 613.725 474.182C614.835 477.398 616.057 480.614 616.941 483.83C618.903 485.975 620.769 488.172 622.538 490.424L622.441 490.006C622.152 488.799 621.846 487.593 621.524 486.403C620.913 484.088 620.222 481.788 619.45 479.521C618.021 474.799 615.731 470.383 612.696 466.495C612.696 466.398 612.696 466.286 612.825 466.366C617.617 472.344 620.973 479.342 622.634 486.822C622.902 487.894 623.159 488.966 623.406 490.038C623.535 490.617 623.695 491.212 623.792 491.807C624.564 492.852 625.32 493.913 626.043 495.023C630.395 501.72 634.008 508.87 636.818 516.347C640.012 524.714 642.744 533.25 645.003 541.916C645.003 542.077 644.81 542.141 644.746 541.916C639.745 526.944 634.631 511.763 626.076 498.384C624.258 495.554 622.296 492.836 620.222 490.199C615.987 489.93 611.806 489.097 607.791 487.722C603.396 486.247 599.204 484.226 595.312 481.708C593.061 480.244 591.018 478.491 588.88 476.883C588.865 476.878 588.852 476.87 588.842 476.859C588.831 476.847 588.824 476.834 588.819 476.819C588.815 476.805 588.814 476.789 588.817 476.774C588.82 476.759 588.827 476.745 588.836 476.733C588.845 476.721 588.857 476.712 588.871 476.705C588.885 476.699 588.9 476.695 588.915 476.696C588.931 476.697 588.946 476.701 588.959 476.708C588.972 476.715 588.984 476.726 588.992 476.739C592.558 479.626 596.503 482.012 600.715 483.83C604.836 485.734 609.149 487.19 613.58 488.172C615.478 488.574 617.392 488.88 619.305 489.137C616.937 486.227 614.419 483.441 611.763 480.791C610.895 479.923 610.01 479.102 609.126 478.266C606.14 476.176 602.969 474.362 599.654 472.847C595.473 470.821 591.34 468.682 587.191 466.559C584.859 465.369 582.527 464.163 580.164 463.005C580.067 463.005 580.164 462.812 580.26 462.86C584.473 464.887 588.735 466.784 592.98 468.73C596.968 470.563 601.021 472.397 604.848 474.552L605.331 474.841C601.868 471.818 598.292 468.928 594.604 466.173C591.292 463.6 587.85 461.091 584.361 458.663Z" fill="#263238"/>
<path d="M585.824 471.866C587.898 472.767 590.021 473.587 592.079 474.536C594.138 475.484 596.196 476.69 598.206 477.88C598.303 477.88 598.206 478.057 598.126 478.009C596.083 477.044 594.025 476.128 591.999 475.114C589.973 474.101 587.882 472.96 585.759 472.027C585.663 471.979 585.711 471.818 585.824 471.866Z" fill="#263238"/>
<path d="M712.962 373.224C708.232 379.325 705.553 386.767 705.307 394.483C705.307 396.767 705.581 399.967 705.854 403.73C699.471 407.432 693.814 412.266 689.162 417.994C694.258 415.062 700.097 413.676 705.967 414.006C705.831 416.573 705.503 419.126 704.986 421.644C701.263 421.658 697.577 422.389 694.131 423.799C697.495 423.76 700.83 424.423 703.924 425.745C699.357 440.218 685.801 455.158 648.38 461.494C644.409 443.696 646.752 425.072 655.005 408.811C666.278 386.748 712.962 373.224 712.962 373.224Z" fill="#FF9446"/>
<path d="M635.483 523.567C636.126 517.371 636.935 511.19 637.911 505.026C639.804 492.695 642.321 480.468 645.453 468.392C646.924 462.721 648.728 457.142 650.856 451.684C650.749 450.691 650.706 449.692 650.728 448.693C650.728 447.503 650.728 446.297 650.728 445.091C650.728 442.695 650.872 440.266 651.082 437.918C651.462 433.184 652.231 428.488 653.381 423.88C654.057 421.21 654.861 418.589 655.633 415.951C655.64 415.934 655.652 415.92 655.668 415.909C655.684 415.899 655.702 415.894 655.721 415.894C655.74 415.894 655.758 415.899 655.774 415.909C655.79 415.92 655.802 415.934 655.809 415.951C654.567 420.551 653.643 425.231 653.043 429.958C652.369 434.617 651.95 439.309 651.789 444.013C651.789 445.3 651.709 446.586 651.709 447.873C651.709 448.42 651.709 448.966 651.709 449.481C653.552 445.008 655.657 440.648 658.013 436.423C661.831 429.73 666.131 423.324 670.878 417.254C670.882 416.546 670.985 415.843 671.183 415.163C671.36 414.327 671.537 413.555 671.73 412.655C672.116 410.95 672.534 409.246 673 407.557C673.933 404.164 675.171 400.883 676.217 397.538C676.217 397.517 676.225 397.497 676.24 397.482C676.255 397.467 676.276 397.458 676.297 397.458C676.318 397.458 676.339 397.467 676.354 397.482C676.369 397.497 676.377 397.517 676.377 397.538C675.38 400.851 674.769 404.293 673.965 407.654L672.856 412.671L672.325 415.18C672.325 415.18 672.325 415.308 672.325 415.373C673.836 413.454 675.38 411.572 676.956 409.728C684.112 401.35 691.944 393.647 699.84 385.928C700.805 384.995 701.802 384.062 702.783 383.146L702.895 383.258C695.369 391.122 687.94 399.082 680.912 407.38C679.24 409.353 677.594 411.352 675.975 413.378L678.532 411.69C680.719 410.275 682.922 408.876 685.19 407.605C687.457 406.335 689.757 405.097 692.089 403.939C694.42 402.781 697.042 401.784 699.357 400.433C699.47 400.433 699.55 400.546 699.454 400.578C697.086 401.675 694.802 402.943 692.619 404.373C690.336 405.724 688.068 407.075 685.833 408.506C683.598 409.937 681.411 411.272 679.24 412.687C677.407 413.877 675.622 415.164 673.724 416.257C669.39 421.832 665.39 427.658 661.743 433.705C659.476 437.515 657.404 441.439 655.536 445.461L656.887 444.882L660.312 443.37C662.515 442.389 664.718 441.44 666.938 440.475C671.135 438.642 675.396 436.97 679.513 434.96C681.838 433.875 684.084 432.628 686.235 431.229C686.332 431.229 686.412 431.325 686.316 431.39C678.645 436.68 670.041 440.411 661.534 444.158L657.852 445.766C656.839 446.216 655.825 446.715 654.796 447.101C652.278 452.728 650.161 458.527 648.46 464.453C645.112 476.373 642.396 488.461 640.323 500.668C638.168 512.889 636.721 525.191 635.595 537.558C635.451 539.166 635.322 540.645 635.145 542.173C635.124 542.288 635.064 542.392 634.974 542.467C634.884 542.542 634.771 542.583 634.655 542.583C634.538 542.583 634.425 542.542 634.335 542.467C634.245 542.392 634.185 542.288 634.164 542.173C634.18 536.094 634.823 529.807 635.483 523.567Z" fill="#263238"/>
<path d="M658.254 420.197C658.945 416.386 659.958 412.671 660.988 408.94C660.988 408.828 661.181 408.94 661.148 408.94C660.2 412.607 659.54 416.321 658.833 420.036C658.125 423.751 657.514 427.627 656.983 431.438C656.983 431.438 656.871 431.438 656.887 431.438C657.126 427.668 657.582 423.915 658.254 420.197Z" fill="#263238"/>
<path d="M674.383 430.521C676.985 428.804 679.704 427.273 682.52 425.938C683.887 425.23 685.27 424.555 686.653 423.896C688.036 423.236 689.564 422.625 690.979 421.918C691.076 421.918 691.156 422.014 691.06 422.062C689.693 422.754 688.39 423.59 687.039 424.314C685.688 425.037 684.289 425.922 682.89 426.581C680.199 428.152 677.429 429.585 674.592 430.875C674.547 430.892 674.496 430.892 674.45 430.875C674.405 430.859 674.366 430.827 674.341 430.785C674.316 430.743 674.307 430.694 674.315 430.645C674.322 430.597 674.347 430.553 674.383 430.521Z" fill="#263238"/>
<path opacity="0.1" d="M629.388 457.891C629.388 457.891 605.717 452.231 594.846 436.359C584.457 421.194 581.112 395.335 580.839 393.068C581.273 395.142 586.146 417.737 602.275 428.27C614.609 436.326 626.526 442.952 629.388 457.891Z" fill="#263238"/>
<path d="M607.534 416.981C611.74 420.855 614.766 425.839 616.266 431.357C616.266 431.357 616.266 431.438 616.186 431.357C614.45 425.964 611.444 421.067 607.421 417.077C607.341 417.045 607.453 416.916 607.534 416.981Z" fill="#263238"/>
<path d="M629.388 457.891C629.388 457.891 605.717 452.231 594.846 436.359C584.457 421.194 581.112 395.335 580.839 393.068C580.843 393.014 580.843 392.961 580.839 392.907C580.839 392.907 592.192 408.988 604.125 413.153C616.057 417.318 632.797 431.502 629.388 457.891Z" fill="#FF9446"/>
<path d="M585.004 401.8C587.128 406.147 589.574 410.329 592.321 414.311C595.08 418.094 598.361 421.467 602.066 424.33C605.282 426.887 608.676 429.154 611.94 431.711V431.599C611.329 430.682 610.67 429.798 610.01 428.945C608.643 427.208 607.164 425.568 605.668 423.96C602.726 420.744 599.734 417.64 597.097 414.183C595.63 412.278 594.359 410.231 593.302 408.072C593.302 407.959 593.414 407.911 593.463 408.072C597.306 416.112 604.977 421.194 610.445 427.948C611.216 428.913 611.956 429.91 612.632 430.939C613.177 431.689 613.635 432.498 613.998 433.352C616.985 435.756 619.683 438.497 622.039 441.521C621.838 439.966 621.521 438.429 621.09 436.922C620.534 434.816 619.69 432.798 618.582 430.923C618.569 430.904 618.564 430.881 618.569 430.858C618.573 430.835 618.587 430.815 618.606 430.803C618.625 430.79 618.648 430.785 618.671 430.79C618.694 430.794 618.714 430.808 618.726 430.827C619.871 432.699 620.799 434.695 621.492 436.777C621.981 438.441 622.268 440.158 622.345 441.891C623.519 443.484 624.593 445.149 625.561 446.876C625.464 446.361 625.368 445.863 625.255 445.348C624.789 443 624.274 440.636 623.647 438.321C622.532 433.577 620.606 429.062 617.954 424.973C617.954 424.973 618.035 424.796 618.099 424.877C620.808 428.909 622.931 433.305 624.403 437.935C625.159 440.25 625.77 442.614 626.301 444.994C626.558 446.168 626.783 447.326 627.008 448.5C627.121 449.111 627.266 449.722 627.362 450.349C629.711 455.515 631.537 460.902 632.814 466.431C635.139 476.293 636.826 486.295 637.863 496.374C639.074 506.921 639.611 517.535 639.471 528.15C639.471 529.485 639.359 530.804 639.294 532.139C639.294 532.476 638.764 532.525 638.748 532.139C638.506 526.88 638.378 521.621 638.072 516.379C637.767 511.136 637.3 505.894 636.737 500.652C635.654 490.384 634.006 480.184 631.8 470.097C629.887 461.445 627.394 452.729 622.666 445.139C620.31 441.373 617.435 437.957 614.127 434.992C610.798 432.017 607.18 429.396 603.674 426.646C600.109 423.956 596.871 420.858 594.026 417.415C591.132 413.597 588.611 409.51 586.5 405.209L584.795 401.993C584.811 401.8 584.956 401.704 585.004 401.8Z" fill="#263238"/>
<path d="M589.088 405.274C590.641 408.458 592.403 411.536 594.363 414.488C594.363 414.488 594.363 414.633 594.25 414.488C592.223 411.564 590.443 408.477 588.927 405.257C588.879 405.225 589.04 405.177 589.088 405.274Z" fill="#263238"/>
<path d="M716.259 447.422C716.259 447.422 716.629 481.064 696.511 490.842C676.394 500.619 665.619 492.45 651.95 495.666C652.481 494.862 662.242 480.839 677.761 476.98C693.729 472.927 711.419 461.445 716.259 447.422Z" fill="#FF9446"/>
<path opacity="0.1" d="M716.259 447.422C716.259 447.422 716.629 481.064 696.511 490.842C676.394 500.619 665.619 492.45 651.95 495.666C659.177 492.228 666.899 489.949 674.834 488.912C687.522 487.4 711.756 479.086 716.259 447.422Z" fill="black"/>
<path d="M650.631 496.245C653.04 494.066 655.748 492.241 658.672 490.826C659.106 490.617 659.54 490.456 659.991 490.263C660.441 490.07 660.425 489.748 660.666 489.491C661.261 488.863 661.889 488.268 662.547 487.706C663.811 486.615 665.167 485.636 666.6 484.779C669.929 482.817 673.579 481.45 676.988 479.633C677.085 479.633 677.181 479.73 677.085 479.778C675.396 480.662 673.756 481.627 672.116 482.576C670.476 483.525 668.9 484.393 667.291 485.39C665.891 486.29 664.559 487.289 663.303 488.381C662.949 488.687 662.612 489.025 662.274 489.362C664.496 488.619 666.762 488.018 669.06 487.561C672.743 486.822 676.474 486.291 680.156 485.503C681.954 485.117 683.731 484.639 685.479 484.072C687.087 482.721 688.824 481.386 690.4 479.939C692.315 478.183 694.059 476.25 695.61 474.166C695.623 474.146 695.643 474.133 695.666 474.129C695.688 474.124 695.712 474.129 695.731 474.142C695.75 474.154 695.764 474.174 695.768 474.197C695.773 474.219 695.768 474.243 695.755 474.262C693.312 477.56 690.548 480.609 687.506 483.364C688.374 483.026 689.226 482.673 690.079 482.287C696.982 479.207 702.914 474.303 707.237 468.103C707.237 468.023 707.446 468.103 707.382 468.199C703.724 473.542 699.006 478.075 693.52 481.515C690.768 483.231 687.827 484.623 684.756 485.664C681.19 486.769 677.552 487.629 673.869 488.237C670.258 488.824 666.695 489.674 663.207 490.778C659.996 491.858 656.978 493.443 654.266 495.473C649.144 499.453 645.015 504.567 642.205 510.413C638.609 518.176 636.368 526.498 635.579 535.017C635.579 535.371 634.968 535.371 635 535.017C635.949 520.785 639.728 506.071 650.631 496.245Z" fill="#263238"/>
<path d="M673.965 485.278C675.017 483.71 676.435 482.424 678.098 481.531C680.007 480.537 681.684 479.151 683.019 477.462C683.019 477.366 683.244 477.462 683.164 477.559C681.959 479.099 680.489 480.412 678.822 481.434C676.996 482.409 675.388 483.744 674.094 485.358C674.094 485.358 673.917 485.358 673.965 485.278Z" fill="#263238"/>
<path d="M663.287 521.075L662.387 539.584L659.573 596.094H617.375L614.577 539.584L613.661 521.075H663.287Z" fill="#37474F"/>
<path d="M663.287 521.075L662.387 539.584H614.577L613.661 521.075H663.287Z" fill="#263238"/>
<path d="M666.262 513.356H610.702V530.997H666.262V513.356Z" fill="#37474F"/>
<path d="M211.694 692.388C288.598 692.388 350.941 683.554 350.941 672.657C350.941 661.759 288.598 652.925 211.694 652.925C134.79 652.925 72.4463 661.759 72.4463 672.657C72.4463 683.554 134.79 692.388 211.694 692.388Z" fill="#EBEBEB"/>
<path d="M298.806 673.605C295.075 674.811 188.955 673.428 184.951 670.807C183.343 669.842 182.715 654.372 182.394 635.653V635.058C182.394 631.199 182.281 627.227 182.265 623.207C182.265 622.644 182.265 622.097 182.265 621.598L187.411 566.552L258.41 567.26L251.398 621.807V623.962L250.964 635.219V636.377C250.964 636.377 291.344 655.08 295.445 658.424C299.546 661.769 302.521 672.431 298.806 673.605Z" fill="#D3766A"/>
<path d="M298.806 673.605C295.075 674.811 188.955 673.428 184.951 670.807C183.343 669.842 182.715 654.372 182.394 635.654V635.059C182.394 631.199 182.281 627.227 182.265 623.207C182.265 622.644 182.265 622.097 182.265 621.599L251.415 621.808V623.963L250.98 635.219V636.377C250.98 636.377 291.36 655.08 295.461 658.425C299.562 661.77 302.521 672.431 298.806 673.605Z" fill="#EBEBEB"/>
<path d="M299.497 673.943C295.734 675.149 188.166 673.718 184.098 671.081C182.49 670.084 181.83 654.404 181.525 635.428L250.883 636.152C250.883 636.152 291.81 655.128 295.911 658.505C300.012 661.882 303.276 672.673 299.497 673.943Z" fill="#455A64"/>
<path opacity="0.1" d="M234.223 673.75C209.104 673.171 185.979 672.222 184.098 671.016C182.49 670.019 181.83 654.34 181.525 635.364L197.188 635.525L234.223 673.75Z" fill="black"/>
<path d="M298.018 669.553C279.991 668.877 207.223 667.832 189.357 668.524C189.212 668.524 189.212 668.62 189.357 668.636C207.207 669.697 279.974 670.164 298.018 669.858C298.387 669.842 298.404 669.569 298.018 669.553Z" fill="#263238"/>
<path d="M257.847 637.985C250.626 637.776 242.232 640.221 237.665 646.026C237.488 646.251 237.81 646.508 238.035 646.396C244.387 643.172 251.067 640.638 257.959 638.838C258.047 638.797 258.118 638.73 258.165 638.646C258.211 638.562 258.229 638.465 258.217 638.37C258.204 638.275 258.161 638.186 258.095 638.117C258.028 638.048 257.941 638.002 257.847 637.985Z" fill="#263238"/>
<path d="M263.395 640.172C256.174 639.979 247.78 642.424 243.213 648.213C243.036 648.438 243.358 648.679 243.567 648.583C249.923 645.354 256.608 642.82 263.507 641.025C263.587 640.978 263.65 640.91 263.691 640.827C263.731 640.745 263.746 640.652 263.734 640.561C263.722 640.47 263.683 640.385 263.623 640.316C263.563 640.246 263.483 640.197 263.395 640.172Z" fill="#263238"/>
<path d="M268.927 642.472C261.722 642.279 253.312 644.707 248.745 650.513C248.568 650.738 248.906 650.979 249.115 650.866C255.475 647.68 262.153 645.173 269.039 643.389C269.161 643.374 269.272 643.311 269.347 643.215C269.422 643.118 269.456 642.996 269.441 642.874C269.427 642.753 269.364 642.642 269.267 642.567C269.171 642.491 269.048 642.457 268.927 642.472Z" fill="#263238"/>
<path d="M194.165 651.429C186.124 651.333 185.931 663.924 194.036 664.005C202.141 664.085 202.286 651.542 194.165 651.429Z" fill="#263238"/>
<path d="M255.531 635.428H179.097C179.097 635.428 194.486 456.926 193.891 453.791C193.12 449.803 188.617 431.727 182.635 408.136C180.753 400.739 178.727 392.827 176.62 384.609C170.911 362.401 164.64 338.134 159.156 317.068C150.955 285.436 144.538 260.783 144.538 260.783H209.313C209.313 260.783 216.855 284.712 226.376 315.862C241.878 366.453 262.591 436.101 264.633 453.035C267.913 480.373 255.531 635.428 255.531 635.428Z" fill="#263238"/>
<path d="M252.138 622.387C240.463 622.145 243.824 622.049 232.149 621.936C226.44 621.936 188.89 621.55 183.551 622.435C183.439 622.435 183.439 622.644 183.551 622.676C188.89 623.561 226.44 623.223 232.149 623.175C243.824 623.062 240.463 622.966 252.138 622.724C252.183 622.724 252.225 622.707 252.257 622.675C252.289 622.643 252.307 622.6 252.307 622.556C252.307 622.511 252.289 622.468 252.257 622.436C252.225 622.404 252.183 622.387 252.138 622.387Z" fill="#37474F"/>
<path d="M208.268 442.887C205.76 431.84 202.013 421.017 198.764 410.162C192.139 388.131 185.47 366.11 178.759 344.1C175.414 333.09 172.059 322.085 168.692 311.086C166.972 305.537 165.267 299.973 163.53 294.441C161.794 288.909 159.896 283.635 158.352 278.167C157.741 275.932 157.387 277.154 158.191 279.984C159.799 285.693 161.408 291.386 163.016 297.079C166.296 308.336 169.609 319.592 172.954 330.849C179.579 353.234 186.258 375.609 192.991 397.973L203.122 431.598C204.828 436.933 206.203 442.368 207.239 447.873C208.147 453.626 208.374 459.466 207.915 465.273C207.191 476.98 205.84 488.655 204.698 500.314C203.557 511.972 202.527 523.696 201.482 535.387C199.338 558.662 197.194 581.931 195.05 605.196C194.776 608.138 194.519 611.081 194.294 614.04C194.294 615.021 195.709 614.957 195.805 614.04C198.33 591.028 200.26 567.951 202.415 544.891C204.57 521.83 206.725 499.043 208.847 476.111C209.378 470.354 209.989 464.581 210.005 458.792C210.024 453.442 209.441 448.107 208.268 442.887Z" fill="#37474F"/>
<path d="M201.916 260.783C197.429 295.583 188.858 360.809 182.618 408.136C168.017 350.79 144.522 260.783 144.522 260.783H201.916Z" fill="#37474F"/>
<path d="M217.837 674.634C214.122 675.84 107.986 674.859 103.981 672.254C102.373 671.289 101.682 655.819 101.296 637.101V636.506C101.199 632.646 101.135 628.674 101.119 624.654C101.119 624.091 101.119 623.544 101.119 623.046C100.878 596.013 102.823 567.983 102.823 567.983L172.198 568.434L170.252 622.981V625.136L169.866 636.393V637.567C169.866 637.567 210.182 656.093 214.299 659.47C218.415 662.847 221.551 673.428 217.837 674.634Z" fill="#D3766A"/>
<path d="M217.836 674.634C214.122 675.84 107.985 674.859 103.981 672.254C102.373 671.289 101.681 655.819 101.296 637.101V636.506C101.199 632.646 101.135 628.674 101.119 624.654C101.119 624.091 101.119 623.544 101.119 623.046H170.268V625.201L169.882 636.457V637.631C169.882 637.631 210.182 656.093 214.299 659.47C218.415 662.847 221.551 673.428 217.836 674.634Z" fill="#EBEBEB"/>
<path d="M219.075 675.004C215.295 676.21 107.728 674.779 103.659 672.142C102.051 671.145 101.408 655.466 101.086 636.49L170.445 637.213C170.445 637.213 211.388 656.173 215.472 659.566C219.557 662.959 222.854 673.798 219.075 675.004Z" fill="#455A64"/>
<path d="M217.595 670.727C199.568 670.051 126.784 668.99 108.918 669.697C108.773 669.697 108.773 669.794 108.918 669.81C126.768 670.871 199.552 671.418 217.579 671.016C217.965 670.968 217.965 670.727 217.595 670.727Z" fill="#263238"/>
<path d="M177.425 639.095C170.204 638.902 161.794 641.346 157.243 647.135C157.066 647.361 157.387 647.602 157.596 647.505C163.952 644.277 170.638 641.743 177.537 639.947C177.616 639.901 177.68 639.832 177.72 639.75C177.761 639.667 177.776 639.575 177.764 639.484C177.752 639.393 177.713 639.307 177.653 639.238C177.593 639.169 177.513 639.119 177.425 639.095Z" fill="#263238"/>
<path d="M182.957 641.346C175.752 641.153 167.342 643.582 162.775 649.387C162.598 649.612 162.935 649.853 163.145 649.741C169.5 646.524 176.179 643.99 183.069 642.183C183.15 642.139 183.216 642.072 183.258 641.991C183.3 641.909 183.315 641.816 183.303 641.725C183.291 641.634 183.251 641.549 183.189 641.482C183.127 641.414 183.046 641.367 182.957 641.346Z" fill="#263238"/>
<path d="M188.505 643.598C181.284 643.388 172.89 645.833 168.323 651.638C168.146 651.863 168.467 652.121 168.692 652.008C175.045 648.784 181.725 646.25 188.617 644.45C188.704 644.409 188.776 644.342 188.822 644.258C188.869 644.174 188.887 644.077 188.874 643.982C188.862 643.887 188.819 643.798 188.753 643.729C188.686 643.66 188.599 643.614 188.505 643.598Z" fill="#263238"/>
<path d="M207.191 260.783C207.191 260.783 205.695 291.788 198.603 316.328C198.024 318.354 197.413 320.348 196.738 322.262C190.24 324.906 183.996 328.135 178.083 331.911C178.083 331.911 177.328 356.853 176.588 384.657C175.752 415.742 174.98 450.414 175.076 457.779C175.72 485.294 171.635 636.586 171.635 636.586L95.2168 636.892C95.2168 636.892 109.031 467.894 108.934 457.811C108.789 441.601 112.633 369.991 115.608 317.775C117.393 285.597 119.001 260.783 119.001 260.783H207.191Z" fill="#263238"/>
<path d="M169.014 622.949C157.339 622.756 160.7 622.644 149.025 622.579C143.3 622.579 105.766 622.386 100.427 623.287C100.315 623.287 100.315 623.512 100.427 623.528C105.766 624.397 143.316 623.898 149.025 623.818C160.7 623.657 157.339 623.576 169.014 623.287C169.05 623.276 169.081 623.253 169.104 623.223C169.126 623.193 169.138 623.156 169.138 623.118C169.138 623.08 169.126 623.044 169.104 623.013C169.081 622.983 169.05 622.961 169.014 622.949Z" fill="#37474F"/>
<path d="M125.337 271.912C123.938 314.543 122.442 357.142 120.513 399.79C118.583 442.437 116.01 485.294 112.472 527.957C110.462 551.774 108.58 585.303 106.04 609.071C106.04 609.232 106.265 609.296 106.297 609.071C111.861 566.777 114.965 514.481 117.698 471.93C120.432 429.379 122.282 386.7 123.729 344.149C124.549 320.027 125.176 295.905 125.9 271.783C125.884 271.493 125.434 271.526 125.337 271.912Z" fill="#37474F"/>
<path d="M199.922 320.429C192.322 323.592 185.014 327.418 178.084 331.863C178.038 331.899 178.006 331.951 177.993 332.008C177.98 332.066 177.988 332.126 178.014 332.179C178.04 332.232 178.084 332.274 178.138 332.298C178.191 332.323 178.252 332.328 178.309 332.313C185.674 328.727 193.2 325.285 200.372 321.297C200.488 321.238 200.574 321.135 200.614 321.011C200.653 320.887 200.641 320.753 200.582 320.638C200.522 320.523 200.419 320.436 200.295 320.397C200.172 320.358 200.037 320.369 199.922 320.429Z" fill="#37474F"/>
<path d="M200.356 294.136C199.842 296.838 199.182 299.539 198.603 302.176C198.024 304.814 197.639 307.306 196.995 309.799C196.448 312.238 195.215 314.47 193.441 316.231C192.444 317.148 191.351 317.968 190.225 318.805C189.662 319.271 189.035 319.705 188.44 320.171C188.44 319.802 188.585 319.448 188.649 319.078L189.18 315.99C189.566 313.691 189.936 311.407 190.273 309.108C190.965 304.605 191.608 300.054 192.541 295.583C192.541 295.406 192.316 295.342 192.267 295.583C191.142 300.006 189.903 304.38 188.922 308.834C188.44 311.021 186.735 321.828 186.655 322.584C186.575 323.339 186.51 324.192 186.478 324.964C186.382 325.765 186.382 326.575 186.478 327.376C186.49 327.416 186.514 327.451 186.548 327.475C186.581 327.5 186.622 327.514 186.663 327.514C186.705 327.514 186.745 327.5 186.778 327.475C186.812 327.451 186.836 327.416 186.848 327.376C187.168 326.622 187.4 325.835 187.54 325.028C187.732 324.256 187.909 323.42 188.038 322.696C188.038 322.407 188.135 322.117 188.167 321.828C189.228 321.185 190.225 320.332 191.222 319.609C192.219 318.885 193.377 318.081 194.438 317.229C196.313 315.646 197.664 313.532 198.314 311.166C198.975 308.626 199.406 306.032 199.6 303.415C199.938 300.343 200.179 297.256 200.614 294.2C200.662 294.023 200.388 293.943 200.356 294.136Z" fill="#37474F"/>
<path d="M176.218 177.032C193.795 214.614 222.404 260.317 238.019 261.153C240.72 261.282 251.607 260.012 256.046 249.896C263.556 232.818 270.664 198.726 271.709 182.5C272.175 175.312 223.867 167.93 222.388 175.489C220.297 186.086 219.171 197.472 218.03 197.343C216.116 197.118 208.172 185.186 189.502 165.357C166.296 140.657 169.689 163.009 176.218 177.032Z" fill="#F7A9A0"/>
<path d="M278.784 163.074C277.546 173.189 266.884 192.888 262.478 196.635C258.072 200.382 224.012 183.465 222.854 177.579C221.696 171.693 228.563 138.019 236.008 130.75C243.454 123.482 280.087 152.589 278.784 163.074Z" fill="#F7A9A0"/>
<path d="M223.015 171.629C220.915 163.663 217.664 156.046 213.366 149.019C207.946 140.833 198.893 129.287 203.251 126.199C212.063 119.88 234.448 148.713 234.448 148.713C234.448 148.713 242.296 163.009 234.111 170.053C232.585 171.312 230.742 172.125 228.784 172.403C226.827 172.681 224.83 172.413 223.015 171.629Z" fill="#F7A9A0"/>
<path d="M244.21 164.618L255.933 159.262L240.447 125.331L225.604 132.101L244.21 164.618Z" fill="#FF9446"/>
<path d="M225.604 132.085L232.696 144.5L244.21 164.618L255.933 159.279L240.447 125.331L225.604 132.085Z" fill="#FF9446"/>
<path opacity="0.1" d="M225.604 132.085L232.696 144.5L246.349 138.276L240.447 125.331L225.604 132.085Z" fill="black"/>
<path d="M226.519 137.709L244.968 129.293L238.575 115.277L220.125 123.693L226.519 137.709Z" fill="#FF9446"/>
<path d="M205.422 124.237L220.41 119.124L210.069 96.4329L196.384 104.409L205.422 124.237Z" fill="#FF9446"/>
<path d="M215.393 88.5854L230.67 122.067L256.03 113.962L321.336 109.025L284.671 28.6345L238.131 74.7234L215.393 88.5854Z" fill="#FF9446"/>
<path d="M291.328 74.1123C301.491 96.4331 315.562 111.855 322.735 108.591C329.907 105.326 327.463 84.5812 317.283 62.2765C307.104 39.9718 293.049 24.5177 285.876 27.7983C278.704 31.0789 281.149 51.8558 291.328 74.1123Z" fill="#FF9446"/>
<path opacity="0.2" d="M321.027 103.123C326.901 100.443 324.34 82.2158 315.306 62.4106C306.272 42.6054 294.186 28.7223 288.312 31.402C282.437 34.0816 284.998 52.3092 294.033 72.1145C303.067 91.9197 315.152 105.803 321.027 103.123Z" fill="black"/>
<path d="M295.767 71.2981C296.973 73.9354 298.227 76.4762 299.514 78.8723C301.128 79.2893 302.827 79.2409 304.414 78.7326C306.002 78.2243 307.413 77.2769 308.485 76C309.556 74.7231 310.245 73.1689 310.47 71.5172C310.695 69.8656 310.448 68.1839 309.757 66.6667L308.021 62.8554C307.331 61.3477 306.23 60.0652 304.844 59.1552C303.458 58.2452 301.843 57.7446 300.186 57.711C298.528 57.6774 296.894 58.1122 295.473 58.9653C294.051 59.8184 292.899 61.0553 292.148 62.5338C293.194 65.3963 294.416 68.3391 295.767 71.2981Z" fill="#FF9446"/>
<path d="M218.528 129.834L247.523 119.96L227.502 76.0903L201.048 91.4962L218.528 129.834Z" fill="#FF9446"/>
<path opacity="0.2" d="M218.528 129.834L247.523 119.96L227.502 76.0903L201.048 91.4962L218.528 129.834Z" fill="black"/>
<path opacity="0.2" d="M283.416 35.855C282.61 39.0975 282.403 42.4601 282.805 45.7771C283.119 49.099 283.7 52.3902 284.542 55.6188C284.912 57.227 285.426 58.8351 285.893 60.4432C286.359 62.0513 286.954 63.6595 287.501 65.155C288.047 66.6506 288.675 68.2748 289.334 69.8025C289.993 71.3302 290.62 72.874 291.328 74.3857C294.08 80.4807 297.385 86.3105 301.202 91.8017C303.12 94.5251 305.272 97.0757 307.634 99.4242C309.975 101.815 312.791 103.688 315.9 104.924C312.889 103.536 310.192 101.55 307.972 99.0865C305.681 96.7041 303.609 94.1207 301.781 91.3675C298.099 85.8748 294.898 80.0748 292.213 74.0319C289.369 68.0586 287.034 61.856 285.233 55.4902C284.312 52.3333 283.65 49.1063 283.255 45.8414C282.724 42.5288 282.779 39.1488 283.416 35.855Z" fill="black"/>
<path d="M312.25 20.5779C310.851 22.4272 309.564 24.3248 308.278 26.2224C306.991 28.12 305.769 30.0819 304.547 32.0277C303.325 33.9736 302.135 35.9355 301.009 37.9456L299.321 40.9528C298.79 41.9659 298.227 42.963 297.712 44.0083C298.42 43.0916 299.063 42.1428 299.755 41.2101L301.684 38.3637C302.987 36.4662 304.209 34.5203 305.431 32.5745C306.654 30.6287 307.827 28.6507 308.953 26.6566C310.079 24.6625 311.221 22.6524 312.25 20.5779Z" fill="#263238"/>
<path d="M316.704 88.8909C319.309 88.8909 321.898 88.7945 324.487 88.6658C327.077 88.5372 329.65 88.3442 332.239 88.1512C334.828 87.9582 337.401 87.7009 339.974 87.3954L343.833 86.929C345.12 86.736 346.406 86.5752 347.693 86.3501C346.39 86.3501 345.087 86.3501 343.801 86.3501L339.909 86.527C337.32 86.6396 334.731 86.8486 332.158 87.0416C329.585 87.2346 326.996 87.4919 324.423 87.7974C321.85 88.103 319.261 88.4728 316.704 88.8909Z" fill="#263238"/>
<path d="M360.638 68.1782C356.891 68.8376 353.161 69.6255 349.381 70.4135C345.602 71.2015 341.936 72.0216 338.237 72.9061C334.538 73.7906 330.824 74.675 327.141 75.6399L321.609 77.1033C319.776 77.6179 317.927 78.1004 316.109 78.7114C317.991 78.3898 319.856 78.0039 321.722 77.6501L327.318 76.4922C331.049 75.7043 334.764 74.8841 338.462 73.9836C342.161 73.083 345.876 72.2146 349.558 71.2497C353.241 70.2849 357.004 69.2878 360.638 68.1782Z" fill="#263238"/>
<path d="M333.027 15.9785C330.405 18.8249 327.865 21.7356 325.34 24.6624C322.815 27.5892 320.339 30.5481 317.862 33.5071C315.386 36.466 313.038 39.4893 310.561 42.5126L306.991 47.0797C305.817 48.6878 304.627 50.1351 303.501 51.7111C304.82 50.2959 306.091 48.8325 307.377 47.4013L311.188 43.0272C313.729 40.1165 316.19 37.1414 318.666 34.1825C321.143 31.2235 323.571 28.2003 325.951 25.1609C328.331 22.1216 330.743 19.0983 333.027 15.9785Z" fill="#263238"/>
<path d="M310.995 64.8173C315.128 63.1127 319.197 61.3116 323.281 59.4944C327.366 57.6772 331.322 55.7796 335.439 53.9303C339.555 52.0809 343.479 50.1029 347.516 48.141L353.514 45.166C355.492 44.1368 357.486 43.1558 359.464 42.0945C357.39 42.9307 355.347 43.8313 353.289 44.6996L347.178 47.4174C343.093 49.2346 339.137 51.1322 335.004 52.9815C330.872 54.8308 326.964 56.8088 322.944 58.7707C318.923 60.7327 314.935 62.7267 310.995 64.8173Z" fill="#263238"/>
<path d="M226.746 144.227C228.949 149.147 233.5 143.728 233.5 143.728C233.5 143.728 228.836 153.12 233.082 157.317C237.327 161.514 242.441 154.615 242.811 154.101C242.57 154.599 238.517 163.331 243.213 167.126C247.909 170.921 252.219 163.379 252.476 162.881C252.395 163.428 251.447 170.616 255.692 172.674C262.961 176.228 265.888 157.896 271.355 154.293C271.355 154.293 278.511 162.833 278.769 163.042C278.769 163.042 281.985 145.674 276.662 138.582C275.908 137.541 274.822 136.787 273.583 136.445C272.344 136.103 271.025 136.193 269.844 136.701C269.844 136.701 271.452 131.217 267.882 128.113C266.032 126.505 261.835 128.113 261.835 128.113C262.14 126.854 262.093 125.536 261.699 124.302C261.304 123.068 260.578 121.967 259.6 121.118C256.898 119.076 253.167 120.941 253.167 120.941C253.167 120.941 252.267 116.117 248.842 114.975C241.91 112.53 222.082 133.613 226.746 144.227Z" fill="#F7A9A0"/>
<path d="M261.915 127.968C261.915 127.968 261.915 127.759 261.77 127.824C252.394 134.02 245.548 143.371 242.473 154.181C242.376 154.567 242.666 155.001 242.811 154.567C245.239 147.33 254.936 134.224 261.915 127.968Z" fill="#263238"/>
<path d="M252.588 163.749C255.708 153.216 261.899 144.741 269.506 136.942C269.602 136.845 269.506 136.716 269.345 136.781C264.521 139.579 260.259 145.047 257.252 149.646C254.373 153.808 252.642 158.656 252.235 163.701C252.219 163.845 252.476 163.974 252.588 163.749Z" fill="#263238"/>
<path d="M233.371 143.776C233.227 144.146 233.918 143.953 233.79 144.307C233.259 145.915 230.831 155.435 233.79 157.268C236.202 158.732 239.836 156.512 240.897 155.113L243.583 151.576L242.296 155.821C241.708 157.704 241.425 159.67 241.46 161.642C241.439 162.542 241.607 163.437 241.953 164.268C242.3 165.099 242.816 165.848 243.47 166.467C244.089 167.048 244.888 167.398 245.734 167.46C246.58 167.521 247.422 167.29 248.118 166.804C249.656 165.682 250.884 164.188 251.688 162.463L254.052 157.783L253.344 162.961C253.159 164.402 253.159 165.862 253.344 167.303C253.454 168.681 253.969 169.996 254.824 171.082C255.227 171.553 255.754 171.902 256.345 172.089C256.936 172.277 257.568 172.296 258.169 172.143C259.464 171.602 260.58 170.705 261.385 169.554C263.161 167.09 264.736 164.487 266.097 161.771C266.836 160.436 267.576 159.069 268.38 157.751C269.114 156.381 270.135 155.186 271.371 154.245C270.27 155.306 269.381 156.567 268.75 157.96C268.059 159.327 267.431 160.726 266.788 162.125C265.587 164.991 264.117 167.737 262.398 170.326C261.484 171.743 260.176 172.861 258.635 173.543C257.759 173.827 256.819 173.849 255.93 173.606C255.042 173.363 254.244 172.866 253.634 172.176C252.54 170.859 251.862 169.247 251.688 167.544C251.48 165.943 251.48 164.321 251.688 162.72L253.296 163.218C252.38 165.268 250.944 167.042 249.131 168.364C248.108 169.077 246.867 169.408 245.625 169.297C244.433 169.144 243.314 168.64 242.409 167.85C241.572 167.049 240.912 166.082 240.475 165.009C240.037 163.937 239.83 162.784 239.868 161.626C239.841 159.44 240.184 157.266 240.881 155.194L242.264 155.901C240.849 157.638 237.054 160.565 233.018 158.764C228.097 155.757 232.439 145.577 233.371 143.776Z" fill="#263238"/>
<path d="M233.548 143.728C232.682 144.407 231.717 144.949 230.686 145.336C230.272 145.505 229.821 145.563 229.378 145.504C228.935 145.445 228.516 145.27 228.161 144.998C227.473 144.284 227.009 143.384 226.826 142.409C226.569 141.364 226.344 140.238 226.167 139.064C225.752 140.195 225.582 141.401 225.668 142.602C225.674 143.266 225.813 143.923 226.075 144.533C226.337 145.143 226.718 145.695 227.196 146.156C227.773 146.61 228.474 146.879 229.206 146.928C229.896 146.932 230.574 146.749 231.168 146.397C232.229 145.787 233.063 144.851 233.548 143.728Z" fill="#263238"/>
<path d="M279.54 195.51L222.259 173.639C222.259 173.639 218.351 196.41 217.676 196.523C217 196.635 200.26 172.321 182.297 157.349C164.334 142.377 166.73 160.999 172.182 176.646C179.177 196.764 208.317 260.06 221.616 264.482C234.915 268.905 255.386 259.658 258.345 254.045C262.414 246.31 279.54 195.51 279.54 195.51Z" fill="#37474F"/>
<path opacity="0.1" d="M184.018 158.861V204.065H183.567C182.57 201.862 181.589 199.723 180.673 197.632V156.127L182.281 157.381L184.018 158.861Z" fill="black"/>
<path d="M272.111 202.441C270.213 201.427 252.331 194.915 248.407 193.58L236.652 189.592C232.599 188.241 228.611 186.649 224.382 185.603C224.347 185.6 224.311 185.608 224.281 185.626C224.251 185.644 224.227 185.672 224.215 185.705C224.202 185.738 224.2 185.774 224.21 185.808C224.22 185.842 224.241 185.872 224.269 185.893C228.161 187.678 232.31 188.981 236.33 190.46L248.198 194.818C252.17 196.249 270.004 202.312 272.047 202.714C272.223 202.762 272.24 202.505 272.111 202.441Z" fill="#263238"/>
<path opacity="0.1" d="M246.043 262.263C238.501 265.254 228.949 266.975 221.6 264.53C208.301 260.124 179.178 196.828 172.15 176.711C168.725 166.885 166.489 155.805 169.77 152.782L246.043 262.263Z" fill="black"/>
<path d="M217.692 196.812C217.306 199.9 217.097 203.004 216.936 206.107C216.775 209.211 216.727 212.331 216.743 215.434C216.759 218.538 216.856 221.658 217.113 224.761C217.319 227.87 217.711 230.963 218.287 234.024C218.287 232.416 218.174 230.921 218.174 229.377C218.174 227.833 218.174 226.273 218.078 224.729L217.997 215.434L217.901 206.123V201.476C217.772 199.916 217.772 198.372 217.692 196.812Z" fill="#263238"/>
<path d="M214.926 275.128C213.543 276.897 115.222 284.005 114.692 283.426C113.196 281.818 129.615 178.126 150.44 158.796C154.927 154.647 173.195 153.972 175.752 154.728C178.663 155.628 187.652 168.622 192.091 179.412C201.016 200.961 216.148 273.52 214.926 275.128Z" fill="#EBEBEB"/>
<path d="M171.378 179.782L173.951 170.101L180.978 174.459L179.756 182.5L173.999 183.658L171.378 179.782Z" fill="#263238"/>
<path d="M173.999 183.658L175.848 249.173L189.614 269.901L194.245 245.152L179.756 182.5L173.999 183.658Z" fill="#263238"/>
<path d="M225.958 296.532C225.958 296.532 213.093 297.513 195.693 298.735C193.795 292.769 189.517 278.167 189.26 278.199C189.115 278.553 186.14 293.509 185.304 299.491C168.483 300.665 149.443 301.984 134.423 302.9C119.403 303.817 108.195 304.331 107.567 303.945C106.94 303.559 112.874 282.573 113.453 279.518C117.859 255.396 125.128 207.442 132.863 189.029C136.263 180.658 140.362 172.589 145.117 164.907C145.6 164.167 146.05 163.476 146.468 162.865L149.556 158.378L182.956 210.417C182.956 209.339 180.142 158.828 180.142 158.828C189.188 170.068 196.351 182.7 201.353 196.233C210.52 221.626 214.829 259.609 218.608 277.556C218.592 277.556 225.909 296.162 225.958 296.532Z" fill="#37474F"/>
<path d="M182.94 210.417C183.793 216.029 184.468 221.674 185.127 227.302C185.787 232.931 186.35 238.559 186.896 244.236C187.443 249.913 187.91 255.493 188.295 261.202L188.858 269.692C188.987 272.523 189.18 275.353 189.26 278.199C188.81 275.385 188.472 272.571 188.07 269.757L187.057 261.314C186.398 255.67 185.835 250.057 185.304 244.381C184.774 238.704 184.275 233.124 183.905 227.415C183.535 221.706 183.133 216.094 182.94 210.417Z" fill="#263238"/>
<path d="M181.847 230.679C181.914 231.232 181.816 231.793 181.566 232.29C181.316 232.788 180.925 233.201 180.441 233.477C179.958 233.753 179.403 233.881 178.848 233.844C178.292 233.806 177.76 233.606 177.317 233.268C176.875 232.929 176.542 232.468 176.361 231.941C176.179 231.415 176.157 230.846 176.298 230.307C176.438 229.768 176.734 229.283 177.149 228.911C177.564 228.54 178.079 228.299 178.63 228.219C179.004 228.165 179.384 228.186 179.749 228.281C180.114 228.376 180.457 228.543 180.757 228.772C181.056 229.001 181.307 229.288 181.494 229.615C181.681 229.943 181.801 230.305 181.847 230.679Z" fill="#263238"/>
<path d="M180.062 249.896C181.625 249.896 182.892 248.629 182.892 247.066C182.892 245.503 181.625 244.236 180.062 244.236C178.499 244.236 177.231 245.503 177.231 247.066C177.231 248.629 178.499 249.896 180.062 249.896Z" fill="#263238"/>
<path d="M183.905 262.745C183.972 263.298 183.875 263.859 183.625 264.356C183.375 264.854 182.983 265.267 182.5 265.543C182.016 265.82 181.462 265.947 180.906 265.91C180.35 265.873 179.818 265.672 179.376 265.334C178.933 264.996 178.601 264.534 178.419 264.008C178.238 263.481 178.216 262.913 178.356 262.374C178.496 261.835 178.793 261.349 179.208 260.977C179.622 260.606 180.138 260.365 180.689 260.285C181.062 260.233 181.442 260.256 181.806 260.352C182.17 260.447 182.512 260.615 182.811 260.843C183.11 261.072 183.361 261.358 183.549 261.685C183.737 262.011 183.858 262.372 183.905 262.745Z" fill="#263238"/>
<path d="M142.303 164.746C108.42 193.113 63.2314 255.171 69.1493 269.226C75.7748 284.857 123.005 245.104 123.086 242.547C123.086 240.601 142.11 202.071 156.39 174.089C170.67 146.108 150.681 157.735 142.303 164.746Z" fill="#F7A9A0"/>
<path d="M123.408 242.628C125.144 238.479 150.746 187.726 158.288 171.613C165.83 155.5 160.813 149.823 142.544 163.476C124.276 177.129 82.5291 224.585 71.5135 250.877C60.9159 276.189 74.3438 277.476 93.2231 267.168C108.677 258.709 123.408 242.628 123.408 242.628Z" fill="#37474F"/>
<path opacity="0.1" d="M77.0773 267.811V273.134C75.9661 273.263 74.8436 273.263 73.7324 273.134V267.843L77.0773 267.811Z" fill="black"/>
<path d="M144.217 200.849C144.872 199.62 145.665 198.471 146.581 197.423C147.469 196.367 148.466 195.407 149.556 194.561C148.897 195.781 148.104 196.925 147.192 197.97C146.309 199.036 145.311 200.001 144.217 200.849Z" fill="#263238"/>
<path d="M126.447 235.23C128.151 231.29 129.969 227.415 131.818 223.555C133.667 219.696 135.597 215.885 137.495 212.041C139.392 208.198 141.402 204.435 143.429 200.672C145.455 196.909 147.497 193.146 149.668 189.415C147.963 193.339 146.13 197.214 144.297 201.074C142.464 204.933 140.502 208.744 138.62 212.588C136.739 216.431 134.713 220.194 132.686 223.957C130.66 227.72 128.65 231.532 126.447 235.23Z" fill="#263238"/>
<path d="M173.677 169.747C168.001 171.661 155.859 163.09 151.164 156.255C150.858 155.773 151.164 150.514 151.164 144.082C151.164 140.19 151.164 135.848 150.713 131.908L176.057 135.623C175.1 140.699 174.77 145.873 175.076 151.029C175.129 151.574 175.237 152.113 175.398 152.637C175.409 152.722 175.409 152.809 175.398 152.894C176.234 155.934 179.097 167.898 173.677 169.747Z" fill="#F7A9A0"/>
<path d="M175.382 152.637C175.382 152.637 175.382 152.798 175.382 152.894C174.552 153.09 173.708 153.219 172.857 153.28C158.48 154.277 153.463 137.038 152.354 132.149L158.69 133.082L175.993 135.639C175.035 140.709 174.705 145.878 175.012 151.029C175.088 151.575 175.212 152.113 175.382 152.637Z" fill="#263238"/>
<path d="M175.157 151.511L172.568 166.965L150.987 152.91L147.24 159.761C147.24 159.761 170.751 184.542 170.574 183.223L173.79 169.699L184.098 176.373L178.727 155.13L175.157 151.511Z" fill="#EBEBEB"/>
<path d="M182.008 165.679C181.011 162.205 180.094 158.667 178.936 155.242C178.936 155.13 178.679 155.114 178.679 155.242C178.679 158.812 182.635 172.079 183.326 175.312C182.892 175.022 173.854 169.538 173.806 169.667C172.954 171.886 170.59 181.744 170.493 182.612C166.779 178.689 152.708 164.489 148.526 160.903C148.502 160.888 148.473 160.881 148.444 160.885C148.415 160.888 148.389 160.901 148.368 160.922C148.348 160.942 148.335 160.969 148.331 160.997C148.328 161.026 148.334 161.055 148.349 161.08C151.807 165.341 170.509 184.51 170.719 184.397C172.034 179.696 173.108 174.929 173.935 170.117C175.543 171.388 184.854 177.772 184.757 177.241C184.043 173.342 183.125 169.482 182.008 165.679Z" fill="#263238"/>
<path d="M145.182 103.267C143.284 112.498 150.44 137.987 157.371 143.165C167.406 150.691 182.635 150.08 188.713 138.341C194.615 126.907 184.693 93.8599 177.071 89.2606C165.846 82.4583 147.947 89.6305 145.182 103.267Z" fill="#F7A9A0"/>
<path d="M169.689 117.146C169.689 117.146 169.577 117.258 169.689 117.338C170.204 119.043 170.526 121.085 169.126 122.163C170.911 121.375 170.461 118.673 169.689 117.146Z" fill="#263238"/>
<path d="M167.663 115.779C164.833 116.325 166.151 121.922 168.773 121.423C171.394 120.925 170.027 115.312 167.663 115.779Z" fill="#263238"/>
<path d="M179.306 114.733C179.306 114.733 179.466 114.733 179.483 114.846C179.82 116.599 180.528 118.545 182.232 118.754V118.85C180.254 119.027 179.354 116.438 179.306 114.733Z" fill="#263238"/>
<path d="M180.432 112.562C183.182 111.694 184.709 117.242 182.169 118.046C179.628 118.85 178.132 113.286 180.432 112.562Z" fill="#263238"/>
<path d="M165.428 114.798C166.055 114.293 166.657 113.757 167.229 113.19C167.961 112.747 168.527 112.074 168.837 111.276C168.881 111.011 168.835 110.739 168.707 110.503C168.579 110.267 168.375 110.081 168.129 109.973C167.611 109.828 167.062 109.824 166.542 109.963C166.021 110.101 165.548 110.377 165.17 110.761C164.323 111.443 163.751 112.408 163.562 113.479C163.536 113.711 163.572 113.946 163.667 114.159C163.763 114.372 163.914 114.556 164.104 114.691C164.295 114.826 164.519 114.907 164.751 114.926C164.984 114.944 165.218 114.9 165.428 114.798Z" fill="#263238"/>
<path d="M182.329 108.751C181.542 108.8 180.752 108.8 179.965 108.751C179.132 108.843 178.291 108.663 177.569 108.237C177.366 108.059 177.229 107.818 177.18 107.552C177.13 107.287 177.171 107.013 177.296 106.773C177.607 106.334 178.032 105.987 178.524 105.769C179.017 105.551 179.559 105.47 180.094 105.535C181.195 105.485 182.275 105.852 183.117 106.564C183.289 106.737 183.408 106.955 183.46 107.192C183.513 107.43 183.497 107.678 183.415 107.907C183.332 108.136 183.186 108.337 182.994 108.486C182.802 108.636 182.571 108.728 182.329 108.751Z" fill="#263238"/>
<path d="M171.941 127.743C172.542 128.33 173.258 128.784 174.044 129.078C174.831 129.371 175.67 129.497 176.508 129.448C177.236 129.424 177.956 129.294 178.647 129.062L179.049 128.917L179.419 128.772C179.505 128.727 179.576 128.657 179.622 128.571C179.668 128.485 179.687 128.387 179.676 128.29C179.685 128.231 179.685 128.172 179.676 128.113V127.968C179.403 126.617 178.808 124.607 178.808 124.607C179.338 124.736 182.024 125.283 181.895 124.607C180.344 118.621 178.189 112.807 175.463 107.256C175.382 107.079 175.093 107.256 175.157 107.368C176.572 112.916 178.952 118.175 180.464 123.723C179.482 123.512 178.474 123.447 177.473 123.53C177.296 123.626 178.711 127.373 178.791 127.984C177.723 128.353 176.591 128.502 175.463 128.422C174.336 128.342 173.236 128.034 172.23 127.518C171.909 127.486 171.812 127.631 171.941 127.743Z" fill="#263238"/>
<path d="M177.843 128.965C177.268 130.036 176.426 130.939 175.398 131.587C174.83 131.921 174.174 132.072 173.517 132.021C172.086 131.876 171.909 130.622 171.909 129.496C171.948 128.9 172.062 128.311 172.246 127.743C173.931 128.744 175.894 129.173 177.843 128.965Z" fill="#263238"/>
<path d="M175.398 131.587C174.83 131.921 174.174 132.072 173.517 132.021C172.086 131.876 171.909 130.622 171.909 129.496C172.642 129.389 173.39 129.539 174.026 129.92C174.662 130.301 175.147 130.889 175.398 131.587Z" fill="#FF98B9"/>
<path d="M185.706 99.0059C177.762 107.625 162.629 100.807 162.629 100.807C162.299 103.049 161.253 105.124 159.648 106.724C158.043 108.323 155.964 109.362 153.72 109.684C153.72 109.684 155.522 126.071 151.324 127.003C144.892 128.435 137.929 107.127 138.974 102.383C140.019 97.639 145.197 95.3073 145.197 95.3073C145.192 92.5785 146.227 89.9505 148.092 87.9581C151.71 83.6162 167.84 84.7419 167.84 84.7419C168.245 82.5258 169.159 80.4339 170.509 78.631C170.832 78.1874 171.242 77.8138 171.713 77.5327C172.185 77.2515 172.708 77.0687 173.252 76.995C173.796 76.9214 174.349 76.9586 174.878 77.1043C175.407 77.2501 175.901 77.5013 176.331 77.843C175.805 79.2041 175.59 80.6658 175.704 82.1206C176.025 86.945 179.836 86.0927 178.823 81.8633C178.503 80.2671 177.618 78.8398 176.331 77.843C177.585 74.6268 180.448 73.0186 182.651 74.08C186.655 75.9293 192.315 91.8015 185.706 99.0059Z" fill="#263238"/>
<path d="M168.082 126.055C166.646 126.247 165.185 126.031 163.865 125.434C162.545 124.836 161.42 123.88 160.617 122.674C159.815 121.468 159.367 120.061 159.325 118.613C159.282 117.165 159.648 115.734 160.379 114.483C161.11 113.233 162.178 112.213 163.461 111.539C164.743 110.866 166.189 110.566 167.634 110.674C169.079 110.782 170.464 111.294 171.632 112.151C172.8 113.008 173.704 114.176 174.241 115.521C174.68 116.614 174.864 117.793 174.777 118.967C174.691 120.142 174.337 121.281 173.742 122.297C173.148 123.314 172.329 124.181 171.348 124.832C170.366 125.483 169.249 125.902 168.082 126.055ZM166.184 111.742C165.633 111.826 165.094 111.971 164.576 112.176C163.009 112.819 161.746 114.034 161.044 115.575C160.341 117.116 160.253 118.867 160.796 120.471C161.339 122.075 162.473 123.412 163.967 124.209C165.461 125.007 167.202 125.205 168.837 124.764C170.472 124.322 171.877 123.274 172.767 121.833C173.657 120.392 173.963 118.666 173.625 117.007C173.287 115.348 172.33 113.88 170.947 112.901C169.565 111.923 167.861 111.509 166.184 111.742Z" fill="#455A64"/>
<path d="M184.934 121.665C181.992 121.906 179.065 119.108 178.261 115.232C177.845 113.348 178.025 111.381 178.775 109.604C179.063 108.835 179.542 108.152 180.167 107.619C180.792 107.087 181.543 106.723 182.348 106.562C183.153 106.401 183.986 106.448 184.768 106.699C185.55 106.95 186.255 107.396 186.816 107.996C188.204 109.341 189.142 111.082 189.502 112.981C190.338 117.146 188.505 121.021 185.385 121.697L184.934 121.665ZM182.956 107.384H182.571C181.929 107.548 181.336 107.862 180.841 108.301C180.346 108.741 179.963 109.292 179.724 109.909C179.047 111.481 178.89 113.227 179.274 114.894C179.998 118.513 182.667 121.054 185.24 120.523C187.813 119.992 189.26 116.647 188.537 113.013C188.226 111.334 187.399 109.794 186.173 108.607C185.746 108.183 185.234 107.856 184.672 107.645C184.109 107.434 183.508 107.346 182.908 107.384H182.956Z" fill="#455A64"/>
<path d="M174.208 116.438L173.372 115.843C174.257 114.605 176.588 112.627 178.888 114.139L178.341 115.007C176.251 113.672 174.289 116.342 174.208 116.438Z" fill="#455A64"/>
<path d="M141.29 126.859L140.293 126.634C140.389 126.151 141.419 122.018 143.509 121.086C145.6 120.153 159.269 118.062 159.864 117.966L160.025 118.995C156.069 119.606 145.471 121.359 143.943 122.034C142.416 122.71 141.515 125.733 141.29 126.859Z" fill="#455A64"/>
<path d="M153.833 122.501C153.833 122.501 147.031 114.798 143.461 117.322C139.891 119.847 145.68 131.458 150.328 132.616C150.913 132.805 151.531 132.874 152.144 132.819C152.757 132.764 153.353 132.585 153.895 132.293C154.437 132.002 154.915 131.604 155.3 131.123C155.684 130.642 155.968 130.089 156.133 129.496L153.833 122.501Z" fill="#F7A9A0"/>
<path d="M145.214 120.603V120.732C148.43 121.648 150.456 124.35 151.952 127.164C151.734 126.872 151.455 126.631 151.135 126.456C150.815 126.282 150.461 126.179 150.097 126.155C149.734 126.13 149.369 126.185 149.029 126.315C148.688 126.445 148.38 126.647 148.125 126.907C148.125 126.907 148.125 127.1 148.237 127.068C148.771 126.819 149.369 126.745 149.947 126.858C150.525 126.97 151.053 127.264 151.453 127.695C152.127 128.395 152.715 129.173 153.206 130.011C153.383 130.268 153.882 130.011 153.737 129.753C153.254 125.749 149.556 120.523 145.214 120.603Z" fill="#263238"/>
<path d="M149.861 162.559C149.54 165.775 149.122 168.863 148.752 171.999C148.382 175.135 147.916 178.287 147.497 181.422L146.886 180.763C149.138 180.57 151.405 180.345 153.657 180.2L160.427 179.718L161.681 179.621L161.15 180.763C159.06 185.201 157.018 189.64 154.847 194.046L154.541 193.033C159.912 196.121 165.332 199.128 170.622 202.296C175.913 205.464 181.316 208.584 186.575 211.945C181.027 209.163 175.543 206.284 170.075 203.357C164.608 200.43 159.188 197.439 153.753 194.464L153.126 194.127L153.431 193.467C155.474 189.013 157.645 184.623 159.783 180.216L160.491 181.262L153.721 181.664C151.453 181.808 149.186 181.873 146.935 181.985H146.195L146.323 181.278C146.886 178.158 147.417 175.038 147.932 171.934C148.446 168.831 149.218 165.647 149.861 162.559Z" fill="#263238"/>
<path d="M179.756 159.343C180.753 160.517 181.718 161.707 182.683 162.913C183.648 164.119 184.629 165.293 185.562 166.515L191.238 173.8L191.946 174.716L190.772 174.877L184.179 175.794L184.549 174.427C187.363 176.614 190.177 178.801 192.959 181.036L193.329 181.342L193.249 181.808C192.251 186.826 191.179 191.838 190.032 196.844C188.939 201.862 187.797 206.863 186.543 211.832C187.25 206.75 188.054 201.685 188.923 196.635C189.791 191.586 190.676 186.536 191.64 181.503L191.914 182.275C189.1 180.088 186.317 177.852 183.535 175.633L182.072 174.475L183.921 174.266L190.531 173.526L190.064 174.604L184.935 167.046C184.05 165.791 183.214 164.489 182.362 163.218C181.509 161.948 180.576 160.645 179.756 159.343Z" fill="#263238"/>
<path d="M200.565 180.892L186.43 268.583L172.793 266.798L182.635 178.544L200.565 180.892Z" fill="#263238"/>
<path d="M195.002 153.73C193.136 153.484 191.24 153.608 189.422 154.094C187.604 154.581 185.899 155.421 184.406 156.566C182.912 157.712 181.659 159.14 180.718 160.77C179.777 162.4 179.166 164.199 178.92 166.065L178.277 170.986C178.049 172.732 178.167 174.506 178.625 176.207C179.082 177.908 179.87 179.502 180.944 180.898C182.018 182.295 183.356 183.466 184.882 184.345C186.408 185.224 188.093 185.794 189.839 186.022L191.641 186.263C193.387 186.491 195.161 186.373 196.862 185.915C198.563 185.458 200.157 184.669 201.553 183.596C202.95 182.522 204.121 181.184 205 179.658C205.879 178.131 206.448 176.447 206.677 174.7L207.32 169.796C207.566 167.932 207.443 166.038 206.957 164.222C206.471 162.406 205.633 160.703 204.489 159.211C203.345 157.719 201.918 156.467 200.29 155.527C198.663 154.587 196.865 153.976 195.002 153.73Z" fill="#A6A6A6"/>
<path d="M208.079 171.562L177.879 167.608L177.474 170.701L207.674 174.656L208.079 171.562Z" fill="#C7C7C7"/>
<path d="M207.128 185.726L175.74 181.091L171.305 211.127L202.693 215.762L207.128 185.726Z" fill="#FF9446"/>
<path d="M183.97 192.438C183.205 193.778 182.662 195.234 182.361 196.747L178.502 196.169V196.056C178.502 195.96 178.502 195.863 178.502 195.767C178.634 195.247 178.801 194.736 179 194.239C179.339 193.431 179.759 192.661 180.255 191.939H180.351L183.937 192.486L183.97 192.438Z" fill="white"/>
<path d="M182.329 202.376L178.775 201.829C178.487 200.895 178.325 199.927 178.293 198.951C178.26 198.48 178.26 198.007 178.293 197.536V197.375L182.12 197.954C182.12 197.954 182.12 197.954 182.12 198.034C182.12 198.356 182.12 198.677 182.04 198.999C181.959 199.321 182.04 200.028 182.04 200.527C182.085 201.148 182.171 201.766 182.297 202.376H182.329Z" fill="white"/>
<path d="M197.414 205.833C197.029 206.258 196.615 206.656 196.175 207.023C195.638 207.46 195.062 207.848 194.455 208.181C193.858 208.505 193.234 208.774 192.589 208.985C191.958 209.179 191.313 209.325 190.659 209.42C190.126 209.489 189.589 209.516 189.051 209.5H188.81H188.907C190.105 208.914 191.193 208.125 192.123 207.168C192.663 206.624 193.153 206.032 193.586 205.399C193.601 205.392 193.618 205.388 193.634 205.388C193.651 205.388 193.668 205.392 193.683 205.399L197.333 205.962L197.414 205.833Z" fill="white"/>
<path d="M194.792 198.645L189.759 197.938L190.434 193.483L194.358 194.078C194.601 194.97 194.742 195.888 194.776 196.812C194.776 197.294 194.776 197.777 194.776 198.259C194.808 198.388 194.808 198.501 194.792 198.645Z" fill="white"/>
<path d="M194.583 199.819C194.591 199.926 194.591 200.034 194.583 200.141C194.583 200.382 194.47 200.623 194.406 200.864C194.342 201.106 194.197 201.54 194.068 201.862C193.807 202.582 193.479 203.277 193.088 203.936C193.088 203.936 193.088 203.936 192.975 203.936L188.971 203.325L189.614 199.015L194.583 199.819Z" fill="white"/>
<path d="M189.228 193.274L188.553 197.729L183.567 196.973C183.567 196.86 183.567 196.748 183.567 196.635C183.567 196.522 183.68 196.153 183.76 195.911C183.841 195.67 184.002 195.172 184.146 194.802C184.423 194.077 184.773 193.381 185.192 192.727C185.192 192.727 185.192 192.727 185.288 192.727L189.083 193.306L189.228 193.274Z" fill="white"/>
<path d="M188.36 198.935L187.733 203.132L183.825 202.553C183.805 202.55 183.786 202.54 183.772 202.526C183.757 202.511 183.748 202.493 183.744 202.472C183.552 201.703 183.439 200.917 183.407 200.125C183.407 199.723 183.407 199.304 183.407 198.902C183.407 198.5 183.407 198.372 183.407 198.098L188.231 198.838C188.231 198.838 188.376 198.886 188.36 198.935Z" fill="white"/>
<path d="M200.196 199.546L196.015 198.919C196.168 197.369 196.07 195.805 195.725 194.287L199.552 194.866C199.552 194.866 199.552 194.866 199.633 194.866C199.952 195.817 200.136 196.807 200.18 197.809C200.212 198.344 200.212 198.881 200.18 199.417L200.196 199.546Z" fill="white"/>
<path d="M200.019 200.607C200.019 200.714 200.019 200.811 200.019 200.896C200.019 201.282 199.826 201.636 199.713 202.006C199.422 202.847 199.034 203.652 198.555 204.402L198.33 204.756C198.33 204.756 198.33 204.756 198.25 204.756L194.422 204.177L194.631 203.807C194.954 203.175 195.228 202.519 195.452 201.845C195.617 201.361 195.752 200.867 195.854 200.366C195.886 200.249 195.913 200.131 195.934 200.012L200.019 200.607Z" fill="white"/>
<path d="M199.15 193.58L195.5 193.017C195.487 193.024 195.474 193.028 195.459 193.028C195.445 193.028 195.431 193.024 195.419 193.017C195.082 191.974 194.612 190.98 194.02 190.058C193.664 189.528 193.266 189.028 192.83 188.562L192.139 187.903V187.823C193.398 188.148 194.59 188.692 195.66 189.431C197.157 190.495 198.358 191.923 199.15 193.58Z" fill="white"/>
<path d="M186.108 209.082H185.996C185.601 208.969 185.214 208.83 184.838 208.664C184.132 208.374 183.462 208.002 182.844 207.554C182.126 207.058 181.472 206.475 180.898 205.818C180.482 205.355 180.111 204.854 179.788 204.322C179.548 203.917 179.334 203.498 179.145 203.068L182.554 203.582C182.791 204.351 183.104 205.094 183.487 205.801C183.842 206.451 184.25 207.07 184.709 207.651C185.083 208.135 185.498 208.587 185.947 209.002L186.108 209.082Z" fill="white"/>
<path d="M189.341 187.388L188.778 187.694C188.111 188.061 187.48 188.492 186.896 188.98C186.095 189.613 185.386 190.354 184.79 191.183L184.677 191.344H184.5L181.171 190.846C182.218 189.715 183.49 188.818 184.906 188.211C186.321 187.604 187.849 187.302 189.389 187.324L189.341 187.388Z" fill="white"/>
<path d="M192.268 205.062C191.675 205.815 190.995 206.495 190.241 207.088C189.571 207.615 188.843 208.063 188.07 208.423L188.665 204.515L192.268 205.062Z" fill="white"/>
<path d="M187.539 204.37L186.961 208.197C185.673 206.99 184.687 205.498 184.082 203.839L187.539 204.37Z" fill="white"/>
<path d="M194.004 192.791L190.547 192.261L191.11 188.61C191.719 189.183 192.259 189.825 192.718 190.524C193.229 191.23 193.661 191.99 194.004 192.791Z" fill="white"/>
<path d="M189.936 188.546L189.389 192.116L186.076 191.618C187.102 190.304 188.425 189.251 189.936 188.546Z" fill="white"/>
<path d="M70.2106 270.995C80.5187 277.428 102.373 272.716 149.765 262.954C156.31 261.604 155.538 212.041 148.462 213.102C139.569 214.469 105.332 221.69 102.888 222.542C82.3359 229.682 63.2314 266.573 70.2106 270.995Z" fill="#F7A9A0"/>
<path d="M207.191 204.724C207.936 206.111 208.239 207.693 208.058 209.257C207.876 210.821 207.22 212.292 206.178 213.472C208.549 214.711 210.41 216.743 211.436 219.213C213.044 223.636 206.789 228.09 206.789 228.09C208.973 229.889 210.564 232.305 211.356 235.021C212.449 239.411 206.805 244.799 206.805 244.799C207.898 247.563 207.961 250.628 206.982 253.434C204.055 260.816 192.139 263.083 184.58 264.482C177.022 265.881 154.171 263.067 149.765 262.954L139.907 214.485C139.907 214.485 171.941 198.211 181.075 197.745C188.745 197.343 204.135 199.546 207.191 204.724Z" fill="#F7A9A0"/>
<path d="M205.695 212.765C197.397 211.157 189.115 212.218 180.769 212.765C180.731 212.765 180.694 212.78 180.667 212.807C180.64 212.834 180.625 212.871 180.625 212.909C180.625 212.948 180.64 212.985 180.667 213.012C180.694 213.039 180.731 213.054 180.769 213.054C189.051 212.443 197.349 213.472 205.631 213.199C205.84 213.151 205.92 212.797 205.695 212.765Z" fill="#263238"/>
<path d="M206.499 227.479C204.583 227.316 202.653 227.402 200.758 227.736C198.732 227.962 196.722 228.235 194.696 228.524C190.659 229.119 186.655 229.795 182.651 230.599C182.474 230.599 182.474 230.904 182.651 230.888C186.671 230.309 190.691 229.779 194.744 229.377C196.77 229.162 198.796 228.969 200.823 228.798C202.742 228.757 204.652 228.504 206.515 228.042C206.578 228.025 206.633 227.987 206.672 227.935C206.711 227.883 206.731 227.819 206.729 227.754C206.728 227.689 206.704 227.627 206.662 227.577C206.62 227.527 206.563 227.492 206.499 227.479Z" fill="#263238"/>
<path d="M206.628 244.815C204.89 244.69 203.145 244.865 201.466 245.329L195.966 246.214C192.3 246.793 188.617 247.356 184.934 247.822C184.757 247.822 184.774 248.128 184.934 248.111C188.697 247.677 192.444 247.291 196.191 246.825C198.041 246.6 199.874 246.359 201.707 246.101C203.404 246.038 205.075 245.673 206.644 245.024C206.664 245.014 206.681 244.998 206.693 244.979C206.704 244.959 206.709 244.936 206.707 244.914C206.706 244.891 206.697 244.87 206.683 244.852C206.669 244.834 206.65 244.821 206.628 244.815Z" fill="#263238"/>
<path d="M142.705 212.186L122.33 271.912C122.33 271.912 79.8597 279.261 70.0019 271.719C63.5694 266.75 81.6287 228.123 104.93 221.996L142.705 212.186Z" fill="#37474F"/>
<path d="M81.5644 239.942C85.8939 233.707 91.4611 228.43 97.9191 224.44C106.474 219.262 136.82 213.183 142.641 212.089C142.754 212.089 142.834 212.25 142.641 212.282C137.945 213.665 105.654 221.095 98.305 225.453C92.0956 229.529 86.4832 234.449 81.6288 240.071C81.6448 240.167 81.5001 240.055 81.5644 239.942Z" fill="#263238"/>
<path d="M108.854 269.13C110.751 262.552 113.003 256.088 115.286 249.623C117.57 243.158 119.821 236.758 122.249 230.326C123.616 226.707 124.967 223.073 126.479 219.503C126.479 219.406 126.672 219.503 126.656 219.503C124.758 226.08 122.523 232.561 120.223 239.025C117.924 245.49 115.704 251.89 113.357 258.323C112.022 261.957 110.623 265.576 109.127 269.146C109.111 269.403 108.806 269.323 108.854 269.13Z" fill="#263238"/>
<path d="M113.276 273.214C116.251 272.442 119.275 272.024 122.25 271.606L122.008 271.831C122.475 270.657 122.957 269.499 123.536 268.374C123.306 269.611 123.011 270.835 122.652 272.04V272.217H122.443C119.458 272.935 116.394 273.27 113.325 273.214H113.276Z" fill="#263238"/>
<path d="M58.6162 63.1768C58.6154 69.6797 60.4216 76.0549 63.8334 81.591C67.2452 87.127 72.1282 91.6061 77.9375 94.5283C83.7469 97.4504 90.254 98.7008 96.7327 98.1398C103.211 97.5788 109.407 95.2285 114.627 91.3512L131.866 95.7414L124.71 79.6601C127.204 74.9538 128.594 69.7415 128.775 64.4183C128.955 59.095 127.921 53.8006 125.752 48.9362C123.582 44.0718 120.334 39.7652 116.252 36.3427C112.171 32.9203 107.364 30.4718 102.196 29.1829C97.0284 27.8941 91.6348 27.7987 86.4244 28.9039C81.214 30.0091 76.3236 32.2859 72.1239 35.5619C67.9242 38.8378 64.5253 43.0268 62.185 47.8114C59.8446 52.596 58.6242 57.8505 58.6162 63.1768Z" fill="#FF9446"/>
<path d="M58.6165 63.1769C58.6637 69.6672 60.506 76.0177 63.9393 81.5257C64.7857 82.8982 65.7204 84.2143 66.7375 85.4656C67.7833 86.6882 68.9059 87.843 70.0985 88.923C72.461 91.1117 75.139 92.9331 78.0426 94.3263C82.3586 96.4925 87.0941 97.6942 91.9207 97.8481C93.5286 97.9436 95.1413 97.9167 96.7451 97.7677C103.124 97.1469 109.204 94.7638 114.306 90.8849L114.531 90.7241H114.804L131.995 95.0178L131.175 95.9988L123.955 80.014L123.794 79.6763L123.971 79.3386C126.409 74.7434 127.788 69.6609 128.007 64.4634C128.216 59.2464 127.238 54.05 125.145 49.2667C123.011 44.4947 119.867 40.2426 115.93 36.8037C111.938 33.3847 107.219 30.9208 102.132 29.5993C97.0323 28.2554 91.6948 28.0795 86.5174 29.0847C81.3333 30.1401 76.4495 32.3375 72.2212 35.5172C68.0048 38.7944 64.589 42.9876 62.232 47.7796C59.875 52.5715 58.6387 57.8368 58.6165 63.1769ZM58.6165 63.1769C58.6332 57.8507 59.8524 52.597 62.183 47.8076C64.5136 43.0183 67.8955 38.817 72.0765 35.5172C78.446 30.4805 86.3489 27.778 94.4687 27.86C102.589 27.9419 110.435 30.8033 116.702 35.9675C120.879 39.4658 124.211 43.864 126.447 48.8325C128.679 53.8031 129.739 59.2197 129.547 64.6649C129.355 70.1101 127.914 75.4384 125.338 80.2392V79.5637L132.429 95.645L133.024 96.9958L131.609 96.6099L114.451 92.1071L114.933 92.0106C109.611 95.8919 103.313 98.2139 96.7451 98.7165C95.1397 98.8496 93.5261 98.8496 91.9207 98.7165C83.7297 98.2272 75.9662 94.8943 69.9698 89.2929C68.778 88.2001 67.6606 87.0289 66.6249 85.7872C65.6091 84.5274 64.6796 83.2003 63.8429 81.8151C60.4019 76.2091 58.5921 69.7547 58.6165 63.1769Z" fill="#263238"/>
<path d="M80.0526 64.6401C80.0526 65.2508 79.8716 65.8477 79.5323 66.3555C79.193 66.8632 78.7108 67.259 78.1466 67.4927C77.5824 67.7264 76.9616 67.7875 76.3627 67.6684C75.7638 67.5492 75.2136 67.2552 74.7818 66.8233C74.35 66.3915 74.0559 65.8414 73.9368 65.2424C73.8176 64.6435 73.8788 64.0227 74.1125 63.4585C74.3462 62.8943 74.7419 62.4121 75.2497 62.0728C75.7574 61.7336 76.3544 61.5525 76.965 61.5525C77.3705 61.5525 77.772 61.6323 78.1466 61.7875C78.5212 61.9427 78.8616 62.1701 79.1483 62.4568C79.435 62.7435 79.6625 63.0839 79.8176 63.4585C79.9728 63.8331 80.0526 64.2346 80.0526 64.6401Z" fill="#263238"/>
<path d="M96.2465 64.6401C96.2465 65.2515 96.065 65.8491 95.725 66.3572C95.385 66.8653 94.9018 67.261 94.3367 67.4942C93.7716 67.7274 93.15 67.7876 92.5506 67.6672C91.9512 67.5467 91.4011 67.2511 90.9699 66.8176C90.5388 66.3842 90.246 65.8326 90.1287 65.2326C90.0114 64.6326 90.0748 64.0113 90.311 63.4474C90.5471 62.8835 90.9454 62.4024 91.4552 62.065C91.9651 61.7277 92.5636 61.5493 93.175 61.5525C93.5797 61.5525 93.9804 61.6325 94.3541 61.7879C94.7278 61.9432 95.0671 62.1709 95.3526 62.4578C95.638 62.7448 95.8639 63.0853 96.0173 63.4598C96.1707 63.8343 96.2486 64.2354 96.2465 64.6401Z" fill="#263238"/>
<path d="M112.456 64.6401C112.456 65.2501 112.276 65.8464 111.937 66.3538C111.599 66.8612 111.117 67.257 110.554 67.4911C109.991 67.7253 109.371 67.7874 108.772 67.6695C108.174 67.5517 107.624 67.2592 107.191 66.829C106.759 66.3988 106.463 65.8502 106.343 65.2523C106.222 64.6544 106.28 64.0341 106.512 63.4697C106.743 62.9052 107.136 62.4219 107.642 62.0807C108.147 61.7395 108.743 61.5557 109.353 61.5525C109.76 61.5504 110.163 61.6287 110.539 61.7829C110.916 61.9371 111.258 62.1642 111.546 62.4512C111.835 62.7381 112.064 63.0792 112.22 63.4548C112.376 63.8305 112.456 64.2333 112.456 64.6401Z" fill="#263238"/>
<path d="M239.948 211.526C237.543 215.079 236.245 219.265 236.217 223.555C236.217 238.816 252.974 251.183 273.622 251.183C294.271 251.183 311.011 238.816 311.011 223.555C311.011 208.294 294.287 195.944 273.622 195.944C264.467 195.805 255.489 198.47 247.892 203.582L235.027 200.366L239.948 211.526Z" fill="#FFFEFD"/>
<path d="M239.948 211.526C237.752 214.926 236.533 218.865 236.427 222.912C236.404 226.939 237.519 230.891 239.643 234.313C244.078 241.044 250.774 245.967 258.522 248.192C266.169 250.599 274.285 251.123 282.178 249.719C286.114 249.072 289.937 247.864 293.531 246.133C297.105 244.442 300.368 242.158 303.18 239.379C305.999 236.632 308.102 233.236 309.307 229.489C310.493 225.756 310.549 221.756 309.468 217.991C308.309 214.228 306.256 210.802 303.485 208.004C300.684 205.179 297.421 202.851 293.837 201.122C290.273 199.379 286.485 198.139 282.58 197.439C278.656 196.684 274.654 196.408 270.664 196.619C262.634 196.928 254.844 199.443 248.15 203.888L248.005 203.984H247.844L234.979 200.543L235.204 200.269L239.948 211.526ZM239.948 211.526L234.786 200.382L234.625 200.028L235.011 200.125L247.876 203.228H247.571C254.346 198.555 262.284 195.85 270.503 195.413C278.724 194.798 286.964 196.31 294.432 199.803C298.168 201.58 301.569 203.99 304.482 206.927C307.456 209.878 309.664 213.51 310.915 217.508C312.116 221.565 312.077 225.889 310.802 229.923C309.49 233.9 307.24 237.502 304.241 240.424C301.278 243.312 297.847 245.677 294.094 247.42C290.37 249.177 286.419 250.406 282.355 251.07C278.314 251.758 274.205 251.958 270.117 251.665C266.028 251.345 261.993 250.524 258.104 249.221C254.205 247.936 250.531 246.048 247.217 243.624C243.868 241.232 241.058 238.164 238.967 234.619C236.911 231.046 235.897 226.968 236.041 222.847C236.261 218.783 237.615 214.861 239.948 211.526Z" fill="#263238"/>
<path d="M287.066 223.555C287.07 222.789 287.3 222.042 287.727 221.406C288.155 220.771 288.762 220.277 289.47 219.986C290.178 219.695 290.957 219.621 291.708 219.772C292.459 219.923 293.148 220.294 293.688 220.836C294.229 221.379 294.596 222.07 294.744 222.821C294.893 223.572 294.815 224.351 294.521 225.058C294.227 225.765 293.73 226.37 293.093 226.795C292.457 227.22 291.708 227.447 290.942 227.447C290.432 227.447 289.926 227.346 289.455 227.15C288.984 226.954 288.556 226.668 288.196 226.306C287.836 225.944 287.551 225.515 287.357 225.043C287.163 224.571 287.064 224.065 287.066 223.555Z" fill="#263238"/>
<path d="M269.731 223.555C269.731 222.786 269.959 222.033 270.387 221.393C270.814 220.753 271.422 220.254 272.133 219.96C272.844 219.665 273.627 219.588 274.382 219.738C275.137 219.889 275.83 220.259 276.374 220.803C276.919 221.348 277.289 222.041 277.44 222.796C277.59 223.551 277.513 224.333 277.218 225.045C276.924 225.756 276.425 226.363 275.785 226.791C275.145 227.219 274.392 227.447 273.623 227.447C273.111 227.449 272.604 227.35 272.131 227.155C271.658 226.96 271.228 226.674 270.866 226.312C270.504 225.95 270.218 225.52 270.023 225.047C269.828 224.574 269.729 224.067 269.731 223.555Z" fill="#263238"/>
<path d="M252.476 223.555C252.479 222.789 252.709 222.042 253.137 221.406C253.564 220.771 254.171 220.277 254.879 219.986C255.588 219.695 256.366 219.621 257.117 219.772C257.868 219.923 258.557 220.294 259.097 220.836C259.638 221.379 260.005 222.07 260.153 222.821C260.302 223.572 260.224 224.351 259.93 225.058C259.636 225.765 259.14 226.37 258.503 226.795C257.866 227.22 257.117 227.447 256.351 227.447C255.841 227.447 255.336 227.346 254.864 227.15C254.393 226.954 253.965 226.668 253.605 226.306C253.245 225.944 252.96 225.515 252.766 225.043C252.572 224.571 252.474 224.065 252.476 223.555Z" fill="#263238"/>
<path d="M634.831 345.641L648.049 333.74L578.601 256.61L565.383 268.511L634.831 345.641Z" fill="#C7C7C7"/>
<path d="M666.745 387.89L686.734 369.895L638.233 316.023L618.244 334.018L666.745 387.89Z" fill="#263238"/>
<path d="M505.498 285.613C489.776 282.509 475.327 274.812 463.979 263.497C452.631 252.181 444.892 237.754 441.743 222.041C438.593 206.328 440.173 190.034 446.283 175.218C452.394 160.403 462.76 147.733 476.071 138.808C489.382 129.884 505.04 125.107 521.066 125.081C537.092 125.056 552.765 129.783 566.105 138.664C579.444 147.546 589.851 160.183 596.008 174.979C602.166 189.774 603.798 206.063 600.699 221.787C596.522 242.866 584.151 261.427 566.302 273.394C548.453 285.36 526.584 289.755 505.498 285.613ZM507.299 276.511C521.223 279.258 535.648 277.815 548.751 272.363C561.854 266.912 573.047 257.697 580.913 245.884C588.779 234.072 592.965 220.192 592.943 206C592.92 191.808 588.69 177.942 580.786 166.154C572.883 154.367 561.662 145.187 548.541 139.777C535.421 134.367 520.991 132.969 507.076 135.76C493.162 138.552 480.387 145.406 470.368 155.458C460.349 165.509 453.536 178.306 450.79 192.229C447.13 210.897 451.024 230.254 461.617 246.055C472.211 261.855 488.64 272.808 507.299 276.511Z" fill="#37474F"/>
<path d="M602.243 186.183C607.312 206.538 604.566 228.053 594.549 246.483C584.532 264.913 567.971 278.919 548.133 285.737C528.296 292.555 506.623 291.69 487.392 283.312C468.161 274.935 452.769 259.653 444.253 240.483C435.737 221.313 434.716 199.647 441.391 179.761C448.065 159.875 461.952 143.213 480.309 133.064C498.667 122.914 520.162 120.014 540.553 124.935C560.943 129.857 578.749 142.243 590.456 159.649C595.911 167.733 599.901 176.715 602.243 186.183ZM444.808 224.874C449.424 243.697 460.826 260.152 476.829 271.085C492.831 282.017 512.306 286.657 531.519 284.113C550.731 281.57 568.329 272.023 580.935 257.304C593.542 242.585 600.271 223.729 599.831 204.354C599.39 184.979 591.813 166.448 578.55 152.316C565.288 138.185 547.276 129.447 527.967 127.779C508.659 126.111 489.415 131.63 473.925 143.278C458.436 154.925 447.792 171.882 444.036 190.894C441.814 202.142 442.077 213.739 444.808 224.874ZM593.222 188.402C596.19 200.509 596.061 213.169 592.845 225.213C589.629 237.257 583.43 248.297 574.821 257.313C566.212 266.329 555.471 273.031 543.588 276.799C531.705 280.568 519.065 281.282 506.833 278.875C494.861 276.523 483.654 271.254 474.206 263.534C464.758 255.815 457.36 245.884 452.668 234.622C447.976 223.359 446.134 211.113 447.307 198.969C448.48 186.825 452.631 175.158 459.392 165.001C466.153 154.845 475.315 146.514 486.066 140.745C496.817 134.977 508.825 131.95 521.026 131.933C533.226 131.915 545.243 134.908 556.01 140.646C566.778 146.384 575.963 154.69 582.753 164.827C587.586 172.017 591.129 179.995 593.222 188.402ZM507.766 274.131C523.523 277.259 539.878 274.824 554.042 267.243C568.206 259.662 579.302 247.403 585.439 232.556C591.576 217.71 592.374 201.194 587.697 185.825C583.019 170.456 573.157 157.185 559.79 148.273C546.423 139.362 530.379 135.362 514.393 136.956C498.407 138.55 483.469 145.639 472.125 157.014C460.781 168.389 453.733 183.347 452.182 199.337C450.632 215.327 454.675 231.36 463.623 244.702C473.861 259.969 489.736 270.552 507.766 274.131Z" fill="#37474F"/>
<g opacity="0.2">
<path d="M452.334 202.505C451.624 216.121 454.968 229.641 461.941 241.356C468.915 253.072 479.206 262.456 491.513 268.323C503.82 274.191 517.59 276.277 531.083 274.319C544.576 272.36 557.184 266.445 567.316 257.321C577.447 248.198 584.645 236.275 588 223.06C591.356 209.845 590.718 195.933 586.167 183.081C581.616 170.229 573.356 159.015 562.432 150.857C551.508 142.699 538.411 137.963 524.796 137.248C515.753 136.773 506.704 138.084 498.168 141.107C489.632 144.13 481.775 148.805 475.046 154.865C468.316 160.925 462.847 168.251 458.95 176.426C455.053 184.6 452.805 193.462 452.334 202.505Z" fill="white"/>
<path d="M454.07 221.932C458.251 239.624 469.244 254.952 484.66 264.587C500.076 274.222 518.671 277.386 536.406 273.392L454.07 221.932Z" fill="#EBEBEB"/>
<path d="M474.397 155.403L587.191 225.855C588.75 220.624 589.684 215.226 589.973 209.774C590.313 203.501 589.772 197.211 588.365 191.088L505.096 139.065C493.634 141.797 483.065 147.422 474.397 155.403Z" fill="#EBEBEB"/>
<path d="M453.041 195.655L560.48 262.762C564.192 260.182 567.645 257.247 570.788 253.998L456.386 182.533C454.829 186.782 453.709 191.179 453.041 195.655Z" fill="#EBEBEB"/>
<path d="M467.964 162.27L583.91 234.636C584.264 233.88 584.602 233.028 584.923 232.336L469.572 160.373C469.058 160.952 468.495 161.611 467.964 162.27Z" fill="#EBEBEB"/>
<path d="M528.253 137.521L579.713 169.684C578.635 167.931 577.445 166.226 576.207 164.57L534.396 138.422C532.289 138.02 530.311 137.714 528.253 137.521Z" fill="#EBEBEB"/>
</g>
<path d="M507.364 260.028C499.952 258.366 492.962 255.196 486.828 250.717C483.703 248.488 480.805 245.956 478.176 243.159C475.563 240.317 473.221 237.238 471.181 233.96C467.207 227.321 464.68 219.918 463.767 212.234C462.893 204.691 463.466 197.05 465.456 189.721C465.377 197.061 466.056 204.39 467.482 211.591C468.248 215.099 469.292 218.54 470.602 221.883C471.859 225.212 473.437 228.412 475.314 231.435C479.048 237.562 483.714 243.069 489.144 247.758C494.706 252.559 500.823 256.679 507.364 260.028Z" fill="white"/>
</svg>
