<svg width="18" height="20" fill="none" xmlns="http://www.w3.org/2000/svg"><path d="M17.25 3.688h-3.938V2.75A2.062 2.062 0 0 0 11.25.687h-4.5A2.063 2.063 0 0 0 4.687 2.75v.938H.75a.562.562 0 1 0 0 1.124h.938V18.5A1.313 1.313 0 0 0 3 19.813h12a1.313 1.313 0 0 0 1.313-1.313V4.812h.937a.562.562 0 1 0 0-1.125ZM5.812 2.75a.937.937 0 0 1 .938-.938h4.5a.937.937 0 0 1 .938.938v.938H5.811V2.75Zm9.375 15.75a.188.188 0 0 1-.187.188H3a.188.188 0 0 1-.188-.188V4.812h12.376V18.5ZM7.314 8.75v6a.562.562 0 1 1-1.125 0v-6a.563.563 0 1 1 1.125 0Zm4.5 0v6a.562.562 0 1 1-1.126 0v-6a.563.563 0 0 1 1.126 0Z" fill="#222"/></svg>