<svg width="67" height="68" viewBox="0 0 67 68" fill="none" xmlns="http://www.w3.org/2000/svg">
<path d="M22.7598 51.4263C21.5919 51.451 20.4803 51.9217 19.6633 52.7378C18.8462 53.5538 18.3887 54.6501 18.3887 55.7919C18.3887 56.9336 18.8462 58.0299 19.6633 58.846C20.4803 59.662 21.5919 60.1328 22.7598 60.1574H23.6537V51.4263H22.7598Z" fill="#263238"/>
<path d="M55.3026 51.4263C54.7079 51.4137 54.1166 51.5174 53.5634 51.7311C53.0102 51.9449 52.5063 52.2644 52.0812 52.671C51.656 53.0777 51.3183 53.5632 51.0877 54.0991C50.8571 54.635 50.7383 55.2105 50.7383 55.7919C50.7383 56.3733 50.8571 56.9488 51.0877 57.4847C51.3183 58.0206 51.656 58.5061 52.0812 58.9128C52.5063 59.3194 53.0102 59.6389 53.5634 59.8527C54.1166 60.0664 54.7079 60.1701 55.3026 60.1575H56.1944V51.4263H55.3026Z" fill="#263238"/>
<path d="M40.5564 60.1554C43.0227 60.1554 45.022 58.2013 45.022 55.7908C45.022 53.3804 43.0227 51.4263 40.5564 51.4263C38.0901 51.4263 36.0908 53.3804 36.0908 55.7908C36.0908 58.2013 38.0901 60.1554 40.5564 60.1554Z" fill="#263238"/>
<path d="M8.01052 60.1554C10.4768 60.1554 12.4761 58.2013 12.4761 55.7908C12.4761 53.3804 10.4768 51.4263 8.01052 51.4263C5.54424 51.4263 3.54492 53.3804 3.54492 55.7908C3.54492 58.2013 5.54424 60.1554 8.01052 60.1554Z" fill="#263238"/>
<path d="M45.4064 32.6519H28.4609V53.6949H45.4064V32.6519Z" fill="#FF9446"/>
<path opacity="0.2" d="M45.4064 32.6519H28.4609V53.6949H45.4064V32.6519Z" fill="black"/>
<path d="M62.5125 37.8852L62.3535 38.0176L63.0281 38.7914L63.1871 38.659L62.5125 37.8852Z" fill="#FF9446"/>
<path d="M59.7635 34.7255L59.6045 34.8579L61.7058 37.2677L61.8648 37.1353L59.7635 34.7255Z" fill="#FF9446"/>
<path d="M45.4062 53.6928H66.4518V44.5615C66.4521 43.8835 66.2047 43.2276 65.7542 42.712L59.2061 35.1914C58.512 34.395 57.6491 33.7554 56.6772 33.317C55.7053 32.8785 54.6476 32.6516 53.5772 32.6519H45.4062V53.6928Z" fill="#FF9446"/>
<path d="M48.8564 43.6932V35.9562C48.8564 35.7895 48.8901 35.6245 48.9554 35.4706C49.0207 35.3166 49.1164 35.1768 49.2371 35.0591C49.3577 34.9413 49.501 34.848 49.6586 34.7844C49.8162 34.7208 49.9851 34.6882 50.1556 34.6885H52.1712C53.2261 34.6885 54.2684 34.9123 55.2262 35.3444C56.184 35.7765 57.0344 36.4066 57.7187 37.1913L62.671 42.8705C62.8699 43.0982 62.9794 43.3877 62.9801 43.6871C62.9801 44.0235 62.8435 44.3462 62.6003 44.5842C62.3571 44.8223 62.0272 44.9563 61.683 44.9568H50.1556C49.8121 44.9568 49.4826 44.8239 49.2392 44.5871C48.9957 44.3503 48.8581 44.0289 48.8564 43.6932Z" fill="white"/>
<path d="M66.4521 51.2055H63.8538C63.7133 51.2055 63.5753 51.1696 63.4534 51.1013C63.3315 51.0331 63.2299 50.9349 63.1588 50.8165C63.0877 50.6981 63.0495 50.5636 63.0479 50.4263C63.0463 50.289 63.0815 50.1537 63.1499 50.0338L63.5886 49.2662C63.6579 49.1429 63.7598 49.0401 63.8835 48.9683C64.0073 48.8965 64.1485 48.8584 64.2924 48.8579H66.4521V51.2055Z" fill="white"/>
<path d="M41.6659 29.1157H0.708984V53.6924H41.6659V29.1157Z" fill="#FF9446"/>
<path opacity="0.6" d="M41.6659 29.1157H0.708984V53.6924H41.6659V29.1157Z" fill="white"/>
<path opacity="0.5" d="M18.7697 49.9463H11.7998V51.4263H18.7697V49.9463Z" fill="#FF9446"/>
<path opacity="0.5" d="M2.62221 49.9463H0.708984V51.4263H2.62221V49.9463Z" fill="#FF9446"/>
<path opacity="0.4" d="M14.8577 29.1157H0.708984V53.6924H14.8577V29.1157Z" fill="#FF9446"/>
<path opacity="0.4" d="M7.06667 29.1157H6.83984V53.6924H7.06667V29.1157Z" fill="#FF9446"/>
<path d="M66.6572 53.6924H0.504652C0.315471 53.6924 0.162109 53.8423 0.162109 54.0272V55.0622C0.162109 55.2471 0.315471 55.397 0.504652 55.397H66.6572C66.8464 55.397 66.9998 55.2471 66.9998 55.0622V54.0272C66.9998 53.8423 66.8464 53.6924 66.6572 53.6924Z" fill="#263238"/>
<path d="M56.199 60.1554C58.6653 60.1554 60.6646 58.2013 60.6646 55.7908C60.6646 53.3804 58.6653 51.4263 56.199 51.4263C53.7327 51.4263 51.7334 53.3804 51.7334 55.7908C51.7334 58.2013 53.7327 60.1554 56.199 60.1554Z" fill="#263238"/>
<path d="M56.1982 58.6009C57.7855 58.6009 59.0723 57.3433 59.0723 55.7919C59.0723 54.2405 57.7855 52.9829 56.1982 52.9829C54.611 52.9829 53.3242 54.2405 53.3242 55.7919C53.3242 57.3433 54.611 58.6009 56.1982 58.6009Z" fill="white"/>
<path d="M23.6521 60.1554C26.1184 60.1554 28.1177 58.2013 28.1177 55.7908C28.1177 53.3804 26.1184 51.4263 23.6521 51.4263C21.1858 51.4263 19.1865 53.3804 19.1865 55.7908C19.1865 58.2013 21.1858 60.1554 23.6521 60.1554Z" fill="#263238"/>
<path d="M23.6533 58.6009C25.2406 58.6009 26.5273 57.3433 26.5273 55.7919C26.5273 54.2405 25.2406 52.9829 23.6533 52.9829C22.066 52.9829 20.7793 54.2405 20.7793 55.7919C20.7793 57.3433 22.066 58.6009 23.6533 58.6009Z" fill="white"/>
<path d="M29.4737 65.2885L27.6983 65.2619L27.2158 61.2383L28.9891 61.2669L29.4737 65.2885Z" fill="#FF9446"/>
<path d="M27.6522 65.0625L29.5864 65.0911C29.6205 65.0909 29.6535 65.1031 29.679 65.1254C29.7045 65.1476 29.7206 65.1783 29.7242 65.2115L29.8934 66.7589C29.8966 66.7981 29.8914 66.8375 29.8781 66.8746C29.8648 66.9117 29.8437 66.9457 29.8161 66.9743C29.7886 67.003 29.7552 67.0257 29.7182 67.041C29.6811 67.0563 29.6412 67.0638 29.601 67.0631C28.9054 67.0406 27.9008 66.9855 27.0235 66.9733C25.998 66.9569 26.0983 66.9978 24.8952 66.9733C24.1683 66.9631 24.0597 66.2384 24.3647 66.1792C25.785 65.9036 25.927 65.8893 27.2094 65.185C27.3434 65.1067 27.4962 65.0645 27.6522 65.0625Z" fill="#263238"/>
<path d="M25.9197 13.4326C25.339 14.6452 24.7166 15.7904 24.0252 16.9336C23.6785 17.5011 23.3213 18.0666 22.9349 18.6219C22.747 18.8995 22.5444 19.1751 22.3438 19.4507C22.1433 19.7263 21.9261 19.9978 21.6943 20.2673L21.523 20.4714C21.4362 20.5764 21.3427 20.6759 21.2431 20.7695C21.1775 20.8324 21.1077 20.8911 21.0342 20.945C20.9538 21.0053 20.8686 21.0592 20.7794 21.1063C20.5842 21.2122 20.3725 21.286 20.1528 21.3247C19.7533 21.3892 19.3432 21.3411 18.9706 21.1859C18.7143 21.0772 18.4746 20.9343 18.2584 20.7613C17.9324 20.4982 17.6418 20.1957 17.3937 19.861C17.1743 19.571 16.9707 19.2698 16.7838 18.9587C16.4358 18.369 16.1254 17.7588 15.8543 17.1316C15.5859 16.5161 15.351 15.8872 15.1504 15.2474C15.1012 15.0826 15.1143 14.906 15.1873 14.7499C15.2603 14.5938 15.3884 14.4686 15.5482 14.3972C15.7079 14.3258 15.8886 14.313 16.0572 14.3612C16.2258 14.4094 16.371 14.5152 16.4663 14.6595L16.4788 14.6778C17.1355 15.736 17.8509 16.7583 18.6218 17.74C18.8022 17.9635 18.9947 18.1775 19.1983 18.381C19.3615 18.5488 19.5429 18.6987 19.7393 18.8281C19.8145 18.8709 19.875 18.8914 19.8792 18.8832C19.8834 18.875 19.804 18.8362 19.6703 18.8505C19.5813 18.8654 19.4961 18.8973 19.4197 18.9444C19.4093 18.9444 19.3988 18.9587 19.4594 18.8771L19.5889 18.6954C20.2859 17.676 20.9294 16.6227 21.5167 15.5393C22.1266 14.4451 22.7261 13.3101 23.2963 12.2098V12.1894C23.4661 11.8485 23.7674 11.5876 24.1341 11.4639C24.5007 11.3403 24.9026 11.364 25.2513 11.53C25.6 11.6959 25.867 11.9905 25.9935 12.3488C26.12 12.7071 26.0957 13.0999 25.9259 13.4407L25.9197 13.4326Z" fill="#FF9446"/>
<path d="M16.5342 15.1646L16.058 13.2334L14.2012 14.0153C14.2012 14.0153 14.3662 15.5484 15.6632 15.7382L16.5342 15.1646Z" fill="#263238"/>
<path d="M16.4363 14.6904C16.4363 14.6904 17.04 15.4498 17.1883 15.6581C16.9794 15.8622 15.6113 16.5379 15.5027 16.4746C15.3293 15.9908 15.085 15.3519 15.085 15.3519L16.4363 14.6904Z" fill="#263238"/>
<path d="M14.6686 12.0062L13.9856 12.6472C13.9315 12.6994 13.8931 12.765 13.8743 12.8369C13.8555 12.9088 13.8572 12.9844 13.8791 13.0555L14.2007 14.0089L16.0576 13.227L15.2952 12.0736C15.2611 12.0256 15.217 11.9853 15.1656 11.9554C15.1143 11.9255 15.057 11.9068 14.9976 11.9004C14.9382 11.894 14.8781 11.9002 14.8213 11.9184C14.7646 11.9367 14.7125 11.9666 14.6686 12.0062Z" fill="#263238"/>
<path d="M15.7218 14.2621C15.657 13.8701 16.0581 12.6412 16.3943 12.4656C16.7306 12.2901 16.5385 13.1372 16.5823 13.423C16.7035 14.2069 16.7452 14.9541 16.3338 14.9133C15.9223 14.8725 15.8262 14.9439 15.7218 14.2621Z" fill="#263238"/>
<path opacity="0.2" d="M27.2158 61.2402L27.4644 63.3143L29.2397 63.3409L28.9912 61.2668L27.2158 61.2402Z" fill="black"/>
<path d="M24.4847 11.1154C27.86 10.7071 31.1267 11.1481 32.9062 11.4849C33.0855 11.5192 33.256 11.588 33.4078 11.6873C33.5596 11.7867 33.6896 11.9146 33.7903 12.0635C33.891 12.2125 33.9604 12.3796 33.9943 12.555C34.0283 12.7305 34.0262 12.9107 33.9882 13.0854C32.6639 19.2709 32.8707 25.4931 32.76 26.816L23.2691 26.667C22.6195 19.0831 23.0289 14.2531 23.2795 12.2831C23.3187 11.9851 23.4585 11.7084 23.6769 11.4969C23.8952 11.2854 24.1795 11.1511 24.4847 11.1154Z" fill="#FF9446"/>
<path d="M30.4779 6.74316C30.1771 7.99047 29.8346 10.2891 30.7118 11.1996C29.9808 11.8324 29.0283 12.5551 27.4848 12.4959C25.9413 12.4367 26.2504 11.4242 26.6786 10.9077C28.1407 10.6749 28.1407 9.62566 27.9318 8.62536L30.4779 6.74316Z" fill="#FFB573"/>
<path opacity="0.2" d="M29.438 7.51025L27.9258 8.63304C27.9795 8.86523 28.0124 9.10158 28.0239 9.33937C28.5795 9.30263 29.3607 8.76573 29.4422 8.20638C29.4843 7.97603 29.4828 7.7401 29.438 7.51025Z" fill="black"/>
<path d="M30.9089 4.85106C30.6854 6.55565 30.6457 7.56615 29.6995 8.38068C28.2792 9.60554 26.1676 8.66444 25.8626 6.92515C25.589 5.35733 25.9984 2.8423 27.7613 2.27478C28.1516 2.15162 28.5675 2.12724 28.97 2.20391C29.3726 2.28057 29.7487 2.45579 30.0632 2.71316C30.3776 2.97053 30.6201 3.30164 30.768 3.67554C30.9159 4.04943 30.9644 4.45388 30.9089 4.85106Z" fill="#FFB573"/>
<path d="M31.0115 6.331C30.3222 6.73928 29.5348 6.53514 29.47 6.10644C29.4053 5.67774 29.917 4.93671 30.1092 4.57537C30.0549 3.96295 29.6121 3.7833 29.6914 3.35052C29.1755 3.39747 26.3621 3.522 26.4289 2.9014C26.4957 2.28081 27.6111 1.64185 28.9353 1.80312C30.2595 1.96439 31.1263 2.52782 31.001 3.31581C31.7404 3.19945 32.0809 4.42227 31.0115 6.331Z" fill="#263238"/>
<path d="M31.6269 6.59249C31.5101 6.77379 31.3576 6.93064 31.1783 7.05398C30.9991 7.17733 30.7966 7.26471 30.5826 7.31107C30.0103 7.43152 29.7471 6.92321 29.9372 6.41285C30.1022 5.95149 30.5993 5.33498 31.1632 5.44317C31.2859 5.46817 31.4004 5.5226 31.4962 5.60156C31.5921 5.68053 31.6664 5.78155 31.7124 5.89554C31.7584 6.00953 31.7746 6.13291 31.7597 6.25457C31.7448 6.37623 31.6991 6.49236 31.6269 6.59249Z" fill="#FFB573"/>
<path d="M28.7775 43.8803C28.7065 35.1593 30.6803 26.7834 30.6803 26.7834L23.2822 26.667C23.2822 26.667 24.1323 39.2626 24.4289 44.5397C24.7359 50.025 26.7641 62.9125 26.7641 62.9125L29.7676 62.9554C29.7676 62.9554 29.1953 50.764 28.7775 43.8803Z" fill="#FF9446"/>
<path opacity="0.4" d="M28.7775 43.8803C28.7065 35.1593 30.6803 26.7834 30.6803 26.7834L23.2822 26.667C23.2822 26.667 24.1323 39.2626 24.4289 44.5397C24.7359 50.025 26.7641 62.9125 26.7641 62.9125L29.7676 62.9554C29.7676 62.9554 29.1953 50.764 28.7775 43.8803Z" fill="black"/>
<path opacity="0.2" d="M29.0637 31.5832C26.9541 34.4045 27.9024 39.7122 28.7671 43.4643C28.8014 39.3273 29.1611 35.1989 29.8427 31.1157L29.0637 31.5832Z" fill="black"/>
<path d="M26.3613 61.77L26.5556 62.9663L29.8766 63.0214L30.0646 61.8905L26.3613 61.77Z" fill="#263238"/>
<path d="M28.5678 5.13624C28.5678 5.27506 28.4759 5.38325 28.3819 5.37509C28.2879 5.36692 28.2211 5.25056 28.2315 5.11174C28.242 4.97292 28.3234 4.86473 28.4174 4.87085C28.5114 4.87698 28.5845 4.99538 28.5678 5.13624Z" fill="#263238"/>
<path d="M26.727 4.93458C26.727 5.07544 26.6351 5.18159 26.5411 5.17547C26.4471 5.16934 26.3803 5.0489 26.3907 4.91008C26.4012 4.77126 26.4826 4.66307 26.5766 4.66919C26.6706 4.67532 26.7374 4.79576 26.727 4.93458Z" fill="#263238"/>
<path d="M27.1061 5.0459C26.9078 5.45986 26.6512 5.84465 26.3438 6.1891C26.4366 6.26418 26.545 6.31875 26.6614 6.34905C26.7779 6.37936 26.8996 6.38468 27.0184 6.36466L27.1061 5.0459Z" fill="#ED893E"/>
<path d="M27.5984 6.85984C27.759 6.85215 27.9162 6.81187 28.06 6.74159C28.2039 6.6713 28.3312 6.57253 28.4338 6.45156C28.4405 6.44289 28.4433 6.432 28.4418 6.42128C28.4402 6.41056 28.4344 6.40089 28.4255 6.3944C28.4166 6.3879 28.4055 6.38511 28.3945 6.38664C28.3836 6.38817 28.3737 6.3939 28.367 6.40256C28.2495 6.53253 28.102 6.63328 27.9367 6.69647C27.7715 6.75966 27.5932 6.78347 27.4167 6.76594C27.4102 6.76454 27.4036 6.76458 27.3972 6.76603C27.3908 6.76749 27.3848 6.77033 27.3797 6.77434C27.3746 6.77836 27.3704 6.78345 27.3676 6.78924C27.3648 6.79503 27.3633 6.80137 27.3633 6.80778C27.3633 6.8142 27.3648 6.82054 27.3676 6.82633C27.3704 6.83212 27.3746 6.83721 27.3797 6.84123C27.3848 6.84524 27.3908 6.84808 27.3972 6.84954C27.4036 6.85099 27.4102 6.85103 27.4167 6.84963C27.4769 6.85695 27.5376 6.86035 27.5984 6.85984Z" fill="#263238"/>
<path d="M28.8684 4.6702C28.8826 4.66996 28.8964 4.66571 28.9081 4.65795C28.9174 4.65199 28.9253 4.64427 28.9315 4.63527C28.9377 4.62626 28.942 4.61614 28.9441 4.6055C28.9463 4.59486 28.9462 4.58391 28.944 4.57329C28.9417 4.56266 28.9373 4.55258 28.9311 4.54363C28.861 4.43197 28.7644 4.33844 28.6495 4.27093C28.5346 4.20343 28.4048 4.16392 28.271 4.15576C28.2489 4.15576 28.2276 4.16436 28.212 4.17968C28.1963 4.19499 28.1875 4.21576 28.1875 4.23742C28.1875 4.25962 28.1965 4.28091 28.2126 4.2966C28.2286 4.3123 28.2504 4.32112 28.2731 4.32112C28.3785 4.32971 28.4803 4.36247 28.5703 4.41674C28.6604 4.47101 28.736 4.54526 28.7911 4.63346C28.7994 4.64585 28.811 4.65581 28.8246 4.66229C28.8382 4.66876 28.8533 4.67149 28.8684 4.6702Z" fill="#263238"/>
<path d="M25.9357 4.28778C25.9492 4.28968 25.963 4.28825 25.9757 4.28362C25.9885 4.27898 25.9999 4.27129 26.0088 4.26124C26.0754 4.18126 26.1605 4.11802 26.2572 4.07682C26.3538 4.03562 26.4592 4.01765 26.5644 4.02443C26.5865 4.02677 26.6087 4.02062 26.6262 4.00729C26.6437 3.99396 26.6553 3.97448 26.6584 3.95298C26.6599 3.94225 26.6591 3.93134 26.6562 3.92088C26.6533 3.91043 26.6484 3.90064 26.6415 3.89209C26.6347 3.88354 26.6263 3.8764 26.6166 3.87108C26.607 3.86577 26.5963 3.86238 26.5853 3.86112C26.4527 3.85151 26.3196 3.87299 26.1972 3.92376C26.0748 3.97454 25.9665 4.05314 25.8814 4.15305C25.8674 4.16961 25.8607 4.1909 25.8626 4.2123C25.8646 4.2337 25.8751 4.25348 25.8919 4.26736C25.9037 4.27886 25.9192 4.28606 25.9357 4.28778Z" fill="#263238"/>
<path d="M38.8767 65.2885L37.0992 65.2619L36.3682 61.2383L38.1456 61.2669L38.8767 65.2885Z" fill="#FF9446"/>
<path d="M37.0034 65.0625L38.9375 65.0911C38.972 65.0912 39.0053 65.1035 39.0314 65.1256C39.0575 65.1477 39.0745 65.1782 39.0795 65.2115L39.303 66.7589C39.3082 66.7975 39.3047 66.8366 39.2929 66.8737C39.2811 66.9108 39.2612 66.945 39.2346 66.9739C39.2081 67.0028 39.1754 67.0257 39.1389 67.0411C39.1024 67.0565 39.0629 67.064 39.0232 67.0631C38.3255 67.0407 38.1062 66.9855 37.229 66.9733C36.2014 66.957 36.6776 66.9978 35.4724 66.9733C34.7455 66.9631 34.6035 66.2425 34.9126 66.1792C35.8901 65.975 36.1345 65.5933 36.5648 65.185C36.6891 65.0899 36.8465 65.0459 37.0034 65.0625Z" fill="#263238"/>
<path d="M37.3732 65.2429C37.0661 65.2531 36.9011 65.2429 36.8218 65.1061C36.7424 64.9694 36.4646 64.5713 36.4855 64.4223C36.5064 64.2732 37.7533 64.1507 37.8766 64.3916C37.9998 64.6325 37.9998 65.2266 37.3732 65.2429Z" fill="#263238"/>
<path d="M27.5856 65.2435C27.3935 65.2537 27.2911 65.2435 27.2452 65.1067C27.1497 64.888 27.0837 64.6582 27.0488 64.4229C27.0634 64.2718 27.8467 64.1513 27.9198 64.3922C27.9929 64.6331 27.9762 65.2272 27.5856 65.2435Z" fill="#263238"/>
<path opacity="0.2" d="M36.3682 61.2402L36.7462 63.3143L38.5237 63.3409L38.1456 61.2668L36.3682 61.2402Z" fill="black"/>
<path d="M35.8379 42.8506C35.0024 34.9952 34.0207 28.5606 32.7633 26.8172L26.4785 26.7192C26.4785 26.7192 30.1441 39.0413 31.5561 44.2347C33.0182 49.6342 35.9026 62.3911 35.9026 62.3911L38.7641 62.4299C38.7641 62.4299 37.5798 48.9871 35.8379 42.8506Z" fill="#FF9446"/>
<path opacity="0.4" d="M35.8379 42.8506C35.0024 34.9952 34.0207 28.5606 32.7633 26.8172L26.4785 26.7192C26.4785 26.7192 30.1441 39.0413 31.5561 44.2347C33.0182 49.6342 35.9026 62.3911 35.9026 62.3911L38.7641 62.4299C38.7641 62.4299 37.5798 48.9871 35.8379 42.8506Z" fill="black"/>
<path d="M35.5439 61.77L35.7758 62.9663L38.9882 63.0214L39.1302 61.8905L35.5439 61.77Z" fill="#263238"/>
<path d="M28.6031 13.7571C28.5843 13.3202 28.0705 12.7364 27.7363 12.4975C30.2114 11.83 30.6751 10.9521 30.6751 10.9521C30.853 10.9974 31.0237 11.066 31.1826 11.1563C31.3289 12.5118 29.612 13.4447 28.6031 13.7571Z" fill="white"/>
<path d="M27.1434 12.4637C26.5883 12.7162 26.1328 13.1391 25.8464 13.6681C24.8167 11.8717 26.2641 10.8346 26.2641 10.8346C26.4243 10.7904 26.5922 10.7793 26.757 10.802C26.4792 11.4021 26.7988 12.1922 27.1434 12.4637Z" fill="white"/>
<path d="M41.8369 14.5398L26.1143 16.916L27.8761 28.0523L43.5987 25.6762L41.8369 14.5398Z" fill="#FF9446"/>
<path opacity="0.9" d="M41.8369 14.5398L26.1143 16.916L27.8761 28.0523L43.5987 25.6762L41.8369 14.5398Z" fill="white"/>
<path opacity="0.2" d="M41.8373 14.5381L33.6406 15.7769L35.4025 26.9132L43.5992 25.6744L41.8373 14.5381Z" fill="#FF9446"/>
<path opacity="0.3" d="M30.3766 24.5362L28.4033 24.8345L28.7008 26.7147L30.6741 26.4165L30.3766 24.5362Z" fill="#FF9446"/>
<path opacity="0.3" d="M30.0085 22.2052L28.0352 22.5034L28.3326 24.3837L30.306 24.0855L30.0085 22.2052Z" fill="#FF9446"/>
<path opacity="0.5" d="M31.1819 16.1508L28.3994 16.5713L28.5478 17.5094L31.3303 17.0889L31.1819 16.1508Z" fill="#FF9446"/>
<path opacity="0.5" d="M39.8854 14.8325L37.9307 15.1279L38.0791 16.066L40.0338 15.7706L39.8854 14.8325Z" fill="#FF9446"/>
<path d="M33.4204 11.6956C34.6256 12.2583 35.7878 12.905 36.8981 13.6308C37.481 14.0041 38.0391 14.4132 38.569 14.8557C38.8594 15.1012 39.1329 15.3651 39.3878 15.6457C39.5337 15.8111 39.6684 15.9857 39.7909 16.1683C39.9489 16.4002 40.0733 16.6523 40.1606 16.9175C40.2203 17.0973 40.2555 17.284 40.265 17.4728C40.268 17.5054 40.268 17.5382 40.265 17.5708V17.6402V17.781L40.2546 18.0628L40.2295 18.3261C40.2128 18.5017 40.194 18.6772 40.1647 18.8426C40.1355 19.0079 40.1167 19.1794 40.0833 19.3407C39.9726 20.0001 39.8097 20.6268 39.6468 21.2515C39.3071 22.4891 38.8886 23.7048 38.3935 24.8913C38.3273 25.0515 38.2037 25.1827 38.0459 25.2605C37.888 25.3383 37.7066 25.3573 37.5355 25.3141C37.3643 25.2709 37.2151 25.1684 37.1155 25.0257C37.0159 24.8829 36.9728 24.7097 36.9941 24.5382V24.5218C37.1424 23.297 37.3241 22.0599 37.4557 20.8473C37.5288 20.2348 37.5852 19.6367 37.6228 19.0508C37.6354 18.9038 37.6354 18.763 37.6437 18.618C37.6521 18.4731 37.6437 18.3343 37.6437 18.1975V17.9934V17.8055V17.7116V17.6647C37.6437 17.6647 37.6437 17.6177 37.6437 17.6443C37.642 17.6769 37.642 17.7096 37.6437 17.7423C37.6437 17.7647 37.6207 17.7198 37.5706 17.6647C37.5059 17.592 37.4361 17.5238 37.3617 17.4605C37.1781 17.2855 36.9835 17.1219 36.779 16.9706C36.3362 16.6419 35.8391 16.3194 35.3274 16.0111C34.3018 15.3987 33.199 14.8108 32.1233 14.2535H32.1087C31.7747 14.0764 31.5244 13.7792 31.4107 13.4248C31.297 13.0705 31.329 12.6868 31.4998 12.355C31.6706 12.0233 31.9668 11.7696 32.3257 11.6476C32.6846 11.5257 33.078 11.545 33.4225 11.7017L33.4204 11.6956Z" fill="#FF9446"/>
<path d="M37.1453 24.2114L36.0801 25.6241L38.1019 26.3468C38.1019 26.3468 38.9081 24.9525 38.2189 24.4156L37.1453 24.2114Z" fill="#263238"/>
<path d="M36.3468 27.4296L37.0987 27.5664C37.2436 27.5915 37.3929 27.566 37.5204 27.4943C37.6479 27.4227 37.7456 27.3094 37.7963 27.1744L38.1013 26.3579L36.0857 25.625L35.8559 26.709C35.8233 26.8682 35.8567 27.0335 35.9488 27.1686C36.0408 27.3037 36.184 27.3976 36.3468 27.4296Z" fill="#263238"/>
<path d="M36.9707 24.6044C36.9707 24.6044 37.0083 23.6429 37.0334 23.3918C37.3279 23.3735 38.8192 23.7103 38.8568 23.8287C38.673 24.3105 38.439 24.9515 38.439 24.9515L36.9707 24.6044Z" fill="#263238"/>
<path d="M31.8703 4.55077C30.8615 4.44054 26.7175 3.45453 26.3332 3.06462C26.3061 2.31133 26.751 1.54988 27.0246 1.3784C27.7869 0.888457 29.4641 0.870085 29.9968 1.01707C30.5294 1.16405 31.9873 1.88875 32.2296 2.58692C32.4175 3.14015 31.8703 4.55077 31.8703 4.55077Z" fill="#FF9446"/>
<path d="M27.6854 2.82972C26.4134 2.63579 25.2041 2.72153 24.7759 3.35029C24.2976 4.05254 25.8725 3.00937 26.8124 3.45848C28.3851 4.21381 28.0113 4.33221 30.3944 4.27505C29.1684 3.66671 29.16 3.05428 27.6854 2.82972Z" fill="#FF9446"/>
<path opacity="0.6" d="M27.6854 2.82972C26.4134 2.63579 25.2041 2.72153 24.7759 3.35029C24.2976 4.05254 25.8725 3.00937 26.8124 3.45848C28.3851 4.21381 28.0113 4.33221 30.3944 4.27505C29.1684 3.66671 29.16 3.05428 27.6854 2.82972Z" fill="white"/>
<path d="M30.5229 5.75286C30.5479 5.73521 30.565 5.70874 30.5704 5.67903C30.5759 5.64932 30.5693 5.6187 30.5521 5.59363C30.5341 5.56903 30.5068 5.55243 30.4763 5.54745C30.4457 5.54248 30.4144 5.54954 30.3892 5.56709C29.9531 5.86129 29.5467 6.19556 29.1757 6.56535C28.7203 6.10195 27.44 5.61405 26.7695 5.62425C26.2912 5.62425 25.9737 5.6018 25.6166 5.9468C25.3116 6.23872 25.5644 7.78408 25.7565 8.22095C25.8674 8.46059 26.0323 8.67265 26.2388 8.84126C26.4453 9.00988 26.6881 9.13071 26.9491 9.1947C27.6551 9.31923 29.1631 9.39885 29.2258 8.39038C29.239 8.16399 29.269 7.93884 29.3156 7.71671C29.4157 7.73347 29.517 7.74234 29.6185 7.74325C29.9239 7.74973 30.2226 7.65553 30.4665 7.47582C30.4787 7.46681 30.4889 7.45551 30.4966 7.44257C30.5043 7.42964 30.5092 7.41534 30.5112 7.4005C30.5131 7.38567 30.512 7.37061 30.5079 7.3562C30.5039 7.34179 30.4969 7.32832 30.4874 7.31659C30.478 7.30459 30.4662 7.29454 30.4528 7.28701C30.4394 7.27948 30.4246 7.27462 30.4092 7.27273C30.3939 7.27083 30.3783 7.27192 30.3634 7.27595C30.3485 7.27997 30.3345 7.28685 30.3224 7.29618C30.1851 7.39122 30.0296 7.45827 29.8653 7.49334C29.7009 7.52841 29.5311 7.53079 29.3657 7.50032C29.4326 7.20227 29.466 7.01038 29.3177 6.76133C29.684 6.38667 30.0877 6.04883 30.5229 5.75286Z" fill="#FF9446"/>
<path opacity="0.6" d="M30.5229 5.75286C30.5479 5.73521 30.565 5.70874 30.5704 5.67903C30.5759 5.64932 30.5693 5.6187 30.5521 5.59363C30.5341 5.56903 30.5068 5.55243 30.4763 5.54745C30.4457 5.54248 30.4144 5.54954 30.3892 5.56709C29.9531 5.86129 29.5467 6.19556 29.1757 6.56535C28.7203 6.10195 27.44 5.61405 26.7695 5.62425C26.2912 5.62425 25.9737 5.6018 25.6166 5.9468C25.3116 6.23872 25.5644 7.78408 25.7565 8.22095C25.8674 8.46059 26.0323 8.67265 26.2388 8.84126C26.4453 9.00988 26.6881 9.13071 26.9491 9.1947C27.6551 9.31923 29.1631 9.39885 29.2258 8.39038C29.239 8.16399 29.269 7.93884 29.3156 7.71671C29.4157 7.73347 29.517 7.74234 29.6185 7.74325C29.9239 7.74973 30.2226 7.65553 30.4665 7.47582C30.4787 7.46681 30.4889 7.45551 30.4966 7.44257C30.5043 7.42964 30.5092 7.41534 30.5112 7.4005C30.5131 7.38567 30.512 7.37061 30.5079 7.3562C30.5039 7.34179 30.4969 7.32832 30.4874 7.31659C30.478 7.30459 30.4662 7.29454 30.4528 7.28701C30.4394 7.27948 30.4246 7.27462 30.4092 7.27273C30.3939 7.27083 30.3783 7.27192 30.3634 7.27595C30.3485 7.27997 30.3345 7.28685 30.3224 7.29618C30.1851 7.39122 30.0296 7.45827 29.8653 7.49334C29.7009 7.52841 29.5311 7.53079 29.3657 7.50032C29.4326 7.20227 29.466 7.01038 29.3177 6.76133C29.684 6.38667 30.0877 6.04883 30.5229 5.75286Z" fill="white"/>
</svg>
