<svg width="67" height="68" fill="none" xmlns="http://www.w3.org/2000/svg"><path d="M22.76 51.426a4.517 4.517 0 0 0-3.097 1.312 4.316 4.316 0 0 0-1.274 3.054c0 1.142.457 2.238 1.274 3.054a4.517 4.517 0 0 0 3.097 1.311h.894v-8.73h-.894ZM55.303 51.426a4.56 4.56 0 0 0-1.74.305 4.48 4.48 0 0 0-1.482.94 4.364 4.364 0 0 0-.993 1.428 4.281 4.281 0 0 0 0 3.386c.23.536.568 1.021.993 1.428a4.48 4.48 0 0 0 1.482.94 4.56 4.56 0 0 0 1.74.304h.891v-8.73h-.891ZM40.556 60.155c2.467 0 4.466-1.954 4.466-4.364s-2-4.365-4.466-4.365-4.465 1.954-4.465 4.365c0 2.41 2 4.364 4.465 4.364ZM8.01 60.155c2.467 0 4.466-1.954 4.466-4.364s-2-4.365-4.465-4.365c-2.467 0-4.466 1.954-4.466 4.365 0 2.41 2 4.364 4.466 4.364Z" fill="#263238"/><path d="M45.406 32.652H28.461v21.043h16.945V32.652Z" fill="#FF9446"/><path opacity=".2" d="M45.406 32.652H28.461v21.043h16.945V32.652Z" fill="#000"/><path d="m62.513 37.885-.16.133.675.773.16-.132-.675-.774ZM59.764 34.725l-.16.133 2.102 2.41.159-.133-2.102-2.41ZM45.406 53.693h21.046v-9.131c0-.678-.247-1.334-.698-1.85l-6.548-7.52a7.376 7.376 0 0 0-2.529-1.875 7.535 7.535 0 0 0-3.1-.665h-8.17v21.04Z" fill="#FF9446"/><path d="M48.856 43.693v-7.737a1.243 1.243 0 0 1 .381-.897 1.298 1.298 0 0 1 .919-.37h2.015c1.055 0 2.097.223 3.055.655a7.274 7.274 0 0 1 2.493 1.847l4.952 5.68c.199.227.308.517.31.816 0 .337-.138.66-.38.897a1.314 1.314 0 0 1-.918.373H50.156c-.344 0-.673-.133-.917-.37a1.256 1.256 0 0 1-.383-.894ZM66.452 51.206h-2.598a.82.82 0 0 1-.695-.39.775.775 0 0 1-.01-.782l.44-.768a.796.796 0 0 1 .294-.298.821.821 0 0 1 .41-.11h2.16v2.348Z" fill="#fff"/><path d="M41.666 29.116H.709v24.576h40.957V29.116Z" fill="#FF9446"/><path opacity=".6" d="M41.666 29.116H.709v24.576h40.957V29.116Z" fill="#fff"/><path opacity=".5" d="M18.77 49.946H11.8v1.48h6.97v-1.48ZM2.622 49.946H.71v1.48h1.913v-1.48Z" fill="#FF9446"/><path opacity=".4" d="M14.858 29.116H.709v24.576h14.149V29.116Z" fill="#FF9446"/><path opacity=".4" d="M7.067 29.116H6.84v24.576h.227V29.116Z" fill="#FF9446"/><path d="M66.657 53.692H.505c-.19 0-.343.15-.343.335v1.035c0 .185.153.335.343.335h66.152c.19 0 .343-.15.343-.335v-1.035a.339.339 0 0 0-.343-.335Z" fill="#263238"/><path d="M56.199 60.155c2.466 0 4.466-1.954 4.466-4.364s-2-4.365-4.466-4.365-4.466 1.954-4.466 4.365c0 2.41 2 4.364 4.466 4.364Z" fill="#263238"/><path d="M56.198 58.6c1.587 0 2.874-1.257 2.874-2.808 0-1.552-1.287-2.81-2.874-2.81-1.587 0-2.874 1.258-2.874 2.81 0 1.551 1.287 2.809 2.874 2.809Z" fill="#fff"/><path d="M23.652 60.155c2.466 0 4.466-1.954 4.466-4.364s-2-4.365-4.466-4.365-4.466 1.954-4.466 4.365c0 2.41 2 4.364 4.466 4.364Z" fill="#263238"/><path d="M23.653 58.6c1.588 0 2.874-1.257 2.874-2.808 0-1.552-1.286-2.81-2.874-2.81-1.587 0-2.874 1.258-2.874 2.81 0 1.551 1.287 2.809 2.874 2.809Z" fill="#fff"/><path d="m29.474 65.288-1.776-.026-.482-4.024 1.773.029.485 4.021Z" fill="#FF9446"/><path d="m27.652 65.063 1.934.028a.14.14 0 0 1 .093.034.133.133 0 0 1 .045.087l.17 1.547a.276.276 0 0 1-.078.215.288.288 0 0 1-.215.09c-.696-.023-1.7-.078-2.578-.09-1.025-.017-.925.024-2.128 0-.727-.01-.835-.736-.53-.795 1.42-.275 1.562-.29 2.844-.994a.901.901 0 0 1 .443-.123Z" fill="#263238"/><path d="M25.92 13.433a40.534 40.534 0 0 1-1.895 3.5 33.693 33.693 0 0 1-1.09 1.689c-.188.277-.39.553-.591.829-.2.275-.418.547-.65.816l-.171.204c-.087.105-.18.205-.28.299a2.075 2.075 0 0 1-.464.336c-.195.106-.407.18-.626.219-.4.064-.81.016-1.182-.14a3.039 3.039 0 0 1-.713-.424 4.93 4.93 0 0 1-.864-.9c-.22-.29-.423-.591-.61-.902a16.39 16.39 0 0 1-.93-1.827 18.74 18.74 0 0 1-.704-1.885.7.7 0 0 1 .037-.497.723.723 0 0 1 .361-.353.746.746 0 0 1 .51-.036.73.73 0 0 1 .408.298l.013.019a33.91 33.91 0 0 0 2.143 3.062c.18.224.373.438.576.641.163.168.345.318.541.447.075.043.136.063.14.055.004-.008-.075-.047-.209-.032a.697.697 0 0 0-.25.093c-.01 0-.021.015.04-.067l.129-.182a35.929 35.929 0 0 0 1.928-3.156c.61-1.094 1.21-2.229 1.78-3.33v-.02c.17-.34.47-.601.837-.725s.769-.1 1.117.066c.349.166.616.46.742.819a1.4 1.4 0 0 1-.067 1.092l-.006-.008Z" fill="#FF9446"/><path d="m16.534 15.165-.476-1.932-1.857.782s.165 1.533 1.462 1.723l.871-.573Z" fill="#263238"/><path d="M16.436 14.69s.604.76.752.968c-.209.204-1.577.88-1.685.817-.174-.484-.418-1.123-.418-1.123l1.351-.662ZM14.669 12.006l-.683.641a.407.407 0 0 0-.107.409l.322.953 1.857-.782-.763-1.153a.414.414 0 0 0-.297-.174.428.428 0 0 0-.33.106Z" fill="#263238"/><path d="M15.722 14.262c-.065-.392.336-1.62.672-1.796.337-.176.145.671.188.957.121.784.163 1.531-.248 1.49-.412-.04-.508.03-.612-.65Z" fill="#263238"/><path opacity=".2" d="m27.216 61.24.248 2.074 1.776.027-.249-2.074-1.775-.027Z" fill="#000"/><path d="M24.485 11.115c3.375-.408 6.642.033 8.421.37a1.362 1.362 0 0 1 .884.579 1.328 1.328 0 0 1 .198 1.021c-1.324 6.186-1.117 12.408-1.228 13.731l-9.49-.149c-.65-7.584-.241-12.414.01-14.384.039-.298.178-.575.397-.786.218-.212.503-.346.808-.382Z" fill="#FF9446"/><path d="M30.478 6.743c-.3 1.247-.643 3.546.234 4.457-.731.632-1.684 1.355-3.227 1.296-1.544-.06-1.235-1.072-.806-1.588 1.462-.233 1.462-1.282 1.253-2.283l2.546-1.882Z" fill="#FFB573"/><path opacity=".2" d="m29.438 7.51-1.512 1.123c.054.232.086.469.098.706.555-.036 1.337-.573 1.418-1.133.042-.23.04-.466-.004-.696Z" fill="#000"/><path d="M30.909 4.851c-.224 1.705-.263 2.715-1.21 3.53-1.42 1.225-3.531.283-3.836-1.456-.274-1.568.135-4.083 1.898-4.65a2.478 2.478 0 0 1 2.302.438c.315.258.557.589.705.963.148.373.196.778.14 1.175Z" fill="#FFB573"/><path d="M31.012 6.331c-.69.408-1.477.204-1.542-.225-.065-.428.447-1.17.64-1.53-.055-.613-.498-.793-.419-1.225-.515.046-3.329.171-3.262-.45.067-.62 1.182-1.26 2.506-1.098 1.325.161 2.191.725 2.066 1.513.74-.117 1.08 1.106.01 3.015Z" fill="#263238"/><path d="M31.627 6.592c-.117.182-.27.339-.449.462s-.381.21-.595.257c-.573.12-.836-.388-.646-.898.165-.462.662-1.078 1.226-.97.123.025.237.08.333.159a.74.74 0 0 1 .264.653.73.73 0 0 1-.133.337Z" fill="#FFB573"/><path d="M28.777 43.88c-.07-8.72 1.903-17.097 1.903-17.097l-7.398-.116s.85 12.596 1.147 17.873c.307 5.485 2.335 18.373 2.335 18.373l3.004.042s-.573-12.191-.99-19.075Z" fill="#FF9446"/><path opacity=".4" d="M28.777 43.88c-.07-8.72 1.903-17.097 1.903-17.097l-7.398-.116s.85 12.596 1.147 17.873c.307 5.485 2.335 18.373 2.335 18.373l3.004.042s-.573-12.191-.99-19.075Z" fill="#000"/><path opacity=".2" d="M29.064 31.583c-2.11 2.822-1.162 8.13-.297 11.881a78.971 78.971 0 0 1 1.076-12.348l-.78.467Z" fill="#000"/><path d="m26.361 61.77.195 1.196 3.32.055.189-1.13-3.704-.121ZM28.568 5.136c0 .14-.092.247-.186.24-.094-.01-.16-.125-.15-.264.01-.14.091-.247.185-.241.094.006.167.124.15.265ZM26.727 4.935c0 .14-.092.247-.186.24-.094-.006-.16-.126-.15-.265.01-.139.092-.247.186-.24.094.005.16.126.15.265Z" fill="#263238"/><path d="M27.106 5.046a4.89 4.89 0 0 1-.762 1.143.842.842 0 0 0 .674.176l.088-1.32Z" fill="#ED893E"/><path d="M27.598 6.86a1.18 1.18 0 0 0 .836-.408.04.04 0 0 0-.009-.058.043.043 0 0 0-.058.009 1.14 1.14 0 0 1-.97.363.044.044 0 0 0-.03.023.043.043 0 0 0 0 .037.043.043 0 0 0 .03.024.045.045 0 0 0 .02 0c.06.007.12.01.181.01ZM28.868 4.67a.074.074 0 0 0 .04-.012.082.082 0 0 0 .036-.053.08.08 0 0 0-.013-.061.85.85 0 0 0-.66-.388.084.084 0 0 0-.059.024.08.08 0 0 0-.024.057c0 .023.009.044.025.06a.086.086 0 0 0 .06.024.683.683 0 0 1 .518.312.084.084 0 0 0 .077.037ZM25.936 4.288a.083.083 0 0 0 .073-.027.66.66 0 0 1 .555-.237.087.087 0 0 0 .062-.017.083.083 0 0 0 .032-.054.08.08 0 0 0-.017-.06.082.082 0 0 0-.056-.032.853.853 0 0 0-.704.292.08.08 0 0 0 .01.114.074.074 0 0 0 .045.02Z" fill="#263238"/><path d="m38.877 65.288-1.778-.026-.73-4.024 1.777.029.73 4.021Z" fill="#FF9446"/><path d="m37.003 65.063 1.934.028c.035 0 .068.013.094.035a.14.14 0 0 1 .049.085l.223 1.548a.263.263 0 0 1-.068.215.275.275 0 0 1-.212.09c-.698-.023-.917-.078-1.794-.09-1.028-.017-.551.024-1.757 0-.727-.01-.869-.731-.56-.795.978-.204 1.223-.586 1.653-.994a.616.616 0 0 1 .438-.123Z" fill="#263238"/><path d="M37.373 65.243c-.307.01-.472 0-.551-.137-.08-.137-.357-.535-.337-.684.021-.149 1.268-.271 1.392-.03.123.24.123.835-.504.85ZM27.586 65.243c-.192.01-.295 0-.34-.136a2.697 2.697 0 0 1-.197-.684c.014-.151.798-.272.87-.03.074.24.057.834-.333.85Z" fill="#263238"/><path opacity=".2" d="m36.368 61.24.378 2.074 1.778.027-.378-2.074-1.778-.027Z" fill="#000"/><path d="M35.838 42.85c-.836-7.855-1.817-14.29-3.075-16.033l-6.284-.098s3.665 12.322 5.077 17.516c1.462 5.4 4.347 18.156 4.347 18.156l2.861.039s-1.184-13.443-2.926-19.58Z" fill="#FF9446"/><path opacity=".4" d="M35.838 42.85c-.836-7.855-1.817-14.29-3.075-16.033l-6.284-.098s3.665 12.322 5.077 17.516c1.462 5.4 4.347 18.156 4.347 18.156l2.861.039s-1.184-13.443-2.926-19.58Z" fill="#000"/><path d="m35.544 61.77.232 1.196 3.212.055.142-1.13-3.586-.121Z" fill="#263238"/><path d="M28.603 13.757c-.019-.437-.533-1.02-.867-1.26 2.475-.667 2.94-1.545 2.94-1.545.177.045.348.114.507.204.146 1.356-1.571 2.289-2.58 2.601ZM27.143 12.464a2.781 2.781 0 0 0-1.297 1.204c-1.03-1.796.418-2.833.418-2.833.16-.045.328-.056.493-.033-.278.6.042 1.39.386 1.662Z" fill="#fff"/><path d="m41.837 14.54-15.723 2.376 1.762 11.136L43.6 25.676 41.837 14.54Z" fill="#FF9446"/><path opacity=".9" d="m41.837 14.54-15.723 2.376 1.762 11.136L43.6 25.676 41.837 14.54Z" fill="#fff"/><path opacity=".2" d="m41.837 14.538-8.196 1.239 1.762 11.136 8.196-1.239-1.762-11.136Z" fill="#FF9446"/><path opacity=".3" d="m30.377 24.536-1.974.298.298 1.88 1.973-.297-.297-1.88ZM30.009 22.205l-1.974.298.298 1.88 1.973-.297-.297-1.88Z" fill="#FF9446"/><path opacity=".5" d="m31.182 16.15-2.783.421.149.938 2.782-.42-.148-.938ZM39.885 14.832l-1.954.296.148.938 1.955-.295-.149-.939Z" fill="#FF9446"/><path d="M33.42 11.696a28.02 28.02 0 0 1 3.478 1.935c.583.373 1.141.782 1.671 1.225.29.245.564.51.819.79.146.165.28.34.403.522.158.232.282.484.37.75.06.18.094.366.104.555a.535.535 0 0 1 0 .098V17.78l-.01.282-.026.263a6.56 6.56 0 0 1-.064.517c-.03.165-.048.336-.082.498-.11.66-.273 1.286-.436 1.91a30.23 30.23 0 0 1-1.253 3.64.719.719 0 0 1-.348.37.744.744 0 0 1-.93-.235.7.7 0 0 1-.122-.488v-.016c.148-1.225.33-2.462.462-3.675a33 33 0 0 0 .167-1.796c.012-.147.012-.288.02-.433.01-.145 0-.284 0-.42v-.553a.942.942 0 0 0 0 .097c0 .023-.022-.022-.072-.077a2.11 2.11 0 0 0-.21-.204 6.121 6.121 0 0 0-.582-.49 18.35 18.35 0 0 0-1.452-.96 61.498 61.498 0 0 0-3.204-1.757h-.014a1.437 1.437 0 0 1-.698-.83 1.4 1.4 0 0 1 .089-1.069c.17-.332.467-.585.826-.707a1.493 1.493 0 0 1 1.096.054l-.002-.006Z" fill="#FF9446"/><path d="m37.145 24.211-1.065 1.413 2.022.723s.806-1.395.117-1.931l-1.074-.205Z" fill="#263238"/><path d="m36.347 27.43.752.136c.145.026.294 0 .421-.072a.616.616 0 0 0 .276-.32l.305-.816-2.015-.733-.23 1.084a.6.6 0 0 0 .093.46.627.627 0 0 0 .398.26ZM36.97 24.604s.038-.961.063-1.212c.295-.018 1.786.318 1.824.437-.184.482-.418 1.122-.418 1.122l-1.468-.347Z" fill="#263238"/><path d="M31.87 4.55c-1.009-.11-5.152-1.095-5.537-1.485-.027-.754.418-1.515.692-1.687.762-.49 2.44-.508 2.972-.36.532.146 1.99.87 2.233 1.569.188.553-.36 1.964-.36 1.964Z" fill="#FF9446"/><path d="M27.685 2.83c-1.272-.194-2.48-.108-2.91.52-.477.703 1.098-.34 2.037.108 1.573.756 1.2.874 3.582.817-1.226-.608-1.234-1.22-2.709-1.445Z" fill="#FF9446"/><path opacity=".6" d="M27.685 2.83c-1.272-.194-2.48-.108-2.91.52-.477.703 1.098-.34 2.037.108 1.573.756 1.2.874 3.582.817-1.226-.608-1.234-1.22-2.709-1.445Z" fill="#fff"/><path d="M30.523 5.753a.114.114 0 0 0 .03-.16.12.12 0 0 0-.163-.027 8.271 8.271 0 0 0-1.214 1c-.456-.464-1.736-.952-2.406-.942-.479 0-.796-.022-1.153.323-.305.292-.053 1.837.14 2.274.11.24.275.452.482.62.206.169.45.29.71.354.706.124 2.214.204 2.277-.805a4.58 4.58 0 0 1 .09-.673c.1.016.201.025.303.026a1.38 1.38 0 0 0 .848-.267.113.113 0 0 0 .044-.075.11.11 0 0 0-.024-.084.116.116 0 0 0-.078-.044.12.12 0 0 0-.087.023 1.268 1.268 0 0 1-.956.204c.067-.298.1-.49-.048-.739.366-.374.77-.712 1.205-1.008Z" fill="#FF9446"/><path opacity=".6" d="M30.523 5.753a.114.114 0 0 0 .03-.16.12.12 0 0 0-.163-.027 8.271 8.271 0 0 0-1.214 1c-.456-.464-1.736-.952-2.406-.942-.479 0-.796-.022-1.153.323-.305.292-.053 1.837.14 2.274.11.24.275.452.482.62.206.169.45.29.71.354.706.124 2.214.204 2.277-.805a4.58 4.58 0 0 1 .09-.673c.1.016.201.025.303.026a1.38 1.38 0 0 0 .848-.267.113.113 0 0 0 .044-.075.11.11 0 0 0-.024-.084.116.116 0 0 0-.078-.044.12.12 0 0 0-.087.023 1.268 1.268 0 0 1-.956.204c.067-.298.1-.49-.048-.739.366-.374.77-.712 1.205-1.008Z" fill="#fff"/></svg>