<svg width="32" height="32" fill="none" xmlns="http://www.w3.org/2000/svg"><path d="M31.689 12.866H30.4V12.8H16v6.4h9.042c-1.319 3.726-4.864 6.4-9.042 6.4-5.302 0-9.6-4.298-9.6-9.6s4.298-9.6 9.6-9.6c2.447 0 4.674.923 6.369 2.431l4.525-4.525C24.037 1.642 20.214 0 16 0 7.164 0 0 7.164 0 16s7.164 16 16 16 16-7.164 16-16c0-1.073-.11-2.12-.311-3.134Z" fill="#FFC107"/><path d="M2 8.272 7.246 12c1.42-3.406 4.858-5.81 8.881-5.81 2.443 0 4.665.892 6.356 2.35L27 4.165A16.172 16.172 0 0 0 16.127 0C9.994 0 4.675 3.356 2 8.272Z" fill="#FF3D00"/><path d="M16.26 32c4.138 0 7.897-1.612 10.74-4.233l-4.958-4.27a9.43 9.43 0 0 1-5.782 1.981c-4.166 0-7.704-2.704-9.036-6.478L2 23.097C4.651 28.377 10.035 32 16.26 32Z" fill="#4CAF50"/><path d="M31.689 13.066H30.4V13H16v6.373h9.042a9.594 9.594 0 0 1-3.27 4.439l.003-.002 4.952 4.173C26.377 28.3 32 24.153 32 16.187c0-1.069-.11-2.112-.311-3.12Z" fill="#1976D2"/></svg>