<svg width="60" height="76" fill="none" xmlns="http://www.w3.org/2000/svg"><path d="M56.385 9.156h-45.6v59.091h45.6V9.156Z" fill="#FF9446"/><path opacity=".6" d="M56.385 9.156h-45.6v59.091h45.6V9.156Z" fill="#fff"/><path opacity=".3" d="M28.881 9.072H12.567V64.53h16.314V9.072ZM54.605 9.072H38.291V64.53h16.314V9.072Z" fill="#fff"/><path opacity=".6" d="M52.21 13.577h-3.038v3.039h3.038v-3.039Z" fill="#fff"/><path d="M50.637 13.813H49.41v2.565h1.227v-2.565ZM51.972 13.816h-1.227v2.565h1.227v-2.565Z" fill="#FF9446"/><g opacity=".2" fill="#fff"><path d="M50.637 13.813H49.41v2.565h1.227v-2.565ZM51.972 13.816h-1.227v2.565h1.227v-2.565Z"/></g><path d="M48.18 16.926h-.086v1.289h.087v-1.289ZM48.644 16.926h-.086v1.289h.086v-1.289ZM49.11 16.926h-.087v1.289h.087v-1.289ZM49.574 16.926h-.087v1.289h.087v-1.289ZM50.039 16.926h-.087v1.289h.087v-1.289ZM50.503 16.926h-.087v1.289h.087v-1.289ZM50.969 16.926h-.087v1.289h.087v-1.289ZM51.433 16.926h-.086v1.289h.086v-1.289ZM51.897 16.926h-.087v1.289h.087v-1.289ZM52.362 16.926h-.087v1.289h.087v-1.289ZM52.826 16.926h-.087v1.289h.087v-1.289ZM53.292 16.926h-.087v1.289h.087v-1.289Z" fill="#FF9446"/><path d="M53.355 16.849h-5.33v.154h5.33v-.154ZM53.355 18.088h-5.33v.155h5.33v-.155Z" fill="#FF9446"/><path opacity=".6" d="M52.21 21.478h-3.038v3.039h3.038v-3.039Z" fill="#fff"/><path d="M50.637 21.713H49.41v2.564h1.227v-2.564ZM51.972 21.716h-1.227v2.565h1.227v-2.565Z" fill="#FF9446"/><g opacity=".2" fill="#fff"><path d="M50.637 21.713H49.41v2.564h1.227v-2.564ZM51.972 21.716h-1.227v2.565h1.227v-2.565Z"/></g><path d="M48.18 24.827h-.086v1.288h.087v-1.288ZM48.644 24.827h-.086v1.288h.086v-1.288ZM49.11 24.827h-.087v1.288h.087v-1.288ZM49.574 24.827h-.087v1.288h.087v-1.288ZM50.039 24.827h-.087v1.288h.087v-1.288ZM50.503 24.827h-.087v1.288h.087v-1.288ZM50.969 24.827h-.087v1.288h.087v-1.288ZM51.433 24.827h-.086v1.288h.086v-1.288ZM51.897 24.827h-.087v1.288h.087v-1.288ZM52.362 24.827h-.087v1.288h.087v-1.288ZM52.826 24.827h-.087v1.288h.087v-1.288ZM53.292 24.827h-.087v1.288h.087v-1.288Z" fill="#FF9446"/><path d="M53.355 24.75h-5.33v.154h5.33v-.154ZM53.355 25.988h-5.33v.155h5.33v-.155Z" fill="#FF9446"/><path opacity=".6" d="M52.21 29.378h-3.038v3.038h3.038v-3.038Z" fill="#fff"/><path d="M50.637 29.614H49.41v2.564h1.227v-2.564ZM51.972 29.616h-1.227v2.565h1.227v-2.565Z" fill="#FF9446"/><g opacity=".2" fill="#fff"><path d="M50.637 29.613H49.41v2.565h1.227v-2.565ZM51.972 29.617h-1.227v2.564h1.227v-2.564Z"/></g><path d="M48.18 32.727h-.086v1.289h.087v-1.289ZM48.644 32.727h-.086v1.289h.086v-1.289ZM49.11 32.727h-.087v1.289h.087v-1.289ZM49.574 32.727h-.087v1.289h.087v-1.289ZM50.039 32.727h-.087v1.289h.087v-1.289ZM50.503 32.727h-.087v1.289h.087v-1.289ZM50.969 32.727h-.087v1.289h.087v-1.289ZM51.433 32.727h-.086v1.289h.086v-1.289ZM51.897 32.727h-.087v1.289h.087v-1.289ZM52.362 32.727h-.087v1.289h.087v-1.289ZM52.826 32.727h-.087v1.289h.087v-1.289ZM53.292 32.727h-.087v1.289h.087v-1.289Z" fill="#FF9446"/><path d="M53.355 32.65h-5.33v.154h5.33v-.155ZM53.355 33.89h-5.33v.154h5.33v-.155Z" fill="#FF9446"/><path opacity=".6" d="M52.21 37.279h-3.038v3.038h3.038V37.28Z" fill="#fff"/><path d="M50.637 37.514H49.41v2.565h1.227v-2.565ZM51.972 37.517h-1.227v2.565h1.227v-2.565Z" fill="#FF9446"/><g opacity=".2" fill="#fff"><path d="M50.637 37.513H49.41v2.565h1.227v-2.565ZM51.972 37.516h-1.227v2.565h1.227v-2.565Z"/></g><path d="M48.18 40.627h-.086v1.289h.087v-1.289ZM48.644 40.627h-.086v1.289h.086v-1.289ZM49.11 40.627h-.087v1.289h.087v-1.289ZM49.574 40.627h-.087v1.289h.087v-1.289ZM50.039 40.627h-.087v1.289h.087v-1.289ZM50.503 40.627h-.087v1.289h.087v-1.289ZM50.969 40.627h-.087v1.289h.087v-1.289ZM51.433 40.627h-.086v1.289h.086v-1.289ZM51.897 40.627h-.087v1.289h.087v-1.289ZM52.362 40.627h-.087v1.289h.087v-1.289ZM52.826 40.627h-.087v1.289h.087v-1.289ZM53.292 40.627h-.087v1.289h.087v-1.289Z" fill="#FF9446"/><path d="M53.355 40.55h-5.33v.155h5.33v-.155ZM53.355 41.79h-5.33v.154h5.33v-.155Z" fill="#FF9446"/><path opacity=".6" d="M52.21 45.179h-3.038v3.038h3.038V45.18Z" fill="#fff"/><path d="M50.637 45.414H49.41v2.565h1.227v-2.565ZM51.972 45.417h-1.227v2.565h1.227v-2.565Z" fill="#FF9446"/><g opacity=".2" fill="#fff"><path d="M50.637 45.414H49.41v2.565h1.227v-2.565ZM51.972 45.417h-1.227v2.565h1.227v-2.565Z"/></g><path d="M48.18 48.528h-.086v1.288h.087v-1.288ZM48.644 48.528h-.086v1.288h.086v-1.288ZM49.11 48.528h-.087v1.288h.087v-1.288ZM49.574 48.528h-.087v1.288h.087v-1.288ZM50.039 48.528h-.087v1.288h.087v-1.288ZM50.503 48.528h-.087v1.288h.087v-1.288ZM50.969 48.528h-.087v1.288h.087v-1.288ZM51.433 48.528h-.086v1.288h.086v-1.288ZM51.897 48.528h-.087v1.288h.087v-1.288ZM52.362 48.528h-.087v1.288h.087v-1.288ZM52.826 48.528h-.087v1.288h.087v-1.288ZM53.292 48.528h-.087v1.288h.087v-1.288Z" fill="#FF9446"/><path d="M53.355 48.45h-5.33v.155h5.33v-.155ZM53.355 49.69h-5.33v.154h5.33v-.154Z" fill="#FF9446"/><path opacity=".6" d="M52.21 53.079h-3.038v3.038h3.038V53.08Z" fill="#fff"/><path d="M50.637 53.314H49.41v2.565h1.227v-2.565ZM51.972 53.318h-1.227v2.565h1.227v-2.565Z" fill="#FF9446"/><g opacity=".2" fill="#fff"><path d="M50.637 53.315H49.41v2.565h1.227v-2.565ZM51.972 53.318h-1.227v2.565h1.227v-2.565Z"/></g><path d="M48.18 56.428h-.086v1.288h.087v-1.288ZM48.644 56.428h-.086v1.288h.086v-1.288ZM49.11 56.428h-.087v1.288h.087v-1.288ZM49.574 56.428h-.087v1.288h.087v-1.288ZM50.039 56.428h-.087v1.288h.087v-1.288ZM50.503 56.428h-.087v1.288h.087v-1.288ZM50.969 56.428h-.087v1.288h.087v-1.288ZM51.433 56.428h-.086v1.288h.086v-1.288ZM51.897 56.428h-.087v1.288h.087v-1.288ZM52.362 56.428h-.087v1.288h.087v-1.288ZM52.826 56.428h-.087v1.288h.087v-1.288ZM53.292 56.428h-.087v1.288h.087v-1.288Z" fill="#FF9446"/><path d="M53.355 56.35h-5.33v.155h5.33v-.154ZM53.355 57.59h-5.33v.154h5.33v-.155Z" fill="#FF9446"/><path opacity=".6" d="M43.659 13.577H40.62v3.039h3.039v-3.039Z" fill="#fff"/><path d="M42.082 13.813h-1.227v2.565h1.227v-2.565ZM43.42 13.816h-1.227v2.565h1.227v-2.565Z" fill="#FF9446"/><g opacity=".2" fill="#fff"><path d="M42.082 13.813h-1.227v2.565h1.227v-2.565ZM43.42 13.816h-1.227v2.565h1.227v-2.565Z"/></g><path d="M39.626 16.926h-.087v1.289h.087v-1.289ZM40.09 16.926h-.087v1.289h.087v-1.289ZM40.556 16.926h-.087v1.289h.087v-1.289ZM41.02 16.926h-.087v1.289h.086v-1.289ZM41.484 16.926h-.087v1.289h.087v-1.289ZM41.948 16.926h-.087v1.289h.087v-1.289ZM42.413 16.926h-.087v1.289h.087v-1.289ZM42.879 16.926h-.087v1.289h.087v-1.289ZM43.343 16.926h-.087v1.289h.087v-1.289ZM43.806 16.926h-.086v1.289h.087v-1.289ZM44.271 16.926h-.086v1.289h.086v-1.289ZM44.737 16.926h-.087v1.289h.087v-1.289Z" fill="#FF9446"/><path d="M44.804 16.849h-5.33v.154h5.33v-.154ZM44.804 18.088h-5.33v.155h5.33v-.155Z" fill="#FF9446"/><path opacity=".6" d="M43.659 21.478H40.62v3.039h3.039v-3.039Z" fill="#fff"/><path d="M42.082 21.713h-1.227v2.564h1.227v-2.564ZM43.42 21.716h-1.227v2.565h1.227v-2.565Z" fill="#FF9446"/><g opacity=".2" fill="#fff"><path d="M42.082 21.713h-1.227v2.564h1.227v-2.564ZM43.42 21.716h-1.227v2.565h1.227v-2.565Z"/></g><path d="M39.626 24.827h-.087v1.288h.087v-1.288ZM40.09 24.827h-.087v1.288h.087v-1.288ZM40.556 24.827h-.087v1.288h.087v-1.288ZM41.02 24.827h-.087v1.288h.086v-1.288ZM41.484 24.827h-.087v1.288h.087v-1.288ZM41.948 24.827h-.087v1.288h.087v-1.288ZM42.413 24.827h-.087v1.288h.087v-1.288ZM42.879 24.827h-.087v1.288h.087v-1.288ZM43.343 24.827h-.087v1.288h.087v-1.288ZM43.806 24.827h-.086v1.288h.087v-1.288ZM44.271 24.827h-.086v1.288h.086v-1.288ZM44.737 24.827h-.087v1.288h.087v-1.288Z" fill="#FF9446"/><path d="M44.804 24.75h-5.33v.154h5.33v-.154ZM44.804 25.988h-5.33v.155h5.33v-.155Z" fill="#FF9446"/><path opacity=".6" d="M43.659 29.378H40.62v3.038h3.039v-3.038Z" fill="#fff"/><path d="M42.082 29.614h-1.227v2.564h1.227v-2.564ZM43.42 29.616h-1.227v2.565h1.227v-2.565Z" fill="#FF9446"/><g opacity=".2" fill="#fff"><path d="M42.082 29.613h-1.227v2.565h1.227v-2.565ZM43.42 29.617h-1.227v2.564h1.227v-2.564Z"/></g><path d="M39.626 32.727h-.087v1.289h.087v-1.289ZM40.09 32.727h-.087v1.289h.087v-1.289ZM40.556 32.727h-.087v1.289h.087v-1.289ZM41.02 32.727h-.087v1.289h.086v-1.289ZM41.484 32.727h-.087v1.289h.087v-1.289ZM41.948 32.727h-.087v1.289h.087v-1.289ZM42.413 32.727h-.087v1.289h.087v-1.289ZM42.879 32.727h-.087v1.289h.087v-1.289ZM43.343 32.727h-.087v1.289h.087v-1.289ZM43.806 32.727h-.086v1.289h.087v-1.289ZM44.271 32.727h-.086v1.289h.086v-1.289ZM44.737 32.727h-.087v1.289h.087v-1.289Z" fill="#FF9446"/><path d="M44.804 32.65h-5.33v.154h5.33v-.155ZM44.804 33.89h-5.33v.154h5.33v-.155Z" fill="#FF9446"/><path opacity=".6" d="M43.659 37.279H40.62v3.038h3.039V37.28Z" fill="#fff"/><path d="M42.082 37.514h-1.227v2.565h1.227v-2.565ZM43.42 37.517h-1.227v2.565h1.227v-2.565Z" fill="#FF9446"/><g opacity=".2" fill="#fff"><path d="M42.082 37.514h-1.227v2.565h1.227v-2.565ZM43.42 37.518h-1.227v2.564h1.227v-2.564Z"/></g><path d="M39.626 40.627h-.087v1.289h.087v-1.289ZM40.09 40.627h-.087v1.289h.087v-1.289ZM40.556 40.627h-.087v1.289h.087v-1.289ZM41.02 40.627h-.087v1.289h.086v-1.289ZM41.484 40.627h-.087v1.289h.087v-1.289ZM41.948 40.627h-.087v1.289h.087v-1.289ZM42.413 40.627h-.087v1.289h.087v-1.289ZM42.879 40.627h-.087v1.289h.087v-1.289ZM43.343 40.627h-.087v1.289h.087v-1.289ZM43.806 40.627h-.086v1.289h.087v-1.289ZM44.271 40.627h-.086v1.289h.086v-1.289ZM44.737 40.627h-.087v1.289h.087v-1.289Z" fill="#FF9446"/><path d="M44.804 40.55h-5.33v.155h5.33v-.155ZM44.804 41.79h-5.33v.154h5.33v-.155Z" fill="#FF9446"/><path opacity=".6" d="M43.659 45.179H40.62v3.038h3.039V45.18Z" fill="#fff"/><path d="M42.082 45.414h-1.227v2.565h1.227v-2.565ZM43.42 45.417h-1.227v2.565h1.227v-2.565Z" fill="#FF9446"/><g opacity=".2" fill="#fff"><path d="M42.082 45.414h-1.227v2.565h1.227v-2.565ZM43.42 45.417h-1.227v2.565h1.227v-2.565Z"/></g><path d="M39.626 48.528h-.087v1.288h.087v-1.288ZM40.09 48.528h-.087v1.288h.087v-1.288ZM40.556 48.528h-.087v1.288h.087v-1.288ZM41.02 48.528h-.087v1.288h.086v-1.288ZM41.484 48.528h-.087v1.288h.087v-1.288ZM41.948 48.528h-.087v1.288h.087v-1.288ZM42.413 48.528h-.087v1.288h.087v-1.288ZM42.879 48.528h-.087v1.288h.087v-1.288ZM43.343 48.528h-.087v1.288h.087v-1.288ZM43.806 48.528h-.086v1.288h.087v-1.288ZM44.271 48.528h-.086v1.288h.086v-1.288ZM44.737 48.528h-.087v1.288h.087v-1.288Z" fill="#FF9446"/><path d="M44.804 48.45h-5.33v.155h5.33v-.155ZM44.804 49.69h-5.33v.154h5.33v-.154Z" fill="#FF9446"/><path opacity=".6" d="M43.659 53.079H40.62v3.038h3.039V53.08Z" fill="#fff"/><path d="M42.082 53.314h-1.227v2.565h1.227v-2.565ZM43.42 53.318h-1.227v2.565h1.227v-2.565Z" fill="#FF9446"/><g opacity=".2" fill="#fff"><path d="M42.082 53.314h-1.227v2.565h1.227v-2.565ZM43.42 53.318h-1.227v2.565h1.227v-2.565Z"/></g><path d="M39.626 56.428h-.087v1.288h.087v-1.288ZM40.09 56.428h-.087v1.288h.087v-1.288ZM40.556 56.428h-.087v1.288h.087v-1.288ZM41.02 56.428h-.087v1.288h.086v-1.288ZM41.484 56.428h-.087v1.288h.087v-1.288ZM41.948 56.428h-.087v1.288h.087v-1.288ZM42.413 56.428h-.087v1.288h.087v-1.288ZM42.879 56.428h-.087v1.288h.087v-1.288ZM43.343 56.428h-.087v1.288h.087v-1.288ZM43.806 56.428h-.086v1.288h.087v-1.288ZM44.271 56.428h-.086v1.288h.086v-1.288ZM44.737 56.428h-.087v1.288h.087v-1.288Z" fill="#FF9446"/><path d="M44.804 56.35h-5.33v.155h5.33v-.154ZM44.804 57.59h-5.33v.154h5.33v-.155Z" fill="#FF9446"/><path opacity=".6" d="M35.107 13.577h-3.039v3.039h3.039v-3.039Z" fill="#fff"/><path d="M33.53 13.813h-1.226v2.565h1.226v-2.565ZM34.868 13.816h-1.226v2.565h1.226v-2.565Z" fill="#FF9446"/><g opacity=".2" fill="#fff"><path d="M33.53 13.813h-1.226v2.564h1.226v-2.564ZM34.868 13.816h-1.226v2.565h1.226v-2.565Z"/></g><path d="M31.074 16.926h-.087v1.289h.087v-1.289ZM31.538 16.926h-.087v1.289h.087v-1.289ZM32.004 16.926h-.087v1.289h.087v-1.289ZM32.469 16.926h-.087v1.289h.087v-1.289ZM32.932 16.926h-.086v1.289h.086v-1.289ZM33.396 16.926h-.086v1.289h.086v-1.289ZM33.861 16.926h-.087v1.289h.087v-1.289ZM34.327 16.926h-.087v1.289h.087v-1.289ZM34.79 16.926h-.087v1.289h.087v-1.289ZM35.256 16.926h-.087v1.289h.087v-1.289ZM35.72 16.926h-.087v1.289h.086v-1.289ZM36.183 16.926h-.086v1.289h.086v-1.289Z" fill="#FF9446"/><path d="M36.252 16.849h-5.33v.154h5.33v-.154ZM36.252 18.088h-5.33v.155h5.33v-.155Z" fill="#FF9446"/><path opacity=".6" d="M35.107 21.478h-3.039v3.039h3.039v-3.039Z" fill="#fff"/><path d="M33.53 21.713h-1.226v2.564h1.226v-2.564ZM34.868 21.716h-1.226v2.565h1.226v-2.565Z" fill="#FF9446"/><g opacity=".2" fill="#fff"><path d="M33.53 21.714h-1.226v2.565h1.226v-2.565ZM34.868 21.717h-1.226v2.564h1.226v-2.564Z"/></g><path d="M31.074 24.827h-.087v1.288h.087v-1.288ZM31.538 24.827h-.087v1.288h.087v-1.288ZM32.004 24.827h-.087v1.288h.087v-1.288ZM32.469 24.827h-.087v1.288h.087v-1.288ZM32.932 24.827h-.086v1.288h.086v-1.288ZM33.396 24.827h-.086v1.288h.086v-1.288ZM33.861 24.827h-.087v1.288h.087v-1.288ZM34.327 24.827h-.087v1.288h.087v-1.288ZM34.79 24.827h-.087v1.288h.087v-1.288ZM35.256 24.827h-.087v1.288h.087v-1.288ZM35.72 24.827h-.087v1.288h.086v-1.288ZM36.183 24.827h-.086v1.288h.086v-1.288Z" fill="#FF9446"/><path d="M36.252 24.75h-5.33v.154h5.33v-.154ZM36.252 25.988h-5.33v.155h5.33v-.155Z" fill="#FF9446"/><path opacity=".6" d="M35.107 29.378h-3.039v3.038h3.039v-3.038Z" fill="#fff"/><path d="M33.53 29.614h-1.226v2.564h1.226v-2.564ZM34.868 29.616h-1.226v2.565h1.226v-2.565Z" fill="#FF9446"/><g opacity=".2" fill="#fff"><path d="M33.53 29.614h-1.226v2.564h1.226v-2.564ZM34.868 29.617h-1.226v2.564h1.226v-2.564Z"/></g><path d="M31.074 32.727h-.087v1.289h.087v-1.289ZM31.538 32.727h-.087v1.289h.087v-1.289ZM32.004 32.727h-.087v1.289h.087v-1.289ZM32.469 32.727h-.087v1.289h.087v-1.289ZM32.932 32.727h-.086v1.289h.086v-1.289ZM33.396 32.727h-.086v1.289h.086v-1.289ZM33.861 32.727h-.087v1.289h.087v-1.289ZM34.327 32.727h-.087v1.289h.087v-1.289ZM34.79 32.727h-.087v1.289h.087v-1.289ZM35.256 32.727h-.087v1.289h.087v-1.289ZM35.72 32.727h-.087v1.289h.086v-1.289ZM36.183 32.727h-.086v1.289h.086v-1.289Z" fill="#FF9446"/><path d="M36.252 32.65h-5.33v.154h5.33v-.155ZM36.252 33.89h-5.33v.154h5.33v-.155Z" fill="#FF9446"/><path opacity=".6" d="M35.107 37.279h-3.039v3.038h3.039V37.28Z" fill="#fff"/><path d="M33.53 37.514h-1.226v2.565h1.226v-2.565ZM34.868 37.517h-1.226v2.565h1.226v-2.565Z" fill="#FF9446"/><g opacity=".2" fill="#fff"><path d="M33.53 37.514h-1.226v2.565h1.226v-2.565ZM34.868 37.518h-1.226v2.564h1.226v-2.564Z"/></g><path d="M31.074 40.627h-.087v1.289h.087v-1.289ZM31.538 40.627h-.087v1.289h.087v-1.289ZM32.004 40.627h-.087v1.289h.087v-1.289ZM32.469 40.627h-.087v1.289h.087v-1.289ZM32.932 40.627h-.086v1.289h.086v-1.289ZM33.396 40.627h-.086v1.289h.086v-1.289ZM33.861 40.627h-.087v1.289h.087v-1.289ZM34.327 40.627h-.087v1.289h.087v-1.289ZM34.79 40.627h-.087v1.289h.087v-1.289ZM35.256 40.627h-.087v1.289h.087v-1.289ZM35.72 40.627h-.087v1.289h.086v-1.289ZM36.183 40.627h-.086v1.289h.086v-1.289Z" fill="#FF9446"/><path d="M36.252 40.55h-5.33v.155h5.33v-.155ZM36.252 41.79h-5.33v.154h5.33v-.155Z" fill="#FF9446"/><path opacity=".6" d="M35.107 45.179h-3.039v3.038h3.039V45.18Z" fill="#fff"/><path d="M33.53 45.414h-1.226v2.565h1.226v-2.565ZM34.868 45.417h-1.226v2.565h1.226v-2.565Z" fill="#FF9446"/><g opacity=".2" fill="#fff"><path d="M33.53 45.414h-1.226v2.565h1.226v-2.565ZM34.868 45.417h-1.226v2.565h1.226v-2.565Z"/></g><path d="M31.074 48.528h-.087v1.288h.087v-1.288ZM31.538 48.528h-.087v1.288h.087v-1.288ZM32.004 48.528h-.087v1.288h.087v-1.288ZM32.469 48.528h-.087v1.288h.087v-1.288ZM32.932 48.528h-.086v1.288h.086v-1.288ZM33.396 48.528h-.086v1.288h.086v-1.288ZM33.861 48.528h-.087v1.288h.087v-1.288ZM34.327 48.528h-.087v1.288h.087v-1.288ZM34.79 48.528h-.087v1.288h.087v-1.288ZM35.256 48.528h-.087v1.288h.087v-1.288ZM35.72 48.528h-.087v1.288h.086v-1.288ZM36.183 48.528h-.086v1.288h.086v-1.288Z" fill="#FF9446"/><path d="M36.252 48.45h-5.33v.155h5.33v-.155ZM36.252 49.69h-5.33v.154h5.33v-.154Z" fill="#FF9446"/><path opacity=".6" d="M35.107 53.079h-3.039v3.038h3.039V53.08Z" fill="#fff"/><path d="M33.53 53.314h-1.226v2.565h1.226v-2.565ZM34.868 53.318h-1.226v2.565h1.226v-2.565Z" fill="#FF9446"/><g opacity=".2" fill="#fff"><path d="M33.53 53.314h-1.226v2.565h1.226v-2.565ZM34.868 53.317h-1.226v2.565h1.226v-2.565Z"/></g><path d="M31.074 56.428h-.087v1.288h.087v-1.288ZM31.538 56.428h-.087v1.288h.087v-1.288ZM32.004 56.428h-.087v1.288h.087v-1.288ZM32.469 56.428h-.087v1.288h.087v-1.288ZM32.932 56.428h-.086v1.288h.086v-1.288ZM33.396 56.428h-.086v1.288h.086v-1.288ZM33.861 56.428h-.087v1.288h.087v-1.288ZM34.327 56.428h-.087v1.288h.087v-1.288ZM34.79 56.428h-.087v1.288h.087v-1.288ZM35.256 56.428h-.087v1.288h.087v-1.288ZM35.72 56.428h-.087v1.288h.086v-1.288ZM36.183 56.428h-.086v1.288h.086v-1.288Z" fill="#FF9446"/><path d="M36.252 56.35h-5.33v.155h5.33v-.154ZM36.252 57.59h-5.33v.154h5.33v-.155Z" fill="#FF9446"/><path opacity=".6" d="M26.555 13.577h-3.038v3.039h3.038v-3.039Z" fill="#fff"/><path d="M24.979 13.813h-1.227v2.565h1.227v-2.565ZM26.314 13.816h-1.227v2.565h1.227v-2.565Z" fill="#FF9446"/><g opacity=".2" fill="#fff"><path d="M24.979 13.813h-1.227v2.565h1.227v-2.565ZM26.314 13.816h-1.227v2.565h1.227v-2.565Z"/></g><path d="M22.522 16.926h-.086v1.289h.086v-1.289ZM22.986 16.926H22.9v1.289h.087v-1.289ZM23.451 16.926h-.087v1.289h.087v-1.289ZM23.917 16.926h-.087v1.289h.087v-1.289ZM24.38 16.926h-.086v1.289h.087v-1.289ZM24.845 16.926h-.087v1.289h.087v-1.289ZM25.31 16.926h-.087v1.289h.086v-1.289ZM25.775 16.926h-.086v1.289h.086v-1.289ZM26.238 16.926h-.087v1.289h.087v-1.289ZM26.704 16.926h-.087v1.289h.087v-1.289ZM27.168 16.926h-.087v1.289h.087v-1.289ZM27.633 16.926h-.087v1.289h.087v-1.289Z" fill="#FF9446"/><path d="M27.698 16.849h-5.33v.154h5.33v-.154ZM27.698 18.088h-5.33v.155h5.33v-.155Z" fill="#FF9446"/><path opacity=".6" d="M26.555 21.478h-3.038v3.039h3.038v-3.039Z" fill="#fff"/><path d="M24.979 21.713h-1.227v2.564h1.227v-2.564ZM26.314 21.716h-1.227v2.565h1.227v-2.565Z" fill="#FF9446"/><g opacity=".2" fill="#fff"><path d="M24.979 21.713h-1.227v2.564h1.227v-2.564ZM26.314 21.716h-1.227v2.565h1.227v-2.565Z"/></g><path d="M22.522 24.827h-.086v1.288h.086v-1.288ZM22.986 24.827H22.9v1.288h.087v-1.288ZM23.451 24.827h-.087v1.288h.087v-1.288ZM23.917 24.827h-.087v1.288h.087v-1.288ZM24.38 24.827h-.086v1.288h.087v-1.288ZM24.845 24.827h-.087v1.288h.087v-1.288ZM25.31 24.827h-.087v1.288h.086v-1.288ZM25.775 24.827h-.086v1.288h.086v-1.288ZM26.238 24.827h-.087v1.288h.087v-1.288ZM26.704 24.827h-.087v1.288h.087v-1.288ZM27.168 24.827h-.087v1.288h.087v-1.288ZM27.633 24.827h-.087v1.288h.087v-1.288Z" fill="#FF9446"/><path d="M27.698 24.75h-5.33v.154h5.33v-.154ZM27.698 25.988h-5.33v.155h5.33v-.155Z" fill="#FF9446"/><path opacity=".6" d="M26.555 29.378h-3.038v3.038h3.038v-3.038Z" fill="#fff"/><path d="M24.979 29.614h-1.227v2.564h1.227v-2.564ZM26.314 29.616h-1.227v2.565h1.227v-2.565Z" fill="#FF9446"/><g opacity=".2" fill="#fff"><path d="M24.979 29.614h-1.227v2.564h1.227v-2.564ZM26.314 29.616h-1.227v2.565h1.227v-2.565Z"/></g><path d="M22.522 32.727h-.086v1.289h.086v-1.289ZM22.986 32.727H22.9v1.289h.087v-1.289ZM23.451 32.727h-.087v1.289h.087v-1.289ZM23.917 32.727h-.087v1.289h.087v-1.289ZM24.38 32.727h-.086v1.289h.087v-1.289ZM24.845 32.727h-.087v1.289h.087v-1.289ZM25.31 32.727h-.087v1.289h.086v-1.289ZM25.775 32.727h-.086v1.289h.086v-1.289ZM26.238 32.727h-.087v1.289h.087v-1.289ZM26.704 32.727h-.087v1.289h.087v-1.289ZM27.168 32.727h-.087v1.289h.087v-1.289ZM27.633 32.727h-.087v1.289h.087v-1.289Z" fill="#FF9446"/><path d="M27.698 32.65h-5.33v.154h5.33v-.155ZM27.698 33.89h-5.33v.154h5.33v-.155Z" fill="#FF9446"/><path opacity=".6" d="M26.555 37.279h-3.038v3.038h3.038V37.28Z" fill="#fff"/><path d="M24.979 37.514h-1.227v2.565h1.227v-2.565ZM26.314 37.517h-1.227v2.565h1.227v-2.565Z" fill="#FF9446"/><g opacity=".2" fill="#fff"><path d="M24.979 37.514h-1.227v2.565h1.227v-2.565ZM26.314 37.518h-1.227v2.564h1.227v-2.564Z"/></g><path d="M22.522 40.627h-.086v1.289h.086v-1.289ZM22.986 40.627H22.9v1.289h.087v-1.289ZM23.451 40.627h-.087v1.289h.087v-1.289ZM23.917 40.627h-.087v1.289h.087v-1.289ZM24.38 40.627h-.086v1.289h.087v-1.289ZM24.845 40.627h-.087v1.289h.087v-1.289ZM25.31 40.627h-.087v1.289h.086v-1.289ZM25.775 40.627h-.086v1.289h.086v-1.289ZM26.238 40.627h-.087v1.289h.087v-1.289ZM26.704 40.627h-.087v1.289h.087v-1.289ZM27.168 40.627h-.087v1.289h.087v-1.289ZM27.633 40.627h-.087v1.289h.087v-1.289Z" fill="#FF9446"/><path d="M27.698 40.55h-5.33v.155h5.33v-.155ZM27.698 41.79h-5.33v.154h5.33v-.155Z" fill="#FF9446"/><path opacity=".6" d="M26.555 45.179h-3.038v3.038h3.038V45.18Z" fill="#fff"/><path d="M24.979 45.414h-1.227v2.565h1.227v-2.565ZM26.314 45.417h-1.227v2.565h1.227v-2.565Z" fill="#FF9446"/><g opacity=".2" fill="#fff"><path d="M24.979 45.414h-1.227v2.565h1.227v-2.565ZM26.314 45.417h-1.227v2.565h1.227v-2.565Z"/></g><path d="M22.522 48.528h-.086v1.288h.086v-1.288ZM22.986 48.528H22.9v1.288h.087v-1.288ZM23.451 48.528h-.087v1.288h.087v-1.288ZM23.917 48.528h-.087v1.288h.087v-1.288ZM24.38 48.528h-.086v1.288h.087v-1.288ZM24.845 48.528h-.087v1.288h.087v-1.288ZM25.31 48.528h-.087v1.288h.086v-1.288ZM25.775 48.528h-.086v1.288h.086v-1.288ZM26.238 48.528h-.087v1.288h.087v-1.288ZM26.704 48.528h-.087v1.288h.087v-1.288ZM27.168 48.528h-.087v1.288h.087v-1.288ZM27.633 48.528h-.087v1.288h.087v-1.288Z" fill="#FF9446"/><path d="M27.698 48.45h-5.33v.155h5.33v-.155ZM27.698 49.69h-5.33v.154h5.33v-.154Z" fill="#FF9446"/><path opacity=".6" d="M26.555 53.079h-3.038v3.038h3.038V53.08Z" fill="#fff"/><path d="M24.979 53.314h-1.227v2.565h1.227v-2.565ZM26.314 53.318h-1.227v2.565h1.227v-2.565Z" fill="#FF9446"/><g opacity=".2" fill="#fff"><path d="M24.979 53.314h-1.227v2.565h1.227v-2.565ZM26.314 53.318h-1.227v2.565h1.227v-2.565Z"/></g><path d="M22.522 56.428h-.086v1.288h.086v-1.288ZM22.986 56.428H22.9v1.288h.087v-1.288ZM23.451 56.428h-.087v1.288h.087v-1.288ZM23.917 56.428h-.087v1.288h.087v-1.288ZM24.38 56.428h-.086v1.288h.087v-1.288ZM24.845 56.428h-.087v1.288h.087v-1.288ZM25.31 56.428h-.087v1.288h.086v-1.288ZM25.775 56.428h-.086v1.288h.086v-1.288ZM26.238 56.428h-.087v1.288h.087v-1.288ZM26.704 56.428h-.087v1.288h.087v-1.288ZM27.168 56.428h-.087v1.288h.087v-1.288ZM27.633 56.428h-.087v1.288h.087v-1.288Z" fill="#FF9446"/><path d="M27.698 56.35h-5.33v.155h5.33v-.154ZM27.698 57.59h-5.33v.154h5.33v-.155Z" fill="#FF9446"/><path opacity=".6" d="M18 13.577h-3.038v3.039H18v-3.039Z" fill="#fff"/><path d="M16.427 13.813H15.2v2.565h1.227v-2.565ZM17.762 13.816h-1.227v2.565h1.227v-2.565Z" fill="#FF9446"/><g opacity=".2" fill="#fff"><path d="M16.427 13.813H15.2v2.565h1.227v-2.565ZM17.762 13.816h-1.227v2.565h1.227v-2.565Z"/></g><path d="M13.968 16.926h-.087v1.289h.087v-1.289ZM14.431 16.926h-.086v1.289h.086v-1.289ZM14.896 16.926h-.086v1.289h.086v-1.289ZM15.362 16.926h-.087v1.289h.087v-1.289ZM15.824 16.926h-.087v1.289h.087v-1.289ZM16.29 16.926h-.087v1.289h.087v-1.289ZM16.755 16.926h-.087v1.289h.087v-1.289ZM17.219 16.926h-.087v1.289h.087v-1.289ZM17.683 16.926h-.086v1.289h.086v-1.289ZM18.15 16.926h-.087v1.289h.086v-1.289ZM18.613 16.926h-.087v1.289h.087v-1.289ZM19.077 16.926h-.087v1.289h.087v-1.289Z" fill="#FF9446"/><path d="M19.146 16.849h-5.33v.154h5.33v-.154ZM19.146 18.088h-5.33v.155h5.33v-.155Z" fill="#FF9446"/><path opacity=".6" d="M18 21.478h-3.038v3.039H18v-3.039Z" fill="#fff"/><path d="M16.427 21.713H15.2v2.564h1.227v-2.564ZM17.762 21.716h-1.227v2.565h1.227v-2.565Z" fill="#FF9446"/><g opacity=".2" fill="#fff"><path d="M16.427 21.713H15.2v2.565h1.227v-2.565ZM17.762 21.716h-1.227v2.565h1.227v-2.565Z"/></g><path d="M13.968 24.827h-.087v1.288h.087v-1.288ZM14.431 24.827h-.086v1.288h.086v-1.288ZM14.896 24.827h-.086v1.288h.086v-1.288ZM15.362 24.827h-.087v1.288h.087v-1.288ZM15.824 24.827h-.087v1.288h.087v-1.288ZM16.29 24.827h-.087v1.288h.087v-1.288ZM16.755 24.827h-.087v1.288h.087v-1.288ZM17.219 24.827h-.087v1.288h.087v-1.288ZM17.683 24.827h-.086v1.288h.086v-1.288ZM18.15 24.827h-.087v1.288h.086v-1.288ZM18.613 24.827h-.087v1.288h.087v-1.288ZM19.077 24.827h-.087v1.288h.087v-1.288Z" fill="#FF9446"/><path d="M19.146 24.75h-5.33v.154h5.33v-.154ZM19.146 25.988h-5.33v.155h5.33v-.155Z" fill="#FF9446"/><path opacity=".6" d="M18 29.378h-3.038v3.038H18v-3.038Z" fill="#fff"/><path d="M16.427 29.614H15.2v2.564h1.227v-2.564ZM17.762 29.616h-1.227v2.565h1.227v-2.565Z" fill="#FF9446"/><g opacity=".2" fill="#fff"><path d="M16.427 29.614H15.2v2.564h1.227v-2.564ZM17.762 29.616h-1.227v2.565h1.227v-2.565Z"/></g><path d="M13.968 32.727h-.087v1.289h.087v-1.289ZM14.431 32.727h-.086v1.289h.086v-1.289ZM14.896 32.727h-.086v1.289h.086v-1.289ZM15.362 32.727h-.087v1.289h.087v-1.289ZM15.824 32.727h-.087v1.289h.087v-1.289ZM16.29 32.727h-.087v1.289h.087v-1.289ZM16.755 32.727h-.087v1.289h.087v-1.289ZM17.219 32.727h-.087v1.289h.087v-1.289ZM17.683 32.727h-.086v1.289h.086v-1.289ZM18.15 32.727h-.087v1.289h.086v-1.289ZM18.613 32.727h-.087v1.289h.087v-1.289ZM19.077 32.727h-.087v1.289h.087v-1.289Z" fill="#FF9446"/><path d="M19.146 32.65h-5.33v.154h5.33v-.155ZM19.146 33.89h-5.33v.154h5.33v-.155Z" fill="#FF9446"/><path opacity=".6" d="M18 37.279h-3.038v3.038H18V37.28Z" fill="#fff"/><path d="M16.427 37.514H15.2v2.565h1.227v-2.565ZM17.762 37.517h-1.227v2.565h1.227v-2.565Z" fill="#FF9446"/><g opacity=".2" fill="#fff"><path d="M16.427 37.514H15.2v2.565h1.227v-2.565ZM17.762 37.517h-1.227v2.565h1.227v-2.565Z"/></g><path d="M13.968 40.627h-.087v1.289h.087v-1.289ZM14.431 40.627h-.086v1.289h.086v-1.289ZM14.896 40.627h-.086v1.289h.086v-1.289ZM15.362 40.627h-.087v1.289h.087v-1.289ZM15.824 40.627h-.087v1.289h.087v-1.289ZM16.29 40.627h-.087v1.289h.087v-1.289ZM16.755 40.627h-.087v1.289h.087v-1.289ZM17.219 40.627h-.087v1.289h.087v-1.289ZM17.683 40.627h-.086v1.289h.086v-1.289ZM18.15 40.627h-.087v1.289h.086v-1.289ZM18.613 40.627h-.087v1.289h.087v-1.289ZM19.077 40.627h-.087v1.289h.087v-1.289Z" fill="#FF9446"/><path d="M19.146 40.55h-5.33v.155h5.33v-.155ZM19.146 41.79h-5.33v.154h5.33v-.155Z" fill="#FF9446"/><path opacity=".6" d="M18 45.179h-3.038v3.038H18V45.18Z" fill="#fff"/><path d="M16.427 45.414H15.2v2.565h1.227v-2.565ZM17.762 45.417h-1.227v2.565h1.227v-2.565Z" fill="#FF9446"/><g opacity=".2" fill="#fff"><path d="M16.427 45.414H15.2v2.565h1.227v-2.565ZM17.762 45.417h-1.227v2.565h1.227v-2.565Z"/></g><path d="M13.968 48.528h-.087v1.288h.087v-1.288ZM14.431 48.528h-.086v1.288h.086v-1.288ZM14.896 48.528h-.086v1.288h.086v-1.288ZM15.362 48.528h-.087v1.288h.087v-1.288ZM15.824 48.528h-.087v1.288h.087v-1.288ZM16.29 48.528h-.087v1.288h.087v-1.288ZM16.755 48.528h-.087v1.288h.087v-1.288ZM17.219 48.528h-.087v1.288h.087v-1.288ZM17.683 48.528h-.086v1.288h.086v-1.288ZM18.15 48.528h-.087v1.288h.086v-1.288ZM18.613 48.528h-.087v1.288h.087v-1.288ZM19.077 48.528h-.087v1.288h.087v-1.288Z" fill="#FF9446"/><path d="M19.146 48.45h-5.33v.155h5.33v-.155ZM19.146 49.69h-5.33v.154h5.33v-.154Z" fill="#FF9446"/><path opacity=".6" d="M18 53.079h-3.038v3.038H18V53.08Z" fill="#fff"/><path d="M16.427 53.314H15.2v2.565h1.227v-2.565ZM17.762 53.318h-1.227v2.565h1.227v-2.565Z" fill="#FF9446"/><g opacity=".2" fill="#fff"><path d="M16.427 53.314H15.2v2.565h1.227v-2.565ZM17.762 53.318h-1.227v2.565h1.227v-2.565Z"/></g><path d="M13.968 56.428h-.087v1.288h.087v-1.288ZM14.431 56.428h-.086v1.288h.086v-1.288ZM14.896 56.428h-.086v1.288h.086v-1.288ZM15.362 56.428h-.087v1.288h.087v-1.288ZM15.824 56.428h-.087v1.288h.087v-1.288ZM16.29 56.428h-.087v1.288h.087v-1.288ZM16.755 56.428h-.087v1.288h.087v-1.288ZM17.219 56.428h-.087v1.288h.087v-1.288ZM17.683 56.428h-.086v1.288h.086v-1.288ZM18.15 56.428h-.087v1.288h.086v-1.288ZM18.613 56.428h-.087v1.288h.087v-1.288ZM19.077 56.428h-.087v1.288h.087v-1.288Z" fill="#FF9446"/><path d="M19.146 56.35h-5.33v.155h5.33v-.154ZM19.146 57.59h-5.33v.154h5.33v-.155Z" fill="#FF9446"/><path opacity=".2" d="M38.344 12.273h-8.363v52.049h-1.239V9.174h9.602v3.099Z" fill="#000"/><path d="M58.621 10.931H8.55l3.097-5.784h43.878l3.097 5.784Z" fill="#FF9446"/><path d="M58.936 10.516H8.241v.93h50.695v-.93Z" fill="#FF9446"/><path opacity=".3" d="M58.936 10.516H8.241v.93h50.695v-.93Z" fill="#fff"/><path d="M48.3.5H18.873v7.333h29.425V.5Z" fill="#FF9446"/><path opacity=".3" d="M48.3.5H18.873v7.333h29.425V.5Z" fill="#fff"/><path d="M26.588 5.436V2.443h.988c.2 0 .377.032.53.096a.73.73 0 0 1 .355.31c.085.143.128.33.128.564 0 .23-.043.417-.128.56a.753.753 0 0 1-.355.315c-.153.067-.33.1-.53.1h-.56v1.048h-.428Zm.428-1.411h.5c.218 0 .381-.05.49-.148.11-.1.164-.253.164-.46 0-.207-.052-.361-.156-.461-.103-.1-.269-.15-.498-.15h-.5v1.219Zm3.464.603h-1.283V4.26h1.283v.368Zm-.702-1.788h.12l-.92 2.596h-.427l1.074-2.993h.427l1.073 2.993h-.427l-.92-2.595Zm1.72 2.596V2.443h.406v2.625h1.372v.368h-1.778Zm3.758-.808h-1.283V4.26h1.283v.368Zm-.701-1.788h.12l-.92 2.596h-.427L34.4 2.443h.427l1.073 2.993h-.427l-.92-2.595Zm3.007 2.655c-.29 0-.55-.063-.778-.19a1.398 1.398 0 0 1-.537-.54 1.674 1.674 0 0 1-.194-.826c0-.316.066-.59.197-.823.132-.233.313-.414.542-.54.231-.129.494-.193.787-.193a1.884 1.884 0 0 1 .8.175l-.043.377a2.136 2.136 0 0 0-.353-.13 1.52 1.52 0 0 0-.408-.054 1.04 1.04 0 0 0-.592.16c-.16.106-.281.248-.364.428a1.44 1.44 0 0 0-.121.6c0 .221.04.421.12.6.08.18.2.324.358.43.16.106.357.159.59.159a1.69 1.69 0 0 0 .77-.18l.043.376a1.922 1.922 0 0 1-.817.171Zm1.3-.06V2.444h1.826v.368h-1.42v.876h1.13v.368h-1.13v1.013h1.459v.368h-1.864Z" fill="#fff"/><path d="M10.574 54.002 7.17 50.23 2.73 52.568l1.846-10.134 7.848 1.434-1.849 10.134Z" fill="#FF9446"/><path opacity=".3" d="M10.574 54.002 7.17 50.23 2.73 52.568l1.846-10.134 7.848 1.434-1.849 10.134Z" fill="#fff"/><path d="m10.894 30.107.848.917 1.224-.26.595 1.1 1.248.049.303 1.214 1.2.36-.01 1.248 1.072.648-.32 1.211.877.892-.61 1.09.629 1.082-.861.908.337 1.202-1.06.666.026 1.249-1.19.38-.285 1.218-1.248.069-.576 1.109-1.227-.242-.836.933-1.127-.54-1.041.691-.96-.802-1.18.412-.728-1.016-1.245.108-.453-1.165-1.232-.207-.15-1.243-1.142-.508.164-1.239-.982-.775.468-1.161-.759-.995.743-1.007-.486-1.152.967-.79-.183-1.236 1.133-.527.13-1.243 1.23-.229.434-1.17 1.248.086.712-1.029 1.187.394.945-.818 1.05.675 1.12-.558Z" fill="#FF9446"/><path opacity=".2" d="m10.894 30.107.848.917 1.224-.26.595 1.1 1.248.049.303 1.214 1.2.36-.01 1.248 1.072.648-.32 1.211.877.892-.61 1.09.629 1.082-.861.908.337 1.202-1.06.666.026 1.249-1.19.38-.285 1.218-1.248.069-.576 1.109-1.227-.242-.836.933-1.127-.54-1.041.691-.96-.802-1.18.412-.728-1.016-1.245.108-.453-1.165-1.232-.207-.15-1.243-1.142-.508.164-1.239-.982-.775.468-1.161-.759-.995.743-1.007-.486-1.152.967-.79-.183-1.236 1.133-.527.13-1.243 1.23-.229.434-1.17 1.248.086.712-1.029 1.187.394.945-.818 1.05.675 1.12-.558Z" fill="#000"/><path d="M16.327 40.875a7.356 7.356 0 1 0-13.993-4.548 7.356 7.356 0 1 0 13.993 4.548Z" fill="#FF9446"/><path d="m5.241 34.356.435-.722-.412-.075.227-.334.391.071.193-.322-.423-.077.174-.322.44.08.379-.61.329.06-.372.611.398.073.372-.611.328.06-.371.61.388.072-.181.32-.399-.072-.192.322.437.08-.234.333-.41-.075-.434.722-.336-.061.435-.722-.391-.072-.442.721-.329-.06Zm.97-1 .398.073.2-.321-.399-.073-.2.321Zm1.794 1.465.331-1.813c-.05.02-.104.037-.159.05a.727.727 0 0 1-.171.02l.03-.385a.522.522 0 0 0 .181-.045.992.992 0 0 0 .197-.108.53.53 0 0 0 .142-.146l.343.063-.446 2.446-.448-.082Z" fill="#fff"/><path d="M59.082 63.083H8.087A.917.917 0 0 0 7.17 64v10.583c0 .506.41.917.917.917h50.995c.507 0 .917-.41.917-.917V64a.917.917 0 0 0-.917-.917Z" fill="#FF9446"/><path d="m16.307 69.949.455 2.655-2.382-1.255L12 72.604l.455-2.655-1.927-1.878 2.664-.387 1.19-2.413 1.192 2.413 2.664.387-1.93 1.878Z" fill="#fff"/><path opacity=".2" d="m16.308 69.949.456 2.655-2.382-1.255L12 72.604l2.382-2.807 1.945 2.218-1.446-2.723 2.84-1.044-2.859.31-.48-3.288 1.192 2.414 2.664.387-1.93 1.878Z" fill="#000"/><path d="m25.91 69.949.456 2.655-2.382-1.255-2.382 1.255.455-2.655-1.926-1.878 2.664-.387 1.189-2.413 1.192 2.413 2.664.387-1.93 1.878Z" fill="#fff"/><path opacity=".2" d="m25.91 69.949.455 2.655-2.381-1.255-2.382 1.255 2.381-2.807 1.946 2.218-1.447-2.723 2.84-1.044-2.858.31-.48-3.288 1.192 2.414 2.664.387-1.93 1.878Z" fill="#000"/><path d="m35.512 69.949.456 2.655-2.382-1.255-2.382 1.255.455-2.655-1.927-1.878 2.664-.387 1.19-2.413 1.192 2.413 2.664.387-1.93 1.878Z" fill="#fff"/><path opacity=".2" d="m35.512 69.949.455 2.655-2.382-1.255-2.382 1.255 2.382-2.807 1.945 2.218-1.446-2.723 2.84-1.044-2.859.31-.48-3.288 1.193 2.414 2.663.387-1.93 1.878Z" fill="#000"/><path d="m45.115 69.949.455 2.655-2.382-1.255-2.382 1.255.456-2.655-1.927-1.878 2.664-.387 1.19-2.413 1.192 2.413 2.663.387-1.93 1.878Z" fill="#fff"/><path opacity=".2" d="m45.114 69.949.456 2.655-2.382-1.255-2.382 1.255 2.382-2.807 1.945 2.218-1.447-2.723 2.84-1.044-2.858.31-.48-3.288 1.192 2.414 2.664.387-1.93 1.878Z" fill="#000"/><path d="m54.716 69.949.456 2.655-2.382-1.255-2.382 1.255.455-2.655-1.926-1.878 2.663-.387 1.19-2.413 1.192 2.413 2.664.387-1.93 1.878Z" fill="#fff"/><path opacity=".2" d="m54.717 69.949.455 2.655-2.382-1.255-2.382 1.255 2.382-2.807 1.945 2.218-1.446-2.723 2.84-1.044-2.859.31-.48-3.288 1.193 2.414 2.663.387-1.93 1.878Z" fill="#000"/></svg>