<svg width="60" height="76" viewBox="0 0 60 76" fill="none" xmlns="http://www.w3.org/2000/svg">
<path d="M56.3849 9.15576H10.7852V68.247H56.3849V9.15576Z" fill="#FF9446"/>
<path opacity="0.6" d="M56.3849 9.15576H10.7852V68.247H56.3849V9.15576Z" fill="white"/>
<path opacity="0.3" d="M28.8813 9.07227H12.5674V64.5294H28.8813V9.07227Z" fill="white"/>
<path opacity="0.3" d="M54.605 9.07227H38.291V64.5294H54.605V9.07227Z" fill="white"/>
<path opacity="0.6" d="M52.2104 13.5771H49.1719V16.6157H52.2104V13.5771Z" fill="white"/>
<path d="M50.6367 13.813H49.4102V16.3776H50.6367V13.813Z" fill="#FF9446"/>
<path d="M51.9717 13.8164H50.7451V16.381H51.9717V13.8164Z" fill="#FF9446"/>
<g opacity="0.2">
<path d="M50.6367 13.813H49.4102V16.3776H50.6367V13.813Z" fill="white"/>
<path d="M51.9717 13.8159H50.7451V16.3806H51.9717V13.8159Z" fill="white"/>
</g>
<path d="M48.1805 16.9263H48.0938V18.2148H48.1805V16.9263Z" fill="#FF9446"/>
<path d="M48.6443 16.9263H48.5576V18.2148H48.6443V16.9263Z" fill="#FF9446"/>
<path d="M49.1102 16.9263H49.0234V18.2148H49.1102V16.9263Z" fill="#FF9446"/>
<path d="M49.574 16.9263H49.4873V18.2148H49.574V16.9263Z" fill="#FF9446"/>
<path d="M50.0389 16.9263H49.9521V18.2148H50.0389V16.9263Z" fill="#FF9446"/>
<path d="M50.5027 16.9263H50.416V18.2148H50.5027V16.9263Z" fill="#FF9446"/>
<path d="M50.9686 16.9263H50.8818V18.2148H50.9686V16.9263Z" fill="#FF9446"/>
<path d="M51.4334 16.9263H51.3467V18.2148H51.4334V16.9263Z" fill="#FF9446"/>
<path d="M51.8973 16.9263H51.8105V18.2148H51.8973V16.9263Z" fill="#FF9446"/>
<path d="M52.3621 16.9263H52.2754V18.2148H52.3621V16.9263Z" fill="#FF9446"/>
<path d="M52.826 16.9263H52.7393V18.2148H52.826V16.9263Z" fill="#FF9446"/>
<path d="M53.2918 16.9263H53.2051V18.2148H53.2918V16.9263Z" fill="#FF9446"/>
<path d="M53.355 16.8486H48.0244V17.0035H53.355V16.8486Z" fill="#FF9446"/>
<path d="M53.355 18.0884H48.0244V18.2432H53.355V18.0884Z" fill="#FF9446"/>
<path opacity="0.6" d="M52.2104 21.478H49.1719V24.5166H52.2104V21.478Z" fill="white"/>
<path d="M50.6367 21.7129H49.4102V24.2775H50.6367V21.7129Z" fill="#FF9446"/>
<path d="M51.9717 21.7163H50.7451V24.2809H51.9717V21.7163Z" fill="#FF9446"/>
<g opacity="0.2">
<path d="M50.6367 21.7129H49.4102V24.2775H50.6367V21.7129Z" fill="white"/>
<path d="M51.9717 21.7163H50.7451V24.2809H51.9717V21.7163Z" fill="white"/>
</g>
<path d="M48.1805 24.8267H48.0938V26.1152H48.1805V24.8267Z" fill="#FF9446"/>
<path d="M48.6443 24.8267H48.5576V26.1152H48.6443V24.8267Z" fill="#FF9446"/>
<path d="M49.1102 24.8267H49.0234V26.1152H49.1102V24.8267Z" fill="#FF9446"/>
<path d="M49.574 24.8267H49.4873V26.1152H49.574V24.8267Z" fill="#FF9446"/>
<path d="M50.0389 24.8267H49.9521V26.1152H50.0389V24.8267Z" fill="#FF9446"/>
<path d="M50.5027 24.8267H50.416V26.1152H50.5027V24.8267Z" fill="#FF9446"/>
<path d="M50.9686 24.8267H50.8818V26.1152H50.9686V24.8267Z" fill="#FF9446"/>
<path d="M51.4334 24.8267H51.3467V26.1152H51.4334V24.8267Z" fill="#FF9446"/>
<path d="M51.8973 24.8267H51.8105V26.1152H51.8973V24.8267Z" fill="#FF9446"/>
<path d="M52.3621 24.8267H52.2754V26.1152H52.3621V24.8267Z" fill="#FF9446"/>
<path d="M52.826 24.8267H52.7393V26.1152H52.826V24.8267Z" fill="#FF9446"/>
<path d="M53.2918 24.8267H53.2051V26.1152H53.2918V24.8267Z" fill="#FF9446"/>
<path d="M53.355 24.7495H48.0244V24.9044H53.355V24.7495Z" fill="#FF9446"/>
<path d="M53.355 25.9883H48.0244V26.1432H53.355V25.9883Z" fill="#FF9446"/>
<path opacity="0.6" d="M52.2104 29.3779H49.1719V32.4165H52.2104V29.3779Z" fill="white"/>
<path d="M50.6367 29.6138H49.4102V32.1784H50.6367V29.6138Z" fill="#FF9446"/>
<path d="M51.9717 29.6162H50.7451V32.1809H51.9717V29.6162Z" fill="#FF9446"/>
<g opacity="0.2">
<path d="M50.6367 29.6133H49.4102V32.1779H50.6367V29.6133Z" fill="white"/>
<path d="M51.9717 29.6167H50.7451V32.1813H51.9717V29.6167Z" fill="white"/>
</g>
<path d="M48.1805 32.7271H48.0938V34.0156H48.1805V32.7271Z" fill="#FF9446"/>
<path d="M48.6443 32.7271H48.5576V34.0156H48.6443V32.7271Z" fill="#FF9446"/>
<path d="M49.1102 32.7271H49.0234V34.0156H49.1102V32.7271Z" fill="#FF9446"/>
<path d="M49.574 32.7271H49.4873V34.0156H49.574V32.7271Z" fill="#FF9446"/>
<path d="M50.0389 32.7271H49.9521V34.0156H50.0389V32.7271Z" fill="#FF9446"/>
<path d="M50.5027 32.7271H50.416V34.0156H50.5027V32.7271Z" fill="#FF9446"/>
<path d="M50.9686 32.7271H50.8818V34.0156H50.9686V32.7271Z" fill="#FF9446"/>
<path d="M51.4334 32.7271H51.3467V34.0156H51.4334V32.7271Z" fill="#FF9446"/>
<path d="M51.8973 32.7271H51.8105V34.0156H51.8973V32.7271Z" fill="#FF9446"/>
<path d="M52.3621 32.7271H52.2754V34.0156H52.3621V32.7271Z" fill="#FF9446"/>
<path d="M52.826 32.7271H52.7393V34.0156H52.826V32.7271Z" fill="#FF9446"/>
<path d="M53.2918 32.7271H53.2051V34.0156H53.2918V32.7271Z" fill="#FF9446"/>
<path d="M53.355 32.6494H48.0244V32.8043H53.355V32.6494Z" fill="#FF9446"/>
<path d="M53.355 33.8892H48.0244V34.044H53.355V33.8892Z" fill="#FF9446"/>
<path opacity="0.6" d="M52.2104 37.2788H49.1719V40.3173H52.2104V37.2788Z" fill="white"/>
<path d="M50.6367 37.5142H49.4102V40.0788H50.6367V37.5142Z" fill="#FF9446"/>
<path d="M51.9717 37.5171H50.7451V40.0817H51.9717V37.5171Z" fill="#FF9446"/>
<g opacity="0.2">
<path d="M50.6367 37.5132H49.4102V40.0778H50.6367V37.5132Z" fill="white"/>
<path d="M51.9717 37.5161H50.7451V40.0808H51.9717V37.5161Z" fill="white"/>
</g>
<path d="M48.1805 40.6274H48.0938V41.916H48.1805V40.6274Z" fill="#FF9446"/>
<path d="M48.6443 40.6274H48.5576V41.916H48.6443V40.6274Z" fill="#FF9446"/>
<path d="M49.1102 40.6274H49.0234V41.916H49.1102V40.6274Z" fill="#FF9446"/>
<path d="M49.574 40.6274H49.4873V41.916H49.574V40.6274Z" fill="#FF9446"/>
<path d="M50.0389 40.6274H49.9521V41.916H50.0389V40.6274Z" fill="#FF9446"/>
<path d="M50.5027 40.6274H50.416V41.916H50.5027V40.6274Z" fill="#FF9446"/>
<path d="M50.9686 40.6274H50.8818V41.916H50.9686V40.6274Z" fill="#FF9446"/>
<path d="M51.4334 40.6274H51.3467V41.916H51.4334V40.6274Z" fill="#FF9446"/>
<path d="M51.8973 40.6274H51.8105V41.916H51.8973V40.6274Z" fill="#FF9446"/>
<path d="M52.3621 40.6274H52.2754V41.916H52.3621V40.6274Z" fill="#FF9446"/>
<path d="M52.826 40.6274H52.7393V41.916H52.826V40.6274Z" fill="#FF9446"/>
<path d="M53.2918 40.6274H53.2051V41.916H53.2918V40.6274Z" fill="#FF9446"/>
<path d="M53.355 40.5503H48.0244V40.7052H53.355V40.5503Z" fill="#FF9446"/>
<path d="M53.355 41.7891H48.0244V41.9439H53.355V41.7891Z" fill="#FF9446"/>
<path opacity="0.6" d="M52.2104 45.1787H49.1719V48.2172H52.2104V45.1787Z" fill="white"/>
<path d="M50.6367 45.4141H49.4102V47.9787H50.6367V45.4141Z" fill="#FF9446"/>
<path d="M51.9717 45.417H50.7451V47.9816H51.9717V45.417Z" fill="#FF9446"/>
<g opacity="0.2">
<path d="M50.6367 45.4141H49.4102V47.9787H50.6367V45.4141Z" fill="white"/>
<path d="M51.9717 45.417H50.7451V47.9816H51.9717V45.417Z" fill="white"/>
</g>
<path d="M48.1805 48.5278H48.0938V49.8163H48.1805V48.5278Z" fill="#FF9446"/>
<path d="M48.6443 48.5278H48.5576V49.8163H48.6443V48.5278Z" fill="#FF9446"/>
<path d="M49.1102 48.5278H49.0234V49.8163H49.1102V48.5278Z" fill="#FF9446"/>
<path d="M49.574 48.5278H49.4873V49.8163H49.574V48.5278Z" fill="#FF9446"/>
<path d="M50.0389 48.5278H49.9521V49.8163H50.0389V48.5278Z" fill="#FF9446"/>
<path d="M50.5027 48.5278H50.416V49.8163H50.5027V48.5278Z" fill="#FF9446"/>
<path d="M50.9686 48.5278H50.8818V49.8163H50.9686V48.5278Z" fill="#FF9446"/>
<path d="M51.4334 48.5278H51.3467V49.8163H51.4334V48.5278Z" fill="#FF9446"/>
<path d="M51.8973 48.5278H51.8105V49.8163H51.8973V48.5278Z" fill="#FF9446"/>
<path d="M52.3621 48.5278H52.2754V49.8163H52.3621V48.5278Z" fill="#FF9446"/>
<path d="M52.826 48.5278H52.7393V49.8163H52.826V48.5278Z" fill="#FF9446"/>
<path d="M53.2918 48.5278H53.2051V49.8163H53.2918V48.5278Z" fill="#FF9446"/>
<path d="M53.355 48.4502H48.0244V48.6051H53.355V48.4502Z" fill="#FF9446"/>
<path d="M53.355 49.6895H48.0244V49.8443H53.355V49.6895Z" fill="#FF9446"/>
<path opacity="0.6" d="M52.2104 53.0786H49.1719V56.1172H52.2104V53.0786Z" fill="white"/>
<path d="M50.6367 53.314H49.4102V55.8786H50.6367V53.314Z" fill="#FF9446"/>
<path d="M51.9717 53.3179H50.7451V55.8825H51.9717V53.3179Z" fill="#FF9446"/>
<g opacity="0.2">
<path d="M50.6367 53.3149H49.4102V55.8796H50.6367V53.3149Z" fill="white"/>
<path d="M51.9717 53.3179H50.7451V55.8825H51.9717V53.3179Z" fill="white"/>
</g>
<path d="M48.1805 56.4277H48.0938V57.7162H48.1805V56.4277Z" fill="#FF9446"/>
<path d="M48.6443 56.4277H48.5576V57.7162H48.6443V56.4277Z" fill="#FF9446"/>
<path d="M49.1102 56.4277H49.0234V57.7162H49.1102V56.4277Z" fill="#FF9446"/>
<path d="M49.574 56.4277H49.4873V57.7162H49.574V56.4277Z" fill="#FF9446"/>
<path d="M50.0389 56.4277H49.9521V57.7162H50.0389V56.4277Z" fill="#FF9446"/>
<path d="M50.5027 56.4277H50.416V57.7162H50.5027V56.4277Z" fill="#FF9446"/>
<path d="M50.9686 56.4277H50.8818V57.7162H50.9686V56.4277Z" fill="#FF9446"/>
<path d="M51.4334 56.4277H51.3467V57.7162H51.4334V56.4277Z" fill="#FF9446"/>
<path d="M51.8973 56.4277H51.8105V57.7162H51.8973V56.4277Z" fill="#FF9446"/>
<path d="M52.3621 56.4277H52.2754V57.7162H52.3621V56.4277Z" fill="#FF9446"/>
<path d="M52.826 56.4277H52.7393V57.7162H52.826V56.4277Z" fill="#FF9446"/>
<path d="M53.2918 56.4277H53.2051V57.7162H53.2918V56.4277Z" fill="#FF9446"/>
<path d="M53.355 56.3506H48.0244V56.5055H53.355V56.3506Z" fill="#FF9446"/>
<path d="M53.355 57.5894H48.0244V57.7442H53.355V57.5894Z" fill="#FF9446"/>
<path opacity="0.6" d="M43.6587 13.5771H40.6201V16.6157H43.6587V13.5771Z" fill="white"/>
<path d="M42.082 13.813H40.8555V16.3776H42.082V13.813Z" fill="#FF9446"/>
<path d="M43.4199 13.8164H42.1934V16.381H43.4199V13.8164Z" fill="#FF9446"/>
<g opacity="0.2">
<path d="M42.082 13.813H40.8555V16.3776H42.082V13.813Z" fill="white"/>
<path d="M43.4199 13.8159H42.1934V16.3806H43.4199V13.8159Z" fill="white"/>
</g>
<path d="M39.6258 16.9263H39.5391V18.2148H39.6258V16.9263Z" fill="#FF9446"/>
<path d="M40.0897 16.9263H40.0029V18.2148H40.0897V16.9263Z" fill="#FF9446"/>
<path d="M40.5555 16.9263H40.4688V18.2148H40.5555V16.9263Z" fill="#FF9446"/>
<path d="M41.0193 16.9263H40.9326V18.2148H41.0193V16.9263Z" fill="#FF9446"/>
<path d="M41.4842 16.9263H41.3975V18.2148H41.4842V16.9263Z" fill="#FF9446"/>
<path d="M41.9481 16.9263H41.8613V18.2148H41.9481V16.9263Z" fill="#FF9446"/>
<path d="M42.4129 16.9263H42.3262V18.2148H42.4129V16.9263Z" fill="#FF9446"/>
<path d="M42.8787 16.9263H42.792V18.2148H42.8787V16.9263Z" fill="#FF9446"/>
<path d="M43.3426 16.9263H43.2559V18.2148H43.3426V16.9263Z" fill="#FF9446"/>
<path d="M43.8065 16.9263H43.7197V18.2148H43.8065V16.9263Z" fill="#FF9446"/>
<path d="M44.2713 16.9263H44.1846V18.2148H44.2713V16.9263Z" fill="#FF9446"/>
<path d="M44.7371 16.9263H44.6504V18.2148H44.7371V16.9263Z" fill="#FF9446"/>
<path d="M44.8042 16.8486H39.4736V17.0035H44.8042V16.8486Z" fill="#FF9446"/>
<path d="M44.8042 18.0884H39.4736V18.2432H44.8042V18.0884Z" fill="#FF9446"/>
<path opacity="0.6" d="M43.6587 21.478H40.6201V24.5166H43.6587V21.478Z" fill="white"/>
<path d="M42.082 21.7129H40.8555V24.2775H42.082V21.7129Z" fill="#FF9446"/>
<path d="M43.4199 21.7163H42.1934V24.2809H43.4199V21.7163Z" fill="#FF9446"/>
<g opacity="0.2">
<path d="M42.082 21.7129H40.8555V24.2775H42.082V21.7129Z" fill="white"/>
<path d="M43.4199 21.7163H42.1934V24.2809H43.4199V21.7163Z" fill="white"/>
</g>
<path d="M39.6258 24.8267H39.5391V26.1152H39.6258V24.8267Z" fill="#FF9446"/>
<path d="M40.0897 24.8267H40.0029V26.1152H40.0897V24.8267Z" fill="#FF9446"/>
<path d="M40.5555 24.8267H40.4688V26.1152H40.5555V24.8267Z" fill="#FF9446"/>
<path d="M41.0193 24.8267H40.9326V26.1152H41.0193V24.8267Z" fill="#FF9446"/>
<path d="M41.4842 24.8267H41.3975V26.1152H41.4842V24.8267Z" fill="#FF9446"/>
<path d="M41.9481 24.8267H41.8613V26.1152H41.9481V24.8267Z" fill="#FF9446"/>
<path d="M42.4129 24.8267H42.3262V26.1152H42.4129V24.8267Z" fill="#FF9446"/>
<path d="M42.8787 24.8267H42.792V26.1152H42.8787V24.8267Z" fill="#FF9446"/>
<path d="M43.3426 24.8267H43.2559V26.1152H43.3426V24.8267Z" fill="#FF9446"/>
<path d="M43.8065 24.8267H43.7197V26.1152H43.8065V24.8267Z" fill="#FF9446"/>
<path d="M44.2713 24.8267H44.1846V26.1152H44.2713V24.8267Z" fill="#FF9446"/>
<path d="M44.7371 24.8267H44.6504V26.1152H44.7371V24.8267Z" fill="#FF9446"/>
<path d="M44.8042 24.7495H39.4736V24.9044H44.8042V24.7495Z" fill="#FF9446"/>
<path d="M44.8042 25.9883H39.4736V26.1432H44.8042V25.9883Z" fill="#FF9446"/>
<path opacity="0.6" d="M43.6587 29.3779H40.6201V32.4165H43.6587V29.3779Z" fill="white"/>
<path d="M42.082 29.6138H40.8555V32.1784H42.082V29.6138Z" fill="#FF9446"/>
<path d="M43.4199 29.6162H42.1934V32.1809H43.4199V29.6162Z" fill="#FF9446"/>
<g opacity="0.2">
<path d="M42.082 29.6133H40.8555V32.1779H42.082V29.6133Z" fill="white"/>
<path d="M43.4199 29.6167H42.1934V32.1813H43.4199V29.6167Z" fill="white"/>
</g>
<path d="M39.6258 32.7271H39.5391V34.0156H39.6258V32.7271Z" fill="#FF9446"/>
<path d="M40.0897 32.7271H40.0029V34.0156H40.0897V32.7271Z" fill="#FF9446"/>
<path d="M40.5555 32.7271H40.4688V34.0156H40.5555V32.7271Z" fill="#FF9446"/>
<path d="M41.0193 32.7271H40.9326V34.0156H41.0193V32.7271Z" fill="#FF9446"/>
<path d="M41.4842 32.7271H41.3975V34.0156H41.4842V32.7271Z" fill="#FF9446"/>
<path d="M41.9481 32.7271H41.8613V34.0156H41.9481V32.7271Z" fill="#FF9446"/>
<path d="M42.4129 32.7271H42.3262V34.0156H42.4129V32.7271Z" fill="#FF9446"/>
<path d="M42.8787 32.7271H42.792V34.0156H42.8787V32.7271Z" fill="#FF9446"/>
<path d="M43.3426 32.7271H43.2559V34.0156H43.3426V32.7271Z" fill="#FF9446"/>
<path d="M43.8065 32.7271H43.7197V34.0156H43.8065V32.7271Z" fill="#FF9446"/>
<path d="M44.2713 32.7271H44.1846V34.0156H44.2713V32.7271Z" fill="#FF9446"/>
<path d="M44.7371 32.7271H44.6504V34.0156H44.7371V32.7271Z" fill="#FF9446"/>
<path d="M44.8042 32.6494H39.4736V32.8043H44.8042V32.6494Z" fill="#FF9446"/>
<path d="M44.8042 33.8892H39.4736V34.044H44.8042V33.8892Z" fill="#FF9446"/>
<path opacity="0.6" d="M43.6587 37.2788H40.6201V40.3173H43.6587V37.2788Z" fill="white"/>
<path d="M42.082 37.5142H40.8555V40.0788H42.082V37.5142Z" fill="#FF9446"/>
<path d="M43.4199 37.5171H42.1934V40.0817H43.4199V37.5171Z" fill="#FF9446"/>
<g opacity="0.2">
<path d="M42.082 37.5142H40.8555V40.0788H42.082V37.5142Z" fill="white"/>
<path d="M43.4199 37.5176H42.1934V40.0822H43.4199V37.5176Z" fill="white"/>
</g>
<path d="M39.6258 40.6274H39.5391V41.916H39.6258V40.6274Z" fill="#FF9446"/>
<path d="M40.0897 40.6274H40.0029V41.916H40.0897V40.6274Z" fill="#FF9446"/>
<path d="M40.5555 40.6274H40.4688V41.916H40.5555V40.6274Z" fill="#FF9446"/>
<path d="M41.0193 40.6274H40.9326V41.916H41.0193V40.6274Z" fill="#FF9446"/>
<path d="M41.4842 40.6274H41.3975V41.916H41.4842V40.6274Z" fill="#FF9446"/>
<path d="M41.9481 40.6274H41.8613V41.916H41.9481V40.6274Z" fill="#FF9446"/>
<path d="M42.4129 40.6274H42.3262V41.916H42.4129V40.6274Z" fill="#FF9446"/>
<path d="M42.8787 40.6274H42.792V41.916H42.8787V40.6274Z" fill="#FF9446"/>
<path d="M43.3426 40.6274H43.2559V41.916H43.3426V40.6274Z" fill="#FF9446"/>
<path d="M43.8065 40.6274H43.7197V41.916H43.8065V40.6274Z" fill="#FF9446"/>
<path d="M44.2713 40.6274H44.1846V41.916H44.2713V40.6274Z" fill="#FF9446"/>
<path d="M44.7371 40.6274H44.6504V41.916H44.7371V40.6274Z" fill="#FF9446"/>
<path d="M44.8042 40.5503H39.4736V40.7052H44.8042V40.5503Z" fill="#FF9446"/>
<path d="M44.8042 41.7891H39.4736V41.9439H44.8042V41.7891Z" fill="#FF9446"/>
<path opacity="0.6" d="M43.6587 45.1787H40.6201V48.2172H43.6587V45.1787Z" fill="white"/>
<path d="M42.082 45.4141H40.8555V47.9787H42.082V45.4141Z" fill="#FF9446"/>
<path d="M43.4199 45.417H42.1934V47.9816H43.4199V45.417Z" fill="#FF9446"/>
<g opacity="0.2">
<path d="M42.082 45.4141H40.8555V47.9787H42.082V45.4141Z" fill="white"/>
<path d="M43.4199 45.417H42.1934V47.9816H43.4199V45.417Z" fill="white"/>
</g>
<path d="M39.6258 48.5278H39.5391V49.8163H39.6258V48.5278Z" fill="#FF9446"/>
<path d="M40.0897 48.5278H40.0029V49.8163H40.0897V48.5278Z" fill="#FF9446"/>
<path d="M40.5555 48.5278H40.4688V49.8163H40.5555V48.5278Z" fill="#FF9446"/>
<path d="M41.0193 48.5278H40.9326V49.8163H41.0193V48.5278Z" fill="#FF9446"/>
<path d="M41.4842 48.5278H41.3975V49.8163H41.4842V48.5278Z" fill="#FF9446"/>
<path d="M41.9481 48.5278H41.8613V49.8163H41.9481V48.5278Z" fill="#FF9446"/>
<path d="M42.4129 48.5278H42.3262V49.8163H42.4129V48.5278Z" fill="#FF9446"/>
<path d="M42.8787 48.5278H42.792V49.8163H42.8787V48.5278Z" fill="#FF9446"/>
<path d="M43.3426 48.5278H43.2559V49.8163H43.3426V48.5278Z" fill="#FF9446"/>
<path d="M43.8065 48.5278H43.7197V49.8163H43.8065V48.5278Z" fill="#FF9446"/>
<path d="M44.2713 48.5278H44.1846V49.8163H44.2713V48.5278Z" fill="#FF9446"/>
<path d="M44.7371 48.5278H44.6504V49.8163H44.7371V48.5278Z" fill="#FF9446"/>
<path d="M44.8042 48.4502H39.4736V48.6051H44.8042V48.4502Z" fill="#FF9446"/>
<path d="M44.8042 49.6895H39.4736V49.8443H44.8042V49.6895Z" fill="#FF9446"/>
<path opacity="0.6" d="M43.6587 53.0786H40.6201V56.1172H43.6587V53.0786Z" fill="white"/>
<path d="M42.082 53.314H40.8555V55.8786H42.082V53.314Z" fill="#FF9446"/>
<path d="M43.4199 53.3179H42.1934V55.8825H43.4199V53.3179Z" fill="#FF9446"/>
<g opacity="0.2">
<path d="M42.082 53.314H40.8555V55.8786H42.082V53.314Z" fill="white"/>
<path d="M43.4199 53.3179H42.1934V55.8825H43.4199V53.3179Z" fill="white"/>
</g>
<path d="M39.6258 56.4277H39.5391V57.7162H39.6258V56.4277Z" fill="#FF9446"/>
<path d="M40.0897 56.4277H40.0029V57.7162H40.0897V56.4277Z" fill="#FF9446"/>
<path d="M40.5555 56.4277H40.4688V57.7162H40.5555V56.4277Z" fill="#FF9446"/>
<path d="M41.0193 56.4277H40.9326V57.7162H41.0193V56.4277Z" fill="#FF9446"/>
<path d="M41.4842 56.4277H41.3975V57.7162H41.4842V56.4277Z" fill="#FF9446"/>
<path d="M41.9481 56.4277H41.8613V57.7162H41.9481V56.4277Z" fill="#FF9446"/>
<path d="M42.4129 56.4277H42.3262V57.7162H42.4129V56.4277Z" fill="#FF9446"/>
<path d="M42.8787 56.4277H42.792V57.7162H42.8787V56.4277Z" fill="#FF9446"/>
<path d="M43.3426 56.4277H43.2559V57.7162H43.3426V56.4277Z" fill="#FF9446"/>
<path d="M43.8065 56.4277H43.7197V57.7162H43.8065V56.4277Z" fill="#FF9446"/>
<path d="M44.2713 56.4277H44.1846V57.7162H44.2713V56.4277Z" fill="#FF9446"/>
<path d="M44.7371 56.4277H44.6504V57.7162H44.7371V56.4277Z" fill="#FF9446"/>
<path d="M44.8042 56.3506H39.4736V56.5055H44.8042V56.3506Z" fill="#FF9446"/>
<path d="M44.8042 57.5894H39.4736V57.7442H44.8042V57.5894Z" fill="#FF9446"/>
<path opacity="0.6" d="M35.1069 13.5771H32.0684V16.6157H35.1069V13.5771Z" fill="white"/>
<path d="M33.5303 13.813H32.3037V16.3776H33.5303V13.813Z" fill="#FF9446"/>
<path d="M34.8682 13.8164H33.6416V16.381H34.8682V13.8164Z" fill="#FF9446"/>
<g opacity="0.2">
<path d="M33.5303 13.8125H32.3037V16.3771H33.5303V13.8125Z" fill="white"/>
<path d="M34.8682 13.8159H33.6416V16.3806H34.8682V13.8159Z" fill="white"/>
</g>
<path d="M31.074 16.9263H30.9873V18.2148H31.074V16.9263Z" fill="#FF9446"/>
<path d="M31.5379 16.9263H31.4512V18.2148H31.5379V16.9263Z" fill="#FF9446"/>
<path d="M32.0037 16.9263H31.917V18.2148H32.0037V16.9263Z" fill="#FF9446"/>
<path d="M32.4686 16.9263H32.3818V18.2148H32.4686V16.9263Z" fill="#FF9446"/>
<path d="M32.9324 16.9263H32.8457V18.2148H32.9324V16.9263Z" fill="#FF9446"/>
<path d="M33.3963 16.9263H33.3096V18.2148H33.3963V16.9263Z" fill="#FF9446"/>
<path d="M33.8611 16.9263H33.7744V18.2148H33.8611V16.9263Z" fill="#FF9446"/>
<path d="M34.327 16.9263H34.2402V18.2148H34.327V16.9263Z" fill="#FF9446"/>
<path d="M34.7899 16.9263H34.7031V18.2148H34.7899V16.9263Z" fill="#FF9446"/>
<path d="M35.2557 16.9263H35.1689V18.2148H35.2557V16.9263Z" fill="#FF9446"/>
<path d="M35.7195 16.9263H35.6328V18.2148H35.7195V16.9263Z" fill="#FF9446"/>
<path d="M36.1834 16.9263H36.0967V18.2148H36.1834V16.9263Z" fill="#FF9446"/>
<path d="M36.2525 16.8486H30.9219V17.0035H36.2525V16.8486Z" fill="#FF9446"/>
<path d="M36.2525 18.0884H30.9219V18.2432H36.2525V18.0884Z" fill="#FF9446"/>
<path opacity="0.6" d="M35.1069 21.478H32.0684V24.5166H35.1069V21.478Z" fill="white"/>
<path d="M33.5303 21.7129H32.3037V24.2775H33.5303V21.7129Z" fill="#FF9446"/>
<path d="M34.8682 21.7163H33.6416V24.2809H34.8682V21.7163Z" fill="#FF9446"/>
<g opacity="0.2">
<path d="M33.5303 21.7139H32.3037V24.2785H33.5303V21.7139Z" fill="white"/>
<path d="M34.8682 21.7168H33.6416V24.2814H34.8682V21.7168Z" fill="white"/>
</g>
<path d="M31.074 24.8267H30.9873V26.1152H31.074V24.8267Z" fill="#FF9446"/>
<path d="M31.5379 24.8267H31.4512V26.1152H31.5379V24.8267Z" fill="#FF9446"/>
<path d="M32.0037 24.8267H31.917V26.1152H32.0037V24.8267Z" fill="#FF9446"/>
<path d="M32.4686 24.8267H32.3818V26.1152H32.4686V24.8267Z" fill="#FF9446"/>
<path d="M32.9324 24.8267H32.8457V26.1152H32.9324V24.8267Z" fill="#FF9446"/>
<path d="M33.3963 24.8267H33.3096V26.1152H33.3963V24.8267Z" fill="#FF9446"/>
<path d="M33.8611 24.8267H33.7744V26.1152H33.8611V24.8267Z" fill="#FF9446"/>
<path d="M34.327 24.8267H34.2402V26.1152H34.327V24.8267Z" fill="#FF9446"/>
<path d="M34.7899 24.8267H34.7031V26.1152H34.7899V24.8267Z" fill="#FF9446"/>
<path d="M35.2557 24.8267H35.1689V26.1152H35.2557V24.8267Z" fill="#FF9446"/>
<path d="M35.7195 24.8267H35.6328V26.1152H35.7195V24.8267Z" fill="#FF9446"/>
<path d="M36.1834 24.8267H36.0967V26.1152H36.1834V24.8267Z" fill="#FF9446"/>
<path d="M36.2525 24.7495H30.9219V24.9044H36.2525V24.7495Z" fill="#FF9446"/>
<path d="M36.2525 25.9883H30.9219V26.1432H36.2525V25.9883Z" fill="#FF9446"/>
<path opacity="0.6" d="M35.1069 29.3779H32.0684V32.4165H35.1069V29.3779Z" fill="white"/>
<path d="M33.5303 29.6138H32.3037V32.1784H33.5303V29.6138Z" fill="#FF9446"/>
<path d="M34.8682 29.6162H33.6416V32.1809H34.8682V29.6162Z" fill="#FF9446"/>
<g opacity="0.2">
<path d="M33.5303 29.6138H32.3037V32.1784H33.5303V29.6138Z" fill="white"/>
<path d="M34.8682 29.6167H33.6416V32.1813H34.8682V29.6167Z" fill="white"/>
</g>
<path d="M31.074 32.7271H30.9873V34.0156H31.074V32.7271Z" fill="#FF9446"/>
<path d="M31.5379 32.7271H31.4512V34.0156H31.5379V32.7271Z" fill="#FF9446"/>
<path d="M32.0037 32.7271H31.917V34.0156H32.0037V32.7271Z" fill="#FF9446"/>
<path d="M32.4686 32.7271H32.3818V34.0156H32.4686V32.7271Z" fill="#FF9446"/>
<path d="M32.9324 32.7271H32.8457V34.0156H32.9324V32.7271Z" fill="#FF9446"/>
<path d="M33.3963 32.7271H33.3096V34.0156H33.3963V32.7271Z" fill="#FF9446"/>
<path d="M33.8611 32.7271H33.7744V34.0156H33.8611V32.7271Z" fill="#FF9446"/>
<path d="M34.327 32.7271H34.2402V34.0156H34.327V32.7271Z" fill="#FF9446"/>
<path d="M34.7899 32.7271H34.7031V34.0156H34.7899V32.7271Z" fill="#FF9446"/>
<path d="M35.2557 32.7271H35.1689V34.0156H35.2557V32.7271Z" fill="#FF9446"/>
<path d="M35.7195 32.7271H35.6328V34.0156H35.7195V32.7271Z" fill="#FF9446"/>
<path d="M36.1834 32.7271H36.0967V34.0156H36.1834V32.7271Z" fill="#FF9446"/>
<path d="M36.2525 32.6494H30.9219V32.8043H36.2525V32.6494Z" fill="#FF9446"/>
<path d="M36.2525 33.8892H30.9219V34.044H36.2525V33.8892Z" fill="#FF9446"/>
<path opacity="0.6" d="M35.1069 37.2788H32.0684V40.3173H35.1069V37.2788Z" fill="white"/>
<path d="M33.5303 37.5142H32.3037V40.0788H33.5303V37.5142Z" fill="#FF9446"/>
<path d="M34.8682 37.5171H33.6416V40.0817H34.8682V37.5171Z" fill="#FF9446"/>
<g opacity="0.2">
<path d="M33.5303 37.5142H32.3037V40.0788H33.5303V37.5142Z" fill="white"/>
<path d="M34.8682 37.5176H33.6416V40.0822H34.8682V37.5176Z" fill="white"/>
</g>
<path d="M31.074 40.6274H30.9873V41.916H31.074V40.6274Z" fill="#FF9446"/>
<path d="M31.5379 40.6274H31.4512V41.916H31.5379V40.6274Z" fill="#FF9446"/>
<path d="M32.0037 40.6274H31.917V41.916H32.0037V40.6274Z" fill="#FF9446"/>
<path d="M32.4686 40.6274H32.3818V41.916H32.4686V40.6274Z" fill="#FF9446"/>
<path d="M32.9324 40.6274H32.8457V41.916H32.9324V40.6274Z" fill="#FF9446"/>
<path d="M33.3963 40.6274H33.3096V41.916H33.3963V40.6274Z" fill="#FF9446"/>
<path d="M33.8611 40.6274H33.7744V41.916H33.8611V40.6274Z" fill="#FF9446"/>
<path d="M34.327 40.6274H34.2402V41.916H34.327V40.6274Z" fill="#FF9446"/>
<path d="M34.7899 40.6274H34.7031V41.916H34.7899V40.6274Z" fill="#FF9446"/>
<path d="M35.2557 40.6274H35.1689V41.916H35.2557V40.6274Z" fill="#FF9446"/>
<path d="M35.7195 40.6274H35.6328V41.916H35.7195V40.6274Z" fill="#FF9446"/>
<path d="M36.1834 40.6274H36.0967V41.916H36.1834V40.6274Z" fill="#FF9446"/>
<path d="M36.2525 40.5503H30.9219V40.7052H36.2525V40.5503Z" fill="#FF9446"/>
<path d="M36.2525 41.7891H30.9219V41.9439H36.2525V41.7891Z" fill="#FF9446"/>
<path opacity="0.6" d="M35.1069 45.1787H32.0684V48.2172H35.1069V45.1787Z" fill="white"/>
<path d="M33.5303 45.4141H32.3037V47.9787H33.5303V45.4141Z" fill="#FF9446"/>
<path d="M34.8682 45.417H33.6416V47.9816H34.8682V45.417Z" fill="#FF9446"/>
<g opacity="0.2">
<path d="M33.5303 45.4141H32.3037V47.9787H33.5303V45.4141Z" fill="white"/>
<path d="M34.8682 45.417H33.6416V47.9816H34.8682V45.417Z" fill="white"/>
</g>
<path d="M31.074 48.5278H30.9873V49.8163H31.074V48.5278Z" fill="#FF9446"/>
<path d="M31.5379 48.5278H31.4512V49.8163H31.5379V48.5278Z" fill="#FF9446"/>
<path d="M32.0037 48.5278H31.917V49.8163H32.0037V48.5278Z" fill="#FF9446"/>
<path d="M32.4686 48.5278H32.3818V49.8163H32.4686V48.5278Z" fill="#FF9446"/>
<path d="M32.9324 48.5278H32.8457V49.8163H32.9324V48.5278Z" fill="#FF9446"/>
<path d="M33.3963 48.5278H33.3096V49.8163H33.3963V48.5278Z" fill="#FF9446"/>
<path d="M33.8611 48.5278H33.7744V49.8163H33.8611V48.5278Z" fill="#FF9446"/>
<path d="M34.327 48.5278H34.2402V49.8163H34.327V48.5278Z" fill="#FF9446"/>
<path d="M34.7899 48.5278H34.7031V49.8163H34.7899V48.5278Z" fill="#FF9446"/>
<path d="M35.2557 48.5278H35.1689V49.8163H35.2557V48.5278Z" fill="#FF9446"/>
<path d="M35.7195 48.5278H35.6328V49.8163H35.7195V48.5278Z" fill="#FF9446"/>
<path d="M36.1834 48.5278H36.0967V49.8163H36.1834V48.5278Z" fill="#FF9446"/>
<path d="M36.2525 48.4502H30.9219V48.6051H36.2525V48.4502Z" fill="#FF9446"/>
<path d="M36.2525 49.6895H30.9219V49.8443H36.2525V49.6895Z" fill="#FF9446"/>
<path opacity="0.6" d="M35.1069 53.0786H32.0684V56.1172H35.1069V53.0786Z" fill="white"/>
<path d="M33.5303 53.314H32.3037V55.8786H33.5303V53.314Z" fill="#FF9446"/>
<path d="M34.8682 53.3179H33.6416V55.8825H34.8682V53.3179Z" fill="#FF9446"/>
<g opacity="0.2">
<path d="M33.5303 53.314H32.3037V55.8786H33.5303V53.314Z" fill="white"/>
<path d="M34.8682 53.3169H33.6416V55.8815H34.8682V53.3169Z" fill="white"/>
</g>
<path d="M31.074 56.4277H30.9873V57.7162H31.074V56.4277Z" fill="#FF9446"/>
<path d="M31.5379 56.4277H31.4512V57.7162H31.5379V56.4277Z" fill="#FF9446"/>
<path d="M32.0037 56.4277H31.917V57.7162H32.0037V56.4277Z" fill="#FF9446"/>
<path d="M32.4686 56.4277H32.3818V57.7162H32.4686V56.4277Z" fill="#FF9446"/>
<path d="M32.9324 56.4277H32.8457V57.7162H32.9324V56.4277Z" fill="#FF9446"/>
<path d="M33.3963 56.4277H33.3096V57.7162H33.3963V56.4277Z" fill="#FF9446"/>
<path d="M33.8611 56.4277H33.7744V57.7162H33.8611V56.4277Z" fill="#FF9446"/>
<path d="M34.327 56.4277H34.2402V57.7162H34.327V56.4277Z" fill="#FF9446"/>
<path d="M34.7899 56.4277H34.7031V57.7162H34.7899V56.4277Z" fill="#FF9446"/>
<path d="M35.2557 56.4277H35.1689V57.7162H35.2557V56.4277Z" fill="#FF9446"/>
<path d="M35.7195 56.4277H35.6328V57.7162H35.7195V56.4277Z" fill="#FF9446"/>
<path d="M36.1834 56.4277H36.0967V57.7162H36.1834V56.4277Z" fill="#FF9446"/>
<path d="M36.2525 56.3506H30.9219V56.5055H36.2525V56.3506Z" fill="#FF9446"/>
<path d="M36.2525 57.5894H30.9219V57.7442H36.2525V57.5894Z" fill="#FF9446"/>
<path opacity="0.6" d="M26.5551 13.5771H23.5166V16.6157H26.5551V13.5771Z" fill="white"/>
<path d="M24.9785 13.813H23.752V16.3776H24.9785V13.813Z" fill="#FF9446"/>
<path d="M26.3135 13.8164H25.0869V16.381H26.3135V13.8164Z" fill="#FF9446"/>
<g opacity="0.2">
<path d="M24.9785 13.813H23.752V16.3776H24.9785V13.813Z" fill="white"/>
<path d="M26.3135 13.8159H25.0869V16.3806H26.3135V13.8159Z" fill="white"/>
</g>
<path d="M22.5223 16.9263H22.4355V18.2148H22.5223V16.9263Z" fill="#FF9446"/>
<path d="M22.9861 16.9263H22.8994V18.2148H22.9861V16.9263Z" fill="#FF9446"/>
<path d="M23.451 16.9263H23.3643V18.2148H23.451V16.9263Z" fill="#FF9446"/>
<path d="M23.9168 16.9263H23.8301V18.2148H23.9168V16.9263Z" fill="#FF9446"/>
<path d="M24.3807 16.9263H24.2939V18.2148H24.3807V16.9263Z" fill="#FF9446"/>
<path d="M24.8445 16.9263H24.7578V18.2148H24.8445V16.9263Z" fill="#FF9446"/>
<path d="M25.3094 16.9263H25.2227V18.2148H25.3094V16.9263Z" fill="#FF9446"/>
<path d="M25.7752 16.9263H25.6885V18.2148H25.7752V16.9263Z" fill="#FF9446"/>
<path d="M26.2381 16.9263H26.1514V18.2148H26.2381V16.9263Z" fill="#FF9446"/>
<path d="M26.7039 16.9263H26.6172V18.2148H26.7039V16.9263Z" fill="#FF9446"/>
<path d="M27.1678 16.9263H27.0811V18.2148H27.1678V16.9263Z" fill="#FF9446"/>
<path d="M27.6326 16.9263H27.5459V18.2148H27.6326V16.9263Z" fill="#FF9446"/>
<path d="M27.6978 16.8486H22.3672V17.0035H27.6978V16.8486Z" fill="#FF9446"/>
<path d="M27.6978 18.0884H22.3672V18.2432H27.6978V18.0884Z" fill="#FF9446"/>
<path opacity="0.6" d="M26.5551 21.478H23.5166V24.5166H26.5551V21.478Z" fill="white"/>
<path d="M24.9785 21.7129H23.752V24.2775H24.9785V21.7129Z" fill="#FF9446"/>
<path d="M26.3135 21.7163H25.0869V24.2809H26.3135V21.7163Z" fill="#FF9446"/>
<g opacity="0.2">
<path d="M24.9785 21.7129H23.752V24.2775H24.9785V21.7129Z" fill="white"/>
<path d="M26.3135 21.7163H25.0869V24.2809H26.3135V21.7163Z" fill="white"/>
</g>
<path d="M22.5223 24.8267H22.4355V26.1152H22.5223V24.8267Z" fill="#FF9446"/>
<path d="M22.9861 24.8267H22.8994V26.1152H22.9861V24.8267Z" fill="#FF9446"/>
<path d="M23.451 24.8267H23.3643V26.1152H23.451V24.8267Z" fill="#FF9446"/>
<path d="M23.9168 24.8267H23.8301V26.1152H23.9168V24.8267Z" fill="#FF9446"/>
<path d="M24.3807 24.8267H24.2939V26.1152H24.3807V24.8267Z" fill="#FF9446"/>
<path d="M24.8445 24.8267H24.7578V26.1152H24.8445V24.8267Z" fill="#FF9446"/>
<path d="M25.3094 24.8267H25.2227V26.1152H25.3094V24.8267Z" fill="#FF9446"/>
<path d="M25.7752 24.8267H25.6885V26.1152H25.7752V24.8267Z" fill="#FF9446"/>
<path d="M26.2381 24.8267H26.1514V26.1152H26.2381V24.8267Z" fill="#FF9446"/>
<path d="M26.7039 24.8267H26.6172V26.1152H26.7039V24.8267Z" fill="#FF9446"/>
<path d="M27.1678 24.8267H27.0811V26.1152H27.1678V24.8267Z" fill="#FF9446"/>
<path d="M27.6326 24.8267H27.5459V26.1152H27.6326V24.8267Z" fill="#FF9446"/>
<path d="M27.6978 24.7495H22.3672V24.9044H27.6978V24.7495Z" fill="#FF9446"/>
<path d="M27.6978 25.9883H22.3672V26.1432H27.6978V25.9883Z" fill="#FF9446"/>
<path opacity="0.6" d="M26.5551 29.3779H23.5166V32.4165H26.5551V29.3779Z" fill="white"/>
<path d="M24.9785 29.6138H23.752V32.1784H24.9785V29.6138Z" fill="#FF9446"/>
<path d="M26.3135 29.6162H25.0869V32.1809H26.3135V29.6162Z" fill="#FF9446"/>
<g opacity="0.2">
<path d="M24.9785 29.6138H23.752V32.1784H24.9785V29.6138Z" fill="white"/>
<path d="M26.3135 29.6162H25.0869V32.1809H26.3135V29.6162Z" fill="white"/>
</g>
<path d="M22.5223 32.7271H22.4355V34.0156H22.5223V32.7271Z" fill="#FF9446"/>
<path d="M22.9861 32.7271H22.8994V34.0156H22.9861V32.7271Z" fill="#FF9446"/>
<path d="M23.451 32.7271H23.3643V34.0156H23.451V32.7271Z" fill="#FF9446"/>
<path d="M23.9168 32.7271H23.8301V34.0156H23.9168V32.7271Z" fill="#FF9446"/>
<path d="M24.3807 32.7271H24.2939V34.0156H24.3807V32.7271Z" fill="#FF9446"/>
<path d="M24.8445 32.7271H24.7578V34.0156H24.8445V32.7271Z" fill="#FF9446"/>
<path d="M25.3094 32.7271H25.2227V34.0156H25.3094V32.7271Z" fill="#FF9446"/>
<path d="M25.7752 32.7271H25.6885V34.0156H25.7752V32.7271Z" fill="#FF9446"/>
<path d="M26.2381 32.7271H26.1514V34.0156H26.2381V32.7271Z" fill="#FF9446"/>
<path d="M26.7039 32.7271H26.6172V34.0156H26.7039V32.7271Z" fill="#FF9446"/>
<path d="M27.1678 32.7271H27.0811V34.0156H27.1678V32.7271Z" fill="#FF9446"/>
<path d="M27.6326 32.7271H27.5459V34.0156H27.6326V32.7271Z" fill="#FF9446"/>
<path d="M27.6978 32.6494H22.3672V32.8043H27.6978V32.6494Z" fill="#FF9446"/>
<path d="M27.6978 33.8892H22.3672V34.044H27.6978V33.8892Z" fill="#FF9446"/>
<path opacity="0.6" d="M26.5551 37.2788H23.5166V40.3173H26.5551V37.2788Z" fill="white"/>
<path d="M24.9785 37.5142H23.752V40.0788H24.9785V37.5142Z" fill="#FF9446"/>
<path d="M26.3135 37.5171H25.0869V40.0817H26.3135V37.5171Z" fill="#FF9446"/>
<g opacity="0.2">
<path d="M24.9785 37.5142H23.752V40.0788H24.9785V37.5142Z" fill="white"/>
<path d="M26.3135 37.5176H25.0869V40.0822H26.3135V37.5176Z" fill="white"/>
</g>
<path d="M22.5223 40.6274H22.4355V41.916H22.5223V40.6274Z" fill="#FF9446"/>
<path d="M22.9861 40.6274H22.8994V41.916H22.9861V40.6274Z" fill="#FF9446"/>
<path d="M23.451 40.6274H23.3643V41.916H23.451V40.6274Z" fill="#FF9446"/>
<path d="M23.9168 40.6274H23.8301V41.916H23.9168V40.6274Z" fill="#FF9446"/>
<path d="M24.3807 40.6274H24.2939V41.916H24.3807V40.6274Z" fill="#FF9446"/>
<path d="M24.8445 40.6274H24.7578V41.916H24.8445V40.6274Z" fill="#FF9446"/>
<path d="M25.3094 40.6274H25.2227V41.916H25.3094V40.6274Z" fill="#FF9446"/>
<path d="M25.7752 40.6274H25.6885V41.916H25.7752V40.6274Z" fill="#FF9446"/>
<path d="M26.2381 40.6274H26.1514V41.916H26.2381V40.6274Z" fill="#FF9446"/>
<path d="M26.7039 40.6274H26.6172V41.916H26.7039V40.6274Z" fill="#FF9446"/>
<path d="M27.1678 40.6274H27.0811V41.916H27.1678V40.6274Z" fill="#FF9446"/>
<path d="M27.6326 40.6274H27.5459V41.916H27.6326V40.6274Z" fill="#FF9446"/>
<path d="M27.6978 40.5503H22.3672V40.7052H27.6978V40.5503Z" fill="#FF9446"/>
<path d="M27.6978 41.7891H22.3672V41.9439H27.6978V41.7891Z" fill="#FF9446"/>
<path opacity="0.6" d="M26.5551 45.1787H23.5166V48.2172H26.5551V45.1787Z" fill="white"/>
<path d="M24.9785 45.4141H23.752V47.9787H24.9785V45.4141Z" fill="#FF9446"/>
<path d="M26.3135 45.417H25.0869V47.9816H26.3135V45.417Z" fill="#FF9446"/>
<g opacity="0.2">
<path d="M24.9785 45.4141H23.752V47.9787H24.9785V45.4141Z" fill="white"/>
<path d="M26.3135 45.417H25.0869V47.9816H26.3135V45.417Z" fill="white"/>
</g>
<path d="M22.5223 48.5278H22.4355V49.8163H22.5223V48.5278Z" fill="#FF9446"/>
<path d="M22.9861 48.5278H22.8994V49.8163H22.9861V48.5278Z" fill="#FF9446"/>
<path d="M23.451 48.5278H23.3643V49.8163H23.451V48.5278Z" fill="#FF9446"/>
<path d="M23.9168 48.5278H23.8301V49.8163H23.9168V48.5278Z" fill="#FF9446"/>
<path d="M24.3807 48.5278H24.2939V49.8163H24.3807V48.5278Z" fill="#FF9446"/>
<path d="M24.8445 48.5278H24.7578V49.8163H24.8445V48.5278Z" fill="#FF9446"/>
<path d="M25.3094 48.5278H25.2227V49.8163H25.3094V48.5278Z" fill="#FF9446"/>
<path d="M25.7752 48.5278H25.6885V49.8163H25.7752V48.5278Z" fill="#FF9446"/>
<path d="M26.2381 48.5278H26.1514V49.8163H26.2381V48.5278Z" fill="#FF9446"/>
<path d="M26.7039 48.5278H26.6172V49.8163H26.7039V48.5278Z" fill="#FF9446"/>
<path d="M27.1678 48.5278H27.0811V49.8163H27.1678V48.5278Z" fill="#FF9446"/>
<path d="M27.6326 48.5278H27.5459V49.8163H27.6326V48.5278Z" fill="#FF9446"/>
<path d="M27.6978 48.4502H22.3672V48.6051H27.6978V48.4502Z" fill="#FF9446"/>
<path d="M27.6978 49.6895H22.3672V49.8443H27.6978V49.6895Z" fill="#FF9446"/>
<path opacity="0.6" d="M26.5551 53.0786H23.5166V56.1172H26.5551V53.0786Z" fill="white"/>
<path d="M24.9785 53.314H23.752V55.8786H24.9785V53.314Z" fill="#FF9446"/>
<path d="M26.3135 53.3179H25.0869V55.8825H26.3135V53.3179Z" fill="#FF9446"/>
<g opacity="0.2">
<path d="M24.9785 53.314H23.752V55.8786H24.9785V53.314Z" fill="white"/>
<path d="M26.3135 53.3179H25.0869V55.8825H26.3135V53.3179Z" fill="white"/>
</g>
<path d="M22.5223 56.4277H22.4355V57.7162H22.5223V56.4277Z" fill="#FF9446"/>
<path d="M22.9861 56.4277H22.8994V57.7162H22.9861V56.4277Z" fill="#FF9446"/>
<path d="M23.451 56.4277H23.3643V57.7162H23.451V56.4277Z" fill="#FF9446"/>
<path d="M23.9168 56.4277H23.8301V57.7162H23.9168V56.4277Z" fill="#FF9446"/>
<path d="M24.3807 56.4277H24.2939V57.7162H24.3807V56.4277Z" fill="#FF9446"/>
<path d="M24.8445 56.4277H24.7578V57.7162H24.8445V56.4277Z" fill="#FF9446"/>
<path d="M25.3094 56.4277H25.2227V57.7162H25.3094V56.4277Z" fill="#FF9446"/>
<path d="M25.7752 56.4277H25.6885V57.7162H25.7752V56.4277Z" fill="#FF9446"/>
<path d="M26.2381 56.4277H26.1514V57.7162H26.2381V56.4277Z" fill="#FF9446"/>
<path d="M26.7039 56.4277H26.6172V57.7162H26.7039V56.4277Z" fill="#FF9446"/>
<path d="M27.1678 56.4277H27.0811V57.7162H27.1678V56.4277Z" fill="#FF9446"/>
<path d="M27.6326 56.4277H27.5459V57.7162H27.6326V56.4277Z" fill="#FF9446"/>
<path d="M27.6978 56.3506H22.3672V56.5055H27.6978V56.3506Z" fill="#FF9446"/>
<path d="M27.6978 57.5894H22.3672V57.7442H27.6978V57.5894Z" fill="#FF9446"/>
<path opacity="0.6" d="M18.0005 13.5771H14.9619V16.6157H18.0005V13.5771Z" fill="white"/>
<path d="M16.4268 13.813H15.2002V16.3776H16.4268V13.813Z" fill="#FF9446"/>
<path d="M17.7617 13.8164H16.5352V16.381H17.7617V13.8164Z" fill="#FF9446"/>
<g opacity="0.2">
<path d="M16.4268 13.813H15.2002V16.3776H16.4268V13.813Z" fill="white"/>
<path d="M17.7617 13.8159H16.5352V16.3806H17.7617V13.8159Z" fill="white"/>
</g>
<path d="M13.9676 16.9263H13.8809V18.2148H13.9676V16.9263Z" fill="#FF9446"/>
<path d="M14.4315 16.9263H14.3447V18.2148H14.4315V16.9263Z" fill="#FF9446"/>
<path d="M14.8963 16.9263H14.8096V18.2148H14.8963V16.9263Z" fill="#FF9446"/>
<path d="M15.3621 16.9263H15.2754V18.2148H15.3621V16.9263Z" fill="#FF9446"/>
<path d="M15.824 16.9263H15.7373V18.2148H15.824V16.9263Z" fill="#FF9446"/>
<path d="M16.2899 16.9263H16.2031V18.2148H16.2899V16.9263Z" fill="#FF9446"/>
<path d="M16.7547 16.9263H16.668V18.2148H16.7547V16.9263Z" fill="#FF9446"/>
<path d="M17.2186 16.9263H17.1318V18.2148H17.2186V16.9263Z" fill="#FF9446"/>
<path d="M17.6834 16.9263H17.5967V18.2148H17.6834V16.9263Z" fill="#FF9446"/>
<path d="M18.1492 16.9263H18.0625V18.2148H18.1492V16.9263Z" fill="#FF9446"/>
<path d="M18.6131 16.9263H18.5264V18.2148H18.6131V16.9263Z" fill="#FF9446"/>
<path d="M19.077 16.9263H18.9902V18.2148H19.077V16.9263Z" fill="#FF9446"/>
<path d="M19.146 16.8486H13.8154V17.0035H19.146V16.8486Z" fill="#FF9446"/>
<path d="M19.146 18.0884H13.8154V18.2432H19.146V18.0884Z" fill="#FF9446"/>
<path opacity="0.6" d="M18.0005 21.478H14.9619V24.5166H18.0005V21.478Z" fill="white"/>
<path d="M16.4268 21.7129H15.2002V24.2775H16.4268V21.7129Z" fill="#FF9446"/>
<path d="M17.7617 21.7163H16.5352V24.2809H17.7617V21.7163Z" fill="#FF9446"/>
<g opacity="0.2">
<path d="M16.4268 21.7134H15.2002V24.278H16.4268V21.7134Z" fill="white"/>
<path d="M17.7617 21.7163H16.5352V24.2809H17.7617V21.7163Z" fill="white"/>
</g>
<path d="M13.9676 24.8267H13.8809V26.1152H13.9676V24.8267Z" fill="#FF9446"/>
<path d="M14.4315 24.8267H14.3447V26.1152H14.4315V24.8267Z" fill="#FF9446"/>
<path d="M14.8963 24.8267H14.8096V26.1152H14.8963V24.8267Z" fill="#FF9446"/>
<path d="M15.3621 24.8267H15.2754V26.1152H15.3621V24.8267Z" fill="#FF9446"/>
<path d="M15.824 24.8267H15.7373V26.1152H15.824V24.8267Z" fill="#FF9446"/>
<path d="M16.2899 24.8267H16.2031V26.1152H16.2899V24.8267Z" fill="#FF9446"/>
<path d="M16.7547 24.8267H16.668V26.1152H16.7547V24.8267Z" fill="#FF9446"/>
<path d="M17.2186 24.8267H17.1318V26.1152H17.2186V24.8267Z" fill="#FF9446"/>
<path d="M17.6834 24.8267H17.5967V26.1152H17.6834V24.8267Z" fill="#FF9446"/>
<path d="M18.1492 24.8267H18.0625V26.1152H18.1492V24.8267Z" fill="#FF9446"/>
<path d="M18.6131 24.8267H18.5264V26.1152H18.6131V24.8267Z" fill="#FF9446"/>
<path d="M19.077 24.8267H18.9902V26.1152H19.077V24.8267Z" fill="#FF9446"/>
<path d="M19.146 24.7495H13.8154V24.9044H19.146V24.7495Z" fill="#FF9446"/>
<path d="M19.146 25.9883H13.8154V26.1432H19.146V25.9883Z" fill="#FF9446"/>
<path opacity="0.6" d="M18.0005 29.3779H14.9619V32.4165H18.0005V29.3779Z" fill="white"/>
<path d="M16.4268 29.6138H15.2002V32.1784H16.4268V29.6138Z" fill="#FF9446"/>
<path d="M17.7617 29.6162H16.5352V32.1809H17.7617V29.6162Z" fill="#FF9446"/>
<g opacity="0.2">
<path d="M16.4268 29.6138H15.2002V32.1784H16.4268V29.6138Z" fill="white"/>
<path d="M17.7617 29.6162H16.5352V32.1809H17.7617V29.6162Z" fill="white"/>
</g>
<path d="M13.9676 32.7271H13.8809V34.0156H13.9676V32.7271Z" fill="#FF9446"/>
<path d="M14.4315 32.7271H14.3447V34.0156H14.4315V32.7271Z" fill="#FF9446"/>
<path d="M14.8963 32.7271H14.8096V34.0156H14.8963V32.7271Z" fill="#FF9446"/>
<path d="M15.3621 32.7271H15.2754V34.0156H15.3621V32.7271Z" fill="#FF9446"/>
<path d="M15.824 32.7271H15.7373V34.0156H15.824V32.7271Z" fill="#FF9446"/>
<path d="M16.2899 32.7271H16.2031V34.0156H16.2899V32.7271Z" fill="#FF9446"/>
<path d="M16.7547 32.7271H16.668V34.0156H16.7547V32.7271Z" fill="#FF9446"/>
<path d="M17.2186 32.7271H17.1318V34.0156H17.2186V32.7271Z" fill="#FF9446"/>
<path d="M17.6834 32.7271H17.5967V34.0156H17.6834V32.7271Z" fill="#FF9446"/>
<path d="M18.1492 32.7271H18.0625V34.0156H18.1492V32.7271Z" fill="#FF9446"/>
<path d="M18.6131 32.7271H18.5264V34.0156H18.6131V32.7271Z" fill="#FF9446"/>
<path d="M19.077 32.7271H18.9902V34.0156H19.077V32.7271Z" fill="#FF9446"/>
<path d="M19.146 32.6494H13.8154V32.8043H19.146V32.6494Z" fill="#FF9446"/>
<path d="M19.146 33.8892H13.8154V34.044H19.146V33.8892Z" fill="#FF9446"/>
<path opacity="0.6" d="M18.0005 37.2788H14.9619V40.3173H18.0005V37.2788Z" fill="white"/>
<path d="M16.4268 37.5142H15.2002V40.0788H16.4268V37.5142Z" fill="#FF9446"/>
<path d="M17.7617 37.5171H16.5352V40.0817H17.7617V37.5171Z" fill="#FF9446"/>
<g opacity="0.2">
<path d="M16.4268 37.5142H15.2002V40.0788H16.4268V37.5142Z" fill="white"/>
<path d="M17.7617 37.5171H16.5352V40.0817H17.7617V37.5171Z" fill="white"/>
</g>
<path d="M13.9676 40.6274H13.8809V41.916H13.9676V40.6274Z" fill="#FF9446"/>
<path d="M14.4315 40.6274H14.3447V41.916H14.4315V40.6274Z" fill="#FF9446"/>
<path d="M14.8963 40.6274H14.8096V41.916H14.8963V40.6274Z" fill="#FF9446"/>
<path d="M15.3621 40.6274H15.2754V41.916H15.3621V40.6274Z" fill="#FF9446"/>
<path d="M15.824 40.6274H15.7373V41.916H15.824V40.6274Z" fill="#FF9446"/>
<path d="M16.2899 40.6274H16.2031V41.916H16.2899V40.6274Z" fill="#FF9446"/>
<path d="M16.7547 40.6274H16.668V41.916H16.7547V40.6274Z" fill="#FF9446"/>
<path d="M17.2186 40.6274H17.1318V41.916H17.2186V40.6274Z" fill="#FF9446"/>
<path d="M17.6834 40.6274H17.5967V41.916H17.6834V40.6274Z" fill="#FF9446"/>
<path d="M18.1492 40.6274H18.0625V41.916H18.1492V40.6274Z" fill="#FF9446"/>
<path d="M18.6131 40.6274H18.5264V41.916H18.6131V40.6274Z" fill="#FF9446"/>
<path d="M19.077 40.6274H18.9902V41.916H19.077V40.6274Z" fill="#FF9446"/>
<path d="M19.146 40.5503H13.8154V40.7052H19.146V40.5503Z" fill="#FF9446"/>
<path d="M19.146 41.7891H13.8154V41.9439H19.146V41.7891Z" fill="#FF9446"/>
<path opacity="0.6" d="M18.0005 45.1787H14.9619V48.2172H18.0005V45.1787Z" fill="white"/>
<path d="M16.4268 45.4141H15.2002V47.9787H16.4268V45.4141Z" fill="#FF9446"/>
<path d="M17.7617 45.417H16.5352V47.9816H17.7617V45.417Z" fill="#FF9446"/>
<g opacity="0.2">
<path d="M16.4268 45.4141H15.2002V47.9787H16.4268V45.4141Z" fill="white"/>
<path d="M17.7617 45.417H16.5352V47.9816H17.7617V45.417Z" fill="white"/>
</g>
<path d="M13.9676 48.5278H13.8809V49.8163H13.9676V48.5278Z" fill="#FF9446"/>
<path d="M14.4315 48.5278H14.3447V49.8163H14.4315V48.5278Z" fill="#FF9446"/>
<path d="M14.8963 48.5278H14.8096V49.8163H14.8963V48.5278Z" fill="#FF9446"/>
<path d="M15.3621 48.5278H15.2754V49.8163H15.3621V48.5278Z" fill="#FF9446"/>
<path d="M15.824 48.5278H15.7373V49.8163H15.824V48.5278Z" fill="#FF9446"/>
<path d="M16.2899 48.5278H16.2031V49.8163H16.2899V48.5278Z" fill="#FF9446"/>
<path d="M16.7547 48.5278H16.668V49.8163H16.7547V48.5278Z" fill="#FF9446"/>
<path d="M17.2186 48.5278H17.1318V49.8163H17.2186V48.5278Z" fill="#FF9446"/>
<path d="M17.6834 48.5278H17.5967V49.8163H17.6834V48.5278Z" fill="#FF9446"/>
<path d="M18.1492 48.5278H18.0625V49.8163H18.1492V48.5278Z" fill="#FF9446"/>
<path d="M18.6131 48.5278H18.5264V49.8163H18.6131V48.5278Z" fill="#FF9446"/>
<path d="M19.077 48.5278H18.9902V49.8163H19.077V48.5278Z" fill="#FF9446"/>
<path d="M19.146 48.4502H13.8154V48.6051H19.146V48.4502Z" fill="#FF9446"/>
<path d="M19.146 49.6895H13.8154V49.8443H19.146V49.6895Z" fill="#FF9446"/>
<path opacity="0.6" d="M18.0005 53.0786H14.9619V56.1172H18.0005V53.0786Z" fill="white"/>
<path d="M16.4268 53.314H15.2002V55.8786H16.4268V53.314Z" fill="#FF9446"/>
<path d="M17.7617 53.3179H16.5352V55.8825H17.7617V53.3179Z" fill="#FF9446"/>
<g opacity="0.2">
<path d="M16.4268 53.314H15.2002V55.8786H16.4268V53.314Z" fill="white"/>
<path d="M17.7617 53.3179H16.5352V55.8825H17.7617V53.3179Z" fill="white"/>
</g>
<path d="M13.9676 56.4277H13.8809V57.7162H13.9676V56.4277Z" fill="#FF9446"/>
<path d="M14.4315 56.4277H14.3447V57.7162H14.4315V56.4277Z" fill="#FF9446"/>
<path d="M14.8963 56.4277H14.8096V57.7162H14.8963V56.4277Z" fill="#FF9446"/>
<path d="M15.3621 56.4277H15.2754V57.7162H15.3621V56.4277Z" fill="#FF9446"/>
<path d="M15.824 56.4277H15.7373V57.7162H15.824V56.4277Z" fill="#FF9446"/>
<path d="M16.2899 56.4277H16.2031V57.7162H16.2899V56.4277Z" fill="#FF9446"/>
<path d="M16.7547 56.4277H16.668V57.7162H16.7547V56.4277Z" fill="#FF9446"/>
<path d="M17.2186 56.4277H17.1318V57.7162H17.2186V56.4277Z" fill="#FF9446"/>
<path d="M17.6834 56.4277H17.5967V57.7162H17.6834V56.4277Z" fill="#FF9446"/>
<path d="M18.1492 56.4277H18.0625V57.7162H18.1492V56.4277Z" fill="#FF9446"/>
<path d="M18.6131 56.4277H18.5264V57.7162H18.6131V56.4277Z" fill="#FF9446"/>
<path d="M19.077 56.4277H18.9902V57.7162H19.077V56.4277Z" fill="#FF9446"/>
<path d="M19.146 56.3506H13.8154V56.5055H19.146V56.3506Z" fill="#FF9446"/>
<path d="M19.146 57.5894H13.8154V57.7442H19.146V57.5894Z" fill="#FF9446"/>
<path opacity="0.2" d="M38.3441 12.2725H29.9811V64.3216H28.7422V9.17432H38.3441V12.2725Z" fill="black"/>
<path d="M58.6212 10.9312H8.54883L11.6462 5.14697H55.5238L58.6212 10.9312Z" fill="#FF9446"/>
<path d="M58.9362 10.5161H8.24121V11.4453H58.9362V10.5161Z" fill="#FF9446"/>
<path opacity="0.3" d="M58.9362 10.5161H8.24121V11.4453H58.9362V10.5161Z" fill="white"/>
<path d="M48.2992 0.5H18.874V7.83335H48.2992V0.5Z" fill="#FF9446"/>
<path opacity="0.3" d="M48.2992 0.5H18.874V7.83335H48.2992V0.5Z" fill="white"/>
<path d="M26.5881 5.43555V2.44291H27.5757C27.7766 2.44291 27.9533 2.47497 28.1058 2.5391C28.2583 2.60323 28.3766 2.70654 28.4606 2.84905C28.5462 2.99156 28.5889 3.17967 28.5889 3.41338C28.5889 3.64281 28.5462 3.8295 28.4606 3.97343C28.3766 4.11594 28.2583 4.22068 28.1058 4.28766C27.9533 4.35463 27.7766 4.38812 27.5757 4.38812H27.0156V5.43555H26.5881ZM27.0156 4.02473H27.5158C27.7339 4.02473 27.897 3.97557 28.0053 3.87724C28.1151 3.77748 28.1699 3.62429 28.1699 3.41765C28.1699 3.20959 28.1179 3.05569 28.0139 2.95593C27.9113 2.85618 27.7453 2.8063 27.5158 2.8063H27.0156V4.02473ZM30.4795 4.62753H29.1969V4.25987H30.4795V4.62753ZM29.7784 2.8405H29.8981L28.9789 5.43555H28.5514L29.6245 2.44291H30.052L31.1251 5.43555H30.6975L29.7784 2.8405ZM31.4979 5.43555V2.44291H31.9041V5.06788H33.2764V5.43555H31.4979ZM35.2557 4.62753H33.9731V4.25987H35.2557V4.62753ZM34.5546 2.8405H34.6743L33.7551 5.43555H33.3276L34.4007 2.44291H34.8282L35.9013 5.43555H35.4737L34.5546 2.8405ZM37.562 5.4954C37.2713 5.4954 37.012 5.43198 36.784 5.30515C36.5574 5.1769 36.3785 4.99663 36.2474 4.76434C36.1177 4.53063 36.0529 4.25559 36.0529 3.93923C36.0529 3.62286 36.1185 3.34854 36.2496 3.11625C36.3821 2.88254 36.5631 2.70227 36.7925 2.57544C37.0234 2.44718 37.2856 2.38305 37.5791 2.38305C37.7316 2.38305 37.877 2.39944 38.0152 2.43222C38.1534 2.465 38.2746 2.50704 38.3786 2.55834L38.3359 2.93456C38.229 2.88325 38.1114 2.83979 37.9832 2.80416C37.8549 2.76854 37.7188 2.75072 37.5749 2.75072C37.3397 2.75072 37.1424 2.80416 36.9828 2.91104C36.8231 3.0165 36.702 3.159 36.6194 3.33856C36.5381 3.51812 36.4975 3.71834 36.4975 3.93923C36.4975 4.16011 36.5374 4.36033 36.6172 4.53989C36.6985 4.71945 36.8182 4.86267 36.9763 4.96955C37.1359 5.07501 37.3326 5.12773 37.5663 5.12773C37.7145 5.12773 37.8513 5.11206 37.9767 5.08071C38.1036 5.04793 38.2233 5.00375 38.3359 4.94817L38.3786 5.32439C38.2717 5.37284 38.1513 5.41346 38.0174 5.44623C37.8834 5.47901 37.7316 5.4954 37.562 5.4954ZM38.8626 5.43555V2.44291H40.6881V2.81057H39.2688V3.68699H40.3974V4.05466H39.2688V5.06788H40.7266V5.43555H38.8626Z" fill="white"/>
<path d="M10.5742 54.0021L7.17017 50.2286L2.72852 52.5677L4.57456 42.4336L12.4233 43.868L10.5742 54.0021Z" fill="#FF9446"/>
<path opacity="0.3" d="M10.5742 54.0021L7.17017 50.2286L2.72852 52.5677L4.57456 42.4336L12.4233 43.868L10.5742 54.0021Z" fill="white"/>
<path d="M10.8938 30.1065L11.7424 31.0236L12.9659 30.7633L13.5606 31.8632L14.8089 31.9127L15.1124 33.1272L16.3111 33.4866L16.3018 34.7352L17.3735 35.3827L17.0545 36.5941L17.931 37.4863L17.3208 38.5769L17.9496 39.6581L17.0885 40.5659L17.4262 41.768L16.3669 42.4341L16.3916 43.6826L15.2022 44.0637L14.9173 45.2813L13.669 45.3495L13.0929 46.4586L11.8663 46.2169L11.03 47.1495L9.9026 46.6104L8.86188 47.3013L7.90169 46.4989L6.72158 46.9109L5.99369 45.8947L4.74854 46.0032L4.29632 44.8383L3.06356 44.6307L2.91489 43.3883L1.77195 42.8802L1.93611 41.641L0.954241 40.8664L1.42195 39.7046L0.663086 38.7101L1.40646 37.7032L0.92017 36.5507L1.88656 35.7606L1.70381 34.5245L2.83745 33.9978L2.96754 32.7554L4.19721 32.5262L4.63084 31.3551L5.87909 31.4418L6.59149 30.4132L7.77779 30.8067L8.7225 29.9888L9.77251 30.6642L10.8938 30.1065Z" fill="#FF9446"/>
<path opacity="0.2" d="M10.8938 30.1065L11.7424 31.0236L12.9659 30.7633L13.5606 31.8632L14.8089 31.9127L15.1124 33.1272L16.3111 33.4866L16.3018 34.7352L17.3735 35.3827L17.0545 36.5941L17.931 37.4863L17.3208 38.5769L17.9496 39.6581L17.0885 40.5659L17.4262 41.768L16.3669 42.4341L16.3916 43.6826L15.2022 44.0637L14.9173 45.2813L13.669 45.3495L13.0929 46.4586L11.8663 46.2169L11.03 47.1495L9.9026 46.6104L8.86188 47.3013L7.90169 46.4989L6.72158 46.9109L5.99369 45.8947L4.74854 46.0032L4.29632 44.8383L3.06356 44.6307L2.91489 43.3883L1.77195 42.8802L1.93611 41.641L0.954241 40.8664L1.42195 39.7046L0.663086 38.7101L1.40646 37.7032L0.92017 36.5507L1.88656 35.7606L1.70381 34.5245L2.83745 33.9978L2.96754 32.7554L4.19721 32.5262L4.63084 31.3551L5.87909 31.4418L6.59149 30.4132L7.77779 30.8067L8.7225 29.9888L9.77251 30.6642L10.8938 30.1065Z" fill="black"/>
<path d="M16.3273 40.8748C17.5827 37.0099 15.4681 32.8588 11.6042 31.603C7.74029 30.3472 3.59021 32.4623 2.33474 36.3272C1.07928 40.1921 3.19385 44.3432 7.05778 45.599C10.9217 46.8548 15.0718 44.7397 16.3273 40.8748Z" fill="#FF9446"/>
<path d="M5.24136 34.3564L5.67639 33.6342L5.26405 33.5589L5.49108 33.2249L5.88245 33.2963L6.07485 32.9739L5.65203 32.8968L5.82632 32.5747L6.26661 32.6551L6.64502 32.0453L6.9735 32.1052L6.60207 32.7163L7.00043 32.789L7.37186 32.1779L7.70033 32.2379L7.3289 32.8489L7.71677 32.9197L7.5355 33.2405L7.13714 33.1678L6.94475 33.4901L7.38154 33.5699L7.14752 33.9027L6.73868 33.8281L6.30365 34.5503L5.96819 34.489L6.40322 33.7668L6.01185 33.6954L5.56983 34.4163L5.24136 34.3564ZM6.21093 33.3562L6.60928 33.4289L6.80867 33.1078L6.41031 33.0351L6.21093 33.3562ZM8.0053 34.8211L8.33611 33.0075C8.28537 33.0283 8.23236 33.0451 8.17707 33.0579C8.12295 33.0709 8.06581 33.0773 8.00566 33.0772L8.03606 32.6927C8.08806 32.6914 8.14854 32.6766 8.21749 32.6482C8.28645 32.6199 8.35203 32.5837 8.41422 32.5397C8.47662 32.4945 8.52398 32.446 8.55631 32.3941L8.89876 32.4566L8.45258 34.9027L8.0053 34.8211Z" fill="white"/>
<path d="M59.0822 63.0825H8.08675C7.5804 63.0825 7.16992 63.4931 7.16992 63.9996V74.5829C7.16992 75.0894 7.5804 75.4999 8.08675 75.4999H59.0822C59.5885 75.4999 59.999 75.0894 59.999 74.5829V63.9996C59.999 63.4931 59.5885 63.0825 59.0822 63.0825Z" fill="#FF9446"/>
<path d="M16.3071 69.9487L16.7624 72.6039L14.3805 71.3491L11.9986 72.6039L12.4539 69.9487L10.5273 68.0712L13.1911 67.684L14.3805 65.2705L15.573 67.684L18.2367 68.0712L16.3071 69.9487Z" fill="white"/>
<path opacity="0.2" d="M16.3085 69.9487L16.7638 72.6039L14.3819 71.3491L12 72.6039L14.3819 69.7969L16.3271 72.0152L14.8806 69.2919L17.7209 68.2478L14.862 68.5577L14.3819 65.2705L15.5744 67.684L18.2381 68.0712L16.3085 69.9487Z" fill="black"/>
<path d="M25.9106 69.9487L26.3659 72.6039L23.984 71.3491L21.6021 72.6039L22.0574 69.9487L20.1309 68.0712L22.7946 67.684L23.984 65.2705L25.1765 67.684L27.8403 68.0712L25.9106 69.9487Z" fill="white"/>
<path opacity="0.2" d="M25.91 69.9487L26.3653 72.6039L23.9835 71.3491L21.6016 72.6039L23.9835 69.7969L25.9286 72.0152L24.4821 69.2919L27.3224 68.2478L24.4636 68.5577L23.9835 65.2705L25.176 67.684L27.8397 68.0712L25.91 69.9487Z" fill="black"/>
<path d="M35.5122 69.9487L35.9675 72.6039L33.5856 71.3491L31.2037 72.6039L31.659 69.9487L29.7324 68.0712L32.3962 67.684L33.5856 65.2705L34.7781 67.684L37.4418 68.0712L35.5122 69.9487Z" fill="white"/>
<path opacity="0.2" d="M35.5116 69.9487L35.9669 72.6039L33.585 71.3491L31.2031 72.6039L33.585 69.7969L35.5302 72.0152L34.0837 69.2919L36.924 68.2478L34.0651 68.5577L33.585 65.2705L34.7775 67.684L37.4413 68.0712L35.5116 69.9487Z" fill="black"/>
<path d="M45.1147 69.9487L45.57 72.6039L43.1881 71.3491L40.8062 72.6039L41.2615 69.9487L39.335 68.0712L41.9987 67.684L43.1881 65.2705L44.3806 67.684L47.0444 68.0712L45.1147 69.9487Z" fill="white"/>
<path opacity="0.2" d="M45.1141 69.9487L45.5695 72.6039L43.1876 71.3491L40.8057 72.6039L43.1876 69.7969L45.1327 72.0152L43.6862 69.2919L46.5265 68.2478L43.6677 68.5577L43.1876 65.2705L44.3801 67.684L47.0438 68.0712L45.1141 69.9487Z" fill="black"/>
<path d="M54.7163 69.9487L55.1716 72.6039L52.7897 71.3491L50.4078 72.6039L50.8631 69.9487L48.9365 68.0712L51.6003 67.684L52.7897 65.2705L53.9822 67.684L56.6459 68.0712L54.7163 69.9487Z" fill="white"/>
<path opacity="0.2" d="M54.7167 69.9487L55.172 72.6039L52.7901 71.3491L50.4082 72.6039L52.7901 69.7969L54.7353 72.0152L53.2888 69.2919L56.1291 68.2478L53.2702 68.5577L52.7901 65.2705L53.9826 67.684L56.6463 68.0712L54.7167 69.9487Z" fill="black"/>
</svg>
