<svg width="24" height="24" fill="none" xmlns="http://www.w3.org/2000/svg"><path d="M12.004 0c-5.01 0-6.475.005-6.76.029-1.028.085-1.668.247-2.365.594A4.79 4.79 0 0 0 1.5 1.633C.74 2.423.278 3.396.11 4.553c-.08.56-.104.675-.11 3.542v3.9c0 5.008.006 6.472.03 6.756.083 1 .24 1.63.573 2.319a5.056 5.056 0 0 0 3.276 2.677c.495.128 1.04.198 1.742.23.297.014 3.326.023 6.357.023s6.062-.004 6.352-.018c.812-.039 1.283-.102 1.805-.237a5.022 5.022 0 0 0 3.276-2.683c.326-.672.491-1.325.566-2.274.016-.206.023-3.503.023-6.796s-.007-6.584-.024-6.79c-.075-.964-.24-1.612-.577-2.297a4.759 4.759 0 0 0-1.027-1.408C21.578.739 20.607.277 19.45.11c-.56-.081-.672-.105-3.54-.11h-3.906Z" fill="url(#a)"/><path d="M12.004 0c-5.01 0-6.475.005-6.76.029-1.028.085-1.668.247-2.365.594A4.79 4.79 0 0 0 1.5 1.633C.74 2.423.278 3.396.11 4.553c-.08.56-.104.675-.11 3.542v3.9c0 5.008.006 6.472.03 6.756.083 1 .24 1.63.573 2.319a5.056 5.056 0 0 0 3.276 2.677c.495.128 1.04.198 1.742.23.297.014 3.326.023 6.357.023s6.062-.004 6.352-.018c.812-.039 1.283-.102 1.805-.237a5.022 5.022 0 0 0 3.276-2.683c.326-.672.491-1.325.566-2.274.016-.206.023-3.503.023-6.796s-.007-6.584-.024-6.79c-.075-.964-.24-1.612-.577-2.297a4.759 4.759 0 0 0-1.027-1.408C21.578.739 20.607.277 19.45.11c-.56-.081-.672-.105-3.54-.11h-3.906Z" fill="url(#b)"/><path d="M12 3.139c-2.407 0-2.71.01-3.654.053-.943.043-1.587.193-2.15.412a4.338 4.338 0 0 0-1.57 1.022 4.35 4.35 0 0 0-1.023 1.57c-.22.563-.369 1.207-.411 2.15-.042.946-.053 1.248-.053 3.655s.01 2.708.053 3.653c.044.944.193 1.588.412 2.151.226.583.529 1.078 1.022 1.57.492.493.986.797 1.569 1.023.563.22 1.207.369 2.15.412.945.043 1.247.053 3.653.053 2.407 0 2.708-.01 3.653-.053.943-.043 1.587-.193 2.151-.412a4.335 4.335 0 0 0 1.569-1.023 4.35 4.35 0 0 0 1.022-1.57c.218-.563.367-1.207.412-2.15.042-.946.053-1.247.053-3.654s-.01-2.709-.053-3.654c-.045-.944-.194-1.588-.412-2.151a4.35 4.35 0 0 0-1.023-1.57 4.33 4.33 0 0 0-1.568-1.022c-.565-.22-1.21-.369-2.153-.412-.945-.043-1.246-.053-3.652-.053h.002Zm-.796 1.597H12c2.366 0 2.646.008 3.58.05.864.04 1.333.185 1.645.306.414.16.708.353 1.018.663.31.31.502.605.663 1.019.122.312.266.78.305 1.645.043.934.052 1.215.052 3.58s-.01 2.646-.052 3.58c-.039.864-.183 1.333-.305 1.645a2.74 2.74 0 0 1-.663 1.018 2.74 2.74 0 0 1-1.018.663c-.312.122-.78.266-1.645.305-.934.043-1.214.052-3.58.052s-2.646-.01-3.58-.052c-.864-.04-1.333-.184-1.645-.305a2.745 2.745 0 0 1-1.02-.663 2.747 2.747 0 0 1-.662-1.019c-.121-.312-.266-.78-.305-1.645-.043-.934-.051-1.215-.051-3.581 0-2.367.008-2.646.05-3.58.04-.864.185-1.333.306-1.646.16-.413.353-.709.663-1.019a2.75 2.75 0 0 1 1.019-.663c.312-.122.781-.266 1.645-.306.817-.037 1.134-.048 2.785-.05v.003Zm5.524 1.471a1.063 1.063 0 1 0 0 2.127 1.063 1.063 0 0 0 0-2.127ZM12 7.45a4.55 4.55 0 1 0 .002 9.101A4.55 4.55 0 0 0 12 7.45Zm0 1.597a2.954 2.954 0 1 1 0 5.907 2.954 2.954 0 0 1 0-5.907Z" fill="#fff"/><defs><radialGradient id="a" cx="0" cy="0" r="1" gradientUnits="userSpaceOnUse" gradientTransform="matrix(0 -23.7858 22.1226 0 6.375 25.849)"><stop stop-color="#FD5"/><stop offset=".1" stop-color="#FD5"/><stop offset=".5" stop-color="#FF543E"/><stop offset="1" stop-color="#C837AB"/></radialGradient><radialGradient id="b" cx="0" cy="0" r="1" gradientUnits="userSpaceOnUse" gradientTransform="rotate(78.681 -3.065 -1.588) scale(10.6323 43.827)"><stop stop-color="#3771C8"/><stop offset=".128" stop-color="#3771C8"/><stop offset="1" stop-color="#60F" stop-opacity="0"/></radialGradient></defs></svg>