<svg width="361" height="596" viewBox="0 0 361 596" fill="none" xmlns="http://www.w3.org/2000/svg">
<path d="M240.883 163.523C240.03 162.975 239.177 162.442 238.324 161.924L238.918 160.934L241.507 162.564L240.883 163.523Z" fill="#263238"/>
<path d="M203.685 316.154H202.588V315.011C204.622 315.057 206.656 314.98 208.681 314.783L208.803 315.925C207.142 316.047 205.406 316.154 203.685 316.154ZM214.987 314.905L214.744 313.793C216.725 313.344 218.67 312.748 220.562 312.011L220.974 313.077C219.026 313.824 217.025 314.425 214.987 314.874V314.905ZM226.61 310.335L226.046 309.345C227.797 308.323 229.463 307.161 231.027 305.872L231.758 306.74C230.146 308.085 228.424 309.293 226.61 310.35V310.335ZM236.252 302.414L235.414 301.637C236.781 300.135 238.038 298.536 239.177 296.854L240.121 297.494C238.953 299.236 237.66 300.891 236.252 302.445V302.414ZM243.228 292.071L242.193 291.584C243.061 289.749 243.769 287.843 244.31 285.887L245.407 286.191C244.854 288.216 244.125 290.189 243.228 292.086V292.071ZM246.519 280.007L245.376 279.916C245.376 279.093 245.483 278.255 245.483 277.448C245.479 276.318 245.412 275.189 245.285 274.066C244.099 273.987 242.92 273.839 241.751 273.624L241.949 272.497C243.809 272.833 245.695 273.006 247.585 273.015H247.981V274.158H247.57H246.427C246.549 275.26 246.61 276.369 246.61 277.478C246.625 278.301 246.58 279.169 246.519 280.022V280.007ZM254.242 273.396L253.983 272.284C255.942 271.82 257.839 271.125 259.634 270.212L260.152 271.233C258.275 272.19 256.291 272.921 254.242 273.411V273.396ZM235.688 271.979C233.719 271.269 231.808 270.403 229.976 269.39L230.54 268.4C232.313 269.379 234.162 270.215 236.069 270.898L235.688 271.979ZM243.883 267.958C243.215 266.053 242.336 264.229 241.263 262.52L242.223 261.911C243.352 263.688 244.272 265.589 244.965 267.577L243.883 267.958ZM265.392 267.714L264.661 266.846C266.206 265.541 267.619 264.086 268.88 262.505L269.764 263.221C268.462 264.877 266.998 266.397 265.392 267.76V267.714ZM224.812 265.886L224.492 265.582C222.985 264.257 221.784 262.62 220.974 260.783L222.04 260.357C222.783 262.038 223.885 263.535 225.269 264.744L225.574 265.018L224.812 265.886ZM273.298 258.102L272.323 257.508C273.389 255.741 274.379 253.929 275.247 252.146L276.283 252.649C275.4 254.462 274.394 256.305 273.298 258.102ZM237.471 257.874C236.079 256.526 234.547 255.331 232.901 254.31L232.672 254.157L233.266 253.182L233.51 253.335C235.208 254.406 236.786 255.658 238.217 257.067L237.471 257.874ZM222.345 254.934L221.4 254.294C222.052 253.378 222.917 252.633 223.919 252.124C224.922 251.615 226.033 251.356 227.158 251.37V252.512C226.221 252.507 225.297 252.723 224.46 253.144C223.623 253.565 222.898 254.179 222.345 254.934ZM278.705 246.906L277.639 246.51C278.344 244.599 278.949 242.651 279.452 240.676L280.548 240.951C280.057 242.97 279.447 244.959 278.72 246.906H278.705ZM281.752 234.827L280.609 234.675C280.881 232.654 281.039 230.62 281.081 228.582H282.224C282.182 230.671 282.025 232.756 281.752 234.827ZM280.868 222.489C280.685 220.444 280.395 218.41 280 216.396L281.127 216.167C281.525 218.207 281.82 220.266 282.011 222.336L280.868 222.489ZM278.507 210.516C277.928 208.596 277.243 206.662 276.451 204.743L277.517 204.316C278.309 206.251 279.04 208.231 279.604 210.181L278.507 210.516ZM273.937 199.168C273.023 197.385 272.003 195.588 270.891 193.821L271.866 193.227C272.963 195.009 273.998 196.837 274.912 198.65L273.937 199.168ZM267.524 188.718C266.352 187.073 265.087 185.443 263.777 183.859L264.661 183.128C265.986 184.727 267.266 186.387 268.454 188.048L267.524 188.718ZM259.725 179.243C258.339 177.72 256.877 176.303 255.384 174.902L256.161 174.064C257.684 175.496 259.207 176.974 260.548 178.466L259.725 179.243ZM250.784 170.82C249.261 169.525 247.6 168.245 245.97 167.027L246.641 166.113C248.301 167.331 249.946 168.626 251.515 169.951L250.784 170.82Z" fill="#263238"/>
<path d="M196.206 315.606C195.181 315.478 194.164 315.295 193.16 315.057L193.434 313.945C193.434 313.945 194.531 314.22 196.358 314.478L196.206 315.606Z" fill="#263238"/>
<path d="M180.836 313.336C180.12 319.429 192.565 322.841 193.509 314.859C194.454 306.878 181.552 307.197 180.836 313.336Z" fill="#263238"/>
<path d="M197.135 323.42C195.977 325.72 191.88 326.04 187.645 323.085C184.769 320.889 182.339 318.165 180.486 315.057C184.067 314.684 187.686 315 191.149 315.986C196.16 317.677 198.354 321.089 197.135 323.42Z" fill="#EBEBEB"/>
<path d="M180.531 315.057C182.938 316.139 185.299 317.312 187.66 318.469C190.021 319.627 192.351 320.861 194.651 322.141C192.245 321.059 189.884 319.886 187.523 318.728C185.161 317.571 182.831 316.337 180.531 315.057Z" fill="#263238"/>
<path d="M191.59 323.374C191.043 322.74 190.534 322.074 190.066 321.379C189.606 320.689 189.189 319.972 188.817 319.231C189.364 319.865 189.873 320.532 190.341 321.226C190.804 321.914 191.221 322.632 191.59 323.374Z" fill="#263238"/>
<path d="M186.472 318.028C187.31 317.81 188.159 317.637 189.016 317.51C189.879 317.388 190.749 317.311 191.62 317.281C189.933 317.701 188.209 317.951 186.472 318.028Z" fill="#263238"/>
<path d="M185.147 319.033C184.623 318.381 184.249 317.622 184.05 316.809C184.574 317.461 184.949 318.22 185.147 319.033Z" fill="#263238"/>
<path d="M199.145 307.471C198.551 304.958 194.652 303.709 189.853 305.598C186.542 307.072 183.543 309.166 181.019 311.767C184.443 312.953 188.062 313.47 191.681 313.29C196.815 312.864 199.755 310.061 199.145 307.471Z" fill="#EBEBEB"/>
<path d="M181.019 311.767C183.608 311.28 186.182 310.67 188.741 310.076C191.301 309.482 193.86 308.842 196.358 308.126C193.783 308.614 191.209 309.223 188.65 309.817C186.091 310.411 183.562 311.051 181.019 311.767Z" fill="#263238"/>
<path d="M193.708 306.222C193.045 306.694 192.409 307.202 191.804 307.746C191.199 308.315 190.625 308.915 190.083 309.543C190.752 309.081 191.388 308.572 191.987 308.02C192.595 307.455 193.17 306.855 193.708 306.222Z" fill="#263238"/>
<path d="M187.462 310.244C189.006 311.047 190.629 311.685 192.306 312.148C190.766 311.338 189.142 310.699 187.462 310.244Z" fill="#263238"/>
<path d="M186.472 308.964C186.141 309.212 185.839 309.499 185.574 309.817C185.31 310.144 185.081 310.496 184.888 310.868C185.22 310.615 185.522 310.323 185.787 310C186.064 309.689 186.294 309.34 186.472 308.964Z" fill="#263238"/>
<path d="M180.836 313.336C181.272 313.387 181.683 313.566 182.018 313.85C182.353 314.135 182.596 314.512 182.717 314.934C182.838 315.357 182.83 315.805 182.696 316.224C182.562 316.642 182.307 317.011 181.964 317.285C181.62 317.559 181.203 317.724 180.765 317.761C180.328 317.798 179.889 317.705 179.504 317.492C179.12 317.28 178.806 316.959 178.604 316.569C178.402 316.179 178.32 315.738 178.368 315.301C178.437 314.714 178.735 314.178 179.197 313.81C179.659 313.442 180.248 313.272 180.836 313.336Z" fill="#455A64"/>
<path d="M181.354 308.903C181.645 308.937 181.927 309.028 182.183 309.171C182.438 309.314 182.664 309.506 182.845 309.736C183.027 309.965 183.162 310.229 183.242 310.511C183.322 310.793 183.346 311.088 183.312 311.379C183.278 311.67 183.187 311.951 183.044 312.207C182.901 312.463 182.709 312.688 182.479 312.87C182.249 313.052 181.986 313.186 181.704 313.266C181.422 313.346 181.127 313.37 180.836 313.336C180.248 313.267 179.712 312.968 179.345 312.504C178.978 312.04 178.81 311.448 178.879 310.861C178.948 310.273 179.247 309.736 179.711 309.369C180.175 309.002 180.766 308.835 181.354 308.903Z" fill="#455A64"/>
<path d="M43.286 456.766C43.286 456.766 10.8101 521.794 10.7949 521.794C8.11393 535.214 6.01182 547.05 5.47868 553.265C5.47081 553.3 5.47081 553.336 5.47868 553.371C5.19753 554.812 5.25489 556.298 5.64624 557.713C5.63837 557.748 5.63837 557.784 5.64624 557.819C9.10404 561.323 115.824 585.893 119.891 585.497C123.958 585.101 123.09 573.631 119.708 569.381C116.326 565.131 79.6615 537.392 79.6615 537.392L111.406 472.258L43.286 456.766Z" fill="#D3766A"/>
<path d="M118.276 585.558C114.269 585.954 9.14922 561.368 5.70666 557.88C5.70166 557.845 5.70166 557.809 5.70666 557.773C5.30802 556.36 5.24543 554.874 5.52387 553.432C5.51103 553.398 5.51103 553.36 5.52387 553.325C6.04178 547.111 8.15911 535.275 10.8248 521.84L18.5934 506.272L85.9367 524.734L79.7218 537.499C79.7218 537.499 114.757 565.176 118.154 569.487C121.551 573.798 122.297 585.177 118.276 585.558Z" fill="#EBEBEB"/>
<path d="M119.738 583.852C115.671 584.156 8.69281 556.89 5.28071 553.264C3.97071 551.909 7.03246 536.082 11.2824 517.072L11.4194 516.478L80.6364 533.31L80.3165 534.467C80.3165 534.467 116.585 563.227 119.921 567.614C123.257 572.001 123.79 583.562 119.738 583.852Z" fill="#263238"/>
<path d="M119.57 579.389C101.657 574.362 28.9058 555.717 10.8095 552.092C10.6572 552.092 10.6267 552.168 10.8095 552.214C28.4641 557.591 101.367 575.641 119.54 579.632C119.89 579.769 119.951 579.495 119.57 579.389Z" fill="white"/>
<path d="M86.059 536.158C79.2957 533.02 70.339 531.893 63.6366 535.579C63.3777 535.717 63.6366 536.082 63.8194 536.067C71.1601 535.607 78.5289 535.934 85.8 537.042C85.9068 537.048 86.0126 537.018 86.1001 536.957C86.1876 536.895 86.2516 536.806 86.2816 536.703C86.3117 536.601 86.3061 536.491 86.2656 536.392C86.2252 536.293 86.1523 536.211 86.059 536.158Z" fill="white"/>
<path d="M90.3843 540.546C83.6362 537.423 74.6795 536.296 67.9619 539.967C67.7029 540.104 67.9619 540.469 68.1599 540.469C75.5005 540.001 82.8702 540.328 90.1405 541.444C90.2516 541.455 90.3629 541.426 90.4547 541.363C90.5465 541.299 90.6129 541.206 90.6421 541.098C90.6713 540.99 90.6615 540.876 90.6143 540.775C90.5671 540.673 90.4856 540.592 90.3843 540.546Z" fill="white"/>
<path d="M94.7266 544.948C87.9633 541.81 79.0065 540.683 72.3042 544.354C72.0452 544.506 72.3042 544.871 72.5022 544.856C79.8378 544.396 87.2016 544.723 94.4676 545.831C94.5744 545.838 94.6801 545.808 94.7676 545.746C94.8551 545.685 94.9191 545.595 94.9492 545.493C94.9793 545.39 94.9736 545.28 94.9332 545.181C94.8927 545.082 94.8199 545 94.7266 544.948Z" fill="white"/>
<path d="M122.343 580.439C124.064 581.658 122.008 587.98 120.5 588.147C118.992 588.315 2.47753 558.063 0.634385 557.103C-1.20876 556.143 1.31985 549.228 3.6809 549.487C6.04196 549.746 122.343 580.439 122.343 580.439Z" fill="#FFC727"/>
<path d="M26.0266 532.96C19.2633 527.11 10.1542 537.621 16.887 543.485C23.6199 549.35 32.8051 538.824 26.0266 532.96Z" fill="white"/>
<path d="M18.7915 501.078L96.8433 520.758C96.8433 520.758 169.594 389.469 167.964 356.094C165.725 310.061 111.68 168.52 111.68 168.52H46.9718C46.9718 168.52 89.9125 321.531 90.5066 347.274C90.7655 360.74 18.7915 501.078 18.7915 501.078Z" fill="#455A64"/>
<path d="M100.179 504.916C96.0209 503.256 58.8686 492.532 31.1453 486.637C31.1148 486.647 31.0883 486.667 31.0695 486.693C31.0507 486.719 31.0405 486.75 31.0405 486.782C31.0405 486.814 31.0507 486.845 31.0695 486.871C31.0883 486.897 31.1148 486.917 31.1453 486.927C39.8736 489.973 94.9546 504.49 100.118 505.206C100.24 505.251 100.362 505.038 100.179 504.916Z" fill="#263238"/>
<path d="M95.8687 314.402C90.7201 292.802 85.2059 271.264 79.4175 249.862C73.6291 228.46 67.4295 206.86 60.6205 185.626C59.7979 183.021 58.9297 180.447 58.0919 177.857C58.0676 177.774 58.0115 177.705 57.9358 177.663C57.8601 177.622 57.771 177.612 57.6882 177.636C57.6054 177.661 57.5356 177.717 57.4942 177.792C57.4528 177.868 57.4431 177.957 57.4673 178.04C63.5604 199.198 69.6534 220.311 75.4266 241.545C81.1997 262.779 86.6987 284.074 91.8778 305.522C93.1725 310.823 94.4368 316.108 95.6707 321.424C97.1047 326.873 98.2135 332.402 98.9914 337.982C99.6318 343.314 99.2649 348.719 97.9099 353.916C96.4401 359.022 94.5182 363.987 92.1672 368.752C82.8347 389.012 73.5073 409.276 64.1849 429.545C54.8626 449.866 53.3545 454.496 44.3825 474.984C43.2706 477.528 42.1586 480.072 41.0923 482.601C41.0923 482.768 41.2598 482.92 41.3512 482.738C51.5571 462.661 53.126 457.832 62.6769 437.39C72.2277 416.948 81.7176 396.262 91.1923 375.683C95.4574 366.391 100.469 356.916 101.109 346.528C101.749 335.682 98.3364 324.806 95.8687 314.402Z" fill="#263238"/>
<path d="M99.4023 482.479L101.9 554.072C102.312 567.781 102.906 579.769 103.805 585.938C103.797 585.974 103.797 586.01 103.805 586.045C103.856 587.509 104.241 588.942 104.932 590.234L105.023 590.325C109.182 592.961 218.689 592.9 222.512 591.605C226.336 590.31 222.954 579.343 218.704 575.946C214.454 572.549 172.504 553.828 172.504 553.828L169.32 482.311L99.4023 482.479Z" fill="#D3766A"/>
<path d="M101.383 539.418C101.383 539.418 101.901 554.072 101.901 554.118C102.312 567.827 102.906 579.815 103.805 585.984C103.797 586.019 103.797 586.056 103.805 586.091C104.013 587.527 104.391 588.933 104.932 590.28L105.023 590.371C109.182 593.006 218.689 592.946 222.512 591.651C226.336 590.356 222.954 579.388 218.704 575.992C214.454 572.595 172.504 553.874 172.504 553.874L172.184 538.961L101.383 539.418Z" fill="#EBEBEB"/>
<path d="M222.574 591.529C218.704 592.763 108.329 591.057 104.155 588.315C102.632 587.294 101.87 571.209 101.596 551.757V551.147L172.824 551.452V552.671C172.824 552.671 214.79 572.214 219.04 575.702C223.289 579.191 226.458 590.341 222.574 591.529Z" fill="#263238"/>
<path d="M221.401 587.294C202.802 586.548 127.705 585.299 109.258 585.984C109.106 585.984 109.106 586.091 109.258 586.091C127.674 587.233 202.786 587.888 221.401 587.614C221.781 587.523 221.797 587.294 221.401 587.294Z" fill="white"/>
<path d="M178.764 552.945C171.468 551.422 162.481 552.442 156.814 557.515C156.586 557.713 156.814 558.017 157.119 557.956C164.151 555.81 171.392 554.416 178.718 553.798C178.807 553.77 178.884 553.715 178.941 553.642C178.998 553.568 179.03 553.48 179.035 553.387C179.04 553.295 179.017 553.203 178.969 553.124C178.92 553.045 178.849 552.982 178.764 552.945Z" fill="white"/>
<path d="M184.004 556.204C176.693 554.681 167.721 555.717 162.054 560.85C161.826 561.048 162.054 561.353 162.344 561.277C169.38 559.128 176.626 557.739 183.959 557.134C184.069 557.12 184.171 557.068 184.246 556.986C184.322 556.905 184.366 556.799 184.372 556.688C184.377 556.577 184.343 556.468 184.276 556.379C184.209 556.291 184.113 556.229 184.004 556.204Z" fill="white"/>
<path d="M189.229 559.48C181.933 557.956 172.961 558.977 167.279 564.049C167.066 564.247 167.279 564.552 167.584 564.491C174.617 562.346 181.857 560.952 189.184 560.333C189.272 560.304 189.349 560.25 189.406 560.177C189.463 560.103 189.496 560.014 189.5 559.922C189.505 559.829 189.482 559.737 189.434 559.658C189.385 559.579 189.314 559.517 189.229 559.48Z" fill="white"/>
<path d="M224.325 587.599C226.29 588.391 225.757 595.017 224.325 595.52C222.893 596.023 102.464 593.631 100.499 593.144C98.5343 592.656 99.3264 585.329 101.718 584.979C104.109 584.629 224.325 587.599 224.325 587.599Z" fill="#FFC727"/>
<path d="M119.631 563.76C111.695 559.632 105.267 571.97 113.218 576.098C121.17 580.226 127.582 567.888 119.631 563.76Z" fill="white"/>
<path d="M110.873 168.398C110.584 169.723 94.4523 233.502 92.4416 234.69C90.1567 236.046 151.057 317.982 158.277 358.211C162.847 383.939 173.51 533.904 173.51 533.904H95.8537C95.8537 533.904 88.2374 406.544 85.7088 364.578C84.7187 348.295 23.636 273.015 17.8323 222.824C16.0044 207.012 27.368 168.337 27.368 168.337L110.873 168.398Z" fill="#455A64"/>
<path d="M93.8885 473.309C92.9745 452.212 92.1367 431.069 90.5982 410.002C89.73 398.06 88.0239 386.498 86.8358 374.602C86.8358 373.977 86.2722 373.825 86.2874 374.464C86.8358 395.653 88.5875 416.613 89.7147 437.786C90.842 458.96 91.9235 463.895 93.1269 485.007C93.7971 496.95 94.3912 508.892 95.3204 520.819C95.3304 520.85 95.3498 520.876 95.3757 520.895C95.4017 520.914 95.433 520.924 95.4651 520.924C95.4971 520.924 95.5284 520.914 95.5544 520.895C95.5804 520.876 95.5998 520.85 95.6098 520.819C95.6555 499.615 94.8177 494.482 93.8885 473.309Z" fill="#263238"/>
<path d="M158.353 359.216C157.688 353.645 156.609 348.13 155.123 342.72C153.524 337.475 151.417 332.399 148.832 327.563C143.546 317.418 137.53 307.608 131.726 297.753C125.922 287.897 119.875 277.829 113.751 267.988C110.309 262.464 106.851 256.945 103.378 251.431C99.8441 245.871 96.1121 240.417 92.4715 234.934C92.4433 234.887 92.3977 234.854 92.3448 234.841C92.292 234.828 92.2362 234.837 92.1897 234.865C92.1433 234.893 92.11 234.939 92.0971 234.992C92.0843 235.045 92.0929 235.1 92.1212 235.147C98.0619 245.109 103.942 255.086 109.882 265.048C115.823 275.011 121.672 285.003 127.522 294.996C133.371 304.988 139.053 314.676 144.567 324.669C147.282 329.413 149.62 334.364 151.559 339.475C153.362 344.771 154.673 350.222 155.474 355.759C157.545 368.661 159.236 381.654 161.826 394.434C161.836 394.465 161.855 394.491 161.881 394.51C161.907 394.529 161.938 394.539 161.97 394.539C162.002 394.539 162.034 394.529 162.06 394.51C162.086 394.491 162.105 394.465 162.115 394.434C161.308 382.675 159.906 370.9 158.353 359.216Z" fill="#263238"/>
<path d="M166.67 520.591C162.237 520.012 128.405 518.839 100.103 520.057C99.9203 520.057 99.9356 520.332 100.103 520.347C109.319 521.154 161.43 521.52 166.624 520.911C166.761 520.895 166.822 520.621 166.67 520.591Z" fill="#263238"/>
<path d="M102.571 230.334C94.6591 233.216 87.0138 236.784 79.7223 240.996C79.6596 241.025 79.6108 241.077 79.5865 241.141C79.5623 241.205 79.5645 241.276 79.5928 241.339C79.6211 241.402 79.6731 241.451 79.7373 241.475C79.8016 241.499 79.8729 241.497 79.9355 241.469C87.6432 238.148 95.5185 234.979 103.043 231.247C103.165 231.185 103.256 231.077 103.297 230.947C103.339 230.817 103.327 230.676 103.264 230.554C103.202 230.433 103.093 230.342 102.963 230.3C102.833 230.259 102.692 230.271 102.571 230.334Z" fill="#263238"/>
<path d="M104.901 177.537C104.901 177.279 104.414 177.218 104.414 177.537C104.415 186.145 103.983 194.747 103.119 203.311C102.753 207.287 99.5546 229.206 92.6695 227.683C91.5118 227.409 90.933 226.282 90.7502 224.53C90.7694 222.256 91.0765 219.994 91.6642 217.797C92.4258 213.227 93.0351 208.658 93.4311 203.951C94.2387 195.302 94.1469 186.593 93.157 177.964C93.1441 177.915 93.1154 177.872 93.0754 177.841C93.0355 177.811 92.9865 177.794 92.9361 177.794C92.8857 177.794 92.8367 177.811 92.7967 177.841C92.7568 177.872 92.7281 177.915 92.7152 177.964C92.9147 189.952 92.212 201.939 90.6131 213.822C89.7449 219.534 86.8659 228.14 92.8523 229.054C98.8387 229.968 102.875 215.543 103.607 211.598C105.512 200.348 105.947 188.899 104.901 177.537Z" fill="#263238"/>
<path d="M92.8523 228.155C92.242 229.642 91.7331 231.169 91.329 232.725C90.8906 233.92 90.6738 235.185 90.6892 236.457C90.6966 236.509 90.7197 236.558 90.7553 236.596C90.7909 236.635 90.8374 236.662 90.8886 236.673C90.9398 236.685 90.9933 236.681 91.0421 236.661C91.0908 236.641 91.1324 236.608 91.1615 236.564C91.8811 235.441 92.4207 234.213 92.7609 232.923C93.294 231.507 93.8424 230.12 94.2841 228.688C94.3548 228.499 94.3472 228.288 94.2629 228.104C94.1787 227.92 94.0247 227.777 93.8348 227.706C93.6449 227.635 93.4347 227.643 93.2505 227.727C93.0662 227.811 92.923 227.965 92.8523 228.155Z" fill="#263238"/>
<path d="M96.0971 385.051C95.3659 374.205 95.4116 362.766 90.7961 352.712C88.3446 347.813 85.5235 343.108 82.3573 338.637C79.2092 333.824 76.1018 328.985 73.0349 324.121C60.8488 304.669 49.0893 284.82 38.3808 264.485C33.2169 254.69 28.4644 244.576 25.8748 233.761C23.3495 222.38 22.8698 210.64 24.4582 199.091C24.8237 196.212 25.2198 193.349 25.692 190.485C25.6935 190.446 25.6816 190.408 25.6581 190.377C25.6347 190.346 25.6012 190.324 25.5634 190.315C25.5256 190.306 25.4859 190.311 25.451 190.328C25.4161 190.345 25.3882 190.374 25.3721 190.409C22.8658 201.391 22.0085 212.686 22.8283 223.921C24.0005 234.662 27.0258 245.119 31.7698 254.827C36.4919 265.049 42.1127 274.889 47.6574 284.683C53.3747 294.838 59.2596 304.846 65.312 314.707C71.405 324.547 77.6809 334.189 83.9719 343.877C87.1809 348.447 89.6818 353.474 91.3902 358.79C92.7753 364.337 93.5718 370.015 93.7665 375.729C95.2897 399.705 101.383 479.417 103.546 503.271C103.805 506.318 104.079 509.364 104.368 512.411C104.36 512.442 104.358 512.476 104.365 512.508C104.371 512.54 104.385 512.57 104.404 512.596C104.424 512.623 104.45 512.644 104.479 512.658C104.509 512.673 104.541 512.68 104.574 512.68C104.607 512.68 104.639 512.673 104.669 512.658C104.698 512.644 104.724 512.623 104.744 512.596C104.764 512.57 104.777 512.54 104.783 512.508C104.79 512.476 104.788 512.442 104.78 512.411C103.866 488.465 97.666 408.951 96.0971 385.051Z" fill="#263238"/>
<path d="M58.8231 189.419C58.8231 189.251 58.549 189.312 58.549 189.419C58.3205 196.075 58.5489 202.961 55.9442 209.221C53.5984 214.994 48.8762 219.046 43.5905 222.077C40.5166 223.802 37.3483 225.353 34.1006 226.723C33.8721 226.83 33.9635 227.196 34.2225 227.119C40.3155 225.17 46.6066 223.052 51.7095 218.97C57.1628 214.583 59.5543 208.231 59.8133 201.376C59.9066 197.367 59.5747 193.358 58.8231 189.419Z" fill="#263238"/>
<path d="M92.6237 80.9171C101.337 107.666 124.871 153.226 133.279 158.725C140.728 163.584 175.778 158.162 191.163 154.46C196.891 153.074 184.004 109.417 177.896 111.017C170.569 112.936 148.741 117.856 147.156 116.638C145.572 115.419 123.561 88.3049 107.963 72.3411C93.7661 57.8854 89.3334 70.8027 92.6237 80.9171Z" fill="#D3766A"/>
<path d="M187.797 154.795C190.737 154.429 215.612 153.272 227.021 147.072C233.114 143.767 248.667 132.83 247.113 128.9C245.696 125.32 240.7 127.27 240.7 127.27C240.7 127.27 247.57 122.289 245.559 117.323C243.548 112.357 235.247 116.089 235.247 116.089C235.247 116.089 241.934 110.453 239.573 105.655C237.212 100.856 229.504 105.99 229.504 105.99C229.504 105.99 235.856 101.131 232.246 97.9927C227.889 94.215 217.181 104.512 209.945 106.919C208.3 107.467 175.885 115.662 175.885 115.662L187.797 154.795Z" fill="#D3766A"/>
<path d="M229.23 105.853C221.339 113.393 216.572 115.327 206.031 117.46C205.833 117.46 205.848 117.826 206.031 117.795C216.541 116.653 222.863 115.084 229.58 106.218C229.946 105.777 229.595 105.487 229.23 105.853Z" fill="#263238"/>
<path d="M234.988 115.906C226.107 123.035 220.958 125.168 210.082 128.214C209.93 128.214 209.991 128.534 210.159 128.504C221.065 126.402 227.341 124.696 235.277 116.409C235.643 116.044 235.399 115.587 234.988 115.906Z" fill="#263238"/>
<path d="M240.167 127.391C231.028 133.667 225.529 136.272 214.592 137.871C214.539 137.871 214.489 137.892 214.452 137.929C214.414 137.967 214.394 138.017 214.394 138.069C214.394 138.122 214.414 138.172 214.452 138.21C214.489 138.247 214.539 138.267 214.592 138.267C225.909 137.719 232.871 134.536 240.289 127.696C240.837 127.27 240.731 127.011 240.167 127.391Z" fill="#263238"/>
<path d="M167.386 117.064C167.386 117.064 176.45 106.812 181.415 103.187C186.381 99.5617 209.9 92.8593 211.637 97.8556C213.876 104.314 201.066 110.849 194.378 113.225C194.378 113.225 199.573 128.153 191.332 134.825C183.091 141.497 167.386 117.064 167.386 117.064Z" fill="#D3766A"/>
<path d="M211.682 99.8511C209.473 107.208 200.486 109.767 194.164 112.555C194.071 112.595 193.988 112.657 193.923 112.735C193.857 112.813 193.811 112.905 193.787 113.004C193.763 113.103 193.763 113.207 193.786 113.306C193.809 113.405 193.856 113.497 193.921 113.576C195.688 119.973 196.297 129.509 191.819 134.901C191.697 135.054 191.895 135.267 192.047 135.13C197.637 130.012 197.79 120.583 195.414 113.698C201.948 110.94 210.844 107.97 211.743 99.8815C211.758 99.8511 211.697 99.8511 211.682 99.8511Z" fill="#263238"/>
<path d="M187.782 162.305L176.297 109.996L147.873 115.16C136.661 102.319 114.254 76.6519 105.221 68.9442C94.5585 59.8961 87.5819 66.6898 91.5119 80.3991C100.393 111.733 126.364 157.735 133.158 162.076C143.013 168.398 187.782 162.305 187.782 162.305Z" fill="#FFC727"/>
<path opacity="0.1" d="M147.202 131.078C148.609 131.384 150.043 131.552 151.482 131.581C154.529 131.992 155.869 136.486 153.097 138.192C151.641 139.088 149.995 139.631 148.292 139.777C146.588 139.922 144.874 139.666 143.287 139.029C140.241 137.841 137.666 134.886 138.321 131.413C138.435 130.766 138.714 130.159 139.131 129.651C139.549 129.143 140.091 128.752 140.704 128.516C141.318 128.28 141.982 128.207 142.632 128.303C143.282 128.4 143.896 128.663 144.414 129.067C145.259 129.848 146.195 130.523 147.202 131.078ZM139.342 118.633C138.245 123.812 146.258 128.26 150.355 125.503C150.685 125.253 150.955 124.931 151.144 124.563C151.333 124.194 151.437 123.787 151.447 123.373C151.457 122.959 151.374 122.548 151.203 122.17C151.033 121.792 150.779 121.458 150.462 121.192C149.258 120.217 148.253 120.065 147.187 119.181C146.814 118.89 146.486 118.546 146.212 118.161C145.608 117.328 144.834 116.632 143.942 116.12C143.478 115.921 142.975 115.831 142.471 115.855C141.967 115.879 141.475 116.018 141.032 116.26C140.589 116.502 140.207 116.841 139.914 117.252C139.621 117.663 139.426 118.135 139.342 118.633ZM126.562 118.907C124.917 121.055 126.151 124.284 127.598 126.234C128.249 127.205 129.146 127.986 130.198 128.497C131.25 129.008 132.418 129.231 133.584 129.143C134.009 129.084 134.407 128.902 134.732 128.621C135.056 128.34 135.291 127.971 135.411 127.559C135.53 127.147 135.527 126.709 135.403 126.298C135.279 125.887 135.039 125.521 134.711 125.244C133.795 124.547 133.063 123.637 132.579 122.593C131.863 120.979 131.391 118.892 129.532 118.191C129.025 117.982 128.464 117.939 127.931 118.068C127.398 118.196 126.918 118.49 126.562 118.907ZM160.302 152.784C158.154 157.126 164.689 162.061 168.649 161.208C169.975 160.919 171.254 159.182 170.081 157.933C169.137 156.928 168.01 156.136 167.126 155.069C166.045 153.775 165.451 152.114 163.76 151.459C163.124 151.193 162.409 151.182 161.765 151.429C161.121 151.676 160.597 152.161 160.302 152.784ZM98.9451 99.5465C98.5704 98.8333 98.0517 98.2056 97.4218 97.7033C98.2749 99.8867 99.1736 102.075 100.118 104.269C100.169 102.617 99.7628 100.983 98.9451 99.5465ZM107.43 94.9767C107.131 91.2139 105.661 87.6393 103.225 84.7556C101.398 82.3946 98.2292 78.6626 94.878 79.4699C94.5218 79.5812 94.2109 79.8043 93.9914 80.1061C93.7719 80.4079 93.6555 80.7723 93.6594 81.1455C93.4461 83.7198 96.4013 86.4769 97.6808 88.5333C99.2041 91.1229 100.407 93.9866 102.053 96.5609C102.396 97.0901 102.902 97.494 103.495 97.712C104.087 97.9301 104.734 97.9507 105.339 97.7707C105.944 97.5908 106.474 97.2199 106.851 96.7136C107.228 96.2073 107.431 95.5926 107.43 94.9615V94.9767ZM106.44 111.352C107.035 111.321 107.604 111.1 108.065 110.722C108.526 110.344 108.853 109.828 108.999 109.25C109.235 108.067 109.157 106.843 108.77 105.7C108.542 104.612 108.015 103.61 107.247 102.806C106.972 102.552 106.636 102.373 106.271 102.288C105.906 102.202 105.525 102.213 105.166 102.319C104.807 102.425 104.481 102.623 104.221 102.892C103.961 103.162 103.775 103.494 103.682 103.857C103.561 104.747 103.561 105.649 103.682 106.538C103.682 106.919 103.682 107.3 103.682 107.696C103.675 108.27 103.736 108.843 103.865 109.402C104.029 109.958 104.368 110.447 104.832 110.796C105.296 111.144 105.859 111.334 106.44 111.337V111.352Z" fill="#030402"/>
<path d="M177.835 157.735C176.525 154.689 173.265 141.162 172.549 137.796C171.833 134.429 169.183 120.811 168.406 117.353C168.406 117.155 168.619 117.049 168.665 117.232C169.487 120.644 173.158 134.079 173.966 137.43C174.773 140.781 177.804 154.292 178.018 157.689C178.021 157.701 178.021 157.714 178.019 157.726C178.017 157.738 178.013 157.75 178.007 157.761C177.994 157.782 177.973 157.798 177.949 157.804C177.925 157.81 177.899 157.806 177.878 157.793C177.856 157.78 177.841 157.759 177.835 157.735Z" fill="#263238"/>
<path opacity="0.1" d="M151.437 164.925C143.44 164.925 136.418 164.163 133.158 162.076C126.318 157.659 100.347 111.809 91.4052 80.4143C89.1508 72.5543 90.5065 66.9487 94.0709 65.3188L151.437 164.925Z" fill="black"/>
<path d="M22.5384 175.572C22.7365 175.862 117.788 188.048 118.808 187.164C119.346 184.518 119.727 181.843 119.951 179.152C119.951 179.152 111.238 75.6617 106.729 69.5839C102.784 64.2829 90.811 60.4443 82.6615 63.9021C65.5553 71.1529 24.5948 163.615 25.0366 167.484C25.0061 167.438 22.2947 175.207 22.5384 175.572Z" fill="#FFC727"/>
<path opacity="0.1" d="M56.8124 162.975C58.2783 163.687 59.8084 164.258 61.3822 164.681C64.5506 165.945 64.84 171.231 61.3822 172.297C59.5441 172.881 57.5951 173.026 55.6908 172.722C53.7865 172.418 51.9797 171.672 50.4147 170.546C47.3682 168.413 45.4032 164.453 47.0483 160.919C47.3502 160.246 47.8201 159.663 48.4127 159.224C49.0053 158.786 49.7007 158.508 50.4321 158.416C51.1635 158.324 51.9062 158.422 52.5887 158.7C53.2713 158.979 53.8708 159.428 54.3295 160.005C55.1825 160.995 55.7005 162.305 56.8124 162.975ZM51.6029 147.24C48.9981 152.617 56.5382 159.639 61.763 157.735C62.2007 157.56 62.5918 157.286 62.9055 156.934C63.2193 156.582 63.4471 156.163 63.5711 155.708C63.6952 155.253 63.712 154.776 63.6202 154.313C63.5285 153.851 63.3308 153.416 63.0426 153.043C62.0067 151.657 60.9405 151.216 59.996 149.997C59.6701 149.576 59.4083 149.109 59.2192 148.611C58.7688 147.547 58.1112 146.584 57.2846 145.777C55.472 144.026 52.5625 145.26 51.6029 147.24ZM42.7984 141.512C39.9499 142.579 39.2188 146.417 39.432 149.129C39.4759 150.446 39.8684 151.728 40.5695 152.844C41.2706 153.96 42.2553 154.87 43.423 155.481C43.8636 155.678 44.3519 155.743 44.8288 155.668C45.3056 155.593 45.7505 155.382 46.1098 155.06C46.4692 154.737 46.7274 154.318 46.8534 153.852C46.9794 153.386 46.9678 152.894 46.8199 152.434C46.3362 151.216 46.1685 149.896 46.3324 148.596C46.5914 146.646 47.3682 144.361 46.0734 142.609C45.7131 142.104 45.2022 141.726 44.614 141.529C44.0257 141.332 43.3902 141.326 42.7984 141.512ZM74.0253 159.639C73.3042 159.577 72.5868 159.794 72.0204 160.244C71.4539 160.695 71.0811 161.345 70.9787 162.061C70.9008 162.831 71.094 163.604 71.5251 164.246C71.9561 164.888 72.598 165.36 73.3398 165.58C74.3785 165.923 75.4999 165.923 76.5386 165.58C77.0703 165.37 77.5084 164.975 77.7725 164.468C78.0783 163.977 78.2023 163.395 78.1228 162.823C78.0385 162.289 77.7938 161.793 77.421 161.401C77.0483 161.009 76.5652 160.74 76.036 160.629C75.9401 160.503 75.8273 160.39 75.7008 160.294C75.2173 159.919 74.6353 159.691 74.0253 159.639ZM50.6737 122.883C48.1146 125.503 49.1504 131.459 52.0751 133.47C52.4516 133.756 52.8965 133.939 53.3656 134C53.8346 134.061 54.3115 133.998 54.7488 133.818C55.1861 133.638 55.5687 133.346 55.8586 132.973C56.1485 132.599 56.3355 132.156 56.4011 131.687C56.4461 131.084 56.4461 130.478 56.4011 129.875C56.4011 129.22 56.3098 128.808 56.4011 128.351C56.629 127.049 56.6751 125.721 56.5382 124.406C56.4199 123.782 56.1268 123.205 55.693 122.742C55.2593 122.278 54.7028 121.947 54.0883 121.787C53.4738 121.628 52.8267 121.646 52.2222 121.84C51.6176 122.034 51.0807 122.396 50.6737 122.883ZM34.1463 160.782C30.6276 164.955 36.4312 172.115 40.9858 172.252C42.509 172.252 44.3826 170.728 43.4382 169.053C42.6766 167.712 41.656 166.524 40.9858 165.138C40.1632 163.432 39.9652 161.437 38.2896 160.279C37.6647 159.82 36.8882 159.616 36.1184 159.709C35.3485 159.803 34.6432 160.186 34.1463 160.782ZM118.185 159.456C117.611 159.542 117.076 159.797 116.648 160.187C116.219 160.578 115.916 161.087 115.778 161.65C115.29 163.341 115.229 164.849 113.965 166.22C112.597 167.296 111.369 168.54 110.309 169.921C110.133 170.266 110.048 170.651 110.065 171.038C110.082 171.426 110.199 171.802 110.404 172.131C110.61 172.459 110.898 172.729 111.239 172.913C111.58 173.097 111.963 173.189 112.35 173.181C115.011 172.854 117.446 171.525 119.159 169.464C118.855 166.57 118.55 163.173 118.2 159.395L118.185 159.456ZM110.568 146.889C109.715 148.961 109.868 151.307 109.152 153.47C108.523 155.453 107.776 157.396 106.912 159.289C106.273 160.66 107.552 162.823 109.213 162.092C111.913 161.055 114.122 159.036 115.397 156.44C116.555 154.049 117.834 150.027 116.722 147.484C115.61 144.94 111.833 143.828 110.538 146.829L110.568 146.889ZM101.886 167.652C100.62 169.287 99.0003 170.615 97.1484 171.536C96.7071 171.673 96.3 171.902 95.954 172.208C95.608 172.514 95.3311 172.891 95.1416 173.312C94.9521 173.734 94.8544 174.19 94.8549 174.653C94.8554 175.115 94.9541 175.571 95.1444 175.992C95.3348 176.413 95.6125 176.789 95.9591 177.094C96.3057 177.4 96.7133 177.628 97.1549 177.764C97.5965 177.9 98.0619 177.941 98.5203 177.884C98.9788 177.826 99.4198 177.672 99.8141 177.431C101.39 176.755 102.799 175.742 103.941 174.463C105.083 173.184 105.931 171.67 106.425 170.028C107.141 167.393 103.577 165.671 101.855 167.591L101.886 167.652ZM87.9631 93.0118C88.8142 93.1919 89.7019 93.0355 90.4403 92.5755C91.1786 92.1154 91.7102 91.3875 91.9236 90.5441C92.7766 87.2691 89.8519 83.9027 87.5366 81.8615C85.2212 79.8204 81.9614 77.962 78.7169 79.013C78.285 79.153 77.8959 79.401 77.5867 79.7335C77.2775 80.066 77.0583 80.472 76.95 80.9129C76.8417 81.3539 76.8478 81.8152 76.9677 82.2531C77.0877 82.691 77.3175 83.0911 77.6354 83.4153C79.052 85.1822 81.017 86.4618 82.5251 88.1983C84.0331 89.9348 85.2822 92.5091 87.9326 92.9509L87.9631 93.0118ZM99.6465 105.944C100.926 104.101 99.9359 101.374 99.022 99.6227C98.5352 98.6564 97.7786 97.8521 96.8437 97.3074C96.2145 96.9048 95.4518 96.767 94.7215 96.9238C93.9913 97.0807 93.3525 97.5197 92.9442 98.1452C92.5287 99.0113 92.4632 100.004 92.7614 100.918C92.8886 101.395 93.0621 101.86 93.2793 102.304V102.441V102.563C93.5515 104.017 94.1678 105.386 95.0767 106.554C95.3913 106.87 95.7749 107.11 96.1975 107.254C96.6201 107.398 97.0703 107.442 97.5128 107.383C97.9554 107.324 98.3782 107.163 98.7484 106.914C99.1185 106.664 99.4259 106.332 99.6465 105.944ZM107.507 95.0377C107.208 91.2749 105.738 87.7003 103.302 84.8166C101.474 82.4556 98.306 78.7236 94.9549 79.5309C94.5987 79.6422 94.2878 79.8653 94.0683 80.1671C93.8488 80.4689 93.7324 80.8334 93.7362 81.2065C93.523 83.7808 96.4781 86.5379 97.7577 88.5943C99.2809 91.1839 100.484 94.0476 102.129 96.6219C102.488 97.122 102.995 97.4962 103.579 97.6913C104.163 97.8863 104.793 97.8923 105.38 97.7084C105.967 97.5244 106.482 97.1599 106.85 96.6668C107.218 96.1736 107.421 95.5769 107.43 94.9615L107.507 95.0377ZM96.0059 121.116C96.5629 121.238 97.1397 121.238 97.6967 121.116C98.5411 120.856 99.2547 120.284 99.6922 119.517C100.101 118.699 100.305 117.795 100.286 116.881C100.259 116.016 100.024 115.169 99.6008 114.414L99.0981 113.789L98.4279 113.302C98.0086 113.085 97.546 112.966 97.0745 112.954C96.6029 112.941 96.1345 113.035 95.7042 113.228C95.2738 113.421 94.8926 113.709 94.5888 114.07C94.285 114.431 94.0665 114.855 93.9495 115.312C93.6959 116.2 93.5176 117.107 93.4164 118.024L93.5535 118.861C93.6601 119.282 93.8695 119.669 94.1628 119.989C94.623 120.521 95.2428 120.889 95.9297 121.04L96.0059 121.116ZM106.516 111.413C107.112 111.382 107.681 111.161 108.142 110.783C108.603 110.405 108.93 109.889 109.075 109.311C109.312 108.128 109.233 106.904 108.847 105.761C108.619 104.674 108.092 103.671 107.324 102.867C107.049 102.613 106.712 102.434 106.348 102.349C105.983 102.263 105.602 102.274 105.243 102.38C104.884 102.486 104.558 102.684 104.298 102.953C104.038 103.223 103.852 103.555 103.759 103.918C103.637 104.808 103.637 105.71 103.759 106.599C103.759 106.98 103.759 107.361 103.759 107.757C103.751 108.331 103.813 108.904 103.942 109.463C104.113 109.996 104.445 110.463 104.892 110.798C105.34 111.134 105.881 111.322 106.44 111.337L106.516 111.413Z" fill="#030402"/>
<path d="M101.17 85.8065C95.3659 85.2734 87.9324 72.8741 86.5158 64.9988C86.4244 64.4504 88.7397 59.8654 91.2836 54.1684C92.8068 50.7106 94.452 46.8111 95.6706 43.1553L116.752 56.4229C113.908 60.5614 111.58 65.0324 109.822 69.7362C109.664 70.2327 109.552 70.7426 109.487 71.2594C109.492 71.3457 109.492 71.4321 109.487 71.5184C108.953 74.5649 106.79 86.3245 101.17 85.8065Z" fill="#D3766A"/>
<path d="M109.487 71.2901C109.492 71.3763 109.492 71.4628 109.487 71.549C108.675 71.3901 107.875 71.1711 107.095 70.894C93.9039 66.1415 96.2344 48.8372 97.1636 44.0542L102.419 47.3749L116.814 56.5145C113.97 60.6513 111.648 65.1227 109.898 69.8278C109.717 70.3017 109.579 70.7911 109.487 71.2901Z" fill="#263238"/>
<path d="M97.8792 18.7377C93.5227 26.5825 92.7611 51.7772 97.5898 58.4643C104.566 68.1522 118.58 71.9299 127.461 63.0341C136.067 54.321 136.463 21.4643 130.858 15.1275C122.571 5.7138 104.307 7.14567 97.8792 18.7377Z" fill="#D3766A"/>
<path d="M118.108 39.1035C118.108 39.1035 117.971 39.1035 117.971 39.2558C117.971 40.9924 117.666 42.9726 116.082 43.4905V43.5971C118.017 43.3839 118.382 40.7486 118.108 39.1035Z" fill="#263238"/>
<path d="M116.631 37.245C113.844 36.9403 113.432 42.5154 116.007 42.8049C118.581 43.0943 118.962 37.5039 116.631 37.245Z" fill="#263238"/>
<path d="M128.101 39.6975C128.101 39.6975 128.223 39.7889 128.223 39.8651C128.025 41.5864 128.101 43.597 129.609 44.2825C129.609 44.2825 129.609 44.4044 129.609 44.3891C127.705 43.9626 127.644 41.2969 128.101 39.6975Z" fill="#263238"/>
<path d="M129.791 38.022C132.579 38.022 132.35 43.6124 129.791 43.6124C127.232 43.6124 127.446 38.0068 129.791 38.022Z" fill="#263238"/>
<path d="M118.885 36.1178C118.108 36.2854 117.362 36.3006 116.6 36.392C115.811 36.5984 114.976 36.5395 114.224 36.2245C114.005 36.0801 113.84 35.8674 113.754 35.6194C113.669 35.3714 113.668 35.1021 113.751 34.8535C114.001 34.3992 114.367 34.019 114.811 33.7515C115.255 33.484 115.762 33.3387 116.28 33.3303C117.332 33.128 118.422 33.335 119.327 33.9091C119.515 34.0506 119.659 34.2424 119.743 34.4624C119.827 34.6824 119.847 34.9216 119.801 35.1525C119.755 35.3834 119.644 35.5965 119.482 35.7673C119.32 35.9381 119.113 36.0596 118.885 36.1178Z" fill="#263238"/>
<path d="M132.29 32.8279C131.551 32.6203 130.823 32.3711 130.112 32.0815C129.311 31.9304 128.582 31.5179 128.04 30.9085C127.905 30.6853 127.848 30.4232 127.878 30.1638C127.908 29.9045 128.024 29.6626 128.208 29.4767C128.624 29.1587 129.119 28.9595 129.639 28.9005C130.159 28.8415 130.686 28.9248 131.163 29.1416C132.192 29.4232 133.081 30.0739 133.661 30.9695C133.782 31.182 133.838 31.4249 133.823 31.6687C133.809 31.9125 133.724 32.1469 133.579 32.3435C133.434 32.5401 133.235 32.6904 133.006 32.7764C132.777 32.8624 132.529 32.8802 132.29 32.8279Z" fill="#263238"/>
<path d="M116.844 52.8432C119.087 52.3062 121.425 52.3062 123.668 52.8432C123.866 52.8432 124.064 52.4472 124.11 52.2644L124.232 48.6086C124.704 48.8828 127.08 50.1318 127.08 49.4616C127.328 43.5198 126.966 37.5682 125.999 31.7004C125.988 31.6663 125.967 31.6365 125.938 31.6153C125.909 31.5942 125.874 31.5828 125.839 31.5828C125.803 31.5828 125.768 31.5942 125.739 31.6153C125.711 31.6365 125.689 31.6663 125.679 31.7004C125.435 37.1994 126.136 42.6831 125.968 48.2125C125.127 47.7467 124.225 47.403 123.287 47.1919C123.089 47.1919 123.287 51.0762 123.287 51.6551C121.191 50.9328 118.895 51.0586 116.889 52.0054C116.097 52.5081 115.777 53.1783 116.844 52.8432Z" fill="#263238"/>
<path d="M112.335 56.4687C112.716 56.8952 113.097 57.474 113.706 57.5654C114.346 57.596 114.986 57.4868 115.579 57.2455C115.579 57.2455 115.686 57.2455 115.579 57.3369C115.317 57.6602 114.971 57.9052 114.579 58.0449C114.186 58.1846 113.763 58.2137 113.356 58.129C113.023 58.0225 112.728 57.8221 112.506 57.5519C112.284 57.2816 112.146 56.953 112.106 56.6057C112.137 56.4382 112.274 56.4077 112.335 56.4687Z" fill="#263238"/>
<path opacity="0.2" d="M105.237 10.7405C105.008 14.6553 104.079 26.7956 102.19 29.2633C100.302 31.731 96.3106 37.4737 94.2847 38.4029C94.5589 30.3144 95.8079 22.6219 97.8948 18.6005C99.6057 15.3785 102.139 12.6667 105.237 10.7405Z" fill="#263238"/>
<path d="M126.943 22.6065C125.878 23.6907 124.553 24.4839 123.094 24.9105C121.636 25.3372 120.092 25.383 118.611 25.0437C117.094 24.7064 115.691 23.9839 114.536 22.9459C113.38 21.908 112.512 20.5896 112.015 19.1183C112.015 19.0269 111.847 19.1183 111.878 19.1183C112.265 20.7069 113.08 22.1589 114.235 23.3164C115.39 24.474 116.84 25.2927 118.428 25.6835C120.013 25.986 121.65 25.8635 123.172 25.3284C124.694 24.7933 126.048 23.8647 127.095 22.637C127.186 22.6522 127.065 22.5151 126.943 22.6065Z" fill="#263238"/>
<path d="M119.296 0.0318862C116.955 -0.126466 114.612 0.306768 112.482 1.2917C110.353 2.27663 108.505 3.78158 107.11 5.66794C105.921 7.58776 105.417 9.8532 105.678 12.0961H105.876C105.905 10.128 106.465 8.20435 107.498 6.52849C108.53 4.85264 109.996 3.48691 111.741 2.57573C113.648 1.50815 115.776 0.89626 117.959 0.787915C120.141 0.679569 122.32 1.07771 124.323 1.9512C126.293 2.76361 127.912 4.24768 128.893 6.14016C128.984 6.33818 129.38 6.24678 129.304 6.04876C128.055 2.72805 124.018 0.260375 119.296 0.0318862Z" fill="#263238"/>
<path d="M148.391 13.3147C147.728 10.7359 146.174 8.47482 144.004 6.93223C140.957 4.75397 137.393 4.78443 133.828 4.90629C133.722 4.90629 133.737 5.05863 133.828 5.04339C136.859 4.72699 139.916 5.29298 142.633 6.67328C144.844 8.00016 146.528 10.0504 147.4 12.4769C148.231 14.9656 148.134 17.6704 147.13 20.0939C146.125 22.5174 144.279 24.4969 141.932 25.6683C140.566 26.3105 139.082 26.6661 137.573 26.7133C136.064 26.7604 134.562 26.4981 133.158 25.9425C133.051 25.9425 132.96 26.0491 133.067 26.1101C134.966 26.9491 137.062 27.2402 139.118 26.9507C141.174 26.6612 143.109 25.8025 144.703 24.4716C146.296 23.1408 147.486 21.3908 148.138 19.4193C148.79 17.4477 148.877 15.3333 148.391 13.3147Z" fill="#263238"/>
<path d="M96.356 23.6882C96.356 23.6882 92.1518 14.1069 96.6454 9.08012C99.1892 6.24686 106.836 7.22175 106.836 7.22175C109.12 4.32212 112.462 2.44827 116.128 2.01219C122.663 0.991604 130.111 5.40906 130.111 5.40906C130.111 5.40906 136.479 2.36254 141.947 6.06406C149.563 11.2279 147.659 23.3074 139.342 26.5976C133.493 28.9282 126.212 23.3531 126.212 23.3531C125.481 23.3531 117.59 27.3745 112.396 20.2152C112.396 20.2152 107.461 23.9776 103.515 20.7787C102.765 21.9401 101.675 22.8424 100.395 23.3629C99.1137 23.8834 97.7036 23.997 96.356 23.6882Z" fill="#263238"/>
<path d="M98.8392 39.6062C98.8392 39.6062 94.8483 30.6647 90.903 31.99C86.9578 33.3152 88.8771 45.4708 92.7766 47.8471C93.2519 48.1776 93.7887 48.4093 94.3551 48.5286C94.9216 48.6478 95.5062 48.6522 96.0744 48.5414C96.6426 48.4306 97.1827 48.2069 97.6629 47.8836C98.143 47.5602 98.5534 47.1438 98.8697 46.6589L98.8392 39.6062Z" fill="#D3766A"/>
<path d="M91.5425 35.4324V35.539C94.2539 37.2907 95.2745 40.322 95.8076 43.3533C95.693 43.0267 95.5087 42.7288 95.2677 42.4804C95.0267 42.2319 94.7346 42.0387 94.4116 41.9141C94.0886 41.7896 93.7424 41.7366 93.397 41.7589C93.0515 41.7812 92.715 41.8783 92.4107 42.0433C92.3194 42.0433 92.4107 42.2109 92.4107 42.2109C92.9655 42.1467 93.5264 42.2595 94.0133 42.533C94.5003 42.8066 94.8883 43.227 95.1222 43.7341C95.5356 44.5581 95.8525 45.427 96.0666 46.3237C96.0666 46.6131 96.6454 46.5674 96.6149 46.3237C97.3918 42.3937 95.4877 36.5901 91.5425 35.4324Z" fill="#263238"/>
<path d="M309.975 57.353L145.977 107.586L175.545 204.121L339.544 153.888L309.975 57.353Z" fill="#FFC727"/>
<path opacity="0.2" d="M309.975 57.353L145.977 107.586L175.545 204.121L339.544 153.888L309.975 57.353Z" fill="black"/>
<path opacity="0.2" d="M309.967 57.3537L254.854 74.2349L284.423 170.77L339.536 153.888L309.967 57.3537Z" fill="black"/>
<path d="M307.327 62.2722C305.469 70.8228 303.662 79.3733 301.905 87.9239L296.71 113.637L291.684 139.456C290.039 148.047 288.434 156.653 286.87 165.275C288.728 156.735 290.536 148.184 292.293 139.623L297.487 113.911L302.514 88.1524C304.159 79.5206 305.764 70.8939 307.327 62.2722Z" fill="#FFC727"/>
<path d="M334.395 150.652C328.302 144.396 322.153 138.166 315.949 131.961L297.365 113.439L278.659 95.0528C272.404 88.9598 266.118 82.8667 259.801 76.7737C265.894 83.0394 272.043 89.2695 278.248 95.4641L296.832 113.987L315.537 132.373C321.803 138.527 328.089 144.62 334.395 150.652Z" fill="#FFC727"/>
<path d="M177.474 120.026L178.377 119.75L174.492 107.064L173.589 107.341L177.474 120.026Z" fill="#263238"/>
<path d="M175.33 120.671L176.233 120.394L172.347 107.708L171.444 107.985L175.33 120.671Z" fill="#263238"/>
<path d="M173.165 121.361L174.068 121.084L170.182 108.399L169.279 108.675L173.165 121.361Z" fill="#263238"/>
<path d="M171.022 121.983L171.925 121.707L168.042 109.02L167.139 109.296L171.022 121.983Z" fill="#263238"/>
<path d="M168.86 122.654L169.763 122.378L165.877 109.692L164.974 109.968L168.86 122.654Z" fill="#263238"/>
<path d="M166.711 123.299L167.614 123.023L163.728 110.337L162.825 110.613L166.711 123.299Z" fill="#263238"/>
<path d="M164.536 124.009L165.439 123.732L161.553 111.047L160.65 111.323L164.536 124.009Z" fill="#263238"/>
<path d="M162.383 124.649L163.286 124.373L159.398 111.687L158.495 111.964L162.383 124.649Z" fill="#263238"/>
<path d="M160.211 125.333L161.114 125.057L157.229 112.371L156.326 112.647L160.211 125.333Z" fill="#263238"/>
<path d="M183.624 105.32L179.876 105.411L187.995 102.898L184.827 104.939L186.259 109.6C188.833 109.158 190.57 111.306 191.88 115.571L183.761 118.13C182.451 113.88 182.679 111.123 185.056 110.042L183.624 105.32Z" fill="#263238"/>
<path d="M191.788 108.564L193.905 107.909L192.001 101.694L197.424 100.034L199.328 106.249L201.461 105.594L198.597 113.545L191.788 108.564Z" fill="#263238"/>
<path opacity="0.1" d="M145.984 107.589L148.406 115.51L261.767 96.8043L254.851 74.2449L145.984 107.589Z" fill="black"/>
<path d="M360.794 164.833L305.667 181.711L284.418 170.774L339.545 153.881L360.794 164.833Z" fill="#FFC727"/>
<path opacity="0.2" d="M360.794 164.833L305.667 181.711L284.418 170.774L339.545 153.881L360.794 164.833Z" fill="black"/>
<path d="M164.065 225.093L219.192 208.201L230.662 187.24L175.535 204.118L164.065 225.093Z" fill="#FFC727"/>
<path opacity="0.1" d="M164.065 225.093L219.192 208.201L230.662 187.24L175.535 204.118L164.065 225.093Z" fill="black"/>
<path d="M73.3393 92.6915C81.3973 119.638 103.804 165.808 112.121 171.444C119.448 176.486 154.62 171.901 170.005 168.565C175.763 167.331 163.912 123.37 157.819 124.817C150.447 126.569 128.497 130.91 126.943 129.707C125.389 128.503 104.094 100.765 88.8613 84.4964C75.0301 69.6903 70.2928 82.5009 73.3393 92.6915Z" fill="#D3766A"/>
<path d="M154.651 128.397C154.651 128.397 166.304 115.266 174.56 110.255C183.275 105.267 193.071 102.47 203.106 102.106C213.937 101.679 240.426 108.107 239.893 116.059C239.421 123.264 212.688 115.312 212.688 115.312C212.688 115.312 241.279 118.922 239.116 127.498C236.953 136.074 206.442 125.061 206.442 125.061C206.442 125.061 235.734 129.418 232.17 137.933C229.428 144.346 201.233 135.937 201.233 135.937C201.233 135.937 226.397 139.867 223.853 146.6C221.05 154.018 194.53 147.895 194.53 147.895C185.223 163.858 174.24 167.697 166.122 169.418C164.096 169.769 154.651 128.397 154.651 128.397Z" fill="#D3766A"/>
<path d="M202.878 113.423C206.245 113.728 209.672 114.017 213.008 114.611C216.344 115.205 219.649 115.936 222.924 116.85C227.214 117.953 231.364 119.543 235.293 121.588C228.058 118.465 216.146 116.119 212.81 115.495C209.474 114.87 206.168 114.124 202.848 113.53C202.756 113.56 202.787 113.423 202.878 113.423Z" fill="#263238"/>
<path d="M200.486 125.442C204.766 126.006 209.062 126.417 213.327 127.178C217.592 127.94 221.537 129.037 225.726 130.088C226.046 130.164 225.894 130.316 225.574 130.24C221.339 129.357 217.379 128.869 213.144 128.047C208.91 127.224 204.705 126.219 200.456 125.533C200.395 125.533 200.41 125.427 200.486 125.442Z" fill="#263238"/>
<path d="M196.571 135.374C203.177 136.091 209.69 137.489 216.008 139.547C216.328 139.639 216.115 139.806 215.779 139.73C209.351 138.207 204.309 136.988 196.556 135.602C196.434 135.587 196.434 135.358 196.571 135.374Z" fill="#263238"/>
<path d="M166.517 176.365L156.281 123.782L127.75 128.26C116.844 115.16 95.0611 88.96 86.1653 81.039C75.731 71.7319 68.5869 78.3733 72.1666 92.1588C80.3617 123.675 105.221 170.226 111.954 174.796C121.612 181.346 166.517 176.365 166.517 176.365Z" fill="#FFC727"/>
<path opacity="0.1" d="M147.202 131.078C148.609 131.384 150.043 131.552 151.483 131.581C154.529 131.992 155.87 136.486 153.097 138.192C151.641 139.088 149.996 139.631 148.292 139.777C146.588 139.922 144.874 139.666 143.287 139.029C140.241 137.841 137.667 134.886 138.322 131.413C138.435 130.766 138.714 130.159 139.132 129.651C139.549 129.143 140.091 128.752 140.704 128.516C141.318 128.28 141.982 128.207 142.632 128.303C143.282 128.4 143.896 128.663 144.415 129.067C145.259 129.848 146.195 130.523 147.202 131.078ZM144.156 125.686C145.111 126.146 146.164 126.37 147.225 126.338C148.285 126.307 149.322 126.02 150.249 125.503C150.59 125.275 150.864 124.959 151.041 124.589L144.156 125.686ZM129.334 128.001C130.547 128.887 132.044 129.294 133.539 129.143C134.054 129.073 134.528 128.824 134.879 128.44C135.229 128.056 135.434 127.561 135.458 127.041L129.334 128.001ZM161.627 151.474C161.025 151.727 160.536 152.194 160.257 152.784C158.977 155.359 160.759 158.131 163.303 159.791L161.627 151.474ZM115.747 161.589C115.259 163.28 115.199 164.788 113.934 166.159C112.573 167.256 111.355 168.52 110.309 169.921C110.132 170.266 110.048 170.651 110.065 171.038C110.081 171.426 110.198 171.802 110.404 172.131C110.61 172.459 110.897 172.729 111.238 172.913C111.579 173.097 111.962 173.189 112.35 173.181C115.004 172.854 117.439 171.543 119.171 169.506C120.903 167.468 121.807 164.855 121.703 162.183C121.617 161.498 121.302 160.863 120.808 160.381C120.314 159.899 119.671 159.599 118.985 159.53C118.298 159.461 117.608 159.627 117.028 160.001C116.448 160.375 116.013 160.935 115.793 161.589H115.747ZM110.492 146.828C109.639 148.9 109.791 151.246 109.075 153.409C108.447 155.392 107.699 157.335 106.836 159.228C106.196 160.599 107.476 162.762 109.136 162.031C111.836 160.994 114.045 158.975 115.32 156.379C116.478 153.988 117.758 149.966 116.646 147.423C115.534 144.879 111.832 143.828 110.537 146.828H110.492ZM87.8865 92.9508C88.7375 93.1309 89.6253 92.9745 90.3636 92.5145C91.1019 92.0544 91.6335 91.3264 91.8469 90.4831C92.7 87.2081 89.7753 83.8417 87.4599 81.8005C85.1446 79.7593 81.8848 77.9009 78.6403 78.952C78.2083 79.092 77.8193 79.34 77.5101 79.6725C77.2009 80.005 76.9817 80.4109 76.8734 80.8519C76.765 81.2928 76.7711 81.7541 76.8911 82.1921C77.011 82.63 77.2409 83.03 77.5588 83.3542C78.9754 85.1212 80.9404 86.4007 82.4484 88.1373C83.9565 89.8738 85.2817 92.509 87.9322 92.9508H87.8865ZM99.646 105.944C100.926 104.101 99.9354 101.374 99.0215 99.6226C98.5348 98.6563 97.7781 97.852 96.8432 97.3073C96.2141 96.9047 95.4514 96.7668 94.7211 96.9237C93.9908 97.0806 93.352 97.5196 92.9437 98.1451C92.5282 99.0112 92.4627 100.004 92.7609 100.917C92.8881 101.395 93.0616 101.859 93.2788 102.304V102.441V102.563C93.551 104.017 94.1673 105.386 95.0762 106.553C95.3908 106.87 95.7744 107.11 96.197 107.254C96.6196 107.398 97.0698 107.442 97.5124 107.383C97.9549 107.324 98.3777 107.163 98.7479 106.914C99.118 106.664 99.4254 106.332 99.646 105.944ZM96.0054 121.177C96.5625 121.298 97.1392 121.298 97.6963 121.177C98.5406 120.917 99.2542 120.345 99.6917 119.577C100.101 118.76 100.305 117.856 100.286 116.942C100.258 116.077 100.023 115.23 99.6003 114.474L99.0977 113.85L98.4274 113.362C98.0082 113.146 97.5456 113.027 97.074 113.014C96.6024 113.002 96.134 113.095 95.7037 113.289C95.2733 113.482 94.8921 113.77 94.5883 114.13C94.2845 114.491 94.066 114.916 93.949 115.373C93.6954 116.26 93.5171 117.167 93.4159 118.085L93.553 118.922C93.6597 119.343 93.869 119.73 94.1623 120.05C94.6312 120.559 95.2501 120.906 95.9293 121.04L96.0054 121.177ZM108.786 105.716L105.739 102.288C105.252 102.23 104.761 102.354 104.359 102.635C103.958 102.915 103.673 103.334 103.561 103.812C103.439 104.701 103.439 105.603 103.561 106.493C103.561 106.873 103.561 107.254 103.561 107.65C103.553 108.224 103.614 108.797 103.744 109.356C103.91 109.936 104.266 110.443 104.755 110.797C105.244 111.15 105.837 111.329 106.44 111.306C107.035 111.275 107.605 111.055 108.065 110.676C108.526 110.298 108.853 109.782 108.999 109.204C109.228 108.042 109.154 106.841 108.786 105.716Z" fill="#030402"/>
<path d="M156.677 171.536C155.443 168.413 152.549 154.856 151.863 151.459C151.178 148.062 148.908 134.414 148.223 130.926C148.223 130.743 148.436 130.621 148.482 130.819C149.213 134.246 152.579 147.758 153.295 151.139C154.011 154.521 156.738 168.078 156.86 171.49C156.866 171.514 156.862 171.54 156.849 171.561C156.836 171.583 156.815 171.598 156.791 171.604C156.767 171.61 156.741 171.607 156.72 171.594C156.698 171.581 156.683 171.56 156.677 171.536Z" fill="#263238"/>
<path d="M147.263 177.842C142.587 178.116 137.911 178.223 133.234 178.192C128.541 178.213 123.85 177.943 119.19 177.385C116.802 177.149 114.467 176.531 112.274 175.557C110.303 174.165 108.591 172.438 107.217 170.454C104.456 166.642 101.957 162.647 99.7377 158.496C95.1679 150.286 91.2379 141.741 87.3993 133.241C83.5607 124.741 80.0724 115.998 76.8735 107.193C80.7578 115.708 84.5965 124.238 88.5874 132.692C92.5783 141.147 96.615 149.57 100.971 157.811C103.146 161.921 105.546 165.908 108.161 169.753C109.382 171.668 110.929 173.354 112.731 174.734C114.808 175.692 117.024 176.314 119.296 176.578C128.574 177.702 137.922 178.124 147.263 177.842Z" fill="#263238"/>
<path d="M79.8442 114.627C79.2185 113.995 78.6525 113.306 78.1534 112.57C77.6365 111.841 77.2404 111.034 76.9805 110.179C77.2099 110.557 77.4591 110.923 77.7269 111.275L78.4733 112.357C78.9746 113.086 79.4324 113.844 79.8442 114.627Z" fill="#263238"/>
<path d="M103.896 100.506C107.75 104.375 111.208 108.625 114.787 112.692C118.367 116.759 121.794 121.055 125.45 125.107L126.806 126.63C127.05 126.858 127.278 127.117 127.507 127.33C127.735 127.544 127.735 127.528 127.842 127.62C127.842 127.62 127.948 127.62 128.009 127.62C129.167 127.62 130.629 127.361 131.939 127.193L140.043 125.99C145.435 125.198 150.843 124.375 156.25 123.644L156.464 124.985L156.144 123.659H156.22C150.873 124.802 145.557 125.822 140.134 126.813C137.438 127.3 134.742 127.727 132.031 128.138C130.644 128.378 129.246 128.541 127.842 128.625C127.73 128.64 127.618 128.64 127.507 128.625C127.357 128.58 127.218 128.508 127.095 128.412C126.942 128.293 126.794 128.166 126.654 128.031L125.907 127.3C125.42 126.797 124.963 126.295 124.506 125.777C120.926 121.618 117.453 117.414 114.041 113.149L108.938 106.736C107.262 104.741 105.739 102.547 103.896 100.506Z" fill="#263238"/>
<path d="M105.892 100.963C106.466 101.668 106.976 102.422 107.415 103.218C107.845 104.003 108.148 104.851 108.314 105.731C108.131 105.32 107.903 104.954 107.69 104.558L107.065 103.385C106.631 102.599 106.239 101.791 105.892 100.963Z" fill="#263238"/>
</svg>
