<svg width="90" height="60" fill="none" xmlns="http://www.w3.org/2000/svg"><path d="M17.436 19.837h1.1l3.07 17.872h-1.103l-3.067-17.872ZM21.525 19.837h1.1l3.069 17.872h-1.102l-3.067-17.872ZM25.614 19.837h1.103l3.066 17.872H28.68l-3.066-17.872Z" fill="#FF9446"/><path opacity=".4" d="M17.436 19.837h1.1l3.07 17.872h-1.103l-3.067-17.872ZM21.525 19.837h1.1l3.069 17.872h-1.102l-3.067-17.872ZM25.614 19.837h1.103l3.066 17.872H28.68l-3.066-17.872Z" fill="#fff"/><path d="m26.849 38.174.093 3.95.42 17.874h1.382l.415-17.875.093-3.95h-2.403Z" fill="#FF9446"/><path opacity=".4" d="m26.849 38.174.093 3.95.42 17.874h1.382l.415-17.875.093-3.95h-2.403Z" fill="#fff"/><path opacity=".2" d="m26.849 38.174.093 4.06h2.216l.094-4.06h-2.403Z" fill="#000"/><path d="m19.34 59.934 1.279-21.482h2.089l-1.789 21.482h-1.578Z" fill="#FF9446"/><path opacity=".4" d="M20.921 59.934h-1.578l1.16-19.553.113-1.954h2.089l-.162 1.954-1.622 19.553Z" fill="#fff"/><path opacity=".2" d="m22.705 38.427-.162 2.029h-2.041l.114-2.03h2.089Z" fill="#000"/><path d="m35.184 59.934-1.788-21.482h2.088l1.276 21.482h-1.576Z" fill="#FF9446"/><path opacity=".4" d="m35.182 59.934-1.624-19.553-.16-1.954h2.087l.116 1.954 1.16 19.553h-1.579Z" fill="#fff"/><path opacity=".2" d="m33.398 38.427.16 2.029H35.6l-.116-2.03h-2.087Z" fill="#000"/><path d="M36.602 39.194H19.5v-1.835c0-.3.12-.587.333-.8.214-.212.504-.33.806-.33h14.825c.302 0 .591.118.805.33.214.213.334.5.334.8v1.835ZM19.338 21.9c1.775-1.065 4.237-1.065 6.588 0 1.19.518 2.597.665 3.219-.08 1.061-1.098-.8-4.349-4.372-5.378-2.558-.729-5.088-.729-7.25 0-3.012 1.029-3.105 4.28-1.447 5.379 1.03.744 2.356.597 3.262.08Z" fill="#FF9446"/><path opacity=".2" d="M36.602 39.194H19.5v-1.835c0-.3.12-.587.333-.8.214-.212.504-.33.806-.33h14.825c.302 0 .591.118.805.33.214.213.334.5.334.8v1.835ZM19.338 21.9c1.775-1.065 4.237-1.065 6.588 0 1.19.518 2.597.665 3.219-.08 1.061-1.098-.8-4.349-4.372-5.378-2.558-.729-5.088-.729-7.25 0-3.012 1.029-3.105 4.28-1.447 5.379 1.03.744 2.356.597 3.262.08Z" fill="#000"/><path d="M19.138 39.194h17.827a.456.456 0 0 0 .458-.455v-.574a.456.456 0 0 0-.458-.455H19.138a.456.456 0 0 0-.458.455v.574c0 .251.205.455.458.455Z" fill="#FF9446"/><path opacity=".6" d="M19.138 39.194h17.827a.456.456 0 0 0 .458-.455v-.574a.456.456 0 0 0-.458-.455H19.138a.456.456 0 0 0-.458.455v.574c0 .251.205.455.458.455Z" fill="#fff"/><path d="M18.19 17.331s-1.64 2.262-.631 3.846c1.009 1.583 2.658.658 4.328-1.154 1.67-1.812-3.697-2.692-3.697-2.692ZM38.887 12.044l1.161.227-1.161-2.663.628-1.48s3.645 2.844 3.937 5.378c.125 1.045-2.012 3.192-5.647 2.565l1.082-4.027Z" fill="#E4897B"/><path d="m39.578 11.954-.768 4.474s-.779.154-1.713.254c-.421.047-.877.084-1.303.088-.626 0-1.194-.043-1.522-.226L30 9.687s3.367.123 4.572.507c1.205.385 5.007 1.76 5.007 1.76ZM55.17 57.733h-2.435a.176.176 0 0 0-.171.139l-.394 1.78a.288.288 0 0 0 .228.346.303.303 0 0 0 .066 0c.786 0 1.367-.061 2.348-.061.608 0 2.447.063 3.287.063.84 0 .953-.823.609-.905-1.545-.334-2.709-.796-3.203-1.237a.483.483 0 0 0-.335-.124Z" fill="#FF9446"/><path d="M48.863 57.67h-2.435a.177.177 0 0 0-.171.138l-.385 1.771a.292.292 0 0 0 .227.349h.067c.785-.012 1.366-.062 2.348-.062.608 0 2.447.064 3.287.064.84 0 .95-.824.606-.905-1.542-.335-2.706-.796-3.19-1.237a.482.482 0 0 0-.354-.118Z" fill="#FF9446"/><path d="m56.626 57.892-4.745-.02-3.39-20.162s-9.007 1.375-16.255-.432a13.073 13.073 0 0 1-2.902-1.05c-6.26-3.304-6.456-10.593-6.456-10.593l14.299-.129 1.109 2.009s11.825 2.187 15.426 4.425c1.248.775 1.982 4.13 2.406 8.184.802 7.64.508 17.768.508 17.768Z" fill="#263238"/><path opacity=".2" d="m56.625 57.892-4.745-.02-3.39-20.162s-9.006 1.375-16.255-.432a25.263 25.263 0 0 1 3.529-7.938s14.299 1.066 20.353 10.793c.802 7.632.508 17.759.508 17.759Z" fill="#000"/><path d="M36.997 24.37h-14.12v1.265l14.3-.13-.18-1.135Z" fill="#000"/><path d="M27.416 26.046h.503V23.8h-.503v2.246ZM34.56 26.046h.502V23.8h-.503v2.246Z" fill="#263238"/><path d="M30.561 25.565h2.61v-1.416h-2.61v1.416Z" fill="#fff"/><path d="M36.987 24.364H22.864c-.064-.604-.114-1.686-.15-2.975-.014-.545-.028-1.13-.04-1.728-.018-.973-.03-1.993-.038-2.975-.03-2.906-.028-5.467-.028-5.467s1.805-1.629 6.137-1.617c1.782.041 3.53.5 5.1 1.336a51.512 51.512 0 0 1 1.812 5.457c1.33 4.906 1.33 7.969 1.33 7.969Z" fill="#FF9446"/><path d="M25.608 10.284c.556 1.498 3.522 1.498 3.522 1.498s2.33-.468 2.132-1.536c-.829-.638-1.004-.694-1.275-1.174a1.626 1.626 0 0 1-.169-.934 3.03 3.03 0 0 1 .082-.527l-4.292-1.862c.61 1.326 1.313 3.495 0 4.535Z" fill="#E4897B"/><path opacity=".2" d="M26.636 7.007c.241 1.651 2.332 2.018 3.35 2.065a1.626 1.626 0 0 1-.168-.934l-3.182-1.131Z" fill="#000"/><path d="M29.037.881s2.627.957 1.016 3.823c-.856 1.525-2.524-3.348-2.524-3.348l1.508-.475Z" fill="#263238"/><path d="M26.737 7.932a2.445 2.445 0 0 0 2.95.082 2.696 2.696 0 0 0 1.157-1.93c.189-1.76-.44-4.549-2.413-5.064a2.653 2.653 0 0 0-2.786.933 2.61 2.61 0 0 0-.455.921c-.11.397-.124.815-.039 1.217.36 1.873.48 2.998 1.586 3.841Z" fill="#E4897B"/><path d="M30.495 4.272c.327.123.601.356.774.659.173.302.233.655.171.997-.285 1.9-2.49 3.375-4.713 2.004-1.99-1.226 3.768-3.66 3.768-3.66Z" fill="#E4897B"/><path d="M29.333 4.164c.246.448.552.86.911 1.226a.914.914 0 0 1-.731.226l-.18-1.452Z" fill="#DE5753"/><path d="M30.365 2.928a.094.094 0 0 1-.094-.025.74.74 0 0 0-.622-.24.094.094 0 0 1-.095-.076.093.093 0 0 1 .063-.104.917.917 0 0 1 .786.293.091.091 0 0 1 .02.1.091.091 0 0 1-.02.03.115.115 0 0 1-.038.022ZM27.577 3.446a.087.087 0 0 1-.053.014.089.089 0 0 1-.07-.073.085.085 0 0 1 .002-.036.902.902 0 0 1 .542-.64.092.092 0 0 1 .116.057.092.092 0 0 1-.054.115.75.75 0 0 0-.413.511.095.095 0 0 1-.07.052ZM26.247 1.533l.228.328c-.59.314-.335 1.015-.15 1.32.394.652.191 1.81-.274 2.335 0 0-.07-.3-.314-.183-.244.118.11 1.68.747 2.346 0 0-.881-.548-1.608-2.127-.67-1.46-1.26-2.909-.515-4.02h1.886Z" fill="#263238"/><path d="M24.518 5.747c.268.402.686.683 1.162.78.633.125.897-.452.683-1.015-.196-.502-.76-1.19-1.367-1.052-.606.138-.8.79-.478 1.287Z" fill="#E4897B"/><path d="M29.516 6.163c-.683 0-.831-.504-.834-.509a.086.086 0 0 1 .167-.043c0 .018.113.382.667.382h.023a.087.087 0 0 1 .072.085.086.086 0 0 1-.072.085h-.023Z" fill="#263238"/><path d="M28.38 6.285a.094.094 0 0 1-.047-.022.083.083 0 0 1 0-.12c.57-.577.314-1.039.303-1.057a.083.083 0 0 1 .032-.115.085.085 0 0 1 .116.03c.014.022.335.587-.33 1.26a.084.084 0 0 1-.073.024Z" fill="#E4897B"/><path d="M28.38 6.285a.094.094 0 0 1-.047-.022.083.083 0 0 1 0-.12c.57-.577.314-1.039.303-1.057a.083.083 0 0 1 .032-.115.085.085 0 0 1 .116.03c.014.022.335.587-.33 1.26a.084.084 0 0 1-.073.024Z" fill="#000" opacity=".2"/><path d="M28.087 4.295s.048-.238.196-.28c.148-.044.275.178.275.178a.313.313 0 0 0-.471.102ZM29.794 4.005s.048-.238.196-.28c.148-.044.276.178.276.178a.313.313 0 0 0-.472.102ZM24.36 2.177s-.75-.719.912-1.662c1.663-.943 4.03-.453 4.631.366.602.82-.788 1.306-.852 1.2-.064-.107.098-.388.098-.388s-.911.611-1.169.403c-.257-.208.105-.432.105-.432s-2.2 1.056-3.724.513ZM22.878 25.635s-1.658 8.37 2.734 10.593c4.392 2.224 11.788 1.945 11.788 1.945l8.135 20.144 4.298-.453s-2.822-23.321-6.392-26.104c-.966-.748-11.574-2.986-11.574-2.986l-8.989-3.14Z" fill="#263238"/><path d="m39.79 8.767-.844-1.968s-1.961-1.265-2.107-1.305c-.146-.041-.565 2.68-.414 2.974.15.294 1.23.801 1.665.95.259.09.526.153.797.19l.902-.841Z" fill="#E4897B"/><path d="M35.51 5.589a.335.335 0 0 0-.397.24c-.028.138-.107.11-.148.167-.041.057 0 .195 0 .213 0 .018-.121.312.086.432s.684.328.882-.048c.198-.375-.112-.954-.424-1.004Z" fill="#FF9446"/><path opacity=".4" d="M35.51 5.589a.335.335 0 0 0-.397.24c-.028.138-.107.11-.148.167-.041.057 0 .195 0 .213 0 .018-.121.312.086.432s.684.328.882-.048c.198-.375-.112-.954-.424-1.004Z" fill="#fff"/><path d="M37.997 7.224a.806.806 0 0 1-.02.195c-.167.678-1.253 1.009-2.424.728a3.166 3.166 0 0 1-1.299-.62.946.946 0 0 1-.043-.183.502.502 0 0 0 .05-.054.376.376 0 0 0 .091-.314c-.045-.213.253-.29.253-.29a.033.033 0 0 1 0-.016.141.141 0 0 1 .018-.054c.09-.159.39-.16.422-.16l.207.128a.387.387 0 0 0 .31-.3.38.38 0 0 0 0-.152.554.554 0 0 0-.03-.104.201.201 0 0 0 .062-.186c0-.03-.005-.06-.014-.088a.45.45 0 0 0-.078-.165c.217.01.432.042.643.093 1.07.244 1.84.911 1.852 1.542Z" fill="#FF9446"/><path d="M37.997 7.224a.806.806 0 0 1-.02.195c-.167.678-1.253 1.009-2.424.728a3.166 3.166 0 0 1-1.299-.62.946.946 0 0 1-.043-.183.502.502 0 0 0 .05-.054.376.376 0 0 0 .091-.314c-.045-.213.253-.29.253-.29a.033.033 0 0 1 0-.016.141.141 0 0 1 .018-.054c.09-.159.39-.16.422-.16l.207.128a.387.387 0 0 0 .31-.3.38.38 0 0 0 0-.152.554.554 0 0 0-.03-.104.201.201 0 0 0 .062-.186c0-.03-.005-.06-.014-.088a.45.45 0 0 0-.078-.165c.217.01.432.042.643.093 1.07.244 1.84.911 1.852 1.542Z" fill="#fff" opacity=".6"/><path d="M37.996 7.224c-.194.4-.337.625-.53.385-.194-.24-.297.013-.568.3-.271.288-.604.07-.802-.13-.198-.202-.683.162-.952-.028-.269-.19-.246-.319-.658-.341a.289.289 0 0 1-.228-.12.375.375 0 0 0 .09-.314c-.045-.213.254-.29.254-.29a.03.03 0 0 1 0-.016.138.138 0 0 1 .018-.054c.089-.159.39-.16.421-.16l.208.128a.387.387 0 0 0 .31-.3.38.38 0 0 0 0-.152.546.546 0 0 0-.03-.104.2.2 0 0 0 .061-.186.45.45 0 0 0-.091-.253c.217.01.432.042.643.093 1.073.244 1.842.911 1.854 1.542Z" fill="#FF9446"/><g opacity=".2" fill="#000"><path d="m35.05 6.455.208.13a1.384 1.384 0 0 1-.207-.13ZM36.916 6.767c0 .028-.15.12-.492.111a2.6 2.6 0 0 1-.56-.079 2.703 2.703 0 0 1-.547-.185l-.06-.03a.387.387 0 0 0 .31-.3.378.378 0 0 0 0-.152c.154.001.307.021.456.059.66.147.898.509.893.576Z"/></g><path d="M36.425 6.878a2.751 2.751 0 0 1-.56-.077 2.837 2.837 0 0 1-.548-.187c.186-.062.386-.07.577-.025.198.052.38.151.53.29Z" fill="#000" opacity=".2"/><path d="M35.7 5.885a.028.028 0 0 1-.02 0 .037.037 0 0 1-.021 0l-.06-.055c0-.03-.004-.06-.013-.088l.112.1a.03.03 0 0 1 .01.02.028.028 0 0 1-.008.022ZM36.218 5.988a.027.027 0 0 1-.027-.023.028.028 0 0 1 .01-.03.027.027 0 0 1 .01-.004l.184-.046a.028.028 0 0 1 .035.02v.012a.027.027 0 0 1-.01.018.028.028 0 0 1-.01.005l-.185.045-.007.003ZM36.812 6.342a.03.03 0 0 1-.028-.018l-.054-.125a.025.025 0 0 1-.001-.022.025.025 0 0 1 .017-.014.028.028 0 0 1 .02 0 .027.027 0 0 1 .01.005.027.027 0 0 1 .006.009l.055.124a.03.03 0 0 1-.014.038l-.011.003ZM35.231 6.998a.027.027 0 0 1-.023 0l-.239-.31a.03.03 0 0 1 0-.04.027.027 0 0 1 .03-.006.027.027 0 0 1 .009.005l.228.31a.03.03 0 0 1 0 .04h-.005ZM34.795 6.72a.028.028 0 0 1-.025.021h-.011l-.15-.057a.143.143 0 0 1 .018-.055l.152.057a.03.03 0 0 1 .016.035ZM35.785 7.005h-.294a.03.03 0 0 1-.025-.04.029.029 0 0 1 .016-.015.027.027 0 0 1 .011-.002h.292a.03.03 0 0 1 .03.03.028.028 0 0 1-.01.02.028.028 0 0 1-.02.007ZM36.418 7.283a.037.037 0 0 1-.025-.011l-.11-.154a.029.029 0 0 1 0-.039.03.03 0 0 1 .042 0l.109.154a.029.029 0 0 1 0 .039.025.025 0 0 1-.016.011ZM36.73 7.231h-.011a.03.03 0 0 1-.014-.038l.073-.159a.03.03 0 0 1 .038-.013.028.028 0 0 1 .015.015.027.027 0 0 1 0 .02l-.074.162a.032.032 0 0 1-.027.013ZM37.199 7.002a.025.025 0 0 1-.023-.013l-.096-.145a.03.03 0 0 1 0-.04.027.027 0 0 1 .02-.009.028.028 0 0 1 .02.008l.097.145a.032.032 0 0 1 0 .04l-.018.014ZM37.568 6.72h-.012l-.27-.127a.03.03 0 0 1-.01-.036.03.03 0 0 1 .034-.016l.27.127a.027.027 0 0 1-.011.052ZM37.443 6.921a.034.034 0 0 1-.02-.036l.024-.097c0-.004.002-.008.004-.01a.025.025 0 0 1 .03-.01.03.03 0 0 1 .021.033l-.023.098a.032.032 0 0 1-.036.022ZM37.136 6.388a.032.032 0 0 1-.026-.013.03.03 0 0 1 .012-.04l.07-.04a.03.03 0 0 1 .04 0 .027.027 0 0 1 .006.03.027.027 0 0 1-.007.009l-.073.04-.022.014ZM36.878 6.069l-.228-.068a.027.027 0 0 1-.018-.037.028.028 0 0 1 .013-.016.028.028 0 0 1 .021-.002l.228.068a.032.032 0 0 1 .02.036.03.03 0 0 1-.036.019ZM36.038 5.854h-.012l-.146-.066a.027.027 0 0 1-.017-.016.027.027 0 0 1 .001-.023.03.03 0 0 1 .04-.013l.145.066a.03.03 0 0 1 .014.039.027.027 0 0 1-.025.013ZM35.812 5.958a.034.034 0 0 1-.027-.016.03.03 0 0 1 .014-.038l.093-.046a.025.025 0 0 1 .03.004.025.025 0 0 1 .006.01.027.027 0 0 1 0 .036l-.093.046-.023.004ZM34.853 6.972l-.25-.014a.032.032 0 0 1-.028-.032c0-.004.002-.007.003-.01a.028.028 0 0 1 .027-.015l.253.014a.028.028 0 0 1 .02.008.027.027 0 0 1 .007.021.03.03 0 0 1-.01.02.03.03 0 0 1-.022.008ZM35.299 7.27h-.014l-.169-.102a.028.028 0 0 1-.008-.02.027.027 0 0 1 .008-.019.028.028 0 0 1 .02-.008.028.028 0 0 1 .02.008l.168.102a.027.027 0 0 1 0 .038.025.025 0 0 1-.025 0ZM35.891 7.333a.032.032 0 0 1-.03-.022l-.018-.098v-.01l.005-.01a.027.027 0 0 1 .018-.011.03.03 0 0 1 .034.022l.018.095a.03.03 0 0 1-.004.022.03.03 0 0 1-.018.012h-.005ZM36.17 7.415a.023.023 0 0 1-.021 0 .027.027 0 0 1-.006-.03.027.027 0 0 1 .006-.009l.09-.086a.027.027 0 0 1 .03-.006.026.026 0 0 1 .01.006.03.03 0 0 1 0 .04l-.092.087a.025.025 0 0 1-.018-.002ZM36.76 7.494l-.206-.048a.034.034 0 0 1-.02-.036.032.032 0 0 1 .034-.02l.205.05a.03.03 0 0 1 .022.034.032.032 0 0 1-.036.02ZM36.987 7.29a.03.03 0 0 1-.027-.02.027.027 0 0 1 .01-.03.027.027 0 0 1 .01-.004l.162-.05a.03.03 0 0 1 .037.018.03.03 0 0 1-.003.023.03.03 0 0 1-.018.014l-.162.05h-.009ZM37.443 7.173a.03.03 0 0 1-.027-.016.027.027 0 0 1 .005-.03.028.028 0 0 1 .008-.006l.167-.082a.03.03 0 0 1 .038.013.032.032 0 0 1-.013.04l-.167.079-.011.002Z" fill="#fff"/><path d="M25.35 9.995s-2.698.143-4.456 2.41c-1.759 2.266-3.228 5.53-3.228 5.53l4.219 2.452 3.341-3.079s-.826-6.422.123-7.313Z" fill="#FF9446"/><path opacity=".6" d="M36.988 24.364H22.865c-.062-.588-.112-1.627-.148-2.87v-.105a287 287 0 0 1-.04-1.728c.229-.857.456-1.68.7-2.452a57.445 57.445 0 0 1 2.221-6.037c3.765 2.373 6.055-.206 6.055-.206 2.314 1.671 3.599 4.433 4.007 5.429 1.328 4.906 1.328 7.969 1.328 7.969Z" fill="#fff"/><path d="M28.103 13.235c0 .7-.98 1.27-2.185 1.27-1.102 0-2.016-.477-2.164-1.094a.645.645 0 0 1-.023-.176c0-.704.98-1.274 2.187-1.274 1.091 0 2 .468 2.16 1.079a.804.804 0 0 1 .025.195Z" fill="#263238"/><path d="M28.076 13.04c-.094.434-.18.679-.426.498-.246-.181-.285.081-.48.425-.197.344-.57.208-.812.059-.241-.15-.615.314-.931.194-.317-.12-.315-.253-.72-.178-.406.074-.48-.643-.797-.564a.126.126 0 0 1-.158-.063.65.65 0 0 1-.022-.176c0-.704.979-1.274 2.186-1.274 1.091 0 2 .468 2.16 1.079Z" fill="#263238"/><path opacity=".2" d="M28.076 13.04c-.094.434-.18.679-.426.498-.246-.181-.285.081-.48.425-.197.344-.57.208-.812.059-.241-.15-.615.314-.931.194-.317-.12-.315-.253-.72-.178-.406.074-.48-.643-.797-.564a.126.126 0 0 1-.158-.063.65.65 0 0 1-.022-.176c0-.704.979-1.274 2.186-1.274 1.091 0 2 .468 2.16 1.079Z" fill="#fff"/><path opacity=".2" d="M26.918 12.847c0 .027-.119.152-.456.226a2.638 2.638 0 0 1-.562.055 2.78 2.78 0 0 1-.577-.055c-.348-.072-.48-.199-.48-.226 0-.068.387-.364 1.068-.364s.996.296 1.007.364Z" fill="#000"/><path opacity=".2" d="M26.465 13.069a2.637 2.637 0 0 1-.563.054 2.78 2.78 0 0 1-.576-.054c.166-.104.358-.159.554-.158.205.004.406.059.585.158Z" fill="#000"/><path d="M24.459 12.938a.025.025 0 0 1-.023-.011l-.15-.193a.032.032 0 0 1 0-.04.03.03 0 0 1 .04 0l.151.192a.031.031 0 0 1 0 .04l-.018.012ZM24.646 12.514h-.164a.03.03 0 0 1-.028-.041.028.028 0 0 1 .007-.01.028.028 0 0 1 .02-.006h.165a.028.028 0 0 1 .027.016.03.03 0 0 1-.006.032.03.03 0 0 1-.021.009ZM24.927 12.43h-.013a.03.03 0 0 1-.014-.039l.048-.11a.027.027 0 0 1 .015-.017.027.027 0 0 1 .021 0 .027.027 0 0 1 .01.006.027.027 0 0 1 .006.032l-.047.112a.033.033 0 0 1-.011.01.033.033 0 0 1-.015.006ZM25.501 12.288h-.014l-.13-.07a.028.028 0 0 1-.007-.02.027.027 0 0 1 .008-.02.028.028 0 0 1 .037-.011l.131.07a.028.028 0 0 1 .012.04.025.025 0 0 1-.026.015.024.024 0 0 1-.01-.004ZM26.053 12.25a.028.028 0 0 1-.015-.004.028.028 0 0 1-.01-.011.025.025 0 0 1 .004-.03.025.025 0 0 1 .01-.006l.168-.089a.028.028 0 0 1 .021-.001.028.028 0 0 1 .017.014.028.028 0 0 1-.012.037l-.17.088-.013.003ZM26.707 12.459a.036.036 0 0 1-.023-.012l-.082-.108a.03.03 0 0 1 0-.04.027.027 0 0 1 .02-.009c.003 0 .006 0 .01.002a.027.027 0 0 1 .009.006l.082.109a.026.026 0 0 1 .008.019.026.026 0 0 1-.008.02.026.026 0 0 1-.007.008.026.026 0 0 1-.01.005ZM25.327 13.465a.025.025 0 0 1-.019 0l-.305-.246a.028.028 0 0 1-.009-.03.028.028 0 0 1 .025-.02l.011.001a.03.03 0 0 1 .01.005l.305.247a.026.026 0 0 1 .008.02.026.026 0 0 1-.008.019.032.032 0 0 1-.018.004ZM24.816 13.31l-.228-.025a.03.03 0 0 1 0-.057l.228.027c.004 0 .007.002.01.003a.028.028 0 0 1 .014.018v.011a.03.03 0 0 1-.024.023ZM24.413 13.15a.023.023 0 0 1-.016 0l-.157-.106a.026.026 0 0 1-.009-.02l.002-.01a.026.026 0 0 1 .006-.008.03.03 0 0 1 .04 0l.156.106a.032.032 0 0 1 0 .04.037.037 0 0 1-.022-.002ZM25.581 13.41a.027.027 0 0 1-.027-.023.028.028 0 0 1 .003-.022.027.027 0 0 1 .018-.013l.284-.066a.026.026 0 0 1 .011-.001c.004 0 .008.001.011.003a.025.025 0 0 1 .012.019.028.028 0 0 1-.003.021.028.028 0 0 1-.017.013l-.285.069h-.007ZM26.548 13.465a.038.038 0 0 1-.02 0l-.142-.124a.026.026 0 0 1-.008-.02.027.027 0 0 1 .008-.019.032.032 0 0 1 .041 0l.143.125a.028.028 0 0 1 .006.03.026.026 0 0 1-.006.008.032.032 0 0 1-.022 0ZM26.84 13.34a.027.027 0 0 1-.023-.023c-.002-.003-.002-.007 0-.01l.034-.17a.028.028 0 0 1 .01-.018.027.027 0 0 1 .021-.005.027.027 0 0 1 .018.011.026.026 0 0 1 .005.02l-.034.173a.027.027 0 0 1-.021.022h-.01ZM27.24 13.01a.02.02 0 0 1-.018 0l-.127-.117a.03.03 0 0 1 .001-.038.03.03 0 0 1 .018-.009.03.03 0 0 1 .02.004l.127.12a.032.032 0 0 1 0 .04.042.042 0 0 1-.02 0ZM27.533 12.652l-.293-.06a.03.03 0 0 1-.03-.035l.006-.012a.029.029 0 0 1 .01-.008.029.029 0 0 1 .025-.002l.291.062c.004 0 .008.002.01.004a.028.028 0 0 1 .009.007.027.027 0 0 1 .005.02.027.027 0 0 1-.012.019.028.028 0 0 1-.02.005ZM27.454 12.875a.027.027 0 0 1-.027-.027v-.102c0-.007.003-.014.008-.02a.027.027 0 0 1 .02-.007.028.028 0 0 1 .02.007.028.028 0 0 1 .009.02v.102a.027.027 0 0 1-.03.027ZM27.035 12.43a.03.03 0 0 1-.02-.05l.06-.057a.029.029 0 0 1 .02-.008.028.028 0 0 1 .028.03.028.028 0 0 1-.009.02l-.061.056a.027.027 0 0 1-.018.01ZM26.707 12.178l-.227-.015a.027.027 0 1 1 0-.055l.227.014a.03.03 0 0 1 .038.028.03.03 0 0 1-.012.024.03.03 0 0 1-.026.005ZM25.842 12.162l-.158-.03a.03.03 0 0 1-.023-.034l.005-.01a.027.027 0 0 1 .03-.01l.157.03a.028.028 0 0 1 .018.01.027.027 0 0 1 .005.02.03.03 0 0 1-.034.024ZM25.645 12.316a.03.03 0 0 1-.022 0 .032.032 0 0 1 0-.041l.08-.066a.029.029 0 0 1 .02-.006c.008 0 .015.004.02.01a.028.028 0 0 1-.003.04l-.08.066c-.006 0-.01 0-.015-.003ZM24.953 12.563c-.005 0-.01-.001-.015-.004a.024.024 0 0 1-.01-.012.028.028 0 0 1-.003-.022.027.027 0 0 1 .014-.017l.242-.133a.03.03 0 0 1 .032.014.03.03 0 0 1 .004.019.03.03 0 0 1-.009.017l-.241.133-.014.005ZM24.087 12.856a.03.03 0 0 1-.018-.036l.047-.163a.03.03 0 0 1 .037-.02.03.03 0 0 1 .018.036l-.048.163a.029.029 0 0 1-.014.018.03.03 0 0 1-.022.002ZM24.704 13.57a.028.028 0 0 1-.027-.023.028.028 0 0 1 0-.012.028.028 0 0 1 .012-.018.026.026 0 0 1 .01-.004l.249-.046a.028.028 0 0 1 .02.005.027.027 0 0 1 .011.018.03.03 0 0 1-.023.034l-.247.046h-.005ZM25.456 13.713l-.189-.06a.032.032 0 0 1-.018-.036.028.028 0 0 1 .014-.017.027.027 0 0 1 .022-.001l.187.059a.027.027 0 0 1 .017.014.026.026 0 0 1 .003.011c0 .004 0 .008-.002.011a.027.027 0 0 1-.013.016.028.028 0 0 1-.02.002ZM26.053 13.637a.03.03 0 0 1-.025-.018l-.041-.088a.03.03 0 0 1 .014-.038.03.03 0 0 1 .038.013l.041.09a.025.025 0 0 1-.015.037l-.012.004ZM26.336 13.65a.023.023 0 0 1-.016 0 .03.03 0 0 1 0-.038l.066-.104a.03.03 0 0 1 .041 0 .03.03 0 0 1 0 .039l-.066.104a.031.031 0 0 1-.013.002c-.004 0-.008 0-.012-.002ZM26.919 13.592h-.212a.03.03 0 0 1-.02-.01.03.03 0 0 1-.007-.02.027.027 0 0 1 .008-.019.026.026 0 0 1 .019-.008h.212c.007 0 .014.003.02.008a.027.027 0 0 1 .007.02l-.001.01a.027.027 0 0 1-.026.018ZM27.094 13.342a.032.032 0 0 1-.025-.014.03.03 0 0 1 0-.039l.146-.086a.03.03 0 0 1 .039.011.028.028 0 0 1 .007.02.027.027 0 0 1-.008.019l-.145.086-.014.003ZM27.518 13.126a.024.024 0 0 1-.01.002c-.004 0-.007 0-.01-.002a.03.03 0 0 1 0-.04l.143-.119a.03.03 0 0 1 .02-.003.03.03 0 0 1 .017.01.03.03 0 0 1 0 .038l-.144.116a.025.025 0 0 1-.016-.002ZM24.686 13.068a.028.028 0 0 1-.005-.055l.135-.023a.028.028 0 0 1 .011 0 .028.028 0 0 1 .02.012.028.028 0 0 1 .003.011v.01a.025.025 0 0 1-.005.01.027.027 0 0 1-.008.008.029.029 0 0 1-.01.004l-.137.023h-.004ZM24.336 13.465a.029.029 0 0 1-.017-.005.029.029 0 0 1-.01-.013l-.08-.21c-.001-.007 0-.014.004-.02a.03.03 0 0 1 .035-.012.03.03 0 0 1 .015.014l.078.208a.027.027 0 0 1 0 .021.026.026 0 0 1-.007.01.028.028 0 0 1-.01.005l-.008.002Z" fill="#fff"/><path d="m18.308 18.31 3.936-2.657s.228-1.898.38-2.11c.302-.295.626-.567.969-.813 0 0 1.433.425 1.768.624.334.2-.03.76-.155 1.695a1.954 1.954 0 0 1-.617 1.11 1.977 1.977 0 0 1-1.174.502s-2.373 4.26-3.624 5.079c-1.25.819-3.861-1.109-1.483-3.43Z" fill="#E4897B"/><path opacity=".2" d="M37.085 16.673c-.422.048-.877.084-1.303.088a10.25 10.25 0 0 0-1.367-2.778s2.41 1.195 2.67 2.69ZM22.73 21.5v-.104c-.014-.546-.027-1.131-.039-1.729.228-.857.456-1.68.7-2.452.018.093.613 2.87-.66 4.285Z" fill="#000"/><path d="M33.188 16.596c.39 1.246-.173 2.528-1.258 2.86-1.084.334-2.278-.406-2.665-1.653-.387-1.246.173-2.529 1.258-2.861 1.084-.333 2.275.407 2.665 1.654Z" fill="#FF9446"/><path opacity=".2" d="M32.53 16.8c.228.755-.105 1.528-.76 1.73-.657.201-1.38-.247-1.614-1-.234-.753.105-1.532.761-1.733.656-.201 1.378.247 1.613 1.002Z" fill="#000"/><path d="M28.41 15.026a2.228 2.228 0 0 0-.116.477 2.74 2.74 0 0 0-.032.335c-.018.49.303 2.194.303 2.194l.29-.013a16.8 16.8 0 0 1 .294 1.882.11.11 0 0 0 .116.101.108.108 0 0 0 .076-.034.106.106 0 0 0 .028-.079c-.075-.622-.444-3.483-.959-4.863ZM33.589 15.924a.224.224 0 0 0 .17-.294c-.082-.25-.512-.996-.55-.969-.04.027.307.783.389 1.023a.065.065 0 0 1 0 .05.055.055 0 0 1-.046.025h-.016c-.198-.562-.556-1.114-.594-1.084-.04.03.227.554.414 1.09a.192.192 0 0 1-.191-.133c-.148-.453-.467-.92-.508-.905-.041.016.203.516.344.95a.362.362 0 0 0 .367.253h.047c.411 1.177.664 2.402.752 3.645a.086.086 0 0 0 .121.07.083.083 0 0 0 .048-.082 14.646 14.646 0 0 0-.747-3.64ZM59.946 59.998h1.565l.257-37.76H59.69l.256 37.76Z" fill="#FF9446"/><path opacity=".4" d="m59.688 22.3.041 6.276.217 31.422h1.565l.216-31.422.039-6.275h-2.078Z" fill="#fff"/><path opacity=".2" d="m59.688 22.3.041 6.346h1.998l.039-6.345h-2.078Z" fill="#000"/><path d="M43.322 59.998h1.565l2.813-37.76h-2.077l-2.3 37.76Z" fill="#FF9446"/><path opacity=".5" d="M43.322 59.998h1.565l2.677-35.829.139-1.868h-2.08l-.112 1.868-2.189 35.829Z" fill="#fff"/><path opacity=".2" d="M45.512 24.076h2.052l.14-1.775h-2.08l-.112 1.776Z" fill="#000"/><path d="M76.567 59.998h1.567l-2.303-37.76h-2.077l2.813 37.76Z" fill="#FF9446"/><path opacity=".5" d="m73.756 22.3.136 1.87 2.677 35.828h1.565l-2.189-35.829-.112-1.868h-2.077Z" fill="#fff"/><path opacity=".2" d="M75.833 22.3h-2.077l.136 1.776h2.053l-.112-1.775Z" fill="#000"/><path d="M76.986 23.212H44.471a.494.494 0 0 1-.492-.488v-1.46H77.48v1.46a.485.485 0 0 1-.306.452.495.495 0 0 1-.189.036Z" fill="#FF9446"/><path opacity=".6" d="M76.986 23.212H44.471a.494.494 0 0 1-.492-.488v-1.46H77.48v1.46a.485.485 0 0 1-.306.452.495.495 0 0 1-.189.036Z" fill="#fff"/><path opacity=".2" d="M43.979 22.237H77.48v-.975H43.979v.975Z" fill="#000"/><path d="M43.006 21.518h35.44a.555.555 0 0 0 .554-.55.548.548 0 0 0-.553-.55h-35.44a.557.557 0 0 0-.51.342.547.547 0 0 0 .12.597c.104.102.243.16.39.16Z" fill="#FF9446"/><path opacity=".6" d="M43.006 21.518h35.44a.555.555 0 0 0 .554-.55.548.548 0 0 0-.553-.55h-35.44a.557.557 0 0 0-.51.342.547.547 0 0 0 .12.597c.104.102.243.16.39.16Z" fill="#fff"/><path d="m76.751 20.419-5.36 10.66-8.442-10.66H58.45l-7.244 10.66-5.92-10.66h31.465ZM58.927 18.186H57.06a.658.658 0 0 0-.66.656v.002c0 .363.295.656.66.656h1.866c.364 0 .66-.293.66-.656v-.002a.658.658 0 0 0-.66-.656ZM62.7 18.186h-1.867a.658.658 0 0 0-.66.656v.002c0 .363.296.656.66.656H62.7c.365 0 .66-.293.66-.656v-.002a.658.658 0 0 0-.66-.656Z" fill="#FF9446"/><path d="M74.424 18.582H55.205v1.84h19.22v-1.84Z" fill="#263238"/><path opacity=".1" d="M74.424 18.582H55.205v1.84h19.22v-1.84Z" fill="#fff"/><path opacity=".2" d="M63.97 18.582h-8.765v1.84h8.766v-1.84Z" fill="#fff"/><path d="M51.721 19.358a.588.588 0 0 1-.175.427.615.615 0 0 1-.43.177H48.7a.609.609 0 0 1-.608-.604.597.597 0 0 1 .375-.559.608.608 0 0 1 .233-.045h2.41a.613.613 0 0 1 .61.604Z" fill="#FF9446"/><path d="M51.721 19.357a.257.257 0 0 1 0 .043.302.302 0 0 0-.368.08c-.137.158-.215 0-.417-.123-.203-.122-.385-.022-.565.188-.18.21-.292.014-.456-.188-.164-.2-.496 0-.665.188-.169.188-.28-.066-.417-.188-.137-.122-.294 0-.52.188a.15.15 0 0 1-.175.023.597.597 0 0 1 .336-.769.609.609 0 0 1 .234-.046h2.403a.613.613 0 0 1 .61.604Z" fill="#263238"/><path d="M52.018 20.419h-3.67l-1.139-.56h5.948l-1.14.56Z" fill="#FF9446"/><path opacity=".6" d="M52.018 20.419h-3.67l-1.139-.56h5.948l-1.14.56Z" fill="#fff"/><path d="M53.933 20.03h-7.321a.171.171 0 0 1-.169-.17.167.167 0 0 1 .169-.167h7.321a.169.169 0 0 1 .169.167.169.169 0 0 1-.169.17Z" fill="#FF9446"/><path opacity=".7" d="M53.933 20.03h-7.321a.171.171 0 0 1-.169-.17.167.167 0 0 1 .169-.167h7.321a.169.169 0 0 1 .169.167.169.169 0 0 1-.169.17Z" fill="#fff"/></svg>