<svg width="90" height="60" viewBox="0 0 90 60" fill="none" xmlns="http://www.w3.org/2000/svg">
<path d="M17.4365 19.8369H18.5368L21.6052 37.7094H20.5026L17.4365 19.8369Z" fill="#FF9446"/>
<path d="M21.5254 19.8369H22.6256L25.694 37.7094H24.5915L21.5254 19.8369Z" fill="#FF9446"/>
<path d="M25.6143 19.8369H26.7168L29.7829 37.7094H28.6804L25.6143 19.8369Z" fill="#FF9446"/>
<path opacity="0.4" d="M17.4365 19.8369H18.5368L21.6052 37.7094H20.5026L17.4365 19.8369Z" fill="white"/>
<path opacity="0.4" d="M21.5254 19.8369H22.6256L25.694 37.7094H24.5915L21.5254 19.8369Z" fill="white"/>
<path opacity="0.4" d="M25.6143 19.8369H26.7168L29.7829 37.7094H28.6804L25.6143 19.8369Z" fill="white"/>
<path d="M26.8486 38.1738L26.942 42.1234L27.3612 59.9981H28.7439L29.1585 42.1234L29.2519 38.1738H26.8486Z" fill="#FF9446"/>
<path opacity="0.4" d="M26.8486 38.1738L26.942 42.1234L27.3612 59.9981H28.7439L29.1585 42.1234L29.2519 38.1738H26.8486Z" fill="white"/>
<path opacity="0.2" d="M26.8486 38.1738L26.942 42.2342H29.1585L29.2519 38.1738H26.8486Z" fill="black"/>
<path d="M19.3408 59.9343L20.6187 38.4517H22.7076L20.9194 59.9343H19.3408Z" fill="#FF9446"/>
<path opacity="0.4" d="M20.9214 59.9343H19.3428L20.5023 40.3812L20.6161 38.4268H22.705L22.5433 40.3812L20.9214 59.9343Z" fill="white"/>
<path opacity="0.2" d="M22.7047 38.4268L22.543 40.4558H20.502L20.6159 38.4268H22.7047Z" fill="black"/>
<path d="M35.1837 59.9343L33.3955 38.4517H35.4844L36.76 59.9343H35.1837Z" fill="#FF9446"/>
<path opacity="0.4" d="M35.1821 59.9343L33.5579 40.3812L33.3984 38.4268H35.485L35.6012 40.3812L36.7607 59.9343H35.1821Z" fill="white"/>
<path opacity="0.2" d="M33.3984 38.4268L33.5579 40.4558H35.6012L35.485 38.4268H33.3984Z" fill="black"/>
<path d="M36.6025 39.1938H19.4997V37.3593C19.4997 37.0594 19.6197 36.7717 19.8333 36.5596C20.0469 36.3475 20.3366 36.2283 20.6387 36.2283H35.4636C35.7656 36.2283 36.0553 36.3475 36.2689 36.5596C36.4825 36.7717 36.6025 37.0594 36.6025 37.3593V39.1938Z" fill="#FF9446"/>
<path d="M19.3382 21.9001C21.1127 20.8347 23.5752 20.8347 25.926 21.9001C27.1151 22.4181 28.5229 22.5652 29.1448 21.8209C30.2063 20.7216 28.3452 17.471 24.7734 16.4418C22.2153 15.7134 19.6845 15.7134 17.5227 16.4418C14.5113 17.471 14.4179 20.7216 16.0762 21.8209C17.1058 22.5652 18.4316 22.4181 19.3382 21.9001Z" fill="#FF9446"/>
<path opacity="0.2" d="M36.6025 39.1938H19.4997V37.3593C19.4997 37.0594 19.6197 36.7717 19.8333 36.5596C20.0469 36.3475 20.3366 36.2283 20.6387 36.2283H35.4636C35.7656 36.2283 36.0553 36.3475 36.2689 36.5596C36.4825 36.7717 36.6025 37.0594 36.6025 37.3593V39.1938Z" fill="black"/>
<path opacity="0.2" d="M19.3382 21.9001C21.1127 20.8347 23.5752 20.8347 25.926 21.9001C27.1151 22.4181 28.5229 22.5652 29.1448 21.8209C30.2063 20.7216 28.3452 17.471 24.7734 16.4418C22.2153 15.7134 19.6845 15.7134 17.5227 16.4418C14.5113 17.471 14.4179 20.7216 16.0762 21.8209C17.1058 22.5652 18.4316 22.4181 19.3382 21.9001Z" fill="black"/>
<path d="M19.1378 39.1938H36.965C37.2179 39.1938 37.4229 38.9903 37.4229 38.7392V38.1646C37.4229 37.9135 37.2179 37.7099 36.965 37.7099H19.1378C18.8849 37.7099 18.6799 37.9135 18.6799 38.1646V38.7392C18.6799 38.9903 18.8849 39.1938 19.1378 39.1938Z" fill="#FF9446"/>
<path opacity="0.6" d="M19.1378 39.1938H36.965C37.2179 39.1938 37.4229 38.9903 37.4229 38.7392V38.1646C37.4229 37.9135 37.2179 37.7099 36.965 37.7099H19.1378C18.8849 37.7099 18.6799 37.9135 18.6799 38.1646V38.7392C18.6799 38.9903 18.8849 39.1938 19.1378 39.1938Z" fill="white"/>
<path d="M18.1896 17.3311C18.1896 17.3311 16.5495 19.5931 17.5587 21.1765C18.5678 22.76 20.217 21.8348 21.8868 20.0229C23.5565 18.211 18.1896 17.3311 18.1896 17.3311Z" fill="#E4897B"/>
<path d="M38.8867 12.0445L40.0485 12.2707L38.8867 9.60829L39.5154 8.12891C39.5154 8.12891 43.1601 10.9723 43.4517 13.5058C43.577 14.5509 41.4403 16.6975 37.8047 16.071L38.8867 12.0445Z" fill="#E4897B"/>
<path d="M39.5778 11.9541L38.8101 16.4284C38.8101 16.4284 38.0311 16.5822 37.0971 16.6818C36.6757 16.7293 36.2201 16.7655 35.7941 16.77C35.1677 16.77 34.6005 16.727 34.2724 16.5438L29.999 9.6875C29.999 9.6875 33.3658 9.80965 34.5709 10.1942C35.7759 10.5787 39.5778 11.9541 39.5778 11.9541Z" fill="#FF9446"/>
<path d="M55.1699 57.7335H52.7348C52.6947 57.7337 52.6559 57.7475 52.6249 57.7726C52.5938 57.7977 52.5723 57.8326 52.564 57.8715L52.1699 59.6517C52.1616 59.6893 52.1609 59.7282 52.1679 59.7661C52.1749 59.804 52.1894 59.8401 52.2106 59.8723C52.2318 59.9045 52.2593 59.9322 52.2914 59.9538C52.3235 59.9753 52.3596 59.9903 52.3977 59.9978C52.4196 60.0002 52.4418 60.0002 52.4637 59.9978C53.2496 59.9978 53.8305 59.9368 54.8123 59.9368C55.4205 59.9368 57.2588 60.0001 58.0994 60.0001C58.9399 60.0001 59.0516 59.1767 58.7076 59.0953C57.1631 58.7605 55.9991 58.299 55.5048 57.8579C55.4134 57.7753 55.2935 57.7307 55.1699 57.7335Z" fill="#FF9446"/>
<path d="M48.8626 57.6699H46.4275C46.3874 57.6701 46.3486 57.6839 46.3175 57.709C46.2864 57.7341 46.2649 57.769 46.2566 57.8079L45.8716 59.5791C45.8554 59.6553 45.8703 59.7347 45.913 59.8C45.9557 59.8653 46.0228 59.9112 46.0994 59.9275H46.1655C46.9514 59.9161 47.5323 59.8664 48.5141 59.8664C49.1223 59.8664 50.9606 59.9297 51.8011 59.9297C52.6417 59.9297 52.751 59.1063 52.4071 59.0249C50.8649 58.6901 49.7009 58.2287 49.2179 57.7876C49.1696 57.7453 49.1133 57.7132 49.0523 57.6929C48.9912 57.6727 48.9267 57.6649 48.8626 57.6699Z" fill="#FF9446"/>
<path d="M56.6257 57.8921L51.8807 57.8717L48.4911 37.7101C48.4911 37.7101 39.4842 39.0854 32.2357 37.2781C31.2298 37.0439 30.2556 36.6915 29.3336 36.2285C23.0738 32.9236 22.8779 25.6353 22.8779 25.6353L37.1766 25.5063L38.286 27.515C38.286 27.515 50.1108 29.7024 53.7122 31.9396C54.9605 32.7155 55.694 36.0701 56.1177 40.1237C56.9196 47.7649 56.6257 57.8921 56.6257 57.8921Z" fill="#263238"/>
<path opacity="0.2" d="M56.6253 57.8919L51.8804 57.8716L48.4908 37.7099C48.4908 37.7099 39.4838 39.0852 32.2354 37.2779C32.9435 34.4503 34.1371 31.7652 35.7639 29.3403C35.7639 29.3403 50.0626 30.4058 56.1173 40.1326C56.9192 47.7647 56.6253 57.8919 56.6253 57.8919Z" fill="black"/>
<path d="M36.9966 24.3701H22.8779V25.6346L37.1766 25.5057L36.9966 24.3701Z" fill="black"/>
<path d="M27.4155 26.0464H27.9189V23.8002H27.4155V26.0464Z" fill="#263238"/>
<path d="M34.5591 26.0464H35.0625V23.8002H34.5591V26.0464Z" fill="#263238"/>
<path d="M30.5613 25.5649H33.1719V24.1489H30.5613V25.5649Z" fill="white"/>
<path d="M36.9868 24.3638H22.8636C22.7998 23.7598 22.7497 22.6785 22.7132 21.3892C22.6996 20.844 22.6859 20.2581 22.6745 19.661C22.6563 18.6883 22.6449 17.6681 22.6358 16.6864C22.6062 13.7796 22.6084 11.219 22.6084 11.219C22.6084 11.219 24.4126 9.59031 28.7452 9.60162C30.5275 9.64326 32.2748 10.1012 33.8455 10.9385C34.5504 12.7225 35.155 14.544 35.6565 16.3946C36.9868 21.3009 36.9868 24.3638 36.9868 24.3638Z" fill="#FF9446"/>
<path d="M25.6084 10.2844C26.1642 11.7819 29.1301 11.7819 29.1301 11.7819C29.1301 11.7819 31.4604 11.3137 31.2623 10.246C30.4331 9.60808 30.2577 9.55153 29.9866 9.07197C29.8387 8.78395 29.78 8.45886 29.818 8.13775C29.8298 7.96001 29.8572 7.78365 29.9 7.61069L25.6084 5.74902C26.2189 7.07458 26.9205 9.24389 25.6084 10.2844Z" fill="#E4897B"/>
<path opacity="0.2" d="M26.6357 7.00684C26.8772 8.65813 28.9684 9.02458 29.9866 9.07208C29.8387 8.78407 29.78 8.45897 29.818 8.13786L26.6357 7.00684Z" fill="black"/>
<path d="M29.0373 0.881348C29.0373 0.881348 31.6638 1.83819 30.0533 4.70421C29.1968 6.22883 27.5293 1.35638 27.5293 1.35638L29.0373 0.881348Z" fill="#263238"/>
<path d="M26.7366 7.93237C27.1515 8.26472 27.6648 8.45267 28.1977 8.46738C28.7306 8.48209 29.2536 8.32275 29.6865 8.0138C30.2534 7.62457 30.6499 7.03586 30.7959 6.36703C30.8164 6.27429 30.8323 6.17928 30.8437 6.08428C31.0328 4.3244 30.4041 1.53529 28.4314 1.01955C28.0959 0.928643 27.7456 0.904572 27.4007 0.948724C27.0557 0.992876 26.723 1.10438 26.4217 1.2768C26.1204 1.44923 25.8564 1.67916 25.645 1.95336C25.4336 2.22756 25.2789 2.54059 25.1899 2.87443C25.0791 3.27118 25.0659 3.68851 25.1511 4.09141C25.511 5.96439 25.6318 7.08862 26.7366 7.93237Z" fill="#E4897B"/>
<path d="M30.4948 4.27246C30.8224 4.39537 31.0962 4.62825 31.2689 4.9307C31.4416 5.23316 31.5022 5.5861 31.4402 5.92828C31.1554 7.8284 28.9504 9.30326 26.7271 7.93246C24.7362 6.70643 30.4948 4.27246 30.4948 4.27246Z" fill="#E4897B"/>
<path d="M29.333 4.16357C29.5786 4.61187 29.8852 5.02443 30.2442 5.3896C30.1461 5.47775 30.0299 5.54364 29.9037 5.5827C29.7774 5.62176 29.6441 5.63306 29.513 5.61581L29.333 4.16357Z" fill="#DE5753"/>
<path d="M30.3647 2.92805C30.3483 2.93276 30.3309 2.93293 30.3145 2.92855C30.298 2.92416 30.2831 2.91539 30.2713 2.90317C30.1938 2.81752 30.0972 2.75119 29.9892 2.70953C29.8811 2.66787 29.7647 2.65207 29.6494 2.66339C29.6269 2.66417 29.6048 2.65684 29.5873 2.64274C29.5698 2.62864 29.558 2.60874 29.5541 2.58669C29.5502 2.56465 29.5545 2.54195 29.5662 2.52279C29.5778 2.50363 29.596 2.48929 29.6175 2.48243C29.7626 2.46526 29.9098 2.48301 30.0466 2.53419C30.1834 2.58537 30.3057 2.66848 30.4034 2.7765C30.412 2.78492 30.4188 2.79495 30.4235 2.80602C30.4282 2.81709 30.4306 2.82896 30.4306 2.84096C30.4306 2.85296 30.4282 2.86484 30.4235 2.87591C30.4188 2.88698 30.412 2.89701 30.4034 2.90543C30.3921 2.91545 30.3789 2.92314 30.3647 2.92805Z" fill="#263238"/>
<path d="M27.5767 3.44621C27.5611 3.45618 27.5428 3.46094 27.5243 3.45978C27.5125 3.4574 27.5013 3.45265 27.4914 3.44583C27.4814 3.439 27.473 3.43024 27.4666 3.42008C27.4602 3.40992 27.456 3.39857 27.4542 3.38673C27.4523 3.37489 27.4529 3.3628 27.456 3.35121C27.4878 3.20905 27.5537 3.07663 27.6481 2.96518C27.7425 2.85373 27.8625 2.76655 27.9981 2.71105C28.0095 2.70713 28.0215 2.70549 28.0335 2.70622C28.0455 2.70695 28.0573 2.71003 28.0681 2.71529C28.0789 2.72055 28.0885 2.72788 28.0964 2.73685C28.1044 2.74583 28.1104 2.75628 28.1143 2.7676C28.1218 2.79012 28.1203 2.81463 28.1101 2.83609C28.0999 2.85754 28.0819 2.87432 28.0596 2.88296C27.9563 2.93144 27.8654 3.00269 27.794 3.09127C27.7225 3.17986 27.6724 3.28345 27.6473 3.39419C27.6406 3.40783 27.6307 3.41968 27.6184 3.42873C27.6061 3.43778 27.5918 3.44378 27.5767 3.44621Z" fill="#263238"/>
<path d="M26.2472 1.53271L26.475 1.86071C25.885 2.17514 26.1402 2.87637 26.3247 3.18175C26.7188 3.83322 26.516 4.99138 26.0513 5.51618C26.0513 5.51618 25.9807 5.21533 25.737 5.33295C25.4932 5.45058 25.8463 7.01366 26.4841 7.6787C26.4841 7.6787 25.6026 7.13128 24.8759 5.55237C24.2062 4.09109 23.6162 2.64338 24.3611 1.53271H26.2472Z" fill="#263238"/>
<path d="M24.5178 5.74694C24.786 6.14932 25.2037 6.4299 25.6796 6.52734C26.3128 6.65176 26.5771 6.07494 26.363 5.51169C26.167 5.00951 25.6021 4.32185 24.9962 4.45983C24.3903 4.59782 24.1966 5.24929 24.5178 5.74694Z" fill="#E4897B"/>
<path d="M29.516 6.16299C28.8327 6.16299 28.6846 5.65855 28.6823 5.65403C28.6768 5.63214 28.6801 5.60896 28.6916 5.58949C28.7031 5.57002 28.7219 5.55583 28.7438 5.54998C28.7659 5.54445 28.7892 5.54776 28.8088 5.55919C28.8284 5.57062 28.8427 5.58925 28.8486 5.61105C28.8486 5.62915 28.9625 5.99334 29.516 5.99334H29.5388C29.5591 5.99663 29.5775 6.00697 29.5908 6.02251C29.6041 6.03805 29.6114 6.05777 29.6114 6.07816C29.6114 6.09855 29.6041 6.11828 29.5908 6.13382C29.5775 6.14936 29.5591 6.15969 29.5388 6.16299H29.516Z" fill="#263238"/>
<path d="M28.3809 6.28522C28.3631 6.28242 28.3465 6.27456 28.3331 6.26259C28.325 6.2548 28.3186 6.24548 28.3142 6.23518C28.3099 6.22489 28.3076 6.21382 28.3076 6.20265C28.3076 6.19148 28.3099 6.18042 28.3142 6.17012C28.3186 6.15983 28.325 6.1505 28.3331 6.14271C28.9026 5.56588 28.6474 5.10443 28.636 5.08633C28.6304 5.0767 28.6267 5.06606 28.6253 5.05501C28.6238 5.04396 28.6246 5.03273 28.6276 5.02199C28.6305 5.01124 28.6356 5.00119 28.6426 4.99243C28.6495 4.98367 28.6581 4.97637 28.6679 4.97097C28.6775 4.96526 28.6881 4.96149 28.6991 4.95988C28.7102 4.95826 28.7214 4.95884 28.7322 4.96158C28.743 4.96431 28.7532 4.96915 28.7621 4.97581C28.771 4.98247 28.7785 4.99082 28.7841 5.00037C28.7978 5.02299 29.119 5.5885 28.4538 6.26033C28.4445 6.26994 28.4331 6.27721 28.4204 6.28153C28.4077 6.28586 28.3942 6.28712 28.3809 6.28522Z" fill="#E4897B"/>
<g opacity="0.2">
<path d="M28.3809 6.28522C28.3631 6.28242 28.3465 6.27456 28.3331 6.26259C28.325 6.2548 28.3186 6.24548 28.3142 6.23518C28.3099 6.22489 28.3076 6.21382 28.3076 6.20265C28.3076 6.19148 28.3099 6.18042 28.3142 6.17012C28.3186 6.15983 28.325 6.1505 28.3331 6.14271C28.9026 5.56588 28.6474 5.10443 28.636 5.08633C28.6304 5.0767 28.6267 5.06606 28.6253 5.05501C28.6238 5.04396 28.6246 5.03273 28.6276 5.02199C28.6305 5.01124 28.6356 5.00119 28.6426 4.99243C28.6495 4.98367 28.6581 4.97637 28.6679 4.97097C28.6775 4.96526 28.6881 4.96149 28.6991 4.95988C28.7102 4.95826 28.7214 4.95884 28.7322 4.96158C28.743 4.96431 28.7532 4.96915 28.7621 4.97581C28.771 4.98247 28.7785 4.99082 28.7841 5.00037C28.7978 5.02299 29.119 5.5885 28.4538 6.26033C28.4445 6.26994 28.4331 6.27721 28.4204 6.28153C28.4077 6.28586 28.3942 6.28712 28.3809 6.28522Z" fill="black"/>
</g>
<path d="M28.0869 4.29481C28.0869 4.29481 28.1348 4.0573 28.2828 4.01432C28.4309 3.97134 28.5585 4.19302 28.5585 4.19302C28.5223 4.16457 28.4802 4.14445 28.4352 4.1341C28.3903 4.12375 28.3435 4.12342 28.2984 4.13316C28.2533 4.1429 28.211 4.16245 28.1744 4.1904C28.1378 4.21835 28.1079 4.25401 28.0869 4.29481Z" fill="#263238"/>
<path d="M29.7939 4.00477C29.7939 4.00477 29.8418 3.76726 29.9898 3.72428C30.1379 3.6813 30.2655 3.90298 30.2655 3.90298C30.2293 3.87453 30.1872 3.85441 30.1422 3.84406C30.0973 3.83371 30.0506 3.83339 30.0055 3.84312C29.9604 3.85286 29.918 3.87241 29.8814 3.90036C29.8448 3.92831 29.815 3.96397 29.7939 4.00477Z" fill="#263238"/>
<path d="M24.3609 2.17749C24.3609 2.17749 23.6092 1.45816 25.2721 0.514887C26.935 -0.428388 29.3017 0.0624759 29.9031 0.881338C30.5045 1.7002 29.115 2.18654 29.0512 2.08022C28.9874 1.97391 29.1491 1.69341 29.1491 1.69341C29.1491 1.69341 28.2379 2.30417 27.9805 2.09606C27.7231 1.88795 28.0853 1.664 28.0853 1.664C28.0853 1.664 25.8848 2.72038 24.3609 2.17749Z" fill="#263238"/>
<path d="M22.8783 25.6348C22.8783 25.6348 21.2199 34.0044 25.6118 36.2279C30.0037 38.4515 37.4002 38.1733 37.4002 38.1733L45.5347 58.3169L49.8332 57.8644C49.8332 57.8644 47.0108 34.5427 43.4413 31.7604C42.4755 31.0117 31.8671 28.7745 31.8671 28.7745L22.8783 25.6348Z" fill="#263238"/>
<path d="M39.7892 8.7668L38.9463 6.79882C38.9463 6.79882 36.985 5.53433 36.8392 5.49362C36.6934 5.4529 36.2743 8.17414 36.4246 8.46821C36.575 8.76228 37.6547 9.26897 38.0898 9.41827C38.3487 9.50734 38.6157 9.57099 38.8871 9.60828L39.7892 8.7668Z" fill="#E4897B"/>
<path d="M35.5091 5.5889C35.4246 5.56968 35.3358 5.584 35.2618 5.62878C35.1878 5.67357 35.1343 5.74529 35.1127 5.82868C35.0854 5.96666 35.0056 5.93952 34.9646 5.99607C34.9236 6.05262 34.9646 6.19061 34.9646 6.2087C34.9646 6.2268 34.8439 6.52086 35.0512 6.64075C35.2585 6.76064 35.7346 6.96875 35.9328 6.59325C36.1309 6.21775 35.8211 5.63866 35.5091 5.5889Z" fill="#FF9446"/>
<path opacity="0.4" d="M35.5091 5.5889C35.4246 5.56968 35.3358 5.584 35.2618 5.62878C35.1878 5.67357 35.1343 5.74529 35.1127 5.82868C35.0854 5.96666 35.0056 5.93952 34.9646 5.99607C34.9236 6.05262 34.9646 6.19061 34.9646 6.2087C34.9646 6.2268 34.8439 6.52086 35.0512 6.64075C35.2585 6.76064 35.7346 6.96875 35.9328 6.59325C36.1309 6.21775 35.8211 5.63866 35.5091 5.5889Z" fill="white"/>
<path d="M37.9969 7.22433C37.998 7.28976 37.9911 7.35508 37.9764 7.41886C37.8101 8.09748 36.7235 8.42774 35.5526 8.14724C35.0775 8.04277 34.6331 7.83065 34.2542 7.52744C34.2337 7.46794 34.2192 7.40656 34.2109 7.34422C34.229 7.32737 34.2457 7.30922 34.2611 7.28993C34.2991 7.24774 34.3271 7.19754 34.3429 7.14309C34.3587 7.08863 34.3619 7.03134 34.3522 6.9755C34.3066 6.76287 34.605 6.68596 34.605 6.68596C34.6037 6.68077 34.6037 6.67532 34.605 6.67013C34.6073 6.65098 34.6135 6.6325 34.6232 6.61584C34.7121 6.45749 35.0128 6.45523 35.0447 6.45523L35.252 6.58417C35.3025 6.57523 35.3507 6.55635 35.3938 6.52863C35.4369 6.50091 35.474 6.46492 35.5028 6.42276C35.5317 6.38061 35.5518 6.33315 35.5619 6.28317C35.572 6.2332 35.572 6.18172 35.5618 6.13176C35.5553 6.0962 35.5454 6.06135 35.5321 6.02771C35.5574 6.00451 35.5763 5.97531 35.5871 5.94286C35.5978 5.91041 35.6001 5.87578 35.5937 5.84222C35.5936 5.8123 35.589 5.78256 35.58 5.754C35.5657 5.69431 35.5394 5.63813 35.5025 5.58887C35.7191 5.59947 35.9342 5.63052 36.1449 5.68161C37.2155 5.92591 37.9855 6.59322 37.9969 7.22433Z" fill="#FF9446"/>
<g opacity="0.6">
<path d="M37.9969 7.22433C37.998 7.28976 37.9911 7.35508 37.9764 7.41886C37.8101 8.09748 36.7235 8.42774 35.5526 8.14724C35.0775 8.04277 34.6331 7.83065 34.2542 7.52744C34.2337 7.46794 34.2192 7.40656 34.2109 7.34422C34.229 7.32737 34.2457 7.30922 34.2611 7.28993C34.2991 7.24774 34.3271 7.19754 34.3429 7.14309C34.3587 7.08863 34.3619 7.03134 34.3522 6.9755C34.3066 6.76287 34.605 6.68596 34.605 6.68596C34.6037 6.68077 34.6037 6.67532 34.605 6.67013C34.6073 6.65098 34.6135 6.6325 34.6232 6.61584C34.7121 6.45749 35.0128 6.45523 35.0447 6.45523L35.252 6.58417C35.3025 6.57523 35.3507 6.55635 35.3938 6.52863C35.4369 6.50091 35.474 6.46492 35.5028 6.42276C35.5317 6.38061 35.5518 6.33315 35.5619 6.28317C35.572 6.2332 35.572 6.18172 35.5618 6.13176C35.5553 6.0962 35.5454 6.06135 35.5321 6.02771C35.5574 6.00451 35.5763 5.97531 35.5871 5.94286C35.5978 5.91041 35.6001 5.87578 35.5937 5.84222C35.5936 5.8123 35.589 5.78256 35.58 5.754C35.5657 5.69431 35.5394 5.63813 35.5025 5.58887C35.7191 5.59947 35.9342 5.63052 36.1449 5.68161C37.2155 5.92591 37.9855 6.59322 37.9969 7.22433Z" fill="white"/>
</g>
<path d="M37.9959 7.22433C37.8023 7.62471 37.6588 7.84865 37.4652 7.60888C37.2715 7.3691 37.169 7.62245 36.898 7.90973C36.6269 8.19701 36.2943 7.97985 36.0961 7.77853C35.8979 7.57721 35.4127 7.9414 35.1439 7.75139C34.8751 7.56137 34.8979 7.43244 34.4856 7.40982C34.4409 7.40886 34.3969 7.39752 34.3574 7.3767C34.3178 7.35588 34.2837 7.32617 34.2578 7.28993C34.2959 7.24774 34.3239 7.19754 34.3397 7.14309C34.3554 7.08863 34.3586 7.03134 34.3489 6.9755C34.3034 6.76287 34.6018 6.68596 34.6018 6.68596C34.6004 6.68077 34.6004 6.67532 34.6018 6.67013C34.604 6.65098 34.6102 6.6325 34.62 6.61584C34.7088 6.45749 35.0095 6.45523 35.0414 6.45523L35.2487 6.58417C35.2993 6.57523 35.3475 6.55635 35.3906 6.52863C35.4337 6.50091 35.4707 6.46492 35.4996 6.42276C35.5285 6.38061 35.5485 6.33315 35.5587 6.28317C35.5688 6.2332 35.5687 6.18172 35.5585 6.13176C35.5521 6.0962 35.5422 6.06135 35.5289 6.02771C35.5542 6.00451 35.5731 5.97531 35.5838 5.94286C35.5946 5.91041 35.5968 5.87578 35.5904 5.84222C35.5903 5.8123 35.5857 5.78256 35.5767 5.754C35.5625 5.69431 35.5361 5.63813 35.4993 5.58887C35.7159 5.59947 35.931 5.63052 36.1417 5.68161C37.2146 5.92591 37.9845 6.59322 37.9959 7.22433Z" fill="#FF9446"/>
<g opacity="0.2">
<path d="M35.0508 6.45508L35.2581 6.58492C35.1853 6.54783 35.1159 6.50438 35.0508 6.45508Z" fill="black"/>
<path d="M36.9162 6.76747C36.9162 6.79462 36.7658 6.88736 36.4241 6.87831C36.235 6.87239 36.0471 6.84584 35.8637 6.79914C35.6753 6.75698 35.492 6.69479 35.317 6.61365L35.2578 6.58425C35.3084 6.57531 35.3566 6.55643 35.3997 6.52871C35.4427 6.50099 35.4798 6.465 35.5087 6.42284C35.5375 6.38069 35.5576 6.33323 35.5677 6.28325C35.5779 6.23328 35.5778 6.18179 35.5676 6.13184C35.7213 6.13348 35.8742 6.15323 36.0232 6.19065C36.6838 6.33768 36.9207 6.69961 36.9162 6.76747Z" fill="black"/>
</g>
<g opacity="0.2">
<path d="M36.4245 6.87821C36.2355 6.87189 36.0477 6.84611 35.8641 6.8013C35.6759 6.75748 35.4927 6.69456 35.3174 6.61355C35.5034 6.552 35.703 6.54338 35.8937 6.58867C36.0917 6.64098 36.2738 6.74035 36.4245 6.87821Z" fill="black"/>
</g>
<path d="M35.6998 5.8847C35.6933 5.88734 35.6859 5.88734 35.6793 5.8847C35.6726 5.88665 35.6655 5.88665 35.6588 5.8847L35.5996 5.83041C35.5995 5.80049 35.5949 5.77075 35.5859 5.74219L35.6976 5.84172C35.7007 5.84431 35.7032 5.84751 35.705 5.85113C35.7069 5.85474 35.7079 5.85869 35.7081 5.86272C35.7083 5.86675 35.7077 5.87078 35.7063 5.87456C35.7049 5.87835 35.7027 5.88179 35.6998 5.8847Z" fill="white"/>
<path d="M36.2178 5.98763C36.2113 5.98772 36.205 5.98547 36.1999 5.98129C36.1949 5.97712 36.1916 5.97128 36.1905 5.96485C36.1895 5.96126 36.1892 5.95749 36.1897 5.95379C36.1902 5.95009 36.1914 5.94653 36.1934 5.94333C36.1953 5.94013 36.1978 5.93735 36.2009 5.93518C36.2039 5.933 36.2073 5.93147 36.211 5.93068L36.3955 5.88512C36.3991 5.88422 36.4028 5.88404 36.4065 5.88458C36.4101 5.88513 36.4137 5.88639 36.4168 5.88829C36.42 5.8902 36.4228 5.89271 36.425 5.89568C36.4272 5.89866 36.4288 5.90203 36.4297 5.90562C36.4306 5.90921 36.4308 5.91294 36.4302 5.9166C36.4297 5.92026 36.4284 5.92378 36.4265 5.92695C36.4246 5.93012 36.4221 5.93289 36.4191 5.9351C36.4161 5.9373 36.4128 5.93889 36.4092 5.93979L36.2247 5.98535L36.2178 5.98763Z" fill="white"/>
<path d="M36.8117 6.34186C36.8058 6.34186 36.8001 6.34014 36.7953 6.33692C36.7904 6.3337 36.7866 6.32912 36.7844 6.32376L36.7297 6.19935C36.7278 6.19601 36.7268 6.19228 36.7266 6.18847C36.7264 6.18465 36.7271 6.18084 36.7287 6.17735C36.7302 6.17385 36.7325 6.17075 36.7355 6.16828C36.7384 6.16582 36.7419 6.16407 36.7456 6.16316C36.7489 6.16164 36.7525 6.1608 36.7561 6.16066C36.7597 6.16053 36.7633 6.16111 36.7667 6.16237C36.7701 6.16363 36.7732 6.16555 36.7758 6.16802C36.7785 6.17048 36.7806 6.17345 36.7821 6.17673L36.8367 6.30114C36.8399 6.30806 36.8403 6.31593 36.8377 6.3231C36.8352 6.33027 36.8299 6.33619 36.8231 6.3396L36.8117 6.34186Z" fill="white"/>
<path d="M35.2311 6.99776C35.2276 6.99939 35.2237 7.00023 35.2198 7.00023C35.2158 7.00023 35.2119 6.99939 35.2084 6.99776L34.9692 6.68786C34.9639 6.68239 34.9609 6.67509 34.9609 6.6675C34.9609 6.65992 34.9639 6.65262 34.9692 6.64714C34.9717 6.64461 34.9747 6.64261 34.9781 6.64124C34.9814 6.63987 34.9849 6.63916 34.9885 6.63916C34.9921 6.63916 34.9957 6.63987 34.999 6.64124C35.0023 6.64261 35.0054 6.64461 35.0079 6.64714L35.2357 6.95705C35.241 6.96252 35.2439 6.96982 35.2439 6.9774C35.2439 6.98499 35.241 6.99229 35.2357 6.99776C35.2342 6.99795 35.2327 6.99795 35.2311 6.99776Z" fill="white"/>
<path d="M34.7952 6.72051C34.7937 6.72615 34.7905 6.73118 34.786 6.73487C34.7815 6.73856 34.7759 6.74071 34.7701 6.74101H34.7587L34.6084 6.68406C34.6107 6.66478 34.6169 6.64617 34.6266 6.62939L34.7792 6.68634C34.7855 6.6893 34.7905 6.69432 34.7934 6.70056C34.7963 6.70679 34.7969 6.71385 34.7952 6.72051Z" fill="white"/>
<path d="M35.7851 7.00529H35.4912C35.4837 7.00471 35.4768 7.00134 35.4717 6.99585C35.4667 6.99036 35.4638 6.98315 35.4639 6.97567C35.4639 6.97189 35.4646 6.96813 35.4661 6.96466C35.4677 6.96119 35.4699 6.95806 35.4727 6.95549C35.4754 6.95292 35.4787 6.95096 35.4823 6.94973C35.4859 6.9485 35.4897 6.94802 35.4935 6.94834H35.7851C35.7929 6.94834 35.8004 6.95146 35.806 6.95701C35.8116 6.96257 35.8147 6.9701 35.8147 6.97795C35.8147 6.98174 35.8139 6.98549 35.8124 6.98897C35.8109 6.99244 35.8087 6.99556 35.8059 6.99813C35.8031 7.0007 35.7998 7.00267 35.7962 7.0039C35.7926 7.00513 35.7888 7.0056 35.7851 7.00529Z" fill="white"/>
<path d="M36.418 7.28306C36.4085 7.28269 36.3995 7.27863 36.3929 7.27175L36.2836 7.11793C36.2789 7.11259 36.2764 7.10577 36.2764 7.09871C36.2764 7.09164 36.2789 7.08482 36.2836 7.07948C36.2891 7.07422 36.2964 7.07129 36.3041 7.07129C36.3117 7.07129 36.3191 7.07422 36.3246 7.07948L36.4339 7.2333C36.4386 7.23864 36.4411 7.24546 36.4411 7.25252C36.4411 7.25958 36.4386 7.26641 36.4339 7.27175C36.4322 7.2746 36.4298 7.27707 36.4271 7.27902C36.4244 7.28096 36.4213 7.28234 36.418 7.28306Z" fill="white"/>
<path d="M36.7299 7.23107H36.7185C36.7116 7.22766 36.7064 7.22175 36.7038 7.21458C36.7013 7.20741 36.7016 7.19954 36.7048 7.19262L36.7777 7.03428C36.7811 7.02748 36.7871 7.02227 36.7943 7.01974C36.8015 7.01721 36.8095 7.01756 36.8164 7.02071C36.8197 7.02217 36.8227 7.02428 36.8252 7.02689C36.8277 7.02951 36.8296 7.03259 36.8309 7.03596C36.8322 7.03933 36.8327 7.04292 36.8326 7.04651C36.8325 7.0501 36.8316 7.05364 36.8301 7.0569L36.7572 7.2175C36.7542 7.22186 36.75 7.22538 36.7453 7.22775C36.7405 7.23013 36.7352 7.23127 36.7299 7.23107Z" fill="white"/>
<path d="M37.199 7.00246C37.1943 7.00254 37.1896 7.00131 37.1856 6.99891C37.1816 6.99651 37.1783 6.99304 37.1762 6.98888L37.0805 6.84411C37.0752 6.83864 37.0723 6.83134 37.0723 6.82375C37.0723 6.81617 37.0752 6.80887 37.0805 6.80339C37.083 6.80086 37.0861 6.79886 37.0894 6.79749C37.0927 6.79612 37.0963 6.79541 37.0999 6.79541C37.1035 6.79541 37.107 6.79612 37.1104 6.79749C37.1137 6.79886 37.1167 6.80086 37.1192 6.80339L37.2172 6.94816C37.222 6.95387 37.2246 6.96108 37.2246 6.96853C37.2246 6.97597 37.222 6.98318 37.2172 6.98888L37.199 7.00246Z" fill="white"/>
<path d="M37.5677 6.71964H37.5564L37.2853 6.59297C37.2798 6.58889 37.2759 6.58305 37.2743 6.57645C37.2727 6.56985 37.2734 6.56289 37.2763 6.55676C37.2793 6.55062 37.2843 6.5457 37.2905 6.54281C37.2967 6.53993 37.3037 6.53927 37.3103 6.54094L37.5791 6.66762C37.5827 6.66906 37.586 6.67124 37.5887 6.67402C37.5914 6.67681 37.5934 6.68014 37.5947 6.68378C37.596 6.68741 37.5965 6.69129 37.5962 6.69513C37.5959 6.69898 37.5947 6.70271 37.5928 6.70607C37.5903 6.71041 37.5866 6.71397 37.5822 6.71637C37.5778 6.71876 37.5728 6.71989 37.5677 6.71964Z" fill="white"/>
<path d="M37.4427 6.92121C37.4358 6.91828 37.43 6.91314 37.4263 6.90659C37.4226 6.90004 37.4211 6.89245 37.4222 6.88501L37.4473 6.78775C37.4477 6.78394 37.449 6.78029 37.4511 6.77707C37.4532 6.77384 37.456 6.77114 37.4593 6.76917C37.4626 6.7672 37.4663 6.76602 37.4702 6.76571C37.474 6.7654 37.4779 6.76597 37.4815 6.76739C37.4885 6.7695 37.4945 6.77414 37.4983 6.78042C37.5021 6.78669 37.5034 6.79415 37.502 6.80132L37.4792 6.89859C37.477 6.90619 37.4721 6.91273 37.4654 6.91691C37.4586 6.9211 37.4506 6.92263 37.4427 6.92121Z" fill="white"/>
<path d="M37.1356 6.3882C37.1307 6.38802 37.1258 6.3867 37.1215 6.38433C37.1171 6.38196 37.1134 6.3786 37.1105 6.37453C37.1072 6.36783 37.1065 6.36012 37.1086 6.35293C37.1107 6.34574 37.1155 6.33963 37.1219 6.33581L37.1926 6.2948C37.1979 6.29015 37.2048 6.2876 37.2119 6.2876C37.219 6.2876 37.2259 6.29015 37.2313 6.2948C37.2338 6.29734 37.2359 6.30036 37.2372 6.30368C37.2386 6.30701 37.2393 6.31057 37.2393 6.31417C37.2393 6.31776 37.2386 6.32133 37.2372 6.32465C37.2359 6.32797 37.2338 6.33099 37.2313 6.33353L37.1584 6.37453L37.1356 6.3882Z" fill="white"/>
<path d="M36.8778 6.06903L36.65 6.00069C36.6463 5.99968 36.6429 5.9979 36.6399 5.99546C36.6369 5.99302 36.6345 5.98998 36.6328 5.98654C36.631 5.9831 36.6301 5.97934 36.6299 5.9755C36.6297 5.97165 36.6304 5.96782 36.6318 5.96425C36.6328 5.9608 36.6346 5.9576 36.6368 5.95482C36.6391 5.95203 36.6419 5.94973 36.6451 5.94804C36.6483 5.94634 36.6518 5.9453 36.6553 5.94495C36.6589 5.9446 36.6625 5.94497 36.666 5.94602L36.8938 6.01436C36.901 6.01695 36.9071 6.02206 36.9108 6.02875C36.9146 6.03545 36.9158 6.04328 36.9143 6.05081C36.9117 6.05793 36.9065 6.06379 36.8997 6.06718C36.8929 6.07057 36.8851 6.07123 36.8778 6.06903Z" fill="white"/>
<path d="M36.0376 5.85402H36.0262L35.8804 5.78796C35.8766 5.78675 35.8731 5.78472 35.8702 5.78202C35.8672 5.77932 35.8649 5.77601 35.8634 5.77232C35.8619 5.76863 35.8612 5.76465 35.8614 5.76066C35.8615 5.75667 35.8626 5.75277 35.8644 5.74924C35.8679 5.74239 35.8738 5.73715 35.8811 5.7346C35.8883 5.73205 35.8962 5.7324 35.9032 5.73557L36.049 5.80163C36.0558 5.80506 36.061 5.81102 36.0636 5.81824C36.0661 5.82546 36.0658 5.83338 36.0626 5.84035C36.0601 5.84472 36.0564 5.84831 36.052 5.85072C36.0476 5.85313 36.0426 5.85427 36.0376 5.85402Z" fill="white"/>
<path d="M35.8122 5.95817C35.8067 5.95791 35.8014 5.95633 35.7966 5.95355C35.7918 5.95077 35.7878 5.94689 35.7849 5.94222C35.7817 5.93525 35.7814 5.92733 35.7839 5.92011C35.7865 5.91288 35.7917 5.90693 35.7986 5.9035L35.8919 5.85794C35.8952 5.85605 35.8988 5.85491 35.9025 5.85458C35.9062 5.85426 35.9099 5.85478 35.9134 5.85609C35.9169 5.8574 35.9201 5.85947 35.9227 5.86216C35.9253 5.86484 35.9272 5.86807 35.9284 5.87161C35.9329 5.87662 35.9354 5.88311 35.9354 5.88983C35.9354 5.89655 35.9329 5.90304 35.9284 5.90805L35.835 5.95361L35.8122 5.95817Z" fill="white"/>
<path d="M34.8531 6.9716L34.6025 6.95793C34.5949 6.95683 34.5879 6.95299 34.5829 6.94712C34.5778 6.94125 34.5751 6.93376 34.5752 6.92604C34.5755 6.92244 34.5765 6.91894 34.5781 6.91573C34.5798 6.91253 34.582 6.90967 34.5848 6.90735C34.5875 6.90502 34.5907 6.90326 34.5942 6.90216C34.5976 6.90107 34.6012 6.90067 34.6048 6.90098L34.8577 6.91465C34.8614 6.91464 34.8652 6.91541 34.8687 6.91693C34.8721 6.91844 34.8753 6.92066 34.8778 6.92344C34.8804 6.92623 34.8824 6.92951 34.8836 6.9331C34.8848 6.93668 34.8853 6.94049 34.885 6.94426C34.8847 6.94816 34.8837 6.95195 34.8819 6.95544C34.8801 6.95892 34.8777 6.96202 34.8747 6.96456C34.8718 6.9671 34.8683 6.96903 34.8646 6.97024C34.8609 6.97145 34.857 6.97191 34.8531 6.9716Z" fill="white"/>
<path d="M35.2987 7.26932H35.285L35.1164 7.16753C35.1139 7.16501 35.1119 7.16202 35.1105 7.15872C35.1091 7.15542 35.1084 7.15188 35.1084 7.14831C35.1084 7.14473 35.1091 7.1412 35.1105 7.1379C35.1119 7.1346 35.1139 7.1316 35.1164 7.12908C35.119 7.12655 35.122 7.12454 35.1253 7.12317C35.1286 7.1218 35.1322 7.12109 35.1358 7.12109C35.1394 7.12109 35.143 7.1218 35.1463 7.12317C35.1496 7.12454 35.1526 7.12655 35.1552 7.12908L35.3237 7.23087C35.3263 7.23339 35.3283 7.23639 35.3297 7.23969C35.3311 7.24299 35.3318 7.24653 35.3318 7.2501C35.3318 7.25367 35.3311 7.25721 35.3297 7.26051C35.3283 7.26381 35.3263 7.2668 35.3237 7.26932C35.3199 7.27151 35.3156 7.27266 35.3112 7.27266C35.3068 7.27266 35.3025 7.27151 35.2987 7.26932Z" fill="white"/>
<path d="M35.891 7.33318C35.8843 7.33298 35.8779 7.33068 35.8726 7.32662C35.8672 7.32256 35.8633 7.31694 35.8614 7.31056L35.8432 7.21329C35.8426 7.20972 35.8426 7.20605 35.8434 7.20251C35.8442 7.19897 35.8457 7.19563 35.8479 7.19268C35.85 7.18972 35.8527 7.18722 35.8558 7.18532C35.8589 7.18343 35.8624 7.18216 35.866 7.18162C35.8735 7.18027 35.8813 7.18187 35.8877 7.18609C35.894 7.19031 35.8985 7.19681 35.9002 7.20424L35.9184 7.29925C35.9197 7.30673 35.9181 7.31444 35.9139 7.32077C35.9096 7.3271 35.9031 7.33154 35.8956 7.33318H35.891Z" fill="white"/>
<path d="M36.1692 7.41507C36.166 7.41667 36.1625 7.4175 36.1589 7.4175C36.1554 7.4175 36.1518 7.41667 36.1487 7.41507C36.1461 7.41253 36.1441 7.40951 36.1427 7.40618C36.1413 7.40286 36.1406 7.3993 36.1406 7.3957C36.1406 7.3921 36.1413 7.38854 36.1427 7.38522C36.1441 7.3819 36.1461 7.37888 36.1487 7.37634L36.2398 7.28978C36.2423 7.28723 36.2453 7.28521 36.2487 7.28383C36.252 7.28245 36.2555 7.28174 36.2591 7.28174C36.2627 7.28174 36.2663 7.28245 36.2696 7.28383C36.273 7.28521 36.276 7.28723 36.2785 7.28978C36.2838 7.29529 36.2868 7.30264 36.2868 7.31028C36.2868 7.31792 36.2838 7.32527 36.2785 7.33078L36.1874 7.41734C36.1812 7.41892 36.1747 7.4181 36.1692 7.41507Z" fill="white"/>
<path d="M36.7591 7.49423L36.5541 7.4464C36.5471 7.44345 36.5413 7.43827 36.5376 7.43167C36.5339 7.42508 36.5325 7.41744 36.5336 7.40995C36.5361 7.40316 36.5408 7.39743 36.5471 7.3937C36.5533 7.38998 36.5606 7.38848 36.5677 7.38945L36.7728 7.43956C36.7802 7.44121 36.7868 7.44568 36.791 7.45206C36.7953 7.45843 36.7969 7.4662 36.7955 7.47373C36.7929 7.48097 36.7878 7.48702 36.7811 7.49079C36.7744 7.49456 36.7666 7.49578 36.7591 7.49423Z" fill="white"/>
<path d="M36.9874 7.29064C36.9812 7.29046 36.9753 7.2884 36.9704 7.28473C36.9655 7.28105 36.9619 7.27596 36.96 7.27013C36.959 7.26654 36.9587 7.26278 36.9592 7.25908C36.9597 7.25538 36.961 7.25182 36.9629 7.24861C36.9648 7.24541 36.9674 7.24264 36.9704 7.24046C36.9734 7.23829 36.9769 7.23676 36.9805 7.23597L37.1423 7.18585C37.1495 7.18365 37.1573 7.18431 37.1641 7.1877C37.1709 7.19109 37.1761 7.19695 37.1787 7.20407C37.1808 7.21163 37.1798 7.2197 37.176 7.22654C37.1721 7.23337 37.1657 7.2384 37.1582 7.24052L36.9965 7.29064H36.9874Z" fill="white"/>
<path d="M37.4429 7.17319C37.4374 7.17339 37.4318 7.172 37.427 7.16917C37.4221 7.16635 37.4182 7.16221 37.4156 7.15724C37.4141 7.15395 37.4132 7.1504 37.4131 7.14678C37.413 7.14316 37.4136 7.13955 37.4148 7.13616C37.4161 7.13277 37.418 7.12967 37.4205 7.12703C37.423 7.12439 37.426 7.12227 37.4293 7.1208L37.5956 7.03879C37.6025 7.03562 37.6105 7.03527 37.6177 7.03782C37.6249 7.04037 37.6309 7.04562 37.6343 7.05246C37.6369 7.05949 37.637 7.06723 37.6345 7.07431C37.632 7.0814 37.6271 7.08737 37.6206 7.09118L37.4543 7.17091L37.4429 7.17319Z" fill="white"/>
<path d="M25.3495 9.99512C25.3495 9.99512 22.6524 10.1376 20.8939 12.4042C19.1353 14.6708 17.666 17.9349 17.666 17.9349L21.8848 20.387L25.2265 17.3083C25.2265 17.3083 24.3996 10.8864 25.3495 9.99512Z" fill="#FF9446"/>
<path opacity="0.6" d="M36.9878 24.3639H22.8645C22.803 23.7758 22.7529 22.7375 22.7165 21.4934C22.7165 21.4595 22.7165 21.4233 22.7165 21.3893C22.7028 20.8442 22.6891 20.2583 22.6777 19.6611C22.9055 18.8038 23.1333 17.9804 23.3771 17.2091C24.0039 15.1572 24.7454 13.1416 25.5981 11.1717C29.3635 13.5446 31.6528 10.9658 31.6528 10.9658C33.9672 12.6375 35.252 15.3994 35.6597 16.3947C36.9878 21.3011 36.9878 24.3639 36.9878 24.3639Z" fill="white"/>
<path d="M28.1029 13.2345C28.1029 13.9357 27.1233 14.5057 25.9183 14.5057C24.8158 14.5057 23.9023 14.0285 23.7543 13.4109C23.7386 13.3534 23.7309 13.294 23.7315 13.2345C23.7315 12.531 24.711 11.9609 25.9183 11.9609C27.0094 11.9609 27.9183 12.4292 28.0778 13.0399C28.0941 13.1035 28.1025 13.1689 28.1029 13.2345Z" fill="#263238"/>
<path d="M28.0758 13.0399C27.9824 13.4742 27.8959 13.7186 27.6499 13.5376C27.4038 13.3566 27.3651 13.619 27.1692 13.9629C26.9733 14.3067 26.5997 14.171 26.3583 14.0217C26.1168 13.8724 25.7432 14.3361 25.4266 14.2162C25.11 14.0963 25.1122 13.9629 24.7068 14.0375C24.3013 14.1121 24.2261 13.3951 23.9095 13.4742C23.8801 13.4852 23.8476 13.4847 23.8185 13.473C23.7893 13.4613 23.7657 13.4391 23.7523 13.4109C23.7366 13.3534 23.729 13.294 23.7295 13.2345C23.7295 12.531 24.709 11.9609 25.9163 11.9609C27.0075 11.9609 27.9164 12.4292 28.0758 13.0399Z" fill="#263238"/>
<path opacity="0.2" d="M28.0758 13.0399C27.9824 13.4742 27.8959 13.7186 27.6499 13.5376C27.4038 13.3566 27.3651 13.619 27.1692 13.9629C26.9733 14.3067 26.5997 14.171 26.3583 14.0217C26.1168 13.8724 25.7432 14.3361 25.4266 14.2162C25.11 14.0963 25.1122 13.9629 24.7068 14.0375C24.3013 14.1121 24.2261 13.3951 23.9095 13.4742C23.8801 13.4852 23.8476 13.4847 23.8185 13.473C23.7893 13.4613 23.7657 13.4391 23.7523 13.4109C23.7366 13.3534 23.729 13.294 23.7295 13.2345C23.7295 12.531 24.709 11.9609 25.9163 11.9609C27.0075 11.9609 27.9164 12.4292 28.0758 13.0399Z" fill="white"/>
<path opacity="0.2" d="M26.918 12.8471C26.918 12.8742 26.7995 12.9987 26.4624 13.0733C26.2774 13.1115 26.0887 13.1297 25.8997 13.1276C25.7062 13.1296 25.5131 13.1114 25.3234 13.0733C24.9749 13.0009 24.8428 12.8742 24.8428 12.8471C24.8428 12.7792 25.23 12.4829 25.9111 12.4829C26.5922 12.4829 26.9066 12.7792 26.918 12.8471Z" fill="black"/>
<path opacity="0.2" d="M26.4651 13.069C26.2801 13.1072 26.0915 13.1254 25.9025 13.1233C25.709 13.1253 25.5158 13.1071 25.3262 13.069C25.4919 12.9653 25.6838 12.9104 25.8797 12.9106C26.0849 12.9154 26.2859 12.9697 26.4651 13.069Z" fill="black"/>
<path d="M24.4589 12.938C24.4544 12.9383 24.45 12.9375 24.446 12.9355C24.442 12.9335 24.4386 12.9305 24.4361 12.9267L24.2858 12.7344C24.281 12.7287 24.2783 12.7215 24.2783 12.7141C24.2783 12.7066 24.281 12.6994 24.2858 12.6937C24.2913 12.6885 24.2986 12.6855 24.3063 12.6855C24.3139 12.6855 24.3213 12.6885 24.3268 12.6937L24.4771 12.886C24.482 12.8917 24.4846 12.8989 24.4846 12.9064C24.4846 12.9138 24.482 12.921 24.4771 12.9267L24.4589 12.938Z" fill="white"/>
<path d="M24.6458 12.5136H24.4818C24.4739 12.5136 24.4664 12.5105 24.4608 12.5049C24.4553 12.4994 24.4521 12.4918 24.4521 12.484C24.4521 12.4802 24.4529 12.4764 24.4544 12.473C24.4559 12.4695 24.4582 12.4664 24.4609 12.4638C24.4637 12.4612 24.467 12.4593 24.4706 12.458C24.4742 12.4568 24.478 12.4563 24.4818 12.4566H24.6458C24.6496 12.4563 24.6534 12.4568 24.6569 12.458C24.6605 12.4593 24.6638 12.4612 24.6666 12.4638C24.6694 12.4664 24.6716 12.4695 24.6731 12.473C24.6746 12.4764 24.6754 12.4802 24.6754 12.484C24.6754 12.4918 24.6723 12.4994 24.6667 12.5049C24.6612 12.5105 24.6536 12.5136 24.6458 12.5136Z" fill="white"/>
<path d="M24.9275 12.4295H24.9138C24.9069 12.4261 24.9017 12.4202 24.8991 12.413C24.8966 12.4058 24.8969 12.398 24.9001 12.3911L24.948 12.2802C24.9492 12.2767 24.9512 12.2735 24.9537 12.2708C24.9563 12.2681 24.9593 12.266 24.9627 12.2645C24.9661 12.263 24.9698 12.2622 24.9736 12.2622C24.9773 12.2622 24.981 12.2629 24.9844 12.2644C24.9882 12.2656 24.9917 12.2676 24.9946 12.2703C24.9976 12.273 24.9999 12.2762 25.0014 12.2799C25.0029 12.2836 25.0036 12.2875 25.0034 12.2915C25.0033 12.2954 25.0022 12.2993 25.0003 12.3028L24.9525 12.4137C24.9499 12.4181 24.9463 12.4219 24.942 12.4247C24.9376 12.4274 24.9326 12.4291 24.9275 12.4295Z" fill="white"/>
<path d="M25.5012 12.2878H25.4875L25.3576 12.2171C25.3551 12.2146 25.3531 12.2116 25.3517 12.2083C25.3503 12.2049 25.3496 12.2014 25.3496 12.1978C25.3496 12.1942 25.3503 12.1906 25.3517 12.1873C25.3531 12.184 25.3551 12.181 25.3576 12.1784C25.361 12.1721 25.3667 12.1674 25.3736 12.1653C25.3804 12.1632 25.3877 12.1638 25.3941 12.167L25.5262 12.2376C25.5296 12.2393 25.5327 12.2417 25.5351 12.2446C25.5376 12.2475 25.5394 12.2509 25.5405 12.2545C25.5415 12.2581 25.5418 12.262 25.5413 12.2657C25.5408 12.2695 25.5396 12.2731 25.5376 12.2764C25.5362 12.2797 25.5341 12.2827 25.5314 12.2851C25.5287 12.2876 25.5255 12.2894 25.522 12.2905C25.5185 12.2916 25.5149 12.2919 25.5113 12.2914C25.5077 12.291 25.5042 12.2897 25.5012 12.2878Z" fill="white"/>
<path d="M26.0529 12.2506C26.0476 12.2506 26.0425 12.2492 26.038 12.2464C26.0336 12.2436 26.0301 12.2395 26.0279 12.2348C26.026 12.2316 26.0248 12.228 26.0245 12.2243C26.0242 12.2206 26.0247 12.2169 26.026 12.2134C26.0273 12.21 26.0294 12.2068 26.0321 12.2043C26.0348 12.2017 26.038 12.1998 26.0415 12.1986L26.2101 12.1104C26.2167 12.1071 26.2244 12.1065 26.2315 12.1088C26.2385 12.1112 26.2444 12.1162 26.2477 12.1228C26.251 12.1294 26.2516 12.137 26.2492 12.144C26.2469 12.151 26.2418 12.1568 26.2352 12.1601L26.0666 12.2483L26.0529 12.2506Z" fill="white"/>
<path d="M26.7068 12.4586C26.6981 12.4577 26.69 12.4537 26.684 12.4473L26.602 12.3387C26.5967 12.3333 26.5938 12.326 26.5938 12.3184C26.5938 12.3108 26.5967 12.3035 26.602 12.298C26.6045 12.2955 26.6075 12.2935 26.6109 12.2921C26.6142 12.2907 26.6178 12.29 26.6214 12.29C26.625 12.29 26.6285 12.2907 26.6318 12.2921C26.6352 12.2935 26.6382 12.2955 26.6407 12.298L26.7227 12.4066C26.7253 12.4091 26.7273 12.4121 26.7287 12.4154C26.7301 12.4187 26.7308 12.4223 26.7308 12.4258C26.7308 12.4294 26.7301 12.4329 26.7287 12.4362C26.7273 12.4395 26.7253 12.4425 26.7227 12.4451C26.7212 12.4483 26.719 12.4512 26.7163 12.4536C26.7135 12.4559 26.7103 12.4576 26.7068 12.4586Z" fill="white"/>
<path d="M25.3267 13.4651C25.3208 13.4674 25.3143 13.4674 25.3085 13.4651L25.0032 13.2185C25.0004 13.2162 24.998 13.2132 24.9963 13.21C24.9946 13.2067 24.9936 13.2031 24.9933 13.1994C24.9929 13.1958 24.9934 13.1921 24.9945 13.1885C24.9956 13.185 24.9974 13.1818 24.9998 13.1789C25.0022 13.1761 25.0051 13.1738 25.0084 13.1721C25.0117 13.1704 25.0153 13.1694 25.019 13.169C25.0227 13.1687 25.0265 13.1691 25.03 13.1703C25.0336 13.1714 25.0368 13.1732 25.0397 13.1755L25.3449 13.4221C25.3475 13.4246 25.3495 13.4276 25.3509 13.4309C25.3523 13.4342 25.353 13.4378 25.353 13.4413C25.353 13.4449 25.3523 13.4484 25.3509 13.4517C25.3495 13.455 25.3475 13.458 25.3449 13.4606C25.3394 13.4639 25.3331 13.4654 25.3267 13.4651Z" fill="white"/>
<path d="M24.8157 13.31L24.5879 13.285C24.5817 13.2832 24.5763 13.2795 24.5724 13.2743C24.5685 13.2692 24.5664 13.2629 24.5664 13.2565C24.5664 13.2501 24.5685 13.2438 24.5724 13.2387C24.5763 13.2335 24.5817 13.2298 24.5879 13.228L24.8157 13.2554C24.8195 13.2556 24.8232 13.2567 24.8266 13.2585C24.83 13.2603 24.8329 13.2627 24.8353 13.2657C24.8377 13.2687 24.8394 13.2722 24.8403 13.2759C24.8412 13.2796 24.8414 13.2835 24.8407 13.2873C24.8394 13.2932 24.8363 13.2985 24.8318 13.3026C24.8273 13.3067 24.8217 13.3093 24.8157 13.31Z" fill="white"/>
<path d="M24.4126 13.1505C24.4075 13.1524 24.4018 13.1524 24.3967 13.1505L24.2395 13.0441C24.2369 13.0416 24.2349 13.0386 24.2335 13.0353C24.2322 13.032 24.2314 13.0285 24.2314 13.0249C24.2314 13.0213 24.2322 13.0178 24.2335 13.0145C24.2349 13.0112 24.2369 13.0082 24.2395 13.0057C24.2449 13.0011 24.2517 12.9985 24.2588 12.9985C24.266 12.9985 24.2728 13.0011 24.2782 13.0057L24.4354 13.112C24.4402 13.1177 24.4429 13.1249 24.4429 13.1324C24.4429 13.1398 24.4402 13.147 24.4354 13.1527C24.4277 13.1544 24.4198 13.1536 24.4126 13.1505Z" fill="white"/>
<path d="M25.5811 13.4095C25.5746 13.4095 25.5682 13.4073 25.5632 13.4031C25.5582 13.3989 25.5549 13.3931 25.5538 13.3867C25.5528 13.3831 25.5525 13.3793 25.553 13.3756C25.5535 13.3719 25.5547 13.3684 25.5566 13.3652C25.5586 13.362 25.5611 13.3592 25.5641 13.357C25.5672 13.3548 25.5706 13.3533 25.5743 13.3525L25.859 13.2864C25.8626 13.285 25.8665 13.2844 25.8703 13.2847C25.8741 13.2851 25.8779 13.2863 25.8812 13.2882C25.8845 13.2902 25.8873 13.2929 25.8894 13.2962C25.8915 13.2994 25.8928 13.3031 25.8932 13.3069C25.8942 13.3105 25.8945 13.3143 25.894 13.318C25.8935 13.3217 25.8922 13.3253 25.8903 13.3285C25.8884 13.3317 25.8858 13.3344 25.8828 13.3366C25.8798 13.3388 25.8763 13.3403 25.8727 13.3411L25.5879 13.4095H25.5811Z" fill="white"/>
<path d="M26.5477 13.4652C26.541 13.4671 26.5339 13.4671 26.5272 13.4652L26.386 13.3408C26.3834 13.3383 26.3814 13.3353 26.38 13.332C26.3786 13.3287 26.3779 13.3251 26.3779 13.3216C26.3779 13.318 26.3786 13.3144 26.38 13.3111C26.3814 13.3078 26.3834 13.3049 26.386 13.3023C26.3917 13.2975 26.399 13.2949 26.4065 13.2949C26.414 13.2949 26.4212 13.2975 26.427 13.3023L26.5705 13.4267C26.573 13.4293 26.5751 13.4323 26.5764 13.4356C26.5778 13.4389 26.5785 13.4424 26.5785 13.446C26.5785 13.4495 26.5778 13.4531 26.5764 13.4564C26.5751 13.4597 26.573 13.4627 26.5705 13.4652C26.5632 13.468 26.555 13.468 26.5477 13.4652Z" fill="white"/>
<path d="M26.8391 13.3404C26.8353 13.3399 26.8316 13.3386 26.8283 13.3365C26.825 13.3345 26.8222 13.3318 26.82 13.3286C26.8179 13.3253 26.8164 13.3217 26.8158 13.3179C26.8152 13.3141 26.8154 13.3102 26.8164 13.3065L26.8505 13.1368C26.8511 13.1332 26.8524 13.1298 26.8543 13.1267C26.8562 13.1236 26.8587 13.1209 26.8617 13.1188C26.8646 13.1167 26.868 13.1152 26.8716 13.1144C26.8751 13.1136 26.8788 13.1136 26.8824 13.1142C26.886 13.1147 26.8895 13.116 26.8926 13.1179C26.8957 13.1198 26.8984 13.1223 26.9005 13.1253C26.9027 13.1282 26.9042 13.1316 26.905 13.1351C26.9058 13.1386 26.9059 13.1423 26.9052 13.1459L26.871 13.3178C26.8705 13.3214 26.8692 13.3248 26.8673 13.3279C26.8654 13.331 26.8629 13.3337 26.8599 13.3358C26.8569 13.3379 26.8536 13.3394 26.85 13.3402C26.8464 13.341 26.8427 13.3411 26.8391 13.3404Z" fill="white"/>
<path d="M27.2406 13.0104C27.2377 13.0118 27.2346 13.0125 27.2315 13.0125C27.2283 13.0125 27.2252 13.0118 27.2224 13.0104L27.0948 12.8928C27.0907 12.8873 27.0886 12.8806 27.0889 12.8738C27.0892 12.867 27.0918 12.8606 27.0964 12.8555C27.101 12.8504 27.1072 12.8471 27.1139 12.8461C27.1207 12.845 27.1276 12.8463 27.1335 12.8498L27.2611 12.9697C27.2659 12.9754 27.2685 12.9826 27.2685 12.99C27.2685 12.9975 27.2659 13.0047 27.2611 13.0104C27.2544 13.0121 27.2473 13.0121 27.2406 13.0104Z" fill="white"/>
<path d="M27.5334 12.6517L27.2396 12.5924C27.2352 12.5924 27.2309 12.5915 27.2269 12.5896C27.2229 12.5877 27.2195 12.585 27.2167 12.5816C27.2139 12.5782 27.2119 12.5742 27.2108 12.57C27.2098 12.5657 27.2097 12.5613 27.2105 12.557C27.2114 12.5527 27.2132 12.5487 27.2158 12.5451C27.2184 12.5416 27.2218 12.5387 27.2257 12.5367C27.2295 12.5346 27.2338 12.5334 27.2382 12.5332C27.2426 12.533 27.2469 12.5338 27.251 12.5355L27.5425 12.597C27.5462 12.5975 27.5496 12.5988 27.5527 12.6007C27.5558 12.6026 27.5585 12.6051 27.5607 12.6081C27.5628 12.6111 27.5643 12.6145 27.5651 12.618C27.5659 12.6216 27.566 12.6253 27.5653 12.6289C27.5648 12.6325 27.5635 12.636 27.5616 12.6391C27.5597 12.6422 27.5572 12.6449 27.5542 12.647C27.5512 12.6491 27.5478 12.6506 27.5443 12.6514C27.5407 12.6522 27.537 12.6523 27.5334 12.6517Z" fill="white"/>
<path d="M27.4541 12.8749C27.4468 12.8749 27.4399 12.8721 27.4348 12.867C27.4296 12.8619 27.4268 12.855 27.4268 12.8478V12.746C27.4268 12.7388 27.4296 12.7319 27.4348 12.7268C27.4399 12.7217 27.4468 12.7188 27.4541 12.7188C27.4579 12.7185 27.4617 12.719 27.4653 12.7202C27.4688 12.7214 27.4721 12.7234 27.4749 12.7259C27.4777 12.7285 27.4799 12.7316 27.4814 12.735C27.4829 12.7385 27.4837 12.7422 27.4837 12.746V12.8478C27.4837 12.8515 27.4829 12.8553 27.4814 12.8587C27.4799 12.8622 27.4777 12.8653 27.4749 12.8678C27.4721 12.8704 27.4688 12.8723 27.4653 12.8735C27.4617 12.8748 27.4579 12.8752 27.4541 12.8749Z" fill="white"/>
<path d="M27.0346 12.4302C27.0289 12.43 27.0233 12.4282 27.0186 12.4249C27.0139 12.4217 27.0102 12.4171 27.0081 12.4118C27.0059 12.4065 27.0053 12.4007 27.0064 12.395C27.0075 12.3894 27.0101 12.3842 27.0141 12.3801L27.0756 12.3231C27.0811 12.318 27.0883 12.3152 27.0958 12.3154C27.1033 12.3157 27.1103 12.3188 27.1155 12.3243C27.1206 12.3297 27.1234 12.337 27.1232 12.3444C27.123 12.3519 27.1198 12.359 27.1143 12.3641L27.0528 12.4211C27.0482 12.4264 27.0416 12.4296 27.0346 12.4302Z" fill="white"/>
<path d="M26.7073 12.1785L26.4795 12.1626C26.4722 12.1626 26.4653 12.1597 26.4602 12.1546C26.455 12.1494 26.4521 12.1425 26.4521 12.1352C26.4521 12.128 26.455 12.121 26.4602 12.1159C26.4653 12.1108 26.4722 12.1079 26.4795 12.1079L26.7073 12.1216C26.7117 12.1203 26.7163 12.1201 26.7208 12.1209C26.7253 12.1218 26.7296 12.1236 26.7332 12.1264C26.7369 12.1292 26.7399 12.1327 26.7419 12.1368C26.744 12.1409 26.745 12.1455 26.745 12.1501C26.745 12.1546 26.744 12.1592 26.7419 12.1633C26.7399 12.1674 26.7369 12.1709 26.7332 12.1737C26.7296 12.1765 26.7253 12.1783 26.7208 12.1792C26.7163 12.18 26.7117 12.1798 26.7073 12.1785Z" fill="white"/>
<path d="M25.8416 12.1625L25.6844 12.1329C25.6769 12.1312 25.6704 12.1267 25.6661 12.1204C25.6619 12.114 25.6602 12.1062 25.6616 12.0987C25.6624 12.095 25.6639 12.0916 25.6661 12.0886C25.6683 12.0855 25.671 12.083 25.6743 12.081C25.6775 12.0791 25.681 12.0779 25.6847 12.0774C25.6884 12.0769 25.6922 12.0772 25.6958 12.0782L25.8529 12.1078C25.8566 12.1084 25.86 12.1096 25.8631 12.1115C25.8663 12.1134 25.869 12.116 25.8711 12.1189C25.8732 12.1219 25.8747 12.1253 25.8755 12.1288C25.8763 12.1324 25.8764 12.1361 25.8757 12.1397C25.8741 12.1472 25.8696 12.1537 25.8632 12.158C25.8569 12.1622 25.8491 12.1638 25.8416 12.1625Z" fill="white"/>
<path d="M25.6455 12.3164C25.6419 12.3179 25.638 12.3186 25.6341 12.3186C25.6302 12.3186 25.6263 12.3179 25.6227 12.3164C25.6179 12.3106 25.6152 12.3033 25.6152 12.2958C25.6152 12.2883 25.6179 12.2811 25.6227 12.2753L25.7024 12.2093C25.7082 12.2045 25.7156 12.2021 25.7231 12.2027C25.7305 12.2034 25.7375 12.207 25.7423 12.2127C25.7471 12.2184 25.7495 12.2259 25.7488 12.2333C25.7482 12.2408 25.7446 12.2477 25.7389 12.2526L25.6591 12.3186C25.6545 12.3192 25.6497 12.3184 25.6455 12.3164Z" fill="white"/>
<path d="M24.9528 12.5625C24.9475 12.5629 24.9422 12.5616 24.9377 12.5587C24.9332 12.5559 24.9297 12.5517 24.9278 12.5467C24.9258 12.5435 24.9245 12.5399 24.9241 12.5361C24.9236 12.5324 24.9239 12.5286 24.9249 12.525C24.926 12.5214 24.9278 12.518 24.9303 12.5151C24.9327 12.5123 24.9358 12.5099 24.9392 12.5083L25.1806 12.3748C25.1869 12.3733 25.1936 12.374 25.1995 12.3766C25.2054 12.3792 25.2103 12.3837 25.2134 12.3893C25.2165 12.395 25.2176 12.4015 25.2167 12.4079C25.2157 12.4142 25.2126 12.4201 25.208 12.4246L24.9665 12.558L24.9528 12.5625Z" fill="white"/>
<path d="M24.0869 12.8562C24.0798 12.8537 24.0739 12.8485 24.0705 12.8417C24.0671 12.835 24.0665 12.8272 24.0687 12.82L24.1165 12.6572C24.1186 12.6497 24.1237 12.6433 24.1305 12.6395C24.1373 12.6357 24.1454 12.6347 24.1529 12.6368C24.1601 12.6394 24.1659 12.6446 24.1693 12.6513C24.1727 12.658 24.1734 12.6658 24.1712 12.673L24.1233 12.8359C24.1212 12.8434 24.1162 12.8497 24.1093 12.8535C24.1025 12.8574 24.0944 12.8583 24.0869 12.8562Z" fill="white"/>
<path d="M24.704 13.5697C24.6975 13.5698 24.6912 13.5676 24.6862 13.5634C24.6812 13.5592 24.6778 13.5534 24.6767 13.547C24.6757 13.5432 24.6755 13.5393 24.6761 13.5354C24.6768 13.5316 24.6782 13.528 24.6804 13.5247C24.6825 13.5215 24.6853 13.5188 24.6886 13.5167C24.6919 13.5146 24.6956 13.5133 24.6995 13.5128L24.9478 13.4672C24.9514 13.4666 24.9551 13.4667 24.9586 13.4675C24.9622 13.4683 24.9656 13.4698 24.9685 13.4719C24.9715 13.474 24.974 13.4767 24.9759 13.4798C24.9779 13.4829 24.9791 13.4864 24.9797 13.49C24.981 13.4975 24.9794 13.5053 24.9752 13.5117C24.9709 13.5181 24.9644 13.5225 24.9569 13.5242L24.7086 13.5697H24.704Z" fill="white"/>
<path d="M25.4562 13.7125L25.2671 13.6533C25.2603 13.6503 25.2547 13.645 25.2514 13.6383C25.2481 13.6317 25.2472 13.6241 25.2489 13.6168C25.2499 13.6131 25.2517 13.6097 25.2541 13.6067C25.2566 13.6037 25.2596 13.6013 25.263 13.5996C25.2665 13.5978 25.2702 13.5969 25.2741 13.5967C25.2779 13.5965 25.2818 13.5972 25.2853 13.5986L25.4721 13.6578C25.4758 13.6588 25.4793 13.6606 25.4823 13.6631C25.4852 13.6655 25.4877 13.6685 25.4894 13.672C25.4911 13.6754 25.4921 13.6792 25.4922 13.683C25.4924 13.6869 25.4918 13.6907 25.4903 13.6943C25.4893 13.6977 25.4876 13.7009 25.4853 13.7037C25.483 13.7065 25.4802 13.7088 25.477 13.7105C25.4739 13.7122 25.4704 13.7132 25.4668 13.7136C25.4632 13.7139 25.4596 13.7136 25.4562 13.7125Z" fill="white"/>
<path d="M26.0531 13.6372C26.0476 13.6367 26.0424 13.6348 26.038 13.6316C26.0336 13.6284 26.0301 13.6241 26.028 13.6191L25.987 13.5308C25.9839 13.5239 25.9835 13.516 25.9861 13.5089C25.9886 13.5017 25.9939 13.4958 26.0007 13.4924C26.0077 13.4892 26.0156 13.4889 26.0228 13.4914C26.03 13.494 26.036 13.4992 26.0394 13.506L26.0804 13.5964C26.0823 13.5998 26.0833 13.6035 26.0835 13.6073C26.0837 13.6111 26.083 13.6149 26.0815 13.6184C26.0799 13.6219 26.0776 13.625 26.0746 13.6275C26.0717 13.63 26.0682 13.6317 26.0645 13.6326L26.0531 13.6372Z" fill="white"/>
<path d="M26.3357 13.6507C26.3305 13.6526 26.3248 13.6526 26.3197 13.6507C26.3151 13.6454 26.3125 13.6385 26.3125 13.6315C26.3125 13.6244 26.3151 13.6176 26.3197 13.6122L26.3858 13.5082C26.3913 13.5029 26.3986 13.5 26.4063 13.5C26.4139 13.5 26.4213 13.5029 26.4268 13.5082C26.4314 13.5135 26.434 13.5204 26.434 13.5274C26.434 13.5345 26.4314 13.5413 26.4268 13.5466L26.3607 13.6507C26.3568 13.6524 26.3525 13.6532 26.3482 13.6532C26.3439 13.6532 26.3396 13.6524 26.3357 13.6507Z" fill="white"/>
<path d="M26.9189 13.5921H26.707C26.6996 13.5915 26.6926 13.5882 26.6875 13.5827C26.6825 13.5772 26.6797 13.57 26.6797 13.5625C26.6797 13.5589 26.6804 13.5553 26.6818 13.552C26.6831 13.5487 26.6852 13.5457 26.6877 13.5432C26.6902 13.5406 26.6932 13.5386 26.6966 13.5372C26.6999 13.5359 26.7034 13.5352 26.707 13.5352H26.9189C26.9261 13.5352 26.9331 13.538 26.9382 13.5432C26.9433 13.5483 26.9462 13.5552 26.9462 13.5625C26.9465 13.5663 26.9461 13.5701 26.9448 13.5737C26.9436 13.5772 26.9416 13.5805 26.9391 13.5833C26.9365 13.5861 26.9334 13.5883 26.9299 13.5898C26.9264 13.5913 26.9227 13.5921 26.9189 13.5921Z" fill="white"/>
<path d="M27.0938 13.3418C27.0888 13.3416 27.084 13.3403 27.0796 13.3379C27.0753 13.3355 27.0716 13.3322 27.0687 13.3281C27.0641 13.3227 27.0615 13.3159 27.0615 13.3088C27.0615 13.3016 27.0641 13.2948 27.0687 13.2894L27.2145 13.2028C27.2212 13.1995 27.2289 13.1988 27.2361 13.2009C27.2433 13.203 27.2494 13.2078 27.2532 13.2142C27.2558 13.2168 27.2578 13.2198 27.2592 13.2231C27.2606 13.2264 27.2613 13.23 27.2613 13.2336C27.2613 13.2372 27.2606 13.2407 27.2592 13.2441C27.2578 13.2474 27.2558 13.2504 27.2532 13.253L27.1075 13.3395L27.0938 13.3418Z" fill="white"/>
<path d="M27.518 13.1258C27.5148 13.1273 27.5113 13.128 27.5078 13.128C27.5042 13.128 27.5007 13.1273 27.4975 13.1258C27.4922 13.1204 27.4893 13.1131 27.4893 13.1055C27.4893 13.0979 27.4922 13.0906 27.4975 13.0851L27.641 12.9675C27.6471 12.9642 27.6542 12.9631 27.6611 12.9644C27.6679 12.9658 27.674 12.9695 27.6784 12.9749C27.6827 12.9803 27.685 12.9871 27.6849 12.994C27.6847 13.0009 27.6821 13.0075 27.6775 13.0127L27.534 13.1281C27.5285 13.1291 27.5229 13.1283 27.518 13.1258Z" fill="white"/>
<path d="M24.686 13.0676C24.6794 13.0677 24.6731 13.0655 24.6681 13.0613C24.6631 13.0571 24.6597 13.0513 24.6586 13.0449C24.658 13.0413 24.6581 13.0376 24.6589 13.034C24.6597 13.0304 24.6612 13.0271 24.6633 13.0241C24.6654 13.0211 24.6681 13.0186 24.6712 13.0167C24.6743 13.0148 24.6778 13.0135 24.6814 13.013L24.8158 12.9902C24.8196 12.9892 24.8235 12.989 24.8273 12.9896C24.8312 12.9903 24.8348 12.9917 24.8381 12.9939C24.8413 12.996 24.844 12.9988 24.8461 13.0021C24.8481 13.0054 24.8495 13.0091 24.85 13.013C24.8506 13.0166 24.8506 13.0203 24.8498 13.0238C24.849 13.0274 24.8475 13.0308 24.8453 13.0337C24.8432 13.0367 24.8405 13.0392 24.8374 13.0411C24.8343 13.043 24.8308 13.0443 24.8272 13.0449L24.6905 13.0676H24.686Z" fill="white"/>
<path d="M24.3357 13.4651C24.3298 13.4651 24.3241 13.4634 24.3193 13.4601C24.3144 13.4569 24.3106 13.4523 24.3084 13.447L24.2286 13.2366C24.228 13.23 24.2297 13.2234 24.2334 13.2179C24.237 13.2123 24.2424 13.2082 24.2488 13.2061C24.2551 13.204 24.2619 13.2041 24.2682 13.2063C24.2745 13.2086 24.2798 13.2129 24.2833 13.2185L24.3608 13.4266C24.3622 13.43 24.363 13.4337 24.3629 13.4374C24.3629 13.4411 24.3621 13.4447 24.3606 13.4481C24.3592 13.4515 24.357 13.4546 24.3543 13.4571C24.3515 13.4596 24.3483 13.4616 24.3448 13.4628L24.3357 13.4651Z" fill="white"/>
<path d="M18.3081 18.3105L22.2443 15.6525C22.2443 15.6525 22.4721 13.7547 22.6248 13.5421C22.9264 13.2475 23.25 12.976 23.5929 12.73C23.5929 12.73 25.0257 13.1552 25.3606 13.3543C25.6954 13.5534 25.331 14.1144 25.2057 15.0486C25.13 15.4767 24.913 15.8676 24.5888 16.1597C24.2646 16.4517 23.8517 16.6283 23.4152 16.6614C23.4152 16.6614 21.0416 20.9209 19.791 21.7397C18.5404 22.5586 15.9299 20.6313 18.3081 18.3105Z" fill="#E4897B"/>
<path opacity="0.2" d="M37.0848 16.673C36.6634 16.7205 36.2078 16.7567 35.7818 16.7612C35.4698 15.7721 35.009 14.8356 34.415 13.9834C34.415 13.9834 36.8251 15.1778 37.0848 16.673Z" fill="black"/>
<path opacity="0.2" d="M22.7301 21.4997C22.7301 21.4657 22.7301 21.4295 22.7301 21.3956C22.7165 20.8504 22.7028 20.2646 22.6914 19.6674C22.9192 18.8101 23.147 17.9867 23.3907 17.2153C23.409 17.3081 24.0035 20.0859 22.7301 21.4997Z" fill="black"/>
<path d="M33.1878 16.5955C33.5773 17.8418 33.0147 19.1244 31.9304 19.4569C30.846 19.7895 29.6524 19.0498 29.2652 17.8034C28.8779 16.557 29.4383 15.2744 30.5226 14.9419C31.6069 14.6094 32.7982 15.3491 33.1878 16.5955Z" fill="#FF9446"/>
<path opacity="0.2" d="M32.5299 16.7993C32.7577 17.5548 32.4252 18.3284 31.7691 18.5298C31.1131 18.7311 30.3909 18.2832 30.1563 17.5299C29.9217 16.7767 30.2611 15.9985 30.9172 15.7972C31.5732 15.5959 32.2953 16.0438 32.5299 16.7993Z" fill="black"/>
<path d="M28.4105 15.0259C28.3543 15.1803 28.3154 15.3403 28.2944 15.5032C28.2769 15.614 28.2663 15.7258 28.2625 15.838C28.2442 16.3288 28.5654 18.0321 28.5654 18.0321L28.8547 18.0186C28.9882 18.6399 29.0863 19.2683 29.1486 19.9006C29.1495 19.9149 29.1532 19.9288 29.1595 19.9417C29.1658 19.9545 29.1746 19.966 29.1854 19.9755C29.1962 19.9849 29.2087 19.9922 29.2224 19.9968C29.236 20.0014 29.2504 20.0033 29.2648 20.0024C29.2792 20.0021 29.2935 19.9989 29.3067 19.993C29.3199 19.9871 29.3317 19.9786 29.3415 19.9681C29.3513 19.9575 29.3588 19.9451 29.3636 19.9315C29.3685 19.918 29.3705 19.9036 29.3695 19.8893C29.2944 19.2672 28.9254 16.4057 28.4105 15.0259Z" fill="#FF9446"/>
<path d="M33.5886 15.9236C33.6468 15.9124 33.6982 15.8791 33.7321 15.8308C33.7522 15.8017 33.7651 15.7684 33.7698 15.7334C33.7746 15.6984 33.771 15.6629 33.7595 15.6295C33.6774 15.3807 33.2469 14.6342 33.2082 14.6614C33.1695 14.6885 33.5157 15.444 33.5977 15.6838C33.6043 15.6998 33.6043 15.7176 33.5977 15.7336C33.5928 15.7412 33.5861 15.7474 33.5781 15.7517C33.5702 15.7561 33.5612 15.7584 33.5522 15.7585H33.5362C33.338 15.1975 32.9804 14.6455 32.9417 14.6749C32.9029 14.7043 33.1695 15.2291 33.3563 15.7652C33.314 15.7671 33.2723 15.7551 33.2377 15.7309C33.203 15.7068 33.1775 15.6719 33.1649 15.6318C33.0168 15.1794 32.6979 14.7111 32.6569 14.727C32.6159 14.7428 32.8597 15.2427 33.0009 15.677C33.0251 15.7537 33.0742 15.8202 33.1406 15.866C33.207 15.9119 33.2869 15.9345 33.3676 15.9304H33.4155C33.8264 17.107 34.0791 18.3323 34.1672 19.5745C34.1689 19.5965 34.1791 19.617 34.1957 19.6318C34.2122 19.6465 34.2338 19.6544 34.256 19.6537C34.2673 19.6531 34.2784 19.6503 34.2885 19.6454C34.2987 19.6405 34.3078 19.6337 34.3152 19.6252C34.3226 19.6168 34.3283 19.607 34.3318 19.5963C34.3354 19.5857 34.3367 19.5744 34.3358 19.5632C34.2423 18.3236 33.9913 17.1006 33.5886 15.9236Z" fill="#FF9446"/>
<path d="M59.9456 59.9977H61.5105L61.7679 22.2373H59.6904L59.9456 59.9977Z" fill="#FF9446"/>
<path opacity="0.4" d="M59.6885 22.3008L59.7295 28.5757L59.9459 59.9978H61.5108L61.7272 28.5757L61.766 22.3008H59.6885Z" fill="white"/>
<path opacity="0.2" d="M59.6885 22.3008L59.7295 28.6458H61.7272L61.766 22.3008H59.6885Z" fill="black"/>
<path d="M43.3223 59.9977H44.8872L47.7005 22.2373H45.623L43.3223 59.9977Z" fill="#FF9446"/>
<path opacity="0.5" d="M43.3223 59.9978H44.8872L47.5638 24.1692L47.7028 22.3008H45.623L45.5114 24.1692L43.3223 59.9978Z" fill="white"/>
<path opacity="0.2" d="M45.5117 24.0765H47.5641L47.7031 22.3008H45.6233L45.5117 24.0765Z" fill="black"/>
<path d="M76.5672 59.9977H78.1344L75.8314 22.2373H73.7539L76.5672 59.9977Z" fill="#FF9446"/>
<path opacity="0.5" d="M73.7559 22.3008L73.8925 24.1692L76.5691 59.9978H78.1341L75.945 24.1692L75.8333 22.3008H73.7559Z" fill="white"/>
<path opacity="0.2" d="M75.8333 22.3008H73.7559L73.8925 24.0765H75.945L75.8333 22.3008Z" fill="black"/>
<path d="M76.9862 23.2124L44.4708 23.2124C44.3403 23.2124 44.2151 23.1609 44.1228 23.0693C44.0306 22.9777 43.9787 22.8534 43.9787 22.7238V21.2648L77.4805 21.2648V22.7238C77.4805 22.7881 77.4677 22.8519 77.4428 22.9113C77.4179 22.9707 77.3815 23.0247 77.3355 23.0701C77.2896 23.1155 77.2351 23.1514 77.1751 23.1759C77.1152 23.2003 77.051 23.2127 76.9862 23.2124Z" fill="#FF9446"/>
<path opacity="0.6" d="M76.9862 23.2124L44.4708 23.2124C44.3403 23.2124 44.2151 23.1609 44.1228 23.0693C44.0306 22.9777 43.9787 22.8534 43.9787 22.7238V21.2648L77.4805 21.2648V22.7238C77.4805 22.7881 77.4677 22.8519 77.4428 22.9113C77.4179 22.9707 77.3815 23.0247 77.3355 23.0701C77.2896 23.1155 77.2351 23.1514 77.1751 23.1759C77.1152 23.2003 77.051 23.2127 76.9862 23.2124Z" fill="white"/>
<path opacity="0.2" d="M43.9787 22.2373L77.4805 22.2373V21.2624L43.9787 21.2624V22.2373Z" fill="black"/>
<path d="M43.0063 21.5178H78.4466C78.5934 21.5178 78.7342 21.4599 78.838 21.3568C78.9418 21.2537 79.0002 21.1139 79.0002 20.9681C79.0002 20.8224 78.9418 20.6825 78.838 20.5795C78.7342 20.4764 78.5934 20.4185 78.4466 20.4185H43.0063C42.9337 20.4188 42.8617 20.4333 42.7947 20.4612C42.7276 20.4891 42.6668 20.5298 42.6156 20.5811C42.5644 20.6323 42.5239 20.6931 42.4963 20.7599C42.4688 20.8267 42.4548 20.8982 42.4551 20.9704C42.4557 21.1154 42.514 21.2543 42.6172 21.3568C42.7205 21.4594 42.8603 21.5172 43.0063 21.5178Z" fill="#FF9446"/>
<path opacity="0.6" d="M43.0063 21.5178H78.4466C78.5934 21.5178 78.7342 21.4599 78.838 21.3568C78.9418 21.2537 79.0002 21.1139 79.0002 20.9681C79.0002 20.8224 78.9418 20.6825 78.838 20.5795C78.7342 20.4764 78.5934 20.4185 78.4466 20.4185H43.0063C42.9337 20.4188 42.8617 20.4333 42.7947 20.4612C42.7276 20.4891 42.6668 20.5298 42.6156 20.5811C42.5644 20.6323 42.5239 20.6931 42.4963 20.7599C42.4688 20.8267 42.4548 20.8982 42.4551 20.9704C42.4557 21.1154 42.514 21.2543 42.6172 21.3568C42.7205 21.4594 42.8603 21.5172 43.0063 21.5178Z" fill="white"/>
<path d="M76.7514 20.4185L71.3914 31.0795L62.9493 20.4185H58.4504L51.2065 31.0795L45.2861 20.4185H76.7514Z" fill="#FF9446"/>
<path d="M58.9266 18.186H57.061C56.6962 18.186 56.4004 18.4797 56.4004 18.842V18.8443C56.4004 19.2066 56.6962 19.5003 57.061 19.5003H58.9266C59.2915 19.5003 59.5872 19.2066 59.5872 18.8443V18.842C59.5872 18.4797 59.2915 18.186 58.9266 18.186Z" fill="#FF9446"/>
<path d="M62.6991 18.186H60.8335C60.4686 18.186 60.1729 18.4797 60.1729 18.842V18.8443C60.1729 19.2066 60.4686 19.5003 60.8335 19.5003H62.6991C63.0639 19.5003 63.3597 19.2066 63.3597 18.8443V18.842C63.3597 18.4797 63.0639 18.186 62.6991 18.186Z" fill="#FF9446"/>
<path d="M74.4241 18.582H55.2051V20.4211H74.4241V18.582Z" fill="#263238"/>
<path opacity="0.1" d="M74.4241 18.582H55.2051V20.4211H74.4241V18.582Z" fill="white"/>
<path opacity="0.2" d="M63.9706 18.582H55.2051V20.4211H63.9706V18.582Z" fill="white"/>
<path d="M51.7215 19.3579C51.7227 19.3722 51.7227 19.3866 51.7215 19.4009C51.7128 19.5461 51.6503 19.6831 51.5461 19.7854C51.4316 19.8982 51.2769 19.9616 51.1156 19.9618H48.701C48.5769 19.962 48.4557 19.9244 48.3539 19.854C48.2521 19.7836 48.1744 19.6839 48.1315 19.5682C48.1069 19.5008 48.0938 19.4297 48.0928 19.3579C48.0925 19.2785 48.108 19.1998 48.1385 19.1264C48.1689 19.053 48.2137 18.9863 48.2702 18.9301C48.3268 18.874 48.394 18.8295 48.4679 18.7993C48.5418 18.769 48.621 18.7536 48.701 18.7539H51.1111C51.2726 18.7539 51.4275 18.8175 51.5419 18.9307C51.6564 19.0439 51.7209 19.1975 51.7215 19.3579Z" fill="#FF9446"/>
<path d="M51.7215 19.3574C51.7227 19.3717 51.7227 19.3861 51.7215 19.4004C51.6602 19.3697 51.5901 19.3609 51.523 19.3753C51.4558 19.3897 51.3957 19.4265 51.3525 19.4795C51.2158 19.6379 51.1384 19.4795 50.9357 19.3574C50.7329 19.2352 50.5507 19.3348 50.3707 19.5451C50.1908 19.7555 50.0791 19.5587 49.9151 19.3574C49.7511 19.1561 49.4185 19.3574 49.25 19.5451C49.0814 19.7329 48.9698 19.4795 48.8331 19.3574C48.6964 19.2352 48.5393 19.3574 48.3137 19.5451C48.2907 19.5668 48.2613 19.5807 48.2297 19.5848C48.1982 19.5888 48.1662 19.5829 48.1383 19.5678C48.1137 19.5003 48.1006 19.4292 48.0996 19.3574C48.0993 19.278 48.1148 19.1993 48.1453 19.1259C48.1758 19.0525 48.2205 18.9858 48.2771 18.9297C48.3336 18.8735 48.4008 18.829 48.4747 18.7988C48.5486 18.7685 48.6279 18.7531 48.7078 18.7534H51.1111C51.2726 18.7534 51.4275 18.817 51.5419 18.9302C51.6564 19.0434 51.7209 19.197 51.7215 19.3574Z" fill="#263238"/>
<path d="M52.0177 20.4186H48.348L47.209 19.8599H53.1567L52.0177 20.4186Z" fill="#FF9446"/>
<path opacity="0.6" d="M52.0177 20.4186H48.348L47.209 19.8599H53.1567L52.0177 20.4186Z" fill="white"/>
<path d="M53.9332 20.0299H46.6119C46.567 20.0293 46.5241 20.0112 46.4926 19.9794C46.461 19.9477 46.4434 19.9049 46.4434 19.8603C46.4434 19.8159 46.4611 19.7733 46.4927 19.7419C46.5243 19.7105 46.5672 19.6929 46.6119 19.6929H53.9332C53.978 19.6929 54.0208 19.7105 54.0524 19.7419C54.0841 19.7733 54.1018 19.8159 54.1018 19.8603C54.1018 19.9049 54.0841 19.9477 54.0526 19.9794C54.021 20.0112 53.9782 20.0293 53.9332 20.0299Z" fill="#FF9446"/>
<path opacity="0.7" d="M53.9332 20.0299H46.6119C46.567 20.0293 46.5241 20.0112 46.4926 19.9794C46.461 19.9477 46.4434 19.9049 46.4434 19.8603C46.4434 19.8159 46.4611 19.7733 46.4927 19.7419C46.5243 19.7105 46.5672 19.6929 46.6119 19.6929H53.9332C53.978 19.6929 54.0208 19.7105 54.0524 19.7419C54.0841 19.7733 54.1018 19.8159 54.1018 19.8603C54.1018 19.9049 54.0841 19.9477 54.0526 19.9794C54.021 20.0112 53.9782 20.0293 53.9332 20.0299Z" fill="white"/>
</svg>
