<svg width="361" height="596" fill="none" xmlns="http://www.w3.org/2000/svg"><path d="M240.883 163.523a119.3 119.3 0 0 0-2.559-1.599l.594-.99 2.589 1.63-.624.959ZM203.685 316.154h-1.097v-1.143a51.007 51.007 0 0 0 6.093-.228l.122 1.142c-1.661.122-3.397.229-5.118.229Zm11.302-1.249-.243-1.112a40.999 40.999 0 0 0 5.818-1.782l.412 1.066a41.898 41.898 0 0 1-5.987 1.797v.031Zm11.623-4.57-.564-.99a37.766 37.766 0 0 0 4.981-3.473l.731.868a37.527 37.527 0 0 1-5.148 3.61v-.015Zm9.642-7.921-.838-.777a42.554 42.554 0 0 0 3.763-4.783l.944.64a43.225 43.225 0 0 1-3.869 4.951v-.031Zm6.976-10.343-1.035-.487a35.378 35.378 0 0 0 2.117-5.697l1.097.304a35.94 35.94 0 0 1-2.179 5.895v-.015Zm3.291-12.064-1.143-.091c0-.823.107-1.661.107-2.468a31.076 31.076 0 0 0-.198-3.382 30.875 30.875 0 0 1-3.534-.442l.198-1.127c1.86.336 3.746.509 5.636.518h.396v1.143h-1.554a30.18 30.18 0 0 1 .183 3.32c.015.823-.03 1.691-.091 2.544v-.015Zm7.723-6.611-.259-1.112a25.352 25.352 0 0 0 5.651-2.072l.518 1.021a26.665 26.665 0 0 1-5.91 2.178v-.015Zm-18.554-1.417a39.487 39.487 0 0 1-5.712-2.589l.564-.99a37.824 37.824 0 0 0 5.529 2.498l-.381 1.081Zm8.195-4.021a27.078 27.078 0 0 0-2.62-5.438l.96-.609a27.358 27.358 0 0 1 2.742 5.666l-1.082.381Zm21.509-.244-.731-.868a30.918 30.918 0 0 0 4.219-4.341l.884.716a31.435 31.435 0 0 1-4.372 4.539v-.046Zm-40.58-1.828-.32-.304a13.809 13.809 0 0 1-3.518-4.799l1.066-.426a12.574 12.574 0 0 0 3.229 4.387l.305.274-.762.868Zm48.486-7.784-.975-.594a68.535 68.535 0 0 0 2.924-5.362l1.036.503a66.252 66.252 0 0 1-2.985 5.453Zm-35.827-.228a27.116 27.116 0 0 0-4.57-3.564l-.229-.153.594-.975.244.153a28.005 28.005 0 0 1 4.707 3.732l-.746.807Zm-15.126-2.94-.945-.64a6.965 6.965 0 0 1 5.758-2.924v1.142a5.931 5.931 0 0 0-4.813 2.422Zm56.36-8.028-1.066-.396a58.753 58.753 0 0 0 1.813-5.834l1.096.275a52.468 52.468 0 0 1-1.828 5.955h-.015Zm3.047-12.079-1.143-.152c.272-2.021.43-4.055.472-6.093h1.143a56.471 56.471 0 0 1-.472 6.245Zm-.884-12.338a58.97 58.97 0 0 0-.868-6.093l1.127-.229c.398 2.04.693 4.099.884 6.169l-1.143.153Zm-2.361-11.973a62.316 62.316 0 0 0-2.056-5.773l1.066-.427c.792 1.935 1.523 3.915 2.087 5.865l-1.097.335Zm-4.57-11.348a70.168 70.168 0 0 0-3.046-5.347l.975-.594a73.83 73.83 0 0 1 3.046 5.423l-.975.518Zm-6.413-10.45a85.673 85.673 0 0 0-3.747-4.859l.884-.731a87.925 87.925 0 0 1 3.793 4.92l-.93.67Zm-7.799-9.475c-1.386-1.523-2.848-2.94-4.341-4.341l.777-.838c1.523 1.432 3.046 2.91 4.387 4.402l-.823.777Zm-8.941-8.423c-1.523-1.295-3.184-2.575-4.814-3.793l.671-.914a91.423 91.423 0 0 1 4.874 3.838l-.731.869ZM196.206 315.606a28.536 28.536 0 0 1-3.046-.549l.274-1.112s1.097.275 2.924.533l-.152 1.128Z" fill="#263238"/><path d="M180.836 313.336c-.716 6.093 11.729 9.505 12.673 1.523.945-7.981-11.957-7.662-12.673-1.523Z" fill="#263238"/><path d="M197.135 323.42c-1.158 2.3-5.255 2.62-9.49-.335a28.398 28.398 0 0 1-7.159-8.028 28.25 28.25 0 0 1 10.663.929c5.011 1.691 7.205 5.103 5.986 7.434Z" fill="#EBEBEB"/><path d="M180.531 315.057c2.407 1.082 4.768 2.255 7.129 3.412a152.445 152.445 0 0 1 6.991 3.672c-2.406-1.082-4.767-2.255-7.128-3.413a150.967 150.967 0 0 1-6.992-3.671Z" fill="#263238"/><path d="M191.59 323.374a21.068 21.068 0 0 1-1.524-1.995c-.46-.69-.877-1.407-1.249-2.148a21.196 21.196 0 0 1 1.524 1.995c.463.688.88 1.406 1.249 2.148ZM186.472 318.028a24.186 24.186 0 0 1 2.544-.518 24.682 24.682 0 0 1 2.604-.229c-1.687.42-3.411.67-5.148.747ZM185.147 319.033a5.72 5.72 0 0 1-1.097-2.224 5.706 5.706 0 0 1 1.097 2.224Z" fill="#263238"/><path d="M199.145 307.471c-.594-2.513-4.493-3.762-9.292-1.873a28.41 28.41 0 0 0-8.834 6.169 28.28 28.28 0 0 0 10.662 1.523c5.134-.426 8.074-3.229 7.464-5.819Z" fill="#EBEBEB"/><path d="M181.019 311.767c2.589-.487 5.163-1.097 7.722-1.691 2.56-.594 5.119-1.234 7.617-1.95-2.575.488-5.149 1.097-7.708 1.691a169.29 169.29 0 0 0-7.631 1.95Z" fill="#263238"/><path d="M193.708 306.222c-.663.472-1.299.98-1.904 1.524a23.927 23.927 0 0 0-1.721 1.797 17.403 17.403 0 0 0 1.904-1.523 21.177 21.177 0 0 0 1.721-1.798ZM187.462 310.244a24.802 24.802 0 0 0 4.844 1.904 23.734 23.734 0 0 0-4.844-1.904ZM186.472 308.964a5.333 5.333 0 0 0-.898.853 6.263 6.263 0 0 0-.686 1.051 5.39 5.39 0 0 0 .899-.868c.277-.311.507-.66.685-1.036Z" fill="#263238"/><path d="M180.836 313.336a2.228 2.228 0 0 1 1.881 1.598 2.223 2.223 0 1 1-4.349.367 2.24 2.24 0 0 1 2.468-1.965Z" fill="#455A64"/><path d="M181.354 308.903a2.232 2.232 0 1 1-.518 4.433 2.232 2.232 0 0 1 .518-4.433Z" fill="#455A64"/><path d="M43.286 456.766s-32.476 65.028-32.491 65.028c-2.681 13.42-4.783 25.256-5.316 31.471a.24.24 0 0 0 0 .106 9.478 9.478 0 0 0 .167 4.342.24.24 0 0 0 0 .106c3.458 3.504 110.178 28.074 114.245 27.678 4.067-.396 3.199-11.866-.183-16.116-3.382-4.25-40.046-31.989-40.046-31.989l31.744-65.134-68.12-15.492Z" fill="#D3766A"/><path d="M118.276 585.558c-4.007.396-109.127-24.19-112.57-27.678a.383.383 0 0 1 0-.107 9.412 9.412 0 0 1-.182-4.341.153.153 0 0 1 0-.107c.518-6.214 2.635-18.05 5.3-31.485l7.77-15.568 67.343 18.462-6.215 12.765s35.035 27.677 38.432 31.988c3.397 4.311 4.143 15.69.122 16.071Z" fill="#EBEBEB"/><path d="M119.738 583.852c-4.067.304-111.045-26.962-114.457-30.588-1.31-1.355 1.751-17.182 6.001-36.192l.137-.594 69.217 16.832-.32 1.157s36.269 28.76 39.605 33.147c3.336 4.387 3.869 15.948-.183 16.238Z" fill="#263238"/><path d="M119.57 579.389c-17.913-5.027-90.664-23.672-108.76-27.297-.153 0-.183.076 0 .122 17.654 5.377 90.557 23.427 108.73 27.418.35.137.411-.137.03-.243ZM86.059 536.158c-6.763-3.138-15.72-4.265-22.422-.579-.26.138 0 .503.182.488 7.341-.46 14.71-.133 21.981.975a.473.473 0 0 0 .259-.884ZM90.384 540.546c-6.748-3.123-15.704-4.25-22.422-.579-.26.137 0 .502.198.502a102.07 102.07 0 0 1 21.98.975.473.473 0 0 0 .474-.669.466.466 0 0 0-.23-.229ZM94.727 544.948c-6.764-3.138-15.72-4.265-22.423-.594-.259.152 0 .517.198.502 7.336-.46 14.7-.133 21.966.975a.472.472 0 0 0 .259-.883Z" fill="#fff"/><path d="M122.343 580.439c1.721 1.219-.335 7.541-1.843 7.708-1.508.168-118.022-30.084-119.866-31.044-1.843-.96.686-7.875 3.047-7.616 2.361.259 118.662 30.952 118.662 30.952Z" fill="#FFC727"/><path d="M26.027 532.96c-6.764-5.85-15.873 4.661-9.14 10.525 6.733 5.865 15.918-4.661 9.14-10.525Z" fill="#fff"/><path d="m18.791 501.078 78.052 19.68s72.751-131.289 71.121-164.664c-2.239-46.033-56.284-187.574-56.284-187.574H46.972s42.94 153.011 43.535 178.754c.258 13.466-71.716 153.804-71.716 153.804Z" fill="#455A64"/><path d="M100.179 504.916c-4.158-1.66-41.31-12.384-69.034-18.279a.153.153 0 0 0 0 .29c8.729 3.046 63.81 17.563 68.973 18.279.122.045.244-.168.061-.29ZM95.869 314.402c-5.149-21.6-10.663-43.138-16.451-64.54-5.789-21.402-11.989-43.002-18.798-64.236-.822-2.605-1.69-5.179-2.528-7.769a.327.327 0 0 0-.404-.221.327.327 0 0 0-.22.404c6.092 21.158 12.185 42.271 17.959 63.505 5.773 21.234 11.272 42.529 16.45 63.977a1422.64 1422.64 0 0 1 3.794 15.902 142.215 142.215 0 0 1 3.32 16.558 42.886 42.886 0 0 1-1.081 15.934 89.46 89.46 0 0 1-5.743 14.836c-9.332 20.26-18.66 40.524-27.982 60.793-9.322 20.321-10.83 24.951-19.803 45.439-1.111 2.544-2.223 5.088-3.29 7.617 0 .167.168.319.26.137 10.205-20.077 11.774-24.906 21.325-45.348 9.55-20.442 19.04-41.128 28.515-61.707 4.265-9.292 9.277-18.767 9.917-29.155.64-10.846-2.773-21.722-5.24-32.126Z" fill="#263238"/><path d="m99.402 482.479 2.498 71.593c.412 13.709 1.006 25.697 1.905 31.866a.242.242 0 0 0 0 .107 9.59 9.59 0 0 0 1.127 4.189l.091.091c4.159 2.636 113.666 2.575 117.489 1.28 3.824-1.295.442-12.262-3.808-15.659-4.25-3.397-46.2-22.118-46.2-22.118l-3.184-71.517-69.918.168Z" fill="#D3766A"/><path d="M101.383 539.418s.518 14.654.518 14.7c.411 13.709 1.005 25.697 1.904 31.866a.242.242 0 0 0 0 .107 18.263 18.263 0 0 0 1.127 4.189l.091.091c4.159 2.635 113.666 2.575 117.489 1.28 3.824-1.295.442-12.263-3.808-15.659-4.25-3.397-46.2-22.118-46.2-22.118l-.32-14.913-70.801.457Z" fill="#EBEBEB"/><path d="M222.574 591.529c-3.87 1.234-114.245-.472-118.419-3.214-1.523-1.021-2.285-17.106-2.559-36.558v-.61l71.228.305v1.219s41.966 19.543 46.216 23.031c4.249 3.489 7.418 14.639 3.534 15.827Z" fill="#263238"/><path d="M221.401 587.294c-18.599-.746-93.696-1.995-112.143-1.31-.152 0-.152.107 0 .107 18.416 1.142 93.528 1.797 112.143 1.523.38-.091.396-.32 0-.32ZM178.764 552.945c-7.296-1.523-16.283-.503-21.95 4.57-.228.198 0 .502.305.441a103.933 103.933 0 0 1 21.599-4.158.457.457 0 0 0 .046-.853ZM184.004 556.204c-7.311-1.523-16.283-.487-21.95 4.646-.228.198 0 .503.29.427a102.983 102.983 0 0 1 21.615-4.143.472.472 0 0 0 .045-.93ZM189.229 559.48c-7.296-1.524-16.268-.503-21.95 4.569-.213.198 0 .503.305.442a104.073 104.073 0 0 1 21.6-4.158.45.45 0 0 0 .316-.411.455.455 0 0 0-.271-.442Z" fill="#fff"/><path d="M224.325 587.599c1.965.792 1.432 7.418 0 7.921-1.432.503-121.861-1.889-123.826-2.376-1.965-.488-1.173-7.815 1.219-8.165 2.391-.35 122.607 2.62 122.607 2.62Z" fill="#FFC727"/><path d="M119.631 563.76c-7.936-4.128-14.364 8.21-6.413 12.338 7.952 4.128 14.364-8.21 6.413-12.338Z" fill="#fff"/><path d="M110.873 168.398c-.289 1.325-16.42 65.104-18.431 66.292-2.285 1.356 58.615 83.292 65.835 123.521 4.57 25.728 15.233 175.693 15.233 175.693H95.854s-7.617-127.36-10.145-169.326c-.99-16.283-62.073-91.563-67.877-141.754-1.828-15.812 9.536-54.487 9.536-54.487l83.505.061Z" fill="#455A64"/><path d="M93.888 473.309c-.913-21.097-1.751-42.24-3.29-63.307-.868-11.942-2.574-23.504-3.762-35.4 0-.625-.564-.777-.549-.138.549 21.189 2.3 42.149 3.428 63.322 1.127 21.174 2.209 26.109 3.412 47.221.67 11.943 1.264 23.885 2.193 35.812a.152.152 0 0 0 .234.076.151.151 0 0 0 .056-.076c.046-21.204-.792-26.337-1.722-47.51ZM158.353 359.216a112.73 112.73 0 0 0-3.23-16.496 84.297 84.297 0 0 0-6.291-15.157c-5.286-10.145-11.302-19.955-17.106-29.81-5.804-9.856-11.851-19.924-17.975-29.765-3.442-5.524-6.9-11.043-10.373-16.557-3.534-5.56-7.266-11.014-10.906-16.497a.204.204 0 0 0-.282-.069.205.205 0 0 0-.069.282c5.94 9.962 11.821 19.939 17.761 29.901 5.941 9.963 11.79 19.955 17.64 29.948 5.849 9.992 11.531 19.68 17.045 29.673a104.27 104.27 0 0 1 6.992 14.806 90.918 90.918 0 0 1 3.915 16.284c2.071 12.902 3.762 25.895 6.352 38.675a.15.15 0 0 0 .144.105.153.153 0 0 0 .145-.105c-.807-11.759-2.209-23.534-3.762-35.218ZM166.67 520.591c-4.433-.579-38.265-1.752-66.567-.534-.183 0-.167.275 0 .29 9.216.807 61.327 1.173 66.521.564.137-.016.198-.29.046-.32Z" fill="#263238"/><path d="M102.571 230.334a144.672 144.672 0 0 0-22.849 10.662.259.259 0 1 0 .213.473c7.708-3.321 15.584-6.49 23.108-10.222a.512.512 0 0 0-.08-.947.514.514 0 0 0-.392.034ZM104.901 177.537c0-.258-.487-.319-.487 0a256.47 256.47 0 0 1-1.295 25.774c-.366 3.976-3.564 25.895-10.45 24.372-1.157-.274-1.736-1.401-1.919-3.153.02-2.274.326-4.536.914-6.733.762-4.57 1.371-9.139 1.767-13.846.808-8.649.716-17.358-.274-25.987a.23.23 0 0 0-.22-.17.23.23 0 0 0-.22.17c.198 11.988-.505 23.975-2.104 35.858-.868 5.712-3.747 14.318 2.24 15.232 5.986.914 10.022-13.511 10.754-17.456a131.695 131.695 0 0 0 1.294-34.061Z" fill="#263238"/><path d="M92.852 228.155a35.615 35.615 0 0 0-1.523 4.57 10.47 10.47 0 0 0-.64 3.732.257.257 0 0 0 .2.216.26.26 0 0 0 .273-.109 12.795 12.795 0 0 0 1.599-3.641c.533-1.416 1.081-2.803 1.523-4.235a.763.763 0 1 0-1.432-.533ZM96.097 385.051c-.731-10.846-.685-22.285-5.3-32.339a107.92 107.92 0 0 0-8.44-14.075 1034.689 1034.689 0 0 1-9.322-14.516c-12.186-19.452-23.946-39.301-34.654-59.636-5.164-9.795-9.917-19.909-12.506-30.724a98.252 98.252 0 0 1-1.417-34.67c.366-2.879.762-5.742 1.234-8.606a.168.168 0 0 0-.32-.076 113.498 113.498 0 0 0-2.544 33.512 93.496 93.496 0 0 0 8.942 30.906c4.722 10.222 10.343 20.062 15.887 29.856a923.554 923.554 0 0 0 17.655 30.024c6.093 9.84 12.369 19.482 18.66 29.17a55.497 55.497 0 0 1 7.418 14.913 81.358 81.358 0 0 1 2.376 16.939c1.524 23.976 7.617 103.688 9.78 127.542.259 3.047.533 6.093.822 9.14a.218.218 0 0 0 .036.185.21.21 0 0 0 .17.084.21.21 0 0 0 .209-.172.212.212 0 0 0-.003-.097c-.914-23.946-7.114-103.46-8.683-127.36Z" fill="#263238"/><path d="M58.823 189.419c0-.168-.274-.107-.274 0-.228 6.656 0 13.542-2.605 19.802-2.346 5.773-7.068 9.825-12.354 12.856a94.226 94.226 0 0 1-9.49 4.646c-.228.107-.136.473.122.396 6.093-1.949 12.385-4.067 17.487-8.149 5.454-4.387 7.845-10.739 8.104-17.594a56.757 56.757 0 0 0-.99-11.957Z" fill="#263238"/><path d="M92.624 80.917c8.713 26.749 32.247 72.309 40.655 77.808 7.449 4.859 42.499-.563 57.884-4.265 5.728-1.386-7.159-45.043-13.267-43.443-7.327 1.919-29.155 6.839-30.74 5.621-1.584-1.219-23.595-28.333-39.193-44.297-14.197-14.456-18.63-1.538-15.34 8.576Z" fill="#D3766A"/><path d="M187.797 154.795c2.94-.366 27.815-1.523 39.224-7.723 6.093-3.305 21.646-14.242 20.092-18.172-1.417-3.58-6.413-1.63-6.413-1.63s6.87-4.981 4.859-9.947c-2.011-4.966-10.312-1.234-10.312-1.234s6.687-5.636 4.326-10.434c-2.361-4.799-10.069.335-10.069.335s6.352-4.859 2.742-7.997c-4.357-3.778-15.065 6.519-22.301 8.926-1.645.548-34.06 8.743-34.06 8.743l11.912 39.133Z" fill="#D3766A"/><path d="M229.23 105.853c-7.891 7.54-12.658 9.474-23.199 11.607-.198 0-.183.366 0 .335 10.51-1.142 16.832-2.711 23.549-11.577.366-.441.015-.731-.35-.365ZM234.988 115.906c-8.881 7.129-14.03 9.262-24.906 12.308-.152 0-.091.32.077.29 10.906-2.102 17.182-3.808 25.118-12.095.366-.365.122-.822-.289-.503ZM240.167 127.391c-9.139 6.276-14.638 8.881-25.575 10.48a.197.197 0 0 0-.198.198.197.197 0 0 0 .198.198c11.317-.548 18.279-3.731 25.697-10.571.548-.426.442-.685-.122-.305Z" fill="#263238"/><path d="M167.386 117.064s9.064-10.252 14.029-13.877c4.966-3.625 28.485-10.328 30.222-5.331 2.239 6.458-10.571 12.993-17.259 15.369 0 0 5.195 14.928-3.046 21.6-8.241 6.672-23.946-17.761-23.946-17.761Z" fill="#D3766A"/><path d="M211.682 99.851c-2.209 7.357-11.196 9.916-17.518 12.704a.648.648 0 0 0-.377.449.656.656 0 0 0 .134.572c1.767 6.397 2.376 15.933-2.102 21.325-.122.153.076.366.228.229 5.59-5.118 5.743-14.547 3.367-21.432 6.534-2.758 15.43-5.728 16.329-13.816.015-.03-.046-.03-.061-.03Z" fill="#263238"/><path d="m187.782 162.305-11.485-52.309-28.424 5.164c-11.212-12.841-33.619-38.508-42.652-46.216-10.663-9.048-17.64-2.254-13.71 11.455 8.882 31.334 34.853 77.336 41.647 81.677 9.855 6.322 54.624.229 54.624.229Z" fill="#FFC727"/><path opacity=".1" d="M147.202 131.078c1.407.306 2.841.474 4.28.503 3.047.411 4.387 4.905 1.615 6.611a10.944 10.944 0 0 1-9.81.837c-3.046-1.188-5.621-4.143-4.966-7.616a3.81 3.81 0 0 1 6.093-2.346 14.218 14.218 0 0 0 2.788 2.011Zm-7.86-12.445c-1.097 5.179 6.916 9.627 11.013 6.87a2.765 2.765 0 0 0 1.092-2.13 2.756 2.756 0 0 0-.985-2.181c-1.204-.975-2.209-1.127-3.275-2.011a4.887 4.887 0 0 1-.975-1.02 7.283 7.283 0 0 0-2.27-2.041 3.33 3.33 0 0 0-2.91.14 3.338 3.338 0 0 0-1.69 2.373Zm-12.78.274c-1.645 2.148-.411 5.377 1.036 7.327a6.604 6.604 0 0 0 5.986 2.909 2.223 2.223 0 0 0 1.127-3.899 7.066 7.066 0 0 1-2.132-2.651c-.716-1.614-1.188-3.701-3.047-4.402a2.599 2.599 0 0 0-2.97.716Zm33.74 33.877c-2.148 4.342 4.387 9.277 8.347 8.424 1.326-.289 2.605-2.026 1.432-3.275-.944-1.005-2.071-1.797-2.955-2.864-1.081-1.294-1.675-2.955-3.366-3.61a2.683 2.683 0 0 0-3.458 1.325ZM98.945 99.547a5.819 5.819 0 0 0-1.523-1.844 208.797 208.797 0 0 0 2.696 6.566 8.986 8.986 0 0 0-1.173-4.723Zm8.485-4.57a18.054 18.054 0 0 0-4.205-10.221c-1.827-2.361-4.996-6.093-8.347-5.286a1.737 1.737 0 0 0-1.219 1.675c-.213 2.575 2.742 5.332 4.022 7.388 1.523 2.59 2.726 5.454 4.372 8.028a2.923 2.923 0 0 0 5.377-1.6v.016Zm-.99 16.375a2.792 2.792 0 0 0 2.559-2.102 6.874 6.874 0 0 0-.229-3.55 5.957 5.957 0 0 0-1.523-2.894 2.161 2.161 0 0 0-3.026.086c-.26.27-.446.602-.539.965a9.946 9.946 0 0 0 0 2.681v1.158a7.198 7.198 0 0 0 .183 1.706 2.7 2.7 0 0 0 2.575 1.935v.015Z" fill="#030402"/><path d="M177.835 157.735c-1.31-3.046-4.57-16.573-5.286-19.939-.716-3.367-3.366-16.985-4.143-20.443 0-.198.213-.304.259-.121.822 3.412 4.493 16.847 5.301 20.198.807 3.351 3.838 16.862 4.052 20.259a.092.092 0 0 1 .001.037.112.112 0 0 1-.012.035.093.093 0 0 1-.129.032.093.093 0 0 1-.043-.058Z" fill="#263238"/><path opacity=".1" d="M151.437 164.925c-7.997 0-15.019-.762-18.279-2.849-6.84-4.417-32.811-50.267-41.753-81.662-2.254-7.86-.898-13.465 2.666-15.095l57.366 99.606Z" fill="#000"/><path d="M22.538 175.572c.198.29 95.25 12.476 96.27 11.592a68.888 68.888 0 0 0 1.143-8.012s-8.713-103.49-13.222-109.568c-3.945-5.301-15.918-9.14-24.067-5.682-17.107 7.25-58.067 99.713-57.625 103.582-.03-.046-2.742 7.723-2.499 8.088Z" fill="#FFC727"/><path opacity=".1" d="M56.812 162.975a25.768 25.768 0 0 0 4.57 1.706c3.169 1.264 3.458 6.55 0 7.616a12.36 12.36 0 0 1-10.967-1.751c-3.047-2.133-5.012-6.093-3.367-9.627a4.3 4.3 0 0 1 3.384-2.503 4.296 4.296 0 0 1 3.898 1.589c.852.99 1.37 2.3 2.482 2.97Zm-5.21-15.735c-2.604 5.377 4.936 12.399 10.161 10.495a3.043 3.043 0 0 0 1.857-3.422 3.048 3.048 0 0 0-.577-1.27c-1.036-1.386-2.102-1.827-3.047-3.046a5.39 5.39 0 0 1-.777-1.386 8.7 8.7 0 0 0-1.934-2.834c-1.813-1.751-4.722-.517-5.682 1.463Zm-8.804-5.728c-2.848 1.067-3.58 4.905-3.366 7.617a7.45 7.45 0 0 0 3.991 6.352 2.495 2.495 0 0 0 2.687-.421 2.502 2.502 0 0 0 .71-2.626 7.766 7.766 0 0 1-.488-3.838c.26-1.95 1.036-4.235-.259-5.987a2.94 2.94 0 0 0-3.275-1.097Zm31.227 18.127a2.833 2.833 0 0 0-3.046 2.422 3.32 3.32 0 0 0 2.36 3.519 5.1 5.1 0 0 0 3.2 0c.531-.21.97-.605 1.233-1.112.306-.491.43-1.073.35-1.645a2.667 2.667 0 0 0-2.086-2.194 1.755 1.755 0 0 0-.335-.335 3.175 3.175 0 0 0-1.676-.655Zm-23.351-36.756c-2.56 2.62-1.524 8.576 1.401 10.587a2.712 2.712 0 0 0 4.326-1.783c.045-.603.045-1.209 0-1.812 0-.655-.091-1.067 0-1.524.228-1.302.274-2.63.137-3.945a3.353 3.353 0 0 0-4.316-2.566 3.354 3.354 0 0 0-1.548 1.043Zm-16.528 37.899c-3.518 4.173 2.285 11.333 6.84 11.47 1.523 0 3.397-1.524 2.452-3.199-.761-1.341-1.782-2.529-2.452-3.915-.823-1.706-1.02-3.701-2.696-4.859a3.047 3.047 0 0 0-4.143.503Zm84.039-1.326a2.926 2.926 0 0 0-2.407 2.194c-.488 1.691-.549 3.199-1.813 4.57a20.893 20.893 0 0 0-3.656 3.701 2.243 2.243 0 0 0 .93 2.992c.341.184.724.276 1.111.268a10.521 10.521 0 0 0 6.809-3.717c-.304-2.894-.609-6.291-.959-10.069l-.015.061Zm-7.617-12.567c-.853 2.072-.7 4.418-1.416 6.581a51.546 51.546 0 0 1-2.24 5.819c-.639 1.371.64 3.534 2.301 2.803a11.473 11.473 0 0 0 6.184-5.652c1.158-2.391 2.437-6.413 1.325-8.956-1.112-2.544-4.889-3.656-6.184-.655l.03.06Zm-8.682 20.763a13.718 13.718 0 0 1-4.738 3.884 3.263 3.263 0 0 0-2.293 3.117 3.258 3.258 0 0 0 4.96 2.778 11.734 11.734 0 0 0 6.61-7.403c.716-2.635-2.848-4.357-4.57-2.437l.031.061Zm-13.923-74.64a3.367 3.367 0 0 0 3.96-2.468c.854-3.275-2.071-6.641-4.386-8.682-2.316-2.042-5.576-3.9-8.82-2.849a2.666 2.666 0 0 0-1.082 4.402c1.417 1.767 3.382 3.047 4.89 4.783 1.508 1.737 2.757 4.311 5.408 4.753l.03.06Zm11.684 12.932c1.279-1.843.289-4.57-.625-6.321a5.59 5.59 0 0 0-2.178-2.316 2.834 2.834 0 0 0-3.9.838 3.733 3.733 0 0 0-.183 2.773c.128.477.301.942.518 1.386v.259a9.28 9.28 0 0 0 1.798 3.991 2.904 2.904 0 0 0 2.436.829 2.902 2.902 0 0 0 2.133-1.439Zm7.86-10.906a18.054 18.054 0 0 0-4.205-10.221c-1.828-2.361-4.996-6.093-8.347-5.286a1.737 1.737 0 0 0-1.219 1.675c-.213 2.575 2.742 5.332 4.022 7.388 1.523 2.59 2.726 5.454 4.371 8.028a2.926 2.926 0 0 0 5.301-1.66l.077.076Zm-11.501 26.078a3.951 3.951 0 0 0 1.69 0 3.475 3.475 0 0 0 1.996-1.599 5.633 5.633 0 0 0 .594-2.636 5.391 5.391 0 0 0-.685-2.467l-.503-.625-.67-.487a3.138 3.138 0 0 0-4.478 2.01 16.443 16.443 0 0 0-.534 2.712l.138.837c.106.421.316.808.609 1.128.46.532 1.08.9 1.767 1.051l.076.076Zm10.51-9.703a2.792 2.792 0 0 0 2.559-2.102 6.874 6.874 0 0 0-.228-3.55 5.962 5.962 0 0 0-1.523-2.894 2.167 2.167 0 0 0-3.026.086c-.26.27-.446.602-.539.965a9.865 9.865 0 0 0 0 2.681v1.158a7.146 7.146 0 0 0 .183 1.706 2.698 2.698 0 0 0 2.498 1.874l.076.076Z" fill="#030402"/><path d="M101.17 85.806C95.366 85.273 87.932 72.874 86.516 65c-.092-.549 2.224-5.134 4.768-10.83 1.523-3.458 3.168-7.358 4.387-11.014l21.081 13.268a61.561 61.561 0 0 0-6.93 13.313 8.535 8.535 0 0 0-.335 1.523c.005.087.005.173 0 .26-.534 3.046-2.697 14.805-8.317 14.287Z" fill="#D3766A"/><path d="M109.487 71.29c.005.086.005.173 0 .259a16.766 16.766 0 0 1-2.392-.655c-13.191-4.753-10.86-22.057-9.931-26.84l5.255 3.32 14.395 9.14a61.088 61.088 0 0 0-6.916 13.314 8.334 8.334 0 0 0-.411 1.462Z" fill="#263238"/><path d="M97.88 18.738c-4.357 7.845-5.119 33.04-.29 39.726 6.976 9.688 20.99 13.466 29.871 4.57 8.606-8.713 9.002-41.57 3.397-47.907-8.287-9.413-26.551-7.981-32.979 3.61Z" fill="#D3766A"/><path d="M118.108 39.103s-.137 0-.137.153c0 1.736-.305 3.717-1.889 4.234v.107c1.935-.213 2.3-2.848 2.026-4.494Z" fill="#263238"/><path d="M116.631 37.245c-2.787-.305-3.199 5.27-.624 5.56 2.574.29 2.955-5.301.624-5.56ZM128.101 39.697s.122.092.122.168c-.198 1.721-.122 3.732 1.386 4.417v.107c-1.904-.426-1.965-3.092-1.508-4.692Z" fill="#263238"/><path d="M129.791 38.022c2.788 0 2.559 5.59 0 5.59s-2.345-5.605 0-5.59ZM118.885 36.118c-.777.167-1.523.183-2.285.274a3.716 3.716 0 0 1-2.376-.168 1.192 1.192 0 0 1-.473-1.37 2.944 2.944 0 0 1 2.529-1.524 4.206 4.206 0 0 1 3.047.58 1.25 1.25 0 0 1-.442 2.208ZM132.29 32.828a20.408 20.408 0 0 1-2.178-.747 3.688 3.688 0 0 1-2.072-1.173 1.178 1.178 0 0 1 .168-1.431 2.895 2.895 0 0 1 2.955-.335 4.341 4.341 0 0 1 2.498 1.828 1.259 1.259 0 0 1-.655 1.807 1.265 1.265 0 0 1-.716.05ZM116.844 52.843a14.654 14.654 0 0 1 6.824 0c.198 0 .396-.396.442-.579l.122-3.655c.472.274 2.848 1.523 2.848.853a86.934 86.934 0 0 0-1.081-17.762.17.17 0 0 0-.16-.117.167.167 0 0 0-.16.118c-.244 5.498.457 10.982.289 16.512a10.116 10.116 0 0 0-2.681-1.021c-.198 0 0 3.884 0 4.463a8.501 8.501 0 0 0-6.398.35c-.792.503-1.112 1.173-.045.838ZM112.335 56.469c.381.426.762 1.005 1.371 1.096.64.031 1.28-.078 1.873-.32 0 0 .107 0 0 .092a2.267 2.267 0 0 1-2.223.792 1.816 1.816 0 0 1-1.25-1.523c.031-.168.168-.198.229-.137Z" fill="#263238"/><path opacity=".2" d="M105.237 10.74c-.229 3.915-1.158 16.056-3.047 18.523-1.888 2.468-5.88 8.21-7.905 9.14.274-8.089 1.523-15.781 3.61-19.802a20.671 20.671 0 0 1 7.342-7.86Z" fill="#263238"/><path d="M126.943 22.607a8.894 8.894 0 0 1-8.332 2.437 9.026 9.026 0 0 1-6.596-5.926c0-.091-.168 0-.137 0a8.938 8.938 0 0 0 6.55 6.566 9.139 9.139 0 0 0 8.667-3.047c.091.015-.03-.122-.152-.03ZM119.296.032a13.985 13.985 0 0 0-12.186 5.636 10.01 10.01 0 0 0-1.432 6.428h.198a10.916 10.916 0 0 1 5.865-9.52 14.166 14.166 0 0 1 12.582-.625 9.022 9.022 0 0 1 4.57 4.19c.091.197.487.106.411-.092-1.249-3.321-5.286-5.789-10.008-6.017ZM148.391 13.315a11.275 11.275 0 0 0-4.387-6.383c-3.047-2.178-6.611-2.148-10.176-2.026-.106 0-.091.153 0 .137 3.031-.316 6.088.25 8.805 1.63a11.176 11.176 0 0 1 4.767 5.804 10.89 10.89 0 0 1-5.468 13.191 11.06 11.06 0 0 1-8.774.274c-.107 0-.198.107-.091.168a11.132 11.132 0 0 0 15.071-6.69c.652-1.972.739-4.087.253-6.105Z" fill="#263238"/><path d="M96.356 23.688s-4.204-9.581.29-14.608c2.543-2.833 10.19-1.858 10.19-1.858a13.921 13.921 0 0 1 9.292-5.21c6.535-1.02 13.983 3.397 13.983 3.397s6.368-3.046 11.836.655c7.616 5.164 5.712 17.243-2.605 20.534-5.849 2.33-13.13-3.245-13.13-3.245-.731 0-8.622 4.021-13.816-3.138 0 0-4.935 3.763-8.881.564a6.734 6.734 0 0 1-7.159 2.91Z" fill="#263238"/><path d="M98.84 39.606s-3.992-8.941-7.937-7.616c-3.945 1.325-2.026 13.48 1.874 15.857a4.327 4.327 0 0 0 6.093-1.188l-.03-7.053Z" fill="#D3766A"/><path d="M91.543 35.432v.107c2.71 1.752 3.731 4.783 4.265 7.814a2.39 2.39 0 0 0-3.397-1.31c-.092 0 0 .168 0 .168a2.65 2.65 0 0 1 2.711 1.523c.414.824.73 1.693.945 2.59 0 .29.578.243.548 0 .777-3.93-1.127-9.734-5.072-10.892Z" fill="#263238"/><path d="m309.975 57.353-163.998 50.233 29.568 96.535 163.999-50.233-29.569-96.535Z" fill="#FFC727"/><path opacity=".2" d="m309.975 57.353-163.998 50.233 29.568 96.535 163.999-50.233-29.569-96.535Z" fill="#000"/><path opacity=".2" d="m309.967 57.354-55.113 16.88 29.569 96.536 55.113-16.882-29.569-96.534Z" fill="#000"/><path d="M307.327 62.272a2318.816 2318.816 0 0 0-5.422 25.652l-5.195 25.713-5.026 25.819a2695.272 2695.272 0 0 0-4.814 25.819c1.858-8.54 3.666-17.091 5.423-25.652l5.194-25.712 5.027-25.759c1.645-8.631 3.25-17.258 4.813-25.88Z" fill="#FFC727"/><path d="M334.395 150.652a2001.866 2001.866 0 0 0-18.446-18.691l-18.584-18.522-18.706-18.386a5328.064 5328.064 0 0 0-18.858-18.28 1772.95 1772.95 0 0 0 18.447 18.691l18.584 18.523 18.705 18.386a1991.638 1991.638 0 0 0 18.858 18.279Z" fill="#FFC727"/><path d="m177.474 120.026.903-.276-3.885-12.686-.903.277 3.885 12.685ZM175.33 120.671l.903-.277-3.886-12.686-.903.277 3.886 12.686ZM173.165 121.361l.903-.277-3.886-12.685-.903.276 3.886 12.686ZM171.022 121.983l.903-.276-3.883-12.687-.903.276 3.883 12.687ZM168.86 122.654l.903-.276-3.886-12.686-.903.276 3.886 12.686ZM166.711 123.299l.903-.276-3.886-12.686-.903.276 3.886 12.686ZM164.536 124.009l.903-.277-3.886-12.685-.903.276 3.886 12.686ZM162.383 124.649l.903-.276-3.888-12.686-.903.277 3.888 12.685ZM160.211 125.333l.903-.276-3.885-12.686-.903.276 3.885 12.686ZM183.624 105.32l-3.748.091 8.119-2.513-3.168 2.041 1.432 4.661c2.574-.442 4.311 1.706 5.621 5.971l-8.119 2.559c-1.31-4.25-1.082-7.007 1.295-8.088l-1.432-4.722ZM191.788 108.564l2.117-.655-1.904-6.215 5.423-1.66 1.904 6.215 2.133-.655-2.864 7.951-6.809-4.981Z" fill="#263238"/><path opacity=".1" d="m145.984 107.589 2.422 7.921 113.361-18.706-6.916-22.56-108.867 33.345Z" fill="#000"/><path d="m360.794 164.833-55.127 16.878-21.249-10.937 55.127-16.893 21.249 10.952Z" fill="#FFC727"/><path opacity=".2" d="m360.794 164.833-55.127 16.878-21.249-10.937 55.127-16.893 21.249 10.952Z" fill="#000"/><path d="m164.065 225.093 55.127-16.892 11.47-20.961-55.127 16.878-11.47 20.975Z" fill="#FFC727"/><path opacity=".1" d="m164.065 225.093 55.127-16.892 11.47-20.961-55.127 16.878-11.47 20.975Z" fill="#000"/><path d="M73.34 92.692c8.057 26.946 30.464 73.116 38.781 78.752 7.327 5.042 42.499.457 57.884-2.879 5.758-1.234-6.093-45.195-12.186-43.748-7.372 1.752-29.322 6.093-30.876 4.89-1.554-1.204-22.849-28.942-38.082-45.21C75.031 69.69 70.293 82.5 73.34 92.691Z" fill="#D3766A"/><path d="M154.651 128.397s11.653-13.131 19.909-18.142a61.99 61.99 0 0 1 28.546-8.149c10.831-.427 37.32 6.001 36.787 13.953-.472 7.205-27.205-.747-27.205-.747s28.591 3.61 26.428 12.186c-2.163 8.576-32.674-2.437-32.674-2.437s29.292 4.357 25.728 12.872c-2.742 6.413-30.937-1.996-30.937-1.996s25.164 3.93 22.62 10.663c-2.803 7.418-29.323 1.295-29.323 1.295-9.307 15.963-20.29 19.802-28.408 21.523-2.026.351-11.471-41.021-11.471-41.021Z" fill="#D3766A"/><path d="M202.878 113.423c3.367.305 6.794.594 10.13 1.188 3.336.594 6.641 1.325 9.916 2.239a58.16 58.16 0 0 1 12.369 4.738c-7.235-3.123-19.147-5.469-22.483-6.093-3.336-.625-6.642-1.371-9.962-1.965-.092.03-.061-.107.03-.107ZM200.486 125.442c4.28.564 8.576.975 12.841 1.736 4.265.762 8.21 1.859 12.399 2.91.32.076.168.228-.152.152-4.235-.883-8.195-1.371-12.43-2.193-4.234-.823-8.439-1.828-12.688-2.514-.061 0-.046-.106.03-.091ZM196.571 135.374a96.305 96.305 0 0 1 19.437 4.173c.32.092.107.259-.229.183-6.428-1.523-11.47-2.742-19.223-4.128-.122-.015-.122-.244.015-.228Z" fill="#263238"/><path d="m166.517 176.365-10.236-52.583-28.531 4.478c-10.906-13.1-32.689-39.3-41.585-47.221-10.434-9.307-17.578-2.666-13.998 11.12 8.195 31.516 33.054 78.067 39.787 82.637 9.658 6.55 54.563 1.569 54.563 1.569Z" fill="#FFC727"/><path opacity=".1" d="M147.202 131.078c1.407.306 2.841.474 4.281.503 3.046.411 4.387 4.905 1.614 6.611a10.944 10.944 0 0 1-9.81.837c-3.046-1.188-5.62-4.143-4.965-7.616a3.803 3.803 0 0 1 2.382-2.897 3.818 3.818 0 0 1 3.711.551c.844.781 1.78 1.456 2.787 2.011Zm-3.046-5.392a6.614 6.614 0 0 0 6.093-.183c.341-.228.615-.544.792-.914l-6.885 1.097Zm-14.822 2.315a6.09 6.09 0 0 0 4.205 1.142 2.221 2.221 0 0 0 1.919-2.102l-6.124.96Zm32.293 23.473a2.653 2.653 0 0 0-1.37 1.31c-1.28 2.575.502 5.347 3.046 7.007l-1.676-8.317Zm-45.88 10.115c-.488 1.691-.548 3.199-1.813 4.57a20.864 20.864 0 0 0-3.625 3.762c-.177.345-.261.73-.244 1.117a2.231 2.231 0 0 0 1.173 1.875c.341.184.724.276 1.112.268a10.665 10.665 0 0 0 9.353-10.998 3.047 3.047 0 0 0-5.91-.594h-.046Zm-5.255-14.761c-.853 2.072-.701 4.418-1.417 6.581a51.54 51.54 0 0 1-2.239 5.819c-.64 1.371.64 3.534 2.3 2.803a11.473 11.473 0 0 0 6.184-5.652c1.158-2.391 2.438-6.413 1.326-8.956-1.112-2.544-4.814-3.595-6.109-.595h-.045ZM87.886 92.951a3.366 3.366 0 0 0 3.96-2.468c.854-3.275-2.07-6.641-4.386-8.683-2.315-2.04-5.575-3.9-8.82-2.848a2.665 2.665 0 0 0-1.081 4.402c1.416 1.767 3.381 3.047 4.89 4.783 1.508 1.737 2.833 4.372 5.483 4.814h-.046Zm11.76 12.993c1.28-1.843.29-4.57-.624-6.321a5.59 5.59 0 0 0-2.179-2.316 2.833 2.833 0 0 0-3.9.838 3.73 3.73 0 0 0-.182 2.772c.127.478.3.942.518 1.387v.259a9.271 9.271 0 0 0 1.797 3.99 2.895 2.895 0 0 0 4.57-.609Zm-3.64 15.233a3.984 3.984 0 0 0 1.69 0 3.473 3.473 0 0 0 1.996-1.6 5.62 5.62 0 0 0 .594-2.635 5.418 5.418 0 0 0-.686-2.468l-.502-.624-.67-.488a3.144 3.144 0 0 0-2.724-.073 3.143 3.143 0 0 0-1.755 2.084 16.403 16.403 0 0 0-.533 2.712l.137.837c.107.421.316.808.61 1.128a3.261 3.261 0 0 0 1.766.99l.076.137Zm12.78-15.461-3.047-3.428a1.997 1.997 0 0 0-2.178 1.524 9.865 9.865 0 0 0 0 2.681v1.157a7.095 7.095 0 0 0 .183 1.706 2.694 2.694 0 0 0 2.696 1.95 2.785 2.785 0 0 0 2.559-2.102 6.917 6.917 0 0 0-.213-3.488Z" fill="#030402"/><path d="M156.677 171.536c-1.234-3.123-4.128-16.68-4.814-20.077-.685-3.397-2.955-17.045-3.64-20.533 0-.183.213-.305.259-.107.731 3.427 4.097 16.939 4.813 20.32.716 3.382 3.443 16.939 3.565 20.351a.093.093 0 0 1-.011.071.093.093 0 0 1-.058.043.093.093 0 0 1-.114-.068ZM147.263 177.842c-4.676.274-9.352.381-14.029.35-4.693.021-9.384-.249-14.044-.807a22.49 22.49 0 0 1-6.916-1.828 20.62 20.62 0 0 1-5.057-5.103 103.888 103.888 0 0 1-7.48-11.958c-4.57-8.21-8.5-16.755-12.338-25.255-3.838-8.5-7.327-17.243-10.525-26.048 3.884 8.515 7.723 17.045 11.713 25.499 3.991 8.455 8.028 16.878 12.384 25.119a126.195 126.195 0 0 0 7.19 11.942 19.434 19.434 0 0 0 4.57 4.981 21.637 21.637 0 0 0 6.565 1.844 185.889 185.889 0 0 0 27.967 1.264Z" fill="#263238"/><path d="M79.844 114.627a14.455 14.455 0 0 1-1.69-2.057 8.314 8.314 0 0 1-1.173-2.391c.229.378.478.744.746 1.096l.746 1.082c.502.729.96 1.487 1.371 2.27ZM103.896 100.506c3.854 3.869 7.312 8.119 10.891 12.186 3.58 4.067 7.007 8.363 10.663 12.415l1.356 1.523c.244.228.472.487.701.7.228.214.228.198.335.29h.167c1.158 0 2.62-.259 3.93-.427l8.104-1.203c5.392-.792 10.8-1.615 16.207-2.346l.214 1.341-.32-1.326h.076c-5.347 1.143-10.663 2.163-16.086 3.154a290.25 290.25 0 0 1-8.103 1.325c-1.387.24-2.785.403-4.189.487a1.253 1.253 0 0 1-.335 0 1.253 1.253 0 0 1-.412-.213 5.498 5.498 0 0 1-.441-.381l-.747-.731a44.289 44.289 0 0 1-1.401-1.523 455.188 455.188 0 0 1-10.465-12.628l-5.103-6.413c-1.676-1.995-3.199-4.189-5.042-6.23Z" fill="#263238"/><path d="M105.892 100.963a15.19 15.19 0 0 1 1.523 2.255c.43.785.733 1.633.899 2.513-.183-.411-.411-.777-.624-1.173l-.625-1.173a25.006 25.006 0 0 1-1.173-2.422Z" fill="#263238"/></svg>