<svg width="25" height="24" fill="none" xmlns="http://www.w3.org/2000/svg"><path d="M11.844 3c.16 0 .3.059.417.176a.57.57 0 0 1 .177.418v6.531c0 .328-.062.634-.186.918a2.385 2.385 0 0 1-1.271 1.262c-.29.124-.597.189-.919.195v8.906c0 .161-.058.3-.176.418A.57.57 0 0 1 9.47 22a.57.57 0 0 1-.418-.176.57.57 0 0 1-.176-.418V12.5c-.328 0-.634-.062-.918-.185a2.413 2.413 0 0 1-1.457-2.19V3.594c0-.161.059-.3.176-.418A.57.57 0 0 1 7.094 3c.16 0 .3.059.417.176a.57.57 0 0 1 .176.418v6.531c0 .167.031.322.093.464a1.191 1.191 0 0 0 .631.63c.149.069.303.1.464.094v-7.72c0-.16.059-.3.176-.417A.57.57 0 0 1 9.47 3c.16 0 .3.059.417.176a.57.57 0 0 1 .177.418v7.719c.166 0 .321-.031.463-.093a1.19 1.19 0 0 0 .372-.25c.105-.106.191-.233.26-.381.067-.149.098-.303.092-.464V3.594c0-.161.059-.3.176-.418A.57.57 0 0 1 11.844 3Zm6.531 0v18.406c0 .161-.059.3-.176.418a.57.57 0 0 1-.418.176.57.57 0 0 1-.417-.176.57.57 0 0 1-.177-.418v-5.343c-.228 0-.476.003-.742.009-.266.006-.529.003-.788-.01a3.898 3.898 0 0 1-.761-.11 1.942 1.942 0 0 1-.65-.288 1.466 1.466 0 0 1-.454-.53c-.117-.222-.173-.506-.167-.853V7.156c0-.575.108-1.113.325-1.614a4.202 4.202 0 0 1 2.208-2.208A4.163 4.163 0 0 1 17.78 3h.594Zm-1.188 1.243a2.751 2.751 0 0 0-.946.371c-.284.18-.535.402-.751.668a3.113 3.113 0 0 0-.501.863c-.118.31-.177.646-.177 1.011v7.125c0 .161.06.3.177.418a.57.57 0 0 0 .417.176h1.781V4.243Z" fill="#222"/></svg>