<svg width="1212" height="858" fill="none" xmlns="http://www.w3.org/2000/svg"><path d="M202.556 547.066c-36.634 35.858-42.847 91.345-35.081 139.95.214 1.098 1.928.803 1.928-.241 0-11.06-.348-22.013-.321-32.939.214-.509.375-.991.589-1.473 9.56-6.962 18.424-14.782 23.78-25.494 6.133-12.051 8.543-25.601 13.203-38.188.455-1.205-.831-.857-1.687-.214-22.281 16.416-29.458 34.117-35.778 57.737a195.118 195.118 0 0 1 3.883-36.795c4.82-22.415 14.327-44.669 30.448-61.299a.713.713 0 0 0-.453-1.232.71.71 0 0 0-.511.188Z" fill="#A6A6A6"/><path d="M209.519 551.244c6.293.214 10.257 10.283 15.157 13.229a4.745 4.745 0 0 0 5.568.296 4.753 4.753 0 0 0 1.395-1.394c4.874-6.802-1.821-15.184-8.034-19.871 4.499 1.848 8.221 5.088 13.068 6.026a4.57 4.57 0 0 0 3.744-.438 4.576 4.576 0 0 0 2.148-3.097c2.116-9.266-9.48-13.39-17.46-13.577 3.856-2.678 14.943-9.989 9.051-13.578-5.891-3.588-18.96 6.829-23.191 10.257-6.24 5.061-13.658 12.613-13.952 20.513-.482 9.239 7.578 3.562 12.506 1.634Z" fill="#DBDBDB"/><path d="M207.617 552.797c8.034-3.669 23.54 1.606 24.852-1.447 2.678-6.212-9.694-10.47-16.389-11.301 6.159-1.66 17.942-4.311 17.594-10.229-.455-7.258-18.076-1.018-27.021 5.811-11.22 8.623-11.167 16.951-9.292 18.612 2.544 2.276 8.918-.857 10.256-1.446Z" fill="#EBEBEB"/><path d="M119.111 543.504c37.974 34.439 46.248 89.658 40.357 138.531 0 1.098-1.875.884-1.901-.161-.429-11.06-.509-22.039-.965-32.939l-.615-1.473c-9.802-6.561-18.907-14.086-24.745-24.637-6.588-11.783-9.507-25.253-14.648-37.652-.482-1.178.803-.884 1.66-.294 22.897 15.585 30.69 32.992 37.974 56.371a197.268 197.268 0 0 0-5.356-36.635c-5.678-22.227-16.068-44.079-32.779-60.093-.535-.67.375-1.634 1.018-1.018Z" fill="#A6A6A6"/><path d="M112.39 547.95c-6.293.455-9.855 10.711-14.649 13.791a4.718 4.718 0 0 1-3.68 1.152 4.701 4.701 0 0 1-3.31-1.982c-5.114-6.615 1.233-15.238 7.338-20.165-4.418 2.035-8.033 5.356-12.827 6.507a4.554 4.554 0 0 1-5.249-1.612 4.55 4.55 0 0 1-.776-1.789c-2.49-9.185 8.97-13.738 16.924-14.246-3.963-2.518-15.318-9.4-9.56-13.203 5.758-3.802 19.201 6.106 23.566 9.373 6.427 4.82 14.14 12.078 14.702 19.978.723 9.319-7.552 3.936-12.479 2.196Z" fill="#DBDBDB"/><path d="M114.264 549.422c-8.168-3.347-23.46 2.518-24.879-.482-2.892-6.105 9.293-10.712 16.068-11.917-6.213-1.419-18.076-3.642-17.942-9.56.16-7.257 18.023-1.714 27.208 4.794 11.542 8.194 11.783 16.496 9.989 18.237-2.571 2.383-9.079-.509-10.444-1.072Z" fill="#EBEBEB"/><path d="M157.942 634.474a373.798 373.798 0 0 0 11.81 54.47 1.368 1.368 0 0 0 2.462.475c.202-.296.279-.659.216-1.011-2.491-16.764-7.043-33.26-9.534-50.024a250.232 250.232 0 0 1-2.919-51.39c1.58-28.279 9.266-58.379 27.717-80.499.429-.536-.455-1.259-.857-.777-36.956 43.088-31.064 95.898-31.037 100.638-5.356-17.835-10.712-38.295-30.422-56.452-.857-.776-1.526-.401-1.366.938 3.508 33.18 12.694 50.345 31.948 67.993a222.57 222.57 0 0 0 1.982 15.639Z" fill="#A6A6A6"/><path d="M188.095 511.449c6.642-2.946 15.827 5.517 22.388 6.079a5.36 5.36 0 0 0 6.668-4.633c1.634-9.507-9.506-14.836-18.397-16.523 5.597-.348 11.087 1.125 16.576-.348a5.368 5.368 0 0 0 3.64-2.36 5.35 5.35 0 0 0 .699-4.281c-2.437-10.712-16.577-9.106-24.932-5.356 2.678-4.74 10.471-17.889 2.678-18.746-7.793-.857-16.229 16.63-18.88 22.334-3.936 8.382-7.846 19.978-4.151 28.306 4.071 9.935 9.561-.027 13.711-4.472Z" fill="#DBDBDB"/><path d="M186.891 513.966c6.534-7.846 25.253-10.176 25.065-14.006-.348-7.766-15.318-5.971-22.655-3.454 5.516-4.82 16.416-13.524 13.068-19.496-4.124-7.284-19.281 8.034-25.092 19.657-7.311 14.595-3.053 23.191-.295 23.967 3.803 1.098 8.837-5.356 9.909-6.668Z" fill="#EBEBEB"/><path d="m133.626 644.436-16.282 124.525h99.084c-2.035-11.033-20.486-124.659-20.486-124.659l-62.316.134Z" fill="#DBDBDB"/><path d="M1100.74 280.422h70.92v-29.967h-70.92v29.967ZM1140.3 242.635h70.91v-29.966h-70.91v29.966ZM1061.16 242.635h70.92v-29.966h-70.92v29.966ZM40.058 666.904h70.912v-29.966H40.058v29.966ZM.504 629.118h70.913v-29.966H.504v29.966ZM1140.3 666.878h70.91v-29.966h-70.91v29.966ZM308.362.923H237.45v29.966h70.912V.923ZM268.782 38.709H197.87v29.966h70.912V38.71Z" fill="#EBEBEB"/><path d="m91.555 768.855 128.569-.643 128.569-.241 257.164-.455 257.138.455 128.595.241 128.57.643-128.57.669-128.595.214-257.138.456-257.164-.456-128.569-.241-128.569-.642Z" fill="#263238"/><path d="M400.725 388.209a24.496 24.496 0 0 0-2.196-2.222 28.597 28.597 0 0 0-2.222-2.196 28.435 28.435 0 0 0-2.196-2.223 24.507 24.507 0 0 0-2.223-2.196 34.408 34.408 0 0 0-2.196-2.223 21.274 21.274 0 0 0-2.196-2.196c-.7-.78-1.442-1.522-2.223-2.222a21.078 21.078 0 0 0-2.196-2.196 28.597 28.597 0 0 0-2.222-2.196 31.933 31.933 0 0 0-7.847-6.293V140.739c0-1.178-.562-1.767-.562-2.946a6.301 6.301 0 0 0-.589-3.508c0-.589-.563-1.767-.563-2.356a27.72 27.72 0 0 0-1.205-3.535 4.316 4.316 0 0 1-1.151-2.357 16.799 16.799 0 0 0-2.357-2.919c-.616-.589-1.178-1.741-1.767-2.357l-2.357-2.356c0-.348-.455-.723-.964-.937l-1.151-1.179h-.134c0-.375-.429-.723-.938-.964l-1.178-1.151c0-.348-.455-.723-.964-.964l-1.151-1.152c0-.375-.456-.723-.965-.964l-1.151-1.178c0-.348-.455-.723-.964-.964l-1.178-1.152v-.134c0-.348-.456-.696-.964-.937l-1.152-1.178h-.134c0-.348-.428-.723-.937-.964l-1.178-1.152v-.134c0-.348-.456-.696-.965-.937l-1.151-1.178h-.134c0-.375-.428-.723-.937-.964l-1.179-1.152c0-.348-.455-.723-.964-.937l-1.285-1.286c0-.589-1.152-1.178-1.768-1.178a.566.566 0 0 0-.154-.415.569.569 0 0 0-.408-.174c-1.178-.563-1.794-1.178-2.946-1.768a36.304 36.304 0 0 1-2.919-2.356c-.589 0-1.767-.563-2.356-.563-1.179-.589-2.946-.589-3.535-1.205a5.625 5.625 0 0 1-2.946-.562h-9.962a3.668 3.668 0 0 1-2.356.562c-1.768.616-2.919.616-3.535 1.205-1.152 0-1.741.563-2.357 1.768a6.374 6.374 0 0 0-3.508 1.151c-.562.59-1.768 1.206-2.357 1.768a6.023 6.023 0 0 1-2.919 1.767 8.04 8.04 0 0 1-1.767 2.357c-.589.59-.589 1.151-1.152 1.151L75.621 369.785a31.36 31.36 0 0 0 2.919 43.195c.688.809 1.44 1.562 2.25 2.25.672.806 1.416 1.55 2.222 2.223.689.808 1.44 1.561 2.25 2.249a19.565 19.565 0 0 0 2.222 2.25c.69.8 1.441 1.543 2.25 2.222a19.565 19.565 0 0 0 2.223 2.25c.688.8 1.44 1.543 2.25 2.222a19.565 19.565 0 0 0 2.222 2.25c.688.8 1.44 1.544 2.25 2.223 1.384 1.574 2.928 3 4.605 4.258a28.798 28.798 0 0 0 19.951 7.043h162.606v22.253a32.14 32.14 0 0 0 10.497 24.102c.697.75 1.42 1.473 2.143 2.142a27.584 27.584 0 0 0 2.169 2.17 32.916 32.916 0 0 0 2.169 2.142 27.571 27.571 0 0 0 2.169 2.169c.696.75 1.42 1.473 2.169 2.169.676.769 1.4 1.494 2.17 2.169a32.68 32.68 0 0 0 2.142 2.17 27.743 27.743 0 0 0 2.169 2.169 40.82 40.82 0 0 0 2.142 2.142 32.442 32.442 0 0 0 16.533 9.583 32.434 32.434 0 0 0 39.704-31.515v-43.973h5.892a32.305 32.305 0 0 0 23.193-9.266 32.327 32.327 0 0 0 9.666-23.03 32.157 32.157 0 0 0-2.523-12.957 32.154 32.154 0 0 0-7.52-10.85ZM285.787 262.345v94.907h-76.482l76.482-94.907Z" fill="#FF9446"/><path opacity=".1" d="M400.725 388.209a24.496 24.496 0 0 0-2.196-2.222 28.597 28.597 0 0 0-2.222-2.196 28.435 28.435 0 0 0-2.196-2.223 24.507 24.507 0 0 0-2.223-2.196 34.408 34.408 0 0 0-2.196-2.223 21.274 21.274 0 0 0-2.196-2.196c-.7-.78-1.442-1.522-2.223-2.222a21.078 21.078 0 0 0-2.196-2.196 28.597 28.597 0 0 0-2.222-2.196 31.933 31.933 0 0 0-7.847-6.293V140.739c0-1.178-.562-1.767-.562-2.946a6.301 6.301 0 0 0-.589-3.508c0-.589-.563-1.767-.563-2.356a27.72 27.72 0 0 0-1.205-3.535 4.316 4.316 0 0 1-1.151-2.357 16.799 16.799 0 0 0-2.357-2.919c-.616-.589-1.178-1.741-1.767-2.357l-2.357-2.356c0-.348-.455-.723-.964-.937l-1.151-1.179h-.134c0-.375-.429-.723-.938-.964l-1.178-1.151c0-.348-.455-.723-.964-.964l-1.151-1.152c0-.375-.456-.723-.965-.964l-1.151-1.178c0-.348-.455-.723-.964-.964l-1.178-1.152v-.134c0-.348-.456-.696-.964-.937l-1.152-1.178h-.134c0-.348-.428-.723-.937-.964l-1.178-1.152v-.134c0-.348-.456-.696-.965-.937l-1.151-1.178h-.134c0-.375-.428-.723-.937-.964l-1.179-1.152c0-.348-.455-.723-.964-.937l-1.285-1.286c0-.589-1.152-1.178-1.768-1.178a.566.566 0 0 0-.154-.415.569.569 0 0 0-.408-.174c-1.178-.563-1.794-1.178-2.946-1.768a36.304 36.304 0 0 1-2.919-2.356c-.589 0-1.767-.563-2.356-.563-1.179-.589-2.946-.589-3.535-1.205a5.625 5.625 0 0 1-2.946-.562h-9.962a3.668 3.668 0 0 1-2.356.562c-1.768.616-2.919.616-3.535 1.205-1.152 0-1.741.563-2.357 1.768a6.374 6.374 0 0 0-3.508 1.151c-.562.59-1.768 1.206-2.357 1.768a6.023 6.023 0 0 1-2.919 1.767 8.04 8.04 0 0 1-1.767 2.357c-.589.59-.589 1.151-1.152 1.151L75.621 369.785a31.36 31.36 0 0 0 2.919 43.195c.688.809 1.44 1.562 2.25 2.25.672.806 1.416 1.55 2.222 2.223.689.808 1.44 1.561 2.25 2.249a19.565 19.565 0 0 0 2.222 2.25c.69.8 1.441 1.543 2.25 2.222a19.565 19.565 0 0 0 2.223 2.25c.688.8 1.44 1.543 2.25 2.222a19.565 19.565 0 0 0 2.222 2.25c.688.8 1.44 1.544 2.25 2.223 1.384 1.574 2.928 3 4.605 4.258a28.798 28.798 0 0 0 19.951 7.043h162.606v22.253a32.14 32.14 0 0 0 10.497 24.102c.697.75 1.42 1.473 2.143 2.142a27.584 27.584 0 0 0 2.169 2.17 32.916 32.916 0 0 0 2.169 2.142 27.571 27.571 0 0 0 2.169 2.169c.696.75 1.42 1.473 2.169 2.169.676.769 1.4 1.494 2.17 2.169a32.68 32.68 0 0 0 2.142 2.17 27.743 27.743 0 0 0 2.169 2.169 40.82 40.82 0 0 0 2.142 2.142 32.442 32.442 0 0 0 16.533 9.583 32.434 32.434 0 0 0 39.704-31.515v-43.973h5.892a32.305 32.305 0 0 0 23.193-9.266 32.327 32.327 0 0 0 9.666-23.03 32.157 32.157 0 0 0-2.523-12.957 32.154 32.154 0 0 0-7.52-10.85ZM285.787 262.345v94.907h-76.482l76.482-94.907Z" fill="#000"/><path d="M389.103 389.629a32.321 32.321 0 0 1-32.885 32.296h-5.865v44.642a32.296 32.296 0 0 1-64.592 0v-44.642H100.794a28.683 28.683 0 0 1-19.817-7.043 31.416 31.416 0 0 1-11.262-33.963 31.414 31.414 0 0 1 5.906-11.134L292.804 99.552c.589 0 .589-.562 1.178-1.151a8.042 8.042 0 0 0 1.767-2.357 6.293 6.293 0 0 0 2.946-1.767c.562-.59 1.741-1.179 2.33-1.768a6.32 6.32 0 0 1 3.535-1.178c.589-1.152 1.178-1.74 2.356-1.74.563-.59 1.741-.59 3.509-1.18.83.09 1.665-.12 2.356-.588h9.989a5.168 5.168 0 0 0 2.919.589c.589.59 2.357.589 3.535 1.178.589 0 1.767.59 2.356.59 1.152 1.15 2.33 1.74 2.919 2.33 1.179.588 1.768 1.177 2.946 1.767a.591.591 0 0 1 .589.589c.59 0 1.768.589 1.768 1.178l2.33 2.357c.589.589 1.178 1.74 1.767 2.33.899.885 1.69 1.874 2.357 2.945a4.47 4.47 0 0 0 1.178 2.357 21.42 21.42 0 0 1 1.151 3.508c0 .589.59 1.767.59 2.357a6.373 6.373 0 0 1 .589 3.535c0 1.151.589 1.74.589 2.918v238.982h5.865a32.722 32.722 0 0 1 32.885 32.296ZM285.761 212.294l-116.84 145.039h116.84V212.294ZM732.605 175.365a166.806 166.806 0 0 0-22.977-27.85 11.612 11.612 0 0 0-1.018-.991l-.294-.295c-.268-.294-.536-.589-.831-.857-.749-.803-1.553-1.553-2.329-2.33l-.215-.187-.803-.804a3.032 3.032 0 0 0-.295-.294 12.205 12.205 0 0 0-.83-.857c-.75-.803-1.553-1.553-2.33-2.33l-.214-.187-.803-.804-.295-.294c-.268-.295-.535-.589-.83-.857-.75-.804-1.553-1.553-2.33-2.33l-.214-.188-.803-.803s-.188-.214-.295-.294a8.56 8.56 0 0 0-.857-.857c-.723-.831-1.526-1.554-2.303-2.33l-.214-.188a7.62 7.62 0 0 0-.804-.803s-.187-.214-.294-.295c-23.593-24.316-54.336-40.41-88.828-40.41-46.409 0-84.543 27.61-109.234 65.155-25.842 37.491-39.312 86.364-39.902 140.352.59 53.559 14.06 102.753 39.902 140.351a174.76 174.76 0 0 0 22.736 27.557l1.178 1.151v.134l2.089 2.089c.348.401.723.75 1.071 1.098l1.178 1.151.134.134 2.089 2.089 1.071 1.125 1.179 1.124a.332.332 0 0 1 .134.134l2.088 2.089 1.072 1.125 1.178 1.125a.266.266 0 0 1 .134.16l2.089 2.089 1.097 1.098 1.152 1.125.161.16 2.088 2.089c23.192 23.165 53.131 38.724 87.543 38.724 45.204 0 83.954-28.199 108.645-65.209 25.226-37.491 39.339-86.899 39.339-140.325.08-54.121-13.979-102.86-39.205-140.459Zm-76.403 221.923c-17.031 25.226-36.42 36.393-54.603 36.393a53.957 53.957 0 0 1-30.984-10.712 68.308 68.308 0 0 1-2.437-3.374c-16.443-24.664-28.199-62.236-28.199-103.931 0-42.285 11.756-79.268 28.199-104.441 17.648-24.664 37.491-36.393 55.782-35.831a49.143 49.143 0 0 1 29.457 9.641c.938 1.258 1.848 2.49 2.678 3.802 16.443 25.254 28.172 62.236 28.172 104.441.108 41.696-11.622 79.321-28.065 104.012Z" fill="#FF9446"/><path opacity=".1" d="M732.605 175.365a166.806 166.806 0 0 0-22.977-27.85 11.612 11.612 0 0 0-1.018-.991l-.294-.295c-.268-.294-.536-.589-.831-.857-.749-.803-1.553-1.553-2.329-2.33l-.215-.187-.803-.804a3.032 3.032 0 0 0-.295-.294 12.205 12.205 0 0 0-.83-.857c-.75-.803-1.553-1.553-2.33-2.33l-.214-.187-.803-.804-.295-.294c-.268-.295-.535-.589-.83-.857-.75-.804-1.553-1.553-2.33-2.33l-.214-.188-.803-.803s-.188-.214-.295-.294a8.56 8.56 0 0 0-.857-.857c-.723-.831-1.526-1.554-2.303-2.33l-.214-.188a7.62 7.62 0 0 0-.804-.803s-.187-.214-.294-.295c-23.593-24.316-54.336-40.41-88.828-40.41-46.409 0-84.543 27.61-109.234 65.155-25.842 37.491-39.312 86.364-39.902 140.352.59 53.559 14.06 102.753 39.902 140.351a174.76 174.76 0 0 0 22.736 27.557l1.178 1.151v.134l2.089 2.089c.348.401.723.75 1.071 1.098l1.178 1.151.134.134 2.089 2.089 1.071 1.125 1.179 1.124a.332.332 0 0 1 .134.134l2.088 2.089 1.072 1.125 1.178 1.125a.266.266 0 0 1 .134.16l2.089 2.089 1.097 1.098 1.152 1.125.161.16 2.088 2.089c23.192 23.165 53.131 38.724 87.543 38.724 45.204 0 83.954-28.199 108.645-65.209 25.226-37.491 39.339-86.899 39.339-140.325.08-54.121-13.979-102.86-39.205-140.459Zm-76.403 221.923c-17.031 25.226-36.42 36.393-54.603 36.393a53.957 53.957 0 0 1-30.984-10.712 68.308 68.308 0 0 1-2.437-3.374c-16.443-24.664-28.199-62.236-28.199-103.931 0-42.285 11.756-79.268 28.199-104.441 17.648-24.664 37.491-36.393 55.782-35.831a49.143 49.143 0 0 1 29.457 9.641c.938 1.258 1.848 2.49 2.678 3.802 16.443 25.254 28.172 62.236 28.172 104.441.108 41.696-11.622 79.321-28.065 104.012Z" fill="#000"/><path d="M452.437 293.329c.589-54.014 14.112-102.753 39.928-140.325 24.664-37.491 62.825-65.181 109.234-65.181 45.204 0 83.954 27.61 108.618 65.181 25.253 37.492 39.339 86.311 39.339 140.325 0 53.559-14.086 102.78-39.339 140.352-24.664 36.983-63.414 65.182-108.618 65.182-46.409 0-84.57-28.199-109.234-65.182-25.762-37.572-39.339-86.9-39.928-140.352Zm231.938 0c0-42.258-11.73-79.267-28.173-104.44-17.031-24.664-36.393-36.394-54.603-35.804-18.21-.59-38.188 11.14-55.782 35.804-16.443 25.253-28.199 62.262-28.199 104.44 0 41.696 11.756 79.295 28.199 103.932 17.594 25.253 37.491 36.42 55.782 36.42 18.29 0 37.491-11.167 54.603-36.42 16.443-24.637 28.173-62.289 28.173-103.932ZM1132.64 388.209c-.7-.776-1.45-1.526-2.2-2.222a41.32 41.32 0 0 0-2.22-2.196 41.653 41.653 0 0 0-2.2-2.223 33.463 33.463 0 0 0-2.22-2.196 42.03 42.03 0 0 0-2.2-2.223 33.71 33.71 0 0 0-2.22-2.196 57.775 57.775 0 0 0-2.19-2.222c-.7-.772-1.43-1.505-2.2-2.196a41.32 41.32 0 0 0-2.22-2.196 31.435 31.435 0 0 0-7.88-6.293V140.739c0-1.178-.56-1.767-.56-2.946a6.25 6.25 0 0 0-.59-3.508c0-.589-.56-1.767-.56-2.356a27.541 27.541 0 0 0-1.2-3.535 4.58 4.58 0 0 1-1.16-2.357 15.381 15.381 0 0 0-2.35-2.919c-.62-.589-1.18-1.741-1.77-2.357l-2.36-2.356c0-.348-.45-.723-.96-.937l-1.15-1.179h-.14c0-.375-.42-.723-.93-.964l-1.18-1.151c0-.348-.46-.723-.97-.964l-1.15-1.152c0-.375-.45-.723-.96-.964l-1.15-1.178c0-.348-.46-.723-.97-.964l-1.18-1.152v-.134c0-.348-.45-.696-.96-.937l-1.15-1.178h-.13c0-.348-.43-.723-.94-.964l-1.18-1.152v-.134c0-.348-.46-.696-.96-.937l-1.16-1.178h-.13c0-.375-.43-.723-.94-.964l-1.18-1.152c0-.348-.45-.723-.96-.937l-1.29-1.286c0-.589-1.15-1.178-1.76-1.178a.587.587 0 0 0-.05-.225.527.527 0 0 0-.13-.192.471.471 0 0 0-.19-.127.548.548 0 0 0-.22-.045c-1.15-.563-1.77-1.178-2.92-1.768a36.496 36.496 0 0 1-2.92-2.356c-.59 0-1.77-.563-2.36-.563-1.17-.589-2.92-.589-3.53-1.205a5.592 5.592 0 0 1-2.95-.562h-9.96c-.7.449-1.53.647-2.36.562-1.76.616-2.91.616-3.53 1.205-1.15 0-1.74.563-2.36 1.768a6.474 6.474 0 0 0-3.51 1.151c-.56.59-1.76 1.206-2.32 1.768-.8.85-1.82 1.463-2.95 1.767a8.599 8.599 0 0 1-1.77 2.357c-.59.59-.59 1.151-1.15 1.151l-218.226 269.43a31.353 31.353 0 0 0 2.919 43.195c.688.809 1.44 1.562 2.249 2.25a17.42 17.42 0 0 0 2.223 2.223 19.82 19.82 0 0 0 2.249 2.249 785.755 785.755 0 0 1 6.695 6.722 261.885 261.885 0 0 1 4.472 4.472 19.6 19.6 0 0 0 2.25 2.223c1.385 1.574 2.928 3 4.606 4.258a28.795 28.795 0 0 0 19.951 7.043h162.602v22.253c-.04 4.531.87 9.02 2.67 13.174a32.149 32.149 0 0 0 7.83 10.928c.7.777 1.45 1.5 2.17 2.169.67.75 1.39 1.446 2.14 2.143.69.763 1.43 1.487 2.2 2.169.69.75 1.39 1.446 2.14 2.142.7.777 1.45 1.5 2.2 2.196.69.75 1.39 1.473 2.14 2.142.7.777 1.45 1.5 2.19 2.196.7.75 1.4 1.473 2.15 2.143.68.771 1.4 1.504 2.17 2.196a32.385 32.385 0 0 0 16.54 9.584c6.35 1.46 12.99.973 19.06-1.397a32.488 32.488 0 0 0 14.97-11.891 32.41 32.41 0 0 0 5.66-18.256v-43.999h5.9c4.29.075 8.55-.705 12.54-2.294a32.485 32.485 0 0 0 10.68-6.961 32.475 32.475 0 0 0 7.16-10.546 32.489 32.489 0 0 0 2.53-12.495c.06-4.449-.8-8.862-2.54-12.96a32.154 32.154 0 0 0-7.53-10.847Zm-114.97-125.864v94.907h-76.479l76.479-94.907Z" fill="#FF9446"/><path opacity=".1" d="M1132.64 388.209c-.7-.776-1.45-1.526-2.2-2.222a41.32 41.32 0 0 0-2.22-2.196 41.653 41.653 0 0 0-2.2-2.223 33.463 33.463 0 0 0-2.22-2.196 42.03 42.03 0 0 0-2.2-2.223 33.71 33.71 0 0 0-2.22-2.196 57.775 57.775 0 0 0-2.19-2.222c-.7-.772-1.43-1.505-2.2-2.196a41.32 41.32 0 0 0-2.22-2.196 31.435 31.435 0 0 0-7.88-6.293V140.739c0-1.178-.56-1.767-.56-2.946a6.25 6.25 0 0 0-.59-3.508c0-.589-.56-1.767-.56-2.356a27.541 27.541 0 0 0-1.2-3.535 4.58 4.58 0 0 1-1.16-2.357 15.381 15.381 0 0 0-2.35-2.919c-.62-.589-1.18-1.741-1.77-2.357l-2.36-2.356c0-.348-.45-.723-.96-.937l-1.15-1.179h-.14c0-.375-.42-.723-.93-.964l-1.18-1.151c0-.348-.46-.723-.97-.964l-1.15-1.152c0-.375-.45-.723-.96-.964l-1.15-1.178c0-.348-.46-.723-.97-.964l-1.18-1.152v-.134c0-.348-.45-.696-.96-.937l-1.15-1.178h-.13c0-.348-.43-.723-.94-.964l-1.18-1.152v-.134c0-.348-.46-.696-.96-.937l-1.16-1.178h-.13c0-.375-.43-.723-.94-.964l-1.18-1.152c0-.348-.45-.723-.96-.937l-1.29-1.286c0-.589-1.15-1.178-1.76-1.178a.587.587 0 0 0-.05-.225.527.527 0 0 0-.13-.192.471.471 0 0 0-.19-.127.548.548 0 0 0-.22-.045c-1.15-.563-1.77-1.178-2.92-1.768a36.496 36.496 0 0 1-2.92-2.356c-.59 0-1.77-.563-2.36-.563-1.17-.589-2.92-.589-3.53-1.205a5.592 5.592 0 0 1-2.95-.562h-9.96c-.7.449-1.53.647-2.36.562-1.76.616-2.91.616-3.53 1.205-1.15 0-1.74.563-2.36 1.768a6.474 6.474 0 0 0-3.51 1.151c-.56.59-1.76 1.206-2.32 1.768-.8.85-1.82 1.463-2.95 1.767a8.599 8.599 0 0 1-1.77 2.357c-.59.59-.59 1.151-1.15 1.151l-218.226 269.43a31.353 31.353 0 0 0 2.919 43.195c.688.809 1.44 1.562 2.249 2.25a17.42 17.42 0 0 0 2.223 2.223 19.82 19.82 0 0 0 2.249 2.249 785.755 785.755 0 0 1 6.695 6.722 261.885 261.885 0 0 1 4.472 4.472 19.6 19.6 0 0 0 2.25 2.223c1.385 1.574 2.928 3 4.606 4.258a28.795 28.795 0 0 0 19.951 7.043h162.602v22.253c-.04 4.531.87 9.02 2.67 13.174a32.149 32.149 0 0 0 7.83 10.928c.7.777 1.45 1.5 2.17 2.169.67.75 1.39 1.446 2.14 2.143.69.763 1.43 1.487 2.2 2.169.69.75 1.39 1.446 2.14 2.142.7.777 1.45 1.5 2.2 2.196.69.75 1.39 1.473 2.14 2.142.7.777 1.45 1.5 2.19 2.196.7.75 1.4 1.473 2.15 2.143.68.771 1.4 1.504 2.17 2.196a32.385 32.385 0 0 0 16.54 9.584c6.35 1.46 12.99.973 19.06-1.397a32.488 32.488 0 0 0 14.97-11.891 32.41 32.41 0 0 0 5.66-18.256v-43.999h5.9c4.29.075 8.55-.705 12.54-2.294a32.485 32.485 0 0 0 10.68-6.961 32.475 32.475 0 0 0 7.16-10.546 32.489 32.489 0 0 0 2.53-12.495c.06-4.449-.8-8.862-2.54-12.96a32.154 32.154 0 0 0-7.53-10.847Zm-114.97-125.864v94.907h-76.479l76.479-94.907Z" fill="#000"/><path d="M1120.99 389.629c0 4.29-.86 8.537-2.52 12.492a32.18 32.18 0 0 1-7.16 10.547 32.342 32.342 0 0 1-10.67 6.962 32.338 32.338 0 0 1-12.54 2.295h-5.86v44.642a32.3 32.3 0 0 1-32.3 32.296c-8.56 0-16.78-3.403-22.83-9.46a32.28 32.28 0 0 1-9.46-22.836v-44.642H832.68a28.682 28.682 0 0 1-19.951-7.043 31.405 31.405 0 0 1-12.372-21.453 31.41 31.41 0 0 1 7.016-23.751L1024.69 99.552c.59 0 .59-.562 1.18-1.151a8.052 8.052 0 0 0 1.77-2.357 6.314 6.314 0 0 0 2.94-1.767c.59-.59 1.77-1.179 2.36-1.768a6.144 6.144 0 0 1 3.51-1.178c.59-1.152 1.17-1.74 2.33-1.74.58-.59 1.76-.59 3.53-1.18.83.09 1.67-.12 2.36-.588h9.99c.89.478 1.91.683 2.92.589.58.59 2.35.589 3.53 1.178.59 0 1.77.59 2.36.59 1.17 1.15 2.33 1.74 2.92 2.33 1.17.588 1.76 1.177 2.94 1.767.16 0 .31.062.42.172.11.11.17.26.17.417.59 0 1.74.589 1.74 1.178l2.36 2.357c.59.589 1.18 1.74 1.77 2.33.89.885 1.68 1.874 2.35 2.945.15.886.56 1.707 1.18 2.357.48 1.137.88 2.31 1.18 3.508 0 .589.56 1.767.56 2.357.53 1.097.74 2.324.59 3.535 0 1.151.59 1.74.59 2.918v238.982h5.86a32.727 32.727 0 0 1 23.1 9.376 32.707 32.707 0 0 1 9.79 22.92Zm-103.34-177.335L900.807 357.333h116.843V212.294Z" fill="#FF9446"/><path d="M686.919 422.675a2.677 2.677 0 0 0 1.74 2.919c2.812.428 6.24.883 10.043 1.419 11.327-24.584 22.896-43.945 19.629-36.286a138.854 138.854 0 0 0-9.721 37.652c4.419.589 14.729 1.847 19.871 2.463 11.836-43.865 24.878-76.107 23.351-65.985-6.212 40.839-5.114 54.176-3.695 68.449 48.016 5.838 111.082 12.747 156.794 16.684 7.472-24.102 14.461-50.453 15.104-48.525 5.008 14.327 4.901 34.573 3.642 50.105 14.568 1.151 26.244 1.767 33.394 1.767 0 0 5.356-20.406 6.32-27.154a150.696 150.696 0 0 0-.482-52.113c-3.294-17.568-10.31-33.368-16.871-49.516-.02-.1-.047-.198-.08-.294a149.954 149.954 0 0 1-9.32-32.912.672.672 0 0 1 0-.268 148.247 148.247 0 0 1-1.58-24.879c.589-30.475-13.068-57.87-39.018-67.779-44.32-45.284-105.19-24.503-122.382 13.792-6.722 17.166-13.39 39.58-19.201 56.853a.188.188 0 0 1 0 .187 175.766 175.766 0 0 1-7.793 19.871c-15.934 30.85-46.623 46.757-59.745 133.55Z" fill="#263238"/><path d="M906.726 207.42c16.63 11.007 26.11 26.03 26.779 48.364.429 13.015 0 25.682 3.669 38.188 3.669 12.908 10.31 23.78 17.193 34.626 10.899 17.246 18.076 34.171 18.049 56.023-.027 21.852-3.321 48.203-12.131 68.261 0 .134-.214 0-.161 0 7.498-20.486 10.23-49.355 8.703-71.475-1.687-24.316-13.041-40.33-24.449-59.531a102.967 102.967 0 0 1-14.756-50.399c-.321-11.033.857-22.414-2.357-33.019-3.802-12.64-12.907-21.183-22.012-28.815-1.205-1.098.214-3.053 1.473-2.223ZM713.939 321.073c13.872-16.309 28.039-30.047 37.197-50.882 8.329-18.986 13.926-39.258 22.361-58.192 0-.321.563-.16.429.188-13.39 33.742-18.532 68.395-41.937 95.898-12.747 14.943-25.361 28.734-34.519 47.078a181.647 181.647 0 0 0-17.3 61.593c0 .75-.991.643-.991 0a148.926 148.926 0 0 1 34.76-95.683Z" fill="#263238"/><path d="M579.077 736.665s129.265 34.814 150.635 31.065c21.371-3.749 93.515-100.852 109.529-136.067 16.014-35.216 42.606-210.408 37.491-229.689-5.115-19.281-31.867-19.549-54.442 30.154-22.576 49.703-75.947 158.963-85.454 167.961-9.507 8.998-168.176 127.257-157.759 136.576Z" fill="#DD6A57"/><path d="M718.492 756.214c-19.817-10.363-43.946-35.509-60.388-38.134a19.096 19.096 0 0 0-20.54 9.802s-7.552-16.791-22.87-16.711c-7.846 0-14.702 12.64-14.702 12.64s-6.668-13.202-20.245-12.292c-10.846.723-16.068 13.256-16.068 13.256s-12.265-9.694-23.084-5.356c-21.906 8.65-25.548 101.763 8.194 117.509 15.72 7.338 15.372-15.452 15.372-15.452s8.409 32.671 27.583 33.903c19.174 1.232 16.951-28.333 16.951-28.333s8.436 31.574 28.44 30.85c20.835-.723 13.551-29.939 13.551-29.939s13.229 21.263 28.413 17.192c25.092-6.694-1.875-57.094 3.803-77.366h31.519l4.071-11.569Z" fill="#DD6A57"/><path d="M689.891 736.397c19.63 8.195 42.017-22.789 62.209-15.585 26.191 9.346 1.982 41.669-37.705 46.917h-31.52l7.016-31.332Z" fill="#DD6A57"/><path d="M562.527 726.623a.244.244 0 0 0-.07-.171.242.242 0 0 0-.412.171c-8.65 30.341-8.891 66.333 1.955 96.165.348.964 2.116.831 1.928-.321-5.302-32.992-7.391-62.611-3.401-95.844ZM599.805 723.275c0-.374-.563-.455-.67 0-8.757 31.333-8.034 71.85 8.65 104.789.563 1.125 2.223 1.553 1.66.214-9.346-22.709-13.389-75.036-9.64-105.003ZM652.614 829.912c-14.648-32.136-17.514-65.798-15.479-100.772 0-.455-.615-.455-.749 0-5.651 16.845-4.606 39.259-2.33 56.639a92.928 92.928 0 0 0 17.326 44.615c.482.562 1.553.214 1.232-.482Z" fill="#263238"/><path d="M753.653 718.348c-12.854-4.285-26.056 5.998-36.875 11.756a64.302 64.302 0 0 1-10.899 5.169c-8.57 2.678-14.917.964-18.746-1.42-5.999-3.829-24.718-22.521-38.241-16.309a28.81 28.81 0 0 0-11.569 9.829c-4.124-7.499-9.4-15.666-18.532-17.166a14.47 14.47 0 0 0-11.461 2.972 23.519 23.519 0 0 0-4.499 4.58 21.24 21.24 0 0 0-3.107 5.115 1.965 1.965 0 0 1 0-.188l-.294-.562-.563-1.152a12.03 12.03 0 0 0-3.186-3.99 2.675 2.675 0 0 0-1.955-.803.213.213 0 1 0 0 .428 3.105 3.105 0 0 1 1.446 1.42c.428.642.83 1.312 1.285 1.928.455.616.884 1.258 1.339 1.874l.67.991.294.509c.129.164.272.317.429.455a.404.404 0 0 0 .501.118.383.383 0 0 0 .141-.118 26.803 26.803 0 0 0 3.723-4.07 32.13 32.13 0 0 1 4.472-4.285 13.899 13.899 0 0 1 11.006-2.678c8.195 1.607 13.39 8.891 17.755 15.398h.134c-.134.214.161.402.322.241 4.499-3.936 8.783-8.355 14.996-9.265 6.695-.991 13.042 2.222 18.585 5.596a85.603 85.603 0 0 1 8.034 5.356c2.276 1.768 4.445 3.75 6.882 5.356 10.418 6.561 21.826 1.473 24.664.268a142.863 142.863 0 0 0 16.256-8.623 45.857 45.857 0 0 1 17.406-7.043 17.119 17.119 0 0 1 15.479 5.784c1.955 2.518 4.445 7.231-.67 17.97 0 0 0 .214.161.133 2.678-2.785 11.194-20.031-5.383-25.574Z" fill="#263238"/><path d="m866.583 564.687-121.981-19.496s58.272-115.393 93.273-148.868c34.546-33.046 51.364.804 46.276 51.846-5.624 56.585-17.568 116.518-17.568 116.518Z" fill="#37474F"/><path d="M862.619 541.978c-3.427-.804-6.935-1.313-10.363-2.089-3.428-.777-6.722-1.259-10.096-1.768-6.883-1.071-13.792-2.035-20.674-2.972-13.604-1.875-27.208-3.937-40.866-5.356-7.766-.857-15.478-2.035-23.271-2.678-.241 0-.268.375 0 .428 13.524 3.16 27.288 5.356 40.999 7.74 13.712 2.383 27.209 4.311 40.866 5.784 3.83.429 7.686.911 11.515 1.098 3.83.188 7.9.563 11.837.616a.402.402 0 1 0 .053-.803Z" fill="#263238"/><path d="M798.67 768.801h323.04S987.439 435.556 919.178 386.87c-20.486-14.621-53.131-16.255-75.144 13.095-18.049 24.102-68.154 119.839-70.43 154.278-2.276 34.438 24.744 68.475 24.744 68.475l.322 146.083Z" fill="#455A64"/><path d="M905.628 542.995c.83-.214 1.633-.321 2.437-.482a4.838 4.838 0 0 1 4.09.936 4.845 4.845 0 0 1 1.828 3.777 3.751 3.751 0 0 0 1.714 3.268c.608.382 1.295.62 2.008.696.82.119 1.634.28 2.437.482-.803.214-1.607.321-2.437.482a4.776 4.776 0 0 1-2.678-.241 4.977 4.977 0 0 1-3.026-4.633 3.824 3.824 0 0 0-1.848-3.187 5.188 5.188 0 0 0-2.062-.616c-.83-.16-1.633-.268-2.463-.482ZM782.066 542.995c.804-.214 1.607-.321 2.411-.482a4.838 4.838 0 0 1 4.09.936 4.845 4.845 0 0 1 1.828 3.777 3.77 3.77 0 0 0 1.741 3.268c.603.39 1.292.628 2.008.696.803.16 1.607.241 2.41.482-.803.214-1.607.321-2.41.482a4.848 4.848 0 0 1-2.678-.241 5.06 5.06 0 0 1-3.026-4.633 3.825 3.825 0 0 0-1.848-3.187 5.053 5.053 0 0 0-2.062-.616c-.857-.16-1.66-.268-2.464-.482ZM950.51 703.512c.804-.214 1.634-.321 2.437-.482a4.873 4.873 0 0 1 5.892 4.74 3.848 3.848 0 0 0 1.74 3.267c.61.374 1.297.603 2.009.67.803.16 1.633.267 2.437.482-.804.241-1.634.348-2.437.508-.9.169-1.829.076-2.678-.267a5.038 5.038 0 0 1-3.053-4.633 3.662 3.662 0 0 0-1.848-3.16 4.557 4.557 0 0 0-2.035-.616c-.83-.161-1.66-.268-2.464-.509ZM1006.37 551.672c.81-.241 1.64-.321 2.44-.482a4.808 4.808 0 0 1 4.08.936 4.866 4.866 0 0 1 1.34 1.682c.31.654.47 1.37.47 2.095-.01.647.15 1.287.45 1.858.3.571.75 1.056 1.29 1.409.6.389 1.29.619 2.01.67.8.187 1.63.268 2.44.509-.81.214-1.64.321-2.44.482-.9.179-1.83.096-2.68-.241a5.06 5.06 0 0 1-2.22-1.858 5.066 5.066 0 0 1-.83-2.775 3.814 3.814 0 0 0-.5-1.838 3.762 3.762 0 0 0-1.35-1.349 4.907 4.907 0 0 0-2.03-.616c-.83-.268-1.66-.268-2.47-.482ZM863.557 470.021c.83-.214 1.633-.322 2.437-.482a4.768 4.768 0 0 1 2.678.187 4.903 4.903 0 0 1 3.186 4.553 3.909 3.909 0 0 0 1.741 3.267 5.1 5.1 0 0 0 2.009.669c.83.161 1.633.268 2.437.482-.804.241-1.607.322-2.437.509a5.025 5.025 0 0 1-2.678-.268 4.977 4.977 0 0 1-3.026-4.713 3.765 3.765 0 0 0-.512-1.821 3.76 3.76 0 0 0-1.336-1.339 4.807 4.807 0 0 0-2.062-.643c-.804-.08-1.607-.16-2.437-.401ZM951.474 468.173c.804-.214 1.607-.321 2.437-.482a4.905 4.905 0 0 1 2.678.187 4.986 4.986 0 0 1 3.214 4.553 3.802 3.802 0 0 0 1.74 3.267 4.576 4.576 0 0 0 2.009.669c.803.161 1.607.268 2.437.483-.83.241-1.634.348-2.437.508-.9.17-1.83.077-2.678-.267a5.038 5.038 0 0 1-3.053-4.633 3.72 3.72 0 0 0-1.848-3.16 4.544 4.544 0 0 0-2.035-.616 24.863 24.863 0 0 1-2.464-.509ZM894.568 383.791c.803-.215 1.633-.322 2.437-.482a4.808 4.808 0 0 1 4.082.935 4.82 4.82 0 0 1 1.809 3.778 3.77 3.77 0 0 0 1.741 3.267 4.575 4.575 0 0 0 2.008.696c.804.161 1.634.241 2.437.482-.803.214-1.633.321-2.437.482a4.74 4.74 0 0 1-2.678-.241 5.036 5.036 0 0 1-3.053-4.633 3.722 3.722 0 0 0-1.847-3.186 4.918 4.918 0 0 0-2.036-.616c-.83-.161-1.66-.268-2.463-.482ZM841.999 610.158c.804-.214 1.607-.321 2.41-.482a4.741 4.741 0 0 1 2.678.188 4.9 4.9 0 0 1 3.214 4.526 3.78 3.78 0 0 0 1.741 3.267c.603.39 1.292.629 2.008.696.803.161 1.607.268 2.41.482-.803.241-1.607.321-2.41.482a4.848 4.848 0 0 1-2.678-.241 5.06 5.06 0 0 1-3.026-4.633 3.825 3.825 0 0 0-1.848-3.187 5.209 5.209 0 0 0-2.062-.616c-.83-.16-1.633-.241-2.437-.482ZM937.924 757.259c.803-.241 1.633-.348 2.437-.509a4.873 4.873 0 0 1 5.891 4.74 3.86 3.86 0 0 0 1.741 3.267 4.36 4.36 0 0 0 2.008.67c.804.16 1.634.267 2.437.482-.803.241-1.633.348-2.437.508a4.79 4.79 0 0 1-2.678-.267 5.007 5.007 0 0 1-3.052-4.633 3.675 3.675 0 0 0-1.848-3.16 4.56 4.56 0 0 0-2.035-.616c-.911-.161-1.741-.268-2.464-.482ZM890.658 678.205c.803-.214 1.607-.321 2.41-.482a4.983 4.983 0 0 1 2.678.188 4.926 4.926 0 0 1 3.214 4.552 3.795 3.795 0 0 0 1.74 3.267 4.441 4.441 0 0 0 2.009.67c.803.161 1.607.268 2.437.482-.83.241-1.634.321-2.437.509a5.116 5.116 0 0 1-2.678-.268 5.06 5.06 0 0 1-3.026-4.633 3.812 3.812 0 0 0-1.848-3.16 4.268 4.268 0 0 0-2.062-.616c-.696-.187-1.634-.268-2.437-.509ZM803.33 692.586c.83-.241 1.633-.348 2.437-.509a4.883 4.883 0 0 1 4.072.969 4.866 4.866 0 0 1 1.819 3.771 3.857 3.857 0 0 0 1.741 3.267 4.36 4.36 0 0 0 2.008.67c.83.161 1.634.268 2.437.482-.803.211-1.616.38-2.437.509-.9.168-1.829.075-2.678-.268a5.004 5.004 0 0 1-3.053-4.633 3.694 3.694 0 0 0-1.821-3.16 4.799 4.799 0 0 0-2.062-.616c-.83-.16-1.633-.268-2.463-.482ZM930.854 612.087c.803-.214 1.607-.322 2.41-.482a4.905 4.905 0 0 1 4.082.968 4.906 4.906 0 0 1 1.836 3.772 3.81 3.81 0 0 0 1.741 3.267 4.452 4.452 0 0 0 2.009.669c.803.161 1.606.268 2.41.482-.804.241-1.607.322-2.41.509a4.87 4.87 0 0 1-2.678-.268 5.062 5.062 0 0 1-3.026-4.633 3.809 3.809 0 0 0-1.848-3.16 4.445 4.445 0 0 0-2.062-.615c-.75-.188-1.661-.268-2.464-.509ZM1042.5 720.303c.8-.214 1.63-.321 2.43-.482.9-.195 1.83-.13 2.68.187a4.916 4.916 0 0 1 3.19 4.553c0 .646.16 1.283.46 1.853.3.57.74 1.056 1.28 1.414.62.362 1.3.59 2.01.67.83.16 1.63.267 2.44.482-.81.241-1.61.321-2.44.508-.71.132-1.45.103-2.15-.084a5.007 5.007 0 0 1-1.9-.997 4.796 4.796 0 0 1-1.28-1.716 4.914 4.914 0 0 1-.43-2.103 3.663 3.663 0 0 0-1.85-3.16 4.495 4.495 0 0 0-2.03-.643c-.78-.187-1.61-.187-2.41-.482ZM998.178 654.238c.803-.215 1.633-.322 2.432-.482a4.874 4.874 0 0 1 2.15.025c.7.167 1.36.49 1.93.944a4.859 4.859 0 0 1 1.33 1.68c.32.652.48 1.366.49 2.091a3.763 3.763 0 0 0 1.74 3.267c.6.388 1.29.619 2.01.669.8.161 1.63.268 2.43.482-.8.241-1.63.348-2.43.509-.9.17-1.83.077-2.68-.268a4.993 4.993 0 0 1-2.23-1.855 5.07 5.07 0 0 1-.83-2.778c0-.642-.17-1.272-.5-1.827a3.683 3.683 0 0 0-1.34-1.333 4.565 4.565 0 0 0-2.04-.616c-.829-.16-1.659-.267-2.462-.508ZM1092.39 750.51c.83-.214 1.63-.321 2.44-.482.7-.151 1.44-.142 2.14.025a4.853 4.853 0 0 1 3.26 2.625c.32.652.48 1.366.49 2.09-.01.647.15 1.285.45 1.856.3.571.75 1.057 1.29 1.411.6.385 1.29.615 2.01.67.83.161 1.63.268 2.43.482-.8.211-1.61.38-2.43.509-.9.168-1.83.075-2.68-.268a4.948 4.948 0 0 1-2.22-1.855 4.978 4.978 0 0 1-.81-2.778 3.758 3.758 0 0 0-.52-1.817 3.778 3.778 0 0 0-1.33-1.343 4.766 4.766 0 0 0-2.06-.616c-.83-.161-1.6-.268-2.46-.509ZM870.975 515.626c-.402.723-.911 1.366-1.366 2.062a4.836 4.836 0 0 1-3.563 2.224 4.847 4.847 0 0 1-3.962-1.393 3.753 3.753 0 0 0-3.535-1.072 4.5 4.5 0 0 0-1.901.938 22.91 22.91 0 0 1-2.062 1.365c.428-.723.91-1.365 1.365-2.062a4.908 4.908 0 0 1 2.116-1.74 4.978 4.978 0 0 1 5.356 1.124 3.766 3.766 0 0 0 3.562.938 4.66 4.66 0 0 0 1.874-1.018c.857-.455 1.5-.964 2.116-1.366ZM838.652 461.398c-.402.723-.911 1.366-1.366 2.062a4.846 4.846 0 0 1-7.525.83 3.729 3.729 0 0 0-3.535-1.071 4.51 4.51 0 0 0-1.901.937c-.663.492-1.351.948-2.062 1.366.428-.723.91-1.366 1.365-2.062a4.917 4.917 0 0 1 2.116-1.741 4.987 4.987 0 0 1 5.356 1.125 3.743 3.743 0 0 0 3.562.937 4.657 4.657 0 0 0 1.874-1.017c.75-.455 1.393-.964 2.116-1.366ZM1002.19 610.025c-.42.749-.91 1.392-1.36 2.062a5.052 5.052 0 0 1-2.063 1.794 4.91 4.91 0 0 1-2.824.33 4.907 4.907 0 0 1-2.532-1.294 3.828 3.828 0 0 0-3.535-1.071 4.51 4.51 0 0 0-1.901.937c-.696.455-1.339.964-2.062 1.366.402-.723.91-1.366 1.366-2.062a4.813 4.813 0 0 1 2.088-1.741 5.062 5.062 0 0 1 5.356 1.125 3.7 3.7 0 0 0 3.535.937c.7-.183 1.35-.522 1.902-.991.75-.455 1.39-.964 2.03-1.392ZM920.41 434.27c-.402.723-.91 1.366-1.366 2.062a4.928 4.928 0 0 1-2.035 1.768 4.983 4.983 0 0 1-5.49-.938 3.83 3.83 0 0 0-3.535-1.098 4.662 4.662 0 0 0-1.901.938c-.696.455-1.339.964-2.062 1.392.402-.75.911-1.392 1.366-2.089a4.653 4.653 0 0 1 2.115-1.713 4.98 4.98 0 0 1 5.356 1.124 3.858 3.858 0 0 0 3.642 1.018 5.015 5.015 0 0 0 1.875-1.018c.803-.535 1.312-1.044 2.035-1.446ZM863.691 394.208c-.402.723-.911 1.366-1.366 2.062a5.14 5.14 0 0 1-2.035 1.794 4.98 4.98 0 0 1-5.49-.964 3.746 3.746 0 0 0-3.535-1.071 4.358 4.358 0 0 0-1.901.937c-.697.455-1.339.964-2.062 1.366.401-.723.91-1.366 1.366-2.062a4.74 4.74 0 0 1 2.115-1.741 4.978 4.978 0 0 1 5.356 1.125 3.728 3.728 0 0 0 3.562.937 4.657 4.657 0 0 0 1.874-1.017c.75-.456 1.366-.964 2.116-1.366ZM917.223 485.259c.241.803.321 1.633.509 2.436a5.352 5.352 0 0 1-.188 2.678 4.946 4.946 0 0 1-4.552 3.187 3.831 3.831 0 0 0-3.267 1.741 4.258 4.258 0 0 0-.67 2.008c-.187.804-.267 1.634-.508 2.437-.215-.803-.322-1.633-.483-2.437a4.56 4.56 0 0 1 .268-2.678 4.986 4.986 0 0 1 4.633-3.052 3.696 3.696 0 0 0 3.16-1.848c.351-.626.561-1.32.616-2.036.161-.803.268-1.633.482-2.436ZM897.915 627.914c.214.803.321 1.633.482 2.436a4.872 4.872 0 0 1-4.74 5.892 3.802 3.802 0 0 0-3.267 1.741 4.59 4.59 0 0 0-.67 2.008c-.16.804-.267 1.634-.482 2.437-.241-.803-.348-1.633-.508-2.437-.17-.9-.077-1.829.267-2.678a5.043 5.043 0 0 1 4.633-3.053 3.664 3.664 0 0 0 3.16-1.847 4.56 4.56 0 0 0 .616-2.036c.161-.83.348-1.66.509-2.463ZM1085.21 694.005c.24.804.35 1.607.51 2.411.15.709.14 1.443-.03 2.149a4.71 4.71 0 0 1-.94 1.932 4.885 4.885 0 0 1-1.68 1.342c-.65.318-1.36.487-2.09.495a3.81 3.81 0 0 0-3.27 1.74 4.233 4.233 0 0 0-.67 2.009c-.16.803-.26 1.607-.48 2.41-.24-.803-.35-1.607-.51-2.41a4.9 4.9 0 0 1 .27-2.678 5.035 5.035 0 0 1 1.86-2.207 5.068 5.068 0 0 1 2.77-.819 3.803 3.803 0 0 0 3.16-1.848c.36-.632.57-1.337.62-2.062.19-.857.29-1.66.48-2.464ZM998.446 505.022c.214.803.321 1.607.482 2.437.188.892.123 1.82-.188 2.678a4.98 4.98 0 0 1-4.552 3.213 3.802 3.802 0 0 0-3.267 1.741 4.578 4.578 0 0 0-.67 2.008c-.161.804-.268 1.607-.482 2.437-.241-.83-.321-1.633-.509-2.437a4.882 4.882 0 0 1 1.082-4.044 4.865 4.865 0 0 1 3.819-1.713 3.726 3.726 0 0 0 3.16-1.848 4.26 4.26 0 0 0 .616-2.035c.187-.83.268-1.634.509-2.437ZM998.446 733.987c.214.804.321 1.607.482 2.41a4.905 4.905 0 0 1-2.648 5.424 4.897 4.897 0 0 1-2.092.495 3.802 3.802 0 0 0-3.267 1.74 4.441 4.441 0 0 0-.67 2.009c-.161.803-.268 1.607-.482 2.41-.241-.803-.321-1.607-.509-2.41a5.116 5.116 0 0 1 .268-2.678 5.06 5.06 0 0 1 4.633-3.026 3.801 3.801 0 0 0 3.16-1.848c.378-.623.59-1.333.616-2.062.187-.777.268-1.58.509-2.464ZM1042.5 602.901c.24.804.32 1.634.48 2.437.16.707.16 1.441 0 2.148a4.722 4.722 0 0 1-.94 1.935 4.733 4.733 0 0 1-1.68 1.336c-.65.313-1.37.475-2.09.473a3.827 3.827 0 0 0-3.27 1.74 4.243 4.243 0 0 0-.67 2.009c-.19.803-.27 1.633-.51 2.437-.21-.804-.32-1.634-.48-2.437a4.552 4.552 0 0 1 .27-2.678 4.97 4.97 0 0 1 4.6-3.053 3.72 3.72 0 0 0 3.19-1.848c.35-.625.56-1.32.62-2.035.16-.83.34-1.66.48-2.464ZM819.263 633.028c.242.804.322 1.607.483 2.411a4.85 4.85 0 0 1-4.714 5.918 3.77 3.77 0 0 0-3.267 1.74 4.157 4.157 0 0 0-.669 2.009c-.188.803-.268 1.607-.509 2.41-.214-.803-.321-1.607-.482-2.41a4.658 4.658 0 0 1 .268-2.678 4.974 4.974 0 0 1 4.606-3.026 3.828 3.828 0 0 0 3.187-1.848 4.923 4.923 0 0 0 .615-2.062c.161-.857.268-1.66.482-2.464ZM823.602 505.022c.201.803.362 1.617.482 2.437.198.89.142 1.818-.161 2.678a4.986 4.986 0 0 1-4.553 3.213 3.77 3.77 0 0 0-3.267 1.741 4.257 4.257 0 0 0-.669 2.008c-.188.804-.268 1.607-.509 2.437-.214-.83-.321-1.633-.482-2.437a4.74 4.74 0 0 1 .241-2.678 5.036 5.036 0 0 1 4.633-3.053 3.777 3.777 0 0 0 3.187-1.847c.351-.626.561-1.32.616-2.036.16-.856.267-1.66.482-2.463ZM870.305 421.818c.215.803.322 1.606.482 2.437.188.892.123 1.82-.187 2.678a4.986 4.986 0 0 1-4.553 3.213 3.801 3.801 0 0 0-3.267 1.741 4.576 4.576 0 0 0-.669 2.008c-.161.804-.268 1.607-.482 2.437-.241-.83-.321-1.633-.509-2.437a4.871 4.871 0 0 1 .268-2.678 5.059 5.059 0 0 1 4.633-3.026 3.725 3.725 0 0 0 3.16-1.848 4.257 4.257 0 0 0 .616-2.035c.187-.964.267-1.687.508-2.49ZM857.772 550.44c.215.83.322 1.634.483 2.437a4.92 4.92 0 0 1-.026 2.15 4.914 4.914 0 0 1-2.622 3.274 4.914 4.914 0 0 1-2.092.494 3.802 3.802 0 0 0-3.268 1.741 4.452 4.452 0 0 0-.669 2.008c-.161.804-.268 1.607-.482 2.411-.241-.804-.348-1.607-.509-2.411a4.871 4.871 0 0 1 .268-2.678 5.065 5.065 0 0 1 4.633-3.026 3.803 3.803 0 0 0 3.16-1.847 4.803 4.803 0 0 0 .616-2.062c.16-.857.321-1.661.508-2.491ZM970.327 567.74c.214.803.321 1.633.482 2.437a4.868 4.868 0 0 1-.969 4.073 4.87 4.87 0 0 1-3.771 1.818 3.86 3.86 0 0 0-3.267 1.741 4.685 4.685 0 0 0-.669 2.008c-.161.804-.268 1.634-.482 2.437-.242-.803-.322-1.633-.509-2.437a4.789 4.789 0 0 1 .267-2.678 5.044 5.044 0 0 1 4.633-3.053 3.664 3.664 0 0 0 3.16-1.847 4.264 4.264 0 0 0 .616-2.036c.241-.83.241-1.66.509-2.463ZM866.288 712.189c.215.83.322 1.633.482 2.437a4.84 4.84 0 0 1-.935 4.09 4.839 4.839 0 0 1-3.778 1.828 3.725 3.725 0 0 0-3.267 1.741 4.467 4.467 0 0 0-.696 1.981c-.12.82-.28 1.634-.482 2.437-.214-.803-.322-1.606-.482-2.437a4.758 4.758 0 0 1 .241-2.678 4.975 4.975 0 0 1 4.633-3.026 3.827 3.827 0 0 0 3.186-1.848 5.188 5.188 0 0 0 .616-2.062c.161-.83.268-1.633.482-2.463ZM951.019 526.901c.429-.723.937-1.366 1.393-2.062a4.74 4.74 0 0 1 2.035-1.768 4.931 4.931 0 0 1 5.356.938 3.885 3.885 0 0 0 3.561 1.098 4.592 4.592 0 0 0 1.875-.938c.696-.482 1.339-.964 2.089-1.392-.429.75-.938 1.392-1.393 2.089a4.763 4.763 0 0 1-2.089 1.713 5.03 5.03 0 0 1-5.356-1.124 3.795 3.795 0 0 0-3.534-.938 5.015 5.015 0 0 0-1.875 1.018c-.669.455-1.312.964-2.062 1.366ZM885.382 586.378c.402-.723.911-1.366 1.366-2.062a4.846 4.846 0 0 1 7.525-.83 3.729 3.729 0 0 0 3.535 1.071 4.498 4.498 0 0 0 1.901-.937 23.137 23.137 0 0 1 2.062-1.366c-.428.723-.91 1.366-1.365 2.062a4.875 4.875 0 0 1-7.552.616 3.723 3.723 0 0 0-3.535-.937c-.691.2-1.33.547-1.875 1.017-.696.455-1.339.964-2.062 1.366ZM840.875 674.001c.428-.75.937-1.393 1.392-2.062a4.846 4.846 0 0 1 7.525-.83 3.8 3.8 0 0 0 3.535 1.071 4.498 4.498 0 0 0 1.901-.937 23.137 23.137 0 0 1 2.062-1.366c-.428.723-.91 1.366-1.365 2.062a4.853 4.853 0 0 1-3.616 2.109 4.84 4.84 0 0 1-3.909-1.493 3.743 3.743 0 0 0-3.562-.937 4.583 4.583 0 0 0-1.875.99c-.696.483-1.446.965-2.088 1.393ZM860.102 765.025c.429-.723.938-1.366 1.393-2.062a4.74 4.74 0 0 1 2.035-1.768 4.98 4.98 0 0 1 5.356.938 3.8 3.8 0 0 0 3.535 1.098 4.59 4.59 0 0 0 1.901-.964c.67-.456 1.312-.938 2.062-1.366-.428.75-.91 1.392-1.365 2.062a4.884 4.884 0 0 1-2.116 1.741 5.03 5.03 0 0 1-2.844.228 5.03 5.03 0 0 1-2.512-1.353 3.807 3.807 0 0 0-3.535-.937c-.691.2-1.33.547-1.874 1.017-.643.455-1.286.964-2.036 1.366ZM946.199 664.976c.401-.723.91-1.366 1.366-2.062a4.912 4.912 0 0 1 2.035-1.767 4.975 4.975 0 0 1 5.49.937 3.796 3.796 0 0 0 3.534 1.098 4.839 4.839 0 0 0 1.902-.937c.669-.456 1.312-.964 2.062-1.393-.429.75-.911 1.393-1.366 2.089a4.661 4.661 0 0 1-2.115 1.714 4.982 4.982 0 0 1-5.356-1.125 3.862 3.862 0 0 0-3.562-.937c-.691.2-1.33.548-1.875 1.017-.749.456-1.392.965-2.115 1.366ZM1005.44 701.236c.4-.723.91-1.366 1.36-2.062a5.088 5.088 0 0 1 2.04-1.768 4.95 4.95 0 0 1 2.81-.326c.95.166 1.84.605 2.54 1.264a3.85 3.85 0 0 0 3.54 1.098 4.746 4.746 0 0 0 1.9-.938c.69-.455 1.34-.964 2.06-1.392-.4.75-.91 1.392-1.37 2.089a4.515 4.515 0 0 1-2.11 1.713c-.91.356-1.9.439-2.85.24-.95-.2-1.82-.674-2.51-1.364a3.875 3.875 0 0 0-1.66-.922 3.867 3.867 0 0 0-1.9-.016c-.69.201-1.33.548-1.87 1.018-.62.455-1.26.964-1.98 1.366ZM905.788 728.765c.402-.723.911-1.365 1.366-2.062a4.745 4.745 0 0 1 2.035-1.767 4.983 4.983 0 0 1 5.49.937 3.8 3.8 0 0 0 3.535 1.098 4.566 4.566 0 0 0 1.901-.964c.67-.455 1.312-.937 2.062-1.366-.428.75-.91 1.393-1.366 2.062a4.71 4.71 0 0 1-2.115 1.741 4.978 4.978 0 0 1-5.356-1.125 3.867 3.867 0 0 0-3.562-.937 5.01 5.01 0 0 0-1.874 1.018c-.75.455-1.393.964-2.116 1.365ZM1034.33 765.025c.43-.723.91-1.366 1.37-2.062.5-.768 1.2-1.38 2.03-1.768a4.973 4.973 0 0 1 5.49.938 3.85 3.85 0 0 0 3.54 1.098 4.746 4.746 0 0 0 1.9-.938c.69-.482 1.34-.964 2.06-1.392-.4.749-.91 1.392-1.37 2.088a4.718 4.718 0 0 1-2.09 1.714 4.98 4.98 0 0 1-2.84.234 5.013 5.013 0 0 1-2.51-1.358 3.842 3.842 0 0 0-3.54-.938c-.7.194-1.35.542-1.9 1.018-.8.455-1.44.964-2.14 1.366ZM1048.82 667.039c.4-.75.91-1.393 1.36-2.089a5.088 5.088 0 0 1 2.04-1.768 4.983 4.983 0 0 1 5.49.938c.45.466 1.01.812 1.62 1.004.62.192 1.28.224 1.91.094.7-.163 1.35-.483 1.9-.938.7-.455 1.34-.964 2.07-1.392-.4.75-.91 1.392-1.37 2.089a4.52 4.52 0 0 1-2.11 1.713c-.91.356-1.9.439-2.85.24-.95-.2-1.82-.674-2.51-1.364a3.838 3.838 0 0 0-3.54-.938c-.7.194-1.35.542-1.9 1.018-.75.482-1.39.991-2.11 1.393ZM814.068 741.325c.429-.75.911-1.393 1.366-2.089a5.085 5.085 0 0 1 2.035-1.767 4.975 4.975 0 0 1 5.49.937 3.826 3.826 0 0 0 3.535 1.098 4.66 4.66 0 0 0 1.901-.937c.696-.456 1.339-.964 2.062-1.393-.401.75-.91 1.393-1.366 2.089a4.606 4.606 0 0 1-2.088 1.714 5.012 5.012 0 0 1-5.356-1.125 3.752 3.752 0 0 0-3.535-.91 4.503 4.503 0 0 0-1.902.99c-.776.456-1.472.964-2.142 1.393ZM806.704 588.44c.402-.723.91-1.366 1.366-2.062a5.14 5.14 0 0 1 2.035-1.794 4.978 4.978 0 0 1 5.49.964 3.745 3.745 0 0 0 3.535 1.071 4.07 4.07 0 0 0 1.901-.937c.696-.455 1.339-.964 2.062-1.366-.418.712-.874 1.4-1.366 2.062a4.821 4.821 0 0 1-2.089 1.741 5.008 5.008 0 0 1-5.356-1.125 3.745 3.745 0 0 0-3.534-.937 4.907 4.907 0 0 0-1.902 1.017c-.75.456-1.392.964-2.142 1.366Z" fill="#fff"/><path d="M894.086 384.46c-.991 5.008-23.593 37.974-46.302 37.679-7.391-.134-8.57-40.518-8.57-40.518l-.776-2.945-10.712-41.455 48.016-33.127 6.962-4.391s2.169 11.542 4.767 25.922c0 .67.241 1.339.348 2.062.107.723.348 1.554.455 2.33.429 2.142.831 4.338 1.206 6.534.294 1.661.562 3.267.803 5.035.241 1.767.509 3.481.803 5.356a275.9 275.9 0 0 1 3 37.518Z" fill="#DD6A57"/><path d="M887.471 325.625a85.986 85.986 0 0 1-49.033 53.051l-10.712-41.455 48.016-33.127 6.962-4.391s2.169 11.542 4.767 25.922Z" fill="#263238"/><path d="M768.864 275.655c-1.981 75.143 42.848 84.811 58.915 85.212 14.702.375 64.834-.214 74.581-74.741 9.748-74.528-24.583-99.085-58.165-101.763-33.581-2.678-73.349 16.148-75.331 91.292Z" fill="#DD6A57"/><path d="M780.272 252.919c1.768-.295 3.321-.83 5.035-1.286a8.569 8.569 0 0 0 4.874-2.303 2.676 2.676 0 0 0-.134-3.267 6.663 6.663 0 0 0-6.615-1.258 9.697 9.697 0 0 0-5.945 3.695 2.867 2.867 0 0 0 2.785 4.419ZM830.511 263.898a46.612 46.612 0 0 1-5.142-.857 8.398 8.398 0 0 1-5.034-1.847 2.68 2.68 0 0 1-.161-3.267 6.662 6.662 0 0 1 6.481-1.848 9.693 9.693 0 0 1 6.239 3.187 2.835 2.835 0 0 1-.797 4.271 2.833 2.833 0 0 1-1.586.361ZM791.359 277.368c0-.187-.375.268-.375.483.509 5.088.241 11.006-4.258 13.014-.16 0 0 .322 0 .295 5.624-1.178 5.918-9.052 4.633-13.792Z" fill="#263238"/><path d="M786.432 272.334c-8.248 0-7.793 16.443-.134 16.523 7.659.08 7.016-16.443.134-16.523Z" fill="#263238"/><path d="M783.03 273.539c-1.285.91-2.517 2.517-4.097 2.678-1.58.16-3.187-1.58-4.392-3.267 0-.161-.241 0-.241.187 0 3.16 1.152 6.427 4.178 6.936 3.026.509 4.74-2.276 5.356-5.356.187-.669-.295-1.553-.804-1.178ZM824.968 321.1c-1.259 1.151-2.544 2.677-4.419 2.865a13.543 13.543 0 0 1-5.356-1.5.187.187 0 0 0-.241.268 6.88 6.88 0 0 0 6.427 2.999 5.352 5.352 0 0 0 4.178-4.391c-.107-.295-.402-.402-.589-.241ZM799.366 300.56s-.589 7.659-.401 11.247a74.183 74.183 0 0 1 20.888 1.821c1.606.429 1.499-.884-.322-1.848a30.638 30.638 0 0 0-17.647-3.267c-.322-.991 1.151-11.783.589-11.783a31.43 31.43 0 0 0-8.034 2.303c.803-16.067 4.177-31.707 4.74-47.641a.482.482 0 0 0-.938-.187c-4.713 16.255-6.052 34.626-7.31 51.122-.161 2.035 7.043-1.071 8.435-1.767ZM835.117 277.636a16.34 16.34 0 0 0-9.453-.75 13.402 13.402 0 0 0-4.714 2.089 12.172 12.172 0 0 0-3.508 4.124l-1.58 2.919 3.241-.348a32.588 32.588 0 0 1 6.855 0 14.037 14.037 0 0 1 6.642 2.357 10.255 10.255 0 0 0-6.053-4.901 19.176 19.176 0 0 0-7.819-.884l1.66 2.678a11.946 11.946 0 0 1 6.052-5.061 36.127 36.127 0 0 1 8.677-2.223Z" fill="#263238"/><path d="M825.824 290.946a27.076 27.076 0 0 1-6.936-2.678c-.509-.322-2.463-1.795-2.356-2.223a15.2 15.2 0 0 1 1.285-3.588 9.895 9.895 0 0 0-2.008 3.481 4.947 4.947 0 0 0 2.517 3.347 14.385 14.385 0 0 0 7.498 1.661ZM808.043 311.271s4.659 6.695 10.015 7.499c6.16.964 6.883-4.58 0-7.74-3.481-1.633-10.015.241-10.015.241Z" fill="#263238"/><path d="M818.032 318.904a12.49 12.49 0 0 1-6.187-3.294c1.286-1.902 4.232-4.017 10.846-.455.964 2.249-.75 4.231-4.659 3.749Z" fill="#FF99BA"/><path d="M901.905 287.92c-12.372 1.553-16.496-24.343-16.496-24.343s-25.227 1.285-35.322-34.599a55.985 55.985 0 0 0 12.64 29.457s-44.749-2.678-65.289-38.91c0 0 8.409 18.611 15.746 25.012 0 0-18.933-4.285-28.761-19.014 0 0-6.749 21.879-12.453 28.119 0 0-1.954-77.956 70.591-73.189 0 0 45.311.804 63.281 35.778 17.969 34.974-3.937 71.689-3.937 71.689Z" fill="#263238"/><path d="M890.336 291.562s14.97-24.397 25.95-19.201c10.979 5.195.696 39.901-11.489 45.284a12.7 12.7 0 0 1-9.939.826 12.707 12.707 0 0 1-7.467-6.61l2.945-20.299Z" fill="#DD6A57"/><path d="M913.099 282.242c.188 0 .241.241 0 .322-8.542 4.07-12.64 12.452-15.371 21.075 2.41-3.401 5.838-5.356 10.363-2.678.241.134 0 .509-.214.482a7.766 7.766 0 0 0-8.409 3.241 35.668 35.668 0 0 0-3.695 7.177c-.375.803-1.794.482-1.553-.429a.483.483 0 0 1 0-.214c-.75-11.06 6.962-27.128 18.879-28.976Z" fill="#263238"/><path d="M897.754 313.735a3.508 3.508 0 1 0 3.294-3.695 3.47 3.47 0 0 0-2.418 1.16 3.485 3.485 0 0 0-.876 2.535ZM906.163 307.924a2.253 2.253 0 0 0 1.495 2.009 2.25 2.25 0 1 0 .621-4.365 2.216 2.216 0 0 0-2.116 2.356Z" fill="#fff"/><path d="m662.472 454.074-38.892 9.036 27.975 120.408 38.892-9.037-27.975-120.407Z" fill="#EBEBEB"/><path d="M567.669 134.473a168.707 168.707 0 0 0-128.207 136.722 168.708 168.708 0 0 0 77.213 170.787 168.708 168.708 0 0 0 187.337-5.937A168.71 168.71 0 0 0 633.5 132.357a168.693 168.693 0 0 0-65.831 2.116ZM636.011 428.7a133.252 133.252 0 0 1-163.376-125.533 133.258 133.258 0 0 1 78.303-125.685 133.25 133.25 0 0 1 146.08 24.267A133.255 133.255 0 0 1 636.011 428.7Z" fill="#A6A6A6"/><path d="m675.745 540.408-26.085 6.061c-9.033 2.098-14.654 11.122-12.555 20.155l33.363 143.597c2.098 9.032 11.122 14.653 20.155 12.555l26.085-6.061c9.032-2.098 14.654-11.122 12.555-20.155L695.9 552.963c-2.099-9.032-11.123-14.654-20.155-12.555Z" fill="#263238"/><g opacity=".3"><path d="M735.631 268.746a133.227 133.227 0 0 1-251.19 84.966 133.228 133.228 0 0 1 91.262-184.64 133.206 133.206 0 0 1 138.529 52.284 133.204 133.204 0 0 1 21.399 47.39Z" fill="#fff"/><path d="M738.898 306.291a133.31 133.31 0 0 1-139.254 125.703l139.254-125.703ZM677.6 186.613 486.849 358.779a132.47 132.47 0 0 1-10.712-29.752 130.693 130.693 0 0 1-3.321-36.072L613.65 165.832a133.061 133.061 0 0 1 63.95 20.781ZM731.962 255.972l-181.7 163.971a133.032 133.032 0 0 1-22.575-13.202L721.17 232.138a128.95 128.95 0 0 1 10.792 23.834ZM692.248 197.485 496.061 374.498c-.911-1.339-1.821-2.678-2.678-4.043l195.062-176.023a42.12 42.12 0 0 1 3.803 3.053ZM569.222 170.759l-87.034 78.518a121.284 121.284 0 0 1 4.955-10.899l70.778-63.896a150.797 150.797 0 0 1 11.301-3.723Z" fill="#EBEBEB"/></g><path d="M511.272 321.93a3.688 3.688 0 0 1 0-.536c-.483-2.678.348 2.544 0 .804-.349-1.741-.536-4.124-.697-6.186a129.427 129.427 0 0 1 0-21.852c0-1.045.188-2.063.268-3.08 0-.321-.294 2.41 0 .241l.241-1.875c.321-2.41.723-4.82 1.205-7.203a119.234 119.234 0 0 1 4.097-15.506c.402-1.205.857-2.41 1.286-3.615.562-1.634-.75 1.794.134-.348l.883-2.116a154.658 154.658 0 0 1 3.75-8.034c1.339-2.678 3.079-5.543 4.766-8.194a174.784 174.784 0 0 1 2.437-3.642c1.42-2.062-.669.83.429-.616l1.58-2.089a122.731 122.731 0 0 1 16.282-16.871s1.232-.991.321-.241c-.91.75.482-.402.643-.536l2.678-2.115c1.794-1.339 3.615-2.678 5.49-3.857a138.811 138.811 0 0 1 12.158-7.257 10.056 10.056 0 0 0 4.561-10.205 10.077 10.077 0 0 0-1.401-3.667 10.076 10.076 0 0 0-6.282-4.453 10.066 10.066 0 0 0-7.59 1.293c-26.458 14.113-48.204 36.394-59.13 64.486a138.43 138.43 0 0 0-9.239 59.424c.268 4.496.84 8.97 1.714 13.389a10.07 10.07 0 0 0 12.48 6.776 10.364 10.364 0 0 0 6.775-12.507l.161.188ZM520.162 350.423a9.863 9.863 0 0 1-.034 5.72 9.856 9.856 0 1 1-17.001-9.206 9.854 9.854 0 0 1 4.77-3.155 9.826 9.826 0 0 1 12.265 6.641Z" fill="#fff"/><path d="M946.306 434.859c24.101 87.141 35.67 174.63 22.334 219.753-8.516 28.762-29.056 48.204-42.124 54.631-30.556 15.104-131.917-6.32-197.955-19.603-16.228-3.267 22.04-134.032 38.348-127.096 24.102 10.203 97.88 23.968 99.915 24.638 4.365 1.499 13.39-93.06 19.763-148.493 8.811-77.233 45.82-54.149 59.719-3.83Z" fill="#DD6A57"/><path d="M601.652 537.639c-7.177 11.703 2.143 22.415 2.143 22.415a29.236 29.236 0 0 0-13.711 14.434c-4.312 11.247 11.435 22.95 11.435 22.95a35.91 35.91 0 0 0-12.024 17.514c-3.053 11.194 11.167 25.253 11.167 25.253a31.62 31.62 0 0 0-.884 22.066c7.096 19.041 37.491 25.28 56.773 29.458 19.281 4.178 77.875-2.142 89.176-2.196l27.716-123.534s-81.168-43.249-104.44-44.91c-19.79-1.339-59.29 3.428-67.351 16.55Z" fill="#DD6A57"/><path d="M605.08 558.26c21.424-3.509 42.473-.563 63.763 1.178a.374.374 0 0 1 .265.64.378.378 0 0 1-.265.11c-21.183-1.982-42.473.241-63.655-.884a.532.532 0 0 1-.395-.828.53.53 0 0 1 .287-.216ZM602.295 595.912a55.28 55.28 0 0 1 14.675.937 452.4 452.4 0 0 1 15.452 2.303 840.712 840.712 0 0 1 30.743 5.918c.456 0 .429.804 0 .723-10.283-1.687-20.566-3.213-30.877-4.472-5.168-.643-10.336-1.205-15.532-1.767a66.352 66.352 0 0 1-14.541-2.223.75.75 0 0 1 .08-1.419ZM601.09 640.259c4.178-.723 9.051.776 13.176 1.553 4.686.884 9.346 1.714 14.032 2.544 9.373 1.66 18.746 3.294 28.172 4.633.455 0 .402.803 0 .723-9.587-1.286-19.174-2.464-28.734-3.83-4.687-.669-9.4-1.392-14.086-2.115-3.991-.616-9.025-.938-12.587-3.026a.27.27 0 0 1-.089-.39.262.262 0 0 1 .116-.092Z" fill="#263238"/><path d="M628.111 524.839c-9.721 1.258-20.862 3.401-27.155 11.676a17.569 17.569 0 0 0-3.99 12.559 16.9 16.9 0 0 0 5.999 10.846 21.694 21.694 0 0 0-14.836 17.675 14.798 14.798 0 0 0 .751 5.982 14.798 14.798 0 0 0 3.078 5.185c1.339 1.58 2.866 2.972 4.339 4.418 1.472 1.446 3.106 2.678 4.632 3.937a40.793 40.793 0 0 0-4.632 4.231 32.532 32.532 0 0 0-4.312 5.088 22.743 22.743 0 0 0-4.231 12.453 22.34 22.34 0 0 0 4.445 12.292 25.473 25.473 0 0 0 8.918 8.944.216.216 0 0 0 .307-.215.217.217 0 0 0-.066-.133 36.729 36.729 0 0 1-7.257-9.132 23.476 23.476 0 0 1-3.669-12.158 24.371 24.371 0 0 1 4.017-11.435 60.112 60.112 0 0 1 3.695-5.356 46.72 46.72 0 0 0 3.696-4.445s-3.187-3.374-4.312-4.82a64.256 64.256 0 0 1-3.24-4.58 14.785 14.785 0 0 1-2.678-10.364 19.1 19.1 0 0 1 4.499-9.212c2.25-2.678 5.169-4.793 7.525-7.418a1.196 1.196 0 0 0 .134-.937c-5.356-8.355-4.686-16.282 1.044-22.468 2.92-3 6.335-5.473 10.096-7.311a89.926 89.926 0 0 1 13.39-4.847c.188-.027.107-.482-.187-.455ZM805.659 704.771c-5.704-1.768-11.729-2.678-17.567-3.964-5.838-1.285-11.73-2.49-17.621-3.669a1552.82 1552.82 0 0 0-18.023-3.481c-5.998-1.125-11.595-2.383-17.433-3.079a71.579 71.579 0 0 0-16.925.374 258.43 258.43 0 0 1-17.032 1.366 245.824 245.824 0 0 1-34.411-.75 232.642 232.642 0 0 1-38.322-6.828c-.268 0-.348.321 0 .401a208.272 208.272 0 0 0 67.565 10.712c5.677 0 11.381-.348 17.032-.91a151.743 151.743 0 0 1 17.031-1.447c6.027.399 12.01 1.294 17.889 2.678 5.918 1.098 11.81 2.223 17.728 3.268 6.695 1.178 13.39 2.383 20.112 3.427 6.721 1.045 13.39 2.544 19.977 3.026.482-.107.509-.99 0-1.124ZM888.837 592.591c-8.57-2.919-17.621-4.74-26.432-6.855-8.81-2.116-17.728-4.151-26.592-6.16-16.924-3.829-34.063-7.07-50.881-11.756-4.419-1.232-8.784-2.678-13.095-4.124-2.169-.777-4.285-1.634-6.401-2.678-2.115-1.044-4.552-1.687-6.641-2.678-.241-.161-.428.214-.187.375 1.687 1.044 3.24 2.303 4.981 3.321 1.74 1.017 3.856 2.035 5.838 2.945a109.527 109.527 0 0 0 11.113 4.365c7.873 2.678 16.068 4.526 24.102 6.401 17.674 4.043 35.376 8.034 53.104 11.863 4.981 1.071 9.989 2.142 14.996 3.133 5.008.991 10.471 2.223 15.773 2.812a.509.509 0 0 0 .322-.964Z" fill="#263238"/><path d="m860.959 560.188 122.49 16.657s-22.388-127.337-46.195-169.515c-23.485-41.616-49.408-14.113-59.29 36.233-11.087 55.808-17.005 116.625-17.005 116.625Z" fill="#37474F"/><path d="M974.264 558.394c-3.428-.804-6.936-1.313-10.364-2.062-3.428-.75-6.722-1.259-10.096-1.795-6.882-1.071-13.791-2.035-20.701-2.972-13.604-1.875-27.181-3.937-40.838-5.356-7.767-.857-15.506-2.009-23.272-2.678a.213.213 0 0 0-.214.214.212.212 0 0 0 .214.214c13.524 3.16 27.315 5.517 41.026 7.74 13.712 2.222 27.208 4.311 40.866 5.811 3.83.402 7.659.91 11.515 1.098 3.857.187 7.9.535 11.837.616a.418.418 0 0 0 .428-.402.41.41 0 0 0-.112-.297.409.409 0 0 0-.289-.131Z" fill="#263238"/><path d="M1041.37 96.393a81.713 81.713 0 0 1-52.346 67.952 81.732 81.732 0 0 1-84.227-16.241l-40.919 6.025 20.487-35.375A81.786 81.786 0 0 1 985.254 10.04a81.743 81.743 0 0 1 31.586 18.93 81.733 81.733 0 0 1 20.09 30.871 81.894 81.894 0 0 1 4.5 36.552h-.06Z" fill="#fff"/><path d="M1041.37 96.393a82.028 82.028 0 0 1-16.49 41.454 75.11 75.11 0 0 1-16.07 15.827 83.016 83.016 0 0 1-41.75 16.229 76.579 76.579 0 0 1-11.354.214 69.479 69.479 0 0 1-11.301-1.178 82.507 82.507 0 0 1-40.464-19.951l.964.294-40.839 6.267-2.973.455 1.5-2.678 20.352-35.429v1.392a82.774 82.774 0 0 1 16.19-87.659 82.778 82.778 0 0 1 86.349-22.137A83.665 83.665 0 0 1 1017 28.828a82.051 82.051 0 0 1 19.97 30.976 82.03 82.03 0 0 1 4.4 36.589Zm0 0a80.887 80.887 0 0 0-24.63-66.976A80.87 80.87 0 0 0 948.663 8.02a80.498 80.498 0 0 0-33.796 13.39 84.08 84.08 0 0 0-24.45 26.78 80.777 80.777 0 0 0-10.391 34.599 82.187 82.187 0 0 0 5.758 35.616l.295.75-.375.67-20.594 35.295-1.473-2.169 40.946-5.731h.563l.401.375a80.768 80.768 0 0 0 39.179 20.165 70.08 70.08 0 0 0 11.087 1.366c3.727.254 7.467.254 11.194 0a80.335 80.335 0 0 0 21.825-4.82 75.992 75.992 0 0 0 19.738-10.712 88.985 88.985 0 0 0 8.62-7.204 92.92 92.92 0 0 0 7.45-8.435 82.161 82.161 0 0 0 16.73-41.562Z" fill="#263238"/><path d="M920.062 126.091a8.032 8.032 0 0 1 8.034-8.409 8.41 8.41 0 0 1 0 16.818 8.036 8.036 0 0 1-7.534-5.219 8.032 8.032 0 0 1-.5-3.19Zm3.401-19.388-1.902-65.101h13.015l-2.008 65.02-9.105.081ZM951.314 126.091a8.032 8.032 0 0 1 8.034-8.409 8.407 8.407 0 0 1 8.408 8.409 8.41 8.41 0 0 1-8.408 8.409 8.036 8.036 0 0 1-7.534-5.219 8.032 8.032 0 0 1-.5-3.19Zm3.401-19.388-1.902-65.101h13.015l-1.901 65.101h-9.212ZM982.458 126.091a8.033 8.033 0 0 1 8.034-8.409 8.41 8.41 0 0 1 0 16.818 8.035 8.035 0 0 1-8.034-8.409Zm3.401-19.388-1.901-65.101h13.015l-1.902 65.101h-9.212Z" fill="#FF9446"/></svg>