<svg width="1212" height="858" viewBox="0 0 1212 858" fill="none" xmlns="http://www.w3.org/2000/svg">
<path d="M202.556 547.066C165.922 582.924 159.709 638.411 167.475 687.016C167.689 688.114 169.403 687.819 169.403 686.775C169.403 675.715 169.055 664.762 169.082 653.836C169.296 653.327 169.457 652.845 169.671 652.363C179.231 645.401 188.095 637.581 193.451 626.869C199.584 614.818 201.994 601.268 206.654 588.681C207.109 587.476 205.823 587.824 204.967 588.467C182.686 604.883 175.509 622.584 169.189 646.204C169.315 633.844 170.615 621.523 173.072 609.409C177.892 586.994 187.399 564.74 203.52 548.11C203.659 547.982 203.741 547.805 203.748 547.617C203.756 547.428 203.688 547.245 203.561 547.106C203.433 546.968 203.255 546.886 203.067 546.878C202.878 546.87 202.695 546.938 202.556 547.066Z" fill="#A6A6A6"/>
<path d="M209.519 551.244C215.812 551.458 219.776 561.527 224.676 564.473C225.192 564.892 225.791 565.197 226.433 565.37C227.074 565.543 227.746 565.578 228.402 565.475C229.059 565.371 229.686 565.131 230.244 564.769C230.801 564.407 231.277 563.932 231.639 563.375C236.513 556.573 229.818 548.191 223.605 543.504C228.104 545.352 231.826 548.592 236.673 549.53C237.293 549.727 237.947 549.79 238.592 549.714C239.238 549.639 239.86 549.427 240.417 549.092C240.975 548.758 241.454 548.309 241.825 547.775C242.195 547.241 242.447 546.634 242.565 545.995C244.681 536.729 233.085 532.605 225.105 532.418C228.961 529.74 240.048 522.429 234.156 518.84C228.265 515.252 215.196 525.669 210.965 529.097C204.725 534.158 197.307 541.71 197.013 549.61C196.531 558.849 204.591 553.172 209.519 551.244Z" fill="#DBDBDB"/>
<path d="M207.617 552.797C215.651 549.128 231.157 554.403 232.469 551.35C235.147 545.138 222.775 540.88 216.08 540.049C222.239 538.389 234.022 535.738 233.674 529.82C233.219 522.562 215.598 528.802 206.653 535.631C195.433 544.254 195.486 552.582 197.361 554.243C199.905 556.519 206.279 553.386 207.617 552.797Z" fill="#EBEBEB"/>
<path d="M119.111 543.504C157.085 577.943 165.359 633.162 159.468 682.035C159.468 683.133 157.593 682.919 157.567 681.874C157.138 670.814 157.058 659.835 156.602 648.935L155.987 647.462C146.185 640.901 137.08 633.376 131.242 622.825C124.654 611.042 121.735 597.572 116.594 585.173C116.112 583.995 117.397 584.289 118.254 584.879C141.151 600.464 148.944 617.871 156.228 641.25C155.595 628.897 153.802 616.632 150.872 604.615C145.194 582.388 134.804 560.536 118.093 544.522C117.558 543.852 118.468 542.888 119.111 543.504Z" fill="#A6A6A6"/>
<path d="M112.39 547.95C106.097 548.405 102.535 558.661 97.7414 561.741C97.2437 562.182 96.6585 562.512 96.0242 562.711C95.3898 562.909 94.7206 562.972 94.0605 562.893C93.4004 562.815 92.7644 562.598 92.1941 562.256C91.6239 561.914 91.1324 561.456 90.7519 560.911C85.637 554.296 91.9837 545.673 98.0895 540.746C93.6709 542.781 90.0556 546.102 85.2621 547.253C84.6443 547.478 83.9851 547.567 83.3298 547.513C82.6746 547.459 82.0388 547.264 81.4662 546.94C80.8936 546.617 80.3979 546.174 80.013 545.641C79.6281 545.108 79.3633 544.498 79.2367 543.852C76.7462 534.667 88.2078 530.114 96.1614 529.606C92.198 527.088 80.8434 520.206 86.601 516.403C92.3587 512.601 105.802 522.509 110.167 525.776C116.594 530.596 124.307 537.854 124.869 545.754C125.592 555.073 117.317 549.69 112.39 547.95Z" fill="#DBDBDB"/>
<path d="M114.264 549.422C106.096 546.075 90.8048 551.94 89.3855 548.94C86.4933 542.835 98.678 538.228 105.453 537.023C99.2404 535.604 87.377 533.381 87.5109 527.463C87.6716 520.206 105.534 525.749 114.719 532.257C126.261 540.451 126.502 548.753 124.708 550.494C122.137 552.877 115.629 549.985 114.264 549.422Z" fill="#EBEBEB"/>
<path d="M157.942 634.474C160.518 652.899 164.465 671.107 169.752 688.944C169.829 689.293 170.04 689.598 170.339 689.794C170.639 689.989 171.003 690.059 171.353 689.989C171.704 689.919 172.013 689.714 172.214 689.419C172.416 689.123 172.493 688.76 172.43 688.408C169.939 671.644 165.387 655.148 162.896 638.384C160.159 621.4 159.181 604.179 159.977 586.994C161.557 558.715 169.243 528.615 187.694 506.495C188.123 505.959 187.239 505.236 186.837 505.718C149.881 548.806 155.773 601.616 155.8 606.356C150.444 588.521 145.088 568.061 125.378 549.904C124.521 549.128 123.852 549.503 124.012 550.842C127.52 584.022 136.706 601.187 155.96 618.835C156.442 624.191 157.112 629.333 157.942 634.474Z" fill="#A6A6A6"/>
<path d="M188.095 511.449C194.737 508.503 203.922 516.966 210.483 517.528C211.23 517.721 212.009 517.75 212.768 517.615C213.526 517.479 214.247 517.181 214.88 516.741C215.513 516.301 216.044 515.73 216.436 515.066C216.828 514.402 217.072 513.662 217.151 512.895C218.785 503.388 207.645 498.059 198.754 496.372C204.351 496.024 209.841 497.497 215.33 496.024C216.068 495.906 216.773 495.635 217.4 495.229C218.027 494.822 218.562 494.289 218.97 493.664C219.379 493.038 219.652 492.334 219.772 491.597C219.893 490.86 219.857 490.105 219.669 489.383C217.232 478.671 203.092 480.277 194.737 484.027C197.415 479.287 205.208 466.138 197.415 465.281C189.622 464.424 181.186 481.911 178.535 487.615C174.599 495.997 170.689 507.593 174.384 515.921C178.455 525.856 183.945 515.894 188.095 511.449Z" fill="#DBDBDB"/>
<path d="M186.891 513.966C193.425 506.12 212.144 503.79 211.956 499.96C211.608 492.194 196.638 493.989 189.301 496.506C194.817 491.686 205.717 482.982 202.369 477.01C198.245 469.726 183.088 485.044 177.277 496.667C169.966 511.262 174.224 519.858 176.982 520.634C180.785 521.732 185.819 515.278 186.891 513.966Z" fill="#EBEBEB"/>
<path d="M133.626 644.436L117.344 768.961H216.428C214.393 757.928 195.942 644.302 195.942 644.302L133.626 644.436Z" fill="#DBDBDB"/>
<path d="M1100.74 280.422H1171.66V250.455H1100.74V280.422Z" fill="#EBEBEB"/>
<path d="M1140.3 242.635H1211.21V212.669H1140.3V242.635Z" fill="#EBEBEB"/>
<path d="M1061.16 242.635H1132.08V212.669H1061.16V242.635Z" fill="#EBEBEB"/>
<path d="M40.0579 666.904H110.97V636.938H40.0579V666.904Z" fill="#EBEBEB"/>
<path d="M0.50415 629.118H71.4165V599.152H0.50415V629.118Z" fill="#EBEBEB"/>
<path d="M1140.3 666.878H1211.21V636.912H1140.3V666.878Z" fill="#EBEBEB"/>
<path d="M308.362 0.922852H237.45V30.8892H308.362V0.922852Z" fill="#EBEBEB"/>
<path d="M268.782 38.709H197.87V68.6753H268.782V38.709Z" fill="#EBEBEB"/>
<path d="M91.5552 768.855L220.124 768.212L348.693 767.971L605.857 767.516L862.995 767.971L991.59 768.212L1120.16 768.855L991.59 769.524L862.995 769.738L605.857 770.194L348.693 769.738L220.124 769.497L91.5552 768.855Z" fill="#263238"/>
<path d="M400.725 388.209C400.041 387.423 399.308 386.68 398.529 385.987C397.829 385.215 397.087 384.482 396.307 383.791C395.616 383.01 394.883 382.268 394.111 381.568C393.417 380.789 392.675 380.056 391.888 379.372C391.192 378.595 390.442 377.846 389.692 377.149C389.015 376.365 388.281 375.631 387.496 374.953C386.796 374.173 386.054 373.431 385.273 372.731C384.596 371.946 383.862 371.212 383.077 370.535C382.377 369.763 381.635 369.03 380.855 368.339C378.588 365.84 375.94 363.716 373.008 362.046V140.739C373.008 139.561 372.446 138.972 372.446 137.793C372.591 136.592 372.386 135.374 371.857 134.285C371.857 133.696 371.294 132.518 371.294 131.929C370.972 130.725 370.57 129.544 370.089 128.394C369.47 127.747 369.068 126.923 368.938 126.037C368.264 124.979 367.473 124 366.581 123.118C365.965 122.529 365.403 121.377 364.814 120.761L362.457 118.405C362.457 118.057 362.002 117.682 361.493 117.468L360.342 116.289H360.208C360.208 115.914 359.779 115.566 359.27 115.325L358.092 114.174C358.092 113.826 357.637 113.451 357.128 113.21L355.977 112.058C355.977 111.683 355.521 111.335 355.012 111.094L353.861 109.916C353.861 109.568 353.406 109.193 352.897 108.952L351.719 107.8V107.666C351.719 107.318 351.263 106.97 350.755 106.729L349.603 105.551H349.469C349.469 105.203 349.041 104.828 348.532 104.587L347.354 103.435V103.301C347.354 102.953 346.898 102.605 346.389 102.364L345.238 101.186H345.104C345.104 100.811 344.676 100.463 344.167 100.222L342.988 99.07C342.988 98.7219 342.533 98.347 342.024 98.1327L340.739 96.8473C340.739 96.2582 339.587 95.669 338.971 95.669C338.975 95.5929 338.963 95.5169 338.937 95.4456C338.91 95.3742 338.869 95.309 338.817 95.2539C338.764 95.1989 338.701 95.155 338.631 95.1251C338.561 95.0952 338.485 95.0798 338.409 95.0799C337.231 94.5175 336.615 93.9016 335.463 93.3124C334.45 92.5778 333.476 91.7912 332.544 90.9558C331.955 90.9558 330.777 90.3934 330.188 90.3934C329.009 89.8043 327.242 89.8043 326.653 89.1884C325.638 89.271 324.62 89.0766 323.707 88.626H313.745C313.046 89.0749 312.215 89.2732 311.389 89.1884C309.621 89.8043 308.47 89.8043 307.854 90.3934C306.702 90.3934 306.113 90.9558 305.497 92.1609C304.24 92.1902 303.019 92.5908 301.989 93.3124C301.427 93.9016 300.221 94.5175 299.632 95.0799C298.85 95.938 297.836 96.5518 296.713 96.8473C296.274 97.7351 295.675 98.5341 294.946 99.2039C294.357 99.7931 294.357 100.355 293.794 100.355L75.621 369.785C70.4619 375.98 67.8867 383.924 68.4303 391.967C68.9738 400.011 72.5943 407.536 78.54 412.98C79.2283 413.789 79.9806 414.542 80.7895 415.23C81.462 416.036 82.2059 416.78 83.0122 417.453C83.7005 418.261 84.4528 419.014 85.2617 419.702C85.9407 420.511 86.684 421.263 87.4844 421.952C88.1731 422.752 88.9253 423.495 89.7339 424.174C90.4129 424.983 91.1562 425.735 91.9566 426.424C92.6452 427.224 93.3975 427.967 94.2061 428.646C94.8851 429.455 95.6284 430.207 96.4288 430.896C97.1174 431.696 97.8697 432.44 98.6783 433.119C100.063 434.693 101.607 436.119 103.284 437.377C108.8 442.171 115.932 444.689 123.235 444.42H285.841V466.673C285.793 471.204 286.703 475.693 288.512 479.847C290.321 484.001 292.989 487.725 296.338 490.775C297.035 491.525 297.758 492.248 298.481 492.917C299.163 493.68 299.887 494.404 300.65 495.087C301.346 495.836 302.069 496.559 302.819 497.229C303.501 497.992 304.226 498.716 304.988 499.398C305.684 500.148 306.408 500.871 307.157 501.567C307.833 502.336 308.557 503.061 309.327 503.736C309.996 504.486 310.719 505.209 311.469 505.906C312.151 506.668 312.875 507.392 313.638 508.075C314.308 508.798 315.031 509.521 315.78 510.217C320.204 514.999 325.965 518.338 332.313 519.8C338.661 521.261 345.302 520.776 351.371 518.41C357.44 516.043 362.655 511.903 366.338 506.53C370.021 501.156 372 494.799 372.017 488.285V444.312H377.909C382.196 444.384 386.455 443.601 390.437 442.01C394.419 440.419 398.044 438.052 401.102 435.046C404.16 432.04 406.59 428.456 408.249 424.503C409.909 420.549 410.765 416.304 410.768 412.016C410.832 407.569 409.973 403.157 408.245 399.059C406.516 394.961 403.955 391.267 400.725 388.209ZM285.787 262.345V357.252H209.305L285.787 262.345Z" fill="#FF9446"/>
<path opacity="0.1" d="M400.725 388.209C400.041 387.423 399.308 386.68 398.529 385.987C397.829 385.215 397.087 384.482 396.307 383.791C395.616 383.01 394.883 382.268 394.111 381.568C393.417 380.789 392.675 380.056 391.888 379.372C391.192 378.595 390.442 377.846 389.692 377.149C389.015 376.365 388.281 375.631 387.496 374.953C386.796 374.173 386.054 373.431 385.273 372.731C384.596 371.946 383.862 371.212 383.077 370.535C382.377 369.763 381.635 369.03 380.855 368.339C378.588 365.84 375.94 363.716 373.008 362.046V140.739C373.008 139.561 372.446 138.972 372.446 137.793C372.591 136.592 372.386 135.374 371.857 134.285C371.857 133.696 371.294 132.518 371.294 131.929C370.972 130.725 370.57 129.544 370.089 128.394C369.47 127.747 369.068 126.923 368.938 126.037C368.264 124.979 367.473 124 366.581 123.118C365.965 122.529 365.403 121.377 364.814 120.761L362.457 118.405C362.457 118.057 362.002 117.682 361.493 117.468L360.342 116.289H360.208C360.208 115.914 359.779 115.566 359.27 115.325L358.092 114.174C358.092 113.826 357.637 113.451 357.128 113.21L355.977 112.058C355.977 111.683 355.521 111.335 355.012 111.094L353.861 109.916C353.861 109.568 353.406 109.193 352.897 108.952L351.719 107.8V107.666C351.719 107.318 351.263 106.97 350.755 106.729L349.603 105.551H349.469C349.469 105.203 349.041 104.828 348.532 104.587L347.354 103.435V103.301C347.354 102.953 346.898 102.605 346.389 102.364L345.238 101.186H345.104C345.104 100.811 344.676 100.463 344.167 100.222L342.988 99.07C342.988 98.7219 342.533 98.347 342.024 98.1327L340.739 96.8473C340.739 96.2582 339.587 95.669 338.971 95.669C338.975 95.5929 338.963 95.5169 338.937 95.4456C338.91 95.3742 338.869 95.309 338.817 95.2539C338.764 95.1989 338.701 95.155 338.631 95.1251C338.561 95.0952 338.485 95.0798 338.409 95.0799C337.231 94.5175 336.615 93.9016 335.463 93.3124C334.45 92.5778 333.476 91.7912 332.544 90.9558C331.955 90.9558 330.777 90.3934 330.188 90.3934C329.009 89.8043 327.242 89.8043 326.653 89.1884C325.638 89.271 324.62 89.0766 323.707 88.626H313.745C313.046 89.0749 312.215 89.2732 311.389 89.1884C309.621 89.8043 308.47 89.8043 307.854 90.3934C306.702 90.3934 306.113 90.9558 305.497 92.1609C304.24 92.1902 303.019 92.5908 301.989 93.3124C301.427 93.9016 300.221 94.5175 299.632 95.0799C298.85 95.938 297.836 96.5518 296.713 96.8473C296.274 97.7351 295.675 98.5341 294.946 99.2039C294.357 99.7931 294.357 100.355 293.794 100.355L75.621 369.785C70.4619 375.98 67.8867 383.924 68.4303 391.967C68.9738 400.011 72.5943 407.536 78.54 412.98C79.2283 413.789 79.9806 414.542 80.7895 415.23C81.462 416.036 82.2059 416.78 83.0122 417.453C83.7005 418.261 84.4528 419.014 85.2617 419.702C85.9407 420.511 86.684 421.263 87.4844 421.952C88.1731 422.752 88.9253 423.495 89.7339 424.174C90.4129 424.983 91.1562 425.735 91.9566 426.424C92.6452 427.224 93.3975 427.967 94.2061 428.646C94.8851 429.455 95.6284 430.207 96.4288 430.896C97.1174 431.696 97.8697 432.44 98.6783 433.119C100.063 434.693 101.607 436.119 103.284 437.377C108.8 442.171 115.932 444.689 123.235 444.42H285.841V466.673C285.793 471.204 286.703 475.693 288.512 479.847C290.321 484.001 292.989 487.725 296.338 490.775C297.035 491.525 297.758 492.248 298.481 492.917C299.163 493.68 299.887 494.404 300.65 495.087C301.346 495.836 302.069 496.559 302.819 497.229C303.501 497.992 304.226 498.716 304.988 499.398C305.684 500.148 306.408 500.871 307.157 501.567C307.833 502.336 308.557 503.061 309.327 503.736C309.996 504.486 310.719 505.209 311.469 505.906C312.151 506.668 312.875 507.392 313.638 508.075C314.308 508.798 315.031 509.521 315.78 510.217C320.204 514.999 325.965 518.338 332.313 519.8C338.661 521.261 345.302 520.776 351.371 518.41C357.44 516.043 362.655 511.903 366.338 506.53C370.021 501.156 372 494.799 372.017 488.285V444.312H377.909C382.196 444.384 386.455 443.601 390.437 442.01C394.419 440.419 398.044 438.052 401.102 435.046C404.16 432.04 406.59 428.456 408.249 424.503C409.909 420.549 410.765 416.304 410.768 412.016C410.832 407.569 409.973 403.157 408.245 399.059C406.516 394.961 403.955 391.267 400.725 388.209ZM285.787 262.345V357.252H209.305L285.787 262.345Z" fill="black"/>
<path d="M389.103 389.629C389.1 393.919 388.243 398.166 386.582 402.121C384.921 406.077 382.489 409.662 379.428 412.668C376.367 415.674 372.739 418.041 368.754 419.63C364.769 421.22 360.507 422 356.218 421.925H350.353V466.567C350.353 475.132 346.95 483.347 340.894 489.403C334.837 495.46 326.622 498.863 318.057 498.863C309.491 498.863 301.277 495.46 295.22 489.403C289.163 483.347 285.761 475.132 285.761 466.567V421.925H100.794C93.5348 422.171 86.4526 419.654 80.9771 414.882C77.5845 412.331 74.7441 409.12 72.6271 405.441C70.5102 401.762 69.1607 397.693 68.6601 393.478C68.1596 389.264 68.5183 384.991 69.7147 380.919C70.9111 376.847 72.9204 373.059 75.6211 369.785L292.804 99.5522C293.393 99.5522 293.393 98.9899 293.982 98.4007C294.711 97.7308 295.31 96.9318 295.749 96.0441C296.876 95.7395 297.896 95.1276 298.695 94.2766C299.257 93.6875 300.436 93.0984 301.025 92.5092C302.058 91.7701 303.29 91.3595 304.56 91.3309C305.149 90.1794 305.738 89.5902 306.916 89.5902C307.479 89.001 308.657 89.0011 310.425 88.4119C311.255 88.5001 312.09 88.2913 312.781 87.8228H322.77C323.664 88.3013 324.679 88.5061 325.689 88.4119C326.278 89.0011 328.046 89.001 329.224 89.5902C329.813 89.5902 330.991 90.1794 331.58 90.1794C332.732 91.3309 333.91 91.9201 334.499 92.5092C335.678 93.0984 336.267 93.6875 337.445 94.2766C337.601 94.2766 337.751 94.3387 337.862 94.4492C337.972 94.5597 338.034 94.7095 338.034 94.8658C338.624 94.8658 339.802 95.4549 339.802 96.0441L342.132 98.4007C342.721 98.9899 343.31 100.141 343.899 100.731C344.798 101.616 345.589 102.605 346.256 103.676C346.403 104.562 346.813 105.383 347.434 106.033C347.918 107.167 348.303 108.341 348.585 109.541C348.585 110.13 349.175 111.308 349.175 111.898C349.705 112.995 349.91 114.222 349.764 115.433C349.764 116.584 350.353 117.173 350.353 118.351V357.333H356.218C364.851 357.289 373.151 360.66 379.311 366.709C385.47 372.758 388.99 380.996 389.103 389.629ZM285.761 212.294L168.921 357.333H285.761V212.294Z" fill="#FF9446"/>
<path d="M732.605 175.365C725.976 165.278 718.272 155.939 709.628 147.515C709.309 147.164 708.969 146.833 708.61 146.524L708.316 146.229C708.048 145.935 707.78 145.64 707.485 145.372C706.736 144.569 705.932 143.819 705.156 143.042L704.941 142.855L704.138 142.051C704.047 141.947 703.948 141.848 703.843 141.757C703.576 141.462 703.308 141.168 703.013 140.9C702.263 140.097 701.46 139.347 700.683 138.57L700.469 138.383L699.666 137.579L699.371 137.285C699.103 136.99 698.836 136.696 698.541 136.428C697.791 135.624 696.988 134.875 696.211 134.098L695.997 133.91L695.194 133.107C695.194 133.107 695.006 132.893 694.899 132.813C694.634 132.507 694.347 132.221 694.042 131.956C693.319 131.125 692.516 130.402 691.739 129.626L691.525 129.438C691.277 129.151 691.009 128.882 690.721 128.635C690.721 128.635 690.534 128.421 690.427 128.34C666.834 104.024 636.091 87.9299 601.599 87.9299C555.19 87.9299 517.056 115.54 492.365 153.085C466.523 190.576 453.053 239.449 452.463 293.437C453.053 346.996 466.523 396.19 492.365 433.788C498.982 443.726 506.601 452.96 515.101 461.345L516.279 462.496V462.63L518.368 464.719C518.716 465.12 519.091 465.469 519.439 465.817L520.617 466.968L520.751 467.102L522.84 469.191L523.911 470.316L525.09 471.44C525.147 471.471 525.193 471.517 525.224 471.574L527.312 473.663L528.384 474.788L529.562 475.913C529.594 475.929 529.622 475.952 529.645 475.979C529.668 476.007 529.685 476.039 529.696 476.073L531.785 478.162L532.882 479.26L534.034 480.385L534.195 480.545L536.283 482.634C559.475 505.799 589.414 521.358 623.826 521.358C669.03 521.358 707.78 493.159 732.471 456.149C757.697 418.658 771.81 369.25 771.81 315.824C771.89 261.703 757.831 212.964 732.605 175.365ZM656.202 397.288C639.171 422.514 619.782 433.681 601.599 433.681C590.41 433.41 579.582 429.667 570.615 422.969C569.785 421.898 568.981 420.773 568.178 419.595C551.735 394.931 539.979 357.359 539.979 315.664C539.979 273.379 551.735 236.396 568.178 211.223C585.826 186.559 605.669 174.83 623.96 175.392C634.562 175.344 644.895 178.726 653.417 185.033C654.355 186.291 655.265 187.523 656.095 188.835C672.538 214.089 684.267 251.071 684.267 293.276C684.375 334.972 672.645 372.597 656.202 397.288Z" fill="#FF9446"/>
<path opacity="0.1" d="M732.605 175.365C725.976 165.278 718.272 155.939 709.628 147.515C709.309 147.164 708.969 146.833 708.61 146.524L708.316 146.229C708.048 145.935 707.78 145.64 707.485 145.372C706.736 144.569 705.932 143.819 705.156 143.042L704.941 142.855L704.138 142.051C704.047 141.947 703.948 141.848 703.843 141.757C703.576 141.462 703.308 141.168 703.013 140.9C702.263 140.097 701.46 139.347 700.683 138.57L700.469 138.383L699.666 137.579L699.371 137.285C699.103 136.99 698.836 136.696 698.541 136.428C697.791 135.624 696.988 134.875 696.211 134.098L695.997 133.91L695.194 133.107C695.194 133.107 695.006 132.893 694.899 132.813C694.634 132.507 694.347 132.221 694.042 131.956C693.319 131.125 692.516 130.402 691.739 129.626L691.525 129.438C691.277 129.151 691.009 128.882 690.721 128.635C690.721 128.635 690.534 128.421 690.427 128.34C666.834 104.024 636.091 87.9299 601.599 87.9299C555.19 87.9299 517.056 115.54 492.365 153.085C466.523 190.576 453.053 239.449 452.463 293.437C453.053 346.996 466.523 396.19 492.365 433.788C498.982 443.726 506.601 452.96 515.101 461.345L516.279 462.496V462.63L518.368 464.719C518.716 465.12 519.091 465.469 519.439 465.817L520.617 466.968L520.751 467.102L522.84 469.191L523.911 470.316L525.09 471.44C525.147 471.471 525.193 471.517 525.224 471.574L527.312 473.663L528.384 474.788L529.562 475.913C529.594 475.929 529.622 475.952 529.645 475.979C529.668 476.007 529.685 476.039 529.696 476.073L531.785 478.162L532.882 479.26L534.034 480.385L534.195 480.545L536.283 482.634C559.475 505.799 589.414 521.358 623.826 521.358C669.03 521.358 707.78 493.159 732.471 456.149C757.697 418.658 771.81 369.25 771.81 315.824C771.89 261.703 757.831 212.964 732.605 175.365ZM656.202 397.288C639.171 422.514 619.782 433.681 601.599 433.681C590.41 433.41 579.582 429.667 570.615 422.969C569.785 421.898 568.981 420.773 568.178 419.595C551.735 394.931 539.979 357.359 539.979 315.664C539.979 273.379 551.735 236.396 568.178 211.223C585.826 186.559 605.669 174.83 623.96 175.392C634.562 175.344 644.895 178.726 653.417 185.033C654.355 186.291 655.265 187.523 656.095 188.835C672.538 214.089 684.267 251.071 684.267 293.276C684.375 334.972 672.645 372.597 656.202 397.288Z" fill="black"/>
<path d="M452.437 293.329C453.026 239.315 466.549 190.576 492.365 153.004C517.029 115.513 555.19 87.8228 601.599 87.8228C646.803 87.8228 685.553 115.433 710.217 153.004C735.47 190.496 749.556 239.315 749.556 293.329C749.556 346.888 735.47 396.109 710.217 433.681C685.553 470.664 646.803 498.863 601.599 498.863C555.19 498.863 517.029 470.664 492.365 433.681C466.603 396.109 453.026 346.781 452.437 293.329ZM684.375 293.329C684.375 251.071 672.645 214.062 656.202 188.889C639.171 164.225 619.809 152.495 601.599 153.085C583.389 152.495 563.411 164.225 545.817 188.889C529.374 214.142 517.618 251.151 517.618 293.329C517.618 335.025 529.374 372.624 545.817 397.261C563.411 422.514 583.308 433.681 601.599 433.681C619.889 433.681 639.09 422.514 656.202 397.261C672.645 372.624 684.375 334.972 684.375 293.329Z" fill="#FF9446"/>
<path d="M1132.64 388.209C1131.94 387.433 1131.19 386.683 1130.44 385.987C1129.72 385.21 1128.97 384.487 1128.22 383.791C1127.5 383.014 1126.77 382.264 1126.02 381.568C1125.3 380.791 1124.55 380.042 1123.8 379.372C1123.08 378.595 1122.35 377.846 1121.6 377.149C1120.88 376.373 1120.13 375.623 1119.38 374.953C1118.66 374.177 1117.91 373.427 1117.19 372.731C1116.49 371.959 1115.76 371.226 1114.99 370.535C1114.27 369.758 1113.52 369.035 1112.77 368.339C1110.5 365.832 1107.84 363.707 1104.89 362.046V140.739C1104.89 139.561 1104.33 138.972 1104.33 137.793C1104.48 136.592 1104.27 135.374 1103.74 134.285C1103.74 133.696 1103.18 132.518 1103.18 131.929C1102.86 130.725 1102.46 129.544 1101.98 128.394C1101.37 127.739 1100.97 126.919 1100.82 126.037C1100.16 124.973 1099.37 123.993 1098.47 123.118C1097.85 122.529 1097.29 121.377 1096.7 120.761L1094.34 118.405C1094.34 118.057 1093.89 117.682 1093.38 117.468L1092.23 116.289H1092.09C1092.09 115.914 1091.67 115.566 1091.16 115.325L1089.98 114.174C1089.98 113.826 1089.52 113.451 1089.01 113.21L1087.86 112.058C1087.86 111.683 1087.41 111.335 1086.9 111.094L1085.75 109.916C1085.75 109.568 1085.29 109.193 1084.78 108.952L1083.6 107.8V107.666C1083.6 107.318 1083.15 106.97 1082.64 106.729L1081.49 105.551H1081.36C1081.36 105.203 1080.93 104.828 1080.42 104.587L1079.24 103.435V103.301C1079.24 102.953 1078.78 102.605 1078.28 102.364L1077.12 101.186H1076.99C1076.99 100.811 1076.56 100.463 1076.05 100.222L1074.87 99.07C1074.87 98.7219 1074.42 98.347 1073.91 98.1327L1072.62 96.8473C1072.62 96.2582 1071.47 95.669 1070.86 95.669C1070.86 95.5917 1070.84 95.5151 1070.81 95.4436C1070.78 95.3721 1070.74 95.3071 1070.68 95.2524C1070.63 95.1977 1070.57 95.1543 1070.49 95.1247C1070.42 95.0951 1070.35 95.0799 1070.27 95.0799C1069.12 94.5175 1068.5 93.9016 1067.35 93.3124C1066.34 92.5778 1065.36 91.7912 1064.43 90.9558C1063.84 90.9558 1062.66 90.3934 1062.07 90.3934C1060.9 89.8043 1059.15 89.8043 1058.54 89.1884C1057.52 89.2737 1056.51 89.0792 1055.59 88.626H1045.63C1044.93 89.0749 1044.1 89.2732 1043.27 89.1884C1041.51 89.8043 1040.36 89.8043 1039.74 90.3934C1038.59 90.3934 1038 90.9558 1037.38 92.1609C1036.13 92.1934 1034.91 92.5937 1033.87 93.3124C1033.31 93.9016 1032.11 94.5175 1031.55 95.0799C1030.75 95.9308 1029.73 96.5428 1028.6 96.8473C1028.15 97.7296 1027.55 98.527 1026.83 99.2039C1026.24 99.7931 1026.24 100.355 1025.68 100.355L807.454 369.785C802.294 375.98 799.719 383.924 800.263 391.967C800.806 400.011 804.427 407.536 810.373 412.98C811.061 413.789 811.813 414.542 812.622 415.23C813.294 416.036 814.038 416.78 814.845 417.453C815.533 418.261 816.285 419.014 817.094 419.702C819.339 421.929 821.571 424.17 823.789 426.424C825.298 427.897 826.788 429.387 828.261 430.896C828.95 431.696 829.702 432.44 830.511 433.119C831.896 434.693 833.439 436.119 835.117 437.377C840.632 442.171 847.764 444.689 855.068 444.42H1017.67V466.673C1017.63 471.204 1018.54 475.693 1020.34 479.847C1022.15 484.001 1024.82 487.725 1028.17 490.775C1028.87 491.552 1029.62 492.275 1030.34 492.944C1031.01 493.694 1031.73 494.39 1032.48 495.087C1033.17 495.85 1033.91 496.574 1034.68 497.256C1035.37 498.006 1036.07 498.702 1036.82 499.398C1037.52 500.175 1038.27 500.898 1039.02 501.594C1039.71 502.344 1040.41 503.067 1041.16 503.736C1041.86 504.513 1042.61 505.236 1043.35 505.932C1044.05 506.682 1044.75 507.405 1045.5 508.075C1046.18 508.846 1046.9 509.579 1047.67 510.271C1052.09 515.054 1057.85 518.394 1064.21 519.855C1070.56 521.315 1077.2 520.828 1083.27 518.458C1089.34 516.088 1094.55 511.944 1098.24 506.567C1101.92 501.189 1103.89 494.828 1103.9 488.311V444.312H1109.8C1114.09 444.387 1118.35 443.607 1122.34 442.018C1126.32 440.429 1129.95 438.063 1133.02 435.057C1136.08 432.052 1138.51 428.467 1140.18 424.511C1141.84 420.555 1142.7 416.308 1142.71 412.016C1142.77 407.567 1141.91 403.154 1140.17 399.056C1138.44 394.958 1135.87 391.264 1132.64 388.209ZM1017.67 262.345V357.252H941.191L1017.67 262.345Z" fill="#FF9446"/>
<path opacity="0.1" d="M1132.64 388.209C1131.94 387.433 1131.19 386.683 1130.44 385.987C1129.72 385.21 1128.97 384.487 1128.22 383.791C1127.5 383.014 1126.77 382.264 1126.02 381.568C1125.3 380.791 1124.55 380.042 1123.8 379.372C1123.08 378.595 1122.35 377.846 1121.6 377.149C1120.88 376.373 1120.13 375.623 1119.38 374.953C1118.66 374.177 1117.91 373.427 1117.19 372.731C1116.49 371.959 1115.76 371.226 1114.99 370.535C1114.27 369.758 1113.52 369.035 1112.77 368.339C1110.5 365.832 1107.84 363.707 1104.89 362.046V140.739C1104.89 139.561 1104.33 138.972 1104.33 137.793C1104.48 136.592 1104.27 135.374 1103.74 134.285C1103.74 133.696 1103.18 132.518 1103.18 131.929C1102.86 130.725 1102.46 129.544 1101.98 128.394C1101.37 127.739 1100.97 126.919 1100.82 126.037C1100.16 124.973 1099.37 123.993 1098.47 123.118C1097.85 122.529 1097.29 121.377 1096.7 120.761L1094.34 118.405C1094.34 118.057 1093.89 117.682 1093.38 117.468L1092.23 116.289H1092.09C1092.09 115.914 1091.67 115.566 1091.16 115.325L1089.98 114.174C1089.98 113.826 1089.52 113.451 1089.01 113.21L1087.86 112.058C1087.86 111.683 1087.41 111.335 1086.9 111.094L1085.75 109.916C1085.75 109.568 1085.29 109.193 1084.78 108.952L1083.6 107.8V107.666C1083.6 107.318 1083.15 106.97 1082.64 106.729L1081.49 105.551H1081.36C1081.36 105.203 1080.93 104.828 1080.42 104.587L1079.24 103.435V103.301C1079.24 102.953 1078.78 102.605 1078.28 102.364L1077.12 101.186H1076.99C1076.99 100.811 1076.56 100.463 1076.05 100.222L1074.87 99.07C1074.87 98.7219 1074.42 98.347 1073.91 98.1327L1072.62 96.8473C1072.62 96.2582 1071.47 95.669 1070.86 95.669C1070.86 95.5917 1070.84 95.5151 1070.81 95.4436C1070.78 95.3721 1070.74 95.3071 1070.68 95.2524C1070.63 95.1977 1070.57 95.1543 1070.49 95.1247C1070.42 95.0951 1070.35 95.0799 1070.27 95.0799C1069.12 94.5175 1068.5 93.9016 1067.35 93.3124C1066.34 92.5778 1065.36 91.7912 1064.43 90.9558C1063.84 90.9558 1062.66 90.3934 1062.07 90.3934C1060.9 89.8043 1059.15 89.8043 1058.54 89.1884C1057.52 89.2737 1056.51 89.0792 1055.59 88.626H1045.63C1044.93 89.0749 1044.1 89.2732 1043.27 89.1884C1041.51 89.8043 1040.36 89.8043 1039.74 90.3934C1038.59 90.3934 1038 90.9558 1037.38 92.1609C1036.13 92.1934 1034.91 92.5937 1033.87 93.3124C1033.31 93.9016 1032.11 94.5175 1031.55 95.0799C1030.75 95.9308 1029.73 96.5428 1028.6 96.8473C1028.15 97.7296 1027.55 98.527 1026.83 99.2039C1026.24 99.7931 1026.24 100.355 1025.68 100.355L807.454 369.785C802.294 375.98 799.719 383.924 800.263 391.967C800.806 400.011 804.427 407.536 810.373 412.98C811.061 413.789 811.813 414.542 812.622 415.23C813.294 416.036 814.038 416.78 814.845 417.453C815.533 418.261 816.285 419.014 817.094 419.702C819.339 421.929 821.571 424.17 823.789 426.424C825.298 427.897 826.788 429.387 828.261 430.896C828.95 431.696 829.702 432.44 830.511 433.119C831.896 434.693 833.439 436.119 835.117 437.377C840.632 442.171 847.764 444.689 855.068 444.42H1017.67V466.673C1017.63 471.204 1018.54 475.693 1020.34 479.847C1022.15 484.001 1024.82 487.725 1028.17 490.775C1028.87 491.552 1029.62 492.275 1030.34 492.944C1031.01 493.694 1031.73 494.39 1032.48 495.087C1033.17 495.85 1033.91 496.574 1034.68 497.256C1035.37 498.006 1036.07 498.702 1036.82 499.398C1037.52 500.175 1038.27 500.898 1039.02 501.594C1039.71 502.344 1040.41 503.067 1041.16 503.736C1041.86 504.513 1042.61 505.236 1043.35 505.932C1044.05 506.682 1044.75 507.405 1045.5 508.075C1046.18 508.846 1046.9 509.579 1047.67 510.271C1052.09 515.054 1057.85 518.394 1064.21 519.855C1070.56 521.315 1077.2 520.828 1083.27 518.458C1089.34 516.088 1094.55 511.944 1098.24 506.567C1101.92 501.189 1103.89 494.828 1103.9 488.311V444.312H1109.8C1114.09 444.387 1118.35 443.607 1122.34 442.018C1126.32 440.429 1129.95 438.063 1133.02 435.057C1136.08 432.052 1138.51 428.467 1140.18 424.511C1141.84 420.555 1142.7 416.308 1142.71 412.016C1142.77 407.567 1141.91 403.154 1140.17 399.056C1138.44 394.958 1135.87 391.264 1132.64 388.209ZM1017.67 262.345V357.252H941.191L1017.67 262.345Z" fill="black"/>
<path d="M1120.99 389.629C1120.99 393.919 1120.13 398.166 1118.47 402.121C1116.81 406.077 1114.38 409.662 1111.31 412.668C1108.25 415.674 1104.62 418.041 1100.64 419.63C1096.65 421.22 1092.39 422 1088.1 421.925H1082.24V466.567C1082.24 475.132 1078.84 483.347 1072.78 489.403C1066.72 495.46 1058.51 498.863 1049.94 498.863C1041.38 498.863 1033.16 495.46 1027.11 489.403C1021.05 483.347 1017.65 475.132 1017.65 466.567V421.925H832.68C825.375 422.206 818.239 419.686 812.729 414.882C809.321 412.331 806.466 409.114 804.34 405.426C802.213 401.738 800.858 397.656 800.357 393.429C799.856 389.201 800.219 384.915 801.426 380.833C802.632 376.75 804.655 372.955 807.373 369.678L1024.69 99.5522C1025.28 99.5522 1025.28 98.9899 1025.87 98.4007C1026.6 97.7308 1027.2 96.9318 1027.64 96.0441C1028.76 95.7395 1029.78 95.1276 1030.58 94.2766C1031.17 93.6875 1032.35 93.0984 1032.94 92.5092C1033.96 91.7661 1035.18 91.3548 1036.45 91.3309C1037.04 90.1794 1037.62 89.5902 1038.78 89.5902C1039.36 89.001 1040.54 89.0011 1042.31 88.4119C1043.14 88.5001 1043.98 88.2913 1044.67 87.8228H1054.66C1055.55 88.3013 1056.57 88.5061 1057.58 88.4119C1058.16 89.0011 1059.93 89.001 1061.11 89.5902C1061.7 89.5902 1062.88 90.1794 1063.47 90.1794C1064.64 91.3309 1065.8 91.9201 1066.39 92.5092C1067.56 93.0984 1068.15 93.6875 1069.33 94.2766C1069.49 94.2766 1069.64 94.3387 1069.75 94.4492C1069.86 94.5597 1069.92 94.7095 1069.92 94.8658C1070.51 94.8658 1071.66 95.4549 1071.66 96.0441L1074.02 98.4007C1074.61 98.9899 1075.2 100.141 1075.79 100.731C1076.68 101.616 1077.47 102.605 1078.14 103.676C1078.29 104.562 1078.7 105.383 1079.32 106.033C1079.8 107.17 1080.2 108.343 1080.5 109.541C1080.5 110.13 1081.06 111.308 1081.06 111.898C1081.59 112.995 1081.8 114.222 1081.65 115.433C1081.65 116.584 1082.24 117.173 1082.24 118.351V357.333H1088.1C1096.74 357.289 1105.04 360.66 1111.2 366.709C1117.36 372.758 1120.88 380.996 1120.99 389.629ZM1017.65 212.294L900.807 357.333H1017.65V212.294Z" fill="#FF9446"/>
<path d="M686.919 422.675C686.826 423.287 686.949 423.913 687.267 424.446C687.584 424.978 688.076 425.384 688.659 425.594C691.471 426.022 694.899 426.477 698.702 427.013C710.029 402.429 721.598 383.068 718.331 390.727C713.341 402.759 710.068 415.434 708.61 428.379C713.029 428.968 723.339 430.226 728.481 430.842C740.317 386.977 753.359 354.735 751.832 364.857C745.62 405.696 746.718 419.033 748.137 433.306C796.153 439.144 859.219 446.053 904.931 449.99C912.403 425.888 919.392 399.537 920.035 401.465C925.043 415.792 924.936 436.038 923.677 451.57C938.245 452.721 949.921 453.337 957.071 453.337C957.071 453.337 962.427 432.931 963.391 426.183C966.258 408.916 966.095 391.281 962.909 374.07C959.615 356.502 952.599 340.702 946.038 324.554C946.018 324.454 945.991 324.356 945.958 324.26C941.606 313.68 938.479 302.638 936.638 291.348C936.62 291.259 936.62 291.168 936.638 291.08C935.414 282.846 934.885 274.524 935.058 266.201C935.647 235.726 921.99 208.331 896.04 198.422C851.72 153.138 790.85 173.919 773.658 212.214C766.936 229.38 760.268 251.794 754.457 269.067C754.473 269.095 754.482 269.128 754.482 269.161C754.482 269.194 754.473 269.226 754.457 269.254C752.264 276.03 749.662 282.665 746.664 289.125C730.73 319.975 700.041 335.882 686.919 422.675Z" fill="#263238"/>
<path d="M906.726 207.42C923.356 218.427 932.836 233.45 933.505 255.784C933.934 268.799 933.505 281.466 937.174 293.972C940.843 306.88 947.484 317.752 954.367 328.598C965.266 345.844 972.443 362.769 972.416 384.621C972.389 406.473 969.095 432.824 960.285 452.882C960.285 453.016 960.071 452.882 960.124 452.882C967.622 432.396 970.354 403.527 968.827 381.407C967.14 357.091 955.786 341.077 944.378 321.876C935.186 306.634 930.102 289.27 929.622 271.477C929.301 260.444 930.479 249.063 927.265 238.458C923.463 225.818 914.358 217.275 905.253 209.643C904.048 208.545 905.467 206.59 906.726 207.42Z" fill="#263238"/>
<path d="M713.939 321.073C727.811 304.764 741.978 291.026 751.136 270.191C759.465 251.205 765.062 230.933 773.497 211.999C773.497 211.678 774.06 211.839 773.926 212.187C760.536 245.929 755.394 280.582 731.989 308.085C719.242 323.028 706.628 336.819 697.47 355.163C688.105 374.509 682.247 395.363 680.17 416.756C680.17 417.506 679.179 417.399 679.179 416.756C679.166 381.769 691.473 347.894 713.939 321.073Z" fill="#263238"/>
<path d="M579.077 736.665C579.077 736.665 708.342 771.479 729.712 767.73C751.083 763.981 823.227 666.878 839.241 631.663C855.255 596.447 881.847 421.255 876.732 401.974C871.617 382.693 844.865 382.425 822.29 432.128C799.714 481.831 746.343 591.091 736.836 600.089C727.329 609.087 568.66 727.346 579.077 736.665Z" fill="#DD6A57"/>
<path d="M718.492 756.214C698.675 745.851 674.546 720.705 658.104 718.08C654.082 717.293 649.913 717.821 646.214 719.586C642.515 721.351 639.482 724.26 637.564 727.882C637.564 727.882 630.012 711.091 614.694 711.171C606.848 711.171 599.992 723.811 599.992 723.811C599.992 723.811 593.324 710.609 579.747 711.519C568.901 712.242 563.679 724.775 563.679 724.775C563.679 724.775 551.414 715.081 540.595 719.419C518.689 728.069 515.047 821.182 548.789 836.928C564.509 844.266 564.161 821.476 564.161 821.476C564.161 821.476 572.57 854.147 591.744 855.379C610.918 856.611 608.695 827.046 608.695 827.046C608.695 827.046 617.131 858.62 637.135 857.896C657.97 857.173 650.686 827.957 650.686 827.957C650.686 827.957 663.915 849.22 679.099 845.149C704.191 838.455 677.224 788.055 682.902 767.783H714.421L718.492 756.214Z" fill="#DD6A57"/>
<path d="M689.891 736.397C709.521 744.592 731.908 713.608 752.1 720.812C778.291 730.158 754.082 762.481 714.395 767.729H682.875L689.891 736.397Z" fill="#DD6A57"/>
<path d="M562.527 726.623C562.527 726.559 562.502 726.498 562.457 726.452C562.412 726.407 562.35 726.382 562.286 726.382C562.222 726.382 562.161 726.407 562.116 726.452C562.071 726.498 562.045 726.559 562.045 726.623C553.395 756.964 553.154 792.956 564 822.788C564.348 823.752 566.116 823.619 565.928 822.467C560.626 789.475 558.537 759.856 562.527 726.623Z" fill="#263238"/>
<path d="M599.805 723.275C599.805 722.901 599.242 722.82 599.135 723.275C590.378 754.608 591.101 795.125 607.785 828.064C608.348 829.189 610.008 829.617 609.445 828.278C600.099 805.569 596.056 753.242 599.805 723.275Z" fill="#263238"/>
<path d="M652.614 829.912C637.966 797.776 635.1 764.114 637.135 729.14C637.135 728.685 636.52 728.685 636.386 729.14C630.735 745.985 631.78 768.399 634.056 785.779C635.837 801.908 641.81 817.29 651.382 830.394C651.864 830.956 652.935 830.608 652.614 829.912Z" fill="#263238"/>
<path d="M753.653 718.348C740.799 714.063 727.597 724.346 716.778 730.104C713.315 732.165 709.666 733.895 705.879 735.273C697.309 737.951 690.962 736.237 687.133 733.853C681.134 730.024 662.415 711.332 648.892 717.544C644.226 719.728 640.231 723.121 637.323 727.373C633.199 719.874 627.923 711.707 618.791 710.207C616.779 709.866 614.718 709.954 612.742 710.466C610.767 710.979 608.922 711.903 607.33 713.179C605.628 714.493 604.114 716.034 602.831 717.759C601.559 719.309 600.513 721.031 599.724 722.874C599.721 722.811 599.721 722.749 599.724 722.686L599.43 722.124L598.867 720.972C598.103 719.429 597.016 718.069 595.681 716.982C595.426 716.723 595.122 716.518 594.786 716.379C594.45 716.241 594.089 716.173 593.726 716.179C593.669 716.179 593.614 716.201 593.574 716.242C593.534 716.282 593.511 716.336 593.511 716.393C593.511 716.45 593.534 716.504 593.574 716.544C593.614 716.585 593.669 716.607 593.726 716.607C594.353 716.905 594.862 717.405 595.172 718.027C595.6 718.669 596.002 719.339 596.457 719.955C596.912 720.571 597.341 721.213 597.796 721.829L598.466 722.82L598.76 723.329C598.889 723.493 599.032 723.646 599.189 723.784C599.226 723.834 599.275 723.875 599.33 723.902C599.386 723.93 599.448 723.945 599.51 723.945C599.572 723.945 599.634 723.93 599.69 723.902C599.746 723.875 599.794 723.834 599.831 723.784C601.209 722.559 602.456 721.195 603.554 719.714C604.903 718.145 606.401 716.71 608.026 715.429C609.57 714.235 611.348 713.379 613.244 712.918C615.14 712.456 617.113 712.4 619.032 712.751C627.227 714.358 632.422 721.642 636.787 728.149C636.787 728.149 636.787 728.149 636.921 728.149C636.787 728.363 637.082 728.551 637.243 728.39C641.742 724.454 646.026 720.035 652.239 719.125C658.934 718.134 665.281 721.347 670.824 724.721C673.601 726.354 676.283 728.142 678.858 730.077C681.134 731.845 683.303 733.827 685.74 735.433C696.158 741.994 707.566 736.906 710.404 735.701C716.002 733.179 721.432 730.299 726.66 727.078C731.914 723.555 737.84 721.157 744.066 720.035C746.925 719.614 749.843 719.924 752.55 720.935C755.257 721.947 757.663 723.627 759.545 725.819C761.5 728.337 763.99 733.05 758.875 743.789C758.875 743.789 758.875 744.003 759.036 743.922C761.714 741.137 770.23 723.891 753.653 718.348Z" fill="#263238"/>
<path d="M866.583 564.687L744.602 545.191C744.602 545.191 802.874 429.798 837.875 396.323C872.421 363.277 889.239 397.127 884.151 448.169C878.527 504.754 866.583 564.687 866.583 564.687Z" fill="#37474F"/>
<path d="M862.619 541.978C859.192 541.174 855.684 540.665 852.256 539.889C848.828 539.112 845.534 538.63 842.16 538.121C835.277 537.05 828.368 536.086 821.486 535.149C807.882 533.274 794.278 531.212 780.62 529.793C772.854 528.936 765.142 527.758 757.349 527.115C757.108 527.115 757.081 527.49 757.349 527.543C770.873 530.703 784.637 532.899 798.348 535.283C812.06 537.666 825.557 539.594 839.214 541.067C843.044 541.496 846.9 541.978 850.729 542.165C854.559 542.353 858.629 542.728 862.566 542.781C862.672 542.788 862.777 542.753 862.858 542.682C862.938 542.612 862.987 542.513 862.994 542.406C863.001 542.3 862.966 542.195 862.896 542.114C862.825 542.034 862.726 541.985 862.619 541.978Z" fill="#263238"/>
<path d="M798.67 768.801H1121.71C1121.71 768.801 987.439 435.556 919.178 386.87C898.692 372.249 866.047 370.615 844.034 399.965C825.985 424.067 775.88 519.804 773.604 554.243C771.328 588.681 798.348 622.718 798.348 622.718L798.67 768.801Z" fill="#455A64"/>
<path d="M905.628 542.995C906.458 542.781 907.261 542.674 908.065 542.513C908.773 542.353 909.508 542.353 910.217 542.515C910.925 542.677 911.587 542.996 912.155 543.449C912.724 543.901 913.183 544.476 913.499 545.13C913.815 545.783 913.981 546.5 913.983 547.226C913.963 547.873 914.11 548.513 914.41 549.085C914.71 549.658 915.154 550.143 915.697 550.494C916.305 550.876 916.992 551.114 917.705 551.19C918.525 551.309 919.339 551.47 920.142 551.672C919.339 551.886 918.535 551.993 917.705 552.154C916.808 552.332 915.878 552.248 915.027 551.913C914.121 551.526 913.35 550.88 912.812 550.055C912.273 549.231 911.991 548.265 912.001 547.28C911.986 546.636 911.809 546.007 911.486 545.45C911.163 544.893 910.705 544.426 910.153 544.093C909.517 543.746 908.814 543.536 908.091 543.477C907.261 543.317 906.458 543.209 905.628 542.995Z" fill="white"/>
<path d="M782.066 542.995C782.87 542.781 783.673 542.674 784.477 542.513C785.185 542.353 785.92 542.353 786.629 542.515C787.337 542.677 787.999 542.996 788.567 543.449C789.136 543.901 789.595 544.476 789.911 545.13C790.227 545.783 790.393 546.5 790.395 547.226C790.38 547.875 790.532 548.516 790.837 549.088C791.142 549.66 791.589 550.144 792.136 550.494C792.739 550.884 793.428 551.122 794.144 551.19C794.947 551.35 795.751 551.431 796.554 551.672C795.751 551.886 794.947 551.993 794.144 552.154C793.247 552.328 792.318 552.244 791.466 551.913C790.566 551.518 789.801 550.869 789.264 550.047C788.726 549.224 788.44 548.263 788.44 547.28C788.425 546.636 788.247 546.007 787.924 545.45C787.601 544.893 787.143 544.426 786.592 544.093C785.957 543.742 785.254 543.532 784.53 543.477C783.673 543.317 782.87 543.209 782.066 542.995Z" fill="white"/>
<path d="M950.51 703.512C951.314 703.298 952.144 703.191 952.947 703.03C953.655 702.879 954.388 702.887 955.093 703.055C955.798 703.223 956.456 703.545 957.02 703.999C957.584 704.453 958.04 705.027 958.355 705.679C958.669 706.332 958.835 707.046 958.839 707.77C958.831 708.417 958.987 709.055 959.291 709.626C959.596 710.197 960.038 710.682 960.579 711.037C961.189 711.411 961.876 711.64 962.588 711.707C963.391 711.867 964.221 711.974 965.025 712.189C964.221 712.43 963.391 712.537 962.588 712.697C961.688 712.866 960.759 712.773 959.91 712.43C959.003 712.041 958.23 711.395 957.688 710.572C957.145 709.748 956.856 708.783 956.857 707.797C956.853 707.154 956.68 706.524 956.355 705.97C956.031 705.415 955.567 704.956 955.009 704.637C954.389 704.274 953.691 704.063 952.974 704.021C952.144 703.86 951.314 703.753 950.51 703.512Z" fill="white"/>
<path d="M1006.37 551.672C1007.18 551.431 1008.01 551.351 1008.81 551.19C1009.52 551.029 1010.25 551.029 1010.96 551.191C1011.66 551.353 1012.33 551.673 1012.89 552.126C1013.46 552.579 1013.91 553.154 1014.23 553.808C1014.54 554.462 1014.7 555.178 1014.7 555.903C1014.69 556.55 1014.85 557.19 1015.15 557.761C1015.45 558.332 1015.9 558.817 1016.44 559.17C1017.04 559.559 1017.73 559.789 1018.45 559.84C1019.25 560.027 1020.08 560.108 1020.89 560.349C1020.08 560.563 1019.25 560.67 1018.45 560.831C1017.55 561.01 1016.62 560.927 1015.77 560.59C1014.87 560.201 1014.09 559.555 1013.55 558.732C1013.01 557.908 1012.72 556.943 1012.72 555.957C1012.71 555.311 1012.54 554.677 1012.22 554.119C1011.89 553.56 1011.43 553.095 1010.87 552.77C1010.25 552.419 1009.55 552.209 1008.84 552.154C1008.01 551.886 1007.18 551.886 1006.37 551.672Z" fill="white"/>
<path d="M863.557 470.021C864.387 469.807 865.19 469.699 865.994 469.539C866.886 469.343 867.816 469.409 868.672 469.726C869.601 470.073 870.404 470.694 870.973 471.507C871.542 472.32 871.851 473.286 871.858 474.279C871.856 474.925 872.014 475.561 872.318 476.131C872.621 476.701 873.062 477.187 873.599 477.546C874.214 477.907 874.899 478.135 875.608 478.215C876.438 478.376 877.241 478.483 878.045 478.697C877.241 478.938 876.438 479.019 875.608 479.206C874.707 479.362 873.782 479.269 872.93 478.938C872.011 478.547 871.231 477.888 870.691 477.047C870.152 476.207 869.877 475.224 869.904 474.225C869.891 473.584 869.715 472.958 869.392 472.404C869.068 471.851 868.608 471.39 868.056 471.065C867.426 470.697 866.721 470.477 865.994 470.422C865.19 470.342 864.387 470.262 863.557 470.021Z" fill="white"/>
<path d="M951.474 468.173C952.278 467.959 953.081 467.852 953.911 467.691C954.804 467.503 955.731 467.568 956.589 467.878C957.517 468.23 958.319 468.852 958.892 469.663C959.465 470.474 959.782 471.438 959.803 472.431C959.79 473.079 959.944 473.719 960.249 474.291C960.553 474.862 960.999 475.347 961.543 475.698C962.151 476.075 962.839 476.304 963.552 476.367C964.355 476.528 965.159 476.635 965.989 476.85C965.159 477.091 964.355 477.198 963.552 477.358C962.652 477.528 961.722 477.435 960.874 477.091C959.967 476.702 959.194 476.056 958.652 475.233C958.109 474.409 957.82 473.444 957.821 472.458C957.811 471.816 957.636 471.188 957.312 470.635C956.989 470.081 956.527 469.621 955.973 469.298C955.353 468.935 954.655 468.723 953.938 468.682C953.108 468.554 952.286 468.384 951.474 468.173Z" fill="white"/>
<path d="M894.568 383.791C895.371 383.576 896.201 383.469 897.005 383.309C897.712 383.147 898.446 383.148 899.153 383.31C899.86 383.472 900.521 383.791 901.087 384.244C901.653 384.697 902.11 385.272 902.423 385.926C902.736 386.58 902.898 387.297 902.896 388.022C902.881 388.67 903.034 389.311 903.339 389.883C903.643 390.455 904.091 390.94 904.637 391.289C905.242 391.675 905.93 391.914 906.645 391.985C907.449 392.146 908.279 392.226 909.082 392.467C908.279 392.681 907.449 392.788 906.645 392.949C905.748 393.129 904.818 393.045 903.967 392.708C903.061 392.32 902.288 391.674 901.745 390.85C901.202 390.027 900.913 389.062 900.914 388.075C900.909 387.429 900.736 386.796 900.412 386.237C900.088 385.679 899.625 385.214 899.067 384.889C898.441 384.538 897.747 384.327 897.031 384.273C896.201 384.112 895.371 384.005 894.568 383.791Z" fill="white"/>
<path d="M841.999 610.158C842.803 609.944 843.606 609.837 844.409 609.676C845.301 609.479 846.231 609.545 847.087 609.864C848.018 610.205 848.823 610.82 849.397 611.628C849.97 612.436 850.286 613.399 850.301 614.39C850.286 615.038 850.439 615.679 850.743 616.251C851.048 616.823 851.495 617.307 852.042 617.657C852.645 618.047 853.334 618.286 854.05 618.353C854.853 618.514 855.657 618.621 856.46 618.835C855.657 619.076 854.853 619.156 854.05 619.317C853.153 619.491 852.224 619.407 851.372 619.076C850.472 618.681 849.707 618.032 849.17 617.21C848.633 616.387 848.346 615.426 848.346 614.443C848.331 613.799 848.153 613.17 847.83 612.613C847.508 612.056 847.049 611.589 846.498 611.256C845.861 610.909 845.159 610.7 844.436 610.64C843.606 610.48 842.803 610.399 841.999 610.158Z" fill="white"/>
<path d="M937.924 757.259C938.727 757.018 939.557 756.911 940.361 756.75C941.069 756.599 941.802 756.607 942.507 756.775C943.211 756.943 943.869 757.265 944.434 757.719C944.998 758.173 945.454 758.747 945.769 759.399C946.083 760.052 946.248 760.766 946.252 761.49C946.245 762.137 946.401 762.775 946.705 763.346C947.009 763.917 947.452 764.402 947.993 764.757C948.597 765.142 949.287 765.372 950.001 765.427C950.805 765.587 951.635 765.694 952.438 765.909C951.635 766.15 950.805 766.257 950.001 766.417C949.102 766.586 948.172 766.493 947.323 766.15C946.415 765.764 945.64 765.119 945.097 764.295C944.554 763.47 944.266 762.504 944.271 761.517C944.266 760.874 944.093 760.244 943.769 759.69C943.445 759.135 942.98 758.676 942.423 758.357C941.802 757.994 941.105 757.783 940.388 757.741C939.477 757.58 938.647 757.473 937.924 757.259Z" fill="white"/>
<path d="M890.658 678.205C891.461 677.991 892.265 677.884 893.068 677.723C893.961 677.54 894.887 677.604 895.746 677.911C896.679 678.257 897.485 678.877 898.058 679.689C898.632 680.502 898.946 681.469 898.96 682.463C898.947 683.111 899.101 683.751 899.406 684.323C899.71 684.895 900.156 685.379 900.7 685.73C901.306 686.112 901.995 686.342 902.709 686.4C903.512 686.561 904.316 686.668 905.146 686.882C904.316 687.123 903.512 687.203 902.709 687.391C901.808 687.542 900.884 687.45 900.031 687.123C899.131 686.728 898.366 686.079 897.829 685.257C897.291 684.434 897.005 683.473 897.005 682.49C896.987 681.85 896.809 681.226 896.486 680.673C896.163 680.121 895.706 679.659 895.157 679.33C894.534 678.952 893.824 678.74 893.095 678.714C892.399 678.527 891.461 678.446 890.658 678.205Z" fill="white"/>
<path d="M803.33 692.586C804.16 692.345 804.963 692.238 805.767 692.077C806.475 691.926 807.208 691.935 807.912 692.102C808.617 692.27 809.275 692.592 809.839 693.046C810.404 693.5 810.86 694.074 811.174 694.727C811.489 695.379 811.654 696.093 811.658 696.817C811.651 697.464 811.807 698.103 812.111 698.673C812.415 699.244 812.858 699.73 813.399 700.084C814.003 700.469 814.693 700.699 815.407 700.754C816.237 700.915 817.041 701.022 817.844 701.236C817.041 701.447 816.228 701.616 815.407 701.745C814.507 701.913 813.578 701.82 812.729 701.477C811.82 701.092 811.046 700.446 810.503 699.622C809.959 698.798 809.672 697.831 809.676 696.844C809.672 696.205 809.502 695.578 809.183 695.024C808.864 694.47 808.406 694.008 807.855 693.684C807.224 693.325 806.518 693.115 805.793 693.068C804.963 692.908 804.16 692.8 803.33 692.586Z" fill="white"/>
<path d="M930.854 612.087C931.657 611.873 932.461 611.765 933.264 611.605C933.974 611.454 934.708 611.463 935.414 611.63C936.12 611.798 936.779 612.12 937.346 612.573C937.912 613.027 938.37 613.6 938.688 614.253C939.006 614.905 939.175 615.619 939.182 616.345C939.17 616.992 939.324 617.633 939.628 618.204C939.933 618.776 940.379 619.261 940.923 619.612C941.529 619.993 942.218 620.223 942.932 620.281C943.735 620.442 944.538 620.549 945.342 620.763C944.538 621.004 943.735 621.085 942.932 621.272C942.032 621.436 941.103 621.343 940.254 621.004C939.354 620.609 938.589 619.961 938.051 619.138C937.514 618.315 937.228 617.354 937.228 616.371C937.21 615.732 937.032 615.107 936.709 614.555C936.386 614.002 935.929 613.54 935.38 613.211C934.753 612.84 934.045 612.629 933.318 612.596C932.568 612.408 931.657 612.328 930.854 612.087Z" fill="white"/>
<path d="M1042.5 720.303C1043.3 720.089 1044.13 719.982 1044.93 719.821C1045.83 719.626 1046.76 719.691 1047.61 720.008C1048.54 720.355 1049.34 720.977 1049.91 721.789C1050.48 722.602 1050.79 723.569 1050.8 724.561C1050.8 725.207 1050.96 725.844 1051.26 726.414C1051.56 726.984 1052 727.47 1052.54 727.828C1053.16 728.19 1053.84 728.418 1054.55 728.498C1055.38 728.658 1056.18 728.765 1056.99 728.98C1056.18 729.221 1055.38 729.301 1054.55 729.488C1053.84 729.62 1053.1 729.591 1052.4 729.404C1051.71 729.217 1051.06 728.876 1050.5 728.407C1049.95 727.938 1049.51 727.351 1049.22 726.691C1048.92 726.03 1048.78 725.312 1048.79 724.588C1048.79 723.945 1048.61 723.315 1048.29 722.761C1047.97 722.206 1047.5 721.747 1046.94 721.428C1046.33 721.055 1045.63 720.835 1044.91 720.785C1044.13 720.598 1043.3 720.598 1042.5 720.303Z" fill="white"/>
<path d="M998.178 654.238C998.981 654.023 999.811 653.916 1000.61 653.756C1001.32 653.604 1002.06 653.613 1002.76 653.781C1003.46 653.948 1004.12 654.271 1004.69 654.725C1005.25 655.179 1005.71 655.753 1006.02 656.405C1006.34 657.057 1006.5 657.771 1006.51 658.496C1006.49 659.143 1006.65 659.783 1006.95 660.355C1007.26 660.927 1007.7 661.411 1008.25 661.763C1008.85 662.151 1009.54 662.382 1010.26 662.432C1011.06 662.593 1011.89 662.7 1012.69 662.914C1011.89 663.155 1011.06 663.262 1010.26 663.423C1009.36 663.593 1008.43 663.5 1007.58 663.155C1006.67 662.77 1005.89 662.124 1005.35 661.3C1004.81 660.476 1004.52 659.51 1004.52 658.522C1004.52 657.88 1004.35 657.25 1004.02 656.695C1003.7 656.141 1003.23 655.681 1002.68 655.362C1002.06 654.999 1001.36 654.788 1000.64 654.746C999.811 654.586 998.981 654.479 998.178 654.238Z" fill="white"/>
<path d="M1092.39 750.51C1093.22 750.296 1094.02 750.189 1094.83 750.028C1095.53 749.877 1096.27 749.886 1096.97 750.053C1097.68 750.221 1098.33 750.543 1098.9 750.997C1099.46 751.451 1099.92 752.025 1100.23 752.678C1100.55 753.33 1100.71 754.044 1100.72 754.768C1100.71 755.415 1100.87 756.053 1101.17 756.624C1101.47 757.195 1101.92 757.681 1102.46 758.035C1103.06 758.42 1103.75 758.65 1104.47 758.705C1105.3 758.866 1106.1 758.973 1106.9 759.187C1106.1 759.398 1105.29 759.567 1104.47 759.696C1103.57 759.864 1102.64 759.771 1101.79 759.428C1100.88 759.044 1100.11 758.399 1099.57 757.573C1099.03 756.748 1098.75 755.781 1098.76 754.795C1098.74 754.155 1098.57 753.531 1098.24 752.978C1097.92 752.426 1097.46 751.964 1096.91 751.635C1096.28 751.276 1095.58 751.066 1094.85 751.019C1094.02 750.858 1093.25 750.751 1092.39 750.51Z" fill="white"/>
<path d="M870.975 515.626C870.573 516.349 870.064 516.992 869.609 517.688C869.22 518.303 868.698 518.821 868.081 519.206C867.464 519.591 866.769 519.832 866.046 519.912C865.323 519.992 864.592 519.908 863.906 519.667C863.22 519.426 862.598 519.033 862.084 518.519C861.637 518.05 861.077 517.705 860.458 517.517C859.838 517.33 859.181 517.306 858.549 517.447C857.85 517.604 857.198 517.925 856.648 518.385C855.985 518.877 855.297 519.333 854.586 519.75C855.014 519.027 855.496 518.385 855.951 517.688C856.477 516.919 857.211 516.315 858.067 515.948C858.972 515.592 859.962 515.509 860.913 515.709C861.865 515.909 862.737 516.383 863.423 517.072C863.887 517.52 864.458 517.841 865.082 518.005C865.705 518.169 866.36 518.171 866.985 518.01C867.68 517.82 868.321 517.472 868.859 516.992C869.716 516.537 870.359 516.028 870.975 515.626Z" fill="white"/>
<path d="M838.652 461.398C838.25 462.121 837.741 462.764 837.286 463.46C836.897 464.074 836.375 464.593 835.758 464.978C835.141 465.363 834.446 465.604 833.723 465.684C833 465.764 832.269 465.68 831.583 465.439C830.897 465.197 830.275 464.805 829.761 464.29C829.316 463.82 828.756 463.473 828.136 463.285C827.516 463.097 826.858 463.075 826.226 463.219C825.527 463.376 824.875 463.697 824.325 464.156C823.662 464.648 822.974 465.104 822.263 465.522C822.691 464.799 823.173 464.156 823.628 463.46C824.154 462.691 824.888 462.087 825.744 461.719C826.649 461.364 827.639 461.28 828.59 461.48C829.542 461.68 830.414 462.154 831.1 462.844C831.563 463.294 832.134 463.616 832.758 463.78C833.382 463.945 834.038 463.945 834.662 463.781C835.357 463.592 835.998 463.243 836.536 462.764C837.286 462.309 837.929 461.8 838.652 461.398Z" fill="white"/>
<path d="M1002.19 610.025C1001.77 610.774 1001.28 611.417 1000.83 612.087C1000.32 612.863 999.607 613.484 998.767 613.881C997.879 614.267 996.896 614.382 995.943 614.211C994.99 614.039 994.109 613.589 993.411 612.917C992.96 612.455 992.399 612.114 991.781 611.927C991.163 611.74 990.508 611.712 989.876 611.846C989.177 612.003 988.525 612.324 987.975 612.783C987.279 613.238 986.636 613.747 985.913 614.149C986.315 613.426 986.823 612.783 987.279 612.087C987.793 611.318 988.518 610.714 989.367 610.346C990.274 610 991.261 609.923 992.21 610.122C993.16 610.321 994.032 610.79 994.723 611.471C995.181 611.92 995.747 612.243 996.367 612.407C996.986 612.572 997.638 612.572 998.258 612.408C998.958 612.225 999.608 611.886 1000.16 611.417C1000.91 610.962 1001.55 610.453 1002.19 610.025Z" fill="white"/>
<path d="M920.41 434.27C920.008 434.993 919.5 435.636 919.044 436.332C918.543 437.099 917.839 437.711 917.009 438.1C916.105 438.508 915.099 438.637 914.121 438.47C913.143 438.303 912.237 437.848 911.519 437.162C911.071 436.696 910.512 436.35 909.893 436.158C909.275 435.966 908.618 435.934 907.984 436.064C907.287 436.227 906.636 436.547 906.083 437.002C905.387 437.457 904.744 437.966 904.021 438.394C904.423 437.644 904.932 437.002 905.387 436.305C905.906 435.536 906.642 434.939 907.502 434.592C908.407 434.236 909.397 434.153 910.349 434.352C911.3 434.552 912.173 435.026 912.858 435.716C913.327 436.184 913.908 436.524 914.546 436.702C915.184 436.88 915.857 436.891 916.5 436.734C917.191 436.533 917.83 436.186 918.375 435.716C919.178 435.181 919.687 434.672 920.41 434.27Z" fill="white"/>
<path d="M863.691 394.208C863.289 394.931 862.78 395.574 862.325 396.27C861.82 397.039 861.117 397.659 860.29 398.064C859.383 398.469 858.376 398.594 857.397 398.422C856.419 398.25 855.515 397.79 854.8 397.1C854.353 396.632 853.793 396.287 853.174 396.099C852.554 395.911 851.897 395.887 851.265 396.029C850.564 396.18 849.911 396.502 849.364 396.966C848.667 397.421 848.025 397.93 847.302 398.332C847.703 397.609 848.212 396.966 848.668 396.27C849.186 395.494 849.922 394.889 850.783 394.529C851.688 394.173 852.678 394.09 853.629 394.29C854.581 394.49 855.454 394.964 856.139 395.654C856.6 396.106 857.171 396.43 857.796 396.594C858.42 396.758 859.077 396.757 859.701 396.591C860.396 396.402 861.037 396.053 861.575 395.574C862.325 395.118 862.941 394.61 863.691 394.208Z" fill="white"/>
<path d="M917.223 485.259C917.464 486.062 917.544 486.892 917.732 487.695C917.898 488.59 917.833 489.511 917.544 490.373C917.191 491.299 916.569 492.097 915.757 492.665C914.946 493.233 913.982 493.545 912.992 493.56C912.345 493.551 911.705 493.705 911.134 494.01C910.563 494.314 910.078 494.758 909.725 495.301C909.336 495.903 909.106 496.594 909.055 497.309C908.868 498.113 908.788 498.943 908.547 499.746C908.332 498.943 908.225 498.113 908.064 497.309C907.882 496.41 907.975 495.477 908.332 494.631C908.715 493.72 909.359 492.944 910.184 492.4C911.009 491.857 911.977 491.571 912.965 491.579C913.607 491.572 914.236 491.397 914.79 491.073C915.344 490.749 915.804 490.287 916.125 489.731C916.476 489.105 916.686 488.411 916.741 487.695C916.902 486.892 917.009 486.062 917.223 485.259Z" fill="white"/>
<path d="M897.915 627.914C898.129 628.717 898.236 629.547 898.397 630.35C898.548 631.059 898.54 631.792 898.372 632.496C898.204 633.201 897.882 633.859 897.428 634.423C896.974 634.988 896.4 635.444 895.748 635.758C895.095 636.073 894.381 636.238 893.657 636.242C893.009 636.23 892.369 636.383 891.797 636.688C891.226 636.993 890.741 637.438 890.39 637.983C890.013 638.591 889.784 639.279 889.72 639.991C889.56 640.795 889.453 641.625 889.238 642.428C888.997 641.625 888.89 640.795 888.73 639.991C888.56 639.091 888.653 638.162 888.997 637.313C889.386 636.406 890.032 635.634 890.855 635.091C891.679 634.548 892.644 634.259 893.63 634.26C894.273 634.256 894.903 634.083 895.457 633.759C896.012 633.434 896.471 632.97 896.79 632.413C897.153 631.792 897.364 631.095 897.406 630.377C897.567 629.547 897.754 628.717 897.915 627.914Z" fill="white"/>
<path d="M1085.21 694.005C1085.45 694.809 1085.56 695.612 1085.72 696.416C1085.87 697.125 1085.86 697.859 1085.69 698.565C1085.53 699.271 1085.21 699.931 1084.75 700.497C1084.3 701.063 1083.72 701.522 1083.07 701.839C1082.42 702.157 1081.71 702.326 1080.98 702.334C1080.33 702.322 1079.69 702.475 1079.12 702.78C1078.55 703.084 1078.06 703.53 1077.71 704.074C1077.32 704.675 1077.09 705.367 1077.04 706.083C1076.88 706.886 1076.78 707.69 1076.56 708.493C1076.32 707.69 1076.21 706.886 1076.05 706.083C1075.89 705.183 1075.98 704.255 1076.32 703.405C1076.71 702.503 1077.36 701.736 1078.18 701.198C1079.01 700.661 1079.97 700.376 1080.95 700.379C1081.59 700.362 1082.22 700.183 1082.77 699.86C1083.32 699.537 1083.78 699.08 1084.11 698.531C1084.47 697.899 1084.68 697.194 1084.73 696.469C1084.92 695.612 1085.02 694.809 1085.21 694.005Z" fill="white"/>
<path d="M998.446 505.022C998.66 505.825 998.767 506.629 998.928 507.459C999.116 508.351 999.051 509.279 998.74 510.137C998.388 511.065 997.767 511.867 996.955 512.44C996.144 513.012 995.18 513.329 994.188 513.35C993.54 513.338 992.9 513.491 992.328 513.796C991.756 514.101 991.272 514.546 990.921 515.091C990.544 515.699 990.314 516.387 990.251 517.099C990.09 517.903 989.983 518.706 989.769 519.536C989.528 518.706 989.448 517.903 989.26 517.099C989.129 516.387 989.158 515.655 989.345 514.955C989.532 514.256 989.872 513.607 990.342 513.055C990.811 512.504 991.397 512.064 992.058 511.768C992.719 511.471 993.437 511.326 994.161 511.342C994.802 511.332 995.43 511.157 995.984 510.833C996.537 510.509 996.998 510.048 997.321 509.494C997.695 508.879 997.907 508.178 997.937 507.459C998.124 506.629 998.205 505.825 998.446 505.022Z" fill="white"/>
<path d="M998.446 733.987C998.66 734.791 998.767 735.594 998.928 736.397C999.078 737.107 999.07 737.841 998.902 738.547C998.735 739.253 998.412 739.913 997.959 740.479C997.505 741.045 996.932 741.504 996.28 741.821C995.628 742.139 994.913 742.308 994.188 742.316C993.54 742.304 992.9 742.457 992.328 742.762C991.756 743.066 991.272 743.512 990.921 744.056C990.539 744.662 990.309 745.351 990.251 746.065C990.09 746.868 989.983 747.672 989.769 748.475C989.528 747.672 989.448 746.868 989.26 746.065C989.109 745.164 989.201 744.24 989.528 743.387C989.923 742.487 990.572 741.722 991.394 741.185C992.217 740.647 993.178 740.361 994.161 740.361C994.801 740.344 995.425 740.165 995.978 739.842C996.53 739.519 996.992 739.062 997.321 738.513C997.699 737.89 997.911 737.18 997.937 736.451C998.124 735.674 998.205 734.871 998.446 733.987Z" fill="white"/>
<path d="M1042.5 602.901C1042.74 603.705 1042.82 604.535 1042.98 605.338C1043.14 606.045 1043.14 606.779 1042.98 607.486C1042.82 608.193 1042.5 608.854 1042.04 609.421C1041.59 609.987 1041.02 610.444 1040.36 610.757C1039.71 611.07 1038.99 611.232 1038.27 611.23C1037.62 611.22 1036.98 611.375 1036.41 611.679C1035.84 611.983 1035.35 612.428 1035 612.97C1034.61 613.573 1034.38 614.264 1034.33 614.979C1034.14 615.782 1034.06 616.612 1033.82 617.416C1033.61 616.612 1033.5 615.782 1033.34 614.979C1033.16 614.08 1033.25 613.146 1033.61 612.301C1033.99 611.394 1034.63 610.62 1035.45 610.077C1036.27 609.534 1037.23 609.245 1038.21 609.248C1038.86 609.243 1039.49 609.07 1040.05 608.746C1040.61 608.422 1041.07 607.958 1041.4 607.4C1041.75 606.775 1041.96 606.08 1042.02 605.365C1042.18 604.535 1042.36 603.705 1042.5 602.901Z" fill="white"/>
<path d="M819.263 633.028C819.505 633.832 819.585 634.635 819.746 635.439C819.906 636.147 819.905 636.882 819.743 637.59C819.581 638.299 819.262 638.961 818.81 639.529C818.357 640.097 817.783 640.557 817.129 640.873C816.475 641.189 815.759 641.355 815.032 641.357C814.384 641.342 813.743 641.494 813.171 641.799C812.599 642.104 812.115 642.551 811.765 643.097C811.372 643.698 811.142 644.39 811.096 645.106C810.908 645.909 810.828 646.713 810.587 647.516C810.373 646.713 810.266 645.909 810.105 645.106C809.929 644.206 810.022 643.275 810.373 642.428C810.757 641.526 811.4 640.758 812.219 640.22C813.038 639.682 813.998 639.397 814.979 639.402C815.622 639.387 816.252 639.209 816.809 638.886C817.366 638.563 817.833 638.105 818.166 637.554C818.52 636.921 818.731 636.216 818.781 635.492C818.942 634.635 819.049 633.832 819.263 633.028Z" fill="white"/>
<path d="M823.602 505.022C823.803 505.825 823.964 506.639 824.084 507.459C824.282 508.349 824.226 509.277 823.923 510.137C823.571 511.065 822.949 511.867 822.138 512.44C821.327 513.012 820.363 513.329 819.37 513.35C818.722 513.335 818.081 513.488 817.509 513.793C816.937 514.098 816.453 514.545 816.103 515.091C815.715 515.693 815.484 516.384 815.434 517.099C815.246 517.903 815.166 518.706 814.925 519.536C814.711 518.706 814.604 517.903 814.443 517.099C814.263 516.202 814.347 515.272 814.684 514.421C815.072 513.515 815.718 512.742 816.542 512.199C817.366 511.656 818.33 511.368 819.317 511.368C819.962 511.358 820.593 511.183 821.151 510.86C821.709 510.536 822.174 510.075 822.504 509.521C822.855 508.895 823.065 508.201 823.12 507.485C823.28 506.629 823.387 505.825 823.602 505.022Z" fill="white"/>
<path d="M870.305 421.818C870.52 422.621 870.627 423.424 870.787 424.255C870.975 425.147 870.91 426.075 870.6 426.933C870.248 427.861 869.626 428.663 868.815 429.236C868.004 429.808 867.04 430.125 866.047 430.146C865.4 430.134 864.76 430.287 864.188 430.592C863.616 430.897 863.132 431.342 862.78 431.887C862.403 432.495 862.174 433.183 862.111 433.895C861.95 434.699 861.843 435.502 861.629 436.332C861.388 435.502 861.308 434.699 861.12 433.895C860.956 432.995 861.049 432.067 861.388 431.217C861.783 430.318 862.431 429.552 863.254 429.015C864.077 428.478 865.038 428.191 866.021 428.191C866.662 428.182 867.29 428.006 867.844 427.683C868.397 427.359 868.858 426.898 869.181 426.343C869.555 425.728 869.767 425.028 869.797 424.308C869.984 423.344 870.064 422.621 870.305 421.818Z" fill="white"/>
<path d="M857.772 550.44C857.987 551.27 858.094 552.074 858.255 552.877C858.405 553.586 858.396 554.321 858.229 555.027C858.061 555.732 857.739 556.392 857.286 556.958C856.832 557.525 856.259 557.983 855.607 558.301C854.954 558.618 854.24 558.787 853.515 558.795C852.867 558.783 852.227 558.936 851.655 559.241C851.083 559.546 850.599 559.991 850.247 560.536C849.866 561.142 849.636 561.831 849.578 562.544C849.417 563.348 849.31 564.151 849.096 564.955C848.855 564.151 848.748 563.348 848.587 562.544C848.423 561.644 848.516 560.716 848.855 559.866C849.25 558.967 849.898 558.202 850.721 557.664C851.544 557.127 852.505 556.841 853.488 556.84C854.127 556.823 854.752 556.645 855.305 556.322C855.857 555.999 856.319 555.541 856.648 554.993C857.007 554.361 857.217 553.656 857.264 552.931C857.424 552.074 857.585 551.27 857.772 550.44Z" fill="white"/>
<path d="M970.327 567.74C970.541 568.543 970.648 569.373 970.809 570.177C970.96 570.885 970.952 571.618 970.784 572.322C970.617 573.027 970.294 573.685 969.84 574.25C969.386 574.814 968.812 575.27 968.16 575.584C967.508 575.899 966.793 576.064 966.069 576.068C965.422 576.061 964.784 576.217 964.213 576.521C963.642 576.825 963.157 577.268 962.802 577.809C962.429 578.418 962.2 579.105 962.133 579.817C961.972 580.621 961.865 581.451 961.651 582.254C961.409 581.451 961.329 580.621 961.142 579.817C960.973 578.917 961.066 577.988 961.409 577.139C961.798 576.233 962.444 575.46 963.268 574.917C964.091 574.374 965.056 574.086 966.042 574.086C966.685 574.082 967.315 573.909 967.869 573.585C968.424 573.261 968.884 572.796 969.202 572.239C969.576 571.623 969.788 570.923 969.818 570.203C970.059 569.373 970.059 568.543 970.327 567.74Z" fill="white"/>
<path d="M866.288 712.189C866.503 713.019 866.61 713.822 866.77 714.626C866.931 715.334 866.93 716.069 866.768 716.778C866.606 717.486 866.287 718.148 865.835 718.716C865.382 719.285 864.808 719.744 864.154 720.06C863.5 720.377 862.784 720.542 862.057 720.544C861.408 720.524 860.765 720.674 860.192 720.979C859.619 721.285 859.136 721.735 858.79 722.285C858.404 722.881 858.165 723.56 858.094 724.266C857.974 725.086 857.814 725.9 857.612 726.703C857.398 725.9 857.29 725.097 857.13 724.266C856.951 723.369 857.035 722.439 857.371 721.588C857.757 720.682 858.404 719.911 859.228 719.373C860.053 718.834 861.019 718.552 862.004 718.562C862.647 718.547 863.277 718.37 863.834 718.047C864.391 717.724 864.857 717.266 865.19 716.714C865.537 716.078 865.747 715.375 865.806 714.652C865.967 713.822 866.074 713.019 866.288 712.189Z" fill="white"/>
<path d="M951.019 526.901C951.448 526.178 951.956 525.535 952.412 524.839C952.905 524.065 953.612 523.451 954.447 523.071C955.333 522.685 956.313 522.568 957.266 522.734C958.218 522.901 959.1 523.344 959.803 524.009C960.257 524.476 960.821 524.821 961.443 525.013C962.066 525.205 962.726 525.237 963.364 525.107C964.053 524.943 964.695 524.622 965.239 524.169C965.935 523.687 966.578 523.205 967.328 522.777C966.899 523.527 966.39 524.169 965.935 524.866C965.419 525.626 964.693 526.222 963.846 526.579C962.94 526.928 961.953 527.008 961.002 526.808C960.052 526.609 959.18 526.139 958.49 525.455C958.028 525.014 957.461 524.697 956.843 524.533C956.225 524.369 955.576 524.364 954.956 524.517C954.265 524.718 953.626 525.065 953.081 525.535C952.412 525.99 951.769 526.499 951.019 526.901Z" fill="white"/>
<path d="M885.382 586.378C885.784 585.655 886.293 585.012 886.748 584.316C887.137 583.702 887.659 583.183 888.276 582.798C888.893 582.413 889.588 582.172 890.311 582.092C891.034 582.012 891.765 582.096 892.451 582.338C893.137 582.579 893.76 582.971 894.273 583.486C894.718 583.956 895.278 584.303 895.898 584.491C896.518 584.679 897.177 584.702 897.808 584.557C898.507 584.401 899.159 584.079 899.709 583.62C900.372 583.128 901.06 582.672 901.771 582.254C901.343 582.977 900.861 583.62 900.406 584.316C899.996 584.916 899.458 585.416 898.83 585.781C898.202 586.146 897.5 586.366 896.777 586.426C896.053 586.485 895.325 586.381 894.646 586.123C893.968 585.864 893.355 585.457 892.854 584.932C892.395 584.485 891.829 584.163 891.209 583.999C890.59 583.835 889.939 583.833 889.319 583.995C888.628 584.195 887.989 584.542 887.444 585.012C886.748 585.467 886.105 585.976 885.382 586.378Z" fill="white"/>
<path d="M840.875 674.001C841.303 673.251 841.812 672.608 842.267 671.939C842.656 671.325 843.178 670.806 843.795 670.421C844.412 670.036 845.107 669.795 845.83 669.715C846.553 669.636 847.284 669.719 847.97 669.961C848.656 670.202 849.278 670.594 849.792 671.109C850.242 671.573 850.802 671.915 851.421 672.102C852.039 672.29 852.695 672.317 853.327 672.18C854.026 672.024 854.678 671.702 855.228 671.243C855.891 670.751 856.579 670.295 857.29 669.877C856.862 670.6 856.38 671.243 855.925 671.939C855.518 672.538 854.982 673.039 854.356 673.404C853.731 673.769 853.031 673.989 852.309 674.048C851.588 674.107 850.862 674.004 850.185 673.745C849.508 673.487 848.898 673.08 848.4 672.555C847.937 672.105 847.366 671.783 846.742 671.619C846.118 671.455 845.462 671.454 844.838 671.618C844.144 671.797 843.502 672.136 842.963 672.608C842.267 673.091 841.517 673.573 840.875 674.001Z" fill="white"/>
<path d="M860.102 765.025C860.531 764.302 861.04 763.659 861.495 762.963C861.988 762.189 862.695 761.575 863.53 761.195C864.418 760.816 865.396 760.702 866.347 760.869C867.298 761.035 868.18 761.474 868.886 762.133C869.333 762.602 869.892 762.949 870.511 763.141C871.129 763.333 871.787 763.364 872.421 763.231C873.122 763.063 873.773 762.733 874.322 762.267C874.992 761.811 875.634 761.329 876.384 760.901C875.956 761.651 875.474 762.293 875.019 762.963C874.494 763.733 873.76 764.338 872.903 764.704C871.997 765.053 871.009 765.132 870.059 764.932C869.109 764.733 868.236 764.263 867.547 763.579C867.084 763.138 866.517 762.821 865.9 762.657C865.282 762.493 864.633 762.488 864.012 762.642C863.321 762.842 862.682 763.189 862.138 763.659C861.495 764.114 860.852 764.623 860.102 765.025Z" fill="white"/>
<path d="M946.199 664.976C946.6 664.253 947.109 663.61 947.565 662.914C948.065 662.147 948.77 661.535 949.6 661.147C950.504 660.738 951.51 660.609 952.488 660.776C953.466 660.943 954.372 661.399 955.09 662.084C955.536 662.553 956.096 662.9 956.714 663.092C957.333 663.284 957.991 663.315 958.624 663.182C959.32 663.014 959.969 662.694 960.526 662.245C961.195 661.789 961.838 661.281 962.588 660.852C962.159 661.602 961.677 662.245 961.222 662.941C960.703 663.71 959.967 664.307 959.107 664.655C958.201 665.011 957.212 665.094 956.26 664.894C955.308 664.694 954.436 664.22 953.751 663.53C953.282 663.089 952.711 662.773 952.089 662.609C951.467 662.445 950.814 662.44 950.189 662.593C949.498 662.793 948.859 663.141 948.314 663.61C947.565 664.066 946.922 664.575 946.199 664.976Z" fill="white"/>
<path d="M1005.44 701.236C1005.84 700.513 1006.35 699.87 1006.8 699.174C1007.31 698.412 1008.01 697.802 1008.84 697.406C1009.72 697.027 1010.7 696.913 1011.65 697.08C1012.6 697.246 1013.49 697.685 1014.19 698.344C1014.64 698.81 1015.2 699.156 1015.82 699.348C1016.44 699.54 1017.09 699.572 1017.73 699.442C1018.42 699.279 1019.07 698.959 1019.63 698.504C1020.32 698.049 1020.97 697.54 1021.69 697.112C1021.29 697.862 1020.78 698.504 1020.32 699.201C1019.81 699.976 1019.07 700.574 1018.21 700.914C1017.3 701.27 1016.31 701.353 1015.36 701.154C1014.41 700.954 1013.54 700.48 1012.85 699.79C1012.38 699.349 1011.81 699.032 1011.19 698.868C1010.57 698.705 1009.92 698.699 1009.29 698.852C1008.6 699.053 1007.96 699.4 1007.42 699.87C1006.8 700.325 1006.16 700.834 1005.44 701.236Z" fill="white"/>
<path d="M905.788 728.765C906.19 728.042 906.699 727.4 907.154 726.703C907.647 725.93 908.354 725.316 909.189 724.936C910.093 724.528 911.099 724.399 912.077 724.566C913.055 724.733 913.961 725.188 914.679 725.873C915.126 726.342 915.685 726.689 916.304 726.881C916.922 727.074 917.58 727.104 918.214 726.971C918.915 726.804 919.566 726.474 920.115 726.007C920.785 725.552 921.427 725.07 922.177 724.641C921.749 725.391 921.267 726.034 920.811 726.703C920.294 727.48 919.558 728.086 918.696 728.444C917.791 728.8 916.801 728.883 915.85 728.683C914.898 728.483 914.025 728.009 913.34 727.319C912.872 726.879 912.3 726.562 911.678 726.398C911.056 726.234 910.403 726.229 909.778 726.382C909.088 726.583 908.448 726.93 907.904 727.4C907.154 727.855 906.511 728.364 905.788 728.765Z" fill="white"/>
<path d="M1034.33 765.025C1034.76 764.302 1035.24 763.659 1035.7 762.963C1036.2 762.195 1036.9 761.583 1037.73 761.195C1038.64 760.787 1039.64 760.658 1040.62 760.825C1041.6 760.992 1042.5 761.447 1043.22 762.133C1043.67 762.599 1044.23 762.945 1044.85 763.137C1045.47 763.329 1046.12 763.361 1046.76 763.231C1047.45 763.068 1048.1 762.748 1048.66 762.293C1049.35 761.811 1050 761.329 1050.72 760.901C1050.32 761.65 1049.81 762.293 1049.35 762.989C1048.84 763.75 1048.11 764.345 1047.26 764.703C1046.36 765.056 1045.37 765.137 1044.42 764.937C1043.47 764.738 1042.6 764.266 1041.91 763.579C1041.44 763.14 1040.88 762.824 1040.26 762.661C1039.64 762.497 1038.99 762.49 1038.37 762.641C1037.67 762.835 1037.02 763.183 1036.47 763.659C1035.67 764.114 1035.03 764.623 1034.33 765.025Z" fill="white"/>
<path d="M1048.82 667.039C1049.22 666.289 1049.73 665.646 1050.18 664.95C1050.69 664.188 1051.39 663.578 1052.22 663.182C1053.12 662.774 1054.13 662.645 1055.11 662.812C1056.09 662.979 1056.99 663.434 1057.71 664.12C1058.16 664.586 1058.72 664.932 1059.33 665.124C1059.95 665.316 1060.61 665.348 1061.24 665.218C1061.94 665.055 1062.59 664.735 1063.14 664.28C1063.84 663.825 1064.48 663.316 1065.21 662.888C1064.81 663.638 1064.3 664.28 1063.84 664.977C1063.33 665.751 1062.59 666.35 1061.73 666.69C1060.82 667.046 1059.83 667.129 1058.88 666.93C1057.93 666.73 1057.06 666.256 1056.37 665.566C1055.91 665.127 1055.34 664.812 1054.72 664.648C1054.1 664.484 1053.46 664.477 1052.83 664.628C1052.13 664.822 1051.48 665.17 1050.93 665.646C1050.18 666.128 1049.54 666.637 1048.82 667.039Z" fill="white"/>
<path d="M814.068 741.325C814.497 740.575 814.979 739.932 815.434 739.236C815.941 738.475 816.644 737.864 817.469 737.469C818.373 737.06 819.379 736.931 820.357 737.098C821.335 737.265 822.241 737.721 822.959 738.406C823.407 738.873 823.967 739.218 824.585 739.41C825.203 739.602 825.86 739.635 826.494 739.504C827.191 739.342 827.842 739.021 828.395 738.567C829.091 738.111 829.734 737.603 830.457 737.174C830.056 737.924 829.547 738.567 829.091 739.263C828.582 740.03 827.855 740.627 827.003 740.977C826.097 741.329 825.108 741.411 824.157 741.211C823.206 741.011 822.334 740.539 821.647 739.852C821.184 739.412 820.616 739.097 819.998 738.938C819.379 738.778 818.73 738.78 818.112 738.942C817.407 739.114 816.755 739.454 816.21 739.932C815.434 740.388 814.738 740.896 814.068 741.325Z" fill="white"/>
<path d="M806.704 588.44C807.106 587.717 807.614 587.074 808.07 586.378C808.575 585.609 809.278 584.989 810.105 584.584C811.012 584.179 812.019 584.054 812.997 584.226C813.975 584.398 814.88 584.858 815.595 585.548C816.041 586.017 816.602 586.361 817.221 586.549C817.841 586.737 818.498 586.761 819.13 586.619C819.835 586.48 820.491 586.157 821.031 585.682C821.727 585.227 822.37 584.718 823.093 584.316C822.675 585.028 822.219 585.716 821.727 586.378C821.212 587.147 820.487 587.751 819.638 588.119C818.733 588.471 817.744 588.553 816.793 588.353C815.842 588.153 814.97 587.681 814.282 586.994C813.822 586.549 813.256 586.229 812.637 586.065C812.018 585.901 811.368 585.898 810.748 586.057C810.046 586.251 809.397 586.598 808.846 587.074C808.096 587.53 807.454 588.038 806.704 588.44Z" fill="white"/>
<path d="M894.086 384.46C893.095 389.468 870.493 422.434 847.784 422.139C840.393 422.005 839.214 381.621 839.214 381.621L838.438 378.676L827.726 337.221L875.742 304.094L882.704 299.703C882.704 299.703 884.873 311.245 887.471 325.625C887.471 326.295 887.712 326.964 887.819 327.687C887.926 328.41 888.167 329.241 888.274 330.017C888.703 332.159 889.105 334.355 889.48 336.551C889.774 338.212 890.042 339.818 890.283 341.586C890.524 343.353 890.792 345.067 891.086 346.942C892.939 359.365 893.941 371.9 894.086 384.46Z" fill="#DD6A57"/>
<path d="M887.471 325.625C883.635 337.495 877.263 348.389 868.795 357.549C860.328 366.71 849.97 373.919 838.438 378.676L827.726 337.221L875.742 304.094L882.704 299.703C882.704 299.703 884.873 311.245 887.471 325.625Z" fill="#263238"/>
<path d="M768.864 275.655C766.883 350.798 811.712 360.466 827.779 360.867C842.481 361.242 892.613 360.653 902.36 286.126C912.108 211.598 877.777 187.041 844.195 184.363C810.614 181.685 770.846 200.511 768.864 275.655Z" fill="#DD6A57"/>
<path d="M780.272 252.919C782.04 252.624 783.593 252.089 785.307 251.633C787.137 251.41 788.846 250.602 790.181 249.33C790.522 248.847 790.695 248.265 790.67 247.674C790.646 247.083 790.427 246.517 790.047 246.063C789.155 245.285 788.073 244.759 786.91 244.538C785.748 244.317 784.547 244.409 783.432 244.805C781.06 245.253 778.94 246.571 777.487 248.5C777.183 248.96 777.018 249.498 777.012 250.049C777.006 250.601 777.159 251.142 777.453 251.609C777.747 252.075 778.17 252.447 778.67 252.679C779.17 252.912 779.726 252.995 780.272 252.919Z" fill="#263238"/>
<path d="M830.511 263.898C828.783 263.709 827.066 263.422 825.369 263.041C823.534 262.992 821.766 262.343 820.335 261.194C819.951 260.743 819.727 260.179 819.698 259.587C819.669 258.996 819.836 258.412 820.174 257.927C820.993 257.071 822.025 256.448 823.164 256.124C824.303 255.799 825.508 255.783 826.655 256.079C829.059 256.326 831.284 257.463 832.894 259.266C833.246 259.694 833.464 260.215 833.523 260.766C833.581 261.316 833.477 261.872 833.224 262.365C832.971 262.857 832.579 263.265 832.097 263.537C831.615 263.81 831.064 263.935 830.511 263.898Z" fill="#263238"/>
<path d="M791.359 277.368C791.359 277.181 790.984 277.636 790.984 277.851C791.493 282.939 791.225 288.857 786.726 290.865C786.566 290.865 786.726 291.187 786.726 291.16C792.35 289.982 792.644 282.108 791.359 277.368Z" fill="#263238"/>
<path d="M786.432 272.334C778.184 272.334 778.639 288.777 786.298 288.857C793.957 288.937 793.314 272.414 786.432 272.334Z" fill="#263238"/>
<path d="M783.03 273.539C781.745 274.449 780.513 276.056 778.933 276.217C777.353 276.377 775.746 274.637 774.541 272.95C774.541 272.789 774.3 272.95 774.3 273.137C774.3 276.297 775.452 279.564 778.478 280.073C781.504 280.582 783.218 277.797 783.834 274.717C784.021 274.048 783.539 273.164 783.03 273.539Z" fill="#263238"/>
<path d="M824.968 321.1C823.709 322.251 822.424 323.777 820.549 323.965C818.679 323.841 816.855 323.33 815.193 322.465C815.156 322.448 815.115 322.442 815.075 322.45C815.035 322.458 814.999 322.478 814.972 322.508C814.944 322.539 814.928 322.577 814.924 322.617C814.921 322.658 814.93 322.699 814.952 322.733C815.65 323.769 816.617 324.596 817.749 325.124C818.882 325.653 820.136 325.863 821.379 325.732C822.438 325.508 823.403 324.968 824.149 324.184C824.895 323.4 825.385 322.409 825.557 321.341C825.45 321.046 825.155 320.939 824.968 321.1Z" fill="#263238"/>
<path d="M799.366 300.56C799.366 300.56 798.777 308.219 798.965 311.807C805.978 311.422 813.011 312.035 819.853 313.628C821.459 314.057 821.352 312.744 819.531 311.78C814.107 308.954 807.96 307.816 801.884 308.513C801.562 307.522 803.035 296.73 802.473 296.73C799.704 297.137 797.002 297.911 794.439 299.033C795.242 282.966 798.616 267.326 799.179 251.392C799.187 251.276 799.152 251.16 799.081 251.067C799.009 250.974 798.907 250.91 798.792 250.888C798.678 250.865 798.559 250.884 798.457 250.943C798.356 251.001 798.279 251.094 798.241 251.205C793.528 267.46 792.189 285.831 790.931 302.327C790.77 304.362 797.974 301.256 799.366 300.56Z" fill="#263238"/>
<path d="M835.117 277.636C832.109 276.457 828.819 276.196 825.664 276.886C823.972 277.271 822.371 277.98 820.95 278.975C819.486 280.069 818.287 281.478 817.442 283.099L815.862 286.018L819.103 285.67C821.381 285.429 823.679 285.429 825.958 285.67C828.336 285.878 830.622 286.689 832.6 288.027C831.305 285.661 829.131 283.9 826.547 283.126C824.03 282.294 821.367 281.993 818.728 282.242L820.388 284.92C821.774 282.596 823.908 280.812 826.44 279.859C829.229 278.761 832.144 278.014 835.117 277.636Z" fill="#263238"/>
<path d="M825.824 290.946C823.4 290.377 821.066 289.475 818.888 288.268C818.379 287.946 816.425 286.473 816.532 286.045C816.808 284.8 817.24 283.594 817.817 282.457C816.917 283.468 816.233 284.652 815.809 285.938C815.958 286.646 816.261 287.312 816.696 287.891C817.131 288.469 817.687 288.945 818.326 289.285C820.629 290.508 823.22 291.082 825.824 290.946Z" fill="#263238"/>
<path d="M808.043 311.271C808.043 311.271 812.702 317.966 818.058 318.77C824.218 319.734 824.941 314.19 818.058 311.03C814.577 309.397 808.043 311.271 808.043 311.271Z" fill="#263238"/>
<path d="M818.032 318.904C815.697 318.419 813.551 317.276 811.845 315.61C813.131 313.708 816.077 311.593 822.691 315.155C823.655 317.404 821.941 319.386 818.032 318.904Z" fill="#FF99BA"/>
<path d="M901.905 287.92C889.533 289.473 885.409 263.577 885.409 263.577C885.409 263.577 860.182 264.862 850.087 228.978C851.339 239.819 855.733 250.058 862.727 258.435C862.727 258.435 817.978 255.757 797.438 219.525C797.438 219.525 805.847 238.136 813.184 244.537C813.184 244.537 794.251 240.252 784.423 225.523C784.423 225.523 777.674 247.402 771.97 253.642C771.97 253.642 770.016 175.686 842.561 180.453C842.561 180.453 887.872 181.257 905.842 216.231C923.811 251.205 901.905 287.92 901.905 287.92Z" fill="#263238"/>
<path d="M890.336 291.562C890.336 291.562 905.306 267.165 916.286 272.361C927.265 277.556 916.982 312.262 904.797 317.645C903.282 318.446 901.621 318.933 899.912 319.075C898.204 319.217 896.485 319.011 894.858 318.471C893.232 317.93 891.732 317.066 890.448 315.93C889.165 314.794 888.125 313.409 887.391 311.861L890.336 291.562Z" fill="#DD6A57"/>
<path d="M913.099 282.242C913.287 282.242 913.34 282.483 913.099 282.564C904.557 286.634 900.459 295.016 897.728 303.639C900.138 300.238 903.566 298.283 908.091 300.961C908.332 301.095 908.091 301.47 907.877 301.443C906.313 301.042 904.662 301.138 903.155 301.719C901.648 302.3 900.359 303.336 899.468 304.684C897.969 306.929 896.729 309.336 895.773 311.861C895.398 312.664 893.979 312.343 894.22 311.432C894.204 311.362 894.204 311.289 894.22 311.218C893.47 300.158 901.182 284.09 913.099 282.242Z" fill="#263238"/>
<path d="M897.754 313.735C897.793 314.429 898.036 315.095 898.454 315.65C898.871 316.205 899.444 316.624 900.099 316.853C900.755 317.082 901.464 317.112 902.136 316.938C902.808 316.764 903.414 316.394 903.876 315.876C904.338 315.357 904.636 314.713 904.732 314.026C904.828 313.338 904.717 312.637 904.414 312.012C904.111 311.387 903.63 310.866 903.031 310.515C902.432 310.164 901.742 309.998 901.048 310.04C900.589 310.064 900.138 310.178 899.723 310.378C899.308 310.577 898.936 310.856 898.63 311.2C898.324 311.544 898.089 311.945 897.938 312.38C897.788 312.815 897.725 313.276 897.754 313.735Z" fill="white"/>
<path d="M906.163 307.924C906.185 308.369 906.339 308.798 906.605 309.156C906.871 309.513 907.237 309.784 907.658 309.933C908.078 310.082 908.533 310.103 908.965 309.993C909.397 309.883 909.786 309.648 910.084 309.316C910.382 308.984 910.574 308.572 910.637 308.13C910.7 307.689 910.63 307.239 910.437 306.837C910.243 306.436 909.935 306.1 909.551 305.874C909.167 305.648 908.724 305.542 908.279 305.568C907.985 305.581 907.696 305.653 907.43 305.78C907.163 305.906 906.925 306.084 906.728 306.303C906.531 306.522 906.38 306.779 906.283 307.057C906.186 307.335 906.145 307.63 906.163 307.924Z" fill="white"/>
<path d="M662.472 454.074L623.58 463.11L651.555 583.518L690.447 574.481L662.472 454.074Z" fill="#EBEBEB"/>
<path d="M567.669 134.473C535.176 142.033 505.653 159.056 482.832 183.392C460.012 207.728 444.919 238.283 439.462 271.195C434.004 304.107 438.426 337.899 452.17 368.298C465.913 398.697 488.361 424.339 516.675 441.982C544.99 459.626 577.899 468.479 611.244 467.422C644.589 466.365 676.872 455.446 704.012 436.045C731.152 416.644 751.931 389.632 763.723 358.424C775.514 327.216 777.788 293.212 770.257 260.712C765.253 239.116 756.042 218.718 743.15 200.683C730.258 182.649 713.939 167.332 695.125 155.608C676.31 143.885 655.37 135.983 633.5 132.357C611.631 128.73 589.261 129.449 567.669 134.473ZM636.011 428.7C610.337 434.672 583.469 432.895 558.806 423.595C534.142 414.295 512.791 397.889 497.452 376.453C482.114 355.016 473.477 329.512 472.635 303.167C471.793 276.822 478.783 250.818 492.721 228.446C506.659 206.074 526.919 188.338 550.938 177.482C574.958 166.625 601.657 163.136 627.66 167.456C653.662 171.775 677.799 183.71 697.018 201.749C716.237 219.788 729.675 243.122 735.631 268.799C743.613 303.213 737.604 339.388 718.923 369.373C700.243 399.357 670.42 420.697 636.011 428.7Z" fill="#A6A6A6"/>
<path d="M675.745 540.408L649.66 546.469C640.627 548.567 635.006 557.591 637.105 566.624L670.468 710.221C672.566 719.253 681.59 724.874 690.623 722.776L716.708 716.715C725.74 714.617 731.362 705.593 729.263 696.56L695.9 552.963C693.801 543.931 684.777 538.309 675.745 540.408Z" fill="#263238"/>
<g opacity="0.3">
<path d="M735.631 268.746C741.584 294.412 739.792 321.268 730.483 345.917C721.174 370.566 704.765 391.901 683.331 407.225C661.897 422.548 636.401 431.173 610.066 432.007C583.731 432.841 557.74 425.848 535.379 411.912C513.018 397.976 495.292 377.722 484.441 353.712C473.59 329.702 470.102 303.014 474.418 277.021C478.734 251.029 490.661 226.9 508.689 207.686C526.717 188.471 550.038 175.033 575.703 169.072C592.749 165.109 610.409 164.544 627.674 167.409C644.938 170.274 661.469 176.513 676.321 185.769C691.173 195.026 704.056 207.118 714.232 221.356C724.409 235.593 731.68 251.697 735.631 268.746Z" fill="white"/>
<path d="M738.898 306.291C736.931 341.364 721.2 374.244 695.124 397.783C669.048 421.321 634.735 433.616 599.644 431.994L738.898 306.291Z" fill="#EBEBEB"/>
<path d="M677.6 186.613L486.849 358.779C482.103 349.325 478.507 339.336 476.137 329.027C473.361 317.215 472.243 305.074 472.816 292.955L613.65 165.832C636.394 167.17 658.414 174.325 677.6 186.613Z" fill="#EBEBEB"/>
<path d="M731.962 255.972L550.262 419.943C542.322 416.295 534.76 411.872 527.687 406.741L721.17 232.138C725.566 239.696 729.182 247.682 731.962 255.972Z" fill="#EBEBEB"/>
<path d="M692.248 197.485L496.061 374.498C495.15 373.159 494.24 371.82 493.383 370.455L688.445 194.432C689.784 195.396 691.043 196.387 692.248 197.485Z" fill="#EBEBEB"/>
<path d="M569.222 170.759L482.188 249.277C483.661 245.555 485.322 241.913 487.143 238.378L557.921 174.482C561.59 173.116 565.366 171.857 569.222 170.759Z" fill="#EBEBEB"/>
</g>
<path d="M511.272 321.93C511.259 321.752 511.259 321.573 511.272 321.394C510.789 318.716 511.62 323.938 511.272 322.198C510.923 320.457 510.736 318.074 510.575 316.012C509.959 308.741 509.959 301.431 510.575 294.16C510.575 293.115 510.763 292.097 510.843 291.08C510.843 290.759 510.549 293.49 510.843 291.321L511.084 289.446C511.405 287.036 511.807 284.626 512.289 282.243C513.305 276.988 514.674 271.808 516.386 266.737C516.788 265.532 517.243 264.327 517.672 263.122C518.234 261.488 516.922 264.916 517.806 262.774L518.689 260.658C519.841 257.98 521.1 255.302 522.439 252.624C523.778 249.946 525.518 247.081 527.205 244.43C528.009 243.198 528.812 241.993 529.642 240.788C531.062 238.726 528.973 241.618 530.071 240.172L531.651 238.083C536.527 231.953 541.98 226.303 547.933 221.212C547.933 221.212 549.165 220.221 548.254 220.971C547.344 221.721 548.736 220.569 548.897 220.435L551.575 218.32C553.369 216.981 555.19 215.642 557.065 214.463C560.991 211.839 565.049 209.417 569.223 207.206C570.341 206.503 571.31 205.586 572.074 204.508C572.838 203.431 573.382 202.213 573.676 200.925C573.969 199.637 574.006 198.303 573.784 197.001C573.562 195.699 573.086 194.453 572.383 193.334C571.679 192.216 570.762 191.247 569.685 190.483C568.607 189.719 567.389 189.175 566.101 188.881C564.813 188.588 563.48 188.551 562.177 188.773C560.875 188.995 559.629 189.471 558.511 190.174C532.053 204.287 510.307 226.568 499.381 254.66C491.984 273.551 488.83 293.838 490.142 314.084C490.41 318.58 490.982 323.054 491.856 327.473C492.619 330.022 494.36 332.166 496.698 333.435C499.037 334.705 501.782 334.997 504.336 334.249C506.847 333.422 508.948 331.666 510.207 329.341C511.467 327.016 511.79 324.298 511.111 321.742L511.272 321.93Z" fill="white"/>
<path d="M520.162 350.423C520.716 352.291 520.704 354.282 520.128 356.143C519.551 358.004 518.435 359.652 516.922 360.88C515.409 362.107 513.565 362.858 511.625 363.038C509.685 363.219 507.735 362.82 506.022 361.892C504.308 360.964 502.908 359.549 501.999 357.826C501.089 356.103 500.711 354.149 500.912 352.211C501.113 350.272 501.883 348.437 503.127 346.937C504.37 345.437 506.03 344.339 507.897 343.782C509.139 343.408 510.442 343.283 511.731 343.415C513.021 343.547 514.272 343.933 515.412 344.55C516.552 345.167 517.559 346.004 518.374 347.012C519.189 348.02 519.797 349.179 520.162 350.423Z" fill="white"/>
<path d="M946.306 434.859C970.407 522 981.976 609.489 968.64 654.612C960.124 683.374 939.584 702.816 926.516 709.243C895.96 724.347 794.599 702.923 728.561 689.64C712.333 686.373 750.601 555.608 766.909 562.544C791.011 572.747 864.789 586.512 866.824 587.182C871.189 588.681 880.214 494.122 886.587 438.689C895.398 361.456 932.407 384.54 946.306 434.859Z" fill="#DD6A57"/>
<path d="M601.652 537.639C594.475 549.342 603.795 560.054 603.795 560.054C597.677 563.113 592.825 568.221 590.084 574.488C585.772 585.735 601.519 597.438 601.519 597.438C595.836 601.93 591.645 608.035 589.495 614.952C586.442 626.146 600.662 640.205 600.662 640.205C597.725 647.215 597.411 655.049 599.778 662.271C606.874 681.312 637.269 687.551 656.551 691.729C675.832 695.907 734.426 689.587 745.727 689.533L773.443 565.999C773.443 565.999 692.275 522.75 669.003 521.089C649.213 519.75 609.713 524.517 601.652 537.639Z" fill="#DD6A57"/>
<path d="M605.08 558.26C626.504 554.751 647.553 557.697 668.843 559.438C668.942 559.438 669.037 559.477 669.108 559.548C669.178 559.618 669.218 559.713 669.218 559.813C669.218 559.912 669.178 560.008 669.108 560.078C669.037 560.148 668.942 560.188 668.843 560.188C647.66 558.206 626.37 560.429 605.188 559.304C605.065 559.292 604.949 559.238 604.862 559.15C604.774 559.063 604.72 558.949 604.707 558.826C604.694 558.703 604.725 558.579 604.793 558.476C604.861 558.373 604.962 558.296 605.08 558.26Z" fill="#263238"/>
<path d="M602.295 595.912C607.207 595.569 612.142 595.885 616.97 596.849C622.13 597.527 627.281 598.295 632.422 599.152C642.724 600.937 652.971 602.91 663.165 605.07C663.621 605.07 663.594 605.874 663.165 605.793C652.882 604.106 642.599 602.58 632.288 601.321C627.12 600.678 621.952 600.116 616.756 599.554C611.842 599.354 606.965 598.609 602.215 597.331C602.069 597.273 601.945 597.17 601.861 597.037C601.777 596.905 601.736 596.749 601.745 596.592C601.754 596.436 601.812 596.285 601.91 596.163C602.009 596.041 602.144 595.953 602.295 595.912Z" fill="#263238"/>
<path d="M601.09 640.259C605.268 639.536 610.141 641.035 614.266 641.812C618.952 642.696 623.612 643.526 628.298 644.356C637.671 646.016 647.044 647.65 656.47 648.989C656.925 648.989 656.872 649.792 656.47 649.712C646.883 648.426 637.296 647.248 627.736 645.882C623.049 645.213 618.336 644.49 613.65 643.767C609.659 643.151 604.625 642.829 601.063 640.741C601.019 640.716 600.983 640.68 600.958 640.636C600.934 640.592 600.922 640.542 600.925 640.491C600.928 640.441 600.945 640.392 600.974 640.351C601.003 640.31 601.043 640.278 601.09 640.259Z" fill="#263238"/>
<path d="M628.111 524.839C618.39 526.097 607.249 528.24 600.956 536.515C598.047 540.025 596.616 544.529 596.966 549.074C597.52 553.319 599.664 557.195 602.965 559.92C599.079 561.172 595.626 563.494 593.001 566.621C590.377 569.747 588.688 573.551 588.129 577.595C587.966 579.619 588.222 581.656 588.88 583.577C589.539 585.498 590.587 587.263 591.958 588.762C593.297 590.342 594.824 591.734 596.297 593.18C597.769 594.626 599.403 595.858 600.929 597.117C599.279 598.406 597.73 599.821 596.297 601.348C594.689 602.892 593.244 604.597 591.985 606.436C589.379 610.08 587.907 614.412 587.754 618.889C587.977 623.338 589.525 627.618 592.199 631.181C594.374 634.863 597.44 637.94 601.117 640.125C601.163 640.147 601.215 640.152 601.265 640.139C601.314 640.126 601.357 640.096 601.387 640.054C601.416 640.012 601.429 639.961 601.424 639.91C601.418 639.859 601.395 639.812 601.358 639.777C598.468 637.139 596.018 634.056 594.101 630.645C591.784 627.006 590.515 622.8 590.432 618.487C590.787 614.398 592.168 610.465 594.449 607.052C595.583 605.201 596.817 603.413 598.144 601.696C599.467 600.292 600.701 598.807 601.84 597.251C601.84 597.251 598.653 593.877 597.528 592.431C596.404 590.984 595.306 589.431 594.288 587.851C592.132 584.852 591.177 581.155 591.61 577.487C592.242 574.064 593.798 570.878 596.109 568.275C598.359 565.597 601.278 563.482 603.634 560.857C603.719 560.718 603.774 560.563 603.797 560.402C603.82 560.241 603.81 560.077 603.768 559.92C598.412 551.565 599.082 543.638 604.812 537.452C607.732 534.452 611.147 531.979 614.908 530.141C619.236 528.174 623.714 526.553 628.298 525.294C628.486 525.267 628.405 524.812 628.111 524.839Z" fill="#263238"/>
<path d="M805.659 704.771C799.955 703.003 793.93 702.093 788.092 700.807C782.254 699.522 776.362 698.317 770.471 697.138C764.579 695.96 758.447 694.782 752.448 693.657C746.45 692.532 740.853 691.274 735.015 690.578C729.378 690.033 723.697 690.158 718.09 690.952C712.431 691.595 706.753 692.05 701.058 692.318C689.584 692.872 678.086 692.622 666.647 691.568C653.704 690.367 640.886 688.082 628.325 684.74C628.057 684.74 627.977 685.061 628.325 685.141C650.102 692.411 672.932 696.031 695.89 695.853C701.567 695.853 707.271 695.505 712.922 694.943C718.567 694.141 724.254 693.658 729.953 693.496C735.98 693.895 741.963 694.79 747.842 696.174C753.76 697.272 759.652 698.397 765.57 699.442C772.265 700.62 778.96 701.825 785.682 702.869C792.403 703.914 799.072 705.413 805.659 705.895C806.141 705.788 806.168 704.905 805.659 704.771Z" fill="#263238"/>
<path d="M888.837 592.591C880.267 589.672 871.216 587.851 862.405 585.736C853.595 583.62 844.677 581.585 835.813 579.576C818.889 575.747 801.75 572.506 784.932 567.82C780.513 566.588 776.148 565.142 771.837 563.696C769.668 562.919 767.552 562.062 765.436 561.018C763.321 559.974 760.884 559.331 758.795 558.34C758.554 558.179 758.367 558.554 758.608 558.715C760.295 559.759 761.848 561.018 763.589 562.036C765.329 563.053 767.445 564.071 769.427 564.981C773.049 566.637 776.759 568.094 780.54 569.346C788.413 572.024 796.608 573.872 804.642 575.747C822.316 579.79 840.018 583.781 857.746 587.61C862.727 588.681 867.735 589.752 872.742 590.743C877.75 591.734 883.213 592.966 888.515 593.555C888.641 593.59 888.775 593.575 888.89 593.514C889.005 593.452 889.092 593.349 889.133 593.226C889.175 593.102 889.167 592.967 889.112 592.849C889.057 592.731 888.958 592.639 888.837 592.591Z" fill="#263238"/>
<path d="M860.959 560.188L983.449 576.845C983.449 576.845 961.061 449.508 937.254 407.33C913.769 365.714 887.846 393.217 877.964 443.563C866.877 499.371 860.959 560.188 860.959 560.188Z" fill="#37474F"/>
<path d="M974.264 558.394C970.836 557.59 967.328 557.081 963.9 556.332C960.472 555.582 957.178 555.073 953.804 554.537C946.922 553.466 940.013 552.502 933.103 551.565C919.499 549.69 905.922 547.628 892.265 546.209C884.498 545.352 876.759 544.2 868.993 543.531C868.936 543.531 868.882 543.554 868.842 543.594C868.801 543.634 868.779 543.688 868.779 543.745C868.779 543.802 868.801 543.857 868.842 543.897C868.882 543.937 868.936 543.959 868.993 543.959C882.517 547.119 896.308 549.476 910.019 551.699C923.731 553.921 937.227 556.01 950.885 557.51C954.715 557.912 958.544 558.42 962.4 558.608C966.257 558.795 970.3 559.143 974.237 559.224C974.347 559.227 974.454 559.187 974.534 559.112C974.615 559.036 974.662 558.932 974.665 558.822C974.669 558.712 974.629 558.605 974.553 558.525C974.478 558.444 974.374 558.397 974.264 558.394Z" fill="#263238"/>
<path d="M1041.37 96.3927C1039.8 111.458 1034.07 125.789 1024.83 137.788C1015.59 149.787 1003.19 158.981 989.024 164.345C974.859 169.708 959.482 171.03 944.609 168.162C929.736 165.294 915.953 158.35 904.797 148.104L863.878 154.129L884.365 118.754C879.667 107.24 877.656 94.8059 878.486 82.3981C879.316 69.9902 882.965 57.935 889.154 47.1493C895.344 36.3636 903.912 27.1314 914.206 20.1548C924.5 13.1782 936.25 8.64103 948.561 6.88825C960.873 5.13547 973.422 6.2133 985.254 10.0397C997.086 13.8661 1007.89 20.3404 1016.84 28.9702C1025.8 37.5999 1032.67 48.1578 1036.93 59.841C1041.19 71.5243 1042.72 84.025 1041.43 96.3927H1041.37Z" fill="white"/>
<path d="M1041.37 96.3926C1039.81 111.469 1034.1 125.817 1024.88 137.847C1020.35 143.903 1014.93 149.239 1008.81 153.674C996.643 162.807 982.201 168.421 967.06 169.903C963.286 170.255 959.491 170.327 955.706 170.117C951.913 170.034 948.133 169.639 944.405 168.939C929.325 166.177 915.313 159.268 903.941 148.988L904.905 149.282L864.066 155.549L861.093 156.004L862.593 153.326L882.945 117.897V119.289C876.999 104.656 875.364 88.6267 878.233 73.0941C881.101 57.5615 888.354 43.174 899.135 31.63C909.916 20.086 923.775 11.8677 939.075 7.94511C954.376 4.02255 970.479 4.5596 985.484 9.49283C997.301 13.5078 1008.07 20.1139 1017 28.8277C1025.92 37.507 1032.75 48.0992 1036.97 59.8041C1041.19 71.5089 1042.7 84.0202 1041.37 96.3926ZM1041.37 96.3926C1042.66 84.0884 1041.11 71.6522 1036.84 60.0409C1032.57 48.4297 1025.7 37.9529 1016.74 29.4169C1007.79 20.8808 996.992 14.513 985.189 10.8036C973.387 7.09407 960.891 6.1418 948.663 8.01997C936.524 9.84801 924.964 14.428 914.867 21.4098C904.866 28.4519 896.522 37.5909 890.417 48.1894C884.386 58.79 880.833 70.6189 880.026 82.7886C879.284 94.9408 881.25 107.106 885.784 118.405L886.079 119.155L885.704 119.825L865.11 155.12L863.637 152.951L904.583 147.22H905.146L905.547 147.595C916.486 157.818 930.05 164.8 944.726 167.76C948.379 168.51 952.087 168.966 955.813 169.126C959.54 169.38 963.28 169.38 967.007 169.126C974.471 168.544 981.817 166.922 988.832 164.306C995.905 161.732 1002.56 158.122 1008.57 153.594C1011.59 151.378 1014.47 148.972 1017.19 146.39C1019.84 143.732 1022.33 140.915 1024.64 137.955C1033.96 125.919 1039.75 111.53 1041.37 96.3926Z" fill="#263238"/>
<path d="M920.062 126.091C920.011 125.005 920.181 123.92 920.562 122.901C920.943 121.883 921.527 120.953 922.278 120.166C923.029 119.38 923.932 118.755 924.932 118.328C925.932 117.901 927.008 117.681 928.096 117.682C930.326 117.682 932.465 118.568 934.042 120.145C935.619 121.722 936.504 123.861 936.504 126.091C936.504 128.321 935.619 130.46 934.042 132.037C932.465 133.614 930.326 134.5 928.096 134.5C927.008 134.501 925.932 134.282 924.932 133.855C923.932 133.428 923.029 132.802 922.278 132.016C921.527 131.23 920.943 130.299 920.562 129.281C920.181 128.262 920.011 127.177 920.062 126.091ZM923.463 106.703L921.561 41.6016H934.576L932.568 106.622L923.463 106.703Z" fill="#FF9446"/>
<path d="M951.314 126.091C951.263 125.005 951.433 123.92 951.814 122.901C952.195 121.883 952.779 120.953 953.53 120.166C954.281 119.38 955.184 118.755 956.184 118.328C957.184 117.901 958.26 117.681 959.348 117.682C961.578 117.682 963.716 118.568 965.293 120.145C966.87 121.722 967.756 123.861 967.756 126.091C967.756 128.321 966.87 130.46 965.293 132.037C963.716 133.614 961.578 134.5 959.348 134.5C958.26 134.501 957.184 134.282 956.184 133.855C955.184 133.428 954.281 132.802 953.53 132.016C952.779 131.23 952.195 130.299 951.814 129.281C951.433 128.262 951.263 127.177 951.314 126.091ZM954.715 106.703L952.813 41.6016H965.828L963.927 106.703H954.715Z" fill="#FF9446"/>
<path d="M982.458 126.091C982.407 125.005 982.578 123.92 982.959 122.901C983.34 121.883 983.923 120.953 984.675 120.166C985.426 119.38 986.329 118.755 987.329 118.328C988.329 117.901 989.405 117.681 990.492 117.682C992.722 117.682 994.861 118.568 996.438 120.145C998.015 121.722 998.901 123.861 998.901 126.091C998.901 128.321 998.015 130.46 996.438 132.037C994.861 133.614 992.722 134.5 990.492 134.5C989.405 134.501 988.329 134.282 987.329 133.855C986.329 133.428 985.426 132.802 984.675 132.016C983.923 131.23 983.34 130.299 982.959 129.281C982.578 128.262 982.407 127.177 982.458 126.091ZM985.859 106.703L983.958 41.6016H996.973L995.071 106.703H985.859Z" fill="#FF9446"/>
</svg>
