<svg width="25" height="24" viewBox="0 0 25 24" fill="none" xmlns="http://www.w3.org/2000/svg">
<path d="M12.4996 4.8001C13.9472 4.80005 15.3613 5.23641 16.5572 6.05222C17.7531 6.86803 18.6753 8.02541 19.2035 9.3733C19.7317 10.7212 19.8412 12.197 19.5179 13.6081C19.1946 15.0192 18.4534 16.3001 17.3911 17.2836C16.3288 18.267 14.9946 18.9074 13.5628 19.1212C12.131 19.3349 10.668 19.1121 9.3648 18.4818C8.06156 17.8514 6.9786 16.8429 6.25726 15.5877C5.53591 14.3325 5.20969 12.8891 5.32116 11.4457C5.32715 11.3671 5.31759 11.288 5.29303 11.2131C5.26847 11.1381 5.22939 11.0688 5.17802 11.0089C5.12665 10.9491 5.064 10.9 4.99364 10.8643C4.92328 10.8287 4.8466 10.8073 4.76796 10.8013C4.68932 10.7953 4.61028 10.8049 4.53534 10.8294C4.4604 10.854 4.39103 10.8931 4.33119 10.9444C4.27135 10.9958 4.22222 11.0585 4.18659 11.1288C4.15097 11.1992 4.12955 11.2759 4.12356 11.3545C3.97157 13.3234 4.51814 15.283 5.66728 16.889C6.81642 18.495 8.49467 19.6448 10.4073 20.1365C12.3199 20.6282 14.3446 20.4303 16.1258 19.5775C17.907 18.7248 19.3308 17.2718 20.1472 15.4736C20.9636 13.6755 21.1204 11.6472 20.59 9.74497C20.0596 7.84273 18.876 6.18817 17.247 5.07185C15.618 3.95554 13.6478 3.44885 11.6823 3.64077C9.71685 3.83269 7.88185 4.71094 6.49956 6.1213V4.2001C6.49956 4.04097 6.43635 3.88836 6.32382 3.77583C6.2113 3.66331 6.05869 3.6001 5.89956 3.6001C5.74043 3.6001 5.58782 3.66331 5.4753 3.77583C5.36277 3.88836 5.29956 4.04097 5.29956 4.2001V7.8001C5.29956 7.95923 5.36277 8.11184 5.4753 8.22436C5.58782 8.33688 5.74043 8.4001 5.89956 8.4001H9.49956C9.65869 8.4001 9.8113 8.33688 9.92382 8.22436C10.0363 8.11184 10.0996 7.95923 10.0996 7.8001C10.0996 7.64097 10.0363 7.48836 9.92382 7.37583C9.8113 7.26331 9.65869 7.2001 9.49956 7.2001H7.13316C7.80766 6.44405 8.63455 5.83932 9.55946 5.42568C10.4844 5.01203 11.4864 4.79883 12.4996 4.8001ZM12.4996 7.8001C12.4996 7.64097 12.4363 7.48836 12.3238 7.37583C12.2113 7.26331 12.0587 7.2001 11.8996 7.2001C11.7404 7.2001 11.5878 7.26331 11.4753 7.37583C11.3628 7.48836 11.2996 7.64097 11.2996 7.8001V12.6001C11.2996 12.7592 11.3628 12.9118 11.4753 13.0244C11.5878 13.1369 11.7404 13.2001 11.8996 13.2001H15.4996C15.6587 13.2001 15.8113 13.1369 15.9238 13.0244C16.0363 12.9118 16.0996 12.7592 16.0996 12.6001C16.0996 12.441 16.0363 12.2884 15.9238 12.1758C15.8113 12.0633 15.6587 12.0001 15.4996 12.0001H12.4996V7.8001Z" fill="#222222"/>
</svg>
