<svg width="25" height="24" fill="none" xmlns="http://www.w3.org/2000/svg"><path d="M21.5 12a8.958 8.958 0 0 1-1.526 5.016A8.99 8.99 0 0 1 12.5 21a8.99 8.99 0 0 1-8.93-7.881A9 9 0 1 1 21.5 12Z" stroke="#222"/><path d="m5.666 17.856-.48-.142-.077.261.177.207.38-.326Zm13.668 0 .38.326.177-.207-.078-.261-.479.142ZM9.5 15.5h6v-1h-6v1Zm0-1a4.502 4.502 0 0 0-4.314 3.214l.96.285A3.502 3.502 0 0 1 9.5 15.5v-1Zm3 6a8.48 8.48 0 0 1-6.455-2.97l-.759.652A9.48 9.48 0 0 0 12.5 21.5v-1Zm3-5a3.502 3.502 0 0 1 3.355 2.5l.958-.286A4.502 4.502 0 0 0 15.5 14.5v1Zm3.455 2.03A8.48 8.48 0 0 1 12.5 20.5v1a9.48 9.48 0 0 0 7.214-3.318l-.759-.652Z" fill="#222"/><circle cx="12.5" cy="9" r="3.5" stroke="#222"/></svg>