<svg width="24" height="24" viewBox="0 0 24 24" fill="none" xmlns="http://www.w3.org/2000/svg">
<path d="M19.1304 10.6957H18.4261L16.6143 6.61957C16.5324 6.43515 16.3986 6.27846 16.2294 6.1685C16.0602 6.05853 15.8627 6 15.6609 6H7.9913C7.78948 6 7.59199 6.05853 7.42276 6.1685C7.25353 6.27846 7.11982 6.43515 7.03783 6.61957L5.22609 10.6957H4.52174C4.38337 10.6957 4.25066 10.7506 4.15281 10.8485C4.05497 10.9463 4 11.079 4 11.2174C4 11.3558 4.05497 11.4885 4.15281 11.5863C4.25066 11.6842 4.38337 11.7391 4.52174 11.7391H5.04348V16.9565C5.04348 17.2333 5.15342 17.4987 5.34911 17.6944C5.5448 17.8901 5.81021 18 6.08696 18H7.65217C7.92892 18 8.19433 17.8901 8.39002 17.6944C8.58571 17.4987 8.69565 17.2333 8.69565 16.9565V15.913H14.9565V16.9565C14.9565 17.2333 15.0665 17.4987 15.2621 17.6944C15.4578 17.8901 15.7233 18 16 18H17.5652C17.842 18 18.1074 17.8901 18.3031 17.6944C18.4988 17.4987 18.6087 17.2333 18.6087 16.9565V11.7391H19.1304C19.2688 11.7391 19.4015 11.6842 19.4994 11.5863C19.5972 11.4885 19.6522 11.3558 19.6522 11.2174C19.6522 11.079 19.5972 10.9463 19.4994 10.8485C19.4015 10.7506 19.2688 10.6957 19.1304 10.6957ZM7.9913 7.04348H15.6609L17.2841 10.6957H6.36804L7.9913 7.04348ZM7.65217 16.9565H6.08696V15.913H7.65217V16.9565ZM16 16.9565V15.913H17.5652V16.9565H16ZM17.5652 14.8696H6.08696V11.7391H17.5652V14.8696ZM7.13043 13.3043C7.13043 13.166 7.1854 13.0333 7.28325 12.9354C7.38109 12.8376 7.5138 12.7826 7.65217 12.7826H8.69565C8.83403 12.7826 8.96673 12.8376 9.06458 12.9354C9.16242 13.0333 9.21739 13.166 9.21739 13.3043C9.21739 13.4427 9.16242 13.5754 9.06458 13.6733C8.96673 13.7711 8.83403 13.8261 8.69565 13.8261H7.65217C7.5138 13.8261 7.38109 13.7711 7.28325 13.6733C7.1854 13.5754 7.13043 13.4427 7.13043 13.3043ZM14.4348 13.3043C14.4348 13.166 14.4898 13.0333 14.5876 12.9354C14.6854 12.8376 14.8181 12.7826 14.9565 12.7826H16C16.1384 12.7826 16.2711 12.8376 16.3689 12.9354C16.4668 13.0333 16.5217 13.166 16.5217 13.3043C16.5217 13.4427 16.4668 13.5754 16.3689 13.6733C16.2711 13.7711 16.1384 13.8261 16 13.8261H14.9565C14.8181 13.8261 14.6854 13.7711 14.5876 13.6733C14.4898 13.5754 14.4348 13.4427 14.4348 13.3043Z" fill="#222222"/>
</svg>
