<svg width="24" height="24" viewBox="0 0 24 24" fill="none" xmlns="http://www.w3.org/2000/svg">
<path d="M8.85006 10.702C9.06814 10.702 9.27728 10.6154 9.43149 10.4612C9.58569 10.307 9.67232 10.0978 9.67232 9.87975C9.67232 9.66168 9.58569 9.45253 9.43149 9.29833C9.27728 9.14412 9.06814 9.05749 8.85006 9.05749C8.63198 9.05749 8.42284 9.14412 8.26863 9.29833C8.11443 9.45253 8.0278 9.66168 8.0278 9.87975C8.0278 10.0978 8.11443 10.307 8.26863 10.4612C8.42284 10.6154 8.63198 10.702 8.85006 10.702ZM12.9454 12.0803C12.9454 12.2984 12.8588 12.5076 12.7046 12.6618C12.5504 12.816 12.3412 12.9026 12.1232 12.9026C11.9051 12.9026 11.6959 12.816 11.5417 12.6618C11.3875 12.5076 11.3009 12.2984 11.3009 12.0803C11.3009 11.8623 11.3875 11.6531 11.5417 11.4989C11.6959 11.3447 11.9051 11.2581 12.1232 11.2581C12.3412 11.2581 12.5504 11.3447 12.7046 11.4989C12.8588 11.6531 12.9454 11.8623 12.9454 12.0803ZM8.85446 15.6587C8.96295 15.6587 9.07037 15.6373 9.1706 15.5958C9.27083 15.5543 9.3619 15.4934 9.43861 15.4167C9.51532 15.34 9.57617 15.249 9.61769 15.1487C9.65921 15.0485 9.68057 14.9411 9.68057 14.8326C9.68057 14.7241 9.65921 14.6167 9.61769 14.5164C9.57617 14.4162 9.51532 14.3251 9.43861 14.2484C9.3619 14.1717 9.27083 14.1109 9.1706 14.0694C9.07037 14.0278 8.96295 14.0065 8.85446 14.0065C8.63536 14.0065 8.42524 14.0935 8.27031 14.2484C8.11538 14.4034 8.02835 14.6135 8.02835 14.8326C8.02835 15.0517 8.11538 15.2618 8.27031 15.4167C8.42524 15.5717 8.63536 15.6587 8.85446 15.6587ZM5 5.15133C5 3.94681 5.98452 2.92709 7.23304 3.0041C12.1248 3.3055 16.4149 4.95113 19.7754 8.15988C20.7291 9.06959 20.541 10.5557 19.5521 11.3147C18.0132 12.5027 16.464 13.6772 14.9046 14.8381V16.7521C14.9046 17.5408 14.294 18.4021 13.2545 18.4021C13.0684 18.4025 12.8834 18.3728 12.7067 18.3141V18.4054C12.7067 19.1897 12.0951 20.0456 11.0534 20.0456C10.224 20.0456 9.67727 19.5 9.48477 18.8905C8.88196 19.3416 8.22305 19.8322 7.63454 20.27C6.54552 21.0807 5 20.303 5 18.9499V5.15133ZM12.7067 16.7521C12.7067 17.037 12.9201 17.3021 13.2545 17.3021C13.59 17.3021 13.8045 17.0348 13.8045 16.7521V14.5587C13.8046 14.472 13.8252 14.3865 13.8646 14.3093C13.9039 14.2321 13.961 14.1652 14.0311 14.1143C14.8892 13.4917 16.35 12.3817 17.6436 11.3928C14.6813 8.57348 10.5287 6.90036 6.10002 6.86516V18.9488C6.10032 19.0506 6.12885 19.1503 6.18244 19.2368C6.23603 19.3233 6.31258 19.3933 6.40356 19.4389C6.49454 19.4845 6.59639 19.504 6.69778 19.4951C6.79916 19.4863 6.89611 19.4495 6.97783 19.3889C7.84244 18.7442 8.86216 17.9852 9.62777 17.411C9.70949 17.3497 9.80665 17.3124 9.90838 17.3032C10.0101 17.2941 10.1124 17.3134 10.2037 17.3591C10.2951 17.4048 10.3719 17.475 10.4256 17.5619C10.4793 17.6488 10.5078 17.7489 10.5078 17.851V18.4054C10.5078 18.6771 10.7168 18.9466 11.0534 18.9466C11.1255 18.9484 11.1972 18.9357 11.2642 18.9093C11.3313 18.8828 11.3924 18.8432 11.4439 18.7928C11.4954 18.7423 11.5362 18.682 11.564 18.6155C11.5918 18.549 11.6059 18.4775 11.6056 18.4054V16.7521C11.6056 16.6062 11.6636 16.4663 11.7667 16.3632C11.8698 16.26 12.0097 16.2021 12.1556 16.2021C12.3015 16.2021 12.4414 16.26 12.5445 16.3632C12.6477 16.4663 12.7067 16.6062 12.7067 16.7521ZM18.88 10.4435C19.3915 10.0508 19.43 9.3512 19.0142 8.95409C15.8715 5.95434 11.8421 4.38902 7.16483 4.10081C6.59503 4.06561 6.10002 4.53422 6.10002 5.15133V5.76514C10.8598 5.80144 15.3435 7.62087 18.5269 10.7152L18.88 10.4435Z" fill="#222222"/>
</svg>
